G04 #@! TF.GenerationSoftware,KiCad,Pcbnew,(5.1.5-0)*
G04 #@! TF.CreationDate,2022-07-03T13:43:41+01:00*
G04 #@! TF.ProjectId,ESP32_Cnc_Shield,45535033-325f-4436-9e63-5f536869656c,rev?*
G04 #@! TF.SameCoordinates,Original*
G04 #@! TF.FileFunction,Copper,L2,Bot*
G04 #@! TF.FilePolarity,Positive*
%FSLAX46Y46*%
G04 Gerber Fmt 4.6, Leading zero omitted, Abs format (unit mm)*
G04 Created by KiCad (PCBNEW (5.1.5-0)) date 2022-07-03 13:43:41*
%MOMM*%
%LPD*%
G04 APERTURE LIST*
%ADD10C,3.000000*%
%ADD11R,3.000000X3.000000*%
%ADD12O,3.000000X2.000000*%
%ADD13R,3.000000X2.000000*%
%ADD14O,2.000000X3.000000*%
%ADD15R,2.000000X3.000000*%
%ADD16C,2.000000*%
%ADD17C,1.000000*%
%ADD18C,1.500000*%
%ADD19C,0.800000*%
%ADD20C,0.254000*%
G04 APERTURE END LIST*
D10*
X58714640Y39921180D03*
D11*
X58714640Y34841180D03*
D10*
X52400000Y25560000D03*
X57400000Y25560000D03*
D12*
X11993880Y38608000D03*
X11993880Y41148000D03*
X11993880Y43688000D03*
X11993880Y46228000D03*
X11993880Y48768000D03*
X11993880Y51308000D03*
X11993880Y53848000D03*
D13*
X11993880Y56388000D03*
D10*
X30960000Y25590000D03*
X35960000Y25590000D03*
D12*
X51699260Y70685940D03*
X51699260Y65605940D03*
X27950260Y70431940D03*
X27950260Y65351940D03*
X36840260Y70177940D03*
X36840260Y65097940D03*
X24140260Y70685940D03*
X24140260Y65605940D03*
D14*
X15240000Y4010000D03*
X12700000Y4010000D03*
X10160000Y4010000D03*
D15*
X7620000Y4010000D03*
D14*
X58536840Y4091940D03*
X55996840Y4091940D03*
X53456840Y4091940D03*
D15*
X50916840Y4091940D03*
D14*
X10259060Y74124820D03*
D15*
X12799060Y74124820D03*
D12*
X4424680Y65211960D03*
D13*
X4424680Y67751960D03*
D14*
X37300000Y4040000D03*
X34760000Y4040000D03*
X32220000Y4040000D03*
D15*
X29680000Y4040000D03*
D12*
X17637480Y9451440D03*
X17637480Y11991440D03*
X17637480Y14531440D03*
X17637480Y17071440D03*
X17637480Y19611440D03*
X17637480Y22151440D03*
X17637480Y24691440D03*
D13*
X17637480Y27231440D03*
D14*
X19774000Y74153040D03*
D15*
X22314000Y74153040D03*
D14*
X36954560Y74102240D03*
D15*
X34414560Y74102240D03*
D14*
X49138940Y74224160D03*
D15*
X51678940Y74224160D03*
D12*
X61171600Y9317780D03*
X61171600Y11857780D03*
X61171600Y14397780D03*
X61171600Y16937780D03*
X61171600Y19477780D03*
X61171600Y22017780D03*
X61171600Y24557780D03*
D13*
X61171600Y27097780D03*
D14*
X29141520Y74155580D03*
D15*
X26601520Y74155580D03*
D12*
X39884720Y9442700D03*
X39884720Y11982700D03*
X39884720Y14522700D03*
X39884720Y17062700D03*
X39884720Y19602700D03*
X39884720Y22142700D03*
X39884720Y24682700D03*
D13*
X39884720Y27222700D03*
D12*
X58851800Y48552100D03*
D13*
X58851800Y46012100D03*
D12*
X4937480Y9451440D03*
X4937480Y11991440D03*
X4937480Y14531440D03*
X4937480Y17071440D03*
X4937480Y19611440D03*
X4937480Y22151440D03*
X4937480Y24691440D03*
D13*
X4937480Y27231440D03*
D14*
X4328260Y34617940D03*
X6868260Y34617940D03*
X9408260Y34617940D03*
X11948260Y34617940D03*
X14488260Y34617940D03*
X17028260Y34617940D03*
X19568260Y34617940D03*
X22108260Y34617940D03*
X24648260Y34617940D03*
X27188260Y34617940D03*
X29728260Y34617940D03*
X32268260Y34617940D03*
X34808260Y34617940D03*
X37348260Y34617940D03*
X39888260Y34617940D03*
X42428260Y34617940D03*
X44968260Y34617940D03*
X47508260Y34617940D03*
D15*
X50048260Y34617940D03*
D12*
X48471600Y9317780D03*
X48471600Y11857780D03*
X48471600Y14397780D03*
X48471600Y16937780D03*
X48471600Y19477780D03*
X48471600Y22017780D03*
X48471600Y24557780D03*
D13*
X48471600Y27097780D03*
D12*
X27184720Y9442700D03*
X27184720Y11982700D03*
X27184720Y14522700D03*
X27184720Y17062700D03*
X27184720Y19602700D03*
X27184720Y22142700D03*
X27184720Y24682700D03*
D13*
X27184720Y27222700D03*
D14*
X4328260Y60017940D03*
X6868260Y60017940D03*
X9408260Y60017940D03*
X11948260Y60017940D03*
X14488260Y60017940D03*
X17028260Y60017940D03*
X19568260Y60017940D03*
X22108260Y60017940D03*
X24648260Y60017940D03*
X27188260Y60017940D03*
X29728260Y60017940D03*
X32268260Y60017940D03*
X34808260Y60017940D03*
X37348260Y60017940D03*
X39888260Y60017940D03*
X42428260Y60017940D03*
X44968260Y60017940D03*
X47508260Y60017940D03*
D15*
X50048260Y60017940D03*
D10*
X47254260Y70089940D03*
X47254260Y64589940D03*
X32268260Y70089940D03*
X32268260Y64589940D03*
X41158260Y70089940D03*
X41158260Y64589940D03*
X19187260Y69835940D03*
X19187260Y64335940D03*
X8880000Y25930000D03*
X13880000Y25930000D03*
D16*
X30910000Y18920000D03*
X39420000Y6710000D03*
X20490000Y15630000D03*
X17950000Y6990000D03*
X17870000Y4980000D03*
X16280000Y56640000D03*
X25810000Y6730000D03*
X27367710Y6727710D03*
X23980000Y6700000D03*
X46890000Y41250000D03*
X54200000Y41360000D03*
X64170000Y24430000D03*
X61580000Y31380000D03*
X12380000Y23090000D03*
X35250000Y21350000D03*
X31040000Y21270000D03*
X52256670Y28674812D03*
X56700000Y28690000D03*
X21590000Y56200000D03*
X10256520Y28529280D03*
X37375140Y37255140D03*
X37370000Y40950000D03*
X57924700Y30916880D03*
X55331360Y35255200D03*
X61080000Y6580000D03*
X64815000Y12060000D03*
X60899040Y1069340D03*
X39928800Y4696460D03*
X38860000Y29800000D03*
X21870000Y29870000D03*
X40350000Y29670000D03*
X54637940Y32499300D03*
X39090000Y54180000D03*
X47060000Y54520000D03*
X31370000Y31860010D03*
X34870000Y31860010D03*
X45610000Y27150000D03*
X29338347Y27748762D03*
X34408883Y27800000D03*
X24410000Y27340000D03*
X42700000Y29134203D03*
X8176260Y30398720D03*
X2273280Y25530000D03*
X2770000Y31900000D03*
X1450000Y7580000D03*
X2320000Y23270000D03*
X9180000Y46280000D03*
X6620000Y44110000D03*
X22308820Y11988800D03*
X24112220Y15270480D03*
X45676820Y15735300D03*
X42900000Y12697980D03*
D17*
X37348260Y37228260D02*
X37375140Y37255140D01*
X37348260Y34617940D02*
X37348260Y37228260D01*
X31036620Y23976620D02*
X30910000Y23850000D01*
X31036620Y27237940D02*
X31036620Y23976620D01*
X61171600Y6671600D02*
X61080000Y6580000D01*
X17637480Y6577480D02*
X17610000Y6550000D01*
X39884720Y7104720D02*
X39884720Y9442700D01*
X41020000Y7000000D02*
X39884720Y7104720D01*
X17950000Y5060000D02*
X17870000Y4980000D01*
X17950000Y6990000D02*
X17950000Y5060000D01*
X52361600Y27095240D02*
X52256670Y27200170D01*
X52256670Y27200170D02*
X52256670Y28674812D01*
X52256670Y28674812D02*
X52256670Y28674812D01*
X64042220Y24557780D02*
X64170000Y24430000D01*
X61171600Y24557780D02*
X64042220Y24557780D01*
X52256670Y28674812D02*
X52256670Y30089025D01*
X37375140Y37255140D02*
X37590000Y37470000D01*
X61171600Y9317780D02*
X61171600Y6671600D01*
D18*
X61851800Y46012100D02*
X64380000Y43483900D01*
X58851800Y46012100D02*
X61851800Y46012100D01*
X64380000Y27306180D02*
X64171600Y27097780D01*
X64171600Y27097780D02*
X61171600Y27097780D01*
X64351180Y34841180D02*
X64370000Y34860000D01*
X58714640Y34841180D02*
X64351180Y34841180D01*
X64370000Y34860000D02*
X64380000Y27306180D01*
X64380000Y43483900D02*
X64370000Y34860000D01*
X58937780Y27097780D02*
X57400000Y25560000D01*
X61171600Y27097780D02*
X58937780Y27097780D01*
X15601440Y27231440D02*
X14511450Y26141450D01*
X14511450Y26141450D02*
X13930000Y26141450D01*
X17637480Y27231440D02*
X15601440Y27231440D01*
X37592700Y27222700D02*
X35960000Y25590000D01*
X39884720Y27222700D02*
X37592700Y27222700D01*
X39884720Y28775280D02*
X38860000Y29800000D01*
X39884720Y27222700D02*
X39884720Y28775280D01*
X19510000Y29103960D02*
X17637480Y27231440D01*
X21870000Y29870000D02*
X19510000Y29103960D01*
X39884720Y27222700D02*
X39884720Y29204720D01*
X39884720Y29204720D02*
X40350000Y29670000D01*
X56372760Y32499300D02*
X58714640Y34841180D01*
X54637940Y32499300D02*
X56372760Y32499300D01*
D19*
X20457260Y65605940D02*
X19187260Y64335940D01*
X24140260Y65605940D02*
X20457260Y65605940D01*
X29728260Y62317940D02*
X29396200Y62650000D01*
X29728260Y60017940D02*
X29728260Y62317940D01*
X25296200Y62650000D02*
X24140260Y63805940D01*
X24140260Y63805940D02*
X24140260Y65605940D01*
X29396200Y62650000D02*
X25296200Y62650000D01*
X34808260Y63065940D02*
X36840260Y65097940D01*
X34808260Y60017940D02*
X34808260Y63065940D01*
X40650260Y65097940D02*
X41158260Y64589940D01*
X36840260Y65097940D02*
X40650260Y65097940D01*
X31506260Y65351940D02*
X32268260Y64589940D01*
X27950260Y65351940D02*
X31506260Y65351940D01*
X32268260Y64589940D02*
X32268260Y60017940D01*
X48270260Y65605940D02*
X47254260Y64589940D01*
X51699260Y65605940D02*
X48270260Y65605940D01*
X19568260Y36917940D02*
X36940320Y54290000D01*
X19568260Y34617940D02*
X19568260Y36917940D01*
X38980000Y54290000D02*
X39090000Y54180000D01*
X36940320Y54290000D02*
X38980000Y54290000D01*
X47060000Y54520000D02*
X50550000Y54520000D01*
X50550000Y54520000D02*
X53660000Y57630000D01*
X53660000Y57630000D02*
X53660000Y64030000D01*
X52084060Y65605940D02*
X51699260Y65605940D01*
X53660000Y64030000D02*
X52084060Y65605940D01*
X12001500Y43677840D02*
X9414156Y43677840D01*
X9414156Y43677840D02*
X6868260Y46223736D01*
X6868260Y46223736D02*
X6868260Y57717940D01*
X6868260Y57717940D02*
X6868260Y60017940D01*
X9408260Y65068380D02*
X6724680Y67751960D01*
X6724680Y67751960D02*
X4424680Y67751960D01*
X9408260Y60017940D02*
X9408260Y65068380D01*
X17028260Y60017940D02*
X17028260Y60781740D01*
X17028260Y60017940D02*
X17028260Y60731740D01*
X12799060Y64960940D02*
X12799060Y74124820D01*
X17028260Y60731740D02*
X12799060Y64960940D01*
X22108260Y59517940D02*
X22108260Y60017940D01*
X16428160Y53837840D02*
X22108260Y59517940D01*
X12001500Y53837840D02*
X16428160Y53837840D01*
X12001500Y48757840D02*
X17988280Y48757840D01*
X24648260Y55417820D02*
X24648260Y60017940D01*
X17988280Y48757840D02*
X24648260Y55417820D01*
X27188260Y57717940D02*
X27188260Y60017940D01*
X27188260Y54024600D02*
X27188260Y57717940D01*
X14301500Y41137840D02*
X27188260Y54024600D01*
X12001500Y41137840D02*
X14301500Y41137840D01*
X50571610Y11195035D02*
X50571610Y19931610D01*
X48694355Y9317780D02*
X50571610Y11195035D01*
X48471600Y9317780D02*
X48694355Y9317780D01*
X50571610Y19931610D02*
X54500001Y23860001D01*
X54500001Y23860001D02*
X54500001Y30209999D01*
X54500001Y30209999D02*
X52990000Y31720000D01*
X52990000Y31720000D02*
X52990000Y38490000D01*
X42428260Y49051740D02*
X42428260Y60017940D01*
X52990000Y38490000D02*
X42428260Y49051740D01*
X29484720Y14369633D02*
X33136621Y18021534D01*
X32978823Y28737942D02*
X32978823Y33907377D01*
X27184720Y9442700D02*
X27684720Y9442700D01*
X33136621Y26704260D02*
X32808882Y27031999D01*
X27684720Y9442700D02*
X29484720Y11242700D01*
X32808882Y27031999D02*
X32808882Y28568001D01*
X29484720Y11242700D02*
X29484720Y14369633D01*
X33136621Y18021534D02*
X33136621Y26704260D01*
X32808882Y28568001D02*
X32978823Y28737942D01*
X32978823Y33907377D02*
X32268260Y34617940D01*
X34808260Y34617940D02*
X34808260Y31921750D01*
X34808260Y31921750D02*
X34870000Y31860010D01*
X30370001Y30860011D02*
X31370000Y31860010D01*
X30027898Y30517908D02*
X30370001Y30860011D01*
X25206217Y30517908D02*
X30027898Y30517908D01*
X22340000Y27651691D02*
X25206217Y30517908D01*
X22379940Y14429740D02*
X22340000Y21600000D01*
X22448520Y14373860D02*
X22379940Y14429740D01*
X24884720Y11982700D02*
X22448520Y14373860D01*
X22340000Y21600000D02*
X22340000Y27651691D01*
X27184720Y11982700D02*
X24884720Y11982700D01*
X26471600Y16997780D02*
X26471600Y14457780D01*
X48471600Y27097780D02*
X45662220Y27097780D01*
X45662220Y27097780D02*
X45610000Y27150000D01*
X39888260Y32191740D02*
X39888260Y34617940D01*
X28812285Y27222700D02*
X29338347Y27748762D01*
X27184720Y27222700D02*
X28812285Y27222700D01*
X34792934Y28024741D02*
X34568193Y27800000D01*
X38959933Y32191740D02*
X34792934Y28024741D01*
X39888260Y32191740D02*
X38959933Y32191740D01*
X34568193Y27800000D02*
X34408883Y27800000D01*
X24527300Y27222700D02*
X24410000Y27340000D01*
X27184720Y27222700D02*
X24527300Y27222700D01*
X42700000Y30548416D02*
X42700000Y29134203D01*
X39888260Y32191740D02*
X41056676Y32191740D01*
X41056676Y32191740D02*
X42700000Y30548416D01*
X5606040Y29700000D02*
X4937480Y29031440D01*
X8176260Y30398720D02*
X5606040Y29700000D01*
X4937480Y29031440D02*
X4937480Y27231440D01*
X27188260Y36917940D02*
X27188260Y34617940D01*
X29340322Y39070002D02*
X27188260Y36917940D01*
X49309998Y39070002D02*
X29340322Y39070002D01*
X51648261Y36731739D02*
X49309998Y39070002D01*
X51648261Y32637939D02*
X51648261Y36731739D01*
X51528261Y32517939D02*
X51648261Y32637939D01*
X48609935Y32517939D02*
X51528261Y32517939D01*
X44009998Y27918002D02*
X48609935Y32517939D01*
X44009998Y22128004D02*
X44009998Y27918002D01*
X44000420Y14716760D02*
X44009998Y22128004D01*
X44000420Y14935200D02*
X44000420Y14716760D01*
X47971600Y11857780D02*
X44000420Y14935200D01*
X48471600Y11857780D02*
X47971600Y11857780D01*
X48471600Y16937780D02*
X48471600Y14397780D01*
X27184720Y24682700D02*
X26092700Y24682700D01*
X19937480Y11991440D02*
X17637480Y11991440D01*
X4937480Y24691440D02*
X3111840Y24691440D01*
X3111840Y24691440D02*
X2273280Y25530000D01*
X2770000Y33059680D02*
X4328260Y34617940D01*
X2770000Y31900000D02*
X2770000Y33059680D01*
X42670000Y11497420D02*
X42184720Y11982700D01*
X42184720Y11982700D02*
X39884720Y11982700D01*
X42670000Y8539998D02*
X42670000Y11497420D01*
X42900000Y12697980D02*
X42184720Y11982700D01*
X19937480Y10202518D02*
X19937480Y11991440D01*
X19937480Y10202518D02*
X19937480Y4907480D01*
X19937480Y4907480D02*
X19937480Y4747480D01*
X19937480Y4747480D02*
X16430000Y1240000D01*
X16430000Y1240000D02*
X6260000Y1240000D01*
X6260000Y1240000D02*
X5220000Y2280000D01*
X5220000Y2280000D02*
X5220000Y3810000D01*
X5220000Y3810000D02*
X1450000Y7580000D01*
X3741440Y24691440D02*
X4937480Y24691440D01*
X2320000Y23270000D02*
X3741440Y24691440D01*
X9242160Y46217840D02*
X9180000Y46280000D01*
X12001500Y46217840D02*
X9242160Y46217840D01*
X4328260Y41818260D02*
X4328260Y34617940D01*
X6620000Y44110000D02*
X4328260Y41818260D01*
X61171600Y11857780D02*
X61671600Y11857780D01*
X59070000Y1530000D02*
X49679998Y1530000D01*
X61671600Y11857780D02*
X64046999Y9482381D01*
X64046999Y9482381D02*
X64046999Y6506999D01*
X64046999Y6506999D02*
X59070000Y1530000D01*
X49679998Y1530000D02*
X42670000Y8539998D01*
X26371999Y1939999D02*
X19937480Y8374518D01*
X39529999Y1939999D02*
X26371999Y1939999D01*
X42670000Y8539998D02*
X42670000Y5080000D01*
X42670000Y5080000D02*
X39529999Y1939999D01*
X19937480Y8374518D02*
X19937480Y10202518D01*
X22308820Y11988800D02*
X19937480Y11991440D01*
X24884720Y24682700D02*
X27184720Y24682700D01*
X24112220Y23910200D02*
X24884720Y24682700D01*
X24112220Y15270480D02*
X24112220Y23910200D01*
X45676820Y24063000D02*
X45676820Y15735300D01*
X46171600Y24557780D02*
X45676820Y24063000D01*
X48471600Y24557780D02*
X46171600Y24557780D01*
X4937480Y9451440D02*
X2637480Y9451440D01*
X2637480Y9451440D02*
X2030000Y10058920D01*
X2030000Y10058920D02*
X2030000Y21191998D01*
X6126038Y32000000D02*
X15043511Y32000000D01*
X673270Y22548728D02*
X673270Y26547232D01*
X20508250Y32517930D02*
X22108260Y34117940D01*
X15043511Y32000000D02*
X15561441Y32517930D01*
X15561441Y32517930D02*
X20508250Y32517930D01*
X22108260Y34117940D02*
X22108260Y34617940D01*
X673270Y26547232D02*
X6126038Y32000000D01*
X2030000Y21191998D02*
X673270Y22548728D01*
X5160235Y11991440D02*
X7037490Y13868695D01*
X7037490Y13868695D02*
X7037490Y20329310D01*
X4937480Y11991440D02*
X5160235Y11991440D01*
X7037490Y20329310D02*
X11201400Y24493220D01*
X11201400Y24493220D02*
X11201400Y26743660D01*
X15975659Y31517919D02*
X28928239Y31517919D01*
X28928239Y31517919D02*
X29728260Y32317940D01*
X11201400Y26743660D02*
X15975659Y31517919D01*
X29728260Y32317940D02*
X29728260Y34617940D01*
X4937480Y17071440D02*
X4937480Y14531440D01*
D18*
X37300000Y7040000D02*
X37300000Y4040000D01*
X39166990Y14522700D02*
X37300000Y12655710D01*
X37300000Y12655710D02*
X37300000Y7040000D01*
X39884720Y14522700D02*
X39166990Y14522700D01*
X34760000Y12655710D02*
X34760000Y4040000D01*
X39166990Y17062700D02*
X34760000Y12655710D01*
X39884720Y17062700D02*
X39166990Y17062700D01*
X33059990Y13631522D02*
X33059990Y7879990D01*
X33059990Y7879990D02*
X32220000Y7040000D01*
X32220000Y7040000D02*
X32220000Y4040000D01*
X39884720Y19602700D02*
X39031168Y19602700D01*
X39031168Y19602700D02*
X33059990Y13631522D01*
X31359979Y14335689D02*
X31359979Y8719979D01*
X39884720Y22142700D02*
X39166990Y22142700D01*
X31359979Y8719979D02*
X29680000Y7040000D01*
X39166990Y22142700D02*
X31359979Y14335689D01*
X29680000Y7040000D02*
X29680000Y4040000D01*
X58580000Y6830000D02*
X58580000Y3830000D01*
X58580000Y12523910D02*
X58580000Y6830000D01*
X60453870Y14397780D02*
X58580000Y12523910D01*
X61171600Y14397780D02*
X60453870Y14397780D01*
X56040000Y6830000D02*
X56040000Y3830000D01*
X56040000Y12523910D02*
X56040000Y6830000D01*
X60453870Y16937780D02*
X56040000Y12523910D01*
X61171600Y16937780D02*
X60453870Y16937780D01*
X53500000Y6830000D02*
X53500000Y3830000D01*
X61171600Y19477780D02*
X58171600Y19477780D01*
X58171600Y19477780D02*
X53621632Y14927812D01*
X53621632Y6951632D02*
X53500000Y6830000D01*
X53621632Y14927812D02*
X53621632Y6951632D01*
X61171600Y22017780D02*
X58171600Y22017780D01*
X51921621Y7791621D02*
X50960000Y6830000D01*
X58171600Y22017780D02*
X51921621Y15767801D01*
X51921621Y15767801D02*
X51921621Y7791621D01*
X50960000Y6830000D02*
X50960000Y3830000D01*
D19*
X51699260Y74203840D02*
X51678940Y74224160D01*
X51699260Y70685940D02*
X51699260Y74203840D01*
X22314000Y72512200D02*
X24140260Y70685940D01*
X22314000Y74153040D02*
X22314000Y72512200D01*
D18*
X15240000Y7010000D02*
X15240000Y4010000D01*
X15187470Y7062530D02*
X15240000Y7010000D01*
X15187470Y12799160D02*
X15187470Y7062530D01*
X16919750Y14531440D02*
X15187470Y12799160D01*
X17637480Y14531440D02*
X16919750Y14531440D01*
X12700000Y12987512D02*
X12700000Y7010000D01*
X16783928Y17071440D02*
X12700000Y12987512D01*
X17637480Y17071440D02*
X16783928Y17071440D01*
X12700000Y7010000D02*
X12700000Y4010000D01*
X10160000Y7010000D02*
X10160000Y4010000D01*
X10160000Y12851690D02*
X10160000Y7010000D01*
X16919750Y19611440D02*
X10160000Y12851690D01*
X17637480Y19611440D02*
X16919750Y19611440D01*
X17637480Y22151440D02*
X14637480Y22151440D01*
X7620000Y7010000D02*
X7620000Y4010000D01*
X8387501Y15901461D02*
X8387501Y7777501D01*
X8387501Y7777501D02*
X7620000Y7010000D01*
X14637480Y22151440D02*
X8387501Y15901461D01*
D19*
X29141520Y71623200D02*
X27950260Y70431940D01*
X29141520Y74155580D02*
X29141520Y71623200D01*
X36840260Y73987940D02*
X36954560Y74102240D01*
X36840260Y70177940D02*
X36840260Y73987940D01*
D20*
G36*
X65380000Y660279D02*
G01*
X59643012Y662708D01*
X59647797Y665266D01*
X59805396Y794604D01*
X59837807Y834097D01*
X61341871Y2338160D01*
X61347439Y2310166D01*
X61489534Y1967118D01*
X61695825Y1658382D01*
X61958382Y1395825D01*
X62267118Y1189534D01*
X62610166Y1047439D01*
X62974344Y975000D01*
X63345656Y975000D01*
X63709834Y1047439D01*
X64052882Y1189534D01*
X64361618Y1395825D01*
X64624175Y1658382D01*
X64830466Y1967118D01*
X64972561Y2310166D01*
X65045000Y2674344D01*
X65045000Y3045656D01*
X64972561Y3409834D01*
X64830466Y3752882D01*
X64624175Y4061618D01*
X64361618Y4324175D01*
X64052882Y4530466D01*
X63709834Y4672561D01*
X63681840Y4678129D01*
X64742907Y5739196D01*
X64782395Y5771603D01*
X64911733Y5929202D01*
X65007840Y6109006D01*
X65067023Y6304104D01*
X65081999Y6456161D01*
X65081999Y6456170D01*
X65087005Y6506998D01*
X65081999Y6557826D01*
X65081999Y9431554D01*
X65087005Y9482382D01*
X65081999Y9533210D01*
X65081999Y9533219D01*
X65067023Y9685276D01*
X65007840Y9880374D01*
X64911733Y10060178D01*
X64782395Y10217777D01*
X64742907Y10250184D01*
X63298444Y11694647D01*
X63314511Y11857780D01*
X63282943Y12178296D01*
X63189452Y12486495D01*
X63037631Y12770532D01*
X62833314Y13019494D01*
X62701367Y13127780D01*
X62833314Y13236066D01*
X63037631Y13485028D01*
X63189452Y13769065D01*
X63282943Y14077264D01*
X63314511Y14397780D01*
X63282943Y14718296D01*
X63189452Y15026495D01*
X63037631Y15310532D01*
X62833314Y15559494D01*
X62701367Y15667780D01*
X62833314Y15776066D01*
X63037631Y16025028D01*
X63189452Y16309065D01*
X63282943Y16617264D01*
X63314511Y16937780D01*
X63282943Y17258296D01*
X63189452Y17566495D01*
X63037631Y17850532D01*
X62833314Y18099494D01*
X62701367Y18207780D01*
X62833314Y18316066D01*
X63037631Y18565028D01*
X63189452Y18849065D01*
X63282943Y19157264D01*
X63314511Y19477780D01*
X63282943Y19798296D01*
X63189452Y20106495D01*
X63037631Y20390532D01*
X62833314Y20639494D01*
X62701367Y20747780D01*
X62833314Y20856066D01*
X63037631Y21105028D01*
X63189452Y21389065D01*
X63282943Y21697264D01*
X63314511Y22017780D01*
X63282943Y22338296D01*
X63189452Y22646495D01*
X63037631Y22930532D01*
X62833314Y23179494D01*
X62584352Y23383811D01*
X62300315Y23535632D01*
X61992116Y23629123D01*
X61751922Y23652780D01*
X60591278Y23652780D01*
X60351084Y23629123D01*
X60042885Y23535632D01*
X59794336Y23402780D01*
X58239626Y23402780D01*
X58171599Y23409480D01*
X58103572Y23402780D01*
X58103563Y23402780D01*
X57900093Y23382740D01*
X57639019Y23303544D01*
X57398412Y23174937D01*
X57389970Y23168009D01*
X57240366Y23045232D01*
X57240364Y23045230D01*
X57187519Y23001861D01*
X57144150Y22949016D01*
X51606610Y17411475D01*
X51606610Y19502900D01*
X55195909Y23092198D01*
X55235397Y23124605D01*
X55271018Y23168009D01*
X55364735Y23282203D01*
X55432765Y23409480D01*
X55460842Y23462008D01*
X55520025Y23657106D01*
X55535001Y23809163D01*
X55535001Y23809166D01*
X55540008Y23860001D01*
X55535001Y23910836D01*
X55535001Y24508270D01*
X55741637Y24199017D01*
X56039017Y23901637D01*
X56388698Y23667988D01*
X56777244Y23507047D01*
X57189721Y23425000D01*
X57610279Y23425000D01*
X58022756Y23507047D01*
X58411302Y23667988D01*
X58760983Y23901637D01*
X59058363Y24199017D01*
X59292012Y24548698D01*
X59452953Y24937244D01*
X59535000Y25349721D01*
X59535000Y25475644D01*
X59547118Y25471968D01*
X59671600Y25459708D01*
X62671600Y25459708D01*
X62796082Y25471968D01*
X62915780Y25508278D01*
X63026094Y25567243D01*
X63122785Y25646595D01*
X63177101Y25712780D01*
X64103571Y25712780D01*
X64171600Y25706080D01*
X64239629Y25712780D01*
X64239637Y25712780D01*
X64443107Y25732820D01*
X64704181Y25812016D01*
X64944788Y25940623D01*
X65155681Y26113699D01*
X65199054Y26166549D01*
X65311886Y26279381D01*
X65365382Y26323403D01*
X65380000Y26341264D01*
X65380000Y660279D01*
G37*
X65380000Y660279D02*
X59643012Y662708D01*
X59647797Y665266D01*
X59805396Y794604D01*
X59837807Y834097D01*
X61341871Y2338160D01*
X61347439Y2310166D01*
X61489534Y1967118D01*
X61695825Y1658382D01*
X61958382Y1395825D01*
X62267118Y1189534D01*
X62610166Y1047439D01*
X62974344Y975000D01*
X63345656Y975000D01*
X63709834Y1047439D01*
X64052882Y1189534D01*
X64361618Y1395825D01*
X64624175Y1658382D01*
X64830466Y1967118D01*
X64972561Y2310166D01*
X65045000Y2674344D01*
X65045000Y3045656D01*
X64972561Y3409834D01*
X64830466Y3752882D01*
X64624175Y4061618D01*
X64361618Y4324175D01*
X64052882Y4530466D01*
X63709834Y4672561D01*
X63681840Y4678129D01*
X64742907Y5739196D01*
X64782395Y5771603D01*
X64911733Y5929202D01*
X65007840Y6109006D01*
X65067023Y6304104D01*
X65081999Y6456161D01*
X65081999Y6456170D01*
X65087005Y6506998D01*
X65081999Y6557826D01*
X65081999Y9431554D01*
X65087005Y9482382D01*
X65081999Y9533210D01*
X65081999Y9533219D01*
X65067023Y9685276D01*
X65007840Y9880374D01*
X64911733Y10060178D01*
X64782395Y10217777D01*
X64742907Y10250184D01*
X63298444Y11694647D01*
X63314511Y11857780D01*
X63282943Y12178296D01*
X63189452Y12486495D01*
X63037631Y12770532D01*
X62833314Y13019494D01*
X62701367Y13127780D01*
X62833314Y13236066D01*
X63037631Y13485028D01*
X63189452Y13769065D01*
X63282943Y14077264D01*
X63314511Y14397780D01*
X63282943Y14718296D01*
X63189452Y15026495D01*
X63037631Y15310532D01*
X62833314Y15559494D01*
X62701367Y15667780D01*
X62833314Y15776066D01*
X63037631Y16025028D01*
X63189452Y16309065D01*
X63282943Y16617264D01*
X63314511Y16937780D01*
X63282943Y17258296D01*
X63189452Y17566495D01*
X63037631Y17850532D01*
X62833314Y18099494D01*
X62701367Y18207780D01*
X62833314Y18316066D01*
X63037631Y18565028D01*
X63189452Y18849065D01*
X63282943Y19157264D01*
X63314511Y19477780D01*
X63282943Y19798296D01*
X63189452Y20106495D01*
X63037631Y20390532D01*
X62833314Y20639494D01*
X62701367Y20747780D01*
X62833314Y20856066D01*
X63037631Y21105028D01*
X63189452Y21389065D01*
X63282943Y21697264D01*
X63314511Y22017780D01*
X63282943Y22338296D01*
X63189452Y22646495D01*
X63037631Y22930532D01*
X62833314Y23179494D01*
X62584352Y23383811D01*
X62300315Y23535632D01*
X61992116Y23629123D01*
X61751922Y23652780D01*
X60591278Y23652780D01*
X60351084Y23629123D01*
X60042885Y23535632D01*
X59794336Y23402780D01*
X58239626Y23402780D01*
X58171599Y23409480D01*
X58103572Y23402780D01*
X58103563Y23402780D01*
X57900093Y23382740D01*
X57639019Y23303544D01*
X57398412Y23174937D01*
X57389970Y23168009D01*
X57240366Y23045232D01*
X57240364Y23045230D01*
X57187519Y23001861D01*
X57144150Y22949016D01*
X51606610Y17411475D01*
X51606610Y19502900D01*
X55195909Y23092198D01*
X55235397Y23124605D01*
X55271018Y23168009D01*
X55364735Y23282203D01*
X55432765Y23409480D01*
X55460842Y23462008D01*
X55520025Y23657106D01*
X55535001Y23809163D01*
X55535001Y23809166D01*
X55540008Y23860001D01*
X55535001Y23910836D01*
X55535001Y24508270D01*
X55741637Y24199017D01*
X56039017Y23901637D01*
X56388698Y23667988D01*
X56777244Y23507047D01*
X57189721Y23425000D01*
X57610279Y23425000D01*
X58022756Y23507047D01*
X58411302Y23667988D01*
X58760983Y23901637D01*
X59058363Y24199017D01*
X59292012Y24548698D01*
X59452953Y24937244D01*
X59535000Y25349721D01*
X59535000Y25475644D01*
X59547118Y25471968D01*
X59671600Y25459708D01*
X62671600Y25459708D01*
X62796082Y25471968D01*
X62915780Y25508278D01*
X63026094Y25567243D01*
X63122785Y25646595D01*
X63177101Y25712780D01*
X64103571Y25712780D01*
X64171600Y25706080D01*
X64239629Y25712780D01*
X64239637Y25712780D01*
X64443107Y25732820D01*
X64704181Y25812016D01*
X64944788Y25940623D01*
X65155681Y26113699D01*
X65199054Y26166549D01*
X65311886Y26279381D01*
X65365382Y26323403D01*
X65380000Y26341264D01*
X65380000Y660279D01*
G36*
X24119986Y11283053D02*
G01*
X24149324Y11247304D01*
X24192555Y11211826D01*
X24196006Y11208438D01*
X24231851Y11179576D01*
X24306923Y11117966D01*
X24311218Y11115670D01*
X24315015Y11112613D01*
X24401103Y11067626D01*
X24486727Y11021859D01*
X24491390Y11020444D01*
X24495708Y11018188D01*
X24588864Y10990876D01*
X24681825Y10962676D01*
X24686677Y10962198D01*
X24691350Y10960828D01*
X24788063Y10952213D01*
X24833882Y10947700D01*
X24838721Y10947700D01*
X24894423Y10942738D01*
X24940400Y10947700D01*
X25419015Y10947700D01*
X25523006Y10820986D01*
X25654953Y10712700D01*
X25523006Y10604414D01*
X25318689Y10355452D01*
X25166868Y10071415D01*
X25073377Y9763216D01*
X25041809Y9442700D01*
X25073377Y9122184D01*
X25166868Y8813985D01*
X25318689Y8529948D01*
X25523006Y8280986D01*
X25771968Y8076669D01*
X26056005Y7924848D01*
X26364204Y7831357D01*
X26604398Y7807700D01*
X27765042Y7807700D01*
X28005236Y7831357D01*
X28313435Y7924848D01*
X28597472Y8076669D01*
X28846434Y8280986D01*
X29050751Y8529948D01*
X29202572Y8813985D01*
X29296063Y9122184D01*
X29327631Y9442700D01*
X29311564Y9605833D01*
X29974980Y10269249D01*
X29974980Y9293666D01*
X28748765Y8067450D01*
X28695919Y8024080D01*
X28652550Y7971235D01*
X28652548Y7971233D01*
X28627928Y7941233D01*
X28522843Y7813187D01*
X28413427Y7608483D01*
X28394236Y7572580D01*
X28320128Y7328278D01*
X28315040Y7311506D01*
X28295000Y7108036D01*
X28295000Y7108029D01*
X28288300Y7040000D01*
X28295000Y6971971D01*
X28295000Y6045502D01*
X28228815Y5991185D01*
X28149463Y5894494D01*
X28090498Y5784180D01*
X28054188Y5664482D01*
X28041928Y5540000D01*
X28041928Y2974999D01*
X26800710Y2974999D01*
X20972480Y8803228D01*
X20972480Y10955288D01*
X21033038Y10955221D01*
X21038833Y10946548D01*
X21266568Y10718813D01*
X21534357Y10539882D01*
X21831908Y10416632D01*
X22147787Y10353800D01*
X22469853Y10353800D01*
X22785732Y10416632D01*
X23083283Y10539882D01*
X23351072Y10718813D01*
X23578807Y10946548D01*
X23757738Y11214337D01*
X23880988Y11511888D01*
X23881944Y11516694D01*
X24119986Y11283053D01*
G37*
X24119986Y11283053D02*
X24149324Y11247304D01*
X24192555Y11211826D01*
X24196006Y11208438D01*
X24231851Y11179576D01*
X24306923Y11117966D01*
X24311218Y11115670D01*
X24315015Y11112613D01*
X24401103Y11067626D01*
X24486727Y11021859D01*
X24491390Y11020444D01*
X24495708Y11018188D01*
X24588864Y10990876D01*
X24681825Y10962676D01*
X24686677Y10962198D01*
X24691350Y10960828D01*
X24788063Y10952213D01*
X24833882Y10947700D01*
X24838721Y10947700D01*
X24894423Y10942738D01*
X24940400Y10947700D01*
X25419015Y10947700D01*
X25523006Y10820986D01*
X25654953Y10712700D01*
X25523006Y10604414D01*
X25318689Y10355452D01*
X25166868Y10071415D01*
X25073377Y9763216D01*
X25041809Y9442700D01*
X25073377Y9122184D01*
X25166868Y8813985D01*
X25318689Y8529948D01*
X25523006Y8280986D01*
X25771968Y8076669D01*
X26056005Y7924848D01*
X26364204Y7831357D01*
X26604398Y7807700D01*
X27765042Y7807700D01*
X28005236Y7831357D01*
X28313435Y7924848D01*
X28597472Y8076669D01*
X28846434Y8280986D01*
X29050751Y8529948D01*
X29202572Y8813985D01*
X29296063Y9122184D01*
X29327631Y9442700D01*
X29311564Y9605833D01*
X29974980Y10269249D01*
X29974980Y9293666D01*
X28748765Y8067450D01*
X28695919Y8024080D01*
X28652550Y7971235D01*
X28652548Y7971233D01*
X28627928Y7941233D01*
X28522843Y7813187D01*
X28413427Y7608483D01*
X28394236Y7572580D01*
X28320128Y7328278D01*
X28315040Y7311506D01*
X28295000Y7108036D01*
X28295000Y7108029D01*
X28288300Y7040000D01*
X28295000Y6971971D01*
X28295000Y6045502D01*
X28228815Y5991185D01*
X28149463Y5894494D01*
X28090498Y5784180D01*
X28054188Y5664482D01*
X28041928Y5540000D01*
X28041928Y2974999D01*
X26800710Y2974999D01*
X20972480Y8803228D01*
X20972480Y10955288D01*
X21033038Y10955221D01*
X21038833Y10946548D01*
X21266568Y10718813D01*
X21534357Y10539882D01*
X21831908Y10416632D01*
X22147787Y10353800D01*
X22469853Y10353800D01*
X22785732Y10416632D01*
X23083283Y10539882D01*
X23351072Y10718813D01*
X23578807Y10946548D01*
X23757738Y11214337D01*
X23880988Y11511888D01*
X23881944Y11516694D01*
X24119986Y11283053D01*
G36*
X41635000Y8590836D02*
G01*
X41635000Y8590826D01*
X41629994Y8539998D01*
X41635000Y8489170D01*
X41635001Y5508712D01*
X39101289Y2974999D01*
X38837179Y2974999D01*
X38911343Y3219484D01*
X38935000Y3459678D01*
X38935000Y4620322D01*
X38911343Y4860516D01*
X38817852Y5168715D01*
X38685000Y5417264D01*
X38685000Y10502801D01*
X38756005Y10464848D01*
X39064204Y10371357D01*
X39304398Y10347700D01*
X40465042Y10347700D01*
X40705236Y10371357D01*
X41013435Y10464848D01*
X41297472Y10616669D01*
X41546434Y10820986D01*
X41635001Y10928905D01*
X41635000Y8590836D01*
G37*
X41635000Y8590836D02*
X41635000Y8590826D01*
X41629994Y8539998D01*
X41635000Y8489170D01*
X41635001Y5508712D01*
X39101289Y2974999D01*
X38837179Y2974999D01*
X38911343Y3219484D01*
X38935000Y3459678D01*
X38935000Y4620322D01*
X38911343Y4860516D01*
X38817852Y5168715D01*
X38685000Y5417264D01*
X38685000Y10502801D01*
X38756005Y10464848D01*
X39064204Y10371357D01*
X39304398Y10347700D01*
X40465042Y10347700D01*
X40705236Y10371357D01*
X41013435Y10464848D01*
X41297472Y10616669D01*
X41546434Y10820986D01*
X41635001Y10928905D01*
X41635000Y8590836D01*
G36*
X18902480Y8425349D02*
G01*
X18897474Y8374518D01*
X18902480Y8323687D01*
X18902481Y5176192D01*
X16823288Y3096998D01*
X16851343Y3189484D01*
X16875000Y3429678D01*
X16875000Y4590322D01*
X16851343Y4830516D01*
X16757852Y5138715D01*
X16625000Y5387264D01*
X16625000Y6941971D01*
X16631700Y7010000D01*
X16625000Y7078029D01*
X16625000Y7078037D01*
X16604960Y7281507D01*
X16572470Y7388612D01*
X16572470Y10454263D01*
X16816964Y10380097D01*
X17057158Y10356440D01*
X18217802Y10356440D01*
X18457996Y10380097D01*
X18766195Y10473588D01*
X18902480Y10546434D01*
X18902480Y8425349D01*
G37*
X18902480Y8425349D02*
X18897474Y8374518D01*
X18902480Y8323687D01*
X18902481Y5176192D01*
X16823288Y3096998D01*
X16851343Y3189484D01*
X16875000Y3429678D01*
X16875000Y4590322D01*
X16851343Y4830516D01*
X16757852Y5138715D01*
X16625000Y5387264D01*
X16625000Y6941971D01*
X16631700Y7010000D01*
X16625000Y7078029D01*
X16625000Y7078037D01*
X16604960Y7281507D01*
X16572470Y7388612D01*
X16572470Y10454263D01*
X16816964Y10380097D01*
X17057158Y10356440D01*
X18217802Y10356440D01*
X18457996Y10380097D01*
X18766195Y10473588D01*
X18902480Y10546434D01*
X18902480Y8425349D01*
G36*
X60042885Y10339928D02*
G01*
X60351084Y10246437D01*
X60591278Y10222780D01*
X61751922Y10222780D01*
X61834733Y10230936D01*
X63011999Y9053670D01*
X63012000Y6935711D01*
X60171840Y4095550D01*
X60171840Y4672262D01*
X60148183Y4912456D01*
X60054692Y5220655D01*
X59965000Y5388457D01*
X59965000Y10381558D01*
X60042885Y10339928D01*
G37*
X60042885Y10339928D02*
X60351084Y10246437D01*
X60591278Y10222780D01*
X61751922Y10222780D01*
X61834733Y10230936D01*
X63011999Y9053670D01*
X63012000Y6935711D01*
X60171840Y4095550D01*
X60171840Y4672262D01*
X60148183Y4912456D01*
X60054692Y5220655D01*
X59965000Y5388457D01*
X59965000Y10381558D01*
X60042885Y10339928D01*
G36*
X21511951Y28274189D02*
G01*
X21475266Y28229488D01*
X21379160Y28049684D01*
X21319977Y27854586D01*
X21299994Y27651691D01*
X21305001Y27600853D01*
X21305000Y21647947D01*
X21304733Y21645072D01*
X21305000Y21597138D01*
X21305000Y21549163D01*
X21305283Y21546287D01*
X21344953Y14424630D01*
X21345306Y14324166D01*
X21355660Y14273051D01*
X21361062Y14221167D01*
X21375852Y14173370D01*
X21385783Y14124347D01*
X21405912Y14076231D01*
X21421331Y14026402D01*
X21445158Y13982416D01*
X21464465Y13936264D01*
X21493596Y13892997D01*
X21518438Y13847136D01*
X21550387Y13808645D01*
X21578328Y13767145D01*
X21615342Y13730391D01*
X21648652Y13690260D01*
X21726569Y13627038D01*
X21757659Y13601706D01*
X21808882Y13551430D01*
X21534357Y13437718D01*
X21266568Y13258787D01*
X21038833Y13031052D01*
X21034935Y13025218D01*
X19988902Y13026382D01*
X19988318Y13026440D01*
X19937480Y13031447D01*
X19886642Y13026440D01*
X19403185Y13026440D01*
X19299194Y13153154D01*
X19167247Y13261440D01*
X19299194Y13369726D01*
X19503511Y13618688D01*
X19655332Y13902725D01*
X19748823Y14210924D01*
X19780391Y14531440D01*
X19748823Y14851956D01*
X19655332Y15160155D01*
X19503511Y15444192D01*
X19299194Y15693154D01*
X19167247Y15801440D01*
X19299194Y15909726D01*
X19503511Y16158688D01*
X19655332Y16442725D01*
X19748823Y16750924D01*
X19780391Y17071440D01*
X19748823Y17391956D01*
X19655332Y17700155D01*
X19503511Y17984192D01*
X19299194Y18233154D01*
X19167247Y18341440D01*
X19299194Y18449726D01*
X19503511Y18698688D01*
X19655332Y18982725D01*
X19748823Y19290924D01*
X19780391Y19611440D01*
X19748823Y19931956D01*
X19655332Y20240155D01*
X19503511Y20524192D01*
X19299194Y20773154D01*
X19167247Y20881440D01*
X19299194Y20989726D01*
X19503511Y21238688D01*
X19655332Y21522725D01*
X19748823Y21830924D01*
X19780391Y22151440D01*
X19748823Y22471956D01*
X19655332Y22780155D01*
X19503511Y23064192D01*
X19299194Y23313154D01*
X19050232Y23517471D01*
X18766195Y23669292D01*
X18457996Y23762783D01*
X18217802Y23786440D01*
X17057158Y23786440D01*
X16816964Y23762783D01*
X16508765Y23669292D01*
X16260216Y23536440D01*
X14705506Y23536440D01*
X14637479Y23543140D01*
X14569452Y23536440D01*
X14569443Y23536440D01*
X14365973Y23516400D01*
X14104899Y23437204D01*
X13990167Y23375878D01*
X13952168Y23566912D01*
X13857691Y23795000D01*
X14090279Y23795000D01*
X14502756Y23877047D01*
X14891302Y24037988D01*
X15240983Y24271637D01*
X15538363Y24569017D01*
X15772012Y24918698D01*
X15932953Y25307244D01*
X15993483Y25611548D01*
X16012998Y25605628D01*
X16137480Y25593368D01*
X19137480Y25593368D01*
X19261962Y25605628D01*
X19381660Y25641938D01*
X19491974Y25700903D01*
X19588665Y25780255D01*
X19668017Y25876946D01*
X19726982Y25987260D01*
X19763292Y26106958D01*
X19775552Y26231440D01*
X19775552Y27410826D01*
X20254071Y27889345D01*
X21467146Y28283101D01*
X21511951Y28274189D01*
G37*
X21511951Y28274189D02*
X21475266Y28229488D01*
X21379160Y28049684D01*
X21319977Y27854586D01*
X21299994Y27651691D01*
X21305001Y27600853D01*
X21305000Y21647947D01*
X21304733Y21645072D01*
X21305000Y21597138D01*
X21305000Y21549163D01*
X21305283Y21546287D01*
X21344953Y14424630D01*
X21345306Y14324166D01*
X21355660Y14273051D01*
X21361062Y14221167D01*
X21375852Y14173370D01*
X21385783Y14124347D01*
X21405912Y14076231D01*
X21421331Y14026402D01*
X21445158Y13982416D01*
X21464465Y13936264D01*
X21493596Y13892997D01*
X21518438Y13847136D01*
X21550387Y13808645D01*
X21578328Y13767145D01*
X21615342Y13730391D01*
X21648652Y13690260D01*
X21726569Y13627038D01*
X21757659Y13601706D01*
X21808882Y13551430D01*
X21534357Y13437718D01*
X21266568Y13258787D01*
X21038833Y13031052D01*
X21034935Y13025218D01*
X19988902Y13026382D01*
X19988318Y13026440D01*
X19937480Y13031447D01*
X19886642Y13026440D01*
X19403185Y13026440D01*
X19299194Y13153154D01*
X19167247Y13261440D01*
X19299194Y13369726D01*
X19503511Y13618688D01*
X19655332Y13902725D01*
X19748823Y14210924D01*
X19780391Y14531440D01*
X19748823Y14851956D01*
X19655332Y15160155D01*
X19503511Y15444192D01*
X19299194Y15693154D01*
X19167247Y15801440D01*
X19299194Y15909726D01*
X19503511Y16158688D01*
X19655332Y16442725D01*
X19748823Y16750924D01*
X19780391Y17071440D01*
X19748823Y17391956D01*
X19655332Y17700155D01*
X19503511Y17984192D01*
X19299194Y18233154D01*
X19167247Y18341440D01*
X19299194Y18449726D01*
X19503511Y18698688D01*
X19655332Y18982725D01*
X19748823Y19290924D01*
X19780391Y19611440D01*
X19748823Y19931956D01*
X19655332Y20240155D01*
X19503511Y20524192D01*
X19299194Y20773154D01*
X19167247Y20881440D01*
X19299194Y20989726D01*
X19503511Y21238688D01*
X19655332Y21522725D01*
X19748823Y21830924D01*
X19780391Y22151440D01*
X19748823Y22471956D01*
X19655332Y22780155D01*
X19503511Y23064192D01*
X19299194Y23313154D01*
X19050232Y23517471D01*
X18766195Y23669292D01*
X18457996Y23762783D01*
X18217802Y23786440D01*
X17057158Y23786440D01*
X16816964Y23762783D01*
X16508765Y23669292D01*
X16260216Y23536440D01*
X14705506Y23536440D01*
X14637479Y23543140D01*
X14569452Y23536440D01*
X14569443Y23536440D01*
X14365973Y23516400D01*
X14104899Y23437204D01*
X13990167Y23375878D01*
X13952168Y23566912D01*
X13857691Y23795000D01*
X14090279Y23795000D01*
X14502756Y23877047D01*
X14891302Y24037988D01*
X15240983Y24271637D01*
X15538363Y24569017D01*
X15772012Y24918698D01*
X15932953Y25307244D01*
X15993483Y25611548D01*
X16012998Y25605628D01*
X16137480Y25593368D01*
X19137480Y25593368D01*
X19261962Y25605628D01*
X19381660Y25641938D01*
X19491974Y25700903D01*
X19588665Y25780255D01*
X19668017Y25876946D01*
X19726982Y25987260D01*
X19763292Y26106958D01*
X19775552Y26231440D01*
X19775552Y27410826D01*
X20254071Y27889345D01*
X21467146Y28283101D01*
X21511951Y28274189D01*
G36*
X42223088Y27562035D02*
G01*
X42538967Y27499203D01*
X42861033Y27499203D01*
X42974999Y27521872D01*
X42974998Y22128340D01*
X42965818Y15024884D01*
X42962977Y15008172D01*
X42965420Y14920795D01*
X42965420Y14716784D01*
X42965356Y14667260D01*
X42965420Y14666601D01*
X42965420Y14665922D01*
X42970367Y14615697D01*
X42980135Y14515184D01*
X42980330Y14514540D01*
X42980396Y14513865D01*
X43009941Y14416468D01*
X43035150Y14332980D01*
X42738967Y14332980D01*
X42423088Y14270148D01*
X42125537Y14146898D01*
X41942114Y14024339D01*
X41996063Y14202184D01*
X42027631Y14522700D01*
X41996063Y14843216D01*
X41902572Y15151415D01*
X41750751Y15435452D01*
X41546434Y15684414D01*
X41414487Y15792700D01*
X41546434Y15900986D01*
X41750751Y16149948D01*
X41902572Y16433985D01*
X41996063Y16742184D01*
X42027631Y17062700D01*
X41996063Y17383216D01*
X41902572Y17691415D01*
X41750751Y17975452D01*
X41546434Y18224414D01*
X41414487Y18332700D01*
X41546434Y18440986D01*
X41750751Y18689948D01*
X41902572Y18973985D01*
X41996063Y19282184D01*
X42027631Y19602700D01*
X41996063Y19923216D01*
X41902572Y20231415D01*
X41750751Y20515452D01*
X41546434Y20764414D01*
X41414487Y20872700D01*
X41546434Y20980986D01*
X41750751Y21229948D01*
X41902572Y21513985D01*
X41996063Y21822184D01*
X42027631Y22142700D01*
X41996063Y22463216D01*
X41902572Y22771415D01*
X41750751Y23055452D01*
X41546434Y23304414D01*
X41297472Y23508731D01*
X41013435Y23660552D01*
X40705236Y23754043D01*
X40465042Y23777700D01*
X39304398Y23777700D01*
X39064204Y23754043D01*
X38756005Y23660552D01*
X38471968Y23508731D01*
X38223006Y23304414D01*
X38018689Y23055452D01*
X37901143Y22835539D01*
X34171621Y19106016D01*
X34171621Y24423600D01*
X34301637Y24229017D01*
X34599017Y23931637D01*
X34948698Y23697988D01*
X35337244Y23537047D01*
X35749721Y23455000D01*
X36170279Y23455000D01*
X36582756Y23537047D01*
X36971302Y23697988D01*
X37320983Y23931637D01*
X37618363Y24229017D01*
X37852012Y24578698D01*
X38012953Y24967244D01*
X38095000Y25379721D01*
X38095000Y25657540D01*
X38140540Y25633198D01*
X38260238Y25596888D01*
X38384720Y25584628D01*
X41384720Y25584628D01*
X41509202Y25596888D01*
X41628900Y25633198D01*
X41739214Y25692163D01*
X41835905Y25771515D01*
X41915257Y25868206D01*
X41974222Y25978520D01*
X42010532Y26098218D01*
X42022792Y26222700D01*
X42022792Y27645001D01*
X42223088Y27562035D01*
G37*
X42223088Y27562035D02*
X42538967Y27499203D01*
X42861033Y27499203D01*
X42974999Y27521872D01*
X42974998Y22128340D01*
X42965818Y15024884D01*
X42962977Y15008172D01*
X42965420Y14920795D01*
X42965420Y14716784D01*
X42965356Y14667260D01*
X42965420Y14666601D01*
X42965420Y14665922D01*
X42970367Y14615697D01*
X42980135Y14515184D01*
X42980330Y14514540D01*
X42980396Y14513865D01*
X43009941Y14416468D01*
X43035150Y14332980D01*
X42738967Y14332980D01*
X42423088Y14270148D01*
X42125537Y14146898D01*
X41942114Y14024339D01*
X41996063Y14202184D01*
X42027631Y14522700D01*
X41996063Y14843216D01*
X41902572Y15151415D01*
X41750751Y15435452D01*
X41546434Y15684414D01*
X41414487Y15792700D01*
X41546434Y15900986D01*
X41750751Y16149948D01*
X41902572Y16433985D01*
X41996063Y16742184D01*
X42027631Y17062700D01*
X41996063Y17383216D01*
X41902572Y17691415D01*
X41750751Y17975452D01*
X41546434Y18224414D01*
X41414487Y18332700D01*
X41546434Y18440986D01*
X41750751Y18689948D01*
X41902572Y18973985D01*
X41996063Y19282184D01*
X42027631Y19602700D01*
X41996063Y19923216D01*
X41902572Y20231415D01*
X41750751Y20515452D01*
X41546434Y20764414D01*
X41414487Y20872700D01*
X41546434Y20980986D01*
X41750751Y21229948D01*
X41902572Y21513985D01*
X41996063Y21822184D01*
X42027631Y22142700D01*
X41996063Y22463216D01*
X41902572Y22771415D01*
X41750751Y23055452D01*
X41546434Y23304414D01*
X41297472Y23508731D01*
X41013435Y23660552D01*
X40705236Y23754043D01*
X40465042Y23777700D01*
X39304398Y23777700D01*
X39064204Y23754043D01*
X38756005Y23660552D01*
X38471968Y23508731D01*
X38223006Y23304414D01*
X38018689Y23055452D01*
X37901143Y22835539D01*
X34171621Y19106016D01*
X34171621Y24423600D01*
X34301637Y24229017D01*
X34599017Y23931637D01*
X34948698Y23697988D01*
X35337244Y23537047D01*
X35749721Y23455000D01*
X36170279Y23455000D01*
X36582756Y23537047D01*
X36971302Y23697988D01*
X37320983Y23931637D01*
X37618363Y24229017D01*
X37852012Y24578698D01*
X38012953Y24967244D01*
X38095000Y25379721D01*
X38095000Y25657540D01*
X38140540Y25633198D01*
X38260238Y25596888D01*
X38384720Y25584628D01*
X41384720Y25584628D01*
X41509202Y25596888D01*
X41628900Y25633198D01*
X41739214Y25692163D01*
X41835905Y25771515D01*
X41915257Y25868206D01*
X41974222Y25978520D01*
X42010532Y26098218D01*
X42022792Y26222700D01*
X42022792Y27645001D01*
X42223088Y27562035D01*
G36*
X31943823Y29145190D02*
G01*
X31848042Y28965994D01*
X31788859Y28770896D01*
X31768876Y28568001D01*
X31773883Y28517164D01*
X31773882Y27082827D01*
X31768876Y27031999D01*
X31773882Y26981171D01*
X31773882Y26981162D01*
X31788858Y26829105D01*
X31848041Y26634007D01*
X31944148Y26454202D01*
X32073486Y26296603D01*
X32101622Y26273512D01*
X32101621Y18450245D01*
X29063318Y15411941D01*
X29050751Y15435452D01*
X28846434Y15684414D01*
X28714487Y15792700D01*
X28846434Y15900986D01*
X29050751Y16149948D01*
X29202572Y16433985D01*
X29296063Y16742184D01*
X29327631Y17062700D01*
X29296063Y17383216D01*
X29202572Y17691415D01*
X29050751Y17975452D01*
X28846434Y18224414D01*
X28714487Y18332700D01*
X28846434Y18440986D01*
X29050751Y18689948D01*
X29202572Y18973985D01*
X29296063Y19282184D01*
X29327631Y19602700D01*
X29296063Y19923216D01*
X29202572Y20231415D01*
X29050751Y20515452D01*
X28846434Y20764414D01*
X28714487Y20872700D01*
X28846434Y20980986D01*
X29050751Y21229948D01*
X29202572Y21513985D01*
X29296063Y21822184D01*
X29327631Y22142700D01*
X29296063Y22463216D01*
X29202572Y22771415D01*
X29050751Y23055452D01*
X28846434Y23304414D01*
X28714487Y23412700D01*
X28846434Y23520986D01*
X29050751Y23769948D01*
X29202572Y24053985D01*
X29296063Y24362184D01*
X29327631Y24682700D01*
X29296063Y25003216D01*
X29202572Y25311415D01*
X29050751Y25595452D01*
X28992065Y25666961D01*
X29039214Y25692163D01*
X29135905Y25771515D01*
X29215257Y25868206D01*
X29274222Y25978520D01*
X29310532Y26098218D01*
X29312063Y26113762D01*
X29499380Y26113762D01*
X29815259Y26176594D01*
X30112810Y26299844D01*
X30380599Y26478775D01*
X30608334Y26706510D01*
X30787265Y26974299D01*
X30910515Y27271850D01*
X30973347Y27587729D01*
X30973347Y27909795D01*
X30910515Y28225674D01*
X30787265Y28523225D01*
X30608334Y28791014D01*
X30380599Y29018749D01*
X30112810Y29197680D01*
X29815259Y29320930D01*
X29499380Y29383762D01*
X29177314Y29383762D01*
X28861435Y29320930D01*
X28563884Y29197680D01*
X28296095Y29018749D01*
X28138118Y28860772D01*
X25684720Y28860772D01*
X25560238Y28848512D01*
X25440540Y28812202D01*
X25330226Y28753237D01*
X25288775Y28719219D01*
X25184463Y28788918D01*
X25012265Y28860245D01*
X25634928Y29482908D01*
X29977070Y29482908D01*
X30027898Y29477902D01*
X30078726Y29482908D01*
X30078736Y29482908D01*
X30230793Y29497884D01*
X30425891Y29557067D01*
X30605695Y29653174D01*
X30763294Y29782512D01*
X30795705Y29822005D01*
X31200412Y30226712D01*
X31208967Y30225010D01*
X31531033Y30225010D01*
X31846912Y30287842D01*
X31943823Y30327984D01*
X31943823Y29145190D01*
G37*
X31943823Y29145190D02*
X31848042Y28965994D01*
X31788859Y28770896D01*
X31768876Y28568001D01*
X31773883Y28517164D01*
X31773882Y27082827D01*
X31768876Y27031999D01*
X31773882Y26981171D01*
X31773882Y26981162D01*
X31788858Y26829105D01*
X31848041Y26634007D01*
X31944148Y26454202D01*
X32073486Y26296603D01*
X32101622Y26273512D01*
X32101621Y18450245D01*
X29063318Y15411941D01*
X29050751Y15435452D01*
X28846434Y15684414D01*
X28714487Y15792700D01*
X28846434Y15900986D01*
X29050751Y16149948D01*
X29202572Y16433985D01*
X29296063Y16742184D01*
X29327631Y17062700D01*
X29296063Y17383216D01*
X29202572Y17691415D01*
X29050751Y17975452D01*
X28846434Y18224414D01*
X28714487Y18332700D01*
X28846434Y18440986D01*
X29050751Y18689948D01*
X29202572Y18973985D01*
X29296063Y19282184D01*
X29327631Y19602700D01*
X29296063Y19923216D01*
X29202572Y20231415D01*
X29050751Y20515452D01*
X28846434Y20764414D01*
X28714487Y20872700D01*
X28846434Y20980986D01*
X29050751Y21229948D01*
X29202572Y21513985D01*
X29296063Y21822184D01*
X29327631Y22142700D01*
X29296063Y22463216D01*
X29202572Y22771415D01*
X29050751Y23055452D01*
X28846434Y23304414D01*
X28714487Y23412700D01*
X28846434Y23520986D01*
X29050751Y23769948D01*
X29202572Y24053985D01*
X29296063Y24362184D01*
X29327631Y24682700D01*
X29296063Y25003216D01*
X29202572Y25311415D01*
X29050751Y25595452D01*
X28992065Y25666961D01*
X29039214Y25692163D01*
X29135905Y25771515D01*
X29215257Y25868206D01*
X29274222Y25978520D01*
X29310532Y26098218D01*
X29312063Y26113762D01*
X29499380Y26113762D01*
X29815259Y26176594D01*
X30112810Y26299844D01*
X30380599Y26478775D01*
X30608334Y26706510D01*
X30787265Y26974299D01*
X30910515Y27271850D01*
X30973347Y27587729D01*
X30973347Y27909795D01*
X30910515Y28225674D01*
X30787265Y28523225D01*
X30608334Y28791014D01*
X30380599Y29018749D01*
X30112810Y29197680D01*
X29815259Y29320930D01*
X29499380Y29383762D01*
X29177314Y29383762D01*
X28861435Y29320930D01*
X28563884Y29197680D01*
X28296095Y29018749D01*
X28138118Y28860772D01*
X25684720Y28860772D01*
X25560238Y28848512D01*
X25440540Y28812202D01*
X25330226Y28753237D01*
X25288775Y28719219D01*
X25184463Y28788918D01*
X25012265Y28860245D01*
X25634928Y29482908D01*
X29977070Y29482908D01*
X30027898Y29477902D01*
X30078726Y29482908D01*
X30078736Y29482908D01*
X30230793Y29497884D01*
X30425891Y29557067D01*
X30605695Y29653174D01*
X30763294Y29782512D01*
X30795705Y29822005D01*
X31200412Y30226712D01*
X31208967Y30225010D01*
X31531033Y30225010D01*
X31846912Y30287842D01*
X31943823Y30327984D01*
X31943823Y29145190D01*
G36*
X51969976Y31517106D02*
G01*
X52029159Y31322008D01*
X52125266Y31142203D01*
X52254604Y30984604D01*
X52294097Y30952193D01*
X53465002Y29781287D01*
X53465001Y24288712D01*
X50402294Y21226004D01*
X50489452Y21389065D01*
X50582943Y21697264D01*
X50614511Y22017780D01*
X50582943Y22338296D01*
X50489452Y22646495D01*
X50337631Y22930532D01*
X50133314Y23179494D01*
X50001367Y23287780D01*
X50133314Y23396066D01*
X50337631Y23645028D01*
X50489452Y23929065D01*
X50582943Y24237264D01*
X50614511Y24557780D01*
X50582943Y24878296D01*
X50489452Y25186495D01*
X50337631Y25470532D01*
X50278945Y25542041D01*
X50326094Y25567243D01*
X50422785Y25646595D01*
X50502137Y25743286D01*
X50561102Y25853600D01*
X50597412Y25973298D01*
X50609672Y26097780D01*
X50609672Y28097780D01*
X50597412Y28222262D01*
X50561102Y28341960D01*
X50502137Y28452274D01*
X50422785Y28548965D01*
X50326094Y28628317D01*
X50215780Y28687282D01*
X50096082Y28723592D01*
X49971600Y28735852D01*
X46971600Y28735852D01*
X46847118Y28723592D01*
X46727420Y28687282D01*
X46617106Y28628317D01*
X46520415Y28548965D01*
X46498744Y28522558D01*
X46384463Y28598918D01*
X46221943Y28666236D01*
X49038646Y31482939D01*
X51477433Y31482939D01*
X51528261Y31477933D01*
X51579089Y31482939D01*
X51579099Y31482939D01*
X51731156Y31497915D01*
X51926254Y31557098D01*
X51964048Y31577299D01*
X51969976Y31517106D01*
G37*
X51969976Y31517106D02*
X52029159Y31322008D01*
X52125266Y31142203D01*
X52254604Y30984604D01*
X52294097Y30952193D01*
X53465002Y29781287D01*
X53465001Y24288712D01*
X50402294Y21226004D01*
X50489452Y21389065D01*
X50582943Y21697264D01*
X50614511Y22017780D01*
X50582943Y22338296D01*
X50489452Y22646495D01*
X50337631Y22930532D01*
X50133314Y23179494D01*
X50001367Y23287780D01*
X50133314Y23396066D01*
X50337631Y23645028D01*
X50489452Y23929065D01*
X50582943Y24237264D01*
X50614511Y24557780D01*
X50582943Y24878296D01*
X50489452Y25186495D01*
X50337631Y25470532D01*
X50278945Y25542041D01*
X50326094Y25567243D01*
X50422785Y25646595D01*
X50502137Y25743286D01*
X50561102Y25853600D01*
X50597412Y25973298D01*
X50609672Y26097780D01*
X50609672Y28097780D01*
X50597412Y28222262D01*
X50561102Y28341960D01*
X50502137Y28452274D01*
X50422785Y28548965D01*
X50326094Y28628317D01*
X50215780Y28687282D01*
X50096082Y28723592D01*
X49971600Y28735852D01*
X46971600Y28735852D01*
X46847118Y28723592D01*
X46727420Y28687282D01*
X46617106Y28628317D01*
X46520415Y28548965D01*
X46498744Y28522558D01*
X46384463Y28598918D01*
X46221943Y28666236D01*
X49038646Y31482939D01*
X51477433Y31482939D01*
X51528261Y31477933D01*
X51579089Y31482939D01*
X51579099Y31482939D01*
X51731156Y31497915D01*
X51926254Y31557098D01*
X51964048Y31577299D01*
X51969976Y31517106D01*
G36*
X7401797Y28949802D02*
G01*
X7699348Y28826552D01*
X8015227Y28763720D01*
X8337293Y28763720D01*
X8648432Y28825609D01*
X8621520Y28690313D01*
X8621520Y28368247D01*
X8684352Y28052368D01*
X8807602Y27754817D01*
X8986533Y27487028D01*
X9214268Y27259293D01*
X9482057Y27080362D01*
X9779608Y26957112D01*
X10095487Y26894280D01*
X10176228Y26894280D01*
X10161394Y26743660D01*
X10166401Y26692822D01*
X10166400Y24921931D01*
X7037253Y21792783D01*
X7048823Y21830924D01*
X7080391Y22151440D01*
X7048823Y22471956D01*
X6955332Y22780155D01*
X6803511Y23064192D01*
X6599194Y23313154D01*
X6467247Y23421440D01*
X6599194Y23529726D01*
X6803511Y23778688D01*
X6955332Y24062725D01*
X7048823Y24370924D01*
X7080391Y24691440D01*
X7048823Y25011956D01*
X6955332Y25320155D01*
X6803511Y25604192D01*
X6744825Y25675701D01*
X6791974Y25700903D01*
X6888665Y25780255D01*
X6968017Y25876946D01*
X7026982Y25987260D01*
X7063292Y26106958D01*
X7075552Y26231440D01*
X7075552Y28231440D01*
X7063292Y28355922D01*
X7026982Y28475620D01*
X6968017Y28585934D01*
X6888665Y28682625D01*
X6791974Y28761977D01*
X6681660Y28820942D01*
X6561962Y28857252D01*
X6480808Y28865245D01*
X7225403Y29067665D01*
X7401797Y28949802D01*
G37*
X7401797Y28949802D02*
X7699348Y28826552D01*
X8015227Y28763720D01*
X8337293Y28763720D01*
X8648432Y28825609D01*
X8621520Y28690313D01*
X8621520Y28368247D01*
X8684352Y28052368D01*
X8807602Y27754817D01*
X8986533Y27487028D01*
X9214268Y27259293D01*
X9482057Y27080362D01*
X9779608Y26957112D01*
X10095487Y26894280D01*
X10176228Y26894280D01*
X10161394Y26743660D01*
X10166401Y26692822D01*
X10166400Y24921931D01*
X7037253Y21792783D01*
X7048823Y21830924D01*
X7080391Y22151440D01*
X7048823Y22471956D01*
X6955332Y22780155D01*
X6803511Y23064192D01*
X6599194Y23313154D01*
X6467247Y23421440D01*
X6599194Y23529726D01*
X6803511Y23778688D01*
X6955332Y24062725D01*
X7048823Y24370924D01*
X7080391Y24691440D01*
X7048823Y25011956D01*
X6955332Y25320155D01*
X6803511Y25604192D01*
X6744825Y25675701D01*
X6791974Y25700903D01*
X6888665Y25780255D01*
X6968017Y25876946D01*
X7026982Y25987260D01*
X7063292Y26106958D01*
X7075552Y26231440D01*
X7075552Y28231440D01*
X7063292Y28355922D01*
X7026982Y28475620D01*
X6968017Y28585934D01*
X6888665Y28682625D01*
X6791974Y28761977D01*
X6681660Y28820942D01*
X6561962Y28857252D01*
X6480808Y28865245D01*
X7225403Y29067665D01*
X7401797Y28949802D01*
G36*
X62993226Y28645886D02*
G01*
X62915780Y28687282D01*
X62796082Y28723592D01*
X62671600Y28735852D01*
X59671600Y28735852D01*
X59547118Y28723592D01*
X59427420Y28687282D01*
X59317106Y28628317D01*
X59220415Y28548965D01*
X59166099Y28482780D01*
X59005806Y28482780D01*
X58937779Y28489480D01*
X58869752Y28482780D01*
X58869743Y28482780D01*
X58666273Y28462740D01*
X58405199Y28383544D01*
X58164592Y28254937D01*
X58149681Y28242700D01*
X58006546Y28125232D01*
X58006544Y28125230D01*
X57953699Y28081861D01*
X57910330Y28029016D01*
X57576314Y27695000D01*
X57189721Y27695000D01*
X56777244Y27612953D01*
X56388698Y27452012D01*
X56039017Y27218363D01*
X55741637Y26920983D01*
X55535001Y26611730D01*
X55535001Y30159164D01*
X55540008Y30209999D01*
X55535001Y30260837D01*
X55520025Y30412894D01*
X55460842Y30607992D01*
X55411676Y30699976D01*
X55364735Y30787797D01*
X55267804Y30905907D01*
X55235397Y30945395D01*
X55209752Y30966441D01*
X55412403Y31050382D01*
X55508063Y31114300D01*
X56304731Y31114300D01*
X56372760Y31107600D01*
X56440789Y31114300D01*
X56440797Y31114300D01*
X56644267Y31134340D01*
X56905341Y31213536D01*
X57145948Y31342143D01*
X57356841Y31515219D01*
X57400214Y31568069D01*
X58535253Y32703108D01*
X60214640Y32703108D01*
X60339122Y32715368D01*
X60458820Y32751678D01*
X60569134Y32810643D01*
X60665825Y32889995D01*
X60745177Y32986686D01*
X60804142Y33097000D01*
X60840452Y33216698D01*
X60852712Y33341180D01*
X60852712Y33456180D01*
X62986858Y33456180D01*
X62993226Y28645886D01*
G37*
X62993226Y28645886D02*
X62915780Y28687282D01*
X62796082Y28723592D01*
X62671600Y28735852D01*
X59671600Y28735852D01*
X59547118Y28723592D01*
X59427420Y28687282D01*
X59317106Y28628317D01*
X59220415Y28548965D01*
X59166099Y28482780D01*
X59005806Y28482780D01*
X58937779Y28489480D01*
X58869752Y28482780D01*
X58869743Y28482780D01*
X58666273Y28462740D01*
X58405199Y28383544D01*
X58164592Y28254937D01*
X58149681Y28242700D01*
X58006546Y28125232D01*
X58006544Y28125230D01*
X57953699Y28081861D01*
X57910330Y28029016D01*
X57576314Y27695000D01*
X57189721Y27695000D01*
X56777244Y27612953D01*
X56388698Y27452012D01*
X56039017Y27218363D01*
X55741637Y26920983D01*
X55535001Y26611730D01*
X55535001Y30159164D01*
X55540008Y30209999D01*
X55535001Y30260837D01*
X55520025Y30412894D01*
X55460842Y30607992D01*
X55411676Y30699976D01*
X55364735Y30787797D01*
X55267804Y30905907D01*
X55235397Y30945395D01*
X55209752Y30966441D01*
X55412403Y31050382D01*
X55508063Y31114300D01*
X56304731Y31114300D01*
X56372760Y31107600D01*
X56440789Y31114300D01*
X56440797Y31114300D01*
X56644267Y31134340D01*
X56905341Y31213536D01*
X57145948Y31342143D01*
X57356841Y31515219D01*
X57400214Y31568069D01*
X58535253Y32703108D01*
X60214640Y32703108D01*
X60339122Y32715368D01*
X60458820Y32751678D01*
X60569134Y32810643D01*
X60665825Y32889995D01*
X60745177Y32986686D01*
X60804142Y33097000D01*
X60840452Y33216698D01*
X60852712Y33341180D01*
X60852712Y33456180D01*
X62986858Y33456180D01*
X62993226Y28645886D01*
G36*
X65380001Y44448787D02*
G01*
X65365221Y44466839D01*
X65311809Y44510777D01*
X62879254Y46943331D01*
X62835881Y46996181D01*
X62624988Y47169257D01*
X62384381Y47297864D01*
X62123307Y47377060D01*
X61919837Y47397100D01*
X61919829Y47397100D01*
X61851800Y47403800D01*
X61783771Y47397100D01*
X60857301Y47397100D01*
X60802985Y47463285D01*
X60706294Y47542637D01*
X60595980Y47601602D01*
X60476282Y47637912D01*
X60351800Y47650172D01*
X57351800Y47650172D01*
X57227318Y47637912D01*
X57107620Y47601602D01*
X56997306Y47542637D01*
X56900615Y47463285D01*
X56821263Y47366594D01*
X56762298Y47256280D01*
X56725988Y47136582D01*
X56713728Y47012100D01*
X56713728Y45012100D01*
X56725988Y44887618D01*
X56762298Y44767920D01*
X56821263Y44657606D01*
X56900615Y44560915D01*
X56997306Y44481563D01*
X57107620Y44422598D01*
X57227318Y44386288D01*
X57351800Y44374028D01*
X60351800Y44374028D01*
X60476282Y44386288D01*
X60595980Y44422598D01*
X60706294Y44481563D01*
X60802985Y44560915D01*
X60857301Y44627100D01*
X61278115Y44627100D01*
X62994335Y42910879D01*
X62986584Y36226180D01*
X60852712Y36226180D01*
X60852712Y36341180D01*
X60840452Y36465662D01*
X60804142Y36585360D01*
X60745177Y36695674D01*
X60665825Y36792365D01*
X60569134Y36871717D01*
X60458820Y36930682D01*
X60339122Y36966992D01*
X60214640Y36979252D01*
X57214640Y36979252D01*
X57090158Y36966992D01*
X56970460Y36930682D01*
X56860146Y36871717D01*
X56763455Y36792365D01*
X56684103Y36695674D01*
X56625138Y36585360D01*
X56588828Y36465662D01*
X56576568Y36341180D01*
X56576568Y34661793D01*
X55799075Y33884300D01*
X55508063Y33884300D01*
X55412403Y33948218D01*
X55114852Y34071468D01*
X54798973Y34134300D01*
X54476907Y34134300D01*
X54161028Y34071468D01*
X54025000Y34015123D01*
X54025000Y38439165D01*
X54030007Y38490000D01*
X54018385Y38608000D01*
X54010024Y38692895D01*
X53950841Y38887993D01*
X53906104Y38971691D01*
X53854734Y39067798D01*
X53757803Y39185908D01*
X53725396Y39225396D01*
X53685908Y39257803D01*
X43463260Y49480450D01*
X43463260Y58252235D01*
X43589974Y58356226D01*
X43698260Y58488174D01*
X43806546Y58356226D01*
X44055508Y58151909D01*
X44339545Y58000088D01*
X44647744Y57906597D01*
X44968260Y57875029D01*
X45288775Y57906597D01*
X45596974Y58000088D01*
X45881011Y58151909D01*
X46129974Y58356226D01*
X46238260Y58488174D01*
X46346546Y58356226D01*
X46595508Y58151909D01*
X46879545Y58000088D01*
X47187744Y57906597D01*
X47508260Y57875029D01*
X47828775Y57906597D01*
X48136974Y58000088D01*
X48421011Y58151909D01*
X48492521Y58210595D01*
X48517723Y58163446D01*
X48597075Y58066755D01*
X48693766Y57987403D01*
X48804080Y57928438D01*
X48923778Y57892128D01*
X49048260Y57879868D01*
X51048260Y57879868D01*
X51172742Y57892128D01*
X51292440Y57928438D01*
X51402754Y57987403D01*
X51499445Y58066755D01*
X51578797Y58163446D01*
X51637762Y58273760D01*
X51674072Y58393458D01*
X51686332Y58517940D01*
X51686332Y61517940D01*
X51674072Y61642422D01*
X51637762Y61762120D01*
X51578797Y61872434D01*
X51499445Y61969125D01*
X51402754Y62048477D01*
X51292440Y62107442D01*
X51172742Y62143752D01*
X51048260Y62156012D01*
X49048260Y62156012D01*
X48923778Y62143752D01*
X48804080Y62107442D01*
X48693766Y62048477D01*
X48597075Y61969125D01*
X48517723Y61872434D01*
X48492521Y61825285D01*
X48421012Y61883971D01*
X48136975Y62035792D01*
X47828776Y62129283D01*
X47508260Y62160851D01*
X47187745Y62129283D01*
X46879546Y62035792D01*
X46595509Y61883971D01*
X46346547Y61679654D01*
X46238261Y61547706D01*
X46129974Y61679654D01*
X45881012Y61883971D01*
X45596975Y62035792D01*
X45288776Y62129283D01*
X44968260Y62160851D01*
X44647745Y62129283D01*
X44339546Y62035792D01*
X44055509Y61883971D01*
X43806547Y61679654D01*
X43698261Y61547706D01*
X43589974Y61679654D01*
X43341012Y61883971D01*
X43056975Y62035792D01*
X42748776Y62129283D01*
X42428260Y62160851D01*
X42107745Y62129283D01*
X41799546Y62035792D01*
X41515509Y61883971D01*
X41266547Y61679654D01*
X41158261Y61547706D01*
X41049974Y61679654D01*
X40801012Y61883971D01*
X40516975Y62035792D01*
X40208776Y62129283D01*
X39888260Y62160851D01*
X39567745Y62129283D01*
X39259546Y62035792D01*
X38975509Y61883971D01*
X38726547Y61679654D01*
X38618261Y61547706D01*
X38509974Y61679654D01*
X38261012Y61883971D01*
X37976975Y62035792D01*
X37668776Y62129283D01*
X37348260Y62160851D01*
X37027745Y62129283D01*
X36719546Y62035792D01*
X36435509Y61883971D01*
X36186547Y61679654D01*
X36078261Y61547706D01*
X35969974Y61679654D01*
X35843260Y61783645D01*
X35843260Y62637230D01*
X36668971Y63462940D01*
X37420582Y63462940D01*
X37660776Y63486597D01*
X37968975Y63580088D01*
X38253012Y63731909D01*
X38501974Y63936226D01*
X38605965Y64062940D01*
X39086260Y64062940D01*
X39105307Y63967184D01*
X39266248Y63578638D01*
X39499897Y63228957D01*
X39797277Y62931577D01*
X40146958Y62697928D01*
X40535504Y62536987D01*
X40947981Y62454940D01*
X41368539Y62454940D01*
X41781016Y62536987D01*
X42169562Y62697928D01*
X42519243Y62931577D01*
X42816623Y63228957D01*
X43050272Y63578638D01*
X43211213Y63967184D01*
X43293260Y64379661D01*
X43293260Y64800219D01*
X45119260Y64800219D01*
X45119260Y64379661D01*
X45201307Y63967184D01*
X45362248Y63578638D01*
X45595897Y63228957D01*
X45893277Y62931577D01*
X46242958Y62697928D01*
X46631504Y62536987D01*
X47043981Y62454940D01*
X47464539Y62454940D01*
X47877016Y62536987D01*
X48265562Y62697928D01*
X48615243Y62931577D01*
X48912623Y63228957D01*
X49146272Y63578638D01*
X49307213Y63967184D01*
X49389260Y64379661D01*
X49389260Y64570940D01*
X49933555Y64570940D01*
X50037546Y64444226D01*
X50286508Y64239909D01*
X50570545Y64088088D01*
X50878744Y63994597D01*
X51118938Y63970940D01*
X52255349Y63970940D01*
X52625001Y63601288D01*
X52625000Y58058711D01*
X50121290Y55555000D01*
X48334833Y55555000D01*
X48329987Y55562252D01*
X48102252Y55789987D01*
X47834463Y55968918D01*
X47536912Y56092168D01*
X47221033Y56155000D01*
X46898967Y56155000D01*
X46583088Y56092168D01*
X46285537Y55968918D01*
X46017748Y55789987D01*
X45790013Y55562252D01*
X45611082Y55294463D01*
X45487832Y54996912D01*
X45425000Y54681033D01*
X45425000Y54358967D01*
X45487832Y54043088D01*
X45611082Y53745537D01*
X45790013Y53477748D01*
X46017748Y53250013D01*
X46285537Y53071082D01*
X46583088Y52947832D01*
X46898967Y52885000D01*
X47221033Y52885000D01*
X47536912Y52947832D01*
X47834463Y53071082D01*
X48102252Y53250013D01*
X48329987Y53477748D01*
X48334833Y53485000D01*
X50499172Y53485000D01*
X50550000Y53479994D01*
X50600828Y53485000D01*
X50600838Y53485000D01*
X50752895Y53499976D01*
X50947993Y53559159D01*
X51127797Y53655266D01*
X51285396Y53784604D01*
X51317807Y53824097D01*
X54355908Y56862197D01*
X54395396Y56894604D01*
X54427803Y56934092D01*
X54524734Y57052202D01*
X54620840Y57232006D01*
X54620841Y57232007D01*
X54680024Y57427105D01*
X54695000Y57579162D01*
X54695000Y57579171D01*
X54700006Y57629999D01*
X54695000Y57680827D01*
X54695000Y63979165D01*
X54700007Y64030000D01*
X54689858Y64133045D01*
X54680024Y64232895D01*
X54620841Y64427993D01*
X54576104Y64511691D01*
X54524734Y64607798D01*
X54427803Y64725908D01*
X54395396Y64765396D01*
X54355908Y64797803D01*
X53815775Y65337936D01*
X53842171Y65605940D01*
X53810603Y65926456D01*
X53717112Y66234655D01*
X53565291Y66518692D01*
X53360974Y66767654D01*
X53112012Y66971971D01*
X52827975Y67123792D01*
X52519776Y67217283D01*
X52279582Y67240940D01*
X51118938Y67240940D01*
X50878744Y67217283D01*
X50570545Y67123792D01*
X50286508Y66971971D01*
X50037546Y66767654D01*
X49933555Y66640940D01*
X48321095Y66640940D01*
X48270260Y66645947D01*
X48219424Y66640940D01*
X48219422Y66640940D01*
X48067365Y66625964D01*
X47981078Y66599789D01*
X47877016Y66642893D01*
X47464539Y66724940D01*
X47043981Y66724940D01*
X46631504Y66642893D01*
X46242958Y66481952D01*
X45893277Y66248303D01*
X45595897Y65950923D01*
X45362248Y65601242D01*
X45201307Y65212696D01*
X45119260Y64800219D01*
X43293260Y64800219D01*
X43211213Y65212696D01*
X43050272Y65601242D01*
X42816623Y65950923D01*
X42519243Y66248303D01*
X42169562Y66481952D01*
X41781016Y66642893D01*
X41368539Y66724940D01*
X40947981Y66724940D01*
X40535504Y66642893D01*
X40146958Y66481952D01*
X39797277Y66248303D01*
X39681914Y66132940D01*
X38605965Y66132940D01*
X38501974Y66259654D01*
X38253012Y66463971D01*
X37968975Y66615792D01*
X37660776Y66709283D01*
X37420582Y66732940D01*
X36259938Y66732940D01*
X36019744Y66709283D01*
X35711545Y66615792D01*
X35427508Y66463971D01*
X35178546Y66259654D01*
X34974229Y66010692D01*
X34822408Y65726655D01*
X34728917Y65418456D01*
X34697349Y65097940D01*
X34728917Y64777424D01*
X34805051Y64526442D01*
X34339940Y64061330D01*
X34403260Y64379661D01*
X34403260Y64800219D01*
X34321213Y65212696D01*
X34160272Y65601242D01*
X33926623Y65950923D01*
X33629243Y66248303D01*
X33279562Y66481952D01*
X32891016Y66642893D01*
X32478539Y66724940D01*
X32057981Y66724940D01*
X31645504Y66642893D01*
X31256958Y66481952D01*
X31114762Y66386940D01*
X29715965Y66386940D01*
X29611974Y66513654D01*
X29363012Y66717971D01*
X29078975Y66869792D01*
X28770776Y66963283D01*
X28530582Y66986940D01*
X27369938Y66986940D01*
X27129744Y66963283D01*
X26821545Y66869792D01*
X26537508Y66717971D01*
X26288546Y66513654D01*
X26119248Y66307364D01*
X26006291Y66518692D01*
X25801974Y66767654D01*
X25553012Y66971971D01*
X25268975Y67123792D01*
X24960776Y67217283D01*
X24720582Y67240940D01*
X23559938Y67240940D01*
X23319744Y67217283D01*
X23011545Y67123792D01*
X22727508Y66971971D01*
X22478546Y66767654D01*
X22374555Y66640940D01*
X20508087Y66640940D01*
X20457259Y66645946D01*
X20406431Y66640940D01*
X20406422Y66640940D01*
X20254365Y66625964D01*
X20059267Y66566781D01*
X19975569Y66522044D01*
X19879462Y66470674D01*
X19785705Y66393729D01*
X19397539Y66470940D01*
X18976981Y66470940D01*
X18564504Y66388893D01*
X18175958Y66227952D01*
X17826277Y65994303D01*
X17528897Y65696923D01*
X17295248Y65347242D01*
X17134307Y64958696D01*
X17052260Y64546219D01*
X17052260Y64125661D01*
X17134307Y63713184D01*
X17295248Y63324638D01*
X17528897Y62974957D01*
X17826277Y62677577D01*
X18175958Y62443928D01*
X18564504Y62282987D01*
X18976981Y62200940D01*
X19397539Y62200940D01*
X19810016Y62282987D01*
X20198562Y62443928D01*
X20548243Y62677577D01*
X20845623Y62974957D01*
X21079272Y63324638D01*
X21240213Y63713184D01*
X21322260Y64125661D01*
X21322260Y64546219D01*
X21317343Y64570940D01*
X22374555Y64570940D01*
X22478546Y64444226D01*
X22727508Y64239909D01*
X23011545Y64088088D01*
X23105260Y64059660D01*
X23105260Y63856768D01*
X23100254Y63805940D01*
X23105260Y63755112D01*
X23105260Y63755103D01*
X23120236Y63603046D01*
X23179419Y63407948D01*
X23275526Y63228143D01*
X23404864Y63070544D01*
X23444357Y63038133D01*
X24350923Y62131566D01*
X24327745Y62129283D01*
X24019546Y62035792D01*
X23735509Y61883971D01*
X23486547Y61679654D01*
X23378261Y61547706D01*
X23269974Y61679654D01*
X23021012Y61883971D01*
X22736975Y62035792D01*
X22428776Y62129283D01*
X22108260Y62160851D01*
X21787745Y62129283D01*
X21479546Y62035792D01*
X21195509Y61883971D01*
X20946547Y61679654D01*
X20742230Y61430692D01*
X20590408Y61146655D01*
X20496917Y60838456D01*
X20473260Y60598262D01*
X20473260Y59437619D01*
X20481416Y59354807D01*
X15999450Y54872840D01*
X13867111Y54872840D01*
X13945065Y54936815D01*
X14024417Y55033506D01*
X14083382Y55143820D01*
X14119692Y55263518D01*
X14131952Y55388000D01*
X14131952Y57388000D01*
X14119692Y57512482D01*
X14083382Y57632180D01*
X14024417Y57742494D01*
X13945065Y57839185D01*
X13848374Y57918537D01*
X13738060Y57977502D01*
X13618362Y58013812D01*
X13493880Y58026072D01*
X12625587Y58026072D01*
X12861011Y58151909D01*
X13109974Y58356226D01*
X13218260Y58488174D01*
X13326546Y58356226D01*
X13575508Y58151909D01*
X13859545Y58000088D01*
X14167744Y57906597D01*
X14488260Y57875029D01*
X14808775Y57906597D01*
X15116974Y58000088D01*
X15401011Y58151909D01*
X15649974Y58356226D01*
X15758260Y58488174D01*
X15866546Y58356226D01*
X16115508Y58151909D01*
X16399545Y58000088D01*
X16707744Y57906597D01*
X17028260Y57875029D01*
X17348775Y57906597D01*
X17656974Y58000088D01*
X17941011Y58151909D01*
X18189974Y58356226D01*
X18394291Y58605188D01*
X18546112Y58889225D01*
X18639603Y59197424D01*
X18663260Y59437618D01*
X18663260Y60598262D01*
X18639603Y60838456D01*
X18546112Y61146655D01*
X18394291Y61430692D01*
X18189974Y61679654D01*
X17941012Y61883971D01*
X17656975Y62035792D01*
X17348776Y62129283D01*
X17066640Y62157071D01*
X13834060Y65389650D01*
X13834060Y71990195D01*
X13923542Y71999008D01*
X14043240Y72035318D01*
X14153554Y72094283D01*
X14250245Y72173635D01*
X14329597Y72270326D01*
X14388562Y72380640D01*
X14424872Y72500338D01*
X14437132Y72624820D01*
X14437132Y75624820D01*
X14434353Y75653040D01*
X20675928Y75653040D01*
X20675928Y72653040D01*
X20688188Y72528558D01*
X20724498Y72408860D01*
X20783463Y72298546D01*
X20862815Y72201855D01*
X20959506Y72122503D01*
X21069820Y72063538D01*
X21189518Y72027228D01*
X21314000Y72014968D01*
X21406204Y72014968D01*
X21449266Y71934403D01*
X21520460Y71847654D01*
X21578605Y71776804D01*
X21618092Y71744398D01*
X22105052Y71257438D01*
X22028917Y71006456D01*
X21997349Y70685940D01*
X22028917Y70365424D01*
X22122408Y70057225D01*
X22274229Y69773188D01*
X22478546Y69524226D01*
X22727508Y69319909D01*
X23011545Y69168088D01*
X23319744Y69074597D01*
X23559938Y69050940D01*
X24720582Y69050940D01*
X24960776Y69074597D01*
X25268975Y69168088D01*
X25553012Y69319909D01*
X25801974Y69524226D01*
X25971272Y69730516D01*
X26084229Y69519188D01*
X26288546Y69270226D01*
X26537508Y69065909D01*
X26821545Y68914088D01*
X27129744Y68820597D01*
X27369938Y68796940D01*
X28530582Y68796940D01*
X28770776Y68820597D01*
X29078975Y68914088D01*
X29363012Y69065909D01*
X29611974Y69270226D01*
X29816291Y69519188D01*
X29968112Y69803225D01*
X30061603Y70111424D01*
X30068154Y70177940D01*
X34697349Y70177940D01*
X34728917Y69857424D01*
X34822408Y69549225D01*
X34974229Y69265188D01*
X35178546Y69016226D01*
X35427508Y68811909D01*
X35711545Y68660088D01*
X36019744Y68566597D01*
X36259938Y68542940D01*
X37420582Y68542940D01*
X37660776Y68566597D01*
X37968975Y68660088D01*
X38253012Y68811909D01*
X38501974Y69016226D01*
X38706291Y69265188D01*
X38858112Y69549225D01*
X38951603Y69857424D01*
X38983171Y70177940D01*
X38951603Y70498456D01*
X38894731Y70685940D01*
X49556349Y70685940D01*
X49587917Y70365424D01*
X49681408Y70057225D01*
X49833229Y69773188D01*
X50037546Y69524226D01*
X50286508Y69319909D01*
X50570545Y69168088D01*
X50878744Y69074597D01*
X51118938Y69050940D01*
X52279582Y69050940D01*
X52519776Y69074597D01*
X52827975Y69168088D01*
X53112012Y69319909D01*
X53360974Y69524226D01*
X53565291Y69773188D01*
X53717112Y70057225D01*
X53810603Y70365424D01*
X53842171Y70685940D01*
X53810603Y71006456D01*
X53717112Y71314655D01*
X53565291Y71598692D01*
X53360974Y71847654D01*
X53112012Y72051971D01*
X52940218Y72143797D01*
X53033434Y72193623D01*
X53130125Y72272975D01*
X53209477Y72369666D01*
X53268442Y72479980D01*
X53304752Y72599678D01*
X53317012Y72724160D01*
X53317012Y74835656D01*
X61355000Y74835656D01*
X61355000Y74464344D01*
X61427439Y74100166D01*
X61569534Y73757118D01*
X61775825Y73448382D01*
X62038382Y73185825D01*
X62347118Y72979534D01*
X62690166Y72837439D01*
X63054344Y72765000D01*
X63425656Y72765000D01*
X63789834Y72837439D01*
X64132882Y72979534D01*
X64441618Y73185825D01*
X64704175Y73448382D01*
X64910466Y73757118D01*
X65052561Y74100166D01*
X65125000Y74464344D01*
X65125000Y74835656D01*
X65052561Y75199834D01*
X64910466Y75542882D01*
X64704175Y75851618D01*
X64441618Y76114175D01*
X64132882Y76320466D01*
X63789834Y76462561D01*
X63425656Y76535000D01*
X63054344Y76535000D01*
X62690166Y76462561D01*
X62347118Y76320466D01*
X62038382Y76114175D01*
X61775825Y75851618D01*
X61569534Y75542882D01*
X61427439Y75199834D01*
X61355000Y74835656D01*
X53317012Y74835656D01*
X53317012Y75724160D01*
X53304752Y75848642D01*
X53268442Y75968340D01*
X53209477Y76078654D01*
X53130125Y76175345D01*
X53033434Y76254697D01*
X52923120Y76313662D01*
X52803422Y76349972D01*
X52678940Y76362232D01*
X50678940Y76362232D01*
X50554458Y76349972D01*
X50434760Y76313662D01*
X50324446Y76254697D01*
X50227755Y76175345D01*
X50148403Y76078654D01*
X50089438Y75968340D01*
X50053128Y75848642D01*
X50040868Y75724160D01*
X50040868Y72724160D01*
X50053128Y72599678D01*
X50089438Y72479980D01*
X50148403Y72369666D01*
X50227755Y72272975D01*
X50324446Y72193623D01*
X50434760Y72134658D01*
X50438871Y72133411D01*
X50286508Y72051971D01*
X50037546Y71847654D01*
X49833229Y71598692D01*
X49681408Y71314655D01*
X49587917Y71006456D01*
X49556349Y70685940D01*
X38894731Y70685940D01*
X38858112Y70806655D01*
X38706291Y71090692D01*
X38501974Y71339654D01*
X38253012Y71543971D01*
X37968975Y71695792D01*
X37875260Y71724220D01*
X37875260Y72242732D01*
X38116274Y72440526D01*
X38320591Y72689488D01*
X38472412Y72973525D01*
X38565903Y73281724D01*
X38589560Y73521918D01*
X38589560Y74682562D01*
X38565903Y74922756D01*
X38472412Y75230955D01*
X38320591Y75514992D01*
X38116274Y75763954D01*
X37867311Y75968271D01*
X37583274Y76120092D01*
X37275075Y76213583D01*
X36954560Y76245151D01*
X36634044Y76213583D01*
X36325845Y76120092D01*
X36041808Y75968271D01*
X35792846Y75763954D01*
X35588529Y75514991D01*
X35436708Y75230954D01*
X35343217Y74922755D01*
X35319560Y74682561D01*
X35319560Y73521918D01*
X35343217Y73281724D01*
X35436708Y72973525D01*
X35588530Y72689488D01*
X35792847Y72440526D01*
X35805261Y72430338D01*
X35805260Y71724220D01*
X35711545Y71695792D01*
X35427508Y71543971D01*
X35178546Y71339654D01*
X34974229Y71090692D01*
X34822408Y70806655D01*
X34728917Y70498456D01*
X34697349Y70177940D01*
X30068154Y70177940D01*
X30093171Y70431940D01*
X30061603Y70752456D01*
X29981784Y71015585D01*
X30006254Y71045402D01*
X30102360Y71225206D01*
X30102361Y71225207D01*
X30161544Y71420305D01*
X30176520Y71572362D01*
X30176520Y71572371D01*
X30181526Y71623199D01*
X30176520Y71674027D01*
X30176520Y72389875D01*
X30303234Y72493866D01*
X30507551Y72742828D01*
X30659372Y73026865D01*
X30752863Y73335064D01*
X30776520Y73575258D01*
X30776520Y74735902D01*
X30752863Y74976096D01*
X30659372Y75284295D01*
X30507551Y75568332D01*
X30303234Y75817294D01*
X30054271Y76021611D01*
X29770234Y76173432D01*
X29462035Y76266923D01*
X29141520Y76298491D01*
X28821004Y76266923D01*
X28512805Y76173432D01*
X28228768Y76021611D01*
X27979806Y75817294D01*
X27775489Y75568331D01*
X27623668Y75284294D01*
X27530177Y74976095D01*
X27506520Y74735901D01*
X27506520Y73575258D01*
X27530177Y73335064D01*
X27623668Y73026865D01*
X27775490Y72742828D01*
X27979807Y72493866D01*
X28106521Y72389875D01*
X28106521Y72066940D01*
X27369938Y72066940D01*
X27129744Y72043283D01*
X26821545Y71949792D01*
X26537508Y71797971D01*
X26288546Y71593654D01*
X26119248Y71387364D01*
X26006291Y71598692D01*
X25801974Y71847654D01*
X25553012Y72051971D01*
X25268975Y72203792D01*
X24960776Y72297283D01*
X24720582Y72320940D01*
X23968971Y72320940D01*
X23895681Y72394229D01*
X23903502Y72408860D01*
X23939812Y72528558D01*
X23952072Y72653040D01*
X23952072Y75653040D01*
X23939812Y75777522D01*
X23903502Y75897220D01*
X23844537Y76007534D01*
X23765185Y76104225D01*
X23668494Y76183577D01*
X23558180Y76242542D01*
X23438482Y76278852D01*
X23314000Y76291112D01*
X21314000Y76291112D01*
X21189518Y76278852D01*
X21069820Y76242542D01*
X20959506Y76183577D01*
X20862815Y76104225D01*
X20783463Y76007534D01*
X20724498Y75897220D01*
X20688188Y75777522D01*
X20675928Y75653040D01*
X14434353Y75653040D01*
X14424872Y75749302D01*
X14388562Y75869000D01*
X14329597Y75979314D01*
X14250245Y76076005D01*
X14153554Y76155357D01*
X14043240Y76214322D01*
X13923542Y76250632D01*
X13799060Y76262892D01*
X11799060Y76262892D01*
X11674578Y76250632D01*
X11554880Y76214322D01*
X11444566Y76155357D01*
X11347875Y76076005D01*
X11268523Y75979314D01*
X11209558Y75869000D01*
X11173248Y75749302D01*
X11160988Y75624820D01*
X11160988Y72624820D01*
X11173248Y72500338D01*
X11209558Y72380640D01*
X11268523Y72270326D01*
X11347875Y72173635D01*
X11444566Y72094283D01*
X11554880Y72035318D01*
X11674578Y71999008D01*
X11764061Y71990195D01*
X11764060Y65011768D01*
X11759054Y64960940D01*
X11764060Y64910112D01*
X11764060Y64910103D01*
X11779036Y64758046D01*
X11838219Y64562948D01*
X11934326Y64383143D01*
X12063664Y64225544D01*
X12103157Y64193133D01*
X14167178Y62129111D01*
X13859546Y62035792D01*
X13575509Y61883971D01*
X13326547Y61679654D01*
X13218261Y61547706D01*
X13109974Y61679654D01*
X12861012Y61883971D01*
X12576975Y62035792D01*
X12268776Y62129283D01*
X11948260Y62160851D01*
X11627745Y62129283D01*
X11319546Y62035792D01*
X11035509Y61883971D01*
X10786547Y61679654D01*
X10678261Y61547706D01*
X10569974Y61679654D01*
X10443260Y61783645D01*
X10443260Y65017553D01*
X10448266Y65068381D01*
X10443260Y65119209D01*
X10443260Y65119218D01*
X10428284Y65271275D01*
X10369101Y65466373D01*
X10294501Y65605940D01*
X10272994Y65646178D01*
X10176063Y65764288D01*
X10143656Y65803776D01*
X10104168Y65836183D01*
X7492487Y68447863D01*
X7460076Y68487356D01*
X7302477Y68616694D01*
X7122673Y68712801D01*
X6927575Y68771984D01*
X6775518Y68786960D01*
X6775508Y68786960D01*
X6724680Y68791966D01*
X6673852Y68786960D01*
X6559305Y68786960D01*
X6550492Y68876442D01*
X6514182Y68996140D01*
X6455217Y69106454D01*
X6375865Y69203145D01*
X6279174Y69282497D01*
X6168860Y69341462D01*
X6049162Y69377772D01*
X5924680Y69390032D01*
X2924680Y69390032D01*
X2800198Y69377772D01*
X2680500Y69341462D01*
X2570186Y69282497D01*
X2473495Y69203145D01*
X2394143Y69106454D01*
X2335178Y68996140D01*
X2298868Y68876442D01*
X2286608Y68751960D01*
X2286608Y66751960D01*
X2298868Y66627478D01*
X2335178Y66507780D01*
X2394143Y66397466D01*
X2473495Y66300775D01*
X2570186Y66221423D01*
X2680500Y66162458D01*
X2800198Y66126148D01*
X2924680Y66113888D01*
X5924680Y66113888D01*
X6049162Y66126148D01*
X6168860Y66162458D01*
X6279174Y66221423D01*
X6375865Y66300775D01*
X6455217Y66397466D01*
X6511036Y66501894D01*
X8373261Y64639668D01*
X8373260Y61783645D01*
X8246547Y61679654D01*
X8138261Y61547706D01*
X8029974Y61679654D01*
X7781012Y61883971D01*
X7496975Y62035792D01*
X7188776Y62129283D01*
X6868260Y62160851D01*
X6547745Y62129283D01*
X6239546Y62035792D01*
X5955509Y61883971D01*
X5706547Y61679654D01*
X5502230Y61430692D01*
X5350408Y61146655D01*
X5256917Y60838456D01*
X5233260Y60598262D01*
X5233260Y59437619D01*
X5256917Y59197425D01*
X5350408Y58889226D01*
X5502229Y58605189D01*
X5706546Y58356226D01*
X5833260Y58252235D01*
X5833260Y57667103D01*
X5833261Y57667093D01*
X5833260Y46274564D01*
X5828254Y46223736D01*
X5833260Y46172908D01*
X5833260Y46172899D01*
X5848236Y46020842D01*
X5907419Y45825744D01*
X6003526Y45645939D01*
X6016743Y45629834D01*
X5845537Y45558918D01*
X5577748Y45379987D01*
X5350013Y45152252D01*
X5171082Y44884463D01*
X5047832Y44586912D01*
X4985000Y44271033D01*
X4985000Y43948967D01*
X4986702Y43940412D01*
X3632357Y42586067D01*
X3592864Y42553656D01*
X3463526Y42396057D01*
X3367419Y42216252D01*
X3308236Y42021154D01*
X3293260Y41869097D01*
X3293260Y41869088D01*
X3288254Y41818260D01*
X3293260Y41767432D01*
X3293261Y36383645D01*
X3166547Y36279654D01*
X2962230Y36030692D01*
X2810408Y35746655D01*
X2716917Y35438456D01*
X2693260Y35198262D01*
X2693260Y34446650D01*
X2074092Y33827482D01*
X2034605Y33795076D01*
X2002198Y33755588D01*
X2002197Y33755587D01*
X1905266Y33637477D01*
X1809160Y33457673D01*
X1749977Y33262575D01*
X1741782Y33179364D01*
X1727748Y33169987D01*
X1500013Y32942252D01*
X1321082Y32674463D01*
X1197832Y32376912D01*
X1135000Y32061033D01*
X1135000Y31738967D01*
X1197832Y31423088D01*
X1321082Y31125537D01*
X1500013Y30857748D01*
X1727748Y30630013D01*
X1995537Y30451082D01*
X2293088Y30327832D01*
X2608967Y30265000D01*
X2927327Y30265000D01*
X708260Y28045932D01*
X708260Y74895656D01*
X1005000Y74895656D01*
X1005000Y74524344D01*
X1077439Y74160166D01*
X1219534Y73817118D01*
X1425825Y73508382D01*
X1688382Y73245825D01*
X1997118Y73039534D01*
X2340166Y72897439D01*
X2704344Y72825000D01*
X3075656Y72825000D01*
X3439834Y72897439D01*
X3782882Y73039534D01*
X4091618Y73245825D01*
X4354175Y73508382D01*
X4560466Y73817118D01*
X4702561Y74160166D01*
X4775000Y74524344D01*
X4775000Y74895656D01*
X4702561Y75259834D01*
X4560466Y75602882D01*
X4354175Y75911618D01*
X4091618Y76174175D01*
X3782882Y76380466D01*
X3439834Y76522561D01*
X3075656Y76595000D01*
X2704344Y76595000D01*
X2340166Y76522561D01*
X1997118Y76380466D01*
X1688382Y76174175D01*
X1425825Y75911618D01*
X1219534Y75602882D01*
X1077439Y75259834D01*
X1005000Y74895656D01*
X708260Y74895656D01*
X708260Y76810000D01*
X65380001Y76810000D01*
X65380001Y44448787D01*
G37*
X65380001Y44448787D02*
X65365221Y44466839D01*
X65311809Y44510777D01*
X62879254Y46943331D01*
X62835881Y46996181D01*
X62624988Y47169257D01*
X62384381Y47297864D01*
X62123307Y47377060D01*
X61919837Y47397100D01*
X61919829Y47397100D01*
X61851800Y47403800D01*
X61783771Y47397100D01*
X60857301Y47397100D01*
X60802985Y47463285D01*
X60706294Y47542637D01*
X60595980Y47601602D01*
X60476282Y47637912D01*
X60351800Y47650172D01*
X57351800Y47650172D01*
X57227318Y47637912D01*
X57107620Y47601602D01*
X56997306Y47542637D01*
X56900615Y47463285D01*
X56821263Y47366594D01*
X56762298Y47256280D01*
X56725988Y47136582D01*
X56713728Y47012100D01*
X56713728Y45012100D01*
X56725988Y44887618D01*
X56762298Y44767920D01*
X56821263Y44657606D01*
X56900615Y44560915D01*
X56997306Y44481563D01*
X57107620Y44422598D01*
X57227318Y44386288D01*
X57351800Y44374028D01*
X60351800Y44374028D01*
X60476282Y44386288D01*
X60595980Y44422598D01*
X60706294Y44481563D01*
X60802985Y44560915D01*
X60857301Y44627100D01*
X61278115Y44627100D01*
X62994335Y42910879D01*
X62986584Y36226180D01*
X60852712Y36226180D01*
X60852712Y36341180D01*
X60840452Y36465662D01*
X60804142Y36585360D01*
X60745177Y36695674D01*
X60665825Y36792365D01*
X60569134Y36871717D01*
X60458820Y36930682D01*
X60339122Y36966992D01*
X60214640Y36979252D01*
X57214640Y36979252D01*
X57090158Y36966992D01*
X56970460Y36930682D01*
X56860146Y36871717D01*
X56763455Y36792365D01*
X56684103Y36695674D01*
X56625138Y36585360D01*
X56588828Y36465662D01*
X56576568Y36341180D01*
X56576568Y34661793D01*
X55799075Y33884300D01*
X55508063Y33884300D01*
X55412403Y33948218D01*
X55114852Y34071468D01*
X54798973Y34134300D01*
X54476907Y34134300D01*
X54161028Y34071468D01*
X54025000Y34015123D01*
X54025000Y38439165D01*
X54030007Y38490000D01*
X54018385Y38608000D01*
X54010024Y38692895D01*
X53950841Y38887993D01*
X53906104Y38971691D01*
X53854734Y39067798D01*
X53757803Y39185908D01*
X53725396Y39225396D01*
X53685908Y39257803D01*
X43463260Y49480450D01*
X43463260Y58252235D01*
X43589974Y58356226D01*
X43698260Y58488174D01*
X43806546Y58356226D01*
X44055508Y58151909D01*
X44339545Y58000088D01*
X44647744Y57906597D01*
X44968260Y57875029D01*
X45288775Y57906597D01*
X45596974Y58000088D01*
X45881011Y58151909D01*
X46129974Y58356226D01*
X46238260Y58488174D01*
X46346546Y58356226D01*
X46595508Y58151909D01*
X46879545Y58000088D01*
X47187744Y57906597D01*
X47508260Y57875029D01*
X47828775Y57906597D01*
X48136974Y58000088D01*
X48421011Y58151909D01*
X48492521Y58210595D01*
X48517723Y58163446D01*
X48597075Y58066755D01*
X48693766Y57987403D01*
X48804080Y57928438D01*
X48923778Y57892128D01*
X49048260Y57879868D01*
X51048260Y57879868D01*
X51172742Y57892128D01*
X51292440Y57928438D01*
X51402754Y57987403D01*
X51499445Y58066755D01*
X51578797Y58163446D01*
X51637762Y58273760D01*
X51674072Y58393458D01*
X51686332Y58517940D01*
X51686332Y61517940D01*
X51674072Y61642422D01*
X51637762Y61762120D01*
X51578797Y61872434D01*
X51499445Y61969125D01*
X51402754Y62048477D01*
X51292440Y62107442D01*
X51172742Y62143752D01*
X51048260Y62156012D01*
X49048260Y62156012D01*
X48923778Y62143752D01*
X48804080Y62107442D01*
X48693766Y62048477D01*
X48597075Y61969125D01*
X48517723Y61872434D01*
X48492521Y61825285D01*
X48421012Y61883971D01*
X48136975Y62035792D01*
X47828776Y62129283D01*
X47508260Y62160851D01*
X47187745Y62129283D01*
X46879546Y62035792D01*
X46595509Y61883971D01*
X46346547Y61679654D01*
X46238261Y61547706D01*
X46129974Y61679654D01*
X45881012Y61883971D01*
X45596975Y62035792D01*
X45288776Y62129283D01*
X44968260Y62160851D01*
X44647745Y62129283D01*
X44339546Y62035792D01*
X44055509Y61883971D01*
X43806547Y61679654D01*
X43698261Y61547706D01*
X43589974Y61679654D01*
X43341012Y61883971D01*
X43056975Y62035792D01*
X42748776Y62129283D01*
X42428260Y62160851D01*
X42107745Y62129283D01*
X41799546Y62035792D01*
X41515509Y61883971D01*
X41266547Y61679654D01*
X41158261Y61547706D01*
X41049974Y61679654D01*
X40801012Y61883971D01*
X40516975Y62035792D01*
X40208776Y62129283D01*
X39888260Y62160851D01*
X39567745Y62129283D01*
X39259546Y62035792D01*
X38975509Y61883971D01*
X38726547Y61679654D01*
X38618261Y61547706D01*
X38509974Y61679654D01*
X38261012Y61883971D01*
X37976975Y62035792D01*
X37668776Y62129283D01*
X37348260Y62160851D01*
X37027745Y62129283D01*
X36719546Y62035792D01*
X36435509Y61883971D01*
X36186547Y61679654D01*
X36078261Y61547706D01*
X35969974Y61679654D01*
X35843260Y61783645D01*
X35843260Y62637230D01*
X36668971Y63462940D01*
X37420582Y63462940D01*
X37660776Y63486597D01*
X37968975Y63580088D01*
X38253012Y63731909D01*
X38501974Y63936226D01*
X38605965Y64062940D01*
X39086260Y64062940D01*
X39105307Y63967184D01*
X39266248Y63578638D01*
X39499897Y63228957D01*
X39797277Y62931577D01*
X40146958Y62697928D01*
X40535504Y62536987D01*
X40947981Y62454940D01*
X41368539Y62454940D01*
X41781016Y62536987D01*
X42169562Y62697928D01*
X42519243Y62931577D01*
X42816623Y63228957D01*
X43050272Y63578638D01*
X43211213Y63967184D01*
X43293260Y64379661D01*
X43293260Y64800219D01*
X45119260Y64800219D01*
X45119260Y64379661D01*
X45201307Y63967184D01*
X45362248Y63578638D01*
X45595897Y63228957D01*
X45893277Y62931577D01*
X46242958Y62697928D01*
X46631504Y62536987D01*
X47043981Y62454940D01*
X47464539Y62454940D01*
X47877016Y62536987D01*
X48265562Y62697928D01*
X48615243Y62931577D01*
X48912623Y63228957D01*
X49146272Y63578638D01*
X49307213Y63967184D01*
X49389260Y64379661D01*
X49389260Y64570940D01*
X49933555Y64570940D01*
X50037546Y64444226D01*
X50286508Y64239909D01*
X50570545Y64088088D01*
X50878744Y63994597D01*
X51118938Y63970940D01*
X52255349Y63970940D01*
X52625001Y63601288D01*
X52625000Y58058711D01*
X50121290Y55555000D01*
X48334833Y55555000D01*
X48329987Y55562252D01*
X48102252Y55789987D01*
X47834463Y55968918D01*
X47536912Y56092168D01*
X47221033Y56155000D01*
X46898967Y56155000D01*
X46583088Y56092168D01*
X46285537Y55968918D01*
X46017748Y55789987D01*
X45790013Y55562252D01*
X45611082Y55294463D01*
X45487832Y54996912D01*
X45425000Y54681033D01*
X45425000Y54358967D01*
X45487832Y54043088D01*
X45611082Y53745537D01*
X45790013Y53477748D01*
X46017748Y53250013D01*
X46285537Y53071082D01*
X46583088Y52947832D01*
X46898967Y52885000D01*
X47221033Y52885000D01*
X47536912Y52947832D01*
X47834463Y53071082D01*
X48102252Y53250013D01*
X48329987Y53477748D01*
X48334833Y53485000D01*
X50499172Y53485000D01*
X50550000Y53479994D01*
X50600828Y53485000D01*
X50600838Y53485000D01*
X50752895Y53499976D01*
X50947993Y53559159D01*
X51127797Y53655266D01*
X51285396Y53784604D01*
X51317807Y53824097D01*
X54355908Y56862197D01*
X54395396Y56894604D01*
X54427803Y56934092D01*
X54524734Y57052202D01*
X54620840Y57232006D01*
X54620841Y57232007D01*
X54680024Y57427105D01*
X54695000Y57579162D01*
X54695000Y57579171D01*
X54700006Y57629999D01*
X54695000Y57680827D01*
X54695000Y63979165D01*
X54700007Y64030000D01*
X54689858Y64133045D01*
X54680024Y64232895D01*
X54620841Y64427993D01*
X54576104Y64511691D01*
X54524734Y64607798D01*
X54427803Y64725908D01*
X54395396Y64765396D01*
X54355908Y64797803D01*
X53815775Y65337936D01*
X53842171Y65605940D01*
X53810603Y65926456D01*
X53717112Y66234655D01*
X53565291Y66518692D01*
X53360974Y66767654D01*
X53112012Y66971971D01*
X52827975Y67123792D01*
X52519776Y67217283D01*
X52279582Y67240940D01*
X51118938Y67240940D01*
X50878744Y67217283D01*
X50570545Y67123792D01*
X50286508Y66971971D01*
X50037546Y66767654D01*
X49933555Y66640940D01*
X48321095Y66640940D01*
X48270260Y66645947D01*
X48219424Y66640940D01*
X48219422Y66640940D01*
X48067365Y66625964D01*
X47981078Y66599789D01*
X47877016Y66642893D01*
X47464539Y66724940D01*
X47043981Y66724940D01*
X46631504Y66642893D01*
X46242958Y66481952D01*
X45893277Y66248303D01*
X45595897Y65950923D01*
X45362248Y65601242D01*
X45201307Y65212696D01*
X45119260Y64800219D01*
X43293260Y64800219D01*
X43211213Y65212696D01*
X43050272Y65601242D01*
X42816623Y65950923D01*
X42519243Y66248303D01*
X42169562Y66481952D01*
X41781016Y66642893D01*
X41368539Y66724940D01*
X40947981Y66724940D01*
X40535504Y66642893D01*
X40146958Y66481952D01*
X39797277Y66248303D01*
X39681914Y66132940D01*
X38605965Y66132940D01*
X38501974Y66259654D01*
X38253012Y66463971D01*
X37968975Y66615792D01*
X37660776Y66709283D01*
X37420582Y66732940D01*
X36259938Y66732940D01*
X36019744Y66709283D01*
X35711545Y66615792D01*
X35427508Y66463971D01*
X35178546Y66259654D01*
X34974229Y66010692D01*
X34822408Y65726655D01*
X34728917Y65418456D01*
X34697349Y65097940D01*
X34728917Y64777424D01*
X34805051Y64526442D01*
X34339940Y64061330D01*
X34403260Y64379661D01*
X34403260Y64800219D01*
X34321213Y65212696D01*
X34160272Y65601242D01*
X33926623Y65950923D01*
X33629243Y66248303D01*
X33279562Y66481952D01*
X32891016Y66642893D01*
X32478539Y66724940D01*
X32057981Y66724940D01*
X31645504Y66642893D01*
X31256958Y66481952D01*
X31114762Y66386940D01*
X29715965Y66386940D01*
X29611974Y66513654D01*
X29363012Y66717971D01*
X29078975Y66869792D01*
X28770776Y66963283D01*
X28530582Y66986940D01*
X27369938Y66986940D01*
X27129744Y66963283D01*
X26821545Y66869792D01*
X26537508Y66717971D01*
X26288546Y66513654D01*
X26119248Y66307364D01*
X26006291Y66518692D01*
X25801974Y66767654D01*
X25553012Y66971971D01*
X25268975Y67123792D01*
X24960776Y67217283D01*
X24720582Y67240940D01*
X23559938Y67240940D01*
X23319744Y67217283D01*
X23011545Y67123792D01*
X22727508Y66971971D01*
X22478546Y66767654D01*
X22374555Y66640940D01*
X20508087Y66640940D01*
X20457259Y66645946D01*
X20406431Y66640940D01*
X20406422Y66640940D01*
X20254365Y66625964D01*
X20059267Y66566781D01*
X19975569Y66522044D01*
X19879462Y66470674D01*
X19785705Y66393729D01*
X19397539Y66470940D01*
X18976981Y66470940D01*
X18564504Y66388893D01*
X18175958Y66227952D01*
X17826277Y65994303D01*
X17528897Y65696923D01*
X17295248Y65347242D01*
X17134307Y64958696D01*
X17052260Y64546219D01*
X17052260Y64125661D01*
X17134307Y63713184D01*
X17295248Y63324638D01*
X17528897Y62974957D01*
X17826277Y62677577D01*
X18175958Y62443928D01*
X18564504Y62282987D01*
X18976981Y62200940D01*
X19397539Y62200940D01*
X19810016Y62282987D01*
X20198562Y62443928D01*
X20548243Y62677577D01*
X20845623Y62974957D01*
X21079272Y63324638D01*
X21240213Y63713184D01*
X21322260Y64125661D01*
X21322260Y64546219D01*
X21317343Y64570940D01*
X22374555Y64570940D01*
X22478546Y64444226D01*
X22727508Y64239909D01*
X23011545Y64088088D01*
X23105260Y64059660D01*
X23105260Y63856768D01*
X23100254Y63805940D01*
X23105260Y63755112D01*
X23105260Y63755103D01*
X23120236Y63603046D01*
X23179419Y63407948D01*
X23275526Y63228143D01*
X23404864Y63070544D01*
X23444357Y63038133D01*
X24350923Y62131566D01*
X24327745Y62129283D01*
X24019546Y62035792D01*
X23735509Y61883971D01*
X23486547Y61679654D01*
X23378261Y61547706D01*
X23269974Y61679654D01*
X23021012Y61883971D01*
X22736975Y62035792D01*
X22428776Y62129283D01*
X22108260Y62160851D01*
X21787745Y62129283D01*
X21479546Y62035792D01*
X21195509Y61883971D01*
X20946547Y61679654D01*
X20742230Y61430692D01*
X20590408Y61146655D01*
X20496917Y60838456D01*
X20473260Y60598262D01*
X20473260Y59437619D01*
X20481416Y59354807D01*
X15999450Y54872840D01*
X13867111Y54872840D01*
X13945065Y54936815D01*
X14024417Y55033506D01*
X14083382Y55143820D01*
X14119692Y55263518D01*
X14131952Y55388000D01*
X14131952Y57388000D01*
X14119692Y57512482D01*
X14083382Y57632180D01*
X14024417Y57742494D01*
X13945065Y57839185D01*
X13848374Y57918537D01*
X13738060Y57977502D01*
X13618362Y58013812D01*
X13493880Y58026072D01*
X12625587Y58026072D01*
X12861011Y58151909D01*
X13109974Y58356226D01*
X13218260Y58488174D01*
X13326546Y58356226D01*
X13575508Y58151909D01*
X13859545Y58000088D01*
X14167744Y57906597D01*
X14488260Y57875029D01*
X14808775Y57906597D01*
X15116974Y58000088D01*
X15401011Y58151909D01*
X15649974Y58356226D01*
X15758260Y58488174D01*
X15866546Y58356226D01*
X16115508Y58151909D01*
X16399545Y58000088D01*
X16707744Y57906597D01*
X17028260Y57875029D01*
X17348775Y57906597D01*
X17656974Y58000088D01*
X17941011Y58151909D01*
X18189974Y58356226D01*
X18394291Y58605188D01*
X18546112Y58889225D01*
X18639603Y59197424D01*
X18663260Y59437618D01*
X18663260Y60598262D01*
X18639603Y60838456D01*
X18546112Y61146655D01*
X18394291Y61430692D01*
X18189974Y61679654D01*
X17941012Y61883971D01*
X17656975Y62035792D01*
X17348776Y62129283D01*
X17066640Y62157071D01*
X13834060Y65389650D01*
X13834060Y71990195D01*
X13923542Y71999008D01*
X14043240Y72035318D01*
X14153554Y72094283D01*
X14250245Y72173635D01*
X14329597Y72270326D01*
X14388562Y72380640D01*
X14424872Y72500338D01*
X14437132Y72624820D01*
X14437132Y75624820D01*
X14434353Y75653040D01*
X20675928Y75653040D01*
X20675928Y72653040D01*
X20688188Y72528558D01*
X20724498Y72408860D01*
X20783463Y72298546D01*
X20862815Y72201855D01*
X20959506Y72122503D01*
X21069820Y72063538D01*
X21189518Y72027228D01*
X21314000Y72014968D01*
X21406204Y72014968D01*
X21449266Y71934403D01*
X21520460Y71847654D01*
X21578605Y71776804D01*
X21618092Y71744398D01*
X22105052Y71257438D01*
X22028917Y71006456D01*
X21997349Y70685940D01*
X22028917Y70365424D01*
X22122408Y70057225D01*
X22274229Y69773188D01*
X22478546Y69524226D01*
X22727508Y69319909D01*
X23011545Y69168088D01*
X23319744Y69074597D01*
X23559938Y69050940D01*
X24720582Y69050940D01*
X24960776Y69074597D01*
X25268975Y69168088D01*
X25553012Y69319909D01*
X25801974Y69524226D01*
X25971272Y69730516D01*
X26084229Y69519188D01*
X26288546Y69270226D01*
X26537508Y69065909D01*
X26821545Y68914088D01*
X27129744Y68820597D01*
X27369938Y68796940D01*
X28530582Y68796940D01*
X28770776Y68820597D01*
X29078975Y68914088D01*
X29363012Y69065909D01*
X29611974Y69270226D01*
X29816291Y69519188D01*
X29968112Y69803225D01*
X30061603Y70111424D01*
X30068154Y70177940D01*
X34697349Y70177940D01*
X34728917Y69857424D01*
X34822408Y69549225D01*
X34974229Y69265188D01*
X35178546Y69016226D01*
X35427508Y68811909D01*
X35711545Y68660088D01*
X36019744Y68566597D01*
X36259938Y68542940D01*
X37420582Y68542940D01*
X37660776Y68566597D01*
X37968975Y68660088D01*
X38253012Y68811909D01*
X38501974Y69016226D01*
X38706291Y69265188D01*
X38858112Y69549225D01*
X38951603Y69857424D01*
X38983171Y70177940D01*
X38951603Y70498456D01*
X38894731Y70685940D01*
X49556349Y70685940D01*
X49587917Y70365424D01*
X49681408Y70057225D01*
X49833229Y69773188D01*
X50037546Y69524226D01*
X50286508Y69319909D01*
X50570545Y69168088D01*
X50878744Y69074597D01*
X51118938Y69050940D01*
X52279582Y69050940D01*
X52519776Y69074597D01*
X52827975Y69168088D01*
X53112012Y69319909D01*
X53360974Y69524226D01*
X53565291Y69773188D01*
X53717112Y70057225D01*
X53810603Y70365424D01*
X53842171Y70685940D01*
X53810603Y71006456D01*
X53717112Y71314655D01*
X53565291Y71598692D01*
X53360974Y71847654D01*
X53112012Y72051971D01*
X52940218Y72143797D01*
X53033434Y72193623D01*
X53130125Y72272975D01*
X53209477Y72369666D01*
X53268442Y72479980D01*
X53304752Y72599678D01*
X53317012Y72724160D01*
X53317012Y74835656D01*
X61355000Y74835656D01*
X61355000Y74464344D01*
X61427439Y74100166D01*
X61569534Y73757118D01*
X61775825Y73448382D01*
X62038382Y73185825D01*
X62347118Y72979534D01*
X62690166Y72837439D01*
X63054344Y72765000D01*
X63425656Y72765000D01*
X63789834Y72837439D01*
X64132882Y72979534D01*
X64441618Y73185825D01*
X64704175Y73448382D01*
X64910466Y73757118D01*
X65052561Y74100166D01*
X65125000Y74464344D01*
X65125000Y74835656D01*
X65052561Y75199834D01*
X64910466Y75542882D01*
X64704175Y75851618D01*
X64441618Y76114175D01*
X64132882Y76320466D01*
X63789834Y76462561D01*
X63425656Y76535000D01*
X63054344Y76535000D01*
X62690166Y76462561D01*
X62347118Y76320466D01*
X62038382Y76114175D01*
X61775825Y75851618D01*
X61569534Y75542882D01*
X61427439Y75199834D01*
X61355000Y74835656D01*
X53317012Y74835656D01*
X53317012Y75724160D01*
X53304752Y75848642D01*
X53268442Y75968340D01*
X53209477Y76078654D01*
X53130125Y76175345D01*
X53033434Y76254697D01*
X52923120Y76313662D01*
X52803422Y76349972D01*
X52678940Y76362232D01*
X50678940Y76362232D01*
X50554458Y76349972D01*
X50434760Y76313662D01*
X50324446Y76254697D01*
X50227755Y76175345D01*
X50148403Y76078654D01*
X50089438Y75968340D01*
X50053128Y75848642D01*
X50040868Y75724160D01*
X50040868Y72724160D01*
X50053128Y72599678D01*
X50089438Y72479980D01*
X50148403Y72369666D01*
X50227755Y72272975D01*
X50324446Y72193623D01*
X50434760Y72134658D01*
X50438871Y72133411D01*
X50286508Y72051971D01*
X50037546Y71847654D01*
X49833229Y71598692D01*
X49681408Y71314655D01*
X49587917Y71006456D01*
X49556349Y70685940D01*
X38894731Y70685940D01*
X38858112Y70806655D01*
X38706291Y71090692D01*
X38501974Y71339654D01*
X38253012Y71543971D01*
X37968975Y71695792D01*
X37875260Y71724220D01*
X37875260Y72242732D01*
X38116274Y72440526D01*
X38320591Y72689488D01*
X38472412Y72973525D01*
X38565903Y73281724D01*
X38589560Y73521918D01*
X38589560Y74682562D01*
X38565903Y74922756D01*
X38472412Y75230955D01*
X38320591Y75514992D01*
X38116274Y75763954D01*
X37867311Y75968271D01*
X37583274Y76120092D01*
X37275075Y76213583D01*
X36954560Y76245151D01*
X36634044Y76213583D01*
X36325845Y76120092D01*
X36041808Y75968271D01*
X35792846Y75763954D01*
X35588529Y75514991D01*
X35436708Y75230954D01*
X35343217Y74922755D01*
X35319560Y74682561D01*
X35319560Y73521918D01*
X35343217Y73281724D01*
X35436708Y72973525D01*
X35588530Y72689488D01*
X35792847Y72440526D01*
X35805261Y72430338D01*
X35805260Y71724220D01*
X35711545Y71695792D01*
X35427508Y71543971D01*
X35178546Y71339654D01*
X34974229Y71090692D01*
X34822408Y70806655D01*
X34728917Y70498456D01*
X34697349Y70177940D01*
X30068154Y70177940D01*
X30093171Y70431940D01*
X30061603Y70752456D01*
X29981784Y71015585D01*
X30006254Y71045402D01*
X30102360Y71225206D01*
X30102361Y71225207D01*
X30161544Y71420305D01*
X30176520Y71572362D01*
X30176520Y71572371D01*
X30181526Y71623199D01*
X30176520Y71674027D01*
X30176520Y72389875D01*
X30303234Y72493866D01*
X30507551Y72742828D01*
X30659372Y73026865D01*
X30752863Y73335064D01*
X30776520Y73575258D01*
X30776520Y74735902D01*
X30752863Y74976096D01*
X30659372Y75284295D01*
X30507551Y75568332D01*
X30303234Y75817294D01*
X30054271Y76021611D01*
X29770234Y76173432D01*
X29462035Y76266923D01*
X29141520Y76298491D01*
X28821004Y76266923D01*
X28512805Y76173432D01*
X28228768Y76021611D01*
X27979806Y75817294D01*
X27775489Y75568331D01*
X27623668Y75284294D01*
X27530177Y74976095D01*
X27506520Y74735901D01*
X27506520Y73575258D01*
X27530177Y73335064D01*
X27623668Y73026865D01*
X27775490Y72742828D01*
X27979807Y72493866D01*
X28106521Y72389875D01*
X28106521Y72066940D01*
X27369938Y72066940D01*
X27129744Y72043283D01*
X26821545Y71949792D01*
X26537508Y71797971D01*
X26288546Y71593654D01*
X26119248Y71387364D01*
X26006291Y71598692D01*
X25801974Y71847654D01*
X25553012Y72051971D01*
X25268975Y72203792D01*
X24960776Y72297283D01*
X24720582Y72320940D01*
X23968971Y72320940D01*
X23895681Y72394229D01*
X23903502Y72408860D01*
X23939812Y72528558D01*
X23952072Y72653040D01*
X23952072Y75653040D01*
X23939812Y75777522D01*
X23903502Y75897220D01*
X23844537Y76007534D01*
X23765185Y76104225D01*
X23668494Y76183577D01*
X23558180Y76242542D01*
X23438482Y76278852D01*
X23314000Y76291112D01*
X21314000Y76291112D01*
X21189518Y76278852D01*
X21069820Y76242542D01*
X20959506Y76183577D01*
X20862815Y76104225D01*
X20783463Y76007534D01*
X20724498Y75897220D01*
X20688188Y75777522D01*
X20675928Y75653040D01*
X14434353Y75653040D01*
X14424872Y75749302D01*
X14388562Y75869000D01*
X14329597Y75979314D01*
X14250245Y76076005D01*
X14153554Y76155357D01*
X14043240Y76214322D01*
X13923542Y76250632D01*
X13799060Y76262892D01*
X11799060Y76262892D01*
X11674578Y76250632D01*
X11554880Y76214322D01*
X11444566Y76155357D01*
X11347875Y76076005D01*
X11268523Y75979314D01*
X11209558Y75869000D01*
X11173248Y75749302D01*
X11160988Y75624820D01*
X11160988Y72624820D01*
X11173248Y72500338D01*
X11209558Y72380640D01*
X11268523Y72270326D01*
X11347875Y72173635D01*
X11444566Y72094283D01*
X11554880Y72035318D01*
X11674578Y71999008D01*
X11764061Y71990195D01*
X11764060Y65011768D01*
X11759054Y64960940D01*
X11764060Y64910112D01*
X11764060Y64910103D01*
X11779036Y64758046D01*
X11838219Y64562948D01*
X11934326Y64383143D01*
X12063664Y64225544D01*
X12103157Y64193133D01*
X14167178Y62129111D01*
X13859546Y62035792D01*
X13575509Y61883971D01*
X13326547Y61679654D01*
X13218261Y61547706D01*
X13109974Y61679654D01*
X12861012Y61883971D01*
X12576975Y62035792D01*
X12268776Y62129283D01*
X11948260Y62160851D01*
X11627745Y62129283D01*
X11319546Y62035792D01*
X11035509Y61883971D01*
X10786547Y61679654D01*
X10678261Y61547706D01*
X10569974Y61679654D01*
X10443260Y61783645D01*
X10443260Y65017553D01*
X10448266Y65068381D01*
X10443260Y65119209D01*
X10443260Y65119218D01*
X10428284Y65271275D01*
X10369101Y65466373D01*
X10294501Y65605940D01*
X10272994Y65646178D01*
X10176063Y65764288D01*
X10143656Y65803776D01*
X10104168Y65836183D01*
X7492487Y68447863D01*
X7460076Y68487356D01*
X7302477Y68616694D01*
X7122673Y68712801D01*
X6927575Y68771984D01*
X6775518Y68786960D01*
X6775508Y68786960D01*
X6724680Y68791966D01*
X6673852Y68786960D01*
X6559305Y68786960D01*
X6550492Y68876442D01*
X6514182Y68996140D01*
X6455217Y69106454D01*
X6375865Y69203145D01*
X6279174Y69282497D01*
X6168860Y69341462D01*
X6049162Y69377772D01*
X5924680Y69390032D01*
X2924680Y69390032D01*
X2800198Y69377772D01*
X2680500Y69341462D01*
X2570186Y69282497D01*
X2473495Y69203145D01*
X2394143Y69106454D01*
X2335178Y68996140D01*
X2298868Y68876442D01*
X2286608Y68751960D01*
X2286608Y66751960D01*
X2298868Y66627478D01*
X2335178Y66507780D01*
X2394143Y66397466D01*
X2473495Y66300775D01*
X2570186Y66221423D01*
X2680500Y66162458D01*
X2800198Y66126148D01*
X2924680Y66113888D01*
X5924680Y66113888D01*
X6049162Y66126148D01*
X6168860Y66162458D01*
X6279174Y66221423D01*
X6375865Y66300775D01*
X6455217Y66397466D01*
X6511036Y66501894D01*
X8373261Y64639668D01*
X8373260Y61783645D01*
X8246547Y61679654D01*
X8138261Y61547706D01*
X8029974Y61679654D01*
X7781012Y61883971D01*
X7496975Y62035792D01*
X7188776Y62129283D01*
X6868260Y62160851D01*
X6547745Y62129283D01*
X6239546Y62035792D01*
X5955509Y61883971D01*
X5706547Y61679654D01*
X5502230Y61430692D01*
X5350408Y61146655D01*
X5256917Y60838456D01*
X5233260Y60598262D01*
X5233260Y59437619D01*
X5256917Y59197425D01*
X5350408Y58889226D01*
X5502229Y58605189D01*
X5706546Y58356226D01*
X5833260Y58252235D01*
X5833260Y57667103D01*
X5833261Y57667093D01*
X5833260Y46274564D01*
X5828254Y46223736D01*
X5833260Y46172908D01*
X5833260Y46172899D01*
X5848236Y46020842D01*
X5907419Y45825744D01*
X6003526Y45645939D01*
X6016743Y45629834D01*
X5845537Y45558918D01*
X5577748Y45379987D01*
X5350013Y45152252D01*
X5171082Y44884463D01*
X5047832Y44586912D01*
X4985000Y44271033D01*
X4985000Y43948967D01*
X4986702Y43940412D01*
X3632357Y42586067D01*
X3592864Y42553656D01*
X3463526Y42396057D01*
X3367419Y42216252D01*
X3308236Y42021154D01*
X3293260Y41869097D01*
X3293260Y41869088D01*
X3288254Y41818260D01*
X3293260Y41767432D01*
X3293261Y36383645D01*
X3166547Y36279654D01*
X2962230Y36030692D01*
X2810408Y35746655D01*
X2716917Y35438456D01*
X2693260Y35198262D01*
X2693260Y34446650D01*
X2074092Y33827482D01*
X2034605Y33795076D01*
X2002198Y33755588D01*
X2002197Y33755587D01*
X1905266Y33637477D01*
X1809160Y33457673D01*
X1749977Y33262575D01*
X1741782Y33179364D01*
X1727748Y33169987D01*
X1500013Y32942252D01*
X1321082Y32674463D01*
X1197832Y32376912D01*
X1135000Y32061033D01*
X1135000Y31738967D01*
X1197832Y31423088D01*
X1321082Y31125537D01*
X1500013Y30857748D01*
X1727748Y30630013D01*
X1995537Y30451082D01*
X2293088Y30327832D01*
X2608967Y30265000D01*
X2927327Y30265000D01*
X708260Y28045932D01*
X708260Y74895656D01*
X1005000Y74895656D01*
X1005000Y74524344D01*
X1077439Y74160166D01*
X1219534Y73817118D01*
X1425825Y73508382D01*
X1688382Y73245825D01*
X1997118Y73039534D01*
X2340166Y72897439D01*
X2704344Y72825000D01*
X3075656Y72825000D01*
X3439834Y72897439D01*
X3782882Y73039534D01*
X4091618Y73245825D01*
X4354175Y73508382D01*
X4560466Y73817118D01*
X4702561Y74160166D01*
X4775000Y74524344D01*
X4775000Y74895656D01*
X4702561Y75259834D01*
X4560466Y75602882D01*
X4354175Y75911618D01*
X4091618Y76174175D01*
X3782882Y76380466D01*
X3439834Y76522561D01*
X3075656Y76595000D01*
X2704344Y76595000D01*
X2340166Y76522561D01*
X1997118Y76380466D01*
X1688382Y76174175D01*
X1425825Y75911618D01*
X1219534Y75602882D01*
X1077439Y75259834D01*
X1005000Y74895656D01*
X708260Y74895656D01*
X708260Y76810000D01*
X65380001Y76810000D01*
X65380001Y44448787D01*
G36*
X50160277Y36756012D02*
G01*
X49048260Y36756012D01*
X48923778Y36743752D01*
X48804080Y36707442D01*
X48693766Y36648477D01*
X48597075Y36569125D01*
X48517723Y36472434D01*
X48492521Y36425285D01*
X48421012Y36483971D01*
X48136975Y36635792D01*
X47828776Y36729283D01*
X47508260Y36760851D01*
X47187745Y36729283D01*
X46879546Y36635792D01*
X46595509Y36483971D01*
X46346547Y36279654D01*
X46238261Y36147706D01*
X46129974Y36279654D01*
X45881012Y36483971D01*
X45596975Y36635792D01*
X45288776Y36729283D01*
X44968260Y36760851D01*
X44647745Y36729283D01*
X44339546Y36635792D01*
X44055509Y36483971D01*
X43806547Y36279654D01*
X43698261Y36147706D01*
X43589974Y36279654D01*
X43341012Y36483971D01*
X43056975Y36635792D01*
X42748776Y36729283D01*
X42428260Y36760851D01*
X42107745Y36729283D01*
X41799546Y36635792D01*
X41515509Y36483971D01*
X41266547Y36279654D01*
X41158261Y36147706D01*
X41049974Y36279654D01*
X40801012Y36483971D01*
X40516975Y36635792D01*
X40208776Y36729283D01*
X39888260Y36760851D01*
X39567745Y36729283D01*
X39259546Y36635792D01*
X38975509Y36483971D01*
X38726547Y36279654D01*
X38522230Y36030692D01*
X38370408Y35746655D01*
X38276917Y35438456D01*
X38253260Y35198262D01*
X38253260Y34037619D01*
X38276917Y33797425D01*
X38370408Y33489226D01*
X38522229Y33205189D01*
X38564712Y33153422D01*
X38561939Y33152581D01*
X38382135Y33056474D01*
X38297099Y32986686D01*
X38224537Y32927136D01*
X38192130Y32887648D01*
X36175723Y30871240D01*
X36318918Y31085547D01*
X36442168Y31383098D01*
X36505000Y31698977D01*
X36505000Y32021043D01*
X36442168Y32336922D01*
X36318918Y32634473D01*
X36139987Y32902262D01*
X36022283Y33019966D01*
X36174291Y33205188D01*
X36326112Y33489225D01*
X36419603Y33797424D01*
X36443260Y34037618D01*
X36443260Y35198262D01*
X36419603Y35438456D01*
X36326112Y35746655D01*
X36174291Y36030692D01*
X35969974Y36279654D01*
X35721012Y36483971D01*
X35436975Y36635792D01*
X35128776Y36729283D01*
X34808260Y36760851D01*
X34487745Y36729283D01*
X34179546Y36635792D01*
X33895509Y36483971D01*
X33646547Y36279654D01*
X33538261Y36147706D01*
X33429974Y36279654D01*
X33181012Y36483971D01*
X32896975Y36635792D01*
X32588776Y36729283D01*
X32268260Y36760851D01*
X31947745Y36729283D01*
X31639546Y36635792D01*
X31355509Y36483971D01*
X31106547Y36279654D01*
X30998261Y36147706D01*
X30889974Y36279654D01*
X30641012Y36483971D01*
X30356975Y36635792D01*
X30048776Y36729283D01*
X29728260Y36760851D01*
X29407745Y36729283D01*
X29099546Y36635792D01*
X28815509Y36483971D01*
X28566547Y36279654D01*
X28458261Y36147706D01*
X28349974Y36279654D01*
X28223260Y36383645D01*
X28223260Y36489230D01*
X29769033Y38035002D01*
X48881288Y38035002D01*
X50160277Y36756012D01*
G37*
X50160277Y36756012D02*
X49048260Y36756012D01*
X48923778Y36743752D01*
X48804080Y36707442D01*
X48693766Y36648477D01*
X48597075Y36569125D01*
X48517723Y36472434D01*
X48492521Y36425285D01*
X48421012Y36483971D01*
X48136975Y36635792D01*
X47828776Y36729283D01*
X47508260Y36760851D01*
X47187745Y36729283D01*
X46879546Y36635792D01*
X46595509Y36483971D01*
X46346547Y36279654D01*
X46238261Y36147706D01*
X46129974Y36279654D01*
X45881012Y36483971D01*
X45596975Y36635792D01*
X45288776Y36729283D01*
X44968260Y36760851D01*
X44647745Y36729283D01*
X44339546Y36635792D01*
X44055509Y36483971D01*
X43806547Y36279654D01*
X43698261Y36147706D01*
X43589974Y36279654D01*
X43341012Y36483971D01*
X43056975Y36635792D01*
X42748776Y36729283D01*
X42428260Y36760851D01*
X42107745Y36729283D01*
X41799546Y36635792D01*
X41515509Y36483971D01*
X41266547Y36279654D01*
X41158261Y36147706D01*
X41049974Y36279654D01*
X40801012Y36483971D01*
X40516975Y36635792D01*
X40208776Y36729283D01*
X39888260Y36760851D01*
X39567745Y36729283D01*
X39259546Y36635792D01*
X38975509Y36483971D01*
X38726547Y36279654D01*
X38522230Y36030692D01*
X38370408Y35746655D01*
X38276917Y35438456D01*
X38253260Y35198262D01*
X38253260Y34037619D01*
X38276917Y33797425D01*
X38370408Y33489226D01*
X38522229Y33205189D01*
X38564712Y33153422D01*
X38561939Y33152581D01*
X38382135Y33056474D01*
X38297099Y32986686D01*
X38224537Y32927136D01*
X38192130Y32887648D01*
X36175723Y30871240D01*
X36318918Y31085547D01*
X36442168Y31383098D01*
X36505000Y31698977D01*
X36505000Y32021043D01*
X36442168Y32336922D01*
X36318918Y32634473D01*
X36139987Y32902262D01*
X36022283Y33019966D01*
X36174291Y33205188D01*
X36326112Y33489225D01*
X36419603Y33797424D01*
X36443260Y34037618D01*
X36443260Y35198262D01*
X36419603Y35438456D01*
X36326112Y35746655D01*
X36174291Y36030692D01*
X35969974Y36279654D01*
X35721012Y36483971D01*
X35436975Y36635792D01*
X35128776Y36729283D01*
X34808260Y36760851D01*
X34487745Y36729283D01*
X34179546Y36635792D01*
X33895509Y36483971D01*
X33646547Y36279654D01*
X33538261Y36147706D01*
X33429974Y36279654D01*
X33181012Y36483971D01*
X32896975Y36635792D01*
X32588776Y36729283D01*
X32268260Y36760851D01*
X31947745Y36729283D01*
X31639546Y36635792D01*
X31355509Y36483971D01*
X31106547Y36279654D01*
X30998261Y36147706D01*
X30889974Y36279654D01*
X30641012Y36483971D01*
X30356975Y36635792D01*
X30048776Y36729283D01*
X29728260Y36760851D01*
X29407745Y36729283D01*
X29099546Y36635792D01*
X28815509Y36483971D01*
X28566547Y36279654D01*
X28458261Y36147706D01*
X28349974Y36279654D01*
X28223260Y36383645D01*
X28223260Y36489230D01*
X29769033Y38035002D01*
X48881288Y38035002D01*
X50160277Y36756012D01*
G36*
X41266546Y58356226D02*
G01*
X41393261Y58252234D01*
X41393260Y49102568D01*
X41388254Y49051740D01*
X41393260Y49000912D01*
X41393260Y49000903D01*
X41408236Y48848846D01*
X41467419Y48653748D01*
X41563526Y48473943D01*
X41692864Y48316344D01*
X41732357Y48283933D01*
X51955001Y38061288D01*
X51955001Y37888710D01*
X50077805Y39765905D01*
X50045394Y39805398D01*
X49887795Y39934736D01*
X49707991Y40030843D01*
X49512893Y40090026D01*
X49360836Y40105002D01*
X49360826Y40105002D01*
X49309998Y40110008D01*
X49259170Y40105002D01*
X29391149Y40105002D01*
X29340321Y40110008D01*
X29289493Y40105002D01*
X29289484Y40105002D01*
X29137427Y40090026D01*
X28942329Y40030843D01*
X28858969Y39986286D01*
X28762524Y39934736D01*
X28644414Y39837805D01*
X28604926Y39805398D01*
X28572519Y39765910D01*
X26492357Y37685747D01*
X26452864Y37653336D01*
X26323526Y37495737D01*
X26227419Y37315932D01*
X26168236Y37120834D01*
X26153260Y36968777D01*
X26153260Y36968768D01*
X26148254Y36917940D01*
X26153260Y36867112D01*
X26153260Y36383644D01*
X26026547Y36279654D01*
X25918261Y36147706D01*
X25809974Y36279654D01*
X25561012Y36483971D01*
X25276975Y36635792D01*
X24968776Y36729283D01*
X24648260Y36760851D01*
X24327745Y36729283D01*
X24019546Y36635792D01*
X23735509Y36483971D01*
X23486547Y36279654D01*
X23378261Y36147706D01*
X23269974Y36279654D01*
X23021012Y36483971D01*
X22736975Y36635792D01*
X22428776Y36729283D01*
X22108260Y36760851D01*
X21787745Y36729283D01*
X21479546Y36635792D01*
X21195509Y36483971D01*
X20946547Y36279654D01*
X20838261Y36147706D01*
X20729974Y36279654D01*
X20603260Y36383645D01*
X20603260Y36489230D01*
X37369031Y53255000D01*
X37741668Y53255000D01*
X37820013Y53137748D01*
X38047748Y52910013D01*
X38315537Y52731082D01*
X38613088Y52607832D01*
X38928967Y52545000D01*
X39251033Y52545000D01*
X39566912Y52607832D01*
X39864463Y52731082D01*
X40132252Y52910013D01*
X40359987Y53137748D01*
X40538918Y53405537D01*
X40662168Y53703088D01*
X40725000Y54018967D01*
X40725000Y54341033D01*
X40662168Y54656912D01*
X40538918Y54954463D01*
X40359987Y55222252D01*
X40132252Y55449987D01*
X39864463Y55628918D01*
X39566912Y55752168D01*
X39251033Y55815000D01*
X38928967Y55815000D01*
X38613088Y55752168D01*
X38315537Y55628918D01*
X38047748Y55449987D01*
X37922761Y55325000D01*
X36991155Y55325000D01*
X36940320Y55330007D01*
X36889485Y55325000D01*
X36889482Y55325000D01*
X36737425Y55310024D01*
X36542327Y55250841D01*
X36488841Y55222252D01*
X36362522Y55154734D01*
X36293145Y55097797D01*
X36204924Y55025396D01*
X36172517Y54985908D01*
X18872353Y37685743D01*
X18832865Y37653336D01*
X18800458Y37613848D01*
X18800457Y37613847D01*
X18703526Y37495737D01*
X18607420Y37315933D01*
X18548237Y37120835D01*
X18528254Y36917940D01*
X18533261Y36867102D01*
X18533261Y36383645D01*
X18406547Y36279654D01*
X18298261Y36147706D01*
X18189974Y36279654D01*
X17941012Y36483971D01*
X17656975Y36635792D01*
X17348776Y36729283D01*
X17028260Y36760851D01*
X16707745Y36729283D01*
X16399546Y36635792D01*
X16115509Y36483971D01*
X15866547Y36279654D01*
X15758261Y36147706D01*
X15649974Y36279654D01*
X15401012Y36483971D01*
X15116975Y36635792D01*
X14808776Y36729283D01*
X14488260Y36760851D01*
X14167745Y36729283D01*
X13859546Y36635792D01*
X13575509Y36483971D01*
X13326547Y36279654D01*
X13218261Y36147706D01*
X13109974Y36279654D01*
X12861012Y36483971D01*
X12576975Y36635792D01*
X12268776Y36729283D01*
X11948260Y36760851D01*
X11627745Y36729283D01*
X11319546Y36635792D01*
X11035509Y36483971D01*
X10786547Y36279654D01*
X10678261Y36147706D01*
X10569974Y36279654D01*
X10321012Y36483971D01*
X10036975Y36635792D01*
X9728776Y36729283D01*
X9408260Y36760851D01*
X9087745Y36729283D01*
X8779546Y36635792D01*
X8495509Y36483971D01*
X8246547Y36279654D01*
X8138261Y36147706D01*
X8029974Y36279654D01*
X7781012Y36483971D01*
X7496975Y36635792D01*
X7188776Y36729283D01*
X6868260Y36760851D01*
X6547745Y36729283D01*
X6239546Y36635792D01*
X5955509Y36483971D01*
X5706547Y36279654D01*
X5598261Y36147706D01*
X5489974Y36279654D01*
X5363260Y36383645D01*
X5363260Y41389550D01*
X6450412Y42476702D01*
X6458967Y42475000D01*
X6781033Y42475000D01*
X7096912Y42537832D01*
X7394463Y42661082D01*
X7662252Y42840013D01*
X7889987Y43067748D01*
X8068918Y43335537D01*
X8134476Y43493809D01*
X8646353Y42981932D01*
X8678760Y42942444D01*
X8718248Y42910037D01*
X8836358Y42813106D01*
X8899978Y42779101D01*
X9016163Y42716999D01*
X9211261Y42657816D01*
X9363318Y42642840D01*
X9363321Y42642840D01*
X9414156Y42637833D01*
X9464991Y42642840D01*
X10822113Y42642840D01*
X10581128Y42514031D01*
X10332166Y42309714D01*
X10127849Y42060752D01*
X9976028Y41776715D01*
X9882537Y41468516D01*
X9850969Y41148000D01*
X9882537Y40827484D01*
X9976028Y40519285D01*
X10127849Y40235248D01*
X10332166Y39986286D01*
X10464113Y39878000D01*
X10332166Y39769714D01*
X10127849Y39520752D01*
X9976028Y39236715D01*
X9882537Y38928516D01*
X9850969Y38608000D01*
X9882537Y38287484D01*
X9976028Y37979285D01*
X10127849Y37695248D01*
X10332166Y37446286D01*
X10581128Y37241969D01*
X10865165Y37090148D01*
X11173364Y36996657D01*
X11413558Y36973000D01*
X12574202Y36973000D01*
X12814396Y36996657D01*
X13122595Y37090148D01*
X13406632Y37241969D01*
X13655594Y37446286D01*
X13859911Y37695248D01*
X14011732Y37979285D01*
X14105223Y38287484D01*
X14136791Y38608000D01*
X14105223Y38928516D01*
X14011732Y39236715D01*
X13859911Y39520752D01*
X13655594Y39769714D01*
X13523647Y39878000D01*
X13655594Y39986286D01*
X13751247Y40102840D01*
X14250672Y40102840D01*
X14301500Y40097834D01*
X14352328Y40102840D01*
X14352338Y40102840D01*
X14504395Y40117816D01*
X14699493Y40176999D01*
X14879297Y40273106D01*
X15036896Y40402444D01*
X15069307Y40441937D01*
X27884168Y53256797D01*
X27923656Y53289204D01*
X28024594Y53412197D01*
X28052994Y53446802D01*
X28131722Y53594093D01*
X28149101Y53626607D01*
X28208284Y53821705D01*
X28223260Y53973762D01*
X28223260Y53973765D01*
X28228267Y54024600D01*
X28223260Y54075435D01*
X28223260Y58252235D01*
X28349974Y58356226D01*
X28458260Y58488174D01*
X28566546Y58356226D01*
X28815508Y58151909D01*
X29099545Y58000088D01*
X29407744Y57906597D01*
X29728260Y57875029D01*
X30048775Y57906597D01*
X30356974Y58000088D01*
X30641011Y58151909D01*
X30889974Y58356226D01*
X30998260Y58488174D01*
X31106546Y58356226D01*
X31355508Y58151909D01*
X31639545Y58000088D01*
X31947744Y57906597D01*
X32268260Y57875029D01*
X32588775Y57906597D01*
X32896974Y58000088D01*
X33181011Y58151909D01*
X33429974Y58356226D01*
X33538260Y58488174D01*
X33646546Y58356226D01*
X33895508Y58151909D01*
X34179545Y58000088D01*
X34487744Y57906597D01*
X34808260Y57875029D01*
X35128775Y57906597D01*
X35436974Y58000088D01*
X35721011Y58151909D01*
X35969974Y58356226D01*
X36078260Y58488174D01*
X36186546Y58356226D01*
X36435508Y58151909D01*
X36719545Y58000088D01*
X37027744Y57906597D01*
X37348260Y57875029D01*
X37668775Y57906597D01*
X37976974Y58000088D01*
X38261011Y58151909D01*
X38509974Y58356226D01*
X38618260Y58488174D01*
X38726546Y58356226D01*
X38975508Y58151909D01*
X39259545Y58000088D01*
X39567744Y57906597D01*
X39888260Y57875029D01*
X40208775Y57906597D01*
X40516974Y58000088D01*
X40801011Y58151909D01*
X41049974Y58356226D01*
X41158260Y58488174D01*
X41266546Y58356226D01*
G37*
X41266546Y58356226D02*
X41393261Y58252234D01*
X41393260Y49102568D01*
X41388254Y49051740D01*
X41393260Y49000912D01*
X41393260Y49000903D01*
X41408236Y48848846D01*
X41467419Y48653748D01*
X41563526Y48473943D01*
X41692864Y48316344D01*
X41732357Y48283933D01*
X51955001Y38061288D01*
X51955001Y37888710D01*
X50077805Y39765905D01*
X50045394Y39805398D01*
X49887795Y39934736D01*
X49707991Y40030843D01*
X49512893Y40090026D01*
X49360836Y40105002D01*
X49360826Y40105002D01*
X49309998Y40110008D01*
X49259170Y40105002D01*
X29391149Y40105002D01*
X29340321Y40110008D01*
X29289493Y40105002D01*
X29289484Y40105002D01*
X29137427Y40090026D01*
X28942329Y40030843D01*
X28858969Y39986286D01*
X28762524Y39934736D01*
X28644414Y39837805D01*
X28604926Y39805398D01*
X28572519Y39765910D01*
X26492357Y37685747D01*
X26452864Y37653336D01*
X26323526Y37495737D01*
X26227419Y37315932D01*
X26168236Y37120834D01*
X26153260Y36968777D01*
X26153260Y36968768D01*
X26148254Y36917940D01*
X26153260Y36867112D01*
X26153260Y36383644D01*
X26026547Y36279654D01*
X25918261Y36147706D01*
X25809974Y36279654D01*
X25561012Y36483971D01*
X25276975Y36635792D01*
X24968776Y36729283D01*
X24648260Y36760851D01*
X24327745Y36729283D01*
X24019546Y36635792D01*
X23735509Y36483971D01*
X23486547Y36279654D01*
X23378261Y36147706D01*
X23269974Y36279654D01*
X23021012Y36483971D01*
X22736975Y36635792D01*
X22428776Y36729283D01*
X22108260Y36760851D01*
X21787745Y36729283D01*
X21479546Y36635792D01*
X21195509Y36483971D01*
X20946547Y36279654D01*
X20838261Y36147706D01*
X20729974Y36279654D01*
X20603260Y36383645D01*
X20603260Y36489230D01*
X37369031Y53255000D01*
X37741668Y53255000D01*
X37820013Y53137748D01*
X38047748Y52910013D01*
X38315537Y52731082D01*
X38613088Y52607832D01*
X38928967Y52545000D01*
X39251033Y52545000D01*
X39566912Y52607832D01*
X39864463Y52731082D01*
X40132252Y52910013D01*
X40359987Y53137748D01*
X40538918Y53405537D01*
X40662168Y53703088D01*
X40725000Y54018967D01*
X40725000Y54341033D01*
X40662168Y54656912D01*
X40538918Y54954463D01*
X40359987Y55222252D01*
X40132252Y55449987D01*
X39864463Y55628918D01*
X39566912Y55752168D01*
X39251033Y55815000D01*
X38928967Y55815000D01*
X38613088Y55752168D01*
X38315537Y55628918D01*
X38047748Y55449987D01*
X37922761Y55325000D01*
X36991155Y55325000D01*
X36940320Y55330007D01*
X36889485Y55325000D01*
X36889482Y55325000D01*
X36737425Y55310024D01*
X36542327Y55250841D01*
X36488841Y55222252D01*
X36362522Y55154734D01*
X36293145Y55097797D01*
X36204924Y55025396D01*
X36172517Y54985908D01*
X18872353Y37685743D01*
X18832865Y37653336D01*
X18800458Y37613848D01*
X18800457Y37613847D01*
X18703526Y37495737D01*
X18607420Y37315933D01*
X18548237Y37120835D01*
X18528254Y36917940D01*
X18533261Y36867102D01*
X18533261Y36383645D01*
X18406547Y36279654D01*
X18298261Y36147706D01*
X18189974Y36279654D01*
X17941012Y36483971D01*
X17656975Y36635792D01*
X17348776Y36729283D01*
X17028260Y36760851D01*
X16707745Y36729283D01*
X16399546Y36635792D01*
X16115509Y36483971D01*
X15866547Y36279654D01*
X15758261Y36147706D01*
X15649974Y36279654D01*
X15401012Y36483971D01*
X15116975Y36635792D01*
X14808776Y36729283D01*
X14488260Y36760851D01*
X14167745Y36729283D01*
X13859546Y36635792D01*
X13575509Y36483971D01*
X13326547Y36279654D01*
X13218261Y36147706D01*
X13109974Y36279654D01*
X12861012Y36483971D01*
X12576975Y36635792D01*
X12268776Y36729283D01*
X11948260Y36760851D01*
X11627745Y36729283D01*
X11319546Y36635792D01*
X11035509Y36483971D01*
X10786547Y36279654D01*
X10678261Y36147706D01*
X10569974Y36279654D01*
X10321012Y36483971D01*
X10036975Y36635792D01*
X9728776Y36729283D01*
X9408260Y36760851D01*
X9087745Y36729283D01*
X8779546Y36635792D01*
X8495509Y36483971D01*
X8246547Y36279654D01*
X8138261Y36147706D01*
X8029974Y36279654D01*
X7781012Y36483971D01*
X7496975Y36635792D01*
X7188776Y36729283D01*
X6868260Y36760851D01*
X6547745Y36729283D01*
X6239546Y36635792D01*
X5955509Y36483971D01*
X5706547Y36279654D01*
X5598261Y36147706D01*
X5489974Y36279654D01*
X5363260Y36383645D01*
X5363260Y41389550D01*
X6450412Y42476702D01*
X6458967Y42475000D01*
X6781033Y42475000D01*
X7096912Y42537832D01*
X7394463Y42661082D01*
X7662252Y42840013D01*
X7889987Y43067748D01*
X8068918Y43335537D01*
X8134476Y43493809D01*
X8646353Y42981932D01*
X8678760Y42942444D01*
X8718248Y42910037D01*
X8836358Y42813106D01*
X8899978Y42779101D01*
X9016163Y42716999D01*
X9211261Y42657816D01*
X9363318Y42642840D01*
X9363321Y42642840D01*
X9414156Y42637833D01*
X9464991Y42642840D01*
X10822113Y42642840D01*
X10581128Y42514031D01*
X10332166Y42309714D01*
X10127849Y42060752D01*
X9976028Y41776715D01*
X9882537Y41468516D01*
X9850969Y41148000D01*
X9882537Y40827484D01*
X9976028Y40519285D01*
X10127849Y40235248D01*
X10332166Y39986286D01*
X10464113Y39878000D01*
X10332166Y39769714D01*
X10127849Y39520752D01*
X9976028Y39236715D01*
X9882537Y38928516D01*
X9850969Y38608000D01*
X9882537Y38287484D01*
X9976028Y37979285D01*
X10127849Y37695248D01*
X10332166Y37446286D01*
X10581128Y37241969D01*
X10865165Y37090148D01*
X11173364Y36996657D01*
X11413558Y36973000D01*
X12574202Y36973000D01*
X12814396Y36996657D01*
X13122595Y37090148D01*
X13406632Y37241969D01*
X13655594Y37446286D01*
X13859911Y37695248D01*
X14011732Y37979285D01*
X14105223Y38287484D01*
X14136791Y38608000D01*
X14105223Y38928516D01*
X14011732Y39236715D01*
X13859911Y39520752D01*
X13655594Y39769714D01*
X13523647Y39878000D01*
X13655594Y39986286D01*
X13751247Y40102840D01*
X14250672Y40102840D01*
X14301500Y40097834D01*
X14352328Y40102840D01*
X14352338Y40102840D01*
X14504395Y40117816D01*
X14699493Y40176999D01*
X14879297Y40273106D01*
X15036896Y40402444D01*
X15069307Y40441937D01*
X27884168Y53256797D01*
X27923656Y53289204D01*
X28024594Y53412197D01*
X28052994Y53446802D01*
X28131722Y53594093D01*
X28149101Y53626607D01*
X28208284Y53821705D01*
X28223260Y53973762D01*
X28223260Y53973765D01*
X28228267Y54024600D01*
X28223260Y54075435D01*
X28223260Y58252235D01*
X28349974Y58356226D01*
X28458260Y58488174D01*
X28566546Y58356226D01*
X28815508Y58151909D01*
X29099545Y58000088D01*
X29407744Y57906597D01*
X29728260Y57875029D01*
X30048775Y57906597D01*
X30356974Y58000088D01*
X30641011Y58151909D01*
X30889974Y58356226D01*
X30998260Y58488174D01*
X31106546Y58356226D01*
X31355508Y58151909D01*
X31639545Y58000088D01*
X31947744Y57906597D01*
X32268260Y57875029D01*
X32588775Y57906597D01*
X32896974Y58000088D01*
X33181011Y58151909D01*
X33429974Y58356226D01*
X33538260Y58488174D01*
X33646546Y58356226D01*
X33895508Y58151909D01*
X34179545Y58000088D01*
X34487744Y57906597D01*
X34808260Y57875029D01*
X35128775Y57906597D01*
X35436974Y58000088D01*
X35721011Y58151909D01*
X35969974Y58356226D01*
X36078260Y58488174D01*
X36186546Y58356226D01*
X36435508Y58151909D01*
X36719545Y58000088D01*
X37027744Y57906597D01*
X37348260Y57875029D01*
X37668775Y57906597D01*
X37976974Y58000088D01*
X38261011Y58151909D01*
X38509974Y58356226D01*
X38618260Y58488174D01*
X38726546Y58356226D01*
X38975508Y58151909D01*
X39259545Y58000088D01*
X39567744Y57906597D01*
X39888260Y57875029D01*
X40208775Y57906597D01*
X40516974Y58000088D01*
X40801011Y58151909D01*
X41049974Y58356226D01*
X41158260Y58488174D01*
X41266546Y58356226D01*
G36*
X23486546Y58356226D02*
G01*
X23613261Y58252234D01*
X23613260Y55846531D01*
X17559570Y49792840D01*
X13767923Y49792840D01*
X13655594Y49929714D01*
X13523647Y50038000D01*
X13655594Y50146286D01*
X13859911Y50395248D01*
X14011732Y50679285D01*
X14105223Y50987484D01*
X14136791Y51308000D01*
X14105223Y51628516D01*
X14011732Y51936715D01*
X13859911Y52220752D01*
X13655594Y52469714D01*
X13523647Y52578000D01*
X13655594Y52686286D01*
X13751247Y52802840D01*
X16377332Y52802840D01*
X16428160Y52797834D01*
X16478988Y52802840D01*
X16478998Y52802840D01*
X16631055Y52817816D01*
X16826153Y52876999D01*
X17005957Y52973106D01*
X17163556Y53102444D01*
X17195967Y53141937D01*
X21945127Y57891096D01*
X22108260Y57875029D01*
X22428775Y57906597D01*
X22736974Y58000088D01*
X23021011Y58151909D01*
X23269974Y58356226D01*
X23378260Y58488174D01*
X23486546Y58356226D01*
G37*
X23486546Y58356226D02*
X23613261Y58252234D01*
X23613260Y55846531D01*
X17559570Y49792840D01*
X13767923Y49792840D01*
X13655594Y49929714D01*
X13523647Y50038000D01*
X13655594Y50146286D01*
X13859911Y50395248D01*
X14011732Y50679285D01*
X14105223Y50987484D01*
X14136791Y51308000D01*
X14105223Y51628516D01*
X14011732Y51936715D01*
X13859911Y52220752D01*
X13655594Y52469714D01*
X13523647Y52578000D01*
X13655594Y52686286D01*
X13751247Y52802840D01*
X16377332Y52802840D01*
X16428160Y52797834D01*
X16478988Y52802840D01*
X16478998Y52802840D01*
X16631055Y52817816D01*
X16826153Y52876999D01*
X17005957Y52973106D01*
X17163556Y53102444D01*
X17195967Y53141937D01*
X21945127Y57891096D01*
X22108260Y57875029D01*
X22428775Y57906597D01*
X22736974Y58000088D01*
X23021011Y58151909D01*
X23269974Y58356226D01*
X23378260Y58488174D01*
X23486546Y58356226D01*
M02*
