M48
; DRILL file {KiCad (5.1.5-0)} date domingo, 03 de julio de 2022, 13:43:35
; FORMAT={-:-/ absolute / metric / decimal}
; #@! TF.CreationDate,2022-07-03T13:43:35+01:00
; #@! TF.GenerationSoftware,Kicad,Pcbnew,(5.1.5-0)
FMAT,2
METRIC
T1C0.700
T2C0.800
T3C1.000
T4C2.500
%
G90
G05
T1
X1.45Y7.58
X2.273Y25.53
X2.32Y23.27
X2.77Y31.9
X6.62Y44.11
X8.176Y30.399
X9.18Y46.28
X10.257Y28.529
X12.38Y23.09
X16.28Y56.64
X17.87Y4.98
X17.95Y6.99
X20.49Y15.63
X21.59Y56.2
X21.87Y29.87
X22.309Y11.989
X23.98Y6.7
X24.112Y15.27
X24.41Y27.34
X25.81Y6.73
X27.368Y6.728
X29.338Y27.749
X30.91Y18.92
X31.04Y21.27
X31.37Y31.86
X34.409Y27.8
X34.87Y31.86
X35.25Y21.35
X37.37Y40.95
X37.375Y37.255
X38.86Y29.8
X39.09Y54.18
X39.42Y6.71
X39.929Y4.696
X40.35Y29.67
X42.7Y29.134
X42.9Y12.698
X45.61Y27.15
X45.677Y15.735
X46.89Y41.25
X47.06Y54.52
X52.257Y28.675
X54.2Y41.36
X54.638Y32.499
X55.331Y35.255
X56.7Y28.69
X57.925Y30.917
X60.899Y1.069
X61.08Y6.58
X61.58Y31.38
X64.17Y24.43
X64.815Y12.06
T2
X49.139Y74.224
X51.679Y74.224
X52.4Y25.56
X57.4Y25.56
X36.84Y70.178
X36.84Y65.098
X32.268Y70.09
X32.268Y64.59
X19.187Y69.836
X19.187Y64.336
X51.699Y70.686
X51.699Y65.606
X24.14Y70.686
X24.14Y65.606
X26.602Y74.156
X29.142Y74.156
X10.259Y74.125
X12.799Y74.125
X30.96Y25.59
X35.96Y25.59
X47.254Y70.09
X47.254Y64.59
X8.88Y25.93
X13.88Y25.93
X4.425Y67.752
X4.425Y65.212
X27.95Y70.432
X27.95Y65.352
X19.774Y74.153
X22.314Y74.153
X41.158Y70.09
X41.158Y64.59
X58.852Y48.552
X58.852Y46.012
X34.415Y74.102
X36.955Y74.102
T3
X50.917Y4.092
X53.457Y4.092
X55.997Y4.092
X58.537Y4.092
X61.172Y27.098
X61.172Y24.558
X61.172Y22.018
X61.172Y19.478
X61.172Y16.938
X61.172Y14.398
X61.172Y11.858
X61.172Y9.318
X4.937Y27.231
X4.937Y24.691
X4.937Y22.151
X4.937Y19.611
X4.937Y17.071
X4.937Y14.531
X4.937Y11.991
X4.937Y9.451
X27.185Y27.223
X27.185Y24.683
X27.185Y22.143
X27.185Y19.603
X27.185Y17.063
X27.185Y14.523
X27.185Y11.983
X27.185Y9.443
X11.994Y56.388
X11.994Y53.848
X11.994Y51.308
X11.994Y48.768
X11.994Y46.228
X11.994Y43.688
X11.994Y41.148
X11.994Y38.608
X48.472Y27.098
X48.472Y24.558
X48.472Y22.018
X48.472Y19.478
X48.472Y16.938
X48.472Y14.398
X48.472Y11.858
X48.472Y9.318
X39.885Y27.223
X39.885Y24.683
X39.885Y22.143
X39.885Y19.603
X39.885Y17.063
X39.885Y14.523
X39.885Y11.983
X39.885Y9.443
X4.328Y34.618
X6.868Y34.618
X9.408Y34.618
X11.948Y34.618
X14.488Y34.618
X17.028Y34.618
X19.568Y34.618
X22.108Y34.618
X24.648Y34.618
X27.188Y34.618
X29.728Y34.618
X32.268Y34.618
X34.808Y34.618
X37.348Y34.618
X39.888Y34.618
X42.428Y34.618
X44.968Y34.618
X47.508Y34.618
X50.048Y34.618
X4.328Y60.018
X6.868Y60.018
X9.408Y60.018
X11.948Y60.018
X14.488Y60.018
X17.028Y60.018
X19.568Y60.018
X22.108Y60.018
X24.648Y60.018
X27.188Y60.018
X29.728Y60.018
X32.268Y60.018
X34.808Y60.018
X37.348Y60.018
X39.888Y60.018
X42.428Y60.018
X44.968Y60.018
X47.508Y60.018
X50.048Y60.018
X29.68Y4.04
X32.22Y4.04
X34.76Y4.04
X37.3Y4.04
X7.62Y4.01
X10.16Y4.01
X12.7Y4.01
X15.24Y4.01
X17.637Y27.231
X17.637Y24.691
X17.637Y22.151
X17.637Y19.611
X17.637Y17.071
X17.637Y14.531
X17.637Y11.991
X17.637Y9.451
X58.715Y39.921
X58.715Y34.841
T4
X2.89Y2.87
X63.24Y74.65
X2.89Y74.71
X63.16Y2.86
T0
M30
