G04 #@! TF.GenerationSoftware,KiCad,Pcbnew,(5.1.5-0)*
G04 #@! TF.CreationDate,2022-07-03T13:43:41+01:00*
G04 #@! TF.ProjectId,ESP32_Cnc_Shield,45535033-325f-4436-9e63-5f536869656c,rev?*
G04 #@! TF.SameCoordinates,Original*
G04 #@! TF.FileFunction,Legend,Bot*
G04 #@! TF.FilePolarity,Positive*
%FSLAX46Y46*%
G04 Gerber Fmt 4.6, Leading zero omitted, Abs format (unit mm)*
G04 Created by KiCad (PCBNEW (5.1.5-0)) date 2022-07-03 13:43:41*
%MOMM*%
%LPD*%
G04 APERTURE LIST*
%ADD10C,0.200000*%
%ADD11C,0.300000*%
%ADD12C,0.010000*%
%ADD13C,0.120000*%
G04 APERTURE END LIST*
D10*
X61973151Y44769067D02*
X61973151Y45530972D01*
X61592199Y45150020D02*
X62354103Y45150020D01*
X62116008Y46340496D02*
X62116008Y46007162D01*
X61592199Y46007162D02*
X62592199Y46007162D01*
X62592199Y46483353D01*
X61877913Y46816686D02*
X61877913Y47292877D01*
X61592199Y46721448D02*
X62592199Y47054781D01*
X61592199Y47388115D01*
X61592199Y47721448D02*
X62592199Y47721448D01*
X61592199Y48292877D01*
X62592199Y48292877D01*
X61973151Y48769067D02*
X61973151Y49530972D01*
D11*
X64091357Y32682134D02*
X64091357Y33824991D01*
X63519928Y33253562D02*
X64662785Y33253562D01*
X64877071Y35610705D02*
X64948500Y35682134D01*
X65019928Y35824991D01*
X65019928Y36182134D01*
X64948500Y36324991D01*
X64877071Y36396420D01*
X64734214Y36467848D01*
X64591357Y36467848D01*
X64377071Y36396420D01*
X63519928Y35539277D01*
X63519928Y36467848D01*
X64519928Y37753562D02*
X63519928Y37753562D01*
X65091357Y37396420D02*
X64019928Y37039277D01*
X64019928Y37967848D01*
X65019928Y38324991D02*
X63519928Y38824991D01*
X65019928Y39324991D01*
X64091357Y40967848D02*
X64091357Y42110705D01*
D10*
X43863781Y27725619D02*
X43530448Y26725619D01*
X43197115Y27725619D01*
X42863781Y26725619D02*
X42863781Y27725619D01*
X42530448Y27011333D01*
X42197115Y27725619D01*
X42197115Y26725619D01*
D11*
X46555714Y38207142D02*
X46055714Y38207142D01*
X45841428Y37421428D02*
X46555714Y37421428D01*
X46555714Y38921428D01*
X45841428Y38921428D01*
X45270000Y37492857D02*
X45055714Y37421428D01*
X44698571Y37421428D01*
X44555714Y37492857D01*
X44484285Y37564285D01*
X44412857Y37707142D01*
X44412857Y37850000D01*
X44484285Y37992857D01*
X44555714Y38064285D01*
X44698571Y38135714D01*
X44984285Y38207142D01*
X45127142Y38278571D01*
X45198571Y38350000D01*
X45270000Y38492857D01*
X45270000Y38635714D01*
X45198571Y38778571D01*
X45127142Y38850000D01*
X44984285Y38921428D01*
X44627142Y38921428D01*
X44412857Y38850000D01*
X43770000Y37421428D02*
X43770000Y38921428D01*
X43198571Y38921428D01*
X43055714Y38850000D01*
X42984285Y38778571D01*
X42912857Y38635714D01*
X42912857Y38421428D01*
X42984285Y38278571D01*
X43055714Y38207142D01*
X43198571Y38135714D01*
X43770000Y38135714D01*
X42412857Y38921428D02*
X41484285Y38921428D01*
X41984285Y38350000D01*
X41770000Y38350000D01*
X41627142Y38278571D01*
X41555714Y38207142D01*
X41484285Y38064285D01*
X41484285Y37707142D01*
X41555714Y37564285D01*
X41627142Y37492857D01*
X41770000Y37421428D01*
X42198571Y37421428D01*
X42341428Y37492857D01*
X42412857Y37564285D01*
X40912857Y38778571D02*
X40841428Y38850000D01*
X40698571Y38921428D01*
X40341428Y38921428D01*
X40198571Y38850000D01*
X40127142Y38778571D01*
X40055714Y38635714D01*
X40055714Y38492857D01*
X40127142Y38278571D01*
X40984285Y37421428D01*
X40055714Y37421428D01*
X37412857Y37564285D02*
X37484285Y37492857D01*
X37698571Y37421428D01*
X37841428Y37421428D01*
X38055714Y37492857D01*
X38198571Y37635714D01*
X38270000Y37778571D01*
X38341428Y38064285D01*
X38341428Y38278571D01*
X38270000Y38564285D01*
X38198571Y38707142D01*
X38055714Y38850000D01*
X37841428Y38921428D01*
X37698571Y38921428D01*
X37484285Y38850000D01*
X37412857Y38778571D01*
X36770000Y37421428D02*
X36770000Y38921428D01*
X35912857Y37421428D01*
X35912857Y38921428D01*
X34341428Y37564285D02*
X34412857Y37492857D01*
X34627142Y37421428D01*
X34770000Y37421428D01*
X34984285Y37492857D01*
X35127142Y37635714D01*
X35198571Y37778571D01*
X35270000Y38064285D01*
X35270000Y38278571D01*
X35198571Y38564285D01*
X35127142Y38707142D01*
X34984285Y38850000D01*
X34770000Y38921428D01*
X34627142Y38921428D01*
X34412857Y38850000D01*
X34341428Y38778571D01*
X32627142Y37492857D02*
X32412857Y37421428D01*
X32055714Y37421428D01*
X31912857Y37492857D01*
X31841428Y37564285D01*
X31770000Y37707142D01*
X31770000Y37850000D01*
X31841428Y37992857D01*
X31912857Y38064285D01*
X32055714Y38135714D01*
X32341428Y38207142D01*
X32484285Y38278571D01*
X32555714Y38350000D01*
X32627142Y38492857D01*
X32627142Y38635714D01*
X32555714Y38778571D01*
X32484285Y38850000D01*
X32341428Y38921428D01*
X31984285Y38921428D01*
X31770000Y38850000D01*
X31127142Y37421428D02*
X31127142Y38921428D01*
X31127142Y38207142D02*
X30270000Y38207142D01*
X30270000Y37421428D02*
X30270000Y38921428D01*
X29555714Y37421428D02*
X29555714Y38921428D01*
X28841428Y38207142D02*
X28341428Y38207142D01*
X28127142Y37421428D02*
X28841428Y37421428D01*
X28841428Y38921428D01*
X28127142Y38921428D01*
X26770000Y37421428D02*
X27484285Y37421428D01*
X27484285Y38921428D01*
X26270000Y37421428D02*
X26270000Y38921428D01*
X25912857Y38921428D01*
X25698571Y38850000D01*
X25555714Y38707142D01*
X25484285Y38564285D01*
X25412857Y38278571D01*
X25412857Y38064285D01*
X25484285Y37778571D01*
X25555714Y37635714D01*
X25698571Y37492857D01*
X25912857Y37421428D01*
X26270000Y37421428D01*
X23841428Y38921428D02*
X23341428Y37421428D01*
X22841428Y38921428D01*
X21555714Y37421428D02*
X22412857Y37421428D01*
X21984285Y37421428D02*
X21984285Y38921428D01*
X22127142Y38707142D01*
X22270000Y38564285D01*
X22412857Y38492857D01*
X20912857Y37564285D02*
X20841428Y37492857D01*
X20912857Y37421428D01*
X20984285Y37492857D01*
X20912857Y37564285D01*
X20912857Y37421428D01*
X19412857Y37421428D02*
X20270000Y37421428D01*
X19841428Y37421428D02*
X19841428Y38921428D01*
X19984285Y38707142D01*
X20127142Y38564285D01*
X20270000Y38492857D01*
D10*
X36961904Y9730000D02*
X37057142Y9777619D01*
X37200000Y9777619D01*
X37342857Y9730000D01*
X37438095Y9634761D01*
X37485714Y9539523D01*
X37533333Y9349047D01*
X37533333Y9206190D01*
X37485714Y9015714D01*
X37438095Y8920476D01*
X37342857Y8825238D01*
X37200000Y8777619D01*
X37104761Y8777619D01*
X36961904Y8825238D01*
X36914285Y8872857D01*
X36914285Y9206190D01*
X37104761Y9206190D01*
X36485714Y8777619D02*
X36485714Y9777619D01*
X35914285Y8777619D01*
X35914285Y9777619D01*
X35438095Y8777619D02*
X35438095Y9777619D01*
X35200000Y9777619D01*
X35057142Y9730000D01*
X34961904Y9634761D01*
X34914285Y9539523D01*
X34866666Y9349047D01*
X34866666Y9206190D01*
X34914285Y9015714D01*
X34961904Y8920476D01*
X35057142Y8825238D01*
X35200000Y8777619D01*
X35438095Y8777619D01*
X65124024Y9335080D02*
X65219262Y9382699D01*
X65362120Y9382699D01*
X65504977Y9335080D01*
X65600215Y9239841D01*
X65647834Y9144603D01*
X65695453Y8954127D01*
X65695453Y8811270D01*
X65647834Y8620794D01*
X65600215Y8525556D01*
X65504977Y8430318D01*
X65362120Y8382699D01*
X65266881Y8382699D01*
X65124024Y8430318D01*
X65076405Y8477937D01*
X65076405Y8811270D01*
X65266881Y8811270D01*
X64647834Y8382699D02*
X64647834Y9382699D01*
X64076405Y8382699D01*
X64076405Y9382699D01*
X63600215Y8382699D02*
X63600215Y9382699D01*
X63362120Y9382699D01*
X63219262Y9335080D01*
X63124024Y9239841D01*
X63076405Y9144603D01*
X63028786Y8954127D01*
X63028786Y8811270D01*
X63076405Y8620794D01*
X63124024Y8525556D01*
X63219262Y8430318D01*
X63362120Y8382699D01*
X63600215Y8382699D01*
X21620384Y9783700D02*
X21715622Y9831319D01*
X21858480Y9831319D01*
X22001337Y9783700D01*
X22096575Y9688461D01*
X22144194Y9593223D01*
X22191813Y9402747D01*
X22191813Y9259890D01*
X22144194Y9069414D01*
X22096575Y8974176D01*
X22001337Y8878938D01*
X21858480Y8831319D01*
X21763241Y8831319D01*
X21620384Y8878938D01*
X21572765Y8926557D01*
X21572765Y9259890D01*
X21763241Y9259890D01*
X21144194Y8831319D02*
X21144194Y9831319D01*
X20572765Y8831319D01*
X20572765Y9831319D01*
X20096575Y8831319D02*
X20096575Y9831319D01*
X19858480Y9831319D01*
X19715622Y9783700D01*
X19620384Y9688461D01*
X19572765Y9593223D01*
X19525146Y9402747D01*
X19525146Y9259890D01*
X19572765Y9069414D01*
X19620384Y8974176D01*
X19715622Y8878938D01*
X19858480Y8831319D01*
X20096575Y8831319D01*
X18674601Y30341819D02*
X18341268Y29341819D01*
X18007935Y30341819D01*
X17674601Y29341819D02*
X17674601Y30341819D01*
X17341268Y29627533D01*
X17007935Y30341819D01*
X17007935Y29341819D01*
X62029861Y30151319D02*
X61696528Y29151319D01*
X61363195Y30151319D01*
X61029861Y29151319D02*
X61029861Y30151319D01*
X60696528Y29437033D01*
X60363195Y30151319D01*
X60363195Y29151319D01*
X2831340Y8993879D02*
X2831340Y9993879D01*
X2593244Y9993879D01*
X2450387Y9946260D01*
X2355149Y9851021D01*
X2307530Y9755783D01*
X2259911Y9565307D01*
X2259911Y9422450D01*
X2307530Y9231974D01*
X2355149Y9136736D01*
X2450387Y9041498D01*
X2593244Y8993879D01*
X2831340Y8993879D01*
X1831339Y8993879D02*
X1831339Y9993879D01*
X783720Y8993879D02*
X1117054Y9470069D01*
X1355149Y8993879D02*
X1355149Y9993879D01*
X974197Y9993879D01*
X878959Y9946260D01*
X831339Y9898640D01*
X783720Y9803402D01*
X783720Y9660545D01*
X831339Y9565307D01*
X878959Y9517688D01*
X974197Y9470069D01*
X1355149Y9470069D01*
X46360100Y8865399D02*
X46360100Y9865399D01*
X46122004Y9865399D01*
X45979147Y9817780D01*
X45883909Y9722541D01*
X45836290Y9627303D01*
X45788671Y9436827D01*
X45788671Y9293970D01*
X45836290Y9103494D01*
X45883909Y9008256D01*
X45979147Y8913018D01*
X46122004Y8865399D01*
X46360100Y8865399D01*
X45360100Y8865399D02*
X45360100Y9865399D01*
X44312480Y8865399D02*
X44645814Y9341589D01*
X44883909Y8865399D02*
X44883909Y9865399D01*
X44502957Y9865399D01*
X44407719Y9817780D01*
X44360100Y9770160D01*
X44312480Y9674922D01*
X44312480Y9532065D01*
X44360100Y9436827D01*
X44407719Y9389208D01*
X44502957Y9341589D01*
X44883909Y9341589D01*
X25009720Y8926819D02*
X25009720Y9926819D01*
X24771624Y9926819D01*
X24628767Y9879200D01*
X24533529Y9783961D01*
X24485910Y9688723D01*
X24438291Y9498247D01*
X24438291Y9355390D01*
X24485910Y9164914D01*
X24533529Y9069676D01*
X24628767Y8974438D01*
X24771624Y8926819D01*
X25009720Y8926819D01*
X24009720Y8926819D02*
X24009720Y9926819D01*
X22962100Y8926819D02*
X23295434Y9403009D01*
X23533529Y8926819D02*
X23533529Y9926819D01*
X23152577Y9926819D01*
X23057339Y9879200D01*
X23009720Y9831580D01*
X22962100Y9736342D01*
X22962100Y9593485D01*
X23009720Y9498247D01*
X23057339Y9450628D01*
X23152577Y9403009D01*
X23533529Y9403009D01*
X5266915Y29868168D02*
X4933581Y29868168D01*
X4790724Y29344359D02*
X5266915Y29344359D01*
X5266915Y30344359D01*
X4790724Y30344359D01*
X4362153Y29344359D02*
X4362153Y30344359D01*
X3790724Y29344359D01*
X3790724Y30344359D01*
X49229235Y29692908D02*
X48895901Y29692908D01*
X48753044Y29169099D02*
X49229235Y29169099D01*
X49229235Y30169099D01*
X48753044Y30169099D01*
X48324473Y29169099D02*
X48324473Y30169099D01*
X47753044Y29169099D01*
X47753044Y30169099D01*
X28012615Y29979928D02*
X27679281Y29979928D01*
X27536424Y29456119D02*
X28012615Y29456119D01*
X28012615Y30456119D01*
X27536424Y30456119D01*
X27107853Y29456119D02*
X27107853Y30456119D01*
X26536424Y29456119D01*
X26536424Y30456119D01*
D11*
X10550000Y398571D02*
X11550000Y398571D01*
X10550000Y1898571D01*
X11550000Y1898571D01*
X53910000Y1035714D02*
X53910000Y321428D01*
X54410000Y1821428D02*
X53910000Y1035714D01*
X53410000Y1821428D01*
X32950000Y628571D02*
X33950000Y2128571D01*
X33950000Y628571D02*
X32950000Y2128571D01*
D10*
X24887394Y24254199D02*
X24887394Y25254199D01*
X24554060Y24539913D01*
X24220727Y25254199D01*
X24220727Y24254199D01*
X23792156Y24301818D02*
X23649299Y24254199D01*
X23411203Y24254199D01*
X23315965Y24301818D01*
X23268346Y24349437D01*
X23220727Y24444675D01*
X23220727Y24539913D01*
X23268346Y24635151D01*
X23315965Y24682770D01*
X23411203Y24730389D01*
X23601680Y24778008D01*
X23696918Y24825627D01*
X23744537Y24873246D01*
X23792156Y24968484D01*
X23792156Y25063722D01*
X23744537Y25158960D01*
X23696918Y25206580D01*
X23601680Y25254199D01*
X23363584Y25254199D01*
X23220727Y25206580D01*
X22601680Y25254199D02*
X22506441Y25254199D01*
X22411203Y25206580D01*
X22363584Y25158960D01*
X22315965Y25063722D01*
X22268346Y24873246D01*
X22268346Y24635151D01*
X22315965Y24444675D01*
X22363584Y24349437D01*
X22411203Y24301818D01*
X22506441Y24254199D01*
X22601680Y24254199D01*
X22696918Y24301818D01*
X22744537Y24349437D01*
X22792156Y24444675D01*
X22839775Y24635151D01*
X22839775Y24873246D01*
X22792156Y25063722D01*
X22744537Y25158960D01*
X22696918Y25206580D01*
X22601680Y25254199D01*
X24742614Y21653239D02*
X24742614Y22653239D01*
X24409280Y21938953D01*
X24075947Y22653239D01*
X24075947Y21653239D01*
X23647376Y21700858D02*
X23504519Y21653239D01*
X23266423Y21653239D01*
X23171185Y21700858D01*
X23123566Y21748477D01*
X23075947Y21843715D01*
X23075947Y21938953D01*
X23123566Y22034191D01*
X23171185Y22081810D01*
X23266423Y22129429D01*
X23456900Y22177048D01*
X23552138Y22224667D01*
X23599757Y22272286D01*
X23647376Y22367524D01*
X23647376Y22462762D01*
X23599757Y22558000D01*
X23552138Y22605620D01*
X23456900Y22653239D01*
X23218804Y22653239D01*
X23075947Y22605620D01*
X22123566Y21653239D02*
X22694995Y21653239D01*
X22409280Y21653239D02*
X22409280Y22653239D01*
X22504519Y22510381D01*
X22599757Y22415143D01*
X22694995Y22367524D01*
X24887394Y19146259D02*
X24887394Y20146259D01*
X24554060Y19431973D01*
X24220727Y20146259D01*
X24220727Y19146259D01*
X23792156Y19193878D02*
X23649299Y19146259D01*
X23411203Y19146259D01*
X23315965Y19193878D01*
X23268346Y19241497D01*
X23220727Y19336735D01*
X23220727Y19431973D01*
X23268346Y19527211D01*
X23315965Y19574830D01*
X23411203Y19622449D01*
X23601680Y19670068D01*
X23696918Y19717687D01*
X23744537Y19765306D01*
X23792156Y19860544D01*
X23792156Y19955782D01*
X23744537Y20051020D01*
X23696918Y20098640D01*
X23601680Y20146259D01*
X23363584Y20146259D01*
X23220727Y20098640D01*
X22839775Y20051020D02*
X22792156Y20098640D01*
X22696918Y20146259D01*
X22458822Y20146259D01*
X22363584Y20098640D01*
X22315965Y20051020D01*
X22268346Y19955782D01*
X22268346Y19860544D01*
X22315965Y19717687D01*
X22887394Y19146259D01*
X22268346Y19146259D01*
X46210694Y21475439D02*
X46210694Y22475439D01*
X45877360Y21761153D01*
X45544027Y22475439D01*
X45544027Y21475439D01*
X45115456Y21523058D02*
X44972599Y21475439D01*
X44734503Y21475439D01*
X44639265Y21523058D01*
X44591646Y21570677D01*
X44544027Y21665915D01*
X44544027Y21761153D01*
X44591646Y21856391D01*
X44639265Y21904010D01*
X44734503Y21951629D01*
X44924980Y21999248D01*
X45020218Y22046867D01*
X45067837Y22094486D01*
X45115456Y22189724D01*
X45115456Y22284962D01*
X45067837Y22380200D01*
X45020218Y22427820D01*
X44924980Y22475439D01*
X44686884Y22475439D01*
X44544027Y22427820D01*
X43591646Y21475439D02*
X44163075Y21475439D01*
X43877360Y21475439D02*
X43877360Y22475439D01*
X43972599Y22332581D01*
X44067837Y22237343D01*
X44163075Y22189724D01*
X46322454Y18988779D02*
X46322454Y19988779D01*
X45989120Y19274493D01*
X45655787Y19988779D01*
X45655787Y18988779D01*
X45227216Y19036398D02*
X45084359Y18988779D01*
X44846263Y18988779D01*
X44751025Y19036398D01*
X44703406Y19084017D01*
X44655787Y19179255D01*
X44655787Y19274493D01*
X44703406Y19369731D01*
X44751025Y19417350D01*
X44846263Y19464969D01*
X45036740Y19512588D01*
X45131978Y19560207D01*
X45179597Y19607826D01*
X45227216Y19703064D01*
X45227216Y19798302D01*
X45179597Y19893540D01*
X45131978Y19941160D01*
X45036740Y19988779D01*
X44798644Y19988779D01*
X44655787Y19941160D01*
X44274835Y19893540D02*
X44227216Y19941160D01*
X44131978Y19988779D01*
X43893882Y19988779D01*
X43798644Y19941160D01*
X43751025Y19893540D01*
X43703406Y19798302D01*
X43703406Y19703064D01*
X43751025Y19560207D01*
X44322454Y18988779D01*
X43703406Y18988779D01*
X9614374Y23222959D02*
X9614374Y24222959D01*
X9281040Y23508673D01*
X8947707Y24222959D01*
X8947707Y23222959D01*
X8519136Y23270578D02*
X8376279Y23222959D01*
X8138183Y23222959D01*
X8042945Y23270578D01*
X7995326Y23318197D01*
X7947707Y23413435D01*
X7947707Y23508673D01*
X7995326Y23603911D01*
X8042945Y23651530D01*
X8138183Y23699149D01*
X8328660Y23746768D01*
X8423898Y23794387D01*
X8471517Y23842006D01*
X8519136Y23937244D01*
X8519136Y24032482D01*
X8471517Y24127720D01*
X8423898Y24175340D01*
X8328660Y24222959D01*
X8090564Y24222959D01*
X7947707Y24175340D01*
X7328660Y24222959D02*
X7233421Y24222959D01*
X7138183Y24175340D01*
X7090564Y24127720D01*
X7042945Y24032482D01*
X6995326Y23842006D01*
X6995326Y23603911D01*
X7042945Y23413435D01*
X7090564Y23318197D01*
X7138183Y23270578D01*
X7233421Y23222959D01*
X7328660Y23222959D01*
X7423898Y23270578D01*
X7471517Y23318197D01*
X7519136Y23413435D01*
X7566755Y23603911D01*
X7566755Y23842006D01*
X7519136Y24032482D01*
X7471517Y24127720D01*
X7423898Y24175340D01*
X7328660Y24222959D01*
X9604214Y21566879D02*
X9604214Y22566879D01*
X9270880Y21852593D01*
X8937547Y22566879D01*
X8937547Y21566879D01*
X8508976Y21614498D02*
X8366119Y21566879D01*
X8128023Y21566879D01*
X8032785Y21614498D01*
X7985166Y21662117D01*
X7937547Y21757355D01*
X7937547Y21852593D01*
X7985166Y21947831D01*
X8032785Y21995450D01*
X8128023Y22043069D01*
X8318500Y22090688D01*
X8413738Y22138307D01*
X8461357Y22185926D01*
X8508976Y22281164D01*
X8508976Y22376402D01*
X8461357Y22471640D01*
X8413738Y22519260D01*
X8318500Y22566879D01*
X8080404Y22566879D01*
X7937547Y22519260D01*
X6985166Y21566879D02*
X7556595Y21566879D01*
X7270880Y21566879D02*
X7270880Y22566879D01*
X7366119Y22424021D01*
X7461357Y22328783D01*
X7556595Y22281164D01*
X9809954Y19171659D02*
X9809954Y20171659D01*
X9476620Y19457373D01*
X9143287Y20171659D01*
X9143287Y19171659D01*
X8714716Y19219278D02*
X8571859Y19171659D01*
X8333763Y19171659D01*
X8238525Y19219278D01*
X8190906Y19266897D01*
X8143287Y19362135D01*
X8143287Y19457373D01*
X8190906Y19552611D01*
X8238525Y19600230D01*
X8333763Y19647849D01*
X8524240Y19695468D01*
X8619478Y19743087D01*
X8667097Y19790706D01*
X8714716Y19885944D01*
X8714716Y19981182D01*
X8667097Y20076420D01*
X8619478Y20124040D01*
X8524240Y20171659D01*
X8286144Y20171659D01*
X8143287Y20124040D01*
X7762335Y20076420D02*
X7714716Y20124040D01*
X7619478Y20171659D01*
X7381382Y20171659D01*
X7286144Y20124040D01*
X7238525Y20076420D01*
X7190906Y19981182D01*
X7190906Y19885944D01*
X7238525Y19743087D01*
X7809954Y19171659D01*
X7190906Y19171659D01*
X46210694Y23972259D02*
X46210694Y24972259D01*
X45877360Y24257973D01*
X45544027Y24972259D01*
X45544027Y23972259D01*
X45115456Y24019878D02*
X44972599Y23972259D01*
X44734503Y23972259D01*
X44639265Y24019878D01*
X44591646Y24067497D01*
X44544027Y24162735D01*
X44544027Y24257973D01*
X44591646Y24353211D01*
X44639265Y24400830D01*
X44734503Y24448449D01*
X44924980Y24496068D01*
X45020218Y24543687D01*
X45067837Y24591306D01*
X45115456Y24686544D01*
X45115456Y24781782D01*
X45067837Y24877020D01*
X45020218Y24924640D01*
X44924980Y24972259D01*
X44686884Y24972259D01*
X44544027Y24924640D01*
X43924980Y24972259D02*
X43829741Y24972259D01*
X43734503Y24924640D01*
X43686884Y24877020D01*
X43639265Y24781782D01*
X43591646Y24591306D01*
X43591646Y24353211D01*
X43639265Y24162735D01*
X43686884Y24067497D01*
X43734503Y24019878D01*
X43829741Y23972259D01*
X43924980Y23972259D01*
X44020218Y24019878D01*
X44067837Y24067497D01*
X44115456Y24162735D01*
X44163075Y24353211D01*
X44163075Y24591306D01*
X44115456Y24781782D01*
X44067837Y24877020D01*
X44020218Y24924640D01*
X43924980Y24972259D01*
X53853032Y72079811D02*
X53091127Y72079811D01*
X53472080Y71698859D02*
X53472080Y72460763D01*
X49400412Y72153471D02*
X48638507Y72153471D01*
X37345572Y71772471D02*
X36583667Y71772471D01*
X36964620Y71391519D02*
X36964620Y72153423D01*
X34808112Y72026471D02*
X34046207Y72026471D01*
X29834792Y71868991D02*
X29072887Y71868991D01*
X29453840Y71488039D02*
X29453840Y72249943D01*
X26946812Y71891851D02*
X26184907Y71891851D01*
X22544992Y71797871D02*
X21783087Y71797871D01*
X22164040Y71416919D02*
X22164040Y72178823D01*
X20076112Y71937571D02*
X19314207Y71937571D01*
X12857271Y71475927D02*
X12857271Y72237832D01*
X12476319Y71856880D02*
X13238223Y71856880D01*
X10515652Y71785451D02*
X9753747Y71785451D01*
X4373571Y69789087D02*
X4373571Y70550992D01*
X3992619Y70170040D02*
X4754523Y70170040D01*
X4483408Y63111332D02*
X4483408Y62349427D01*
X2200541Y68995561D02*
X2248160Y68852704D01*
X2248160Y68614609D01*
X2200541Y68519371D01*
X2152922Y68471752D01*
X2057684Y68424133D01*
X1962446Y68424133D01*
X1867208Y68471752D01*
X1819589Y68519371D01*
X1771970Y68614609D01*
X1724351Y68805085D01*
X1676732Y68900323D01*
X1629113Y68947942D01*
X1533875Y68995561D01*
X1438637Y68995561D01*
X1343399Y68947942D01*
X1295780Y68900323D01*
X1248160Y68805085D01*
X1248160Y68566990D01*
X1295780Y68424133D01*
X2248160Y67995561D02*
X1248160Y67995561D01*
X1248160Y67614609D01*
X1295780Y67519371D01*
X1343399Y67471752D01*
X1438637Y67424133D01*
X1581494Y67424133D01*
X1676732Y67471752D01*
X1724351Y67519371D01*
X1771970Y67614609D01*
X1771970Y67995561D01*
X2248160Y66995561D02*
X1248160Y66995561D01*
X2248160Y66519371D02*
X1248160Y66519371D01*
X2248160Y65947942D01*
X1248160Y65947942D01*
X2248160Y65471752D02*
X1248160Y65471752D01*
X1248160Y65233657D01*
X1295780Y65090800D01*
X1391018Y64995561D01*
X1486256Y64947942D01*
X1676732Y64900323D01*
X1819589Y64900323D01*
X2010065Y64947942D01*
X2105303Y64995561D01*
X2200541Y65090800D01*
X2248160Y65233657D01*
X2248160Y65471752D01*
X2248160Y63995561D02*
X2248160Y64471752D01*
X1248160Y64471752D01*
X1724351Y63662228D02*
X1724351Y63328895D01*
X2248160Y63186038D02*
X2248160Y63662228D01*
X1248160Y63662228D01*
X1248160Y63186038D01*
X9976128Y77135260D02*
X9976128Y76135260D01*
X10309461Y76849546D01*
X10642795Y76135260D01*
X10642795Y77135260D01*
X11118985Y77135260D02*
X11118985Y76135260D01*
X11547557Y77087641D02*
X11690414Y77135260D01*
X11928509Y77135260D01*
X12023747Y77087641D01*
X12071366Y77040022D01*
X12118985Y76944784D01*
X12118985Y76849546D01*
X12071366Y76754308D01*
X12023747Y76706689D01*
X11928509Y76659070D01*
X11738033Y76611451D01*
X11642795Y76563832D01*
X11595176Y76516213D01*
X11547557Y76420975D01*
X11547557Y76325737D01*
X11595176Y76230499D01*
X11642795Y76182880D01*
X11738033Y76135260D01*
X11976128Y76135260D01*
X12118985Y76182880D01*
X12404700Y76135260D02*
X12976128Y76135260D01*
X12690414Y77135260D02*
X12690414Y76135260D01*
X18994073Y76002900D02*
X19660740Y77002900D01*
X19660740Y76002900D02*
X18994073Y77002900D01*
X20041692Y76621948D02*
X20803597Y76621948D01*
X21755978Y77002900D02*
X21279787Y77002900D01*
X21279787Y76002900D01*
X22089311Y77002900D02*
X22089311Y76002900D01*
X22565501Y77002900D02*
X22565501Y76002900D01*
X22898835Y76717186D01*
X23232168Y76002900D01*
X23232168Y77002900D01*
X26126393Y76020680D02*
X26793060Y76020680D01*
X26126393Y77020680D01*
X26793060Y77020680D01*
X27174012Y76639728D02*
X27935917Y76639728D01*
X28888298Y77020680D02*
X28412107Y77020680D01*
X28412107Y76020680D01*
X29221631Y77020680D02*
X29221631Y76020680D01*
X29697821Y77020680D02*
X29697821Y76020680D01*
X30031155Y76734966D01*
X30364488Y76020680D01*
X30364488Y77020680D01*
X34506446Y76524170D02*
X34506446Y77000360D01*
X34173113Y76000360D02*
X34506446Y76524170D01*
X34839780Y76000360D01*
X35173113Y76619408D02*
X35935018Y76619408D01*
X36887399Y77000360D02*
X36411208Y77000360D01*
X36411208Y76000360D01*
X37220732Y77000360D02*
X37220732Y76000360D01*
X37696922Y77000360D02*
X37696922Y76000360D01*
X38030256Y76714646D01*
X38363589Y76000360D01*
X38363589Y77000360D01*
X48798124Y77089260D02*
X48798124Y76089260D01*
X49179077Y76089260D01*
X49274315Y76136880D01*
X49321934Y76184499D01*
X49369553Y76279737D01*
X49369553Y76422594D01*
X49321934Y76517832D01*
X49274315Y76565451D01*
X49179077Y76613070D01*
X48798124Y76613070D01*
X50369553Y77089260D02*
X50036220Y76613070D01*
X49798124Y77089260D02*
X49798124Y76089260D01*
X50179077Y76089260D01*
X50274315Y76136880D01*
X50321934Y76184499D01*
X50369553Y76279737D01*
X50369553Y76422594D01*
X50321934Y76517832D01*
X50274315Y76565451D01*
X50179077Y76613070D01*
X49798124Y76613070D01*
X50988600Y76089260D02*
X51179077Y76089260D01*
X51274315Y76136880D01*
X51369553Y76232118D01*
X51417172Y76422594D01*
X51417172Y76755927D01*
X51369553Y76946403D01*
X51274315Y77041641D01*
X51179077Y77089260D01*
X50988600Y77089260D01*
X50893362Y77041641D01*
X50798124Y76946403D01*
X50750505Y76755927D01*
X50750505Y76422594D01*
X50798124Y76232118D01*
X50893362Y76136880D01*
X50988600Y76089260D01*
X52179077Y76565451D02*
X52321934Y76613070D01*
X52369553Y76660689D01*
X52417172Y76755927D01*
X52417172Y76898784D01*
X52369553Y76994022D01*
X52321934Y77041641D01*
X52226696Y77089260D01*
X51845743Y77089260D01*
X51845743Y76089260D01*
X52179077Y76089260D01*
X52274315Y76136880D01*
X52321934Y76184499D01*
X52369553Y76279737D01*
X52369553Y76374975D01*
X52321934Y76470213D01*
X52274315Y76517832D01*
X52179077Y76565451D01*
X51845743Y76565451D01*
X52845743Y76565451D02*
X53179077Y76565451D01*
X53321934Y77089260D02*
X52845743Y77089260D01*
X52845743Y76089260D01*
X53321934Y76089260D01*
D11*
X47232974Y55807082D02*
X46732974Y55807082D01*
X46518688Y55021368D02*
X47232974Y55021368D01*
X47232974Y56521368D01*
X46518688Y56521368D01*
X45947259Y55092797D02*
X45732974Y55021368D01*
X45375831Y55021368D01*
X45232974Y55092797D01*
X45161545Y55164225D01*
X45090117Y55307082D01*
X45090117Y55449940D01*
X45161545Y55592797D01*
X45232974Y55664225D01*
X45375831Y55735654D01*
X45661545Y55807082D01*
X45804402Y55878511D01*
X45875831Y55949940D01*
X45947259Y56092797D01*
X45947259Y56235654D01*
X45875831Y56378511D01*
X45804402Y56449940D01*
X45661545Y56521368D01*
X45304402Y56521368D01*
X45090117Y56449940D01*
X44447259Y55021368D02*
X44447259Y56521368D01*
X43875831Y56521368D01*
X43732974Y56449940D01*
X43661545Y56378511D01*
X43590117Y56235654D01*
X43590117Y56021368D01*
X43661545Y55878511D01*
X43732974Y55807082D01*
X43875831Y55735654D01*
X44447259Y55735654D01*
X43090117Y56521368D02*
X42161545Y56521368D01*
X42661545Y55949940D01*
X42447259Y55949940D01*
X42304402Y55878511D01*
X42232974Y55807082D01*
X42161545Y55664225D01*
X42161545Y55307082D01*
X42232974Y55164225D01*
X42304402Y55092797D01*
X42447259Y55021368D01*
X42875831Y55021368D01*
X43018688Y55092797D01*
X43090117Y55164225D01*
X41590117Y56378511D02*
X41518688Y56449940D01*
X41375831Y56521368D01*
X41018688Y56521368D01*
X40875831Y56449940D01*
X40804402Y56378511D01*
X40732974Y56235654D01*
X40732974Y56092797D01*
X40804402Y55878511D01*
X41661545Y55021368D01*
X40732974Y55021368D01*
X40090117Y55592797D02*
X38947259Y55592797D01*
X38375831Y56521368D02*
X38018688Y55021368D01*
X37732974Y56092797D01*
X37447259Y55021368D01*
X37090117Y56521368D01*
X35661545Y55021368D02*
X36161545Y55735654D01*
X36518688Y55021368D02*
X36518688Y56521368D01*
X35947259Y56521368D01*
X35804402Y56449940D01*
X35732974Y56378511D01*
X35661545Y56235654D01*
X35661545Y56021368D01*
X35732974Y55878511D01*
X35804402Y55807082D01*
X35947259Y55735654D01*
X36518688Y55735654D01*
X34732974Y56521368D02*
X34447259Y56521368D01*
X34304402Y56449940D01*
X34161545Y56307082D01*
X34090117Y56021368D01*
X34090117Y55521368D01*
X34161545Y55235654D01*
X34304402Y55092797D01*
X34447259Y55021368D01*
X34732974Y55021368D01*
X34875831Y55092797D01*
X35018688Y55235654D01*
X35090117Y55521368D01*
X35090117Y56021368D01*
X35018688Y56307082D01*
X34875831Y56449940D01*
X34732974Y56521368D01*
X33161545Y56521368D02*
X32875831Y56521368D01*
X32732974Y56449940D01*
X32590117Y56307082D01*
X32518688Y56021368D01*
X32518688Y55521368D01*
X32590117Y55235654D01*
X32732974Y55092797D01*
X32875831Y55021368D01*
X33161545Y55021368D01*
X33304402Y55092797D01*
X33447259Y55235654D01*
X33518688Y55521368D01*
X33518688Y56021368D01*
X33447259Y56307082D01*
X33304402Y56449940D01*
X33161545Y56521368D01*
X31875831Y55021368D02*
X31875831Y56521368D01*
X31375831Y55449940D01*
X30875831Y56521368D01*
X30875831Y55021368D01*
X30161545Y55592797D02*
X29018688Y55592797D01*
X28304402Y55807082D02*
X27804402Y55807082D01*
X27590117Y55021368D02*
X28304402Y55021368D01*
X28304402Y56521368D01*
X27590117Y56521368D01*
X26518688Y54449940D02*
X26590117Y54521368D01*
X26732974Y54735654D01*
X26804402Y54878511D01*
X26875831Y55092797D01*
X26947259Y55449940D01*
X26947259Y55735654D01*
X26875831Y56092797D01*
X26804402Y56307082D01*
X26732974Y56449940D01*
X26590117Y56664225D01*
X26518688Y56735654D01*
X25947259Y55021368D02*
X25947259Y56521368D01*
X25590117Y56521368D01*
X25375831Y56449940D01*
X25232974Y56307082D01*
X25161545Y56164225D01*
X25090117Y55878511D01*
X25090117Y55664225D01*
X25161545Y55378511D01*
X25232974Y55235654D01*
X25375831Y55092797D01*
X25590117Y55021368D01*
X25947259Y55021368D01*
X24590117Y54449940D02*
X24518688Y54521368D01*
X24375831Y54735654D01*
X24304402Y54878511D01*
X24232974Y55092797D01*
X24161545Y55449940D01*
X24161545Y55735654D01*
X24232974Y56092797D01*
X24304402Y56307082D01*
X24375831Y56449940D01*
X24518688Y56664225D01*
X24590117Y56735654D01*
X22715402Y53230797D02*
X22786831Y53016511D01*
X22786831Y52659368D01*
X22715402Y52516511D01*
X22643974Y52445082D01*
X22501117Y52373654D01*
X22358260Y52373654D01*
X22215402Y52445082D01*
X22143974Y52516511D01*
X22072545Y52659368D01*
X22001117Y52945082D01*
X21929688Y53087940D01*
X21858260Y53159368D01*
X21715402Y53230797D01*
X21572545Y53230797D01*
X21429688Y53159368D01*
X21358260Y53087940D01*
X21286831Y52945082D01*
X21286831Y52587940D01*
X21358260Y52373654D01*
X22786831Y51730797D02*
X21286831Y51730797D01*
X21286831Y51373654D01*
X21358260Y51159368D01*
X21501117Y51016511D01*
X21643974Y50945082D01*
X21929688Y50873654D01*
X22143974Y50873654D01*
X22429688Y50945082D01*
X22572545Y51016511D01*
X22715402Y51159368D01*
X22786831Y51373654D01*
X22786831Y51730797D01*
X22643974Y48230797D02*
X22715402Y48302225D01*
X22786831Y48516511D01*
X22786831Y48659368D01*
X22715402Y48873654D01*
X22572545Y49016511D01*
X22429688Y49087940D01*
X22143974Y49159368D01*
X21929688Y49159368D01*
X21643974Y49087940D01*
X21501117Y49016511D01*
X21358260Y48873654D01*
X21286831Y48659368D01*
X21286831Y48516511D01*
X21358260Y48302225D01*
X21429688Y48230797D01*
X22358260Y47659368D02*
X22358260Y46945082D01*
X22786831Y47802225D02*
X21286831Y47302225D01*
X22786831Y46802225D01*
X22786831Y45445082D02*
X22072545Y45945082D01*
X22786831Y46302225D02*
X21286831Y46302225D01*
X21286831Y45730797D01*
X21358260Y45587940D01*
X21429688Y45516511D01*
X21572545Y45445082D01*
X21786831Y45445082D01*
X21929688Y45516511D01*
X22001117Y45587940D01*
X22072545Y45730797D01*
X22072545Y46302225D01*
X22786831Y44802225D02*
X21286831Y44802225D01*
X21286831Y44445082D01*
X21358260Y44230797D01*
X21501117Y44087940D01*
X21643974Y44016511D01*
X21929688Y43945082D01*
X22143974Y43945082D01*
X22429688Y44016511D01*
X22572545Y44087940D01*
X22715402Y44230797D01*
X22786831Y44445082D01*
X22786831Y44802225D01*
X16262260Y40432225D02*
X16333688Y40360797D01*
X16547974Y40289368D01*
X16690831Y40289368D01*
X16905117Y40360797D01*
X17047974Y40503654D01*
X17119402Y40646511D01*
X17190831Y40932225D01*
X17190831Y41146511D01*
X17119402Y41432225D01*
X17047974Y41575082D01*
X16905117Y41717940D01*
X16690831Y41789368D01*
X16547974Y41789368D01*
X16333688Y41717940D01*
X16262260Y41646511D01*
X15690831Y40360797D02*
X15476545Y40289368D01*
X15119402Y40289368D01*
X14976545Y40360797D01*
X14905117Y40432225D01*
X14833688Y40575082D01*
X14833688Y40717940D01*
X14905117Y40860797D01*
X14976545Y40932225D01*
X15119402Y41003654D01*
X15405117Y41075082D01*
X15547974Y41146511D01*
X15619402Y41217940D01*
X15690831Y41360797D01*
X15690831Y41503654D01*
X15619402Y41646511D01*
X15547974Y41717940D01*
X15405117Y41789368D01*
X15047974Y41789368D01*
X14833688Y41717940D01*
X19385402Y42829368D02*
X19385402Y44329368D01*
X18885402Y43257940D01*
X18385402Y44329368D01*
X18385402Y42829368D01*
X17385402Y44329368D02*
X17099688Y44329368D01*
X16956831Y44257940D01*
X16813974Y44115082D01*
X16742545Y43829368D01*
X16742545Y43329368D01*
X16813974Y43043654D01*
X16956831Y42900797D01*
X17099688Y42829368D01*
X17385402Y42829368D01*
X17528260Y42900797D01*
X17671117Y43043654D01*
X17742545Y43329368D01*
X17742545Y43829368D01*
X17671117Y44115082D01*
X17528260Y44257940D01*
X17385402Y44329368D01*
X16171117Y42900797D02*
X15956831Y42829368D01*
X15599688Y42829368D01*
X15456831Y42900797D01*
X15385402Y42972225D01*
X15313974Y43115082D01*
X15313974Y43257940D01*
X15385402Y43400797D01*
X15456831Y43472225D01*
X15599688Y43543654D01*
X15885402Y43615082D01*
X16028260Y43686511D01*
X16099688Y43757940D01*
X16171117Y43900797D01*
X16171117Y44043654D01*
X16099688Y44186511D01*
X16028260Y44257940D01*
X15885402Y44329368D01*
X15528260Y44329368D01*
X15313974Y44257940D01*
X14671117Y42829368D02*
X14671117Y44329368D01*
X18885402Y46869368D02*
X17956831Y46869368D01*
X18456831Y46297940D01*
X18242545Y46297940D01*
X18099688Y46226511D01*
X18028260Y46155082D01*
X17956831Y46012225D01*
X17956831Y45655082D01*
X18028260Y45512225D01*
X18099688Y45440797D01*
X18242545Y45369368D01*
X18671117Y45369368D01*
X18813974Y45440797D01*
X18885402Y45512225D01*
X17528260Y46869368D02*
X17028260Y45369368D01*
X16528260Y46869368D01*
X16171117Y46869368D02*
X15242545Y46869368D01*
X15742545Y46297940D01*
X15528260Y46297940D01*
X15385402Y46226511D01*
X15313974Y46155082D01*
X15242545Y46012225D01*
X15242545Y45655082D01*
X15313974Y45512225D01*
X15385402Y45440797D01*
X15528260Y45369368D01*
X15956831Y45369368D01*
X16099688Y45440797D01*
X16171117Y45512225D01*
X18956831Y47980797D02*
X18742545Y47909368D01*
X18385402Y47909368D01*
X18242545Y47980797D01*
X18171117Y48052225D01*
X18099688Y48195082D01*
X18099688Y48337940D01*
X18171117Y48480797D01*
X18242545Y48552225D01*
X18385402Y48623654D01*
X18671117Y48695082D01*
X18813974Y48766511D01*
X18885402Y48837940D01*
X18956831Y48980797D01*
X18956831Y49123654D01*
X18885402Y49266511D01*
X18813974Y49337940D01*
X18671117Y49409368D01*
X18313974Y49409368D01*
X18099688Y49337940D01*
X16599688Y48052225D02*
X16671117Y47980797D01*
X16885402Y47909368D01*
X17028260Y47909368D01*
X17242545Y47980797D01*
X17385402Y48123654D01*
X17456831Y48266511D01*
X17528260Y48552225D01*
X17528260Y48766511D01*
X17456831Y49052225D01*
X17385402Y49195082D01*
X17242545Y49337940D01*
X17028260Y49409368D01*
X16885402Y49409368D01*
X16671117Y49337940D01*
X16599688Y49266511D01*
X15956831Y47909368D02*
X15956831Y49409368D01*
X15099688Y47909368D02*
X15742545Y48766511D01*
X15099688Y49409368D02*
X15956831Y48552225D01*
X18171117Y52131940D02*
X18313974Y52203368D01*
X18528260Y52203368D01*
X18742545Y52131940D01*
X18885402Y51989082D01*
X18956831Y51846225D01*
X19028260Y51560511D01*
X19028260Y51346225D01*
X18956831Y51060511D01*
X18885402Y50917654D01*
X18742545Y50774797D01*
X18528260Y50703368D01*
X18385402Y50703368D01*
X18171117Y50774797D01*
X18099688Y50846225D01*
X18099688Y51346225D01*
X18385402Y51346225D01*
X17456831Y50703368D02*
X17456831Y52203368D01*
X16599688Y50703368D01*
X16599688Y52203368D01*
X15885402Y50703368D02*
X15885402Y52203368D01*
X15528260Y52203368D01*
X15313974Y52131940D01*
X15171117Y51989082D01*
X15099688Y51846225D01*
X15028260Y51560511D01*
X15028260Y51346225D01*
X15099688Y51060511D01*
X15171117Y50917654D01*
X15313974Y50774797D01*
X15528260Y50703368D01*
X15885402Y50703368D01*
X19385402Y52989368D02*
X19385402Y54489368D01*
X18885402Y53417940D01*
X18385402Y54489368D01*
X18385402Y52989368D01*
X17671117Y52989368D02*
X17671117Y54489368D01*
X17028260Y53060797D02*
X16813974Y52989368D01*
X16456831Y52989368D01*
X16313974Y53060797D01*
X16242545Y53132225D01*
X16171117Y53275082D01*
X16171117Y53417940D01*
X16242545Y53560797D01*
X16313974Y53632225D01*
X16456831Y53703654D01*
X16742545Y53775082D01*
X16885402Y53846511D01*
X16956831Y53917940D01*
X17028260Y54060797D01*
X17028260Y54203654D01*
X16956831Y54346511D01*
X16885402Y54417940D01*
X16742545Y54489368D01*
X16385402Y54489368D01*
X16171117Y54417940D01*
X15242545Y54489368D02*
X14956831Y54489368D01*
X14813974Y54417940D01*
X14671117Y54275082D01*
X14599688Y53989368D01*
X14599688Y53489368D01*
X14671117Y53203654D01*
X14813974Y53060797D01*
X14956831Y52989368D01*
X15242545Y52989368D01*
X15385402Y53060797D01*
X15528260Y53203654D01*
X15599688Y53489368D01*
X15599688Y53989368D01*
X15528260Y54275082D01*
X15385402Y54417940D01*
X15242545Y54489368D01*
D12*
G36*
X30871521Y48466871D02*
G01*
X30970984Y48431773D01*
X31052872Y48404532D01*
X31105136Y48389078D01*
X31116327Y48387000D01*
X31128530Y48410178D01*
X31137192Y48470869D01*
X31140400Y48553812D01*
X31139133Y48642763D01*
X31133154Y48691029D01*
X31119197Y48708703D01*
X31093994Y48705879D01*
X31091435Y48705083D01*
X31045156Y48689299D01*
X30966361Y48661384D01*
X30870218Y48626726D01*
X30846629Y48618142D01*
X30650787Y48546742D01*
X30871521Y48466871D01*
G37*
X30871521Y48466871D02*
X30970984Y48431773D01*
X31052872Y48404532D01*
X31105136Y48389078D01*
X31116327Y48387000D01*
X31128530Y48410178D01*
X31137192Y48470869D01*
X31140400Y48553812D01*
X31139133Y48642763D01*
X31133154Y48691029D01*
X31119197Y48708703D01*
X31093994Y48705879D01*
X31091435Y48705083D01*
X31045156Y48689299D01*
X30966361Y48661384D01*
X30870218Y48626726D01*
X30846629Y48618142D01*
X30650787Y48546742D01*
X30871521Y48466871D01*
G36*
X32321739Y40487600D02*
G01*
X33578887Y43002510D01*
X35561619Y42996005D01*
X37544352Y42989500D01*
X37950844Y42189400D01*
X38058312Y41977826D01*
X38169765Y41758330D01*
X38280255Y41540658D01*
X38384839Y41334554D01*
X38478570Y41149765D01*
X38556503Y40996034D01*
X38585675Y40938450D01*
X38814015Y40487600D01*
X42062400Y40487600D01*
X42062400Y53492400D01*
X40436800Y53492400D01*
X40154590Y53492207D01*
X39887919Y53491649D01*
X39641039Y53490759D01*
X39418200Y53489571D01*
X39223653Y53488118D01*
X39061648Y53486434D01*
X38936436Y53484551D01*
X38852268Y53482503D01*
X38813394Y53480324D01*
X38811200Y53479661D01*
X38822354Y53455855D01*
X38854966Y53389186D01*
X38907757Y53282219D01*
X38979450Y53137519D01*
X39068768Y52957652D01*
X39174432Y52745183D01*
X39295165Y52502676D01*
X39429690Y52232698D01*
X39576728Y51937814D01*
X39735003Y51620589D01*
X39903235Y51283589D01*
X40080149Y50929378D01*
X40264466Y50560522D01*
X40424100Y50241201D01*
X40613648Y49862024D01*
X40796867Y49495337D01*
X40972479Y49143706D01*
X41139205Y48809695D01*
X41295769Y48495870D01*
X41440892Y48204796D01*
X41573298Y47939038D01*
X41691707Y47701162D01*
X41794844Y47493733D01*
X41881429Y47319317D01*
X41950186Y47180478D01*
X41999836Y47079782D01*
X42029103Y47019794D01*
X42037000Y47002740D01*
X42012411Y47000228D01*
X41941894Y46997905D01*
X41830317Y46995818D01*
X41682552Y46994016D01*
X41503468Y46992547D01*
X41297937Y46991457D01*
X41070828Y46990795D01*
X40827011Y46990608D01*
X40798750Y46990619D01*
X39560500Y46991237D01*
X39557154Y46997883D01*
X39557154Y46964600D01*
X40798891Y46964600D01*
X41082755Y46964488D01*
X41319787Y46964063D01*
X41513957Y46963194D01*
X41669232Y46961748D01*
X41789581Y46959595D01*
X41878972Y46956602D01*
X41941373Y46952637D01*
X41980754Y46947569D01*
X42001081Y46941265D01*
X42006325Y46933595D01*
X42000714Y46924686D01*
X41967102Y46879864D01*
X41957792Y46854836D01*
X41957163Y46811237D01*
X41957792Y46805850D01*
X41942146Y46787065D01*
X41938481Y46786800D01*
X41915897Y46765853D01*
X41887798Y46716398D01*
X41863492Y46658522D01*
X41852282Y46612307D01*
X41853160Y46602650D01*
X41840920Y46583932D01*
X41836881Y46583600D01*
X41814297Y46562653D01*
X41786198Y46513198D01*
X41761892Y46455322D01*
X41750682Y46409107D01*
X41751560Y46399450D01*
X41739036Y46380880D01*
X41733911Y46380400D01*
X41709948Y46359419D01*
X41686957Y46312411D01*
X41675254Y46263285D01*
X41676367Y46247050D01*
X41663000Y46228309D01*
X41659081Y46228000D01*
X41636497Y46207053D01*
X41608398Y46157598D01*
X41584092Y46099722D01*
X41572882Y46053507D01*
X41573760Y46043850D01*
X41561520Y46025132D01*
X41557481Y46024800D01*
X41534897Y46003853D01*
X41506798Y45954398D01*
X41482492Y45896522D01*
X41471282Y45850307D01*
X41472160Y45840650D01*
X41459920Y45821932D01*
X41455881Y45821600D01*
X41433297Y45800653D01*
X41405198Y45751198D01*
X41380892Y45693322D01*
X41369682Y45647107D01*
X41370560Y45637450D01*
X41358320Y45618732D01*
X41354281Y45618400D01*
X41331697Y45597453D01*
X41303598Y45547998D01*
X41279292Y45490122D01*
X41268082Y45443907D01*
X41268960Y45434250D01*
X41256436Y45415680D01*
X41251311Y45415200D01*
X41227348Y45394219D01*
X41204357Y45347211D01*
X41192654Y45298085D01*
X41193767Y45281850D01*
X41179559Y45263640D01*
X41171900Y45262800D01*
X41156731Y45247240D01*
X41160700Y45237400D01*
X41159660Y45213952D01*
X41151210Y45212000D01*
X41126241Y45190994D01*
X41102635Y45143868D01*
X41090949Y45094466D01*
X41092167Y45078650D01*
X41078800Y45059909D01*
X41074881Y45059600D01*
X41052297Y45038653D01*
X41024198Y44989198D01*
X40999892Y44931322D01*
X40988682Y44885107D01*
X40989560Y44875450D01*
X40977320Y44856732D01*
X40973281Y44856400D01*
X40950697Y44835453D01*
X40922598Y44785998D01*
X40898292Y44728122D01*
X40887082Y44681907D01*
X40887960Y44672250D01*
X40875436Y44653680D01*
X40870311Y44653200D01*
X40846348Y44632219D01*
X40823357Y44585211D01*
X40811654Y44536085D01*
X40812767Y44519850D01*
X40798559Y44501640D01*
X40790900Y44500800D01*
X40775731Y44485240D01*
X40779700Y44475400D01*
X40778660Y44451952D01*
X40770210Y44450000D01*
X40745241Y44428994D01*
X40721635Y44381868D01*
X40709949Y44332466D01*
X40711167Y44316650D01*
X40697800Y44297909D01*
X40693881Y44297600D01*
X40671297Y44276653D01*
X40643198Y44227198D01*
X40618892Y44169322D01*
X40607682Y44123107D01*
X40608560Y44113450D01*
X40596320Y44094732D01*
X40592281Y44094400D01*
X40569697Y44073453D01*
X40541598Y44023998D01*
X40517292Y43966122D01*
X40506082Y43919907D01*
X40506960Y43910250D01*
X40494720Y43891532D01*
X40490681Y43891200D01*
X40468097Y43870253D01*
X40439998Y43820798D01*
X40415692Y43762922D01*
X40404482Y43716707D01*
X40405360Y43707050D01*
X40392836Y43688480D01*
X40387711Y43688000D01*
X40363748Y43667019D01*
X40340757Y43620011D01*
X40329054Y43570885D01*
X40330167Y43554650D01*
X40316800Y43535909D01*
X40312881Y43535600D01*
X40290936Y43515486D01*
X40263999Y43469134D01*
X40242090Y43417530D01*
X40235232Y43381662D01*
X40237319Y43377344D01*
X40228226Y43355621D01*
X40194071Y43313314D01*
X40189150Y43307965D01*
X40136532Y43228952D01*
X40128972Y43148377D01*
X40128992Y43148250D01*
X40113346Y43129465D01*
X40109681Y43129200D01*
X40087097Y43108253D01*
X40058998Y43058798D01*
X40034692Y43000922D01*
X40023482Y42954707D01*
X40024360Y42945050D01*
X40011836Y42926480D01*
X40006711Y42926000D01*
X39982748Y42905019D01*
X39959757Y42858011D01*
X39948054Y42808885D01*
X39949167Y42792650D01*
X39935800Y42773909D01*
X39931881Y42773600D01*
X39909297Y42752653D01*
X39881198Y42703198D01*
X39856892Y42645322D01*
X39845682Y42599107D01*
X39846560Y42589450D01*
X39834320Y42570732D01*
X39830281Y42570400D01*
X39807925Y42549704D01*
X39780250Y42501603D01*
X39757406Y42447082D01*
X39749538Y42407125D01*
X39750038Y42404466D01*
X39736918Y42377351D01*
X39708218Y42346227D01*
X39655580Y42271465D01*
X39641935Y42195750D01*
X39628603Y42166174D01*
X39621478Y42164000D01*
X39600317Y42143082D01*
X39579084Y42096382D01*
X39567407Y42047984D01*
X39568167Y42030650D01*
X39554800Y42011909D01*
X39550881Y42011600D01*
X39528297Y41990653D01*
X39500198Y41941198D01*
X39475892Y41883322D01*
X39464682Y41837107D01*
X39465560Y41827450D01*
X39453320Y41808732D01*
X39449281Y41808400D01*
X39426697Y41787453D01*
X39398598Y41737998D01*
X39374292Y41680122D01*
X39363082Y41633907D01*
X39363960Y41624250D01*
X39351720Y41605532D01*
X39347681Y41605200D01*
X39325097Y41584253D01*
X39296998Y41534798D01*
X39272692Y41476922D01*
X39261482Y41430707D01*
X39262360Y41421050D01*
X39249836Y41402480D01*
X39244711Y41402000D01*
X39220748Y41381019D01*
X39197757Y41334011D01*
X39186054Y41284885D01*
X39187167Y41268650D01*
X39173800Y41249909D01*
X39169881Y41249600D01*
X39147297Y41228653D01*
X39119198Y41179198D01*
X39094892Y41121322D01*
X39083682Y41075107D01*
X39084560Y41065450D01*
X39072320Y41046732D01*
X39068281Y41046400D01*
X39045697Y41025453D01*
X39017598Y40975998D01*
X38993292Y40918122D01*
X38982082Y40871907D01*
X38982960Y40862250D01*
X38970720Y40843532D01*
X38966681Y40843200D01*
X38945384Y40822617D01*
X38916918Y40774204D01*
X38891215Y40717967D01*
X38878209Y40673912D01*
X38878409Y40665400D01*
X38865219Y40639716D01*
X38839998Y40610716D01*
X38829667Y40604075D01*
X38817014Y40606255D01*
X38800143Y40620653D01*
X38777154Y40650664D01*
X38746150Y40699687D01*
X38705233Y40771118D01*
X38652505Y40868354D01*
X38586068Y40994793D01*
X38504023Y41153830D01*
X38404474Y41348864D01*
X38285521Y41583292D01*
X38179210Y41793378D01*
X37559921Y43018024D01*
X37680881Y43250859D01*
X37732829Y43345869D01*
X37778052Y43419457D01*
X37810810Y43462800D01*
X37823630Y43470228D01*
X37835529Y43476273D01*
X37831487Y43493065D01*
X37833395Y43533379D01*
X37854549Y43586806D01*
X37885441Y43637171D01*
X37916562Y43668297D01*
X37934830Y43668859D01*
X37944285Y43667712D01*
X37938649Y43679747D01*
X37934671Y43720083D01*
X37949976Y43770376D01*
X37975594Y43811559D01*
X38002553Y43824563D01*
X38006038Y43822980D01*
X38019374Y43823803D01*
X38013699Y43836195D01*
X38011085Y43874577D01*
X38027730Y43929687D01*
X38055281Y43984411D01*
X38085383Y44021636D01*
X38106712Y44026752D01*
X38121200Y44026768D01*
X38116203Y44037932D01*
X38114279Y44075336D01*
X38131324Y44130118D01*
X38158936Y44185102D01*
X38188714Y44223111D01*
X38209710Y44229088D01*
X38222753Y44230269D01*
X38217691Y44241313D01*
X38218927Y44275781D01*
X38239014Y44336780D01*
X38271383Y44411085D01*
X38309465Y44485470D01*
X38346690Y44546710D01*
X38376490Y44581579D01*
X38388069Y44584343D01*
X38400482Y44585980D01*
X38395199Y44597385D01*
X38402230Y44625419D01*
X38429744Y44692561D01*
X38475017Y44793368D01*
X38535323Y44922400D01*
X38607939Y45074214D01*
X38690137Y45243369D01*
X38779194Y45424424D01*
X38872383Y45611937D01*
X38966980Y45800466D01*
X39060260Y45984570D01*
X39149497Y46158808D01*
X39231966Y46317737D01*
X39304942Y46455916D01*
X39365700Y46567903D01*
X39411515Y46648258D01*
X39439661Y46691538D01*
X39446929Y46697450D01*
X39460423Y46702516D01*
X39456334Y46720826D01*
X39459185Y46764608D01*
X39483439Y46830719D01*
X39499402Y46861846D01*
X39557154Y46964600D01*
X39557154Y46997883D01*
X38557200Y48984334D01*
X37553900Y50977430D01*
X35568490Y50977615D01*
X33583081Y50977801D01*
X32949317Y52228751D01*
X32315554Y53479700D01*
X30909241Y53485343D01*
X30909241Y52841777D01*
X31050698Y52841605D01*
X31185028Y52827765D01*
X31293556Y52800288D01*
X31294200Y52800040D01*
X31434568Y52719751D01*
X31552995Y52600135D01*
X31644218Y52449849D01*
X31702975Y52277550D01*
X31723997Y52093114D01*
X31717338Y51981615D01*
X31699299Y51850111D01*
X31673785Y51727042D01*
X31673741Y51726872D01*
X31648940Y51633240D01*
X31628094Y51560608D01*
X31614818Y51521388D01*
X31612943Y51518077D01*
X31585343Y51515693D01*
X31516581Y51516067D01*
X31416208Y51518986D01*
X31293776Y51524235D01*
X31257402Y51526064D01*
X30928469Y51543124D01*
X30928469Y50613930D01*
X31130702Y50609488D01*
X31308547Y50563233D01*
X31458964Y50479448D01*
X31578913Y50362416D01*
X31665355Y50216420D01*
X31715251Y50045742D01*
X31725563Y49854666D01*
X31693250Y49647475D01*
X31676262Y49589304D01*
X31676262Y49271767D01*
X31687226Y49252722D01*
X31695337Y49194632D01*
X31699099Y49109235D01*
X31699200Y49091639D01*
X31699200Y48903044D01*
X31545983Y48856653D01*
X31392767Y48810263D01*
X31399933Y48544538D01*
X31407100Y48278813D01*
X31546800Y48236831D01*
X31686500Y48194850D01*
X31693915Y47998969D01*
X31701331Y47803088D01*
X31528815Y47866932D01*
X31452919Y47895022D01*
X31339356Y47937056D01*
X31198103Y47989342D01*
X31039133Y48048187D01*
X30872422Y48109900D01*
X30822900Y48128232D01*
X30289500Y48325689D01*
X30282410Y48540495D01*
X30276800Y48710484D01*
X30276800Y47599600D01*
X31699200Y47599600D01*
X31699200Y47269400D01*
X31229300Y47269400D01*
X31081223Y47268425D01*
X30952440Y47265711D01*
X30850828Y47261580D01*
X30784265Y47256351D01*
X30760628Y47250350D01*
X30781680Y47232046D01*
X30839895Y47191522D01*
X30928989Y47132884D01*
X31042680Y47060240D01*
X31174684Y46977695D01*
X31230528Y46943241D01*
X31699200Y46655182D01*
X31699200Y46304200D01*
X30926516Y46304200D01*
X30926516Y45358729D01*
X31124786Y45355854D01*
X31291741Y45317311D01*
X31434381Y45240783D01*
X31526612Y45160188D01*
X31621049Y45044914D01*
X31681091Y44924006D01*
X31711010Y44784459D01*
X31715078Y44613267D01*
X31714017Y44589700D01*
X31702861Y44473276D01*
X31699200Y44451872D01*
X31699200Y43865800D01*
X31699200Y43536697D01*
X31212167Y43529799D01*
X30725134Y43522900D01*
X31699200Y42921346D01*
X31699200Y42570400D01*
X30911322Y42570400D01*
X30911322Y42278921D01*
X31080663Y42278504D01*
X31245559Y42248175D01*
X31397127Y42188095D01*
X31526486Y42098425D01*
X31624753Y41979326D01*
X31638193Y41955276D01*
X31688717Y41814620D01*
X31713098Y41646536D01*
X31710937Y41467390D01*
X31681839Y41293545D01*
X31656238Y41211500D01*
X31608897Y41084500D01*
X31260847Y41069330D01*
X31316603Y41153115D01*
X31390844Y41279762D01*
X31430814Y41390975D01*
X31441668Y41503355D01*
X31439353Y41548354D01*
X31407959Y41689048D01*
X31339788Y41795031D01*
X31234515Y41866562D01*
X31091817Y41903901D01*
X30988000Y41910000D01*
X30822749Y41893128D01*
X30695156Y41842289D01*
X30604806Y41757151D01*
X30551286Y41637382D01*
X30536563Y41547362D01*
X30535002Y41449393D01*
X30553371Y41366157D01*
X30591053Y41281406D01*
X30631334Y41207684D01*
X30666204Y41153750D01*
X30682717Y41135599D01*
X30709876Y41107080D01*
X30688691Y41086398D01*
X30621140Y41074464D01*
X30544152Y41071800D01*
X30454181Y41073393D01*
X30400626Y41081594D01*
X30369124Y41101538D01*
X30345310Y41138360D01*
X30342404Y41143931D01*
X30288438Y41295141D01*
X30264394Y41470591D01*
X30269785Y41653831D01*
X30304122Y41828408D01*
X30366919Y41977872D01*
X30367148Y41978263D01*
X30465448Y42099098D01*
X30594832Y42189379D01*
X30746418Y42249266D01*
X30911322Y42278921D01*
X30911322Y42570400D01*
X30276800Y42570400D01*
X30276800Y42899342D01*
X31088728Y42913300D01*
X30289500Y43423290D01*
X30274822Y43865800D01*
X31699200Y43865800D01*
X31699200Y44451872D01*
X31683281Y44358801D01*
X31659385Y44269969D01*
X31657857Y44265850D01*
X31612042Y44145200D01*
X31439721Y44145200D01*
X31337642Y44148763D01*
X31282568Y44160663D01*
X31271124Y44182721D01*
X31299937Y44216757D01*
X31302716Y44219090D01*
X31332084Y44257919D01*
X31369755Y44326327D01*
X31394542Y44379762D01*
X31434132Y44522226D01*
X31433990Y44663068D01*
X31394843Y44788765D01*
X31370417Y44829009D01*
X31287177Y44905324D01*
X31171702Y44956596D01*
X31037066Y44980761D01*
X30896344Y44975749D01*
X30762607Y44939496D01*
X30738926Y44928837D01*
X30633553Y44852454D01*
X30565937Y44748142D01*
X30537362Y44623331D01*
X30549110Y44485451D01*
X30602465Y44341930D01*
X30629429Y44294583D01*
X30671744Y44224796D01*
X30700471Y44174135D01*
X30708600Y44156213D01*
X30685429Y44150594D01*
X30624827Y44146626D01*
X30544152Y44145200D01*
X30454181Y44146793D01*
X30400626Y44154994D01*
X30369124Y44174938D01*
X30345310Y44211760D01*
X30342404Y44217331D01*
X30308176Y44310257D01*
X30280757Y44434058D01*
X30263055Y44568962D01*
X30257979Y44695193D01*
X30262478Y44760652D01*
X30309501Y44946407D01*
X30395620Y45100782D01*
X30518271Y45221468D01*
X30674889Y45306155D01*
X30862911Y45352534D01*
X30926516Y45358729D01*
X30926516Y46304200D01*
X30276800Y46304200D01*
X30276800Y46634400D01*
X30671999Y46634400D01*
X30805987Y46635628D01*
X30918902Y46639017D01*
X31002485Y46644128D01*
X31048479Y46650520D01*
X31054600Y46654784D01*
X31029942Y46674282D01*
X30969280Y46715825D01*
X30879783Y46774687D01*
X30768623Y46846144D01*
X30659469Y46915134D01*
X30276935Y47155100D01*
X30276867Y47377350D01*
X30276800Y47599600D01*
X30276800Y48710484D01*
X30275321Y48755300D01*
X30964323Y49009300D01*
X31141404Y49074582D01*
X31303213Y49134233D01*
X31443548Y49185969D01*
X31556210Y49227504D01*
X31634998Y49256552D01*
X31673713Y49270827D01*
X31676262Y49271767D01*
X31676262Y49589304D01*
X31670226Y49568634D01*
X31615852Y49403000D01*
X31441626Y49403000D01*
X31354969Y49404469D01*
X31292582Y49408328D01*
X31267447Y49413756D01*
X31267400Y49414013D01*
X31279740Y49439750D01*
X31311731Y49495208D01*
X31346570Y49552383D01*
X31416304Y49701877D01*
X31439862Y49844354D01*
X31420373Y49973802D01*
X31360966Y50084209D01*
X31264771Y50169564D01*
X31134916Y50223856D01*
X30988000Y50241200D01*
X30843790Y50222755D01*
X30714519Y50171569D01*
X30614440Y50093865D01*
X30594445Y50069381D01*
X30561332Y50004067D01*
X30545936Y49915679D01*
X30543645Y49845258D01*
X30548605Y49743902D01*
X30568950Y49664590D01*
X30612531Y49579934D01*
X30626050Y49557820D01*
X30669364Y49486493D01*
X30699256Y49434117D01*
X30708600Y49414013D01*
X30685348Y49408575D01*
X30624178Y49404640D01*
X30537967Y49403008D01*
X30531509Y49403000D01*
X30354419Y49403000D01*
X30310470Y49549050D01*
X30282360Y49681428D01*
X30269001Y49831213D01*
X30270360Y49981261D01*
X30286406Y50114423D01*
X30311658Y50201733D01*
X30403290Y50360361D01*
X30526490Y50480302D01*
X30682720Y50562532D01*
X30873446Y50608030D01*
X30928469Y50613930D01*
X30928469Y51543124D01*
X30911800Y51543989D01*
X30911800Y52171600D01*
X31191200Y52171600D01*
X31191200Y51892200D01*
X31476517Y51892200D01*
X31466022Y52057027D01*
X31446807Y52189899D01*
X31403180Y52290890D01*
X31326699Y52376343D01*
X31283017Y52411331D01*
X31237214Y52438536D01*
X31180594Y52454593D01*
X31099149Y52462100D01*
X31000700Y52463700D01*
X30887383Y52461389D01*
X30810720Y52452722D01*
X30756703Y52435101D01*
X30718382Y52411331D01*
X30627139Y52329618D01*
X30571289Y52240439D01*
X30542641Y52127609D01*
X30535540Y52050139D01*
X30532773Y51957088D01*
X30540162Y51886544D01*
X30562622Y51817980D01*
X30605068Y51730867D01*
X30617733Y51706880D01*
X30709454Y51534260D01*
X30368864Y51549300D01*
X30319259Y51689000D01*
X30283316Y51833858D01*
X30266505Y52000150D01*
X30268676Y52170362D01*
X30289680Y52326980D01*
X30325699Y52444438D01*
X30408404Y52580467D01*
X30523609Y52700892D01*
X30655320Y52789600D01*
X30679655Y52801003D01*
X30779335Y52828253D01*
X30909241Y52841777D01*
X30909241Y53485343D01*
X30686577Y53486237D01*
X29057600Y53492773D01*
X29057600Y40487600D01*
X32321739Y40487600D01*
G37*
X32321739Y40487600D02*
X33578887Y43002510D01*
X35561619Y42996005D01*
X37544352Y42989500D01*
X37950844Y42189400D01*
X38058312Y41977826D01*
X38169765Y41758330D01*
X38280255Y41540658D01*
X38384839Y41334554D01*
X38478570Y41149765D01*
X38556503Y40996034D01*
X38585675Y40938450D01*
X38814015Y40487600D01*
X42062400Y40487600D01*
X42062400Y53492400D01*
X40436800Y53492400D01*
X40154590Y53492207D01*
X39887919Y53491649D01*
X39641039Y53490759D01*
X39418200Y53489571D01*
X39223653Y53488118D01*
X39061648Y53486434D01*
X38936436Y53484551D01*
X38852268Y53482503D01*
X38813394Y53480324D01*
X38811200Y53479661D01*
X38822354Y53455855D01*
X38854966Y53389186D01*
X38907757Y53282219D01*
X38979450Y53137519D01*
X39068768Y52957652D01*
X39174432Y52745183D01*
X39295165Y52502676D01*
X39429690Y52232698D01*
X39576728Y51937814D01*
X39735003Y51620589D01*
X39903235Y51283589D01*
X40080149Y50929378D01*
X40264466Y50560522D01*
X40424100Y50241201D01*
X40613648Y49862024D01*
X40796867Y49495337D01*
X40972479Y49143706D01*
X41139205Y48809695D01*
X41295769Y48495870D01*
X41440892Y48204796D01*
X41573298Y47939038D01*
X41691707Y47701162D01*
X41794844Y47493733D01*
X41881429Y47319317D01*
X41950186Y47180478D01*
X41999836Y47079782D01*
X42029103Y47019794D01*
X42037000Y47002740D01*
X42012411Y47000228D01*
X41941894Y46997905D01*
X41830317Y46995818D01*
X41682552Y46994016D01*
X41503468Y46992547D01*
X41297937Y46991457D01*
X41070828Y46990795D01*
X40827011Y46990608D01*
X40798750Y46990619D01*
X39560500Y46991237D01*
X39557154Y46997883D01*
X39557154Y46964600D01*
X40798891Y46964600D01*
X41082755Y46964488D01*
X41319787Y46964063D01*
X41513957Y46963194D01*
X41669232Y46961748D01*
X41789581Y46959595D01*
X41878972Y46956602D01*
X41941373Y46952637D01*
X41980754Y46947569D01*
X42001081Y46941265D01*
X42006325Y46933595D01*
X42000714Y46924686D01*
X41967102Y46879864D01*
X41957792Y46854836D01*
X41957163Y46811237D01*
X41957792Y46805850D01*
X41942146Y46787065D01*
X41938481Y46786800D01*
X41915897Y46765853D01*
X41887798Y46716398D01*
X41863492Y46658522D01*
X41852282Y46612307D01*
X41853160Y46602650D01*
X41840920Y46583932D01*
X41836881Y46583600D01*
X41814297Y46562653D01*
X41786198Y46513198D01*
X41761892Y46455322D01*
X41750682Y46409107D01*
X41751560Y46399450D01*
X41739036Y46380880D01*
X41733911Y46380400D01*
X41709948Y46359419D01*
X41686957Y46312411D01*
X41675254Y46263285D01*
X41676367Y46247050D01*
X41663000Y46228309D01*
X41659081Y46228000D01*
X41636497Y46207053D01*
X41608398Y46157598D01*
X41584092Y46099722D01*
X41572882Y46053507D01*
X41573760Y46043850D01*
X41561520Y46025132D01*
X41557481Y46024800D01*
X41534897Y46003853D01*
X41506798Y45954398D01*
X41482492Y45896522D01*
X41471282Y45850307D01*
X41472160Y45840650D01*
X41459920Y45821932D01*
X41455881Y45821600D01*
X41433297Y45800653D01*
X41405198Y45751198D01*
X41380892Y45693322D01*
X41369682Y45647107D01*
X41370560Y45637450D01*
X41358320Y45618732D01*
X41354281Y45618400D01*
X41331697Y45597453D01*
X41303598Y45547998D01*
X41279292Y45490122D01*
X41268082Y45443907D01*
X41268960Y45434250D01*
X41256436Y45415680D01*
X41251311Y45415200D01*
X41227348Y45394219D01*
X41204357Y45347211D01*
X41192654Y45298085D01*
X41193767Y45281850D01*
X41179559Y45263640D01*
X41171900Y45262800D01*
X41156731Y45247240D01*
X41160700Y45237400D01*
X41159660Y45213952D01*
X41151210Y45212000D01*
X41126241Y45190994D01*
X41102635Y45143868D01*
X41090949Y45094466D01*
X41092167Y45078650D01*
X41078800Y45059909D01*
X41074881Y45059600D01*
X41052297Y45038653D01*
X41024198Y44989198D01*
X40999892Y44931322D01*
X40988682Y44885107D01*
X40989560Y44875450D01*
X40977320Y44856732D01*
X40973281Y44856400D01*
X40950697Y44835453D01*
X40922598Y44785998D01*
X40898292Y44728122D01*
X40887082Y44681907D01*
X40887960Y44672250D01*
X40875436Y44653680D01*
X40870311Y44653200D01*
X40846348Y44632219D01*
X40823357Y44585211D01*
X40811654Y44536085D01*
X40812767Y44519850D01*
X40798559Y44501640D01*
X40790900Y44500800D01*
X40775731Y44485240D01*
X40779700Y44475400D01*
X40778660Y44451952D01*
X40770210Y44450000D01*
X40745241Y44428994D01*
X40721635Y44381868D01*
X40709949Y44332466D01*
X40711167Y44316650D01*
X40697800Y44297909D01*
X40693881Y44297600D01*
X40671297Y44276653D01*
X40643198Y44227198D01*
X40618892Y44169322D01*
X40607682Y44123107D01*
X40608560Y44113450D01*
X40596320Y44094732D01*
X40592281Y44094400D01*
X40569697Y44073453D01*
X40541598Y44023998D01*
X40517292Y43966122D01*
X40506082Y43919907D01*
X40506960Y43910250D01*
X40494720Y43891532D01*
X40490681Y43891200D01*
X40468097Y43870253D01*
X40439998Y43820798D01*
X40415692Y43762922D01*
X40404482Y43716707D01*
X40405360Y43707050D01*
X40392836Y43688480D01*
X40387711Y43688000D01*
X40363748Y43667019D01*
X40340757Y43620011D01*
X40329054Y43570885D01*
X40330167Y43554650D01*
X40316800Y43535909D01*
X40312881Y43535600D01*
X40290936Y43515486D01*
X40263999Y43469134D01*
X40242090Y43417530D01*
X40235232Y43381662D01*
X40237319Y43377344D01*
X40228226Y43355621D01*
X40194071Y43313314D01*
X40189150Y43307965D01*
X40136532Y43228952D01*
X40128972Y43148377D01*
X40128992Y43148250D01*
X40113346Y43129465D01*
X40109681Y43129200D01*
X40087097Y43108253D01*
X40058998Y43058798D01*
X40034692Y43000922D01*
X40023482Y42954707D01*
X40024360Y42945050D01*
X40011836Y42926480D01*
X40006711Y42926000D01*
X39982748Y42905019D01*
X39959757Y42858011D01*
X39948054Y42808885D01*
X39949167Y42792650D01*
X39935800Y42773909D01*
X39931881Y42773600D01*
X39909297Y42752653D01*
X39881198Y42703198D01*
X39856892Y42645322D01*
X39845682Y42599107D01*
X39846560Y42589450D01*
X39834320Y42570732D01*
X39830281Y42570400D01*
X39807925Y42549704D01*
X39780250Y42501603D01*
X39757406Y42447082D01*
X39749538Y42407125D01*
X39750038Y42404466D01*
X39736918Y42377351D01*
X39708218Y42346227D01*
X39655580Y42271465D01*
X39641935Y42195750D01*
X39628603Y42166174D01*
X39621478Y42164000D01*
X39600317Y42143082D01*
X39579084Y42096382D01*
X39567407Y42047984D01*
X39568167Y42030650D01*
X39554800Y42011909D01*
X39550881Y42011600D01*
X39528297Y41990653D01*
X39500198Y41941198D01*
X39475892Y41883322D01*
X39464682Y41837107D01*
X39465560Y41827450D01*
X39453320Y41808732D01*
X39449281Y41808400D01*
X39426697Y41787453D01*
X39398598Y41737998D01*
X39374292Y41680122D01*
X39363082Y41633907D01*
X39363960Y41624250D01*
X39351720Y41605532D01*
X39347681Y41605200D01*
X39325097Y41584253D01*
X39296998Y41534798D01*
X39272692Y41476922D01*
X39261482Y41430707D01*
X39262360Y41421050D01*
X39249836Y41402480D01*
X39244711Y41402000D01*
X39220748Y41381019D01*
X39197757Y41334011D01*
X39186054Y41284885D01*
X39187167Y41268650D01*
X39173800Y41249909D01*
X39169881Y41249600D01*
X39147297Y41228653D01*
X39119198Y41179198D01*
X39094892Y41121322D01*
X39083682Y41075107D01*
X39084560Y41065450D01*
X39072320Y41046732D01*
X39068281Y41046400D01*
X39045697Y41025453D01*
X39017598Y40975998D01*
X38993292Y40918122D01*
X38982082Y40871907D01*
X38982960Y40862250D01*
X38970720Y40843532D01*
X38966681Y40843200D01*
X38945384Y40822617D01*
X38916918Y40774204D01*
X38891215Y40717967D01*
X38878209Y40673912D01*
X38878409Y40665400D01*
X38865219Y40639716D01*
X38839998Y40610716D01*
X38829667Y40604075D01*
X38817014Y40606255D01*
X38800143Y40620653D01*
X38777154Y40650664D01*
X38746150Y40699687D01*
X38705233Y40771118D01*
X38652505Y40868354D01*
X38586068Y40994793D01*
X38504023Y41153830D01*
X38404474Y41348864D01*
X38285521Y41583292D01*
X38179210Y41793378D01*
X37559921Y43018024D01*
X37680881Y43250859D01*
X37732829Y43345869D01*
X37778052Y43419457D01*
X37810810Y43462800D01*
X37823630Y43470228D01*
X37835529Y43476273D01*
X37831487Y43493065D01*
X37833395Y43533379D01*
X37854549Y43586806D01*
X37885441Y43637171D01*
X37916562Y43668297D01*
X37934830Y43668859D01*
X37944285Y43667712D01*
X37938649Y43679747D01*
X37934671Y43720083D01*
X37949976Y43770376D01*
X37975594Y43811559D01*
X38002553Y43824563D01*
X38006038Y43822980D01*
X38019374Y43823803D01*
X38013699Y43836195D01*
X38011085Y43874577D01*
X38027730Y43929687D01*
X38055281Y43984411D01*
X38085383Y44021636D01*
X38106712Y44026752D01*
X38121200Y44026768D01*
X38116203Y44037932D01*
X38114279Y44075336D01*
X38131324Y44130118D01*
X38158936Y44185102D01*
X38188714Y44223111D01*
X38209710Y44229088D01*
X38222753Y44230269D01*
X38217691Y44241313D01*
X38218927Y44275781D01*
X38239014Y44336780D01*
X38271383Y44411085D01*
X38309465Y44485470D01*
X38346690Y44546710D01*
X38376490Y44581579D01*
X38388069Y44584343D01*
X38400482Y44585980D01*
X38395199Y44597385D01*
X38402230Y44625419D01*
X38429744Y44692561D01*
X38475017Y44793368D01*
X38535323Y44922400D01*
X38607939Y45074214D01*
X38690137Y45243369D01*
X38779194Y45424424D01*
X38872383Y45611937D01*
X38966980Y45800466D01*
X39060260Y45984570D01*
X39149497Y46158808D01*
X39231966Y46317737D01*
X39304942Y46455916D01*
X39365700Y46567903D01*
X39411515Y46648258D01*
X39439661Y46691538D01*
X39446929Y46697450D01*
X39460423Y46702516D01*
X39456334Y46720826D01*
X39459185Y46764608D01*
X39483439Y46830719D01*
X39499402Y46861846D01*
X39557154Y46964600D01*
X39557154Y46997883D01*
X38557200Y48984334D01*
X37553900Y50977430D01*
X35568490Y50977615D01*
X33583081Y50977801D01*
X32949317Y52228751D01*
X32315554Y53479700D01*
X30909241Y53485343D01*
X30909241Y52841777D01*
X31050698Y52841605D01*
X31185028Y52827765D01*
X31293556Y52800288D01*
X31294200Y52800040D01*
X31434568Y52719751D01*
X31552995Y52600135D01*
X31644218Y52449849D01*
X31702975Y52277550D01*
X31723997Y52093114D01*
X31717338Y51981615D01*
X31699299Y51850111D01*
X31673785Y51727042D01*
X31673741Y51726872D01*
X31648940Y51633240D01*
X31628094Y51560608D01*
X31614818Y51521388D01*
X31612943Y51518077D01*
X31585343Y51515693D01*
X31516581Y51516067D01*
X31416208Y51518986D01*
X31293776Y51524235D01*
X31257402Y51526064D01*
X30928469Y51543124D01*
X30928469Y50613930D01*
X31130702Y50609488D01*
X31308547Y50563233D01*
X31458964Y50479448D01*
X31578913Y50362416D01*
X31665355Y50216420D01*
X31715251Y50045742D01*
X31725563Y49854666D01*
X31693250Y49647475D01*
X31676262Y49589304D01*
X31676262Y49271767D01*
X31687226Y49252722D01*
X31695337Y49194632D01*
X31699099Y49109235D01*
X31699200Y49091639D01*
X31699200Y48903044D01*
X31545983Y48856653D01*
X31392767Y48810263D01*
X31399933Y48544538D01*
X31407100Y48278813D01*
X31546800Y48236831D01*
X31686500Y48194850D01*
X31693915Y47998969D01*
X31701331Y47803088D01*
X31528815Y47866932D01*
X31452919Y47895022D01*
X31339356Y47937056D01*
X31198103Y47989342D01*
X31039133Y48048187D01*
X30872422Y48109900D01*
X30822900Y48128232D01*
X30289500Y48325689D01*
X30282410Y48540495D01*
X30276800Y48710484D01*
X30276800Y47599600D01*
X31699200Y47599600D01*
X31699200Y47269400D01*
X31229300Y47269400D01*
X31081223Y47268425D01*
X30952440Y47265711D01*
X30850828Y47261580D01*
X30784265Y47256351D01*
X30760628Y47250350D01*
X30781680Y47232046D01*
X30839895Y47191522D01*
X30928989Y47132884D01*
X31042680Y47060240D01*
X31174684Y46977695D01*
X31230528Y46943241D01*
X31699200Y46655182D01*
X31699200Y46304200D01*
X30926516Y46304200D01*
X30926516Y45358729D01*
X31124786Y45355854D01*
X31291741Y45317311D01*
X31434381Y45240783D01*
X31526612Y45160188D01*
X31621049Y45044914D01*
X31681091Y44924006D01*
X31711010Y44784459D01*
X31715078Y44613267D01*
X31714017Y44589700D01*
X31702861Y44473276D01*
X31699200Y44451872D01*
X31699200Y43865800D01*
X31699200Y43536697D01*
X31212167Y43529799D01*
X30725134Y43522900D01*
X31699200Y42921346D01*
X31699200Y42570400D01*
X30911322Y42570400D01*
X30911322Y42278921D01*
X31080663Y42278504D01*
X31245559Y42248175D01*
X31397127Y42188095D01*
X31526486Y42098425D01*
X31624753Y41979326D01*
X31638193Y41955276D01*
X31688717Y41814620D01*
X31713098Y41646536D01*
X31710937Y41467390D01*
X31681839Y41293545D01*
X31656238Y41211500D01*
X31608897Y41084500D01*
X31260847Y41069330D01*
X31316603Y41153115D01*
X31390844Y41279762D01*
X31430814Y41390975D01*
X31441668Y41503355D01*
X31439353Y41548354D01*
X31407959Y41689048D01*
X31339788Y41795031D01*
X31234515Y41866562D01*
X31091817Y41903901D01*
X30988000Y41910000D01*
X30822749Y41893128D01*
X30695156Y41842289D01*
X30604806Y41757151D01*
X30551286Y41637382D01*
X30536563Y41547362D01*
X30535002Y41449393D01*
X30553371Y41366157D01*
X30591053Y41281406D01*
X30631334Y41207684D01*
X30666204Y41153750D01*
X30682717Y41135599D01*
X30709876Y41107080D01*
X30688691Y41086398D01*
X30621140Y41074464D01*
X30544152Y41071800D01*
X30454181Y41073393D01*
X30400626Y41081594D01*
X30369124Y41101538D01*
X30345310Y41138360D01*
X30342404Y41143931D01*
X30288438Y41295141D01*
X30264394Y41470591D01*
X30269785Y41653831D01*
X30304122Y41828408D01*
X30366919Y41977872D01*
X30367148Y41978263D01*
X30465448Y42099098D01*
X30594832Y42189379D01*
X30746418Y42249266D01*
X30911322Y42278921D01*
X30911322Y42570400D01*
X30276800Y42570400D01*
X30276800Y42899342D01*
X31088728Y42913300D01*
X30289500Y43423290D01*
X30274822Y43865800D01*
X31699200Y43865800D01*
X31699200Y44451872D01*
X31683281Y44358801D01*
X31659385Y44269969D01*
X31657857Y44265850D01*
X31612042Y44145200D01*
X31439721Y44145200D01*
X31337642Y44148763D01*
X31282568Y44160663D01*
X31271124Y44182721D01*
X31299937Y44216757D01*
X31302716Y44219090D01*
X31332084Y44257919D01*
X31369755Y44326327D01*
X31394542Y44379762D01*
X31434132Y44522226D01*
X31433990Y44663068D01*
X31394843Y44788765D01*
X31370417Y44829009D01*
X31287177Y44905324D01*
X31171702Y44956596D01*
X31037066Y44980761D01*
X30896344Y44975749D01*
X30762607Y44939496D01*
X30738926Y44928837D01*
X30633553Y44852454D01*
X30565937Y44748142D01*
X30537362Y44623331D01*
X30549110Y44485451D01*
X30602465Y44341930D01*
X30629429Y44294583D01*
X30671744Y44224796D01*
X30700471Y44174135D01*
X30708600Y44156213D01*
X30685429Y44150594D01*
X30624827Y44146626D01*
X30544152Y44145200D01*
X30454181Y44146793D01*
X30400626Y44154994D01*
X30369124Y44174938D01*
X30345310Y44211760D01*
X30342404Y44217331D01*
X30308176Y44310257D01*
X30280757Y44434058D01*
X30263055Y44568962D01*
X30257979Y44695193D01*
X30262478Y44760652D01*
X30309501Y44946407D01*
X30395620Y45100782D01*
X30518271Y45221468D01*
X30674889Y45306155D01*
X30862911Y45352534D01*
X30926516Y45358729D01*
X30926516Y46304200D01*
X30276800Y46304200D01*
X30276800Y46634400D01*
X30671999Y46634400D01*
X30805987Y46635628D01*
X30918902Y46639017D01*
X31002485Y46644128D01*
X31048479Y46650520D01*
X31054600Y46654784D01*
X31029942Y46674282D01*
X30969280Y46715825D01*
X30879783Y46774687D01*
X30768623Y46846144D01*
X30659469Y46915134D01*
X30276935Y47155100D01*
X30276867Y47377350D01*
X30276800Y47599600D01*
X30276800Y48710484D01*
X30275321Y48755300D01*
X30964323Y49009300D01*
X31141404Y49074582D01*
X31303213Y49134233D01*
X31443548Y49185969D01*
X31556210Y49227504D01*
X31634998Y49256552D01*
X31673713Y49270827D01*
X31676262Y49271767D01*
X31676262Y49589304D01*
X31670226Y49568634D01*
X31615852Y49403000D01*
X31441626Y49403000D01*
X31354969Y49404469D01*
X31292582Y49408328D01*
X31267447Y49413756D01*
X31267400Y49414013D01*
X31279740Y49439750D01*
X31311731Y49495208D01*
X31346570Y49552383D01*
X31416304Y49701877D01*
X31439862Y49844354D01*
X31420373Y49973802D01*
X31360966Y50084209D01*
X31264771Y50169564D01*
X31134916Y50223856D01*
X30988000Y50241200D01*
X30843790Y50222755D01*
X30714519Y50171569D01*
X30614440Y50093865D01*
X30594445Y50069381D01*
X30561332Y50004067D01*
X30545936Y49915679D01*
X30543645Y49845258D01*
X30548605Y49743902D01*
X30568950Y49664590D01*
X30612531Y49579934D01*
X30626050Y49557820D01*
X30669364Y49486493D01*
X30699256Y49434117D01*
X30708600Y49414013D01*
X30685348Y49408575D01*
X30624178Y49404640D01*
X30537967Y49403008D01*
X30531509Y49403000D01*
X30354419Y49403000D01*
X30310470Y49549050D01*
X30282360Y49681428D01*
X30269001Y49831213D01*
X30270360Y49981261D01*
X30286406Y50114423D01*
X30311658Y50201733D01*
X30403290Y50360361D01*
X30526490Y50480302D01*
X30682720Y50562532D01*
X30873446Y50608030D01*
X30928469Y50613930D01*
X30928469Y51543124D01*
X30911800Y51543989D01*
X30911800Y52171600D01*
X31191200Y52171600D01*
X31191200Y51892200D01*
X31476517Y51892200D01*
X31466022Y52057027D01*
X31446807Y52189899D01*
X31403180Y52290890D01*
X31326699Y52376343D01*
X31283017Y52411331D01*
X31237214Y52438536D01*
X31180594Y52454593D01*
X31099149Y52462100D01*
X31000700Y52463700D01*
X30887383Y52461389D01*
X30810720Y52452722D01*
X30756703Y52435101D01*
X30718382Y52411331D01*
X30627139Y52329618D01*
X30571289Y52240439D01*
X30542641Y52127609D01*
X30535540Y52050139D01*
X30532773Y51957088D01*
X30540162Y51886544D01*
X30562622Y51817980D01*
X30605068Y51730867D01*
X30617733Y51706880D01*
X30709454Y51534260D01*
X30368864Y51549300D01*
X30319259Y51689000D01*
X30283316Y51833858D01*
X30266505Y52000150D01*
X30268676Y52170362D01*
X30289680Y52326980D01*
X30325699Y52444438D01*
X30408404Y52580467D01*
X30523609Y52700892D01*
X30655320Y52789600D01*
X30679655Y52801003D01*
X30779335Y52828253D01*
X30909241Y52841777D01*
X30909241Y53485343D01*
X30686577Y53486237D01*
X29057600Y53492773D01*
X29057600Y40487600D01*
X32321739Y40487600D01*
G36*
X59550122Y65942224D02*
G01*
X59444388Y65941645D01*
X59367868Y65940078D01*
X59315628Y65937028D01*
X59282737Y65932004D01*
X59264263Y65924511D01*
X59255273Y65914056D01*
X59250837Y65900147D01*
X59250406Y65898346D01*
X59243667Y65865855D01*
X59231192Y65801748D01*
X59214281Y65712849D01*
X59194229Y65605981D01*
X59172336Y65487967D01*
X59171571Y65483822D01*
X59149641Y65368169D01*
X59129123Y65265986D01*
X59111341Y65183402D01*
X59097619Y65126544D01*
X59089282Y65101542D01*
X59088884Y65101099D01*
X59064323Y65088890D01*
X59013685Y65068544D01*
X58947905Y65044455D01*
X58947539Y65044326D01*
X58864683Y65013182D01*
X58767000Y64973509D01*
X58674923Y64933619D01*
X58670566Y64931647D01*
X58520593Y64863580D01*
X58188502Y65090361D01*
X58086626Y65159496D01*
X57994343Y65221303D01*
X57916997Y65272267D01*
X57859936Y65308873D01*
X57828505Y65327606D01*
X57825521Y65328996D01*
X57802679Y65322810D01*
X57760018Y65292965D01*
X57695872Y65238053D01*
X57608579Y65156666D01*
X57519465Y65070078D01*
X57433559Y64984753D01*
X57356673Y64906892D01*
X57293436Y64841303D01*
X57248477Y64792795D01*
X57226424Y64766175D01*
X57225604Y64764805D01*
X57223166Y64746537D01*
X57232350Y64716705D01*
X57255426Y64671279D01*
X57294663Y64606230D01*
X57352330Y64517530D01*
X57429205Y64403343D01*
X57497430Y64302838D01*
X57558418Y64212697D01*
X57608644Y64138151D01*
X57644584Y64084435D01*
X57662713Y64056782D01*
X57663854Y64054905D01*
X57661641Y64028410D01*
X57644862Y63976914D01*
X57616858Y63910149D01*
X57606878Y63888828D01*
X57563328Y63793841D01*
X57516866Y63686063D01*
X57479123Y63592808D01*
X57451927Y63523594D01*
X57430325Y63470994D01*
X57417842Y63443503D01*
X57416291Y63441384D01*
X57393332Y63437876D01*
X57339214Y63428262D01*
X57261132Y63413911D01*
X57166281Y63396193D01*
X57061857Y63376475D01*
X56955056Y63356126D01*
X56853074Y63336514D01*
X56763106Y63319009D01*
X56692347Y63304978D01*
X56647994Y63295791D01*
X56637115Y63293193D01*
X56625878Y63286782D01*
X56617395Y63272303D01*
X56611286Y63244867D01*
X56607168Y63199589D01*
X56604659Y63131580D01*
X56603379Y63035953D01*
X56602946Y62907820D01*
X56602923Y62855299D01*
X56602923Y62428155D01*
X56705500Y62407909D01*
X56762569Y62396930D01*
X56847731Y62380905D01*
X56950628Y62361767D01*
X57060904Y62341449D01*
X57091385Y62335868D01*
X57193145Y62316083D01*
X57281795Y62296627D01*
X57349892Y62279303D01*
X57389996Y62265912D01*
X57396677Y62261921D01*
X57413081Y62233658D01*
X57436601Y62178891D01*
X57462684Y62108412D01*
X57467858Y62093231D01*
X57502044Y61999104D01*
X57544477Y61892899D01*
X57586003Y61797527D01*
X57586208Y61797084D01*
X57655360Y61647475D01*
X57200488Y60978383D01*
X57492500Y60685884D01*
X57580820Y60598830D01*
X57661375Y60522091D01*
X57729640Y60459763D01*
X57781092Y60415944D01*
X57811206Y60394730D01*
X57815526Y60393384D01*
X57840889Y60403984D01*
X57892642Y60433453D01*
X57965132Y60478295D01*
X58052706Y60535016D01*
X58147388Y60598538D01*
X58243484Y60663332D01*
X58329163Y60719713D01*
X58398984Y60764212D01*
X58447506Y60793361D01*
X58469218Y60803692D01*
X58495707Y60794950D01*
X58545938Y60771913D01*
X58609549Y60739369D01*
X58616292Y60735751D01*
X58701954Y60692790D01*
X58760694Y60671721D01*
X58797228Y60671497D01*
X58816269Y60691072D01*
X58816380Y60691346D01*
X58825898Y60714528D01*
X58848597Y60769559D01*
X58882718Y60852178D01*
X58926500Y60958128D01*
X58978184Y61083148D01*
X59036008Y61222980D01*
X59092009Y61358363D01*
X59153553Y61507766D01*
X59210061Y61646168D01*
X59259839Y61769327D01*
X59301194Y61872998D01*
X59332432Y61952941D01*
X59351859Y62004912D01*
X59357846Y62024308D01*
X59342832Y62046557D01*
X59303561Y62082018D01*
X59251193Y62121113D01*
X59102059Y62244755D01*
X58985489Y62386478D01*
X58902882Y62543296D01*
X58855634Y62712225D01*
X58845143Y62890278D01*
X58852769Y62972461D01*
X58894318Y63142969D01*
X58965877Y63293541D01*
X59063005Y63422691D01*
X59181266Y63528936D01*
X59316220Y63610790D01*
X59463429Y63666768D01*
X59618456Y63695385D01*
X59776861Y63695156D01*
X59934206Y63664595D01*
X60086054Y63602218D01*
X60227965Y63506540D01*
X60287197Y63452428D01*
X60400797Y63313480D01*
X60479894Y63161639D01*
X60525014Y63001333D01*
X60536684Y62836988D01*
X60515431Y62673029D01*
X60461780Y62513882D01*
X60376260Y62363975D01*
X60259395Y62227733D01*
X60128807Y62121113D01*
X60074412Y62080358D01*
X60035986Y62045282D01*
X60022154Y62024274D01*
X60029397Y62001365D01*
X60049995Y61946635D01*
X60082254Y61864328D01*
X60124479Y61758685D01*
X60174977Y61633950D01*
X60232052Y61494364D01*
X60288146Y61358330D01*
X60350033Y61208799D01*
X60407356Y61070233D01*
X60458356Y60946893D01*
X60501273Y60843036D01*
X60534347Y60762920D01*
X60555819Y60710805D01*
X60563775Y60691346D01*
X60582571Y60671577D01*
X60618926Y60671635D01*
X60677521Y60692559D01*
X60763032Y60735387D01*
X60763708Y60735751D01*
X60828093Y60768988D01*
X60880139Y60793198D01*
X60909488Y60803596D01*
X60910783Y60803692D01*
X60932876Y60793145D01*
X60981652Y60763816D01*
X61051669Y60719173D01*
X61137486Y60662686D01*
X61232612Y60598538D01*
X61329460Y60533589D01*
X61416747Y60477104D01*
X61488819Y60432579D01*
X61540023Y60403510D01*
X61564474Y60393384D01*
X61586990Y60406693D01*
X61632258Y60443888D01*
X61695756Y60500872D01*
X61772961Y60573551D01*
X61859349Y60657829D01*
X61887601Y60685984D01*
X62179713Y60978584D01*
X61957369Y61304896D01*
X61889798Y61405103D01*
X61830493Y61495037D01*
X61782783Y61569490D01*
X61749993Y61623249D01*
X61735452Y61651106D01*
X61735026Y61653088D01*
X61742692Y61679345D01*
X61763311Y61732163D01*
X61793315Y61802690D01*
X61814375Y61849907D01*
X61853752Y61940306D01*
X61890835Y62031634D01*
X61919585Y62108800D01*
X61927395Y62132308D01*
X61949583Y62195084D01*
X61971273Y62243589D01*
X61983187Y62261921D01*
X62009477Y62273141D01*
X62066858Y62289046D01*
X62147882Y62307833D01*
X62245105Y62327701D01*
X62288615Y62335868D01*
X62399104Y62356171D01*
X62505084Y62375830D01*
X62596199Y62392912D01*
X62662092Y62405482D01*
X62674500Y62407909D01*
X62777077Y62428155D01*
X62777077Y62855299D01*
X62776847Y62995754D01*
X62775901Y63102021D01*
X62773859Y63178987D01*
X62770338Y63231540D01*
X62764957Y63264567D01*
X62757334Y63282955D01*
X62747088Y63291592D01*
X62742885Y63293193D01*
X62717530Y63298873D01*
X62661516Y63310205D01*
X62582036Y63325821D01*
X62486288Y63344353D01*
X62381467Y63364431D01*
X62274768Y63384688D01*
X62173387Y63403754D01*
X62084521Y63420261D01*
X62015363Y63432841D01*
X61973111Y63440125D01*
X61963710Y63441384D01*
X61955193Y63458237D01*
X61936340Y63503130D01*
X61910676Y63567570D01*
X61900877Y63592808D01*
X61861352Y63690314D01*
X61814808Y63798041D01*
X61773123Y63888828D01*
X61742450Y63958247D01*
X61722044Y64015290D01*
X61715232Y64050223D01*
X61716318Y64054905D01*
X61730715Y64077009D01*
X61763588Y64126169D01*
X61811410Y64197152D01*
X61870652Y64284722D01*
X61937785Y64383643D01*
X61951059Y64403170D01*
X62028954Y64518860D01*
X62086213Y64606956D01*
X62125119Y64671514D01*
X62147956Y64716589D01*
X62157006Y64746237D01*
X62154552Y64764515D01*
X62154489Y64764631D01*
X62135173Y64788639D01*
X62092449Y64835053D01*
X62030949Y64899063D01*
X61955302Y64975855D01*
X61870139Y65060618D01*
X61860535Y65070078D01*
X61753210Y65174011D01*
X61670385Y65250325D01*
X61610395Y65300429D01*
X61571577Y65325730D01*
X61554480Y65328996D01*
X61529527Y65314750D01*
X61477745Y65281844D01*
X61404480Y65233792D01*
X61315080Y65174110D01*
X61214889Y65106312D01*
X61191499Y65090361D01*
X60859407Y64863580D01*
X60709435Y64931647D01*
X60618230Y64971315D01*
X60520331Y65011209D01*
X60436169Y65043017D01*
X60432462Y65044326D01*
X60366631Y65068424D01*
X60315884Y65088800D01*
X60291158Y65101064D01*
X60291116Y65101099D01*
X60283271Y65123266D01*
X60269934Y65177783D01*
X60252430Y65258520D01*
X60232083Y65359350D01*
X60210218Y65474144D01*
X60208429Y65483822D01*
X60186496Y65602096D01*
X60166360Y65709458D01*
X60149320Y65799083D01*
X60136672Y65864149D01*
X60129716Y65897832D01*
X60129594Y65898346D01*
X60125361Y65912675D01*
X60117129Y65923493D01*
X60099967Y65931294D01*
X60068942Y65936571D01*
X60019122Y65939818D01*
X59945576Y65941528D01*
X59843371Y65942193D01*
X59707575Y65942307D01*
X59690000Y65942308D01*
X59550122Y65942224D01*
G37*
X59550122Y65942224D02*
X59444388Y65941645D01*
X59367868Y65940078D01*
X59315628Y65937028D01*
X59282737Y65932004D01*
X59264263Y65924511D01*
X59255273Y65914056D01*
X59250837Y65900147D01*
X59250406Y65898346D01*
X59243667Y65865855D01*
X59231192Y65801748D01*
X59214281Y65712849D01*
X59194229Y65605981D01*
X59172336Y65487967D01*
X59171571Y65483822D01*
X59149641Y65368169D01*
X59129123Y65265986D01*
X59111341Y65183402D01*
X59097619Y65126544D01*
X59089282Y65101542D01*
X59088884Y65101099D01*
X59064323Y65088890D01*
X59013685Y65068544D01*
X58947905Y65044455D01*
X58947539Y65044326D01*
X58864683Y65013182D01*
X58767000Y64973509D01*
X58674923Y64933619D01*
X58670566Y64931647D01*
X58520593Y64863580D01*
X58188502Y65090361D01*
X58086626Y65159496D01*
X57994343Y65221303D01*
X57916997Y65272267D01*
X57859936Y65308873D01*
X57828505Y65327606D01*
X57825521Y65328996D01*
X57802679Y65322810D01*
X57760018Y65292965D01*
X57695872Y65238053D01*
X57608579Y65156666D01*
X57519465Y65070078D01*
X57433559Y64984753D01*
X57356673Y64906892D01*
X57293436Y64841303D01*
X57248477Y64792795D01*
X57226424Y64766175D01*
X57225604Y64764805D01*
X57223166Y64746537D01*
X57232350Y64716705D01*
X57255426Y64671279D01*
X57294663Y64606230D01*
X57352330Y64517530D01*
X57429205Y64403343D01*
X57497430Y64302838D01*
X57558418Y64212697D01*
X57608644Y64138151D01*
X57644584Y64084435D01*
X57662713Y64056782D01*
X57663854Y64054905D01*
X57661641Y64028410D01*
X57644862Y63976914D01*
X57616858Y63910149D01*
X57606878Y63888828D01*
X57563328Y63793841D01*
X57516866Y63686063D01*
X57479123Y63592808D01*
X57451927Y63523594D01*
X57430325Y63470994D01*
X57417842Y63443503D01*
X57416291Y63441384D01*
X57393332Y63437876D01*
X57339214Y63428262D01*
X57261132Y63413911D01*
X57166281Y63396193D01*
X57061857Y63376475D01*
X56955056Y63356126D01*
X56853074Y63336514D01*
X56763106Y63319009D01*
X56692347Y63304978D01*
X56647994Y63295791D01*
X56637115Y63293193D01*
X56625878Y63286782D01*
X56617395Y63272303D01*
X56611286Y63244867D01*
X56607168Y63199589D01*
X56604659Y63131580D01*
X56603379Y63035953D01*
X56602946Y62907820D01*
X56602923Y62855299D01*
X56602923Y62428155D01*
X56705500Y62407909D01*
X56762569Y62396930D01*
X56847731Y62380905D01*
X56950628Y62361767D01*
X57060904Y62341449D01*
X57091385Y62335868D01*
X57193145Y62316083D01*
X57281795Y62296627D01*
X57349892Y62279303D01*
X57389996Y62265912D01*
X57396677Y62261921D01*
X57413081Y62233658D01*
X57436601Y62178891D01*
X57462684Y62108412D01*
X57467858Y62093231D01*
X57502044Y61999104D01*
X57544477Y61892899D01*
X57586003Y61797527D01*
X57586208Y61797084D01*
X57655360Y61647475D01*
X57200488Y60978383D01*
X57492500Y60685884D01*
X57580820Y60598830D01*
X57661375Y60522091D01*
X57729640Y60459763D01*
X57781092Y60415944D01*
X57811206Y60394730D01*
X57815526Y60393384D01*
X57840889Y60403984D01*
X57892642Y60433453D01*
X57965132Y60478295D01*
X58052706Y60535016D01*
X58147388Y60598538D01*
X58243484Y60663332D01*
X58329163Y60719713D01*
X58398984Y60764212D01*
X58447506Y60793361D01*
X58469218Y60803692D01*
X58495707Y60794950D01*
X58545938Y60771913D01*
X58609549Y60739369D01*
X58616292Y60735751D01*
X58701954Y60692790D01*
X58760694Y60671721D01*
X58797228Y60671497D01*
X58816269Y60691072D01*
X58816380Y60691346D01*
X58825898Y60714528D01*
X58848597Y60769559D01*
X58882718Y60852178D01*
X58926500Y60958128D01*
X58978184Y61083148D01*
X59036008Y61222980D01*
X59092009Y61358363D01*
X59153553Y61507766D01*
X59210061Y61646168D01*
X59259839Y61769327D01*
X59301194Y61872998D01*
X59332432Y61952941D01*
X59351859Y62004912D01*
X59357846Y62024308D01*
X59342832Y62046557D01*
X59303561Y62082018D01*
X59251193Y62121113D01*
X59102059Y62244755D01*
X58985489Y62386478D01*
X58902882Y62543296D01*
X58855634Y62712225D01*
X58845143Y62890278D01*
X58852769Y62972461D01*
X58894318Y63142969D01*
X58965877Y63293541D01*
X59063005Y63422691D01*
X59181266Y63528936D01*
X59316220Y63610790D01*
X59463429Y63666768D01*
X59618456Y63695385D01*
X59776861Y63695156D01*
X59934206Y63664595D01*
X60086054Y63602218D01*
X60227965Y63506540D01*
X60287197Y63452428D01*
X60400797Y63313480D01*
X60479894Y63161639D01*
X60525014Y63001333D01*
X60536684Y62836988D01*
X60515431Y62673029D01*
X60461780Y62513882D01*
X60376260Y62363975D01*
X60259395Y62227733D01*
X60128807Y62121113D01*
X60074412Y62080358D01*
X60035986Y62045282D01*
X60022154Y62024274D01*
X60029397Y62001365D01*
X60049995Y61946635D01*
X60082254Y61864328D01*
X60124479Y61758685D01*
X60174977Y61633950D01*
X60232052Y61494364D01*
X60288146Y61358330D01*
X60350033Y61208799D01*
X60407356Y61070233D01*
X60458356Y60946893D01*
X60501273Y60843036D01*
X60534347Y60762920D01*
X60555819Y60710805D01*
X60563775Y60691346D01*
X60582571Y60671577D01*
X60618926Y60671635D01*
X60677521Y60692559D01*
X60763032Y60735387D01*
X60763708Y60735751D01*
X60828093Y60768988D01*
X60880139Y60793198D01*
X60909488Y60803596D01*
X60910783Y60803692D01*
X60932876Y60793145D01*
X60981652Y60763816D01*
X61051669Y60719173D01*
X61137486Y60662686D01*
X61232612Y60598538D01*
X61329460Y60533589D01*
X61416747Y60477104D01*
X61488819Y60432579D01*
X61540023Y60403510D01*
X61564474Y60393384D01*
X61586990Y60406693D01*
X61632258Y60443888D01*
X61695756Y60500872D01*
X61772961Y60573551D01*
X61859349Y60657829D01*
X61887601Y60685984D01*
X62179713Y60978584D01*
X61957369Y61304896D01*
X61889798Y61405103D01*
X61830493Y61495037D01*
X61782783Y61569490D01*
X61749993Y61623249D01*
X61735452Y61651106D01*
X61735026Y61653088D01*
X61742692Y61679345D01*
X61763311Y61732163D01*
X61793315Y61802690D01*
X61814375Y61849907D01*
X61853752Y61940306D01*
X61890835Y62031634D01*
X61919585Y62108800D01*
X61927395Y62132308D01*
X61949583Y62195084D01*
X61971273Y62243589D01*
X61983187Y62261921D01*
X62009477Y62273141D01*
X62066858Y62289046D01*
X62147882Y62307833D01*
X62245105Y62327701D01*
X62288615Y62335868D01*
X62399104Y62356171D01*
X62505084Y62375830D01*
X62596199Y62392912D01*
X62662092Y62405482D01*
X62674500Y62407909D01*
X62777077Y62428155D01*
X62777077Y62855299D01*
X62776847Y62995754D01*
X62775901Y63102021D01*
X62773859Y63178987D01*
X62770338Y63231540D01*
X62764957Y63264567D01*
X62757334Y63282955D01*
X62747088Y63291592D01*
X62742885Y63293193D01*
X62717530Y63298873D01*
X62661516Y63310205D01*
X62582036Y63325821D01*
X62486288Y63344353D01*
X62381467Y63364431D01*
X62274768Y63384688D01*
X62173387Y63403754D01*
X62084521Y63420261D01*
X62015363Y63432841D01*
X61973111Y63440125D01*
X61963710Y63441384D01*
X61955193Y63458237D01*
X61936340Y63503130D01*
X61910676Y63567570D01*
X61900877Y63592808D01*
X61861352Y63690314D01*
X61814808Y63798041D01*
X61773123Y63888828D01*
X61742450Y63958247D01*
X61722044Y64015290D01*
X61715232Y64050223D01*
X61716318Y64054905D01*
X61730715Y64077009D01*
X61763588Y64126169D01*
X61811410Y64197152D01*
X61870652Y64284722D01*
X61937785Y64383643D01*
X61951059Y64403170D01*
X62028954Y64518860D01*
X62086213Y64606956D01*
X62125119Y64671514D01*
X62147956Y64716589D01*
X62157006Y64746237D01*
X62154552Y64764515D01*
X62154489Y64764631D01*
X62135173Y64788639D01*
X62092449Y64835053D01*
X62030949Y64899063D01*
X61955302Y64975855D01*
X61870139Y65060618D01*
X61860535Y65070078D01*
X61753210Y65174011D01*
X61670385Y65250325D01*
X61610395Y65300429D01*
X61571577Y65325730D01*
X61554480Y65328996D01*
X61529527Y65314750D01*
X61477745Y65281844D01*
X61404480Y65233792D01*
X61315080Y65174110D01*
X61214889Y65106312D01*
X61191499Y65090361D01*
X60859407Y64863580D01*
X60709435Y64931647D01*
X60618230Y64971315D01*
X60520331Y65011209D01*
X60436169Y65043017D01*
X60432462Y65044326D01*
X60366631Y65068424D01*
X60315884Y65088800D01*
X60291158Y65101064D01*
X60291116Y65101099D01*
X60283271Y65123266D01*
X60269934Y65177783D01*
X60252430Y65258520D01*
X60232083Y65359350D01*
X60210218Y65474144D01*
X60208429Y65483822D01*
X60186496Y65602096D01*
X60166360Y65709458D01*
X60149320Y65799083D01*
X60136672Y65864149D01*
X60129716Y65897832D01*
X60129594Y65898346D01*
X60125361Y65912675D01*
X60117129Y65923493D01*
X60099967Y65931294D01*
X60068942Y65936571D01*
X60019122Y65939818D01*
X59945576Y65941528D01*
X59843371Y65942193D01*
X59707575Y65942307D01*
X59690000Y65942308D01*
X59550122Y65942224D01*
G36*
X55444776Y59582162D02*
G01*
X55367472Y59531639D01*
X55330186Y59486410D01*
X55300647Y59404337D01*
X55298301Y59339393D01*
X55303615Y59252555D01*
X55503885Y59164897D01*
X55601261Y59120113D01*
X55664887Y59084087D01*
X55697971Y59052883D01*
X55703720Y59022564D01*
X55685342Y58989195D01*
X55665077Y58967077D01*
X55606111Y58931607D01*
X55541976Y58929121D01*
X55483074Y58956765D01*
X55439803Y59011680D01*
X55432064Y59031072D01*
X55394994Y59091636D01*
X55352346Y59117448D01*
X55293846Y59139529D01*
X55293846Y59055816D01*
X55299018Y58998850D01*
X55319277Y58950811D01*
X55361738Y58895654D01*
X55368049Y58888486D01*
X55415280Y58839415D01*
X55455879Y58813080D01*
X55506672Y58800965D01*
X55548780Y58796997D01*
X55624098Y58796009D01*
X55677714Y58808534D01*
X55711162Y58827131D01*
X55763732Y58868025D01*
X55800121Y58912252D01*
X55823150Y58967874D01*
X55835641Y59042953D01*
X55840413Y59145551D01*
X55840794Y59197624D01*
X55839499Y59260052D01*
X55721529Y59260052D01*
X55720161Y59226562D01*
X55716751Y59221077D01*
X55694247Y59228528D01*
X55645818Y59248247D01*
X55581092Y59276282D01*
X55567557Y59282308D01*
X55485756Y59323904D01*
X55440688Y59360462D01*
X55430783Y59394704D01*
X55454474Y59429352D01*
X55474040Y59444661D01*
X55544640Y59475279D01*
X55610720Y59470220D01*
X55666041Y59432849D01*
X55704364Y59366527D01*
X55716651Y59313884D01*
X55721529Y59260052D01*
X55839499Y59260052D01*
X55838270Y59319280D01*
X55828968Y59409290D01*
X55810540Y59474833D01*
X55780640Y59523088D01*
X55736920Y59561233D01*
X55717859Y59573560D01*
X55631274Y59605664D01*
X55536478Y59607684D01*
X55444776Y59582162D01*
G37*
X55444776Y59582162D02*
X55367472Y59531639D01*
X55330186Y59486410D01*
X55300647Y59404337D01*
X55298301Y59339393D01*
X55303615Y59252555D01*
X55503885Y59164897D01*
X55601261Y59120113D01*
X55664887Y59084087D01*
X55697971Y59052883D01*
X55703720Y59022564D01*
X55685342Y58989195D01*
X55665077Y58967077D01*
X55606111Y58931607D01*
X55541976Y58929121D01*
X55483074Y58956765D01*
X55439803Y59011680D01*
X55432064Y59031072D01*
X55394994Y59091636D01*
X55352346Y59117448D01*
X55293846Y59139529D01*
X55293846Y59055816D01*
X55299018Y58998850D01*
X55319277Y58950811D01*
X55361738Y58895654D01*
X55368049Y58888486D01*
X55415280Y58839415D01*
X55455879Y58813080D01*
X55506672Y58800965D01*
X55548780Y58796997D01*
X55624098Y58796009D01*
X55677714Y58808534D01*
X55711162Y58827131D01*
X55763732Y58868025D01*
X55800121Y58912252D01*
X55823150Y58967874D01*
X55835641Y59042953D01*
X55840413Y59145551D01*
X55840794Y59197624D01*
X55839499Y59260052D01*
X55721529Y59260052D01*
X55720161Y59226562D01*
X55716751Y59221077D01*
X55694247Y59228528D01*
X55645818Y59248247D01*
X55581092Y59276282D01*
X55567557Y59282308D01*
X55485756Y59323904D01*
X55440688Y59360462D01*
X55430783Y59394704D01*
X55454474Y59429352D01*
X55474040Y59444661D01*
X55544640Y59475279D01*
X55610720Y59470220D01*
X55666041Y59432849D01*
X55704364Y59366527D01*
X55716651Y59313884D01*
X55721529Y59260052D01*
X55839499Y59260052D01*
X55838270Y59319280D01*
X55828968Y59409290D01*
X55810540Y59474833D01*
X55780640Y59523088D01*
X55736920Y59561233D01*
X55717859Y59573560D01*
X55631274Y59605664D01*
X55536478Y59607684D01*
X55444776Y59582162D01*
G36*
X56119193Y59593218D02*
G01*
X56095839Y59583012D01*
X56040098Y59538866D01*
X55992431Y59475033D01*
X55962952Y59406913D01*
X55958154Y59373330D01*
X55974240Y59326444D01*
X56009525Y59301635D01*
X56047356Y59286613D01*
X56064679Y59283845D01*
X56073114Y59303934D01*
X56089770Y59347649D01*
X56097077Y59367402D01*
X56138052Y59435729D01*
X56197378Y59469809D01*
X56273448Y59468761D01*
X56279082Y59467419D01*
X56319695Y59448164D01*
X56349552Y59410625D01*
X56369945Y59350191D01*
X56382164Y59262249D01*
X56387500Y59142187D01*
X56388000Y59078302D01*
X56388248Y58977597D01*
X56389874Y58908946D01*
X56394199Y58865327D01*
X56402546Y58839718D01*
X56416235Y58825097D01*
X56436589Y58814442D01*
X56437766Y58813905D01*
X56476962Y58797333D01*
X56496381Y58791231D01*
X56499365Y58809681D01*
X56501919Y58860677D01*
X56503860Y58937692D01*
X56505003Y59034195D01*
X56505231Y59104816D01*
X56504068Y59241475D01*
X56499521Y59345149D01*
X56490001Y59421892D01*
X56473919Y59477754D01*
X56449687Y59518788D01*
X56415714Y59551046D01*
X56382167Y59573560D01*
X56301501Y59603524D01*
X56207619Y59610282D01*
X56119193Y59593218D01*
G37*
X56119193Y59593218D02*
X56095839Y59583012D01*
X56040098Y59538866D01*
X55992431Y59475033D01*
X55962952Y59406913D01*
X55958154Y59373330D01*
X55974240Y59326444D01*
X56009525Y59301635D01*
X56047356Y59286613D01*
X56064679Y59283845D01*
X56073114Y59303934D01*
X56089770Y59347649D01*
X56097077Y59367402D01*
X56138052Y59435729D01*
X56197378Y59469809D01*
X56273448Y59468761D01*
X56279082Y59467419D01*
X56319695Y59448164D01*
X56349552Y59410625D01*
X56369945Y59350191D01*
X56382164Y59262249D01*
X56387500Y59142187D01*
X56388000Y59078302D01*
X56388248Y58977597D01*
X56389874Y58908946D01*
X56394199Y58865327D01*
X56402546Y58839718D01*
X56416235Y58825097D01*
X56436589Y58814442D01*
X56437766Y58813905D01*
X56476962Y58797333D01*
X56496381Y58791231D01*
X56499365Y58809681D01*
X56501919Y58860677D01*
X56503860Y58937692D01*
X56505003Y59034195D01*
X56505231Y59104816D01*
X56504068Y59241475D01*
X56499521Y59345149D01*
X56490001Y59421892D01*
X56473919Y59477754D01*
X56449687Y59518788D01*
X56415714Y59551046D01*
X56382167Y59573560D01*
X56301501Y59603524D01*
X56207619Y59610282D01*
X56119193Y59593218D01*
G36*
X56802667Y59596472D02*
G01*
X56746410Y59570883D01*
X56702253Y59539876D01*
X56669899Y59505205D01*
X56647562Y59460480D01*
X56633454Y59399308D01*
X56625789Y59315299D01*
X56622780Y59202060D01*
X56622462Y59127491D01*
X56622462Y58836580D01*
X56672227Y58813905D01*
X56711424Y58797333D01*
X56730843Y58791231D01*
X56734558Y58809390D01*
X56737505Y58858352D01*
X56739309Y58929847D01*
X56739692Y58986615D01*
X56741339Y59068629D01*
X56745778Y59133691D01*
X56752260Y59173533D01*
X56757410Y59182000D01*
X56792023Y59173354D01*
X56846360Y59151177D01*
X56909278Y59121114D01*
X56969632Y59088808D01*
X57016279Y59059902D01*
X57038074Y59040039D01*
X57038161Y59039825D01*
X57036286Y59003065D01*
X57019475Y58967974D01*
X56989961Y58939472D01*
X56946884Y58929939D01*
X56910068Y58931050D01*
X56857926Y58931867D01*
X56830556Y58919651D01*
X56814118Y58887376D01*
X56812045Y58881290D01*
X56804919Y58835261D01*
X56823976Y58807313D01*
X56873647Y58793993D01*
X56927303Y58791530D01*
X57023858Y58809790D01*
X57073841Y58835869D01*
X57135571Y58897132D01*
X57168310Y58972330D01*
X57171247Y59051789D01*
X57143576Y59125833D01*
X57101953Y59172231D01*
X57060396Y59198207D01*
X56995078Y59231093D01*
X56918962Y59264443D01*
X56906274Y59269539D01*
X56822667Y59306435D01*
X56774470Y59338954D01*
X56758970Y59371282D01*
X56773450Y59407606D01*
X56798308Y59436000D01*
X56857061Y59470961D01*
X56921707Y59473583D01*
X56980992Y59446642D01*
X57023661Y59392912D01*
X57029261Y59379050D01*
X57061867Y59328064D01*
X57109470Y59290213D01*
X57169539Y59259150D01*
X57169539Y59347232D01*
X57166003Y59401049D01*
X57150844Y59443466D01*
X57117232Y59488721D01*
X57084965Y59523580D01*
X57034791Y59572938D01*
X56995807Y59599453D01*
X56953936Y59610089D01*
X56906540Y59611846D01*
X56802667Y59596472D01*
G37*
X56802667Y59596472D02*
X56746410Y59570883D01*
X56702253Y59539876D01*
X56669899Y59505205D01*
X56647562Y59460480D01*
X56633454Y59399308D01*
X56625789Y59315299D01*
X56622780Y59202060D01*
X56622462Y59127491D01*
X56622462Y58836580D01*
X56672227Y58813905D01*
X56711424Y58797333D01*
X56730843Y58791231D01*
X56734558Y58809390D01*
X56737505Y58858352D01*
X56739309Y58929847D01*
X56739692Y58986615D01*
X56741339Y59068629D01*
X56745778Y59133691D01*
X56752260Y59173533D01*
X56757410Y59182000D01*
X56792023Y59173354D01*
X56846360Y59151177D01*
X56909278Y59121114D01*
X56969632Y59088808D01*
X57016279Y59059902D01*
X57038074Y59040039D01*
X57038161Y59039825D01*
X57036286Y59003065D01*
X57019475Y58967974D01*
X56989961Y58939472D01*
X56946884Y58929939D01*
X56910068Y58931050D01*
X56857926Y58931867D01*
X56830556Y58919651D01*
X56814118Y58887376D01*
X56812045Y58881290D01*
X56804919Y58835261D01*
X56823976Y58807313D01*
X56873647Y58793993D01*
X56927303Y58791530D01*
X57023858Y58809790D01*
X57073841Y58835869D01*
X57135571Y58897132D01*
X57168310Y58972330D01*
X57171247Y59051789D01*
X57143576Y59125833D01*
X57101953Y59172231D01*
X57060396Y59198207D01*
X56995078Y59231093D01*
X56918962Y59264443D01*
X56906274Y59269539D01*
X56822667Y59306435D01*
X56774470Y59338954D01*
X56758970Y59371282D01*
X56773450Y59407606D01*
X56798308Y59436000D01*
X56857061Y59470961D01*
X56921707Y59473583D01*
X56980992Y59446642D01*
X57023661Y59392912D01*
X57029261Y59379050D01*
X57061867Y59328064D01*
X57109470Y59290213D01*
X57169539Y59259150D01*
X57169539Y59347232D01*
X57166003Y59401049D01*
X57150844Y59443466D01*
X57117232Y59488721D01*
X57084965Y59523580D01*
X57034791Y59572938D01*
X56995807Y59599453D01*
X56953936Y59610089D01*
X56906540Y59611846D01*
X56802667Y59596472D01*
G36*
X57294071Y59593338D02*
G01*
X57291089Y59541932D01*
X57288753Y59463808D01*
X57287251Y59365143D01*
X57286769Y59261657D01*
X57286769Y58911467D01*
X57348599Y58849637D01*
X57391207Y58811538D01*
X57428610Y58796105D01*
X57479730Y58797082D01*
X57500022Y58799567D01*
X57563446Y58806800D01*
X57615905Y58810945D01*
X57628692Y58811328D01*
X57671801Y58808824D01*
X57733456Y58802538D01*
X57757362Y58799567D01*
X57816078Y58794972D01*
X57855536Y58804954D01*
X57894662Y58835772D01*
X57908785Y58849637D01*
X57970615Y58911467D01*
X57970615Y59566497D01*
X57920850Y59589171D01*
X57877998Y59605966D01*
X57852927Y59611846D01*
X57846499Y59593264D01*
X57840491Y59541345D01*
X57835303Y59461828D01*
X57831336Y59360454D01*
X57829423Y59274808D01*
X57824077Y58937769D01*
X57777440Y58931175D01*
X57735024Y58935786D01*
X57714240Y58950713D01*
X57708430Y58978623D01*
X57703470Y59038075D01*
X57699754Y59121534D01*
X57697676Y59221468D01*
X57697376Y59272896D01*
X57697077Y59568946D01*
X57635546Y59590396D01*
X57591996Y59604980D01*
X57568306Y59611781D01*
X57567623Y59611846D01*
X57565246Y59593358D01*
X57562634Y59542094D01*
X57560005Y59464351D01*
X57557579Y59366426D01*
X57555885Y59274808D01*
X57550539Y58937769D01*
X57433308Y58937769D01*
X57427928Y59245254D01*
X57422549Y59552739D01*
X57365399Y59582293D01*
X57323203Y59602587D01*
X57298230Y59611796D01*
X57297509Y59611846D01*
X57294071Y59593338D01*
G37*
X57294071Y59593338D02*
X57291089Y59541932D01*
X57288753Y59463808D01*
X57287251Y59365143D01*
X57286769Y59261657D01*
X57286769Y58911467D01*
X57348599Y58849637D01*
X57391207Y58811538D01*
X57428610Y58796105D01*
X57479730Y58797082D01*
X57500022Y58799567D01*
X57563446Y58806800D01*
X57615905Y58810945D01*
X57628692Y58811328D01*
X57671801Y58808824D01*
X57733456Y58802538D01*
X57757362Y58799567D01*
X57816078Y58794972D01*
X57855536Y58804954D01*
X57894662Y58835772D01*
X57908785Y58849637D01*
X57970615Y58911467D01*
X57970615Y59566497D01*
X57920850Y59589171D01*
X57877998Y59605966D01*
X57852927Y59611846D01*
X57846499Y59593264D01*
X57840491Y59541345D01*
X57835303Y59461828D01*
X57831336Y59360454D01*
X57829423Y59274808D01*
X57824077Y58937769D01*
X57777440Y58931175D01*
X57735024Y58935786D01*
X57714240Y58950713D01*
X57708430Y58978623D01*
X57703470Y59038075D01*
X57699754Y59121534D01*
X57697676Y59221468D01*
X57697376Y59272896D01*
X57697077Y59568946D01*
X57635546Y59590396D01*
X57591996Y59604980D01*
X57568306Y59611781D01*
X57567623Y59611846D01*
X57565246Y59593358D01*
X57562634Y59542094D01*
X57560005Y59464351D01*
X57557579Y59366426D01*
X57555885Y59274808D01*
X57550539Y58937769D01*
X57433308Y58937769D01*
X57427928Y59245254D01*
X57422549Y59552739D01*
X57365399Y59582293D01*
X57323203Y59602587D01*
X57298230Y59611796D01*
X57297509Y59611846D01*
X57294071Y59593338D01*
G36*
X58087919Y59449711D02*
G01*
X58088167Y59303680D01*
X58089128Y59191345D01*
X58091206Y59107322D01*
X58094807Y59046231D01*
X58100335Y59002691D01*
X58108196Y58971321D01*
X58118793Y58946738D01*
X58126818Y58932706D01*
X58193272Y58856612D01*
X58277530Y58808916D01*
X58370751Y58791801D01*
X58464100Y58807454D01*
X58519688Y58835582D01*
X58578043Y58884240D01*
X58617814Y58943667D01*
X58641810Y59021493D01*
X58652839Y59125348D01*
X58654401Y59201538D01*
X58654191Y59207014D01*
X58517692Y59207014D01*
X58516859Y59119645D01*
X58513039Y59061808D01*
X58504254Y59023971D01*
X58488526Y58996602D01*
X58469734Y58975958D01*
X58406625Y58936110D01*
X58338863Y58932705D01*
X58274821Y58965975D01*
X58269836Y58970483D01*
X58248561Y58993933D01*
X58235221Y59021834D01*
X58227999Y59063359D01*
X58225077Y59127684D01*
X58224615Y59198800D01*
X58225617Y59288142D01*
X58229762Y59347742D01*
X58238764Y59386911D01*
X58254333Y59414960D01*
X58267098Y59429856D01*
X58326400Y59467425D01*
X58394699Y59471943D01*
X58459890Y59443247D01*
X58472472Y59432594D01*
X58493889Y59408937D01*
X58507256Y59380749D01*
X58514434Y59338755D01*
X58517281Y59273681D01*
X58517692Y59207014D01*
X58654191Y59207014D01*
X58649678Y59324235D01*
X58633638Y59416423D01*
X58603472Y59485731D01*
X58556371Y59539789D01*
X58519688Y59567495D01*
X58453010Y59597428D01*
X58375728Y59611322D01*
X58303890Y59607603D01*
X58263692Y59592600D01*
X58247918Y59588330D01*
X58237450Y59604250D01*
X58230144Y59646911D01*
X58224615Y59711894D01*
X58218563Y59784268D01*
X58210156Y59827813D01*
X58194859Y59852713D01*
X58168136Y59869155D01*
X58151346Y59876436D01*
X58087846Y59903037D01*
X58087919Y59449711D01*
G37*
X58087919Y59449711D02*
X58088167Y59303680D01*
X58089128Y59191345D01*
X58091206Y59107322D01*
X58094807Y59046231D01*
X58100335Y59002691D01*
X58108196Y58971321D01*
X58118793Y58946738D01*
X58126818Y58932706D01*
X58193272Y58856612D01*
X58277530Y58808916D01*
X58370751Y58791801D01*
X58464100Y58807454D01*
X58519688Y58835582D01*
X58578043Y58884240D01*
X58617814Y58943667D01*
X58641810Y59021493D01*
X58652839Y59125348D01*
X58654401Y59201538D01*
X58654191Y59207014D01*
X58517692Y59207014D01*
X58516859Y59119645D01*
X58513039Y59061808D01*
X58504254Y59023971D01*
X58488526Y58996602D01*
X58469734Y58975958D01*
X58406625Y58936110D01*
X58338863Y58932705D01*
X58274821Y58965975D01*
X58269836Y58970483D01*
X58248561Y58993933D01*
X58235221Y59021834D01*
X58227999Y59063359D01*
X58225077Y59127684D01*
X58224615Y59198800D01*
X58225617Y59288142D01*
X58229762Y59347742D01*
X58238764Y59386911D01*
X58254333Y59414960D01*
X58267098Y59429856D01*
X58326400Y59467425D01*
X58394699Y59471943D01*
X58459890Y59443247D01*
X58472472Y59432594D01*
X58493889Y59408937D01*
X58507256Y59380749D01*
X58514434Y59338755D01*
X58517281Y59273681D01*
X58517692Y59207014D01*
X58654191Y59207014D01*
X58649678Y59324235D01*
X58633638Y59416423D01*
X58603472Y59485731D01*
X58556371Y59539789D01*
X58519688Y59567495D01*
X58453010Y59597428D01*
X58375728Y59611322D01*
X58303890Y59607603D01*
X58263692Y59592600D01*
X58247918Y59588330D01*
X58237450Y59604250D01*
X58230144Y59646911D01*
X58224615Y59711894D01*
X58218563Y59784268D01*
X58210156Y59827813D01*
X58194859Y59852713D01*
X58168136Y59869155D01*
X58151346Y59876436D01*
X58087846Y59903037D01*
X58087919Y59449711D01*
G36*
X58976638Y59605330D02*
G01*
X58887883Y59572579D01*
X58815978Y59514650D01*
X58787856Y59473872D01*
X58757198Y59399046D01*
X58757835Y59344942D01*
X58790013Y59308554D01*
X58801919Y59302367D01*
X58853325Y59283075D01*
X58879578Y59288018D01*
X58888470Y59320413D01*
X58888923Y59338308D01*
X58905203Y59404141D01*
X58947635Y59450193D01*
X59006612Y59472436D01*
X59072525Y59466839D01*
X59126105Y59437771D01*
X59144202Y59421190D01*
X59157029Y59401075D01*
X59165694Y59370668D01*
X59171304Y59323212D01*
X59174965Y59251950D01*
X59177785Y59150125D01*
X59178516Y59117885D01*
X59181180Y59007590D01*
X59184208Y58929964D01*
X59188750Y58878604D01*
X59195954Y58847110D01*
X59206967Y58829080D01*
X59222940Y58818112D01*
X59233166Y58813267D01*
X59276594Y58796699D01*
X59302158Y58791231D01*
X59310605Y58809493D01*
X59315761Y58864704D01*
X59317654Y58957501D01*
X59316311Y59088522D01*
X59315893Y59108731D01*
X59312942Y59228267D01*
X59309452Y59315551D01*
X59304486Y59377409D01*
X59297107Y59420664D01*
X59286376Y59452140D01*
X59271355Y59478661D01*
X59263498Y59490025D01*
X59218447Y59540308D01*
X59168060Y59579419D01*
X59161892Y59582833D01*
X59071542Y59609788D01*
X58976638Y59605330D01*
G37*
X58976638Y59605330D02*
X58887883Y59572579D01*
X58815978Y59514650D01*
X58787856Y59473872D01*
X58757198Y59399046D01*
X58757835Y59344942D01*
X58790013Y59308554D01*
X58801919Y59302367D01*
X58853325Y59283075D01*
X58879578Y59288018D01*
X58888470Y59320413D01*
X58888923Y59338308D01*
X58905203Y59404141D01*
X58947635Y59450193D01*
X59006612Y59472436D01*
X59072525Y59466839D01*
X59126105Y59437771D01*
X59144202Y59421190D01*
X59157029Y59401075D01*
X59165694Y59370668D01*
X59171304Y59323212D01*
X59174965Y59251950D01*
X59177785Y59150125D01*
X59178516Y59117885D01*
X59181180Y59007590D01*
X59184208Y58929964D01*
X59188750Y58878604D01*
X59195954Y58847110D01*
X59206967Y58829080D01*
X59222940Y58818112D01*
X59233166Y58813267D01*
X59276594Y58796699D01*
X59302158Y58791231D01*
X59310605Y58809493D01*
X59315761Y58864704D01*
X59317654Y58957501D01*
X59316311Y59088522D01*
X59315893Y59108731D01*
X59312942Y59228267D01*
X59309452Y59315551D01*
X59304486Y59377409D01*
X59297107Y59420664D01*
X59286376Y59452140D01*
X59271355Y59478661D01*
X59263498Y59490025D01*
X59218447Y59540308D01*
X59168060Y59579419D01*
X59161892Y59582833D01*
X59071542Y59609788D01*
X58976638Y59605330D01*
G36*
X59636499Y59603697D02*
G01*
X59559940Y59575267D01*
X59559064Y59574721D01*
X59511715Y59539873D01*
X59476759Y59499148D01*
X59452175Y59446075D01*
X59435938Y59374186D01*
X59426025Y59277008D01*
X59420414Y59148072D01*
X59419923Y59129702D01*
X59412859Y58852713D01*
X59472305Y58821972D01*
X59515319Y58801198D01*
X59541290Y58791354D01*
X59542491Y58791231D01*
X59546986Y58809394D01*
X59550556Y58858388D01*
X59552752Y58929969D01*
X59553231Y58987932D01*
X59553242Y59081830D01*
X59557534Y59140797D01*
X59572497Y59168921D01*
X59604518Y59170294D01*
X59659986Y59149002D01*
X59743731Y59109864D01*
X59805311Y59077357D01*
X59836983Y59049155D01*
X59846294Y59018418D01*
X59846308Y59016896D01*
X59830943Y58963946D01*
X59785453Y58935340D01*
X59715834Y58931197D01*
X59665687Y58931916D01*
X59639246Y58917473D01*
X59622757Y58882782D01*
X59613267Y58838584D01*
X59626943Y58813507D01*
X59632093Y58809918D01*
X59680575Y58795504D01*
X59748469Y58793463D01*
X59818388Y58803017D01*
X59867932Y58820478D01*
X59936430Y58878636D01*
X59975366Y58959592D01*
X59983077Y59022840D01*
X59977193Y59079889D01*
X59955899Y59126458D01*
X59913735Y59167819D01*
X59845241Y59209245D01*
X59744956Y59256007D01*
X59738846Y59258650D01*
X59648510Y59300383D01*
X59592765Y59334609D01*
X59568871Y59365365D01*
X59574087Y59396689D01*
X59605672Y59432617D01*
X59615117Y59440884D01*
X59678383Y59472942D01*
X59743936Y59471593D01*
X59801028Y59440162D01*
X59838907Y59381976D01*
X59842426Y59370554D01*
X59876700Y59315163D01*
X59920191Y59288482D01*
X59983077Y59262040D01*
X59983077Y59330452D01*
X59963948Y59429890D01*
X59907169Y59521098D01*
X59877622Y59551611D01*
X59810458Y59590772D01*
X59725044Y59608500D01*
X59636499Y59603697D01*
G37*
X59636499Y59603697D02*
X59559940Y59575267D01*
X59559064Y59574721D01*
X59511715Y59539873D01*
X59476759Y59499148D01*
X59452175Y59446075D01*
X59435938Y59374186D01*
X59426025Y59277008D01*
X59420414Y59148072D01*
X59419923Y59129702D01*
X59412859Y58852713D01*
X59472305Y58821972D01*
X59515319Y58801198D01*
X59541290Y58791354D01*
X59542491Y58791231D01*
X59546986Y58809394D01*
X59550556Y58858388D01*
X59552752Y58929969D01*
X59553231Y58987932D01*
X59553242Y59081830D01*
X59557534Y59140797D01*
X59572497Y59168921D01*
X59604518Y59170294D01*
X59659986Y59149002D01*
X59743731Y59109864D01*
X59805311Y59077357D01*
X59836983Y59049155D01*
X59846294Y59018418D01*
X59846308Y59016896D01*
X59830943Y58963946D01*
X59785453Y58935340D01*
X59715834Y58931197D01*
X59665687Y58931916D01*
X59639246Y58917473D01*
X59622757Y58882782D01*
X59613267Y58838584D01*
X59626943Y58813507D01*
X59632093Y58809918D01*
X59680575Y58795504D01*
X59748469Y58793463D01*
X59818388Y58803017D01*
X59867932Y58820478D01*
X59936430Y58878636D01*
X59975366Y58959592D01*
X59983077Y59022840D01*
X59977193Y59079889D01*
X59955899Y59126458D01*
X59913735Y59167819D01*
X59845241Y59209245D01*
X59744956Y59256007D01*
X59738846Y59258650D01*
X59648510Y59300383D01*
X59592765Y59334609D01*
X59568871Y59365365D01*
X59574087Y59396689D01*
X59605672Y59432617D01*
X59615117Y59440884D01*
X59678383Y59472942D01*
X59743936Y59471593D01*
X59801028Y59440162D01*
X59838907Y59381976D01*
X59842426Y59370554D01*
X59876700Y59315163D01*
X59920191Y59288482D01*
X59983077Y59262040D01*
X59983077Y59330452D01*
X59963948Y59429890D01*
X59907169Y59521098D01*
X59877622Y59551611D01*
X59810458Y59590772D01*
X59725044Y59608500D01*
X59636499Y59603697D01*
G36*
X60530154Y59737880D02*
G01*
X60524428Y59658020D01*
X60517851Y59610961D01*
X60508738Y59590434D01*
X60495402Y59590171D01*
X60491077Y59592622D01*
X60433556Y59610364D01*
X60358732Y59609328D01*
X60282661Y59591090D01*
X60235082Y59567495D01*
X60186298Y59529802D01*
X60150636Y59487145D01*
X60126155Y59432943D01*
X60110913Y59360616D01*
X60102970Y59263581D01*
X60100384Y59135258D01*
X60100338Y59110642D01*
X60100308Y58834130D01*
X60161839Y58812680D01*
X60205541Y58798088D01*
X60229518Y58791294D01*
X60230223Y58791231D01*
X60232585Y58809655D01*
X60234594Y58860474D01*
X60236099Y58937007D01*
X60236947Y59032570D01*
X60237077Y59090671D01*
X60237349Y59205229D01*
X60238748Y59287333D01*
X60242151Y59343607D01*
X60248433Y59380674D01*
X60258471Y59405156D01*
X60273139Y59423675D01*
X60282298Y59432594D01*
X60345211Y59468534D01*
X60413864Y59471225D01*
X60476152Y59440830D01*
X60487671Y59429856D01*
X60504567Y59409221D01*
X60516286Y59384744D01*
X60523767Y59349353D01*
X60527946Y59295974D01*
X60529763Y59217534D01*
X60530154Y59109383D01*
X60530154Y58834130D01*
X60591685Y58812680D01*
X60635387Y58798088D01*
X60659364Y58791294D01*
X60660070Y58791231D01*
X60661874Y58809931D01*
X60663500Y58862678D01*
X60664883Y58944443D01*
X60665958Y59050195D01*
X60666660Y59174906D01*
X60666923Y59313545D01*
X60666923Y59848194D01*
X60539923Y59901764D01*
X60530154Y59737880D01*
G37*
X60530154Y59737880D02*
X60524428Y59658020D01*
X60517851Y59610961D01*
X60508738Y59590434D01*
X60495402Y59590171D01*
X60491077Y59592622D01*
X60433556Y59610364D01*
X60358732Y59609328D01*
X60282661Y59591090D01*
X60235082Y59567495D01*
X60186298Y59529802D01*
X60150636Y59487145D01*
X60126155Y59432943D01*
X60110913Y59360616D01*
X60102970Y59263581D01*
X60100384Y59135258D01*
X60100338Y59110642D01*
X60100308Y58834130D01*
X60161839Y58812680D01*
X60205541Y58798088D01*
X60229518Y58791294D01*
X60230223Y58791231D01*
X60232585Y58809655D01*
X60234594Y58860474D01*
X60236099Y58937007D01*
X60236947Y59032570D01*
X60237077Y59090671D01*
X60237349Y59205229D01*
X60238748Y59287333D01*
X60242151Y59343607D01*
X60248433Y59380674D01*
X60258471Y59405156D01*
X60273139Y59423675D01*
X60282298Y59432594D01*
X60345211Y59468534D01*
X60413864Y59471225D01*
X60476152Y59440830D01*
X60487671Y59429856D01*
X60504567Y59409221D01*
X60516286Y59384744D01*
X60523767Y59349353D01*
X60527946Y59295974D01*
X60529763Y59217534D01*
X60530154Y59109383D01*
X60530154Y58834130D01*
X60591685Y58812680D01*
X60635387Y58798088D01*
X60659364Y58791294D01*
X60660070Y58791231D01*
X60661874Y58809931D01*
X60663500Y58862678D01*
X60664883Y58944443D01*
X60665958Y59050195D01*
X60666660Y59174906D01*
X60666923Y59313545D01*
X60666923Y59848194D01*
X60539923Y59901764D01*
X60530154Y59737880D01*
G36*
X62155746Y59630255D02*
G01*
X62078714Y59578433D01*
X62019184Y59503588D01*
X61983622Y59408346D01*
X61976429Y59338244D01*
X61977246Y59308991D01*
X61984086Y59286593D01*
X62002888Y59266526D01*
X62039592Y59244267D01*
X62100138Y59215291D01*
X62190466Y59175073D01*
X62190923Y59174871D01*
X62274067Y59136790D01*
X62342247Y59102975D01*
X62388495Y59077067D01*
X62405842Y59062705D01*
X62405846Y59062589D01*
X62390557Y59031315D01*
X62354804Y58996843D01*
X62313758Y58972010D01*
X62292963Y58967077D01*
X62236230Y58984138D01*
X62187373Y59026867D01*
X62163535Y59073845D01*
X62140603Y59108478D01*
X62095682Y59147919D01*
X62042877Y59181991D01*
X61996290Y59200520D01*
X61986548Y59201538D01*
X61975582Y59184785D01*
X61974921Y59141961D01*
X61982980Y59084219D01*
X61998173Y59022711D01*
X62018914Y58968591D01*
X62019962Y58966490D01*
X62082379Y58879340D01*
X62163274Y58820061D01*
X62255144Y58790966D01*
X62350487Y58794366D01*
X62441802Y58832572D01*
X62445862Y58835259D01*
X62517694Y58900358D01*
X62564927Y58985295D01*
X62591066Y59096979D01*
X62594574Y59128357D01*
X62600787Y59276464D01*
X62593339Y59345532D01*
X62405846Y59345532D01*
X62403410Y59302448D01*
X62390086Y59289874D01*
X62356868Y59299281D01*
X62304506Y59321517D01*
X62245976Y59349390D01*
X62244521Y59350128D01*
X62194911Y59376223D01*
X62175000Y59393637D01*
X62179910Y59411893D01*
X62200584Y59435880D01*
X62253181Y59470594D01*
X62309823Y59473144D01*
X62360631Y59447881D01*
X62395724Y59399153D01*
X62405846Y59345532D01*
X62593339Y59345532D01*
X62588008Y59394964D01*
X62555222Y59488945D01*
X62509579Y59554785D01*
X62427198Y59621319D01*
X62336454Y59654324D01*
X62243815Y59656427D01*
X62155746Y59630255D01*
G37*
X62155746Y59630255D02*
X62078714Y59578433D01*
X62019184Y59503588D01*
X61983622Y59408346D01*
X61976429Y59338244D01*
X61977246Y59308991D01*
X61984086Y59286593D01*
X62002888Y59266526D01*
X62039592Y59244267D01*
X62100138Y59215291D01*
X62190466Y59175073D01*
X62190923Y59174871D01*
X62274067Y59136790D01*
X62342247Y59102975D01*
X62388495Y59077067D01*
X62405842Y59062705D01*
X62405846Y59062589D01*
X62390557Y59031315D01*
X62354804Y58996843D01*
X62313758Y58972010D01*
X62292963Y58967077D01*
X62236230Y58984138D01*
X62187373Y59026867D01*
X62163535Y59073845D01*
X62140603Y59108478D01*
X62095682Y59147919D01*
X62042877Y59181991D01*
X61996290Y59200520D01*
X61986548Y59201538D01*
X61975582Y59184785D01*
X61974921Y59141961D01*
X61982980Y59084219D01*
X61998173Y59022711D01*
X62018914Y58968591D01*
X62019962Y58966490D01*
X62082379Y58879340D01*
X62163274Y58820061D01*
X62255144Y58790966D01*
X62350487Y58794366D01*
X62441802Y58832572D01*
X62445862Y58835259D01*
X62517694Y58900358D01*
X62564927Y58985295D01*
X62591066Y59096979D01*
X62594574Y59128357D01*
X62600787Y59276464D01*
X62593339Y59345532D01*
X62405846Y59345532D01*
X62403410Y59302448D01*
X62390086Y59289874D01*
X62356868Y59299281D01*
X62304506Y59321517D01*
X62245976Y59349390D01*
X62244521Y59350128D01*
X62194911Y59376223D01*
X62175000Y59393637D01*
X62179910Y59411893D01*
X62200584Y59435880D01*
X62253181Y59470594D01*
X62309823Y59473144D01*
X62360631Y59447881D01*
X62395724Y59399153D01*
X62405846Y59345532D01*
X62593339Y59345532D01*
X62588008Y59394964D01*
X62555222Y59488945D01*
X62509579Y59554785D01*
X62427198Y59621319D01*
X62336454Y59654324D01*
X62243815Y59656427D01*
X62155746Y59630255D01*
G36*
X63673114Y59642744D02*
G01*
X63581536Y59594591D01*
X63513951Y59517095D01*
X63489943Y59467273D01*
X63471262Y59392467D01*
X63461699Y59297948D01*
X63460792Y59194790D01*
X63468079Y59094065D01*
X63483097Y59006847D01*
X63505385Y58944209D01*
X63512235Y58933421D01*
X63593368Y58852895D01*
X63689734Y58804664D01*
X63794299Y58790550D01*
X63900032Y58812371D01*
X63929457Y58825453D01*
X63986759Y58865769D01*
X64037050Y58919225D01*
X64041803Y58926005D01*
X64061122Y58958679D01*
X64073892Y58993606D01*
X64081436Y59039586D01*
X64085076Y59105416D01*
X64086135Y59199895D01*
X64086154Y59221077D01*
X64086106Y59227818D01*
X63890769Y59227818D01*
X63889632Y59138651D01*
X63885159Y59079480D01*
X63875754Y59041259D01*
X63859824Y59014947D01*
X63851692Y59006154D01*
X63804942Y58972739D01*
X63759553Y58974263D01*
X63713660Y59003248D01*
X63686288Y59034191D01*
X63670077Y59079357D01*
X63660974Y59150580D01*
X63660349Y59158886D01*
X63658796Y59287963D01*
X63675035Y59383828D01*
X63708848Y59445893D01*
X63760016Y59473568D01*
X63778280Y59475077D01*
X63826240Y59467487D01*
X63859047Y59441192D01*
X63879105Y59390905D01*
X63888822Y59311336D01*
X63890769Y59227818D01*
X64086106Y59227818D01*
X64085426Y59321751D01*
X64082371Y59392094D01*
X64075678Y59440837D01*
X64064040Y59476712D01*
X64046147Y59508452D01*
X64042192Y59514352D01*
X63975733Y59593896D01*
X63903315Y59640071D01*
X63815151Y59658401D01*
X63785213Y59659297D01*
X63673114Y59642744D01*
G37*
X63673114Y59642744D02*
X63581536Y59594591D01*
X63513951Y59517095D01*
X63489943Y59467273D01*
X63471262Y59392467D01*
X63461699Y59297948D01*
X63460792Y59194790D01*
X63468079Y59094065D01*
X63483097Y59006847D01*
X63505385Y58944209D01*
X63512235Y58933421D01*
X63593368Y58852895D01*
X63689734Y58804664D01*
X63794299Y58790550D01*
X63900032Y58812371D01*
X63929457Y58825453D01*
X63986759Y58865769D01*
X64037050Y58919225D01*
X64041803Y58926005D01*
X64061122Y58958679D01*
X64073892Y58993606D01*
X64081436Y59039586D01*
X64085076Y59105416D01*
X64086135Y59199895D01*
X64086154Y59221077D01*
X64086106Y59227818D01*
X63890769Y59227818D01*
X63889632Y59138651D01*
X63885159Y59079480D01*
X63875754Y59041259D01*
X63859824Y59014947D01*
X63851692Y59006154D01*
X63804942Y58972739D01*
X63759553Y58974263D01*
X63713660Y59003248D01*
X63686288Y59034191D01*
X63670077Y59079357D01*
X63660974Y59150580D01*
X63660349Y59158886D01*
X63658796Y59287963D01*
X63675035Y59383828D01*
X63708848Y59445893D01*
X63760016Y59473568D01*
X63778280Y59475077D01*
X63826240Y59467487D01*
X63859047Y59441192D01*
X63879105Y59390905D01*
X63888822Y59311336D01*
X63890769Y59227818D01*
X64086106Y59227818D01*
X64085426Y59321751D01*
X64082371Y59392094D01*
X64075678Y59440837D01*
X64064040Y59476712D01*
X64046147Y59508452D01*
X64042192Y59514352D01*
X63975733Y59593896D01*
X63903315Y59640071D01*
X63815151Y59658401D01*
X63785213Y59659297D01*
X63673114Y59642744D01*
G36*
X61418336Y59634911D02*
G01*
X61355633Y59598642D01*
X61312039Y59562642D01*
X61280155Y59524925D01*
X61258190Y59478801D01*
X61244351Y59417579D01*
X61236847Y59334569D01*
X61233883Y59223081D01*
X61233539Y59142938D01*
X61233539Y58847935D01*
X61399615Y58773485D01*
X61409385Y59096598D01*
X61413421Y59217271D01*
X61417656Y59304859D01*
X61422903Y59365350D01*
X61429975Y59404732D01*
X61439689Y59428993D01*
X61452856Y59444120D01*
X61457081Y59447394D01*
X61521091Y59472966D01*
X61585792Y59462847D01*
X61624308Y59436000D01*
X61639975Y59416976D01*
X61650820Y59392012D01*
X61657712Y59354166D01*
X61661521Y59296498D01*
X61663117Y59212065D01*
X61663385Y59124072D01*
X61663437Y59013677D01*
X61665328Y58935537D01*
X61671655Y58882835D01*
X61685017Y58848758D01*
X61708015Y58826489D01*
X61743246Y58809213D01*
X61790303Y58791262D01*
X61841697Y58771722D01*
X61835579Y59118515D01*
X61833116Y59243532D01*
X61830233Y59335918D01*
X61826102Y59402119D01*
X61819893Y59448580D01*
X61810774Y59481744D01*
X61797917Y59508056D01*
X61782416Y59531271D01*
X61707629Y59605431D01*
X61616372Y59648316D01*
X61517117Y59658588D01*
X61418336Y59634911D01*
G37*
X61418336Y59634911D02*
X61355633Y59598642D01*
X61312039Y59562642D01*
X61280155Y59524925D01*
X61258190Y59478801D01*
X61244351Y59417579D01*
X61236847Y59334569D01*
X61233883Y59223081D01*
X61233539Y59142938D01*
X61233539Y58847935D01*
X61399615Y58773485D01*
X61409385Y59096598D01*
X61413421Y59217271D01*
X61417656Y59304859D01*
X61422903Y59365350D01*
X61429975Y59404732D01*
X61439689Y59428993D01*
X61452856Y59444120D01*
X61457081Y59447394D01*
X61521091Y59472966D01*
X61585792Y59462847D01*
X61624308Y59436000D01*
X61639975Y59416976D01*
X61650820Y59392012D01*
X61657712Y59354166D01*
X61661521Y59296498D01*
X61663117Y59212065D01*
X61663385Y59124072D01*
X61663437Y59013677D01*
X61665328Y58935537D01*
X61671655Y58882835D01*
X61685017Y58848758D01*
X61708015Y58826489D01*
X61743246Y58809213D01*
X61790303Y58791262D01*
X61841697Y58771722D01*
X61835579Y59118515D01*
X61833116Y59243532D01*
X61830233Y59335918D01*
X61826102Y59402119D01*
X61819893Y59448580D01*
X61810774Y59481744D01*
X61797917Y59508056D01*
X61782416Y59531271D01*
X61707629Y59605431D01*
X61616372Y59648316D01*
X61517117Y59658588D01*
X61418336Y59634911D01*
G36*
X62921114Y59645495D02*
G01*
X62846461Y59608273D01*
X62780569Y59539739D01*
X62762423Y59514352D01*
X62742655Y59481134D01*
X62729828Y59445055D01*
X62722490Y59396902D01*
X62719187Y59327464D01*
X62718462Y59235794D01*
X62721737Y59110170D01*
X62733123Y59015846D01*
X62754959Y58945477D01*
X62789581Y58891714D01*
X62839330Y58847212D01*
X62842986Y58844577D01*
X62892015Y58817623D01*
X62951055Y58804288D01*
X63026141Y58801000D01*
X63148205Y58801000D01*
X63148256Y58682503D01*
X63149392Y58616508D01*
X63156314Y58577798D01*
X63174402Y58554581D01*
X63209038Y58535067D01*
X63217355Y58531080D01*
X63256280Y58512397D01*
X63286417Y58500597D01*
X63308826Y58499578D01*
X63324567Y58513239D01*
X63334698Y58545478D01*
X63340277Y58600196D01*
X63342365Y58681289D01*
X63342019Y58792656D01*
X63340300Y58938198D01*
X63339763Y58981731D01*
X63337828Y59131795D01*
X63336096Y59229958D01*
X63148308Y59229958D01*
X63147252Y59146636D01*
X63142562Y59092120D01*
X63131949Y59056163D01*
X63113128Y59028518D01*
X63100350Y59015035D01*
X63048110Y58975583D01*
X63001858Y58972372D01*
X62954133Y59004951D01*
X62952923Y59006154D01*
X62933506Y59031332D01*
X62921693Y59065553D01*
X62915735Y59118252D01*
X62913880Y59198869D01*
X62913846Y59216729D01*
X62918330Y59327825D01*
X62932926Y59404839D01*
X62959350Y59451853D01*
X62999317Y59472950D01*
X63022416Y59475077D01*
X63077238Y59465100D01*
X63114842Y59432248D01*
X63137477Y59372143D01*
X63147394Y59280402D01*
X63148308Y59229958D01*
X63336096Y59229958D01*
X63335778Y59247940D01*
X63333127Y59335321D01*
X63329394Y59399095D01*
X63324093Y59444418D01*
X63316742Y59476445D01*
X63306857Y59500332D01*
X63293954Y59521236D01*
X63288421Y59529102D01*
X63215031Y59603405D01*
X63122240Y59645533D01*
X63014904Y59657278D01*
X62921114Y59645495D01*
G37*
X62921114Y59645495D02*
X62846461Y59608273D01*
X62780569Y59539739D01*
X62762423Y59514352D01*
X62742655Y59481134D01*
X62729828Y59445055D01*
X62722490Y59396902D01*
X62719187Y59327464D01*
X62718462Y59235794D01*
X62721737Y59110170D01*
X62733123Y59015846D01*
X62754959Y58945477D01*
X62789581Y58891714D01*
X62839330Y58847212D01*
X62842986Y58844577D01*
X62892015Y58817623D01*
X62951055Y58804288D01*
X63026141Y58801000D01*
X63148205Y58801000D01*
X63148256Y58682503D01*
X63149392Y58616508D01*
X63156314Y58577798D01*
X63174402Y58554581D01*
X63209038Y58535067D01*
X63217355Y58531080D01*
X63256280Y58512397D01*
X63286417Y58500597D01*
X63308826Y58499578D01*
X63324567Y58513239D01*
X63334698Y58545478D01*
X63340277Y58600196D01*
X63342365Y58681289D01*
X63342019Y58792656D01*
X63340300Y58938198D01*
X63339763Y58981731D01*
X63337828Y59131795D01*
X63336096Y59229958D01*
X63148308Y59229958D01*
X63147252Y59146636D01*
X63142562Y59092120D01*
X63131949Y59056163D01*
X63113128Y59028518D01*
X63100350Y59015035D01*
X63048110Y58975583D01*
X63001858Y58972372D01*
X62954133Y59004951D01*
X62952923Y59006154D01*
X62933506Y59031332D01*
X62921693Y59065553D01*
X62915735Y59118252D01*
X62913880Y59198869D01*
X62913846Y59216729D01*
X62918330Y59327825D01*
X62932926Y59404839D01*
X62959350Y59451853D01*
X62999317Y59472950D01*
X63022416Y59475077D01*
X63077238Y59465100D01*
X63114842Y59432248D01*
X63137477Y59372143D01*
X63147394Y59280402D01*
X63148308Y59229958D01*
X63336096Y59229958D01*
X63335778Y59247940D01*
X63333127Y59335321D01*
X63329394Y59399095D01*
X63324093Y59444418D01*
X63316742Y59476445D01*
X63306857Y59500332D01*
X63293954Y59521236D01*
X63288421Y59529102D01*
X63215031Y59603405D01*
X63122240Y59645533D01*
X63014904Y59657278D01*
X62921114Y59645495D01*
D13*
X13263880Y57658000D02*
X11993880Y57658000D01*
X13263880Y56388000D02*
X13263880Y57658000D01*
X10950951Y38228000D02*
X10553880Y38228000D01*
X10950951Y38988000D02*
X10553880Y38988000D01*
X1893880Y38228000D02*
X7893880Y38228000D01*
X1893880Y38988000D02*
X1893880Y38228000D01*
X7893880Y38988000D02*
X1893880Y38988000D01*
X10553880Y39878000D02*
X7893880Y39878000D01*
X10950951Y40768000D02*
X10553880Y40768000D01*
X10950951Y41528000D02*
X10553880Y41528000D01*
X1893880Y40768000D02*
X7893880Y40768000D01*
X1893880Y41528000D02*
X1893880Y40768000D01*
X7893880Y41528000D02*
X1893880Y41528000D01*
X10553880Y42418000D02*
X7893880Y42418000D01*
X10950951Y43308000D02*
X10553880Y43308000D01*
X10950951Y44068000D02*
X10553880Y44068000D01*
X1893880Y43308000D02*
X7893880Y43308000D01*
X1893880Y44068000D02*
X1893880Y43308000D01*
X7893880Y44068000D02*
X1893880Y44068000D01*
X10553880Y44958000D02*
X7893880Y44958000D01*
X10950951Y45848000D02*
X10553880Y45848000D01*
X10950951Y46608000D02*
X10553880Y46608000D01*
X1893880Y45848000D02*
X7893880Y45848000D01*
X1893880Y46608000D02*
X1893880Y45848000D01*
X7893880Y46608000D02*
X1893880Y46608000D01*
X10553880Y47498000D02*
X7893880Y47498000D01*
X10950951Y48388000D02*
X10553880Y48388000D01*
X10950951Y49148000D02*
X10553880Y49148000D01*
X1893880Y48388000D02*
X7893880Y48388000D01*
X1893880Y49148000D02*
X1893880Y48388000D01*
X7893880Y49148000D02*
X1893880Y49148000D01*
X10553880Y50038000D02*
X7893880Y50038000D01*
X10950951Y50928000D02*
X10553880Y50928000D01*
X10950951Y51688000D02*
X10553880Y51688000D01*
X1893880Y50928000D02*
X7893880Y50928000D01*
X1893880Y51688000D02*
X1893880Y50928000D01*
X7893880Y51688000D02*
X1893880Y51688000D01*
X10553880Y52578000D02*
X7893880Y52578000D01*
X10950951Y53468000D02*
X10553880Y53468000D01*
X10950951Y54228000D02*
X10553880Y54228000D01*
X1893880Y53468000D02*
X7893880Y53468000D01*
X1893880Y54228000D02*
X1893880Y53468000D01*
X7893880Y54228000D02*
X1893880Y54228000D01*
X10553880Y55118000D02*
X7893880Y55118000D01*
X10883880Y56008000D02*
X10553880Y56008000D01*
X10883880Y56768000D02*
X10553880Y56768000D01*
X7893880Y56108000D02*
X1893880Y56108000D01*
X7893880Y56228000D02*
X1893880Y56228000D01*
X7893880Y56348000D02*
X1893880Y56348000D01*
X7893880Y56468000D02*
X1893880Y56468000D01*
X7893880Y56588000D02*
X1893880Y56588000D01*
X7893880Y56708000D02*
X1893880Y56708000D01*
X1893880Y56008000D02*
X7893880Y56008000D01*
X1893880Y56768000D02*
X1893880Y56008000D01*
X7893880Y56768000D02*
X1893880Y56768000D01*
X7893880Y57718000D02*
X10553880Y57718000D01*
X7893880Y37278000D02*
X7893880Y57718000D01*
X10553880Y37278000D02*
X7893880Y37278000D01*
X10553880Y57718000D02*
X10553880Y37278000D01*
M02*
