G04 #@! TF.GenerationSoftware,KiCad,Pcbnew,(5.1.5-0)*
G04 #@! TF.CreationDate,2022-07-03T13:43:41+01:00*
G04 #@! TF.ProjectId,ESP32_Cnc_Shield,45535033-325f-4436-9e63-5f536869656c,rev?*
G04 #@! TF.SameCoordinates,Original*
G04 #@! TF.FileFunction,Legend,Top*
G04 #@! TF.FilePolarity,Positive*
%FSLAX46Y46*%
G04 Gerber Fmt 4.6, Leading zero omitted, Abs format (unit mm)*
G04 Created by KiCad (PCBNEW (5.1.5-0)) date 2022-07-03 13:43:41*
%MOMM*%
%LPD*%
G04 APERTURE LIST*
%ADD10C,0.200000*%
%ADD11C,0.300000*%
%ADD12C,0.010000*%
%ADD13C,0.120000*%
%ADD14C,0.150000*%
G04 APERTURE END LIST*
D10*
X62116008Y44878287D02*
X62116008Y45640192D01*
X62496960Y45259240D02*
X61735056Y45259240D01*
X61973151Y46449716D02*
X61973151Y46116382D01*
X62496960Y46116382D02*
X61496960Y46116382D01*
X61496960Y46592573D01*
X62211246Y46925906D02*
X62211246Y47402097D01*
X62496960Y46830668D02*
X61496960Y47164001D01*
X62496960Y47497335D01*
X62496960Y47830668D02*
X61496960Y47830668D01*
X62496960Y48402097D01*
X61496960Y48402097D01*
X62116008Y48878287D02*
X62116008Y49640192D01*
D11*
X64305642Y32644034D02*
X64305642Y33786891D01*
X64877071Y33215462D02*
X63734214Y33215462D01*
X63519928Y35572605D02*
X63448500Y35644034D01*
X63377071Y35786891D01*
X63377071Y36144034D01*
X63448500Y36286891D01*
X63519928Y36358320D01*
X63662785Y36429748D01*
X63805642Y36429748D01*
X64019928Y36358320D01*
X64877071Y35501177D01*
X64877071Y36429748D01*
X63877071Y37715462D02*
X64877071Y37715462D01*
X63305642Y37358320D02*
X64377071Y37001177D01*
X64377071Y37929748D01*
X63377071Y38286891D02*
X64877071Y38786891D01*
X63377071Y39286891D01*
X64305642Y40929748D02*
X64305642Y42072605D01*
X49417331Y38205725D02*
X49417331Y37491440D01*
X50131617Y37420011D01*
X50060188Y37491440D01*
X49988760Y37634297D01*
X49988760Y37991440D01*
X50060188Y38134297D01*
X50131617Y38205725D01*
X50274474Y38277154D01*
X50631617Y38277154D01*
X50774474Y38205725D01*
X50845902Y38134297D01*
X50917331Y37991440D01*
X50917331Y37634297D01*
X50845902Y37491440D01*
X50774474Y37420011D01*
X49417331Y38705725D02*
X50917331Y39205725D01*
X49417331Y39705725D01*
D10*
X42120298Y27682439D02*
X42453631Y26682439D01*
X42786964Y27682439D01*
X43120298Y26682439D02*
X43120298Y27682439D01*
X43453631Y26968153D01*
X43786964Y27682439D01*
X43786964Y26682439D01*
D11*
X18214285Y38207142D02*
X18714285Y38207142D01*
X18928571Y37421428D02*
X18214285Y37421428D01*
X18214285Y38921428D01*
X18928571Y38921428D01*
X19500000Y37492857D02*
X19714285Y37421428D01*
X20071428Y37421428D01*
X20214285Y37492857D01*
X20285714Y37564285D01*
X20357142Y37707142D01*
X20357142Y37850000D01*
X20285714Y37992857D01*
X20214285Y38064285D01*
X20071428Y38135714D01*
X19785714Y38207142D01*
X19642857Y38278571D01*
X19571428Y38350000D01*
X19500000Y38492857D01*
X19500000Y38635714D01*
X19571428Y38778571D01*
X19642857Y38850000D01*
X19785714Y38921428D01*
X20142857Y38921428D01*
X20357142Y38850000D01*
X21000000Y37421428D02*
X21000000Y38921428D01*
X21571428Y38921428D01*
X21714285Y38850000D01*
X21785714Y38778571D01*
X21857142Y38635714D01*
X21857142Y38421428D01*
X21785714Y38278571D01*
X21714285Y38207142D01*
X21571428Y38135714D01*
X21000000Y38135714D01*
X22357142Y38921428D02*
X23285714Y38921428D01*
X22785714Y38350000D01*
X23000000Y38350000D01*
X23142857Y38278571D01*
X23214285Y38207142D01*
X23285714Y38064285D01*
X23285714Y37707142D01*
X23214285Y37564285D01*
X23142857Y37492857D01*
X23000000Y37421428D01*
X22571428Y37421428D01*
X22428571Y37492857D01*
X22357142Y37564285D01*
X23857142Y38778571D02*
X23928571Y38850000D01*
X24071428Y38921428D01*
X24428571Y38921428D01*
X24571428Y38850000D01*
X24642857Y38778571D01*
X24714285Y38635714D01*
X24714285Y38492857D01*
X24642857Y38278571D01*
X23785714Y37421428D01*
X24714285Y37421428D01*
X27357142Y37564285D02*
X27285714Y37492857D01*
X27071428Y37421428D01*
X26928571Y37421428D01*
X26714285Y37492857D01*
X26571428Y37635714D01*
X26500000Y37778571D01*
X26428571Y38064285D01*
X26428571Y38278571D01*
X26500000Y38564285D01*
X26571428Y38707142D01*
X26714285Y38850000D01*
X26928571Y38921428D01*
X27071428Y38921428D01*
X27285714Y38850000D01*
X27357142Y38778571D01*
X28000000Y37421428D02*
X28000000Y38921428D01*
X28857142Y37421428D01*
X28857142Y38921428D01*
X30428571Y37564285D02*
X30357142Y37492857D01*
X30142857Y37421428D01*
X30000000Y37421428D01*
X29785714Y37492857D01*
X29642857Y37635714D01*
X29571428Y37778571D01*
X29500000Y38064285D01*
X29500000Y38278571D01*
X29571428Y38564285D01*
X29642857Y38707142D01*
X29785714Y38850000D01*
X30000000Y38921428D01*
X30142857Y38921428D01*
X30357142Y38850000D01*
X30428571Y38778571D01*
X32142857Y37492857D02*
X32357142Y37421428D01*
X32714285Y37421428D01*
X32857142Y37492857D01*
X32928571Y37564285D01*
X32999999Y37707142D01*
X32999999Y37850000D01*
X32928571Y37992857D01*
X32857142Y38064285D01*
X32714285Y38135714D01*
X32428571Y38207142D01*
X32285714Y38278571D01*
X32214285Y38350000D01*
X32142857Y38492857D01*
X32142857Y38635714D01*
X32214285Y38778571D01*
X32285714Y38850000D01*
X32428571Y38921428D01*
X32785714Y38921428D01*
X32999999Y38850000D01*
X33642857Y37421428D02*
X33642857Y38921428D01*
X33642857Y38207142D02*
X34500000Y38207142D01*
X34500000Y37421428D02*
X34500000Y38921428D01*
X35214285Y37421428D02*
X35214285Y38921428D01*
X35928571Y38207142D02*
X36428571Y38207142D01*
X36642857Y37421428D02*
X35928571Y37421428D01*
X35928571Y38921428D01*
X36642857Y38921428D01*
X38000000Y37421428D02*
X37285714Y37421428D01*
X37285714Y38921428D01*
X38500000Y37421428D02*
X38500000Y38921428D01*
X38857142Y38921428D01*
X39071428Y38850000D01*
X39214285Y38707142D01*
X39285714Y38564285D01*
X39357142Y38278571D01*
X39357142Y38064285D01*
X39285714Y37778571D01*
X39214285Y37635714D01*
X39071428Y37492857D01*
X38857142Y37421428D01*
X38500000Y37421428D01*
X40928571Y38921428D02*
X41428571Y37421428D01*
X41928571Y38921428D01*
X43214285Y37421428D02*
X42357142Y37421428D01*
X42785714Y37421428D02*
X42785714Y38921428D01*
X42642857Y38707142D01*
X42500000Y38564285D01*
X42357142Y38492857D01*
X43857142Y37564285D02*
X43928571Y37492857D01*
X43857142Y37421428D01*
X43785714Y37492857D01*
X43857142Y37564285D01*
X43857142Y37421428D01*
X45357142Y37421428D02*
X44500000Y37421428D01*
X44928571Y37421428D02*
X44928571Y38921428D01*
X44785714Y38707142D01*
X44642857Y38564285D01*
X44500000Y38492857D01*
X1284331Y46206940D02*
X2784331Y46564082D01*
X1712902Y46849797D01*
X2784331Y47135511D01*
X1284331Y47492654D01*
X2784331Y48064082D02*
X1284331Y48064082D01*
X1998617Y49278368D02*
X1998617Y48778368D01*
X2784331Y48778368D02*
X1284331Y48778368D01*
X1284331Y49492654D01*
X2784331Y50064082D02*
X1284331Y50064082D01*
X52528831Y44980582D02*
X53743117Y44980582D01*
X53885974Y45052011D01*
X53957402Y45123440D01*
X54028831Y45266297D01*
X54028831Y45552011D01*
X53957402Y45694868D01*
X53885974Y45766297D01*
X53743117Y45837725D01*
X52528831Y45837725D01*
X53957402Y46480582D02*
X54028831Y46694868D01*
X54028831Y47052011D01*
X53957402Y47194868D01*
X53885974Y47266297D01*
X53743117Y47337725D01*
X53600260Y47337725D01*
X53457402Y47266297D01*
X53385974Y47194868D01*
X53314545Y47052011D01*
X53243117Y46766297D01*
X53171688Y46623440D01*
X53100260Y46552011D01*
X52957402Y46480582D01*
X52814545Y46480582D01*
X52671688Y46552011D01*
X52600260Y46623440D01*
X52528831Y46766297D01*
X52528831Y47123440D01*
X52600260Y47337725D01*
X53243117Y48480582D02*
X53314545Y48694868D01*
X53385974Y48766297D01*
X53528831Y48837725D01*
X53743117Y48837725D01*
X53885974Y48766297D01*
X53957402Y48694868D01*
X54028831Y48552011D01*
X54028831Y47980582D01*
X52528831Y47980582D01*
X52528831Y48480582D01*
X52600260Y48623440D01*
X52671688Y48694868D01*
X52814545Y48766297D01*
X52957402Y48766297D01*
X53100260Y48694868D01*
X53171688Y48623440D01*
X53243117Y48480582D01*
X53243117Y47980582D01*
X3451260Y54493582D02*
X3379831Y54350725D01*
X3379831Y54136440D01*
X3451260Y53922154D01*
X3594117Y53779297D01*
X3736974Y53707868D01*
X4022688Y53636440D01*
X4236974Y53636440D01*
X4522688Y53707868D01*
X4665545Y53779297D01*
X4808402Y53922154D01*
X4879831Y54136440D01*
X4879831Y54279297D01*
X4808402Y54493582D01*
X4736974Y54565011D01*
X4236974Y54565011D01*
X4236974Y54279297D01*
X4879831Y55207868D02*
X3379831Y55207868D01*
X4879831Y56065011D01*
X3379831Y56065011D01*
X4879831Y56779297D02*
X3379831Y56779297D01*
X3379831Y57136440D01*
X3451260Y57350725D01*
X3594117Y57493582D01*
X3736974Y57565011D01*
X4022688Y57636440D01*
X4236974Y57636440D01*
X4522688Y57565011D01*
X4665545Y57493582D01*
X4808402Y57350725D01*
X4879831Y57136440D01*
X4879831Y56779297D01*
X3506831Y36697797D02*
X3506831Y37626368D01*
X4078260Y37126368D01*
X4078260Y37340654D01*
X4149688Y37483511D01*
X4221117Y37554940D01*
X4363974Y37626368D01*
X4721117Y37626368D01*
X4863974Y37554940D01*
X4935402Y37483511D01*
X5006831Y37340654D01*
X5006831Y36912082D01*
X4935402Y36769225D01*
X4863974Y36697797D01*
X3506831Y38054940D02*
X5006831Y38554940D01*
X3506831Y39054940D01*
X3506831Y39412082D02*
X3506831Y40340654D01*
X4078260Y39840654D01*
X4078260Y40054940D01*
X4149688Y40197797D01*
X4221117Y40269225D01*
X4363974Y40340654D01*
X4721117Y40340654D01*
X4863974Y40269225D01*
X4935402Y40197797D01*
X5006831Y40054940D01*
X5006831Y39626368D01*
X4935402Y39483511D01*
X4863974Y39412082D01*
X50774474Y54870582D02*
X50845902Y54799154D01*
X50917331Y54584868D01*
X50917331Y54442011D01*
X50845902Y54227725D01*
X50703045Y54084868D01*
X50560188Y54013440D01*
X50274474Y53942011D01*
X50060188Y53942011D01*
X49774474Y54013440D01*
X49631617Y54084868D01*
X49488760Y54227725D01*
X49417331Y54442011D01*
X49417331Y54584868D01*
X49488760Y54799154D01*
X49560188Y54870582D01*
X50917331Y56227725D02*
X50917331Y55513440D01*
X49417331Y55513440D01*
X50917331Y56727725D02*
X49417331Y56727725D01*
X50917331Y57584868D02*
X50060188Y56942011D01*
X49417331Y57584868D02*
X50274474Y56727725D01*
D10*
X35458095Y9750000D02*
X35362857Y9797619D01*
X35220000Y9797619D01*
X35077142Y9750000D01*
X34981904Y9654761D01*
X34934285Y9559523D01*
X34886666Y9369047D01*
X34886666Y9226190D01*
X34934285Y9035714D01*
X34981904Y8940476D01*
X35077142Y8845238D01*
X35220000Y8797619D01*
X35315238Y8797619D01*
X35458095Y8845238D01*
X35505714Y8892857D01*
X35505714Y9226190D01*
X35315238Y9226190D01*
X35934285Y8797619D02*
X35934285Y9797619D01*
X36505714Y8797619D01*
X36505714Y9797619D01*
X36981904Y8797619D02*
X36981904Y9797619D01*
X37220000Y9797619D01*
X37362857Y9750000D01*
X37458095Y9654761D01*
X37505714Y9559523D01*
X37553333Y9369047D01*
X37553333Y9226190D01*
X37505714Y9035714D01*
X37458095Y8940476D01*
X37362857Y8845238D01*
X37220000Y8797619D01*
X36981904Y8797619D01*
X63600215Y9307140D02*
X63504977Y9354759D01*
X63362120Y9354759D01*
X63219262Y9307140D01*
X63124024Y9211901D01*
X63076405Y9116663D01*
X63028786Y8926187D01*
X63028786Y8783330D01*
X63076405Y8592854D01*
X63124024Y8497616D01*
X63219262Y8402378D01*
X63362120Y8354759D01*
X63457358Y8354759D01*
X63600215Y8402378D01*
X63647834Y8449997D01*
X63647834Y8783330D01*
X63457358Y8783330D01*
X64076405Y8354759D02*
X64076405Y9354759D01*
X64647834Y8354759D01*
X64647834Y9354759D01*
X65124024Y8354759D02*
X65124024Y9354759D01*
X65362120Y9354759D01*
X65504977Y9307140D01*
X65600215Y9211901D01*
X65647834Y9116663D01*
X65695453Y8926187D01*
X65695453Y8783330D01*
X65647834Y8592854D01*
X65600215Y8497616D01*
X65504977Y8402378D01*
X65362120Y8354759D01*
X65124024Y8354759D01*
X20170235Y9735440D02*
X20074997Y9783059D01*
X19932140Y9783059D01*
X19789282Y9735440D01*
X19694044Y9640201D01*
X19646425Y9544963D01*
X19598806Y9354487D01*
X19598806Y9211630D01*
X19646425Y9021154D01*
X19694044Y8925916D01*
X19789282Y8830678D01*
X19932140Y8783059D01*
X20027378Y8783059D01*
X20170235Y8830678D01*
X20217854Y8878297D01*
X20217854Y9211630D01*
X20027378Y9211630D01*
X20646425Y8783059D02*
X20646425Y9783059D01*
X21217854Y8783059D01*
X21217854Y9783059D01*
X21694044Y8783059D02*
X21694044Y9783059D01*
X21932140Y9783059D01*
X22074997Y9735440D01*
X22170235Y9640201D01*
X22217854Y9544963D01*
X22265473Y9354487D01*
X22265473Y9211630D01*
X22217854Y9021154D01*
X22170235Y8925916D01*
X22074997Y8830678D01*
X21932140Y8783059D01*
X21694044Y8783059D01*
X16839678Y30270699D02*
X17173011Y29270699D01*
X17506344Y30270699D01*
X17839678Y29270699D02*
X17839678Y30270699D01*
X18173011Y29556413D01*
X18506344Y30270699D01*
X18506344Y29270699D01*
X60189858Y30166559D02*
X60523191Y29166559D01*
X60856524Y30166559D01*
X61189858Y29166559D02*
X61189858Y30166559D01*
X61523191Y29452273D01*
X61856524Y30166559D01*
X61856524Y29166559D01*
X831340Y8955779D02*
X831340Y9955779D01*
X1069435Y9955779D01*
X1212292Y9908160D01*
X1307530Y9812921D01*
X1355149Y9717683D01*
X1402768Y9527207D01*
X1402768Y9384350D01*
X1355149Y9193874D01*
X1307530Y9098636D01*
X1212292Y9003398D01*
X1069435Y8955779D01*
X831340Y8955779D01*
X1831340Y8955779D02*
X1831340Y9955779D01*
X2878959Y8955779D02*
X2545625Y9431969D01*
X2307530Y8955779D02*
X2307530Y9955779D01*
X2688482Y9955779D01*
X2783720Y9908160D01*
X2831340Y9860540D01*
X2878959Y9765302D01*
X2878959Y9622445D01*
X2831340Y9527207D01*
X2783720Y9479588D01*
X2688482Y9431969D01*
X2307530Y9431969D01*
X44360100Y8865399D02*
X44360100Y9865399D01*
X44598195Y9865399D01*
X44741052Y9817780D01*
X44836290Y9722541D01*
X44883909Y9627303D01*
X44931528Y9436827D01*
X44931528Y9293970D01*
X44883909Y9103494D01*
X44836290Y9008256D01*
X44741052Y8913018D01*
X44598195Y8865399D01*
X44360100Y8865399D01*
X45360100Y8865399D02*
X45360100Y9865399D01*
X46407719Y8865399D02*
X46074385Y9341589D01*
X45836290Y8865399D02*
X45836290Y9865399D01*
X46217242Y9865399D01*
X46312480Y9817780D01*
X46360100Y9770160D01*
X46407719Y9674922D01*
X46407719Y9532065D01*
X46360100Y9436827D01*
X46312480Y9389208D01*
X46217242Y9341589D01*
X45836290Y9341589D01*
X23009720Y8926819D02*
X23009720Y9926819D01*
X23247815Y9926819D01*
X23390672Y9879200D01*
X23485910Y9783961D01*
X23533529Y9688723D01*
X23581148Y9498247D01*
X23581148Y9355390D01*
X23533529Y9164914D01*
X23485910Y9069676D01*
X23390672Y8974438D01*
X23247815Y8926819D01*
X23009720Y8926819D01*
X24009720Y8926819D02*
X24009720Y9926819D01*
X25057339Y8926819D02*
X24724005Y9403009D01*
X24485910Y8926819D02*
X24485910Y9926819D01*
X24866862Y9926819D01*
X24962100Y9879200D01*
X25009720Y9831580D01*
X25057339Y9736342D01*
X25057339Y9593485D01*
X25009720Y9498247D01*
X24962100Y9450628D01*
X24866862Y9403009D01*
X24485910Y9403009D01*
X3645944Y29827528D02*
X3979278Y29827528D01*
X4122135Y29303719D02*
X3645944Y29303719D01*
X3645944Y30303719D01*
X4122135Y30303719D01*
X4550706Y29303719D02*
X4550706Y30303719D01*
X5122135Y29303719D01*
X5122135Y30303719D01*
X47653984Y29642108D02*
X47987318Y29642108D01*
X48130175Y29118299D02*
X47653984Y29118299D01*
X47653984Y30118299D01*
X48130175Y30118299D01*
X48558746Y29118299D02*
X48558746Y30118299D01*
X49130175Y29118299D01*
X49130175Y30118299D01*
X26414504Y29840228D02*
X26747838Y29840228D01*
X26890695Y29316419D02*
X26414504Y29316419D01*
X26414504Y30316419D01*
X26890695Y30316419D01*
X27319266Y29316419D02*
X27319266Y30316419D01*
X27890695Y29316419D01*
X27890695Y30316419D01*
X43603705Y23972259D02*
X43603705Y24972259D01*
X43937039Y24257973D01*
X44270372Y24972259D01*
X44270372Y23972259D01*
X44698943Y24019878D02*
X44841800Y23972259D01*
X45079896Y23972259D01*
X45175134Y24019878D01*
X45222753Y24067497D01*
X45270372Y24162735D01*
X45270372Y24257973D01*
X45222753Y24353211D01*
X45175134Y24400830D01*
X45079896Y24448449D01*
X44889420Y24496068D01*
X44794181Y24543687D01*
X44746562Y24591306D01*
X44698943Y24686544D01*
X44698943Y24781782D01*
X44746562Y24877020D01*
X44794181Y24924640D01*
X44889420Y24972259D01*
X45127515Y24972259D01*
X45270372Y24924640D01*
X45889420Y24972259D02*
X45984658Y24972259D01*
X46079896Y24924640D01*
X46127515Y24877020D01*
X46175134Y24781782D01*
X46222753Y24591306D01*
X46222753Y24353211D01*
X46175134Y24162735D01*
X46127515Y24067497D01*
X46079896Y24019878D01*
X45984658Y23972259D01*
X45889420Y23972259D01*
X45794181Y24019878D01*
X45746562Y24067497D01*
X45698943Y24162735D01*
X45651324Y24353211D01*
X45651324Y24591306D01*
X45698943Y24781782D01*
X45746562Y24877020D01*
X45794181Y24924640D01*
X45889420Y24972259D01*
X7042945Y23151839D02*
X7042945Y24151839D01*
X7376279Y23437553D01*
X7709612Y24151839D01*
X7709612Y23151839D01*
X8138183Y23199458D02*
X8281040Y23151839D01*
X8519136Y23151839D01*
X8614374Y23199458D01*
X8661993Y23247077D01*
X8709612Y23342315D01*
X8709612Y23437553D01*
X8661993Y23532791D01*
X8614374Y23580410D01*
X8519136Y23628029D01*
X8328660Y23675648D01*
X8233421Y23723267D01*
X8185802Y23770886D01*
X8138183Y23866124D01*
X8138183Y23961362D01*
X8185802Y24056600D01*
X8233421Y24104220D01*
X8328660Y24151839D01*
X8566755Y24151839D01*
X8709612Y24104220D01*
X9328660Y24151839D02*
X9423898Y24151839D01*
X9519136Y24104220D01*
X9566755Y24056600D01*
X9614374Y23961362D01*
X9661993Y23770886D01*
X9661993Y23532791D01*
X9614374Y23342315D01*
X9566755Y23247077D01*
X9519136Y23199458D01*
X9423898Y23151839D01*
X9328660Y23151839D01*
X9233421Y23199458D01*
X9185802Y23247077D01*
X9138183Y23342315D01*
X9090564Y23532791D01*
X9090564Y23770886D01*
X9138183Y23961362D01*
X9185802Y24056600D01*
X9233421Y24104220D01*
X9328660Y24151839D01*
X7296945Y21546559D02*
X7296945Y22546559D01*
X7630279Y21832273D01*
X7963612Y22546559D01*
X7963612Y21546559D01*
X8392183Y21594178D02*
X8535040Y21546559D01*
X8773136Y21546559D01*
X8868374Y21594178D01*
X8915993Y21641797D01*
X8963612Y21737035D01*
X8963612Y21832273D01*
X8915993Y21927511D01*
X8868374Y21975130D01*
X8773136Y22022749D01*
X8582660Y22070368D01*
X8487421Y22117987D01*
X8439802Y22165606D01*
X8392183Y22260844D01*
X8392183Y22356082D01*
X8439802Y22451320D01*
X8487421Y22498940D01*
X8582660Y22546559D01*
X8820755Y22546559D01*
X8963612Y22498940D01*
X9915993Y21546559D02*
X9344564Y21546559D01*
X9630279Y21546559D02*
X9630279Y22546559D01*
X9535040Y22403701D01*
X9439802Y22308463D01*
X9344564Y22260844D01*
X43883885Y21475439D02*
X43883885Y22475439D01*
X44217219Y21761153D01*
X44550552Y22475439D01*
X44550552Y21475439D01*
X44979123Y21523058D02*
X45121980Y21475439D01*
X45360076Y21475439D01*
X45455314Y21523058D01*
X45502933Y21570677D01*
X45550552Y21665915D01*
X45550552Y21761153D01*
X45502933Y21856391D01*
X45455314Y21904010D01*
X45360076Y21951629D01*
X45169600Y21999248D01*
X45074361Y22046867D01*
X45026742Y22094486D01*
X44979123Y22189724D01*
X44979123Y22284962D01*
X45026742Y22380200D01*
X45074361Y22427820D01*
X45169600Y22475439D01*
X45407695Y22475439D01*
X45550552Y22427820D01*
X46502933Y21475439D02*
X45931504Y21475439D01*
X46217219Y21475439D02*
X46217219Y22475439D01*
X46121980Y22332581D01*
X46026742Y22237343D01*
X45931504Y22189724D01*
X7220745Y19097999D02*
X7220745Y20097999D01*
X7554079Y19383713D01*
X7887412Y20097999D01*
X7887412Y19097999D01*
X8315983Y19145618D02*
X8458840Y19097999D01*
X8696936Y19097999D01*
X8792174Y19145618D01*
X8839793Y19193237D01*
X8887412Y19288475D01*
X8887412Y19383713D01*
X8839793Y19478951D01*
X8792174Y19526570D01*
X8696936Y19574189D01*
X8506460Y19621808D01*
X8411221Y19669427D01*
X8363602Y19717046D01*
X8315983Y19812284D01*
X8315983Y19907522D01*
X8363602Y20002760D01*
X8411221Y20050380D01*
X8506460Y20097999D01*
X8744555Y20097999D01*
X8887412Y20050380D01*
X9268364Y20002760D02*
X9315983Y20050380D01*
X9411221Y20097999D01*
X9649317Y20097999D01*
X9744555Y20050380D01*
X9792174Y20002760D01*
X9839793Y19907522D01*
X9839793Y19812284D01*
X9792174Y19669427D01*
X9220745Y19097999D01*
X9839793Y19097999D01*
X43677365Y19014179D02*
X43677365Y20014179D01*
X44010699Y19299893D01*
X44344032Y20014179D01*
X44344032Y19014179D01*
X44772603Y19061798D02*
X44915460Y19014179D01*
X45153556Y19014179D01*
X45248794Y19061798D01*
X45296413Y19109417D01*
X45344032Y19204655D01*
X45344032Y19299893D01*
X45296413Y19395131D01*
X45248794Y19442750D01*
X45153556Y19490369D01*
X44963080Y19537988D01*
X44867841Y19585607D01*
X44820222Y19633226D01*
X44772603Y19728464D01*
X44772603Y19823702D01*
X44820222Y19918940D01*
X44867841Y19966560D01*
X44963080Y20014179D01*
X45201175Y20014179D01*
X45344032Y19966560D01*
X45724984Y19918940D02*
X45772603Y19966560D01*
X45867841Y20014179D01*
X46105937Y20014179D01*
X46201175Y19966560D01*
X46248794Y19918940D01*
X46296413Y19823702D01*
X46296413Y19728464D01*
X46248794Y19585607D01*
X45677365Y19014179D01*
X46296413Y19014179D01*
X22279505Y19213819D02*
X22279505Y20213819D01*
X22612839Y19499533D01*
X22946172Y20213819D01*
X22946172Y19213819D01*
X23374743Y19261438D02*
X23517600Y19213819D01*
X23755696Y19213819D01*
X23850934Y19261438D01*
X23898553Y19309057D01*
X23946172Y19404295D01*
X23946172Y19499533D01*
X23898553Y19594771D01*
X23850934Y19642390D01*
X23755696Y19690009D01*
X23565220Y19737628D01*
X23469981Y19785247D01*
X23422362Y19832866D01*
X23374743Y19928104D01*
X23374743Y20023342D01*
X23422362Y20118580D01*
X23469981Y20166200D01*
X23565220Y20213819D01*
X23803315Y20213819D01*
X23946172Y20166200D01*
X24327124Y20118580D02*
X24374743Y20166200D01*
X24469981Y20213819D01*
X24708077Y20213819D01*
X24803315Y20166200D01*
X24850934Y20118580D01*
X24898553Y20023342D01*
X24898553Y19928104D01*
X24850934Y19785247D01*
X24279505Y19213819D01*
X24898553Y19213819D01*
X22216005Y21690319D02*
X22216005Y22690319D01*
X22549339Y21976033D01*
X22882672Y22690319D01*
X22882672Y21690319D01*
X23311243Y21737938D02*
X23454100Y21690319D01*
X23692196Y21690319D01*
X23787434Y21737938D01*
X23835053Y21785557D01*
X23882672Y21880795D01*
X23882672Y21976033D01*
X23835053Y22071271D01*
X23787434Y22118890D01*
X23692196Y22166509D01*
X23501720Y22214128D01*
X23406481Y22261747D01*
X23358862Y22309366D01*
X23311243Y22404604D01*
X23311243Y22499842D01*
X23358862Y22595080D01*
X23406481Y22642700D01*
X23501720Y22690319D01*
X23739815Y22690319D01*
X23882672Y22642700D01*
X24835053Y21690319D02*
X24263624Y21690319D01*
X24549339Y21690319D02*
X24549339Y22690319D01*
X24454100Y22547461D01*
X24358862Y22452223D01*
X24263624Y22404604D01*
X22315965Y24205939D02*
X22315965Y25205939D01*
X22649299Y24491653D01*
X22982632Y25205939D01*
X22982632Y24205939D01*
X23411203Y24253558D02*
X23554060Y24205939D01*
X23792156Y24205939D01*
X23887394Y24253558D01*
X23935013Y24301177D01*
X23982632Y24396415D01*
X23982632Y24491653D01*
X23935013Y24586891D01*
X23887394Y24634510D01*
X23792156Y24682129D01*
X23601680Y24729748D01*
X23506441Y24777367D01*
X23458822Y24824986D01*
X23411203Y24920224D01*
X23411203Y25015462D01*
X23458822Y25110700D01*
X23506441Y25158320D01*
X23601680Y25205939D01*
X23839775Y25205939D01*
X23982632Y25158320D01*
X24601680Y25205939D02*
X24696918Y25205939D01*
X24792156Y25158320D01*
X24839775Y25110700D01*
X24887394Y25015462D01*
X24935013Y24824986D01*
X24935013Y24586891D01*
X24887394Y24396415D01*
X24839775Y24301177D01*
X24792156Y24253558D01*
X24696918Y24205939D01*
X24601680Y24205939D01*
X24506441Y24253558D01*
X24458822Y24301177D01*
X24411203Y24396415D01*
X24363584Y24586891D01*
X24363584Y24824986D01*
X24411203Y25015462D01*
X24458822Y25110700D01*
X24506441Y25158320D01*
X24601680Y25205939D01*
X9753747Y71785451D02*
X10515652Y71785451D01*
X19337067Y71937571D02*
X20098972Y71937571D01*
X23327406Y76002900D02*
X22660740Y77002900D01*
X22660740Y76002900D02*
X23327406Y77002900D01*
X22279787Y76621948D02*
X21517882Y76621948D01*
X20565501Y77002900D02*
X21041692Y77002900D01*
X21041692Y76002900D01*
X20232168Y77002900D02*
X20232168Y76002900D01*
X19755978Y77002900D02*
X19755978Y76002900D01*
X19422644Y76717186D01*
X19089311Y76002900D01*
X19089311Y77002900D01*
X26184907Y71891851D02*
X26946812Y71891851D01*
X30200646Y76000360D02*
X29533980Y76000360D01*
X30200646Y77000360D01*
X29533980Y77000360D01*
X29153027Y76619408D02*
X28391122Y76619408D01*
X27438741Y77000360D02*
X27914932Y77000360D01*
X27914932Y76000360D01*
X27105408Y77000360D02*
X27105408Y76000360D01*
X26629218Y77000360D02*
X26629218Y76000360D01*
X26295884Y76714646D01*
X25962551Y76000360D01*
X25962551Y77000360D01*
X34046207Y72003611D02*
X34808112Y72003611D01*
X38160413Y76463210D02*
X38160413Y76939400D01*
X38493746Y75939400D02*
X38160413Y76463210D01*
X37827080Y75939400D01*
X37493746Y76558448D02*
X36731841Y76558448D01*
X35779460Y76939400D02*
X36255651Y76939400D01*
X36255651Y75939400D01*
X35446127Y76939400D02*
X35446127Y75939400D01*
X34969937Y76939400D02*
X34969937Y75939400D01*
X34636603Y76653686D01*
X34303270Y75939400D01*
X34303270Y76939400D01*
X48653747Y72153471D02*
X49415652Y72153471D01*
X4468168Y62296087D02*
X4468168Y63057992D01*
X53106367Y72079811D02*
X53868272Y72079811D01*
X53487320Y71698859D02*
X53487320Y72460763D01*
X53274315Y77124820D02*
X53274315Y76124820D01*
X52893362Y76124820D01*
X52798124Y76172440D01*
X52750505Y76220059D01*
X52702886Y76315297D01*
X52702886Y76458154D01*
X52750505Y76553392D01*
X52798124Y76601011D01*
X52893362Y76648630D01*
X53274315Y76648630D01*
X51702886Y77124820D02*
X52036220Y76648630D01*
X52274315Y77124820D02*
X52274315Y76124820D01*
X51893362Y76124820D01*
X51798124Y76172440D01*
X51750505Y76220059D01*
X51702886Y76315297D01*
X51702886Y76458154D01*
X51750505Y76553392D01*
X51798124Y76601011D01*
X51893362Y76648630D01*
X52274315Y76648630D01*
X51083839Y76124820D02*
X50893362Y76124820D01*
X50798124Y76172440D01*
X50702886Y76267678D01*
X50655267Y76458154D01*
X50655267Y76791487D01*
X50702886Y76981963D01*
X50798124Y77077201D01*
X50893362Y77124820D01*
X51083839Y77124820D01*
X51179077Y77077201D01*
X51274315Y76981963D01*
X51321934Y76791487D01*
X51321934Y76458154D01*
X51274315Y76267678D01*
X51179077Y76172440D01*
X51083839Y76124820D01*
X49893362Y76601011D02*
X49750505Y76648630D01*
X49702886Y76696249D01*
X49655267Y76791487D01*
X49655267Y76934344D01*
X49702886Y77029582D01*
X49750505Y77077201D01*
X49845743Y77124820D01*
X50226696Y77124820D01*
X50226696Y76124820D01*
X49893362Y76124820D01*
X49798124Y76172440D01*
X49750505Y76220059D01*
X49702886Y76315297D01*
X49702886Y76410535D01*
X49750505Y76505773D01*
X49798124Y76553392D01*
X49893362Y76601011D01*
X50226696Y76601011D01*
X49226696Y76601011D02*
X48893362Y76601011D01*
X48750505Y77124820D02*
X49226696Y77124820D01*
X49226696Y76124820D01*
X48750505Y76124820D01*
X4348171Y70624652D02*
X4348171Y69862747D01*
X3967219Y70243700D02*
X4729123Y70243700D01*
X12857271Y72237832D02*
X12857271Y71475927D01*
X12476319Y71856880D02*
X13238223Y71856880D01*
X21783087Y71775011D02*
X22544992Y71775011D01*
X22164040Y71394059D02*
X22164040Y72155963D01*
X29050027Y71846131D02*
X29811932Y71846131D01*
X29430980Y71465179D02*
X29430980Y72227083D01*
X36606527Y71792791D02*
X37368432Y71792791D01*
X36987480Y71411839D02*
X36987480Y72173743D01*
X1284338Y69267341D02*
X1236719Y69124484D01*
X1236719Y68886389D01*
X1284338Y68791151D01*
X1331957Y68743532D01*
X1427195Y68695913D01*
X1522433Y68695913D01*
X1617671Y68743532D01*
X1665290Y68791151D01*
X1712909Y68886389D01*
X1760528Y69076865D01*
X1808147Y69172103D01*
X1855766Y69219722D01*
X1951004Y69267341D01*
X2046242Y69267341D01*
X2141480Y69219722D01*
X2189100Y69172103D01*
X2236719Y69076865D01*
X2236719Y68838770D01*
X2189100Y68695913D01*
X1236719Y68267341D02*
X2236719Y68267341D01*
X2236719Y67886389D01*
X2189100Y67791151D01*
X2141480Y67743532D01*
X2046242Y67695913D01*
X1903385Y67695913D01*
X1808147Y67743532D01*
X1760528Y67791151D01*
X1712909Y67886389D01*
X1712909Y68267341D01*
X1236719Y67267341D02*
X2236719Y67267341D01*
X1236719Y66791151D02*
X2236719Y66791151D01*
X1236719Y66219722D01*
X2236719Y66219722D01*
X1236719Y65743532D02*
X2236719Y65743532D01*
X2236719Y65505437D01*
X2189100Y65362580D01*
X2093861Y65267341D01*
X1998623Y65219722D01*
X1808147Y65172103D01*
X1665290Y65172103D01*
X1474814Y65219722D01*
X1379576Y65267341D01*
X1284338Y65362580D01*
X1236719Y65505437D01*
X1236719Y65743532D01*
X1236719Y64267341D02*
X1236719Y64743532D01*
X2236719Y64743532D01*
X1760528Y63934008D02*
X1760528Y63600675D01*
X1236719Y63457818D02*
X1236719Y63934008D01*
X2236719Y63934008D01*
X2236719Y63457818D01*
D11*
X24288545Y55616582D02*
X24788545Y55616582D01*
X25002831Y54830868D02*
X24288545Y54830868D01*
X24288545Y56330868D01*
X25002831Y56330868D01*
X25574260Y54902297D02*
X25788545Y54830868D01*
X26145688Y54830868D01*
X26288545Y54902297D01*
X26359974Y54973725D01*
X26431402Y55116582D01*
X26431402Y55259440D01*
X26359974Y55402297D01*
X26288545Y55473725D01*
X26145688Y55545154D01*
X25859974Y55616582D01*
X25717117Y55688011D01*
X25645688Y55759440D01*
X25574260Y55902297D01*
X25574260Y56045154D01*
X25645688Y56188011D01*
X25717117Y56259440D01*
X25859974Y56330868D01*
X26217117Y56330868D01*
X26431402Y56259440D01*
X27074260Y54830868D02*
X27074260Y56330868D01*
X27645688Y56330868D01*
X27788545Y56259440D01*
X27859974Y56188011D01*
X27931402Y56045154D01*
X27931402Y55830868D01*
X27859974Y55688011D01*
X27788545Y55616582D01*
X27645688Y55545154D01*
X27074260Y55545154D01*
X28431402Y56330868D02*
X29359974Y56330868D01*
X28859974Y55759440D01*
X29074260Y55759440D01*
X29217117Y55688011D01*
X29288545Y55616582D01*
X29359974Y55473725D01*
X29359974Y55116582D01*
X29288545Y54973725D01*
X29217117Y54902297D01*
X29074260Y54830868D01*
X28645688Y54830868D01*
X28502831Y54902297D01*
X28431402Y54973725D01*
X29931402Y56188011D02*
X30002831Y56259440D01*
X30145688Y56330868D01*
X30502831Y56330868D01*
X30645688Y56259440D01*
X30717117Y56188011D01*
X30788545Y56045154D01*
X30788545Y55902297D01*
X30717117Y55688011D01*
X29859974Y54830868D01*
X30788545Y54830868D01*
X31431402Y55402297D02*
X32574260Y55402297D01*
X33145688Y56330868D02*
X33502831Y54830868D01*
X33788545Y55902297D01*
X34074260Y54830868D01*
X34431402Y56330868D01*
X35859974Y54830868D02*
X35359974Y55545154D01*
X35002831Y54830868D02*
X35002831Y56330868D01*
X35574260Y56330868D01*
X35717117Y56259440D01*
X35788545Y56188011D01*
X35859974Y56045154D01*
X35859974Y55830868D01*
X35788545Y55688011D01*
X35717117Y55616582D01*
X35574260Y55545154D01*
X35002831Y55545154D01*
X36788545Y56330868D02*
X37074260Y56330868D01*
X37217117Y56259440D01*
X37359974Y56116582D01*
X37431402Y55830868D01*
X37431402Y55330868D01*
X37359974Y55045154D01*
X37217117Y54902297D01*
X37074260Y54830868D01*
X36788545Y54830868D01*
X36645688Y54902297D01*
X36502831Y55045154D01*
X36431402Y55330868D01*
X36431402Y55830868D01*
X36502831Y56116582D01*
X36645688Y56259440D01*
X36788545Y56330868D01*
X38359974Y56330868D02*
X38645688Y56330868D01*
X38788545Y56259440D01*
X38931402Y56116582D01*
X39002831Y55830868D01*
X39002831Y55330868D01*
X38931402Y55045154D01*
X38788545Y54902297D01*
X38645688Y54830868D01*
X38359974Y54830868D01*
X38217117Y54902297D01*
X38074260Y55045154D01*
X38002831Y55330868D01*
X38002831Y55830868D01*
X38074260Y56116582D01*
X38217117Y56259440D01*
X38359974Y56330868D01*
X39645688Y54830868D02*
X39645688Y56330868D01*
X40145688Y55259440D01*
X40645688Y56330868D01*
X40645688Y54830868D01*
X41359974Y55402297D02*
X42502831Y55402297D01*
X43217117Y55616582D02*
X43717117Y55616582D01*
X43931402Y54830868D02*
X43217117Y54830868D01*
X43217117Y56330868D01*
X43931402Y56330868D01*
X45002831Y54259440D02*
X44931402Y54330868D01*
X44788545Y54545154D01*
X44717117Y54688011D01*
X44645688Y54902297D01*
X44574260Y55259440D01*
X44574260Y55545154D01*
X44645688Y55902297D01*
X44717117Y56116582D01*
X44788545Y56259440D01*
X44931402Y56473725D01*
X45002831Y56545154D01*
X45574260Y54830868D02*
X45574260Y56330868D01*
X45931402Y56330868D01*
X46145688Y56259440D01*
X46288545Y56116582D01*
X46359974Y55973725D01*
X46431402Y55688011D01*
X46431402Y55473725D01*
X46359974Y55188011D01*
X46288545Y55045154D01*
X46145688Y54902297D01*
X45931402Y54830868D01*
X45574260Y54830868D01*
X46931402Y54259440D02*
X47002831Y54330868D01*
X47145688Y54545154D01*
X47217117Y54688011D01*
X47288545Y54902297D01*
X47359974Y55259440D01*
X47359974Y55545154D01*
X47288545Y55902297D01*
X47217117Y56116582D01*
X47145688Y56259440D01*
X47002831Y56473725D01*
X46931402Y56545154D01*
D10*
X12833271Y77135260D02*
X12833271Y76135260D01*
X12499938Y76849546D01*
X12166604Y76135260D01*
X12166604Y77135260D01*
X11690414Y77135260D02*
X11690414Y76135260D01*
X11261842Y77087641D02*
X11118985Y77135260D01*
X10880890Y77135260D01*
X10785652Y77087641D01*
X10738033Y77040022D01*
X10690414Y76944784D01*
X10690414Y76849546D01*
X10738033Y76754308D01*
X10785652Y76706689D01*
X10880890Y76659070D01*
X11071366Y76611451D01*
X11166604Y76563832D01*
X11214223Y76516213D01*
X11261842Y76420975D01*
X11261842Y76325737D01*
X11214223Y76230499D01*
X11166604Y76182880D01*
X11071366Y76135260D01*
X10833271Y76135260D01*
X10690414Y76182880D01*
X10404700Y76135260D02*
X9833271Y76135260D01*
X10118985Y77135260D02*
X10118985Y76135260D01*
D11*
X11550000Y348571D02*
X10550000Y348571D01*
X11550000Y1848571D01*
X10550000Y1848571D01*
X53910000Y1035714D02*
X53910000Y321428D01*
X53410000Y1821428D02*
X53910000Y1035714D01*
X54410000Y1821428D01*
X33910000Y588571D02*
X32910000Y2088571D01*
X32910000Y588571D02*
X33910000Y2088571D01*
X15508260Y40432225D02*
X15436831Y40360797D01*
X15222545Y40289368D01*
X15079688Y40289368D01*
X14865402Y40360797D01*
X14722545Y40503654D01*
X14651117Y40646511D01*
X14579688Y40932225D01*
X14579688Y41146511D01*
X14651117Y41432225D01*
X14722545Y41575082D01*
X14865402Y41717940D01*
X15079688Y41789368D01*
X15222545Y41789368D01*
X15436831Y41717940D01*
X15508260Y41646511D01*
X16079688Y40360797D02*
X16293974Y40289368D01*
X16651117Y40289368D01*
X16793974Y40360797D01*
X16865402Y40432225D01*
X16936831Y40575082D01*
X16936831Y40717940D01*
X16865402Y40860797D01*
X16793974Y40932225D01*
X16651117Y41003654D01*
X16365402Y41075082D01*
X16222545Y41146511D01*
X16151117Y41217940D01*
X16079688Y41360797D01*
X16079688Y41503654D01*
X16151117Y41646511D01*
X16222545Y41717940D01*
X16365402Y41789368D01*
X16722545Y41789368D01*
X16936831Y41717940D01*
X14671117Y42829368D02*
X14671117Y44329368D01*
X15171117Y43257940D01*
X15671117Y44329368D01*
X15671117Y42829368D01*
X16671117Y44329368D02*
X16956831Y44329368D01*
X17099688Y44257940D01*
X17242545Y44115082D01*
X17313974Y43829368D01*
X17313974Y43329368D01*
X17242545Y43043654D01*
X17099688Y42900797D01*
X16956831Y42829368D01*
X16671117Y42829368D01*
X16528260Y42900797D01*
X16385402Y43043654D01*
X16313974Y43329368D01*
X16313974Y43829368D01*
X16385402Y44115082D01*
X16528260Y44257940D01*
X16671117Y44329368D01*
X17885402Y42900797D02*
X18099688Y42829368D01*
X18456831Y42829368D01*
X18599688Y42900797D01*
X18671117Y42972225D01*
X18742545Y43115082D01*
X18742545Y43257940D01*
X18671117Y43400797D01*
X18599688Y43472225D01*
X18456831Y43543654D01*
X18171117Y43615082D01*
X18028260Y43686511D01*
X17956831Y43757940D01*
X17885402Y43900797D01*
X17885402Y44043654D01*
X17956831Y44186511D01*
X18028260Y44257940D01*
X18171117Y44329368D01*
X18528260Y44329368D01*
X18742545Y44257940D01*
X19385402Y42829368D02*
X19385402Y44329368D01*
X15171117Y46869368D02*
X16099688Y46869368D01*
X15599688Y46297940D01*
X15813974Y46297940D01*
X15956831Y46226511D01*
X16028260Y46155082D01*
X16099688Y46012225D01*
X16099688Y45655082D01*
X16028260Y45512225D01*
X15956831Y45440797D01*
X15813974Y45369368D01*
X15385402Y45369368D01*
X15242545Y45440797D01*
X15171117Y45512225D01*
X16528260Y46869368D02*
X17028260Y45369368D01*
X17528260Y46869368D01*
X17885402Y46869368D02*
X18813974Y46869368D01*
X18313974Y46297940D01*
X18528260Y46297940D01*
X18671117Y46226511D01*
X18742545Y46155082D01*
X18813974Y46012225D01*
X18813974Y45655082D01*
X18742545Y45512225D01*
X18671117Y45440797D01*
X18528260Y45369368D01*
X18099688Y45369368D01*
X17956831Y45440797D01*
X17885402Y45512225D01*
X15099688Y47980797D02*
X15313974Y47909368D01*
X15671117Y47909368D01*
X15813974Y47980797D01*
X15885402Y48052225D01*
X15956831Y48195082D01*
X15956831Y48337940D01*
X15885402Y48480797D01*
X15813974Y48552225D01*
X15671117Y48623654D01*
X15385402Y48695082D01*
X15242545Y48766511D01*
X15171117Y48837940D01*
X15099688Y48980797D01*
X15099688Y49123654D01*
X15171117Y49266511D01*
X15242545Y49337940D01*
X15385402Y49409368D01*
X15742545Y49409368D01*
X15956831Y49337940D01*
X17456831Y48052225D02*
X17385402Y47980797D01*
X17171117Y47909368D01*
X17028260Y47909368D01*
X16813974Y47980797D01*
X16671117Y48123654D01*
X16599688Y48266511D01*
X16528260Y48552225D01*
X16528260Y48766511D01*
X16599688Y49052225D01*
X16671117Y49195082D01*
X16813974Y49337940D01*
X17028260Y49409368D01*
X17171117Y49409368D01*
X17385402Y49337940D01*
X17456831Y49266511D01*
X18099688Y47909368D02*
X18099688Y49409368D01*
X18956831Y47909368D02*
X18313974Y48766511D01*
X18956831Y49409368D02*
X18099688Y48552225D01*
X15885402Y51877940D02*
X15742545Y51949368D01*
X15528260Y51949368D01*
X15313974Y51877940D01*
X15171117Y51735082D01*
X15099688Y51592225D01*
X15028260Y51306511D01*
X15028260Y51092225D01*
X15099688Y50806511D01*
X15171117Y50663654D01*
X15313974Y50520797D01*
X15528260Y50449368D01*
X15671117Y50449368D01*
X15885402Y50520797D01*
X15956831Y50592225D01*
X15956831Y51092225D01*
X15671117Y51092225D01*
X16599688Y50449368D02*
X16599688Y51949368D01*
X17456831Y50449368D01*
X17456831Y51949368D01*
X18171117Y50449368D02*
X18171117Y51949368D01*
X18528260Y51949368D01*
X18742545Y51877940D01*
X18885402Y51735082D01*
X18956831Y51592225D01*
X19028260Y51306511D01*
X19028260Y51092225D01*
X18956831Y50806511D01*
X18885402Y50663654D01*
X18742545Y50520797D01*
X18528260Y50449368D01*
X18171117Y50449368D01*
X14671117Y52989368D02*
X14671117Y54489368D01*
X15171117Y53417940D01*
X15671117Y54489368D01*
X15671117Y52989368D01*
X16385402Y52989368D02*
X16385402Y54489368D01*
X17028260Y53060797D02*
X17242545Y52989368D01*
X17599688Y52989368D01*
X17742545Y53060797D01*
X17813974Y53132225D01*
X17885402Y53275082D01*
X17885402Y53417940D01*
X17813974Y53560797D01*
X17742545Y53632225D01*
X17599688Y53703654D01*
X17313974Y53775082D01*
X17171117Y53846511D01*
X17099688Y53917940D01*
X17028260Y54060797D01*
X17028260Y54203654D01*
X17099688Y54346511D01*
X17171117Y54417940D01*
X17313974Y54489368D01*
X17671117Y54489368D01*
X17885402Y54417940D01*
X18813974Y54489368D02*
X19099688Y54489368D01*
X19242545Y54417940D01*
X19385402Y54275082D01*
X19456831Y53989368D01*
X19456831Y53489368D01*
X19385402Y53203654D01*
X19242545Y53060797D01*
X19099688Y52989368D01*
X18813974Y52989368D01*
X18671117Y53060797D01*
X18528260Y53203654D01*
X18456831Y53489368D01*
X18456831Y53989368D01*
X18528260Y54275082D01*
X18671117Y54417940D01*
X18813974Y54489368D01*
X22715402Y43945082D02*
X22786831Y44159368D01*
X22786831Y44516511D01*
X22715402Y44659368D01*
X22643974Y44730797D01*
X22501117Y44802225D01*
X22358260Y44802225D01*
X22215402Y44730797D01*
X22143974Y44659368D01*
X22072545Y44516511D01*
X22001117Y44230797D01*
X21929688Y44087940D01*
X21858260Y44016511D01*
X21715402Y43945082D01*
X21572545Y43945082D01*
X21429688Y44016511D01*
X21358260Y44087940D01*
X21286831Y44230797D01*
X21286831Y44587940D01*
X21358260Y44802225D01*
X22786831Y45445082D02*
X21286831Y45445082D01*
X21286831Y45802225D01*
X21358260Y46016511D01*
X21501117Y46159368D01*
X21643974Y46230797D01*
X21929688Y46302225D01*
X22143974Y46302225D01*
X22429688Y46230797D01*
X22572545Y46159368D01*
X22715402Y46016511D01*
X22786831Y45802225D01*
X22786831Y45445082D01*
X22643974Y48945082D02*
X22715402Y48873654D01*
X22786831Y48659368D01*
X22786831Y48516511D01*
X22715402Y48302225D01*
X22572545Y48159368D01*
X22429688Y48087940D01*
X22143974Y48016511D01*
X21929688Y48016511D01*
X21643974Y48087940D01*
X21501117Y48159368D01*
X21358260Y48302225D01*
X21286831Y48516511D01*
X21286831Y48659368D01*
X21358260Y48873654D01*
X21429688Y48945082D01*
X22358260Y49516511D02*
X22358260Y50230797D01*
X22786831Y49373654D02*
X21286831Y49873654D01*
X22786831Y50373654D01*
X22786831Y51730797D02*
X22072545Y51230797D01*
X22786831Y50873654D02*
X21286831Y50873654D01*
X21286831Y51445082D01*
X21358260Y51587940D01*
X21429688Y51659368D01*
X21572545Y51730797D01*
X21786831Y51730797D01*
X21929688Y51659368D01*
X22001117Y51587940D01*
X22072545Y51445082D01*
X22072545Y50873654D01*
X22786831Y52373654D02*
X21286831Y52373654D01*
X21286831Y52730797D01*
X21358260Y52945082D01*
X21501117Y53087940D01*
X21643974Y53159368D01*
X21929688Y53230797D01*
X22143974Y53230797D01*
X22429688Y53159368D01*
X22572545Y53087940D01*
X22715402Y52945082D01*
X22786831Y52730797D01*
X22786831Y52373654D01*
D12*
G36*
X30871521Y45513129D02*
G01*
X30970984Y45548227D01*
X31052872Y45575468D01*
X31105136Y45590922D01*
X31116327Y45593000D01*
X31128530Y45569822D01*
X31137192Y45509131D01*
X31140400Y45426188D01*
X31139133Y45337237D01*
X31133154Y45288971D01*
X31119197Y45271297D01*
X31093994Y45274121D01*
X31091435Y45274917D01*
X31045156Y45290701D01*
X30966361Y45318616D01*
X30870218Y45353274D01*
X30846629Y45361858D01*
X30650787Y45433258D01*
X30871521Y45513129D01*
G37*
X30871521Y45513129D02*
X30970984Y45548227D01*
X31052872Y45575468D01*
X31105136Y45590922D01*
X31116327Y45593000D01*
X31128530Y45569822D01*
X31137192Y45509131D01*
X31140400Y45426188D01*
X31139133Y45337237D01*
X31133154Y45288971D01*
X31119197Y45271297D01*
X31093994Y45274121D01*
X31091435Y45274917D01*
X31045156Y45290701D01*
X30966361Y45318616D01*
X30870218Y45353274D01*
X30846629Y45361858D01*
X30650787Y45433258D01*
X30871521Y45513129D01*
G36*
X32321739Y53492400D02*
G01*
X33578887Y50977490D01*
X35561619Y50983995D01*
X37544352Y50990500D01*
X37950844Y51790600D01*
X38058312Y52002174D01*
X38169765Y52221670D01*
X38280255Y52439342D01*
X38384839Y52645446D01*
X38478570Y52830235D01*
X38556503Y52983966D01*
X38585675Y53041550D01*
X38814015Y53492400D01*
X42062400Y53492400D01*
X42062400Y40487600D01*
X40436800Y40487600D01*
X40154590Y40487793D01*
X39887919Y40488351D01*
X39641039Y40489241D01*
X39418200Y40490429D01*
X39223653Y40491882D01*
X39061648Y40493566D01*
X38936436Y40495449D01*
X38852268Y40497497D01*
X38813394Y40499676D01*
X38811200Y40500339D01*
X38822354Y40524145D01*
X38854966Y40590814D01*
X38907757Y40697781D01*
X38979450Y40842481D01*
X39068768Y41022348D01*
X39174432Y41234817D01*
X39295165Y41477324D01*
X39429690Y41747302D01*
X39576728Y42042186D01*
X39735003Y42359411D01*
X39903235Y42696411D01*
X40080149Y43050622D01*
X40264466Y43419478D01*
X40424100Y43738799D01*
X40613648Y44117976D01*
X40796867Y44484663D01*
X40972479Y44836294D01*
X41139205Y45170305D01*
X41295769Y45484130D01*
X41440892Y45775204D01*
X41573298Y46040962D01*
X41691707Y46278838D01*
X41794844Y46486267D01*
X41881429Y46660683D01*
X41950186Y46799522D01*
X41999836Y46900218D01*
X42029103Y46960206D01*
X42037000Y46977260D01*
X42012411Y46979772D01*
X41941894Y46982095D01*
X41830317Y46984182D01*
X41682552Y46985984D01*
X41503468Y46987453D01*
X41297937Y46988543D01*
X41070828Y46989205D01*
X40827011Y46989392D01*
X40798750Y46989381D01*
X39560500Y46988763D01*
X39557154Y46982117D01*
X39557154Y47015400D01*
X40798891Y47015400D01*
X41082755Y47015512D01*
X41319787Y47015937D01*
X41513957Y47016806D01*
X41669232Y47018252D01*
X41789581Y47020405D01*
X41878972Y47023398D01*
X41941373Y47027363D01*
X41980754Y47032431D01*
X42001081Y47038735D01*
X42006325Y47046405D01*
X42000714Y47055314D01*
X41967102Y47100136D01*
X41957792Y47125164D01*
X41957163Y47168763D01*
X41957792Y47174150D01*
X41942146Y47192935D01*
X41938481Y47193200D01*
X41915897Y47214147D01*
X41887798Y47263602D01*
X41863492Y47321478D01*
X41852282Y47367693D01*
X41853160Y47377350D01*
X41840920Y47396068D01*
X41836881Y47396400D01*
X41814297Y47417347D01*
X41786198Y47466802D01*
X41761892Y47524678D01*
X41750682Y47570893D01*
X41751560Y47580550D01*
X41739036Y47599120D01*
X41733911Y47599600D01*
X41709948Y47620581D01*
X41686957Y47667589D01*
X41675254Y47716715D01*
X41676367Y47732950D01*
X41663000Y47751691D01*
X41659081Y47752000D01*
X41636497Y47772947D01*
X41608398Y47822402D01*
X41584092Y47880278D01*
X41572882Y47926493D01*
X41573760Y47936150D01*
X41561520Y47954868D01*
X41557481Y47955200D01*
X41534897Y47976147D01*
X41506798Y48025602D01*
X41482492Y48083478D01*
X41471282Y48129693D01*
X41472160Y48139350D01*
X41459920Y48158068D01*
X41455881Y48158400D01*
X41433297Y48179347D01*
X41405198Y48228802D01*
X41380892Y48286678D01*
X41369682Y48332893D01*
X41370560Y48342550D01*
X41358320Y48361268D01*
X41354281Y48361600D01*
X41331697Y48382547D01*
X41303598Y48432002D01*
X41279292Y48489878D01*
X41268082Y48536093D01*
X41268960Y48545750D01*
X41256436Y48564320D01*
X41251311Y48564800D01*
X41227348Y48585781D01*
X41204357Y48632789D01*
X41192654Y48681915D01*
X41193767Y48698150D01*
X41179559Y48716360D01*
X41171900Y48717200D01*
X41156731Y48732760D01*
X41160700Y48742600D01*
X41159660Y48766048D01*
X41151210Y48768000D01*
X41126241Y48789006D01*
X41102635Y48836132D01*
X41090949Y48885534D01*
X41092167Y48901350D01*
X41078800Y48920091D01*
X41074881Y48920400D01*
X41052297Y48941347D01*
X41024198Y48990802D01*
X40999892Y49048678D01*
X40988682Y49094893D01*
X40989560Y49104550D01*
X40977320Y49123268D01*
X40973281Y49123600D01*
X40950697Y49144547D01*
X40922598Y49194002D01*
X40898292Y49251878D01*
X40887082Y49298093D01*
X40887960Y49307750D01*
X40875436Y49326320D01*
X40870311Y49326800D01*
X40846348Y49347781D01*
X40823357Y49394789D01*
X40811654Y49443915D01*
X40812767Y49460150D01*
X40798559Y49478360D01*
X40790900Y49479200D01*
X40775731Y49494760D01*
X40779700Y49504600D01*
X40778660Y49528048D01*
X40770210Y49530000D01*
X40745241Y49551006D01*
X40721635Y49598132D01*
X40709949Y49647534D01*
X40711167Y49663350D01*
X40697800Y49682091D01*
X40693881Y49682400D01*
X40671297Y49703347D01*
X40643198Y49752802D01*
X40618892Y49810678D01*
X40607682Y49856893D01*
X40608560Y49866550D01*
X40596320Y49885268D01*
X40592281Y49885600D01*
X40569697Y49906547D01*
X40541598Y49956002D01*
X40517292Y50013878D01*
X40506082Y50060093D01*
X40506960Y50069750D01*
X40494720Y50088468D01*
X40490681Y50088800D01*
X40468097Y50109747D01*
X40439998Y50159202D01*
X40415692Y50217078D01*
X40404482Y50263293D01*
X40405360Y50272950D01*
X40392836Y50291520D01*
X40387711Y50292000D01*
X40363748Y50312981D01*
X40340757Y50359989D01*
X40329054Y50409115D01*
X40330167Y50425350D01*
X40316800Y50444091D01*
X40312881Y50444400D01*
X40290936Y50464514D01*
X40263999Y50510866D01*
X40242090Y50562470D01*
X40235232Y50598338D01*
X40237319Y50602656D01*
X40228226Y50624379D01*
X40194071Y50666686D01*
X40189150Y50672035D01*
X40136532Y50751048D01*
X40128972Y50831623D01*
X40128992Y50831750D01*
X40113346Y50850535D01*
X40109681Y50850800D01*
X40087097Y50871747D01*
X40058998Y50921202D01*
X40034692Y50979078D01*
X40023482Y51025293D01*
X40024360Y51034950D01*
X40011836Y51053520D01*
X40006711Y51054000D01*
X39982748Y51074981D01*
X39959757Y51121989D01*
X39948054Y51171115D01*
X39949167Y51187350D01*
X39935800Y51206091D01*
X39931881Y51206400D01*
X39909297Y51227347D01*
X39881198Y51276802D01*
X39856892Y51334678D01*
X39845682Y51380893D01*
X39846560Y51390550D01*
X39834320Y51409268D01*
X39830281Y51409600D01*
X39807925Y51430296D01*
X39780250Y51478397D01*
X39757406Y51532918D01*
X39749538Y51572875D01*
X39750038Y51575534D01*
X39736918Y51602649D01*
X39708218Y51633773D01*
X39655580Y51708535D01*
X39641935Y51784250D01*
X39628603Y51813826D01*
X39621478Y51816000D01*
X39600317Y51836918D01*
X39579084Y51883618D01*
X39567407Y51932016D01*
X39568167Y51949350D01*
X39554800Y51968091D01*
X39550881Y51968400D01*
X39528297Y51989347D01*
X39500198Y52038802D01*
X39475892Y52096678D01*
X39464682Y52142893D01*
X39465560Y52152550D01*
X39453320Y52171268D01*
X39449281Y52171600D01*
X39426697Y52192547D01*
X39398598Y52242002D01*
X39374292Y52299878D01*
X39363082Y52346093D01*
X39363960Y52355750D01*
X39351720Y52374468D01*
X39347681Y52374800D01*
X39325097Y52395747D01*
X39296998Y52445202D01*
X39272692Y52503078D01*
X39261482Y52549293D01*
X39262360Y52558950D01*
X39249836Y52577520D01*
X39244711Y52578000D01*
X39220748Y52598981D01*
X39197757Y52645989D01*
X39186054Y52695115D01*
X39187167Y52711350D01*
X39173800Y52730091D01*
X39169881Y52730400D01*
X39147297Y52751347D01*
X39119198Y52800802D01*
X39094892Y52858678D01*
X39083682Y52904893D01*
X39084560Y52914550D01*
X39072320Y52933268D01*
X39068281Y52933600D01*
X39045697Y52954547D01*
X39017598Y53004002D01*
X38993292Y53061878D01*
X38982082Y53108093D01*
X38982960Y53117750D01*
X38970720Y53136468D01*
X38966681Y53136800D01*
X38945384Y53157383D01*
X38916918Y53205796D01*
X38891215Y53262033D01*
X38878209Y53306088D01*
X38878409Y53314600D01*
X38865219Y53340284D01*
X38839998Y53369284D01*
X38829667Y53375925D01*
X38817014Y53373745D01*
X38800143Y53359347D01*
X38777154Y53329336D01*
X38746150Y53280313D01*
X38705233Y53208882D01*
X38652505Y53111646D01*
X38586068Y52985207D01*
X38504023Y52826170D01*
X38404474Y52631136D01*
X38285521Y52396708D01*
X38179210Y52186622D01*
X37559921Y50961976D01*
X37680881Y50729141D01*
X37732829Y50634131D01*
X37778052Y50560543D01*
X37810810Y50517200D01*
X37823630Y50509772D01*
X37835529Y50503727D01*
X37831487Y50486935D01*
X37833395Y50446621D01*
X37854549Y50393194D01*
X37885441Y50342829D01*
X37916562Y50311703D01*
X37934830Y50311141D01*
X37944285Y50312288D01*
X37938649Y50300253D01*
X37934671Y50259917D01*
X37949976Y50209624D01*
X37975594Y50168441D01*
X38002553Y50155437D01*
X38006038Y50157020D01*
X38019374Y50156197D01*
X38013699Y50143805D01*
X38011085Y50105423D01*
X38027730Y50050313D01*
X38055281Y49995589D01*
X38085383Y49958364D01*
X38106712Y49953248D01*
X38121200Y49953232D01*
X38116203Y49942068D01*
X38114279Y49904664D01*
X38131324Y49849882D01*
X38158936Y49794898D01*
X38188714Y49756889D01*
X38209710Y49750912D01*
X38222753Y49749731D01*
X38217691Y49738687D01*
X38218927Y49704219D01*
X38239014Y49643220D01*
X38271383Y49568915D01*
X38309465Y49494530D01*
X38346690Y49433290D01*
X38376490Y49398421D01*
X38388069Y49395657D01*
X38400482Y49394020D01*
X38395199Y49382615D01*
X38402230Y49354581D01*
X38429744Y49287439D01*
X38475017Y49186632D01*
X38535323Y49057600D01*
X38607939Y48905786D01*
X38690137Y48736631D01*
X38779194Y48555576D01*
X38872383Y48368063D01*
X38966980Y48179534D01*
X39060260Y47995430D01*
X39149497Y47821192D01*
X39231966Y47662263D01*
X39304942Y47524084D01*
X39365700Y47412097D01*
X39411515Y47331742D01*
X39439661Y47288462D01*
X39446929Y47282550D01*
X39460423Y47277484D01*
X39456334Y47259174D01*
X39459185Y47215392D01*
X39483439Y47149281D01*
X39499402Y47118154D01*
X39557154Y47015400D01*
X39557154Y46982117D01*
X38557200Y44995666D01*
X37553900Y43002570D01*
X35568490Y43002385D01*
X33583081Y43002199D01*
X32949317Y41751249D01*
X32315554Y40500300D01*
X30909241Y40494657D01*
X30909241Y41138223D01*
X31050698Y41138395D01*
X31185028Y41152235D01*
X31293556Y41179712D01*
X31294200Y41179960D01*
X31434568Y41260249D01*
X31552995Y41379865D01*
X31644218Y41530151D01*
X31702975Y41702450D01*
X31723997Y41886886D01*
X31717338Y41998385D01*
X31699299Y42129889D01*
X31673785Y42252958D01*
X31673741Y42253128D01*
X31648940Y42346760D01*
X31628094Y42419392D01*
X31614818Y42458612D01*
X31612943Y42461923D01*
X31585343Y42464307D01*
X31516581Y42463933D01*
X31416208Y42461014D01*
X31293776Y42455765D01*
X31257402Y42453936D01*
X30928469Y42436876D01*
X30928469Y43366070D01*
X31130702Y43370512D01*
X31308547Y43416767D01*
X31458964Y43500552D01*
X31578913Y43617584D01*
X31665355Y43763580D01*
X31715251Y43934258D01*
X31725563Y44125334D01*
X31693250Y44332525D01*
X31676262Y44390696D01*
X31676262Y44708233D01*
X31687226Y44727278D01*
X31695337Y44785368D01*
X31699099Y44870765D01*
X31699200Y44888361D01*
X31699200Y45076956D01*
X31545983Y45123347D01*
X31392767Y45169737D01*
X31399933Y45435462D01*
X31407100Y45701187D01*
X31546800Y45743169D01*
X31686500Y45785150D01*
X31693915Y45981031D01*
X31701331Y46176912D01*
X31528815Y46113068D01*
X31452919Y46084978D01*
X31339356Y46042944D01*
X31198103Y45990658D01*
X31039133Y45931813D01*
X30872422Y45870100D01*
X30822900Y45851768D01*
X30289500Y45654311D01*
X30282410Y45439505D01*
X30276800Y45269516D01*
X30276800Y46380400D01*
X31699200Y46380400D01*
X31699200Y46710600D01*
X31229300Y46710600D01*
X31081223Y46711575D01*
X30952440Y46714289D01*
X30850828Y46718420D01*
X30784265Y46723649D01*
X30760628Y46729650D01*
X30781680Y46747954D01*
X30839895Y46788478D01*
X30928989Y46847116D01*
X31042680Y46919760D01*
X31174684Y47002305D01*
X31230528Y47036759D01*
X31699200Y47324818D01*
X31699200Y47675800D01*
X30926516Y47675800D01*
X30926516Y48621271D01*
X31124786Y48624146D01*
X31291741Y48662689D01*
X31434381Y48739217D01*
X31526612Y48819812D01*
X31621049Y48935086D01*
X31681091Y49055994D01*
X31711010Y49195541D01*
X31715078Y49366733D01*
X31714017Y49390300D01*
X31702861Y49506724D01*
X31699200Y49528128D01*
X31699200Y50114200D01*
X31699200Y50443303D01*
X31212167Y50450201D01*
X30725134Y50457100D01*
X31699200Y51058654D01*
X31699200Y51409600D01*
X30911322Y51409600D01*
X30911322Y51701079D01*
X31080663Y51701496D01*
X31245559Y51731825D01*
X31397127Y51791905D01*
X31526486Y51881575D01*
X31624753Y52000674D01*
X31638193Y52024724D01*
X31688717Y52165380D01*
X31713098Y52333464D01*
X31710937Y52512610D01*
X31681839Y52686455D01*
X31656238Y52768500D01*
X31608897Y52895500D01*
X31260847Y52910670D01*
X31316603Y52826885D01*
X31390844Y52700238D01*
X31430814Y52589025D01*
X31441668Y52476645D01*
X31439353Y52431646D01*
X31407959Y52290952D01*
X31339788Y52184969D01*
X31234515Y52113438D01*
X31091817Y52076099D01*
X30988000Y52070000D01*
X30822749Y52086872D01*
X30695156Y52137711D01*
X30604806Y52222849D01*
X30551286Y52342618D01*
X30536563Y52432638D01*
X30535002Y52530607D01*
X30553371Y52613843D01*
X30591053Y52698594D01*
X30631334Y52772316D01*
X30666204Y52826250D01*
X30682717Y52844401D01*
X30709876Y52872920D01*
X30688691Y52893602D01*
X30621140Y52905536D01*
X30544152Y52908200D01*
X30454181Y52906607D01*
X30400626Y52898406D01*
X30369124Y52878462D01*
X30345310Y52841640D01*
X30342404Y52836069D01*
X30288438Y52684859D01*
X30264394Y52509409D01*
X30269785Y52326169D01*
X30304122Y52151592D01*
X30366919Y52002128D01*
X30367148Y52001737D01*
X30465448Y51880902D01*
X30594832Y51790621D01*
X30746418Y51730734D01*
X30911322Y51701079D01*
X30911322Y51409600D01*
X30276800Y51409600D01*
X30276800Y51080658D01*
X31088728Y51066700D01*
X30289500Y50556710D01*
X30274822Y50114200D01*
X31699200Y50114200D01*
X31699200Y49528128D01*
X31683281Y49621199D01*
X31659385Y49710031D01*
X31657857Y49714150D01*
X31612042Y49834800D01*
X31439721Y49834800D01*
X31337642Y49831237D01*
X31282568Y49819337D01*
X31271124Y49797279D01*
X31299937Y49763243D01*
X31302716Y49760910D01*
X31332084Y49722081D01*
X31369755Y49653673D01*
X31394542Y49600238D01*
X31434132Y49457774D01*
X31433990Y49316932D01*
X31394843Y49191235D01*
X31370417Y49150991D01*
X31287177Y49074676D01*
X31171702Y49023404D01*
X31037066Y48999239D01*
X30896344Y49004251D01*
X30762607Y49040504D01*
X30738926Y49051163D01*
X30633553Y49127546D01*
X30565937Y49231858D01*
X30537362Y49356669D01*
X30549110Y49494549D01*
X30602465Y49638070D01*
X30629429Y49685417D01*
X30671744Y49755204D01*
X30700471Y49805865D01*
X30708600Y49823787D01*
X30685429Y49829406D01*
X30624827Y49833374D01*
X30544152Y49834800D01*
X30454181Y49833207D01*
X30400626Y49825006D01*
X30369124Y49805062D01*
X30345310Y49768240D01*
X30342404Y49762669D01*
X30308176Y49669743D01*
X30280757Y49545942D01*
X30263055Y49411038D01*
X30257979Y49284807D01*
X30262478Y49219348D01*
X30309501Y49033593D01*
X30395620Y48879218D01*
X30518271Y48758532D01*
X30674889Y48673845D01*
X30862911Y48627466D01*
X30926516Y48621271D01*
X30926516Y47675800D01*
X30276800Y47675800D01*
X30276800Y47345600D01*
X30671999Y47345600D01*
X30805987Y47344372D01*
X30918902Y47340983D01*
X31002485Y47335872D01*
X31048479Y47329480D01*
X31054600Y47325216D01*
X31029942Y47305718D01*
X30969280Y47264175D01*
X30879783Y47205313D01*
X30768623Y47133856D01*
X30659469Y47064866D01*
X30276935Y46824900D01*
X30276867Y46602650D01*
X30276800Y46380400D01*
X30276800Y45269516D01*
X30275321Y45224700D01*
X30964323Y44970700D01*
X31141404Y44905418D01*
X31303213Y44845767D01*
X31443548Y44794031D01*
X31556210Y44752496D01*
X31634998Y44723448D01*
X31673713Y44709173D01*
X31676262Y44708233D01*
X31676262Y44390696D01*
X31670226Y44411366D01*
X31615852Y44577000D01*
X31441626Y44577000D01*
X31354969Y44575531D01*
X31292582Y44571672D01*
X31267447Y44566244D01*
X31267400Y44565987D01*
X31279740Y44540250D01*
X31311731Y44484792D01*
X31346570Y44427617D01*
X31416304Y44278123D01*
X31439862Y44135646D01*
X31420373Y44006198D01*
X31360966Y43895791D01*
X31264771Y43810436D01*
X31134916Y43756144D01*
X30988000Y43738800D01*
X30843790Y43757245D01*
X30714519Y43808431D01*
X30614440Y43886135D01*
X30594445Y43910619D01*
X30561332Y43975933D01*
X30545936Y44064321D01*
X30543645Y44134742D01*
X30548605Y44236098D01*
X30568950Y44315410D01*
X30612531Y44400066D01*
X30626050Y44422180D01*
X30669364Y44493507D01*
X30699256Y44545883D01*
X30708600Y44565987D01*
X30685348Y44571425D01*
X30624178Y44575360D01*
X30537967Y44576992D01*
X30531509Y44577000D01*
X30354419Y44577000D01*
X30310470Y44430950D01*
X30282360Y44298572D01*
X30269001Y44148787D01*
X30270360Y43998739D01*
X30286406Y43865577D01*
X30311658Y43778267D01*
X30403290Y43619639D01*
X30526490Y43499698D01*
X30682720Y43417468D01*
X30873446Y43371970D01*
X30928469Y43366070D01*
X30928469Y42436876D01*
X30911800Y42436011D01*
X30911800Y41808400D01*
X31191200Y41808400D01*
X31191200Y42087800D01*
X31476517Y42087800D01*
X31466022Y41922973D01*
X31446807Y41790101D01*
X31403180Y41689110D01*
X31326699Y41603657D01*
X31283017Y41568669D01*
X31237214Y41541464D01*
X31180594Y41525407D01*
X31099149Y41517900D01*
X31000700Y41516300D01*
X30887383Y41518611D01*
X30810720Y41527278D01*
X30756703Y41544899D01*
X30718382Y41568669D01*
X30627139Y41650382D01*
X30571289Y41739561D01*
X30542641Y41852391D01*
X30535540Y41929861D01*
X30532773Y42022912D01*
X30540162Y42093456D01*
X30562622Y42162020D01*
X30605068Y42249133D01*
X30617733Y42273120D01*
X30709454Y42445740D01*
X30368864Y42430700D01*
X30319259Y42291000D01*
X30283316Y42146142D01*
X30266505Y41979850D01*
X30268676Y41809638D01*
X30289680Y41653020D01*
X30325699Y41535562D01*
X30408404Y41399533D01*
X30523609Y41279108D01*
X30655320Y41190400D01*
X30679655Y41178997D01*
X30779335Y41151747D01*
X30909241Y41138223D01*
X30909241Y40494657D01*
X30686577Y40493763D01*
X29057600Y40487227D01*
X29057600Y53492400D01*
X32321739Y53492400D01*
G37*
X32321739Y53492400D02*
X33578887Y50977490D01*
X35561619Y50983995D01*
X37544352Y50990500D01*
X37950844Y51790600D01*
X38058312Y52002174D01*
X38169765Y52221670D01*
X38280255Y52439342D01*
X38384839Y52645446D01*
X38478570Y52830235D01*
X38556503Y52983966D01*
X38585675Y53041550D01*
X38814015Y53492400D01*
X42062400Y53492400D01*
X42062400Y40487600D01*
X40436800Y40487600D01*
X40154590Y40487793D01*
X39887919Y40488351D01*
X39641039Y40489241D01*
X39418200Y40490429D01*
X39223653Y40491882D01*
X39061648Y40493566D01*
X38936436Y40495449D01*
X38852268Y40497497D01*
X38813394Y40499676D01*
X38811200Y40500339D01*
X38822354Y40524145D01*
X38854966Y40590814D01*
X38907757Y40697781D01*
X38979450Y40842481D01*
X39068768Y41022348D01*
X39174432Y41234817D01*
X39295165Y41477324D01*
X39429690Y41747302D01*
X39576728Y42042186D01*
X39735003Y42359411D01*
X39903235Y42696411D01*
X40080149Y43050622D01*
X40264466Y43419478D01*
X40424100Y43738799D01*
X40613648Y44117976D01*
X40796867Y44484663D01*
X40972479Y44836294D01*
X41139205Y45170305D01*
X41295769Y45484130D01*
X41440892Y45775204D01*
X41573298Y46040962D01*
X41691707Y46278838D01*
X41794844Y46486267D01*
X41881429Y46660683D01*
X41950186Y46799522D01*
X41999836Y46900218D01*
X42029103Y46960206D01*
X42037000Y46977260D01*
X42012411Y46979772D01*
X41941894Y46982095D01*
X41830317Y46984182D01*
X41682552Y46985984D01*
X41503468Y46987453D01*
X41297937Y46988543D01*
X41070828Y46989205D01*
X40827011Y46989392D01*
X40798750Y46989381D01*
X39560500Y46988763D01*
X39557154Y46982117D01*
X39557154Y47015400D01*
X40798891Y47015400D01*
X41082755Y47015512D01*
X41319787Y47015937D01*
X41513957Y47016806D01*
X41669232Y47018252D01*
X41789581Y47020405D01*
X41878972Y47023398D01*
X41941373Y47027363D01*
X41980754Y47032431D01*
X42001081Y47038735D01*
X42006325Y47046405D01*
X42000714Y47055314D01*
X41967102Y47100136D01*
X41957792Y47125164D01*
X41957163Y47168763D01*
X41957792Y47174150D01*
X41942146Y47192935D01*
X41938481Y47193200D01*
X41915897Y47214147D01*
X41887798Y47263602D01*
X41863492Y47321478D01*
X41852282Y47367693D01*
X41853160Y47377350D01*
X41840920Y47396068D01*
X41836881Y47396400D01*
X41814297Y47417347D01*
X41786198Y47466802D01*
X41761892Y47524678D01*
X41750682Y47570893D01*
X41751560Y47580550D01*
X41739036Y47599120D01*
X41733911Y47599600D01*
X41709948Y47620581D01*
X41686957Y47667589D01*
X41675254Y47716715D01*
X41676367Y47732950D01*
X41663000Y47751691D01*
X41659081Y47752000D01*
X41636497Y47772947D01*
X41608398Y47822402D01*
X41584092Y47880278D01*
X41572882Y47926493D01*
X41573760Y47936150D01*
X41561520Y47954868D01*
X41557481Y47955200D01*
X41534897Y47976147D01*
X41506798Y48025602D01*
X41482492Y48083478D01*
X41471282Y48129693D01*
X41472160Y48139350D01*
X41459920Y48158068D01*
X41455881Y48158400D01*
X41433297Y48179347D01*
X41405198Y48228802D01*
X41380892Y48286678D01*
X41369682Y48332893D01*
X41370560Y48342550D01*
X41358320Y48361268D01*
X41354281Y48361600D01*
X41331697Y48382547D01*
X41303598Y48432002D01*
X41279292Y48489878D01*
X41268082Y48536093D01*
X41268960Y48545750D01*
X41256436Y48564320D01*
X41251311Y48564800D01*
X41227348Y48585781D01*
X41204357Y48632789D01*
X41192654Y48681915D01*
X41193767Y48698150D01*
X41179559Y48716360D01*
X41171900Y48717200D01*
X41156731Y48732760D01*
X41160700Y48742600D01*
X41159660Y48766048D01*
X41151210Y48768000D01*
X41126241Y48789006D01*
X41102635Y48836132D01*
X41090949Y48885534D01*
X41092167Y48901350D01*
X41078800Y48920091D01*
X41074881Y48920400D01*
X41052297Y48941347D01*
X41024198Y48990802D01*
X40999892Y49048678D01*
X40988682Y49094893D01*
X40989560Y49104550D01*
X40977320Y49123268D01*
X40973281Y49123600D01*
X40950697Y49144547D01*
X40922598Y49194002D01*
X40898292Y49251878D01*
X40887082Y49298093D01*
X40887960Y49307750D01*
X40875436Y49326320D01*
X40870311Y49326800D01*
X40846348Y49347781D01*
X40823357Y49394789D01*
X40811654Y49443915D01*
X40812767Y49460150D01*
X40798559Y49478360D01*
X40790900Y49479200D01*
X40775731Y49494760D01*
X40779700Y49504600D01*
X40778660Y49528048D01*
X40770210Y49530000D01*
X40745241Y49551006D01*
X40721635Y49598132D01*
X40709949Y49647534D01*
X40711167Y49663350D01*
X40697800Y49682091D01*
X40693881Y49682400D01*
X40671297Y49703347D01*
X40643198Y49752802D01*
X40618892Y49810678D01*
X40607682Y49856893D01*
X40608560Y49866550D01*
X40596320Y49885268D01*
X40592281Y49885600D01*
X40569697Y49906547D01*
X40541598Y49956002D01*
X40517292Y50013878D01*
X40506082Y50060093D01*
X40506960Y50069750D01*
X40494720Y50088468D01*
X40490681Y50088800D01*
X40468097Y50109747D01*
X40439998Y50159202D01*
X40415692Y50217078D01*
X40404482Y50263293D01*
X40405360Y50272950D01*
X40392836Y50291520D01*
X40387711Y50292000D01*
X40363748Y50312981D01*
X40340757Y50359989D01*
X40329054Y50409115D01*
X40330167Y50425350D01*
X40316800Y50444091D01*
X40312881Y50444400D01*
X40290936Y50464514D01*
X40263999Y50510866D01*
X40242090Y50562470D01*
X40235232Y50598338D01*
X40237319Y50602656D01*
X40228226Y50624379D01*
X40194071Y50666686D01*
X40189150Y50672035D01*
X40136532Y50751048D01*
X40128972Y50831623D01*
X40128992Y50831750D01*
X40113346Y50850535D01*
X40109681Y50850800D01*
X40087097Y50871747D01*
X40058998Y50921202D01*
X40034692Y50979078D01*
X40023482Y51025293D01*
X40024360Y51034950D01*
X40011836Y51053520D01*
X40006711Y51054000D01*
X39982748Y51074981D01*
X39959757Y51121989D01*
X39948054Y51171115D01*
X39949167Y51187350D01*
X39935800Y51206091D01*
X39931881Y51206400D01*
X39909297Y51227347D01*
X39881198Y51276802D01*
X39856892Y51334678D01*
X39845682Y51380893D01*
X39846560Y51390550D01*
X39834320Y51409268D01*
X39830281Y51409600D01*
X39807925Y51430296D01*
X39780250Y51478397D01*
X39757406Y51532918D01*
X39749538Y51572875D01*
X39750038Y51575534D01*
X39736918Y51602649D01*
X39708218Y51633773D01*
X39655580Y51708535D01*
X39641935Y51784250D01*
X39628603Y51813826D01*
X39621478Y51816000D01*
X39600317Y51836918D01*
X39579084Y51883618D01*
X39567407Y51932016D01*
X39568167Y51949350D01*
X39554800Y51968091D01*
X39550881Y51968400D01*
X39528297Y51989347D01*
X39500198Y52038802D01*
X39475892Y52096678D01*
X39464682Y52142893D01*
X39465560Y52152550D01*
X39453320Y52171268D01*
X39449281Y52171600D01*
X39426697Y52192547D01*
X39398598Y52242002D01*
X39374292Y52299878D01*
X39363082Y52346093D01*
X39363960Y52355750D01*
X39351720Y52374468D01*
X39347681Y52374800D01*
X39325097Y52395747D01*
X39296998Y52445202D01*
X39272692Y52503078D01*
X39261482Y52549293D01*
X39262360Y52558950D01*
X39249836Y52577520D01*
X39244711Y52578000D01*
X39220748Y52598981D01*
X39197757Y52645989D01*
X39186054Y52695115D01*
X39187167Y52711350D01*
X39173800Y52730091D01*
X39169881Y52730400D01*
X39147297Y52751347D01*
X39119198Y52800802D01*
X39094892Y52858678D01*
X39083682Y52904893D01*
X39084560Y52914550D01*
X39072320Y52933268D01*
X39068281Y52933600D01*
X39045697Y52954547D01*
X39017598Y53004002D01*
X38993292Y53061878D01*
X38982082Y53108093D01*
X38982960Y53117750D01*
X38970720Y53136468D01*
X38966681Y53136800D01*
X38945384Y53157383D01*
X38916918Y53205796D01*
X38891215Y53262033D01*
X38878209Y53306088D01*
X38878409Y53314600D01*
X38865219Y53340284D01*
X38839998Y53369284D01*
X38829667Y53375925D01*
X38817014Y53373745D01*
X38800143Y53359347D01*
X38777154Y53329336D01*
X38746150Y53280313D01*
X38705233Y53208882D01*
X38652505Y53111646D01*
X38586068Y52985207D01*
X38504023Y52826170D01*
X38404474Y52631136D01*
X38285521Y52396708D01*
X38179210Y52186622D01*
X37559921Y50961976D01*
X37680881Y50729141D01*
X37732829Y50634131D01*
X37778052Y50560543D01*
X37810810Y50517200D01*
X37823630Y50509772D01*
X37835529Y50503727D01*
X37831487Y50486935D01*
X37833395Y50446621D01*
X37854549Y50393194D01*
X37885441Y50342829D01*
X37916562Y50311703D01*
X37934830Y50311141D01*
X37944285Y50312288D01*
X37938649Y50300253D01*
X37934671Y50259917D01*
X37949976Y50209624D01*
X37975594Y50168441D01*
X38002553Y50155437D01*
X38006038Y50157020D01*
X38019374Y50156197D01*
X38013699Y50143805D01*
X38011085Y50105423D01*
X38027730Y50050313D01*
X38055281Y49995589D01*
X38085383Y49958364D01*
X38106712Y49953248D01*
X38121200Y49953232D01*
X38116203Y49942068D01*
X38114279Y49904664D01*
X38131324Y49849882D01*
X38158936Y49794898D01*
X38188714Y49756889D01*
X38209710Y49750912D01*
X38222753Y49749731D01*
X38217691Y49738687D01*
X38218927Y49704219D01*
X38239014Y49643220D01*
X38271383Y49568915D01*
X38309465Y49494530D01*
X38346690Y49433290D01*
X38376490Y49398421D01*
X38388069Y49395657D01*
X38400482Y49394020D01*
X38395199Y49382615D01*
X38402230Y49354581D01*
X38429744Y49287439D01*
X38475017Y49186632D01*
X38535323Y49057600D01*
X38607939Y48905786D01*
X38690137Y48736631D01*
X38779194Y48555576D01*
X38872383Y48368063D01*
X38966980Y48179534D01*
X39060260Y47995430D01*
X39149497Y47821192D01*
X39231966Y47662263D01*
X39304942Y47524084D01*
X39365700Y47412097D01*
X39411515Y47331742D01*
X39439661Y47288462D01*
X39446929Y47282550D01*
X39460423Y47277484D01*
X39456334Y47259174D01*
X39459185Y47215392D01*
X39483439Y47149281D01*
X39499402Y47118154D01*
X39557154Y47015400D01*
X39557154Y46982117D01*
X38557200Y44995666D01*
X37553900Y43002570D01*
X35568490Y43002385D01*
X33583081Y43002199D01*
X32949317Y41751249D01*
X32315554Y40500300D01*
X30909241Y40494657D01*
X30909241Y41138223D01*
X31050698Y41138395D01*
X31185028Y41152235D01*
X31293556Y41179712D01*
X31294200Y41179960D01*
X31434568Y41260249D01*
X31552995Y41379865D01*
X31644218Y41530151D01*
X31702975Y41702450D01*
X31723997Y41886886D01*
X31717338Y41998385D01*
X31699299Y42129889D01*
X31673785Y42252958D01*
X31673741Y42253128D01*
X31648940Y42346760D01*
X31628094Y42419392D01*
X31614818Y42458612D01*
X31612943Y42461923D01*
X31585343Y42464307D01*
X31516581Y42463933D01*
X31416208Y42461014D01*
X31293776Y42455765D01*
X31257402Y42453936D01*
X30928469Y42436876D01*
X30928469Y43366070D01*
X31130702Y43370512D01*
X31308547Y43416767D01*
X31458964Y43500552D01*
X31578913Y43617584D01*
X31665355Y43763580D01*
X31715251Y43934258D01*
X31725563Y44125334D01*
X31693250Y44332525D01*
X31676262Y44390696D01*
X31676262Y44708233D01*
X31687226Y44727278D01*
X31695337Y44785368D01*
X31699099Y44870765D01*
X31699200Y44888361D01*
X31699200Y45076956D01*
X31545983Y45123347D01*
X31392767Y45169737D01*
X31399933Y45435462D01*
X31407100Y45701187D01*
X31546800Y45743169D01*
X31686500Y45785150D01*
X31693915Y45981031D01*
X31701331Y46176912D01*
X31528815Y46113068D01*
X31452919Y46084978D01*
X31339356Y46042944D01*
X31198103Y45990658D01*
X31039133Y45931813D01*
X30872422Y45870100D01*
X30822900Y45851768D01*
X30289500Y45654311D01*
X30282410Y45439505D01*
X30276800Y45269516D01*
X30276800Y46380400D01*
X31699200Y46380400D01*
X31699200Y46710600D01*
X31229300Y46710600D01*
X31081223Y46711575D01*
X30952440Y46714289D01*
X30850828Y46718420D01*
X30784265Y46723649D01*
X30760628Y46729650D01*
X30781680Y46747954D01*
X30839895Y46788478D01*
X30928989Y46847116D01*
X31042680Y46919760D01*
X31174684Y47002305D01*
X31230528Y47036759D01*
X31699200Y47324818D01*
X31699200Y47675800D01*
X30926516Y47675800D01*
X30926516Y48621271D01*
X31124786Y48624146D01*
X31291741Y48662689D01*
X31434381Y48739217D01*
X31526612Y48819812D01*
X31621049Y48935086D01*
X31681091Y49055994D01*
X31711010Y49195541D01*
X31715078Y49366733D01*
X31714017Y49390300D01*
X31702861Y49506724D01*
X31699200Y49528128D01*
X31699200Y50114200D01*
X31699200Y50443303D01*
X31212167Y50450201D01*
X30725134Y50457100D01*
X31699200Y51058654D01*
X31699200Y51409600D01*
X30911322Y51409600D01*
X30911322Y51701079D01*
X31080663Y51701496D01*
X31245559Y51731825D01*
X31397127Y51791905D01*
X31526486Y51881575D01*
X31624753Y52000674D01*
X31638193Y52024724D01*
X31688717Y52165380D01*
X31713098Y52333464D01*
X31710937Y52512610D01*
X31681839Y52686455D01*
X31656238Y52768500D01*
X31608897Y52895500D01*
X31260847Y52910670D01*
X31316603Y52826885D01*
X31390844Y52700238D01*
X31430814Y52589025D01*
X31441668Y52476645D01*
X31439353Y52431646D01*
X31407959Y52290952D01*
X31339788Y52184969D01*
X31234515Y52113438D01*
X31091817Y52076099D01*
X30988000Y52070000D01*
X30822749Y52086872D01*
X30695156Y52137711D01*
X30604806Y52222849D01*
X30551286Y52342618D01*
X30536563Y52432638D01*
X30535002Y52530607D01*
X30553371Y52613843D01*
X30591053Y52698594D01*
X30631334Y52772316D01*
X30666204Y52826250D01*
X30682717Y52844401D01*
X30709876Y52872920D01*
X30688691Y52893602D01*
X30621140Y52905536D01*
X30544152Y52908200D01*
X30454181Y52906607D01*
X30400626Y52898406D01*
X30369124Y52878462D01*
X30345310Y52841640D01*
X30342404Y52836069D01*
X30288438Y52684859D01*
X30264394Y52509409D01*
X30269785Y52326169D01*
X30304122Y52151592D01*
X30366919Y52002128D01*
X30367148Y52001737D01*
X30465448Y51880902D01*
X30594832Y51790621D01*
X30746418Y51730734D01*
X30911322Y51701079D01*
X30911322Y51409600D01*
X30276800Y51409600D01*
X30276800Y51080658D01*
X31088728Y51066700D01*
X30289500Y50556710D01*
X30274822Y50114200D01*
X31699200Y50114200D01*
X31699200Y49528128D01*
X31683281Y49621199D01*
X31659385Y49710031D01*
X31657857Y49714150D01*
X31612042Y49834800D01*
X31439721Y49834800D01*
X31337642Y49831237D01*
X31282568Y49819337D01*
X31271124Y49797279D01*
X31299937Y49763243D01*
X31302716Y49760910D01*
X31332084Y49722081D01*
X31369755Y49653673D01*
X31394542Y49600238D01*
X31434132Y49457774D01*
X31433990Y49316932D01*
X31394843Y49191235D01*
X31370417Y49150991D01*
X31287177Y49074676D01*
X31171702Y49023404D01*
X31037066Y48999239D01*
X30896344Y49004251D01*
X30762607Y49040504D01*
X30738926Y49051163D01*
X30633553Y49127546D01*
X30565937Y49231858D01*
X30537362Y49356669D01*
X30549110Y49494549D01*
X30602465Y49638070D01*
X30629429Y49685417D01*
X30671744Y49755204D01*
X30700471Y49805865D01*
X30708600Y49823787D01*
X30685429Y49829406D01*
X30624827Y49833374D01*
X30544152Y49834800D01*
X30454181Y49833207D01*
X30400626Y49825006D01*
X30369124Y49805062D01*
X30345310Y49768240D01*
X30342404Y49762669D01*
X30308176Y49669743D01*
X30280757Y49545942D01*
X30263055Y49411038D01*
X30257979Y49284807D01*
X30262478Y49219348D01*
X30309501Y49033593D01*
X30395620Y48879218D01*
X30518271Y48758532D01*
X30674889Y48673845D01*
X30862911Y48627466D01*
X30926516Y48621271D01*
X30926516Y47675800D01*
X30276800Y47675800D01*
X30276800Y47345600D01*
X30671999Y47345600D01*
X30805987Y47344372D01*
X30918902Y47340983D01*
X31002485Y47335872D01*
X31048479Y47329480D01*
X31054600Y47325216D01*
X31029942Y47305718D01*
X30969280Y47264175D01*
X30879783Y47205313D01*
X30768623Y47133856D01*
X30659469Y47064866D01*
X30276935Y46824900D01*
X30276867Y46602650D01*
X30276800Y46380400D01*
X30276800Y45269516D01*
X30275321Y45224700D01*
X30964323Y44970700D01*
X31141404Y44905418D01*
X31303213Y44845767D01*
X31443548Y44794031D01*
X31556210Y44752496D01*
X31634998Y44723448D01*
X31673713Y44709173D01*
X31676262Y44708233D01*
X31676262Y44390696D01*
X31670226Y44411366D01*
X31615852Y44577000D01*
X31441626Y44577000D01*
X31354969Y44575531D01*
X31292582Y44571672D01*
X31267447Y44566244D01*
X31267400Y44565987D01*
X31279740Y44540250D01*
X31311731Y44484792D01*
X31346570Y44427617D01*
X31416304Y44278123D01*
X31439862Y44135646D01*
X31420373Y44006198D01*
X31360966Y43895791D01*
X31264771Y43810436D01*
X31134916Y43756144D01*
X30988000Y43738800D01*
X30843790Y43757245D01*
X30714519Y43808431D01*
X30614440Y43886135D01*
X30594445Y43910619D01*
X30561332Y43975933D01*
X30545936Y44064321D01*
X30543645Y44134742D01*
X30548605Y44236098D01*
X30568950Y44315410D01*
X30612531Y44400066D01*
X30626050Y44422180D01*
X30669364Y44493507D01*
X30699256Y44545883D01*
X30708600Y44565987D01*
X30685348Y44571425D01*
X30624178Y44575360D01*
X30537967Y44576992D01*
X30531509Y44577000D01*
X30354419Y44577000D01*
X30310470Y44430950D01*
X30282360Y44298572D01*
X30269001Y44148787D01*
X30270360Y43998739D01*
X30286406Y43865577D01*
X30311658Y43778267D01*
X30403290Y43619639D01*
X30526490Y43499698D01*
X30682720Y43417468D01*
X30873446Y43371970D01*
X30928469Y43366070D01*
X30928469Y42436876D01*
X30911800Y42436011D01*
X30911800Y41808400D01*
X31191200Y41808400D01*
X31191200Y42087800D01*
X31476517Y42087800D01*
X31466022Y41922973D01*
X31446807Y41790101D01*
X31403180Y41689110D01*
X31326699Y41603657D01*
X31283017Y41568669D01*
X31237214Y41541464D01*
X31180594Y41525407D01*
X31099149Y41517900D01*
X31000700Y41516300D01*
X30887383Y41518611D01*
X30810720Y41527278D01*
X30756703Y41544899D01*
X30718382Y41568669D01*
X30627139Y41650382D01*
X30571289Y41739561D01*
X30542641Y41852391D01*
X30535540Y41929861D01*
X30532773Y42022912D01*
X30540162Y42093456D01*
X30562622Y42162020D01*
X30605068Y42249133D01*
X30617733Y42273120D01*
X30709454Y42445740D01*
X30368864Y42430700D01*
X30319259Y42291000D01*
X30283316Y42146142D01*
X30266505Y41979850D01*
X30268676Y41809638D01*
X30289680Y41653020D01*
X30325699Y41535562D01*
X30408404Y41399533D01*
X30523609Y41279108D01*
X30655320Y41190400D01*
X30679655Y41178997D01*
X30779335Y41151747D01*
X30909241Y41138223D01*
X30909241Y40494657D01*
X30686577Y40493763D01*
X29057600Y40487227D01*
X29057600Y53492400D01*
X32321739Y53492400D01*
G36*
X59829878Y65942224D02*
G01*
X59935612Y65941645D01*
X60012132Y65940078D01*
X60064372Y65937028D01*
X60097263Y65932004D01*
X60115737Y65924511D01*
X60124727Y65914056D01*
X60129163Y65900147D01*
X60129594Y65898346D01*
X60136333Y65865855D01*
X60148808Y65801748D01*
X60165719Y65712849D01*
X60185771Y65605981D01*
X60207664Y65487967D01*
X60208429Y65483822D01*
X60230359Y65368169D01*
X60250877Y65265986D01*
X60268659Y65183402D01*
X60282381Y65126544D01*
X60290718Y65101542D01*
X60291116Y65101099D01*
X60315677Y65088890D01*
X60366315Y65068544D01*
X60432095Y65044455D01*
X60432461Y65044326D01*
X60515317Y65013182D01*
X60613000Y64973509D01*
X60705077Y64933619D01*
X60709434Y64931647D01*
X60859407Y64863580D01*
X61191498Y65090361D01*
X61293374Y65159496D01*
X61385657Y65221303D01*
X61463003Y65272267D01*
X61520064Y65308873D01*
X61551495Y65327606D01*
X61554479Y65328996D01*
X61577321Y65322810D01*
X61619982Y65292965D01*
X61684128Y65238053D01*
X61771421Y65156666D01*
X61860535Y65070078D01*
X61946441Y64984753D01*
X62023327Y64906892D01*
X62086564Y64841303D01*
X62131523Y64792795D01*
X62153576Y64766175D01*
X62154396Y64764805D01*
X62156834Y64746537D01*
X62147650Y64716705D01*
X62124574Y64671279D01*
X62085337Y64606230D01*
X62027670Y64517530D01*
X61950795Y64403343D01*
X61882570Y64302838D01*
X61821582Y64212697D01*
X61771356Y64138151D01*
X61735416Y64084435D01*
X61717287Y64056782D01*
X61716146Y64054905D01*
X61718359Y64028410D01*
X61735138Y63976914D01*
X61763142Y63910149D01*
X61773122Y63888828D01*
X61816672Y63793841D01*
X61863134Y63686063D01*
X61900877Y63592808D01*
X61928073Y63523594D01*
X61949675Y63470994D01*
X61962158Y63443503D01*
X61963709Y63441384D01*
X61986668Y63437876D01*
X62040786Y63428262D01*
X62118868Y63413911D01*
X62213719Y63396193D01*
X62318143Y63376475D01*
X62424944Y63356126D01*
X62526926Y63336514D01*
X62616894Y63319009D01*
X62687653Y63304978D01*
X62732006Y63295791D01*
X62742885Y63293193D01*
X62754122Y63286782D01*
X62762605Y63272303D01*
X62768714Y63244867D01*
X62772832Y63199589D01*
X62775341Y63131580D01*
X62776621Y63035953D01*
X62777054Y62907820D01*
X62777077Y62855299D01*
X62777077Y62428155D01*
X62674500Y62407909D01*
X62617431Y62396930D01*
X62532269Y62380905D01*
X62429372Y62361767D01*
X62319096Y62341449D01*
X62288615Y62335868D01*
X62186855Y62316083D01*
X62098205Y62296627D01*
X62030108Y62279303D01*
X61990004Y62265912D01*
X61983323Y62261921D01*
X61966919Y62233658D01*
X61943399Y62178891D01*
X61917316Y62108412D01*
X61912142Y62093231D01*
X61877956Y61999104D01*
X61835523Y61892899D01*
X61793997Y61797527D01*
X61793792Y61797084D01*
X61724640Y61647475D01*
X62179512Y60978383D01*
X61887500Y60685884D01*
X61799180Y60598830D01*
X61718625Y60522091D01*
X61650360Y60459763D01*
X61598908Y60415944D01*
X61568794Y60394730D01*
X61564474Y60393384D01*
X61539111Y60403984D01*
X61487358Y60433453D01*
X61414868Y60478295D01*
X61327294Y60535016D01*
X61232612Y60598538D01*
X61136516Y60663332D01*
X61050837Y60719713D01*
X60981016Y60764212D01*
X60932494Y60793361D01*
X60910782Y60803692D01*
X60884293Y60794950D01*
X60834062Y60771913D01*
X60770451Y60739369D01*
X60763708Y60735751D01*
X60678046Y60692790D01*
X60619306Y60671721D01*
X60582772Y60671497D01*
X60563731Y60691072D01*
X60563620Y60691346D01*
X60554102Y60714528D01*
X60531403Y60769559D01*
X60497282Y60852178D01*
X60453500Y60958128D01*
X60401816Y61083148D01*
X60343992Y61222980D01*
X60287991Y61358363D01*
X60226447Y61507766D01*
X60169939Y61646168D01*
X60120161Y61769327D01*
X60078806Y61872998D01*
X60047568Y61952941D01*
X60028141Y62004912D01*
X60022154Y62024308D01*
X60037168Y62046557D01*
X60076439Y62082018D01*
X60128807Y62121113D01*
X60277941Y62244755D01*
X60394511Y62386478D01*
X60477118Y62543296D01*
X60524366Y62712225D01*
X60534857Y62890278D01*
X60527231Y62972461D01*
X60485682Y63142969D01*
X60414123Y63293541D01*
X60316995Y63422691D01*
X60198734Y63528936D01*
X60063780Y63610790D01*
X59916571Y63666768D01*
X59761544Y63695385D01*
X59603139Y63695156D01*
X59445794Y63664595D01*
X59293946Y63602218D01*
X59152035Y63506540D01*
X59092803Y63452428D01*
X58979203Y63313480D01*
X58900106Y63161639D01*
X58854986Y63001333D01*
X58843316Y62836988D01*
X58864569Y62673029D01*
X58918220Y62513882D01*
X59003740Y62363975D01*
X59120605Y62227733D01*
X59251193Y62121113D01*
X59305588Y62080358D01*
X59344014Y62045282D01*
X59357846Y62024274D01*
X59350603Y62001365D01*
X59330005Y61946635D01*
X59297746Y61864328D01*
X59255521Y61758685D01*
X59205023Y61633950D01*
X59147948Y61494364D01*
X59091854Y61358330D01*
X59029967Y61208799D01*
X58972644Y61070233D01*
X58921644Y60946893D01*
X58878727Y60843036D01*
X58845653Y60762920D01*
X58824181Y60710805D01*
X58816225Y60691346D01*
X58797429Y60671577D01*
X58761074Y60671635D01*
X58702479Y60692559D01*
X58616968Y60735387D01*
X58616292Y60735751D01*
X58551907Y60768988D01*
X58499861Y60793198D01*
X58470512Y60803596D01*
X58469217Y60803692D01*
X58447124Y60793145D01*
X58398348Y60763816D01*
X58328331Y60719173D01*
X58242514Y60662686D01*
X58147388Y60598538D01*
X58050540Y60533589D01*
X57963253Y60477104D01*
X57891181Y60432579D01*
X57839977Y60403510D01*
X57815526Y60393384D01*
X57793010Y60406693D01*
X57747742Y60443888D01*
X57684244Y60500872D01*
X57607039Y60573551D01*
X57520651Y60657829D01*
X57492399Y60685984D01*
X57200287Y60978584D01*
X57422631Y61304896D01*
X57490202Y61405103D01*
X57549507Y61495037D01*
X57597217Y61569490D01*
X57630007Y61623249D01*
X57644548Y61651106D01*
X57644974Y61653088D01*
X57637308Y61679345D01*
X57616689Y61732163D01*
X57586685Y61802690D01*
X57565625Y61849907D01*
X57526248Y61940306D01*
X57489165Y62031634D01*
X57460415Y62108800D01*
X57452605Y62132308D01*
X57430417Y62195084D01*
X57408727Y62243589D01*
X57396813Y62261921D01*
X57370523Y62273141D01*
X57313142Y62289046D01*
X57232118Y62307833D01*
X57134895Y62327701D01*
X57091385Y62335868D01*
X56980896Y62356171D01*
X56874916Y62375830D01*
X56783801Y62392912D01*
X56717908Y62405482D01*
X56705500Y62407909D01*
X56602923Y62428155D01*
X56602923Y62855299D01*
X56603153Y62995754D01*
X56604099Y63102021D01*
X56606141Y63178987D01*
X56609662Y63231540D01*
X56615043Y63264567D01*
X56622666Y63282955D01*
X56632912Y63291592D01*
X56637115Y63293193D01*
X56662470Y63298873D01*
X56718484Y63310205D01*
X56797964Y63325821D01*
X56893712Y63344353D01*
X56998533Y63364431D01*
X57105232Y63384688D01*
X57206613Y63403754D01*
X57295479Y63420261D01*
X57364637Y63432841D01*
X57406889Y63440125D01*
X57416290Y63441384D01*
X57424807Y63458237D01*
X57443660Y63503130D01*
X57469324Y63567570D01*
X57479123Y63592808D01*
X57518648Y63690314D01*
X57565192Y63798041D01*
X57606877Y63888828D01*
X57637550Y63958247D01*
X57657956Y64015290D01*
X57664768Y64050223D01*
X57663682Y64054905D01*
X57649285Y64077009D01*
X57616412Y64126169D01*
X57568590Y64197152D01*
X57509348Y64284722D01*
X57442215Y64383643D01*
X57428941Y64403170D01*
X57351046Y64518860D01*
X57293787Y64606956D01*
X57254881Y64671514D01*
X57232044Y64716589D01*
X57222994Y64746237D01*
X57225448Y64764515D01*
X57225511Y64764631D01*
X57244827Y64788639D01*
X57287551Y64835053D01*
X57349051Y64899063D01*
X57424698Y64975855D01*
X57509861Y65060618D01*
X57519465Y65070078D01*
X57626790Y65174011D01*
X57709615Y65250325D01*
X57769605Y65300429D01*
X57808423Y65325730D01*
X57825520Y65328996D01*
X57850473Y65314750D01*
X57902255Y65281844D01*
X57975520Y65233792D01*
X58064920Y65174110D01*
X58165111Y65106312D01*
X58188501Y65090361D01*
X58520593Y64863580D01*
X58670565Y64931647D01*
X58761770Y64971315D01*
X58859669Y65011209D01*
X58943831Y65043017D01*
X58947538Y65044326D01*
X59013369Y65068424D01*
X59064116Y65088800D01*
X59088842Y65101064D01*
X59088884Y65101099D01*
X59096729Y65123266D01*
X59110066Y65177783D01*
X59127570Y65258520D01*
X59147917Y65359350D01*
X59169782Y65474144D01*
X59171571Y65483822D01*
X59193504Y65602096D01*
X59213640Y65709458D01*
X59230680Y65799083D01*
X59243328Y65864149D01*
X59250284Y65897832D01*
X59250406Y65898346D01*
X59254639Y65912675D01*
X59262871Y65923493D01*
X59280033Y65931294D01*
X59311058Y65936571D01*
X59360878Y65939818D01*
X59434424Y65941528D01*
X59536629Y65942193D01*
X59672425Y65942307D01*
X59690000Y65942308D01*
X59829878Y65942224D01*
G37*
X59829878Y65942224D02*
X59935612Y65941645D01*
X60012132Y65940078D01*
X60064372Y65937028D01*
X60097263Y65932004D01*
X60115737Y65924511D01*
X60124727Y65914056D01*
X60129163Y65900147D01*
X60129594Y65898346D01*
X60136333Y65865855D01*
X60148808Y65801748D01*
X60165719Y65712849D01*
X60185771Y65605981D01*
X60207664Y65487967D01*
X60208429Y65483822D01*
X60230359Y65368169D01*
X60250877Y65265986D01*
X60268659Y65183402D01*
X60282381Y65126544D01*
X60290718Y65101542D01*
X60291116Y65101099D01*
X60315677Y65088890D01*
X60366315Y65068544D01*
X60432095Y65044455D01*
X60432461Y65044326D01*
X60515317Y65013182D01*
X60613000Y64973509D01*
X60705077Y64933619D01*
X60709434Y64931647D01*
X60859407Y64863580D01*
X61191498Y65090361D01*
X61293374Y65159496D01*
X61385657Y65221303D01*
X61463003Y65272267D01*
X61520064Y65308873D01*
X61551495Y65327606D01*
X61554479Y65328996D01*
X61577321Y65322810D01*
X61619982Y65292965D01*
X61684128Y65238053D01*
X61771421Y65156666D01*
X61860535Y65070078D01*
X61946441Y64984753D01*
X62023327Y64906892D01*
X62086564Y64841303D01*
X62131523Y64792795D01*
X62153576Y64766175D01*
X62154396Y64764805D01*
X62156834Y64746537D01*
X62147650Y64716705D01*
X62124574Y64671279D01*
X62085337Y64606230D01*
X62027670Y64517530D01*
X61950795Y64403343D01*
X61882570Y64302838D01*
X61821582Y64212697D01*
X61771356Y64138151D01*
X61735416Y64084435D01*
X61717287Y64056782D01*
X61716146Y64054905D01*
X61718359Y64028410D01*
X61735138Y63976914D01*
X61763142Y63910149D01*
X61773122Y63888828D01*
X61816672Y63793841D01*
X61863134Y63686063D01*
X61900877Y63592808D01*
X61928073Y63523594D01*
X61949675Y63470994D01*
X61962158Y63443503D01*
X61963709Y63441384D01*
X61986668Y63437876D01*
X62040786Y63428262D01*
X62118868Y63413911D01*
X62213719Y63396193D01*
X62318143Y63376475D01*
X62424944Y63356126D01*
X62526926Y63336514D01*
X62616894Y63319009D01*
X62687653Y63304978D01*
X62732006Y63295791D01*
X62742885Y63293193D01*
X62754122Y63286782D01*
X62762605Y63272303D01*
X62768714Y63244867D01*
X62772832Y63199589D01*
X62775341Y63131580D01*
X62776621Y63035953D01*
X62777054Y62907820D01*
X62777077Y62855299D01*
X62777077Y62428155D01*
X62674500Y62407909D01*
X62617431Y62396930D01*
X62532269Y62380905D01*
X62429372Y62361767D01*
X62319096Y62341449D01*
X62288615Y62335868D01*
X62186855Y62316083D01*
X62098205Y62296627D01*
X62030108Y62279303D01*
X61990004Y62265912D01*
X61983323Y62261921D01*
X61966919Y62233658D01*
X61943399Y62178891D01*
X61917316Y62108412D01*
X61912142Y62093231D01*
X61877956Y61999104D01*
X61835523Y61892899D01*
X61793997Y61797527D01*
X61793792Y61797084D01*
X61724640Y61647475D01*
X62179512Y60978383D01*
X61887500Y60685884D01*
X61799180Y60598830D01*
X61718625Y60522091D01*
X61650360Y60459763D01*
X61598908Y60415944D01*
X61568794Y60394730D01*
X61564474Y60393384D01*
X61539111Y60403984D01*
X61487358Y60433453D01*
X61414868Y60478295D01*
X61327294Y60535016D01*
X61232612Y60598538D01*
X61136516Y60663332D01*
X61050837Y60719713D01*
X60981016Y60764212D01*
X60932494Y60793361D01*
X60910782Y60803692D01*
X60884293Y60794950D01*
X60834062Y60771913D01*
X60770451Y60739369D01*
X60763708Y60735751D01*
X60678046Y60692790D01*
X60619306Y60671721D01*
X60582772Y60671497D01*
X60563731Y60691072D01*
X60563620Y60691346D01*
X60554102Y60714528D01*
X60531403Y60769559D01*
X60497282Y60852178D01*
X60453500Y60958128D01*
X60401816Y61083148D01*
X60343992Y61222980D01*
X60287991Y61358363D01*
X60226447Y61507766D01*
X60169939Y61646168D01*
X60120161Y61769327D01*
X60078806Y61872998D01*
X60047568Y61952941D01*
X60028141Y62004912D01*
X60022154Y62024308D01*
X60037168Y62046557D01*
X60076439Y62082018D01*
X60128807Y62121113D01*
X60277941Y62244755D01*
X60394511Y62386478D01*
X60477118Y62543296D01*
X60524366Y62712225D01*
X60534857Y62890278D01*
X60527231Y62972461D01*
X60485682Y63142969D01*
X60414123Y63293541D01*
X60316995Y63422691D01*
X60198734Y63528936D01*
X60063780Y63610790D01*
X59916571Y63666768D01*
X59761544Y63695385D01*
X59603139Y63695156D01*
X59445794Y63664595D01*
X59293946Y63602218D01*
X59152035Y63506540D01*
X59092803Y63452428D01*
X58979203Y63313480D01*
X58900106Y63161639D01*
X58854986Y63001333D01*
X58843316Y62836988D01*
X58864569Y62673029D01*
X58918220Y62513882D01*
X59003740Y62363975D01*
X59120605Y62227733D01*
X59251193Y62121113D01*
X59305588Y62080358D01*
X59344014Y62045282D01*
X59357846Y62024274D01*
X59350603Y62001365D01*
X59330005Y61946635D01*
X59297746Y61864328D01*
X59255521Y61758685D01*
X59205023Y61633950D01*
X59147948Y61494364D01*
X59091854Y61358330D01*
X59029967Y61208799D01*
X58972644Y61070233D01*
X58921644Y60946893D01*
X58878727Y60843036D01*
X58845653Y60762920D01*
X58824181Y60710805D01*
X58816225Y60691346D01*
X58797429Y60671577D01*
X58761074Y60671635D01*
X58702479Y60692559D01*
X58616968Y60735387D01*
X58616292Y60735751D01*
X58551907Y60768988D01*
X58499861Y60793198D01*
X58470512Y60803596D01*
X58469217Y60803692D01*
X58447124Y60793145D01*
X58398348Y60763816D01*
X58328331Y60719173D01*
X58242514Y60662686D01*
X58147388Y60598538D01*
X58050540Y60533589D01*
X57963253Y60477104D01*
X57891181Y60432579D01*
X57839977Y60403510D01*
X57815526Y60393384D01*
X57793010Y60406693D01*
X57747742Y60443888D01*
X57684244Y60500872D01*
X57607039Y60573551D01*
X57520651Y60657829D01*
X57492399Y60685984D01*
X57200287Y60978584D01*
X57422631Y61304896D01*
X57490202Y61405103D01*
X57549507Y61495037D01*
X57597217Y61569490D01*
X57630007Y61623249D01*
X57644548Y61651106D01*
X57644974Y61653088D01*
X57637308Y61679345D01*
X57616689Y61732163D01*
X57586685Y61802690D01*
X57565625Y61849907D01*
X57526248Y61940306D01*
X57489165Y62031634D01*
X57460415Y62108800D01*
X57452605Y62132308D01*
X57430417Y62195084D01*
X57408727Y62243589D01*
X57396813Y62261921D01*
X57370523Y62273141D01*
X57313142Y62289046D01*
X57232118Y62307833D01*
X57134895Y62327701D01*
X57091385Y62335868D01*
X56980896Y62356171D01*
X56874916Y62375830D01*
X56783801Y62392912D01*
X56717908Y62405482D01*
X56705500Y62407909D01*
X56602923Y62428155D01*
X56602923Y62855299D01*
X56603153Y62995754D01*
X56604099Y63102021D01*
X56606141Y63178987D01*
X56609662Y63231540D01*
X56615043Y63264567D01*
X56622666Y63282955D01*
X56632912Y63291592D01*
X56637115Y63293193D01*
X56662470Y63298873D01*
X56718484Y63310205D01*
X56797964Y63325821D01*
X56893712Y63344353D01*
X56998533Y63364431D01*
X57105232Y63384688D01*
X57206613Y63403754D01*
X57295479Y63420261D01*
X57364637Y63432841D01*
X57406889Y63440125D01*
X57416290Y63441384D01*
X57424807Y63458237D01*
X57443660Y63503130D01*
X57469324Y63567570D01*
X57479123Y63592808D01*
X57518648Y63690314D01*
X57565192Y63798041D01*
X57606877Y63888828D01*
X57637550Y63958247D01*
X57657956Y64015290D01*
X57664768Y64050223D01*
X57663682Y64054905D01*
X57649285Y64077009D01*
X57616412Y64126169D01*
X57568590Y64197152D01*
X57509348Y64284722D01*
X57442215Y64383643D01*
X57428941Y64403170D01*
X57351046Y64518860D01*
X57293787Y64606956D01*
X57254881Y64671514D01*
X57232044Y64716589D01*
X57222994Y64746237D01*
X57225448Y64764515D01*
X57225511Y64764631D01*
X57244827Y64788639D01*
X57287551Y64835053D01*
X57349051Y64899063D01*
X57424698Y64975855D01*
X57509861Y65060618D01*
X57519465Y65070078D01*
X57626790Y65174011D01*
X57709615Y65250325D01*
X57769605Y65300429D01*
X57808423Y65325730D01*
X57825520Y65328996D01*
X57850473Y65314750D01*
X57902255Y65281844D01*
X57975520Y65233792D01*
X58064920Y65174110D01*
X58165111Y65106312D01*
X58188501Y65090361D01*
X58520593Y64863580D01*
X58670565Y64931647D01*
X58761770Y64971315D01*
X58859669Y65011209D01*
X58943831Y65043017D01*
X58947538Y65044326D01*
X59013369Y65068424D01*
X59064116Y65088800D01*
X59088842Y65101064D01*
X59088884Y65101099D01*
X59096729Y65123266D01*
X59110066Y65177783D01*
X59127570Y65258520D01*
X59147917Y65359350D01*
X59169782Y65474144D01*
X59171571Y65483822D01*
X59193504Y65602096D01*
X59213640Y65709458D01*
X59230680Y65799083D01*
X59243328Y65864149D01*
X59250284Y65897832D01*
X59250406Y65898346D01*
X59254639Y65912675D01*
X59262871Y65923493D01*
X59280033Y65931294D01*
X59311058Y65936571D01*
X59360878Y65939818D01*
X59434424Y65941528D01*
X59536629Y65942193D01*
X59672425Y65942307D01*
X59690000Y65942308D01*
X59829878Y65942224D01*
G36*
X63935224Y59582162D02*
G01*
X64012528Y59531639D01*
X64049814Y59486410D01*
X64079353Y59404337D01*
X64081699Y59339393D01*
X64076385Y59252555D01*
X63876115Y59164897D01*
X63778739Y59120113D01*
X63715113Y59084087D01*
X63682029Y59052883D01*
X63676280Y59022564D01*
X63694658Y58989195D01*
X63714923Y58967077D01*
X63773889Y58931607D01*
X63838024Y58929121D01*
X63896926Y58956765D01*
X63940197Y59011680D01*
X63947936Y59031072D01*
X63985006Y59091636D01*
X64027654Y59117448D01*
X64086154Y59139529D01*
X64086154Y59055816D01*
X64080982Y58998850D01*
X64060723Y58950811D01*
X64018262Y58895654D01*
X64011951Y58888486D01*
X63964720Y58839415D01*
X63924121Y58813080D01*
X63873328Y58800965D01*
X63831220Y58796997D01*
X63755902Y58796009D01*
X63702286Y58808534D01*
X63668838Y58827131D01*
X63616268Y58868025D01*
X63579879Y58912252D01*
X63556850Y58967874D01*
X63544359Y59042953D01*
X63539587Y59145551D01*
X63539206Y59197624D01*
X63540501Y59260052D01*
X63658471Y59260052D01*
X63659839Y59226562D01*
X63663249Y59221077D01*
X63685753Y59228528D01*
X63734182Y59248247D01*
X63798908Y59276282D01*
X63812443Y59282308D01*
X63894244Y59323904D01*
X63939312Y59360462D01*
X63949217Y59394704D01*
X63925526Y59429352D01*
X63905960Y59444661D01*
X63835360Y59475279D01*
X63769280Y59470220D01*
X63713959Y59432849D01*
X63675636Y59366527D01*
X63663349Y59313884D01*
X63658471Y59260052D01*
X63540501Y59260052D01*
X63541730Y59319280D01*
X63551032Y59409290D01*
X63569460Y59474833D01*
X63599360Y59523088D01*
X63643080Y59561233D01*
X63662141Y59573560D01*
X63748726Y59605664D01*
X63843522Y59607684D01*
X63935224Y59582162D01*
G37*
X63935224Y59582162D02*
X64012528Y59531639D01*
X64049814Y59486410D01*
X64079353Y59404337D01*
X64081699Y59339393D01*
X64076385Y59252555D01*
X63876115Y59164897D01*
X63778739Y59120113D01*
X63715113Y59084087D01*
X63682029Y59052883D01*
X63676280Y59022564D01*
X63694658Y58989195D01*
X63714923Y58967077D01*
X63773889Y58931607D01*
X63838024Y58929121D01*
X63896926Y58956765D01*
X63940197Y59011680D01*
X63947936Y59031072D01*
X63985006Y59091636D01*
X64027654Y59117448D01*
X64086154Y59139529D01*
X64086154Y59055816D01*
X64080982Y58998850D01*
X64060723Y58950811D01*
X64018262Y58895654D01*
X64011951Y58888486D01*
X63964720Y58839415D01*
X63924121Y58813080D01*
X63873328Y58800965D01*
X63831220Y58796997D01*
X63755902Y58796009D01*
X63702286Y58808534D01*
X63668838Y58827131D01*
X63616268Y58868025D01*
X63579879Y58912252D01*
X63556850Y58967874D01*
X63544359Y59042953D01*
X63539587Y59145551D01*
X63539206Y59197624D01*
X63540501Y59260052D01*
X63658471Y59260052D01*
X63659839Y59226562D01*
X63663249Y59221077D01*
X63685753Y59228528D01*
X63734182Y59248247D01*
X63798908Y59276282D01*
X63812443Y59282308D01*
X63894244Y59323904D01*
X63939312Y59360462D01*
X63949217Y59394704D01*
X63925526Y59429352D01*
X63905960Y59444661D01*
X63835360Y59475279D01*
X63769280Y59470220D01*
X63713959Y59432849D01*
X63675636Y59366527D01*
X63663349Y59313884D01*
X63658471Y59260052D01*
X63540501Y59260052D01*
X63541730Y59319280D01*
X63551032Y59409290D01*
X63569460Y59474833D01*
X63599360Y59523088D01*
X63643080Y59561233D01*
X63662141Y59573560D01*
X63748726Y59605664D01*
X63843522Y59607684D01*
X63935224Y59582162D01*
G36*
X63260807Y59593218D02*
G01*
X63284161Y59583012D01*
X63339902Y59538866D01*
X63387569Y59475033D01*
X63417048Y59406913D01*
X63421846Y59373330D01*
X63405760Y59326444D01*
X63370475Y59301635D01*
X63332644Y59286613D01*
X63315321Y59283845D01*
X63306886Y59303934D01*
X63290230Y59347649D01*
X63282923Y59367402D01*
X63241948Y59435729D01*
X63182622Y59469809D01*
X63106552Y59468761D01*
X63100918Y59467419D01*
X63060305Y59448164D01*
X63030448Y59410625D01*
X63010055Y59350191D01*
X62997836Y59262249D01*
X62992500Y59142187D01*
X62992000Y59078302D01*
X62991752Y58977597D01*
X62990126Y58908946D01*
X62985801Y58865327D01*
X62977454Y58839718D01*
X62963765Y58825097D01*
X62943411Y58814442D01*
X62942234Y58813905D01*
X62903038Y58797333D01*
X62883619Y58791231D01*
X62880635Y58809681D01*
X62878081Y58860677D01*
X62876140Y58937692D01*
X62874997Y59034195D01*
X62874769Y59104816D01*
X62875932Y59241475D01*
X62880479Y59345149D01*
X62889999Y59421892D01*
X62906081Y59477754D01*
X62930313Y59518788D01*
X62964286Y59551046D01*
X62997833Y59573560D01*
X63078499Y59603524D01*
X63172381Y59610282D01*
X63260807Y59593218D01*
G37*
X63260807Y59593218D02*
X63284161Y59583012D01*
X63339902Y59538866D01*
X63387569Y59475033D01*
X63417048Y59406913D01*
X63421846Y59373330D01*
X63405760Y59326444D01*
X63370475Y59301635D01*
X63332644Y59286613D01*
X63315321Y59283845D01*
X63306886Y59303934D01*
X63290230Y59347649D01*
X63282923Y59367402D01*
X63241948Y59435729D01*
X63182622Y59469809D01*
X63106552Y59468761D01*
X63100918Y59467419D01*
X63060305Y59448164D01*
X63030448Y59410625D01*
X63010055Y59350191D01*
X62997836Y59262249D01*
X62992500Y59142187D01*
X62992000Y59078302D01*
X62991752Y58977597D01*
X62990126Y58908946D01*
X62985801Y58865327D01*
X62977454Y58839718D01*
X62963765Y58825097D01*
X62943411Y58814442D01*
X62942234Y58813905D01*
X62903038Y58797333D01*
X62883619Y58791231D01*
X62880635Y58809681D01*
X62878081Y58860677D01*
X62876140Y58937692D01*
X62874997Y59034195D01*
X62874769Y59104816D01*
X62875932Y59241475D01*
X62880479Y59345149D01*
X62889999Y59421892D01*
X62906081Y59477754D01*
X62930313Y59518788D01*
X62964286Y59551046D01*
X62997833Y59573560D01*
X63078499Y59603524D01*
X63172381Y59610282D01*
X63260807Y59593218D01*
G36*
X62577333Y59596472D02*
G01*
X62633590Y59570883D01*
X62677747Y59539876D01*
X62710101Y59505205D01*
X62732438Y59460480D01*
X62746546Y59399308D01*
X62754211Y59315299D01*
X62757220Y59202060D01*
X62757538Y59127491D01*
X62757538Y58836580D01*
X62707773Y58813905D01*
X62668576Y58797333D01*
X62649157Y58791231D01*
X62645442Y58809390D01*
X62642495Y58858352D01*
X62640691Y58929847D01*
X62640308Y58986615D01*
X62638661Y59068629D01*
X62634222Y59133691D01*
X62627740Y59173533D01*
X62622590Y59182000D01*
X62587977Y59173354D01*
X62533640Y59151177D01*
X62470722Y59121114D01*
X62410368Y59088808D01*
X62363721Y59059902D01*
X62341926Y59040039D01*
X62341839Y59039825D01*
X62343714Y59003065D01*
X62360525Y58967974D01*
X62390039Y58939472D01*
X62433116Y58929939D01*
X62469932Y58931050D01*
X62522074Y58931867D01*
X62549444Y58919651D01*
X62565882Y58887376D01*
X62567955Y58881290D01*
X62575081Y58835261D01*
X62556024Y58807313D01*
X62506353Y58793993D01*
X62452697Y58791530D01*
X62356142Y58809790D01*
X62306159Y58835869D01*
X62244429Y58897132D01*
X62211690Y58972330D01*
X62208753Y59051789D01*
X62236424Y59125833D01*
X62278047Y59172231D01*
X62319604Y59198207D01*
X62384922Y59231093D01*
X62461038Y59264443D01*
X62473726Y59269539D01*
X62557333Y59306435D01*
X62605530Y59338954D01*
X62621030Y59371282D01*
X62606550Y59407606D01*
X62581692Y59436000D01*
X62522939Y59470961D01*
X62458293Y59473583D01*
X62399008Y59446642D01*
X62356339Y59392912D01*
X62350739Y59379050D01*
X62318133Y59328064D01*
X62270530Y59290213D01*
X62210461Y59259150D01*
X62210461Y59347232D01*
X62213997Y59401049D01*
X62229156Y59443466D01*
X62262768Y59488721D01*
X62295035Y59523580D01*
X62345209Y59572938D01*
X62384193Y59599453D01*
X62426064Y59610089D01*
X62473460Y59611846D01*
X62577333Y59596472D01*
G37*
X62577333Y59596472D02*
X62633590Y59570883D01*
X62677747Y59539876D01*
X62710101Y59505205D01*
X62732438Y59460480D01*
X62746546Y59399308D01*
X62754211Y59315299D01*
X62757220Y59202060D01*
X62757538Y59127491D01*
X62757538Y58836580D01*
X62707773Y58813905D01*
X62668576Y58797333D01*
X62649157Y58791231D01*
X62645442Y58809390D01*
X62642495Y58858352D01*
X62640691Y58929847D01*
X62640308Y58986615D01*
X62638661Y59068629D01*
X62634222Y59133691D01*
X62627740Y59173533D01*
X62622590Y59182000D01*
X62587977Y59173354D01*
X62533640Y59151177D01*
X62470722Y59121114D01*
X62410368Y59088808D01*
X62363721Y59059902D01*
X62341926Y59040039D01*
X62341839Y59039825D01*
X62343714Y59003065D01*
X62360525Y58967974D01*
X62390039Y58939472D01*
X62433116Y58929939D01*
X62469932Y58931050D01*
X62522074Y58931867D01*
X62549444Y58919651D01*
X62565882Y58887376D01*
X62567955Y58881290D01*
X62575081Y58835261D01*
X62556024Y58807313D01*
X62506353Y58793993D01*
X62452697Y58791530D01*
X62356142Y58809790D01*
X62306159Y58835869D01*
X62244429Y58897132D01*
X62211690Y58972330D01*
X62208753Y59051789D01*
X62236424Y59125833D01*
X62278047Y59172231D01*
X62319604Y59198207D01*
X62384922Y59231093D01*
X62461038Y59264443D01*
X62473726Y59269539D01*
X62557333Y59306435D01*
X62605530Y59338954D01*
X62621030Y59371282D01*
X62606550Y59407606D01*
X62581692Y59436000D01*
X62522939Y59470961D01*
X62458293Y59473583D01*
X62399008Y59446642D01*
X62356339Y59392912D01*
X62350739Y59379050D01*
X62318133Y59328064D01*
X62270530Y59290213D01*
X62210461Y59259150D01*
X62210461Y59347232D01*
X62213997Y59401049D01*
X62229156Y59443466D01*
X62262768Y59488721D01*
X62295035Y59523580D01*
X62345209Y59572938D01*
X62384193Y59599453D01*
X62426064Y59610089D01*
X62473460Y59611846D01*
X62577333Y59596472D01*
G36*
X62085929Y59593338D02*
G01*
X62088911Y59541932D01*
X62091247Y59463808D01*
X62092749Y59365143D01*
X62093231Y59261657D01*
X62093231Y58911467D01*
X62031401Y58849637D01*
X61988793Y58811538D01*
X61951390Y58796105D01*
X61900270Y58797082D01*
X61879978Y58799567D01*
X61816554Y58806800D01*
X61764095Y58810945D01*
X61751308Y58811328D01*
X61708199Y58808824D01*
X61646544Y58802538D01*
X61622638Y58799567D01*
X61563922Y58794972D01*
X61524464Y58804954D01*
X61485338Y58835772D01*
X61471215Y58849637D01*
X61409385Y58911467D01*
X61409385Y59566497D01*
X61459150Y59589171D01*
X61502002Y59605966D01*
X61527073Y59611846D01*
X61533501Y59593264D01*
X61539509Y59541345D01*
X61544697Y59461828D01*
X61548664Y59360454D01*
X61550577Y59274808D01*
X61555923Y58937769D01*
X61602560Y58931175D01*
X61644976Y58935786D01*
X61665760Y58950713D01*
X61671570Y58978623D01*
X61676530Y59038075D01*
X61680246Y59121534D01*
X61682324Y59221468D01*
X61682624Y59272896D01*
X61682923Y59568946D01*
X61744454Y59590396D01*
X61788004Y59604980D01*
X61811694Y59611781D01*
X61812377Y59611846D01*
X61814754Y59593358D01*
X61817366Y59542094D01*
X61819995Y59464351D01*
X61822421Y59366426D01*
X61824115Y59274808D01*
X61829461Y58937769D01*
X61946692Y58937769D01*
X61952072Y59245254D01*
X61957451Y59552739D01*
X62014601Y59582293D01*
X62056797Y59602587D01*
X62081770Y59611796D01*
X62082491Y59611846D01*
X62085929Y59593338D01*
G37*
X62085929Y59593338D02*
X62088911Y59541932D01*
X62091247Y59463808D01*
X62092749Y59365143D01*
X62093231Y59261657D01*
X62093231Y58911467D01*
X62031401Y58849637D01*
X61988793Y58811538D01*
X61951390Y58796105D01*
X61900270Y58797082D01*
X61879978Y58799567D01*
X61816554Y58806800D01*
X61764095Y58810945D01*
X61751308Y58811328D01*
X61708199Y58808824D01*
X61646544Y58802538D01*
X61622638Y58799567D01*
X61563922Y58794972D01*
X61524464Y58804954D01*
X61485338Y58835772D01*
X61471215Y58849637D01*
X61409385Y58911467D01*
X61409385Y59566497D01*
X61459150Y59589171D01*
X61502002Y59605966D01*
X61527073Y59611846D01*
X61533501Y59593264D01*
X61539509Y59541345D01*
X61544697Y59461828D01*
X61548664Y59360454D01*
X61550577Y59274808D01*
X61555923Y58937769D01*
X61602560Y58931175D01*
X61644976Y58935786D01*
X61665760Y58950713D01*
X61671570Y58978623D01*
X61676530Y59038075D01*
X61680246Y59121534D01*
X61682324Y59221468D01*
X61682624Y59272896D01*
X61682923Y59568946D01*
X61744454Y59590396D01*
X61788004Y59604980D01*
X61811694Y59611781D01*
X61812377Y59611846D01*
X61814754Y59593358D01*
X61817366Y59542094D01*
X61819995Y59464351D01*
X61822421Y59366426D01*
X61824115Y59274808D01*
X61829461Y58937769D01*
X61946692Y58937769D01*
X61952072Y59245254D01*
X61957451Y59552739D01*
X62014601Y59582293D01*
X62056797Y59602587D01*
X62081770Y59611796D01*
X62082491Y59611846D01*
X62085929Y59593338D01*
G36*
X61292081Y59449711D02*
G01*
X61291833Y59303680D01*
X61290872Y59191345D01*
X61288794Y59107322D01*
X61285193Y59046231D01*
X61279665Y59002691D01*
X61271804Y58971321D01*
X61261207Y58946738D01*
X61253182Y58932706D01*
X61186728Y58856612D01*
X61102470Y58808916D01*
X61009249Y58791801D01*
X60915900Y58807454D01*
X60860312Y58835582D01*
X60801957Y58884240D01*
X60762186Y58943667D01*
X60738190Y59021493D01*
X60727161Y59125348D01*
X60725599Y59201538D01*
X60725809Y59207014D01*
X60862308Y59207014D01*
X60863141Y59119645D01*
X60866961Y59061808D01*
X60875746Y59023971D01*
X60891474Y58996602D01*
X60910266Y58975958D01*
X60973375Y58936110D01*
X61041137Y58932705D01*
X61105179Y58965975D01*
X61110164Y58970483D01*
X61131439Y58993933D01*
X61144779Y59021834D01*
X61152001Y59063359D01*
X61154923Y59127684D01*
X61155385Y59198800D01*
X61154383Y59288142D01*
X61150238Y59347742D01*
X61141236Y59386911D01*
X61125667Y59414960D01*
X61112902Y59429856D01*
X61053600Y59467425D01*
X60985301Y59471943D01*
X60920110Y59443247D01*
X60907528Y59432594D01*
X60886111Y59408937D01*
X60872744Y59380749D01*
X60865566Y59338755D01*
X60862719Y59273681D01*
X60862308Y59207014D01*
X60725809Y59207014D01*
X60730322Y59324235D01*
X60746362Y59416423D01*
X60776528Y59485731D01*
X60823629Y59539789D01*
X60860312Y59567495D01*
X60926990Y59597428D01*
X61004272Y59611322D01*
X61076110Y59607603D01*
X61116308Y59592600D01*
X61132082Y59588330D01*
X61142550Y59604250D01*
X61149856Y59646911D01*
X61155385Y59711894D01*
X61161437Y59784268D01*
X61169844Y59827813D01*
X61185141Y59852713D01*
X61211864Y59869155D01*
X61228654Y59876436D01*
X61292154Y59903037D01*
X61292081Y59449711D01*
G37*
X61292081Y59449711D02*
X61291833Y59303680D01*
X61290872Y59191345D01*
X61288794Y59107322D01*
X61285193Y59046231D01*
X61279665Y59002691D01*
X61271804Y58971321D01*
X61261207Y58946738D01*
X61253182Y58932706D01*
X61186728Y58856612D01*
X61102470Y58808916D01*
X61009249Y58791801D01*
X60915900Y58807454D01*
X60860312Y58835582D01*
X60801957Y58884240D01*
X60762186Y58943667D01*
X60738190Y59021493D01*
X60727161Y59125348D01*
X60725599Y59201538D01*
X60725809Y59207014D01*
X60862308Y59207014D01*
X60863141Y59119645D01*
X60866961Y59061808D01*
X60875746Y59023971D01*
X60891474Y58996602D01*
X60910266Y58975958D01*
X60973375Y58936110D01*
X61041137Y58932705D01*
X61105179Y58965975D01*
X61110164Y58970483D01*
X61131439Y58993933D01*
X61144779Y59021834D01*
X61152001Y59063359D01*
X61154923Y59127684D01*
X61155385Y59198800D01*
X61154383Y59288142D01*
X61150238Y59347742D01*
X61141236Y59386911D01*
X61125667Y59414960D01*
X61112902Y59429856D01*
X61053600Y59467425D01*
X60985301Y59471943D01*
X60920110Y59443247D01*
X60907528Y59432594D01*
X60886111Y59408937D01*
X60872744Y59380749D01*
X60865566Y59338755D01*
X60862719Y59273681D01*
X60862308Y59207014D01*
X60725809Y59207014D01*
X60730322Y59324235D01*
X60746362Y59416423D01*
X60776528Y59485731D01*
X60823629Y59539789D01*
X60860312Y59567495D01*
X60926990Y59597428D01*
X61004272Y59611322D01*
X61076110Y59607603D01*
X61116308Y59592600D01*
X61132082Y59588330D01*
X61142550Y59604250D01*
X61149856Y59646911D01*
X61155385Y59711894D01*
X61161437Y59784268D01*
X61169844Y59827813D01*
X61185141Y59852713D01*
X61211864Y59869155D01*
X61228654Y59876436D01*
X61292154Y59903037D01*
X61292081Y59449711D01*
G36*
X60403362Y59605330D02*
G01*
X60492117Y59572579D01*
X60564022Y59514650D01*
X60592144Y59473872D01*
X60622802Y59399046D01*
X60622165Y59344942D01*
X60589987Y59308554D01*
X60578081Y59302367D01*
X60526675Y59283075D01*
X60500422Y59288018D01*
X60491530Y59320413D01*
X60491077Y59338308D01*
X60474797Y59404141D01*
X60432365Y59450193D01*
X60373388Y59472436D01*
X60307475Y59466839D01*
X60253895Y59437771D01*
X60235798Y59421190D01*
X60222971Y59401075D01*
X60214306Y59370668D01*
X60208696Y59323212D01*
X60205035Y59251950D01*
X60202215Y59150125D01*
X60201484Y59117885D01*
X60198820Y59007590D01*
X60195792Y58929964D01*
X60191250Y58878604D01*
X60184046Y58847110D01*
X60173033Y58829080D01*
X60157060Y58818112D01*
X60146834Y58813267D01*
X60103406Y58796699D01*
X60077842Y58791231D01*
X60069395Y58809493D01*
X60064239Y58864704D01*
X60062346Y58957501D01*
X60063689Y59088522D01*
X60064107Y59108731D01*
X60067058Y59228267D01*
X60070548Y59315551D01*
X60075514Y59377409D01*
X60082893Y59420664D01*
X60093624Y59452140D01*
X60108645Y59478661D01*
X60116502Y59490025D01*
X60161553Y59540308D01*
X60211940Y59579419D01*
X60218108Y59582833D01*
X60308458Y59609788D01*
X60403362Y59605330D01*
G37*
X60403362Y59605330D02*
X60492117Y59572579D01*
X60564022Y59514650D01*
X60592144Y59473872D01*
X60622802Y59399046D01*
X60622165Y59344942D01*
X60589987Y59308554D01*
X60578081Y59302367D01*
X60526675Y59283075D01*
X60500422Y59288018D01*
X60491530Y59320413D01*
X60491077Y59338308D01*
X60474797Y59404141D01*
X60432365Y59450193D01*
X60373388Y59472436D01*
X60307475Y59466839D01*
X60253895Y59437771D01*
X60235798Y59421190D01*
X60222971Y59401075D01*
X60214306Y59370668D01*
X60208696Y59323212D01*
X60205035Y59251950D01*
X60202215Y59150125D01*
X60201484Y59117885D01*
X60198820Y59007590D01*
X60195792Y58929964D01*
X60191250Y58878604D01*
X60184046Y58847110D01*
X60173033Y58829080D01*
X60157060Y58818112D01*
X60146834Y58813267D01*
X60103406Y58796699D01*
X60077842Y58791231D01*
X60069395Y58809493D01*
X60064239Y58864704D01*
X60062346Y58957501D01*
X60063689Y59088522D01*
X60064107Y59108731D01*
X60067058Y59228267D01*
X60070548Y59315551D01*
X60075514Y59377409D01*
X60082893Y59420664D01*
X60093624Y59452140D01*
X60108645Y59478661D01*
X60116502Y59490025D01*
X60161553Y59540308D01*
X60211940Y59579419D01*
X60218108Y59582833D01*
X60308458Y59609788D01*
X60403362Y59605330D01*
G36*
X59743501Y59603697D02*
G01*
X59820060Y59575267D01*
X59820936Y59574721D01*
X59868285Y59539873D01*
X59903241Y59499148D01*
X59927825Y59446075D01*
X59944062Y59374186D01*
X59953975Y59277008D01*
X59959586Y59148072D01*
X59960077Y59129702D01*
X59967141Y58852713D01*
X59907695Y58821972D01*
X59864681Y58801198D01*
X59838710Y58791354D01*
X59837509Y58791231D01*
X59833014Y58809394D01*
X59829444Y58858388D01*
X59827248Y58929969D01*
X59826769Y58987932D01*
X59826758Y59081830D01*
X59822466Y59140797D01*
X59807503Y59168921D01*
X59775482Y59170294D01*
X59720014Y59149002D01*
X59636269Y59109864D01*
X59574689Y59077357D01*
X59543017Y59049155D01*
X59533706Y59018418D01*
X59533692Y59016896D01*
X59549057Y58963946D01*
X59594547Y58935340D01*
X59664166Y58931197D01*
X59714313Y58931916D01*
X59740754Y58917473D01*
X59757243Y58882782D01*
X59766733Y58838584D01*
X59753057Y58813507D01*
X59747907Y58809918D01*
X59699425Y58795504D01*
X59631531Y58793463D01*
X59561612Y58803017D01*
X59512068Y58820478D01*
X59443570Y58878636D01*
X59404634Y58959592D01*
X59396923Y59022840D01*
X59402807Y59079889D01*
X59424101Y59126458D01*
X59466265Y59167819D01*
X59534759Y59209245D01*
X59635044Y59256007D01*
X59641154Y59258650D01*
X59731490Y59300383D01*
X59787235Y59334609D01*
X59811129Y59365365D01*
X59805913Y59396689D01*
X59774328Y59432617D01*
X59764883Y59440884D01*
X59701617Y59472942D01*
X59636064Y59471593D01*
X59578972Y59440162D01*
X59541093Y59381976D01*
X59537574Y59370554D01*
X59503300Y59315163D01*
X59459809Y59288482D01*
X59396923Y59262040D01*
X59396923Y59330452D01*
X59416052Y59429890D01*
X59472831Y59521098D01*
X59502378Y59551611D01*
X59569542Y59590772D01*
X59654956Y59608500D01*
X59743501Y59603697D01*
G37*
X59743501Y59603697D02*
X59820060Y59575267D01*
X59820936Y59574721D01*
X59868285Y59539873D01*
X59903241Y59499148D01*
X59927825Y59446075D01*
X59944062Y59374186D01*
X59953975Y59277008D01*
X59959586Y59148072D01*
X59960077Y59129702D01*
X59967141Y58852713D01*
X59907695Y58821972D01*
X59864681Y58801198D01*
X59838710Y58791354D01*
X59837509Y58791231D01*
X59833014Y58809394D01*
X59829444Y58858388D01*
X59827248Y58929969D01*
X59826769Y58987932D01*
X59826758Y59081830D01*
X59822466Y59140797D01*
X59807503Y59168921D01*
X59775482Y59170294D01*
X59720014Y59149002D01*
X59636269Y59109864D01*
X59574689Y59077357D01*
X59543017Y59049155D01*
X59533706Y59018418D01*
X59533692Y59016896D01*
X59549057Y58963946D01*
X59594547Y58935340D01*
X59664166Y58931197D01*
X59714313Y58931916D01*
X59740754Y58917473D01*
X59757243Y58882782D01*
X59766733Y58838584D01*
X59753057Y58813507D01*
X59747907Y58809918D01*
X59699425Y58795504D01*
X59631531Y58793463D01*
X59561612Y58803017D01*
X59512068Y58820478D01*
X59443570Y58878636D01*
X59404634Y58959592D01*
X59396923Y59022840D01*
X59402807Y59079889D01*
X59424101Y59126458D01*
X59466265Y59167819D01*
X59534759Y59209245D01*
X59635044Y59256007D01*
X59641154Y59258650D01*
X59731490Y59300383D01*
X59787235Y59334609D01*
X59811129Y59365365D01*
X59805913Y59396689D01*
X59774328Y59432617D01*
X59764883Y59440884D01*
X59701617Y59472942D01*
X59636064Y59471593D01*
X59578972Y59440162D01*
X59541093Y59381976D01*
X59537574Y59370554D01*
X59503300Y59315163D01*
X59459809Y59288482D01*
X59396923Y59262040D01*
X59396923Y59330452D01*
X59416052Y59429890D01*
X59472831Y59521098D01*
X59502378Y59551611D01*
X59569542Y59590772D01*
X59654956Y59608500D01*
X59743501Y59603697D01*
G36*
X58849846Y59737880D02*
G01*
X58855572Y59658020D01*
X58862149Y59610961D01*
X58871262Y59590434D01*
X58884598Y59590171D01*
X58888923Y59592622D01*
X58946444Y59610364D01*
X59021268Y59609328D01*
X59097339Y59591090D01*
X59144918Y59567495D01*
X59193702Y59529802D01*
X59229364Y59487145D01*
X59253845Y59432943D01*
X59269087Y59360616D01*
X59277030Y59263581D01*
X59279616Y59135258D01*
X59279662Y59110642D01*
X59279692Y58834130D01*
X59218161Y58812680D01*
X59174459Y58798088D01*
X59150482Y58791294D01*
X59149777Y58791231D01*
X59147415Y58809655D01*
X59145406Y58860474D01*
X59143901Y58937007D01*
X59143053Y59032570D01*
X59142923Y59090671D01*
X59142651Y59205229D01*
X59141252Y59287333D01*
X59137849Y59343607D01*
X59131567Y59380674D01*
X59121529Y59405156D01*
X59106861Y59423675D01*
X59097702Y59432594D01*
X59034789Y59468534D01*
X58966136Y59471225D01*
X58903848Y59440830D01*
X58892329Y59429856D01*
X58875433Y59409221D01*
X58863714Y59384744D01*
X58856233Y59349353D01*
X58852054Y59295974D01*
X58850237Y59217534D01*
X58849846Y59109383D01*
X58849846Y58834130D01*
X58788315Y58812680D01*
X58744613Y58798088D01*
X58720636Y58791294D01*
X58719930Y58791231D01*
X58718126Y58809931D01*
X58716500Y58862678D01*
X58715117Y58944443D01*
X58714042Y59050195D01*
X58713340Y59174906D01*
X58713077Y59313545D01*
X58713077Y59848194D01*
X58840077Y59901764D01*
X58849846Y59737880D01*
G37*
X58849846Y59737880D02*
X58855572Y59658020D01*
X58862149Y59610961D01*
X58871262Y59590434D01*
X58884598Y59590171D01*
X58888923Y59592622D01*
X58946444Y59610364D01*
X59021268Y59609328D01*
X59097339Y59591090D01*
X59144918Y59567495D01*
X59193702Y59529802D01*
X59229364Y59487145D01*
X59253845Y59432943D01*
X59269087Y59360616D01*
X59277030Y59263581D01*
X59279616Y59135258D01*
X59279662Y59110642D01*
X59279692Y58834130D01*
X59218161Y58812680D01*
X59174459Y58798088D01*
X59150482Y58791294D01*
X59149777Y58791231D01*
X59147415Y58809655D01*
X59145406Y58860474D01*
X59143901Y58937007D01*
X59143053Y59032570D01*
X59142923Y59090671D01*
X59142651Y59205229D01*
X59141252Y59287333D01*
X59137849Y59343607D01*
X59131567Y59380674D01*
X59121529Y59405156D01*
X59106861Y59423675D01*
X59097702Y59432594D01*
X59034789Y59468534D01*
X58966136Y59471225D01*
X58903848Y59440830D01*
X58892329Y59429856D01*
X58875433Y59409221D01*
X58863714Y59384744D01*
X58856233Y59349353D01*
X58852054Y59295974D01*
X58850237Y59217534D01*
X58849846Y59109383D01*
X58849846Y58834130D01*
X58788315Y58812680D01*
X58744613Y58798088D01*
X58720636Y58791294D01*
X58719930Y58791231D01*
X58718126Y58809931D01*
X58716500Y58862678D01*
X58715117Y58944443D01*
X58714042Y59050195D01*
X58713340Y59174906D01*
X58713077Y59313545D01*
X58713077Y59848194D01*
X58840077Y59901764D01*
X58849846Y59737880D01*
G36*
X57224254Y59630255D02*
G01*
X57301286Y59578433D01*
X57360816Y59503588D01*
X57396378Y59408346D01*
X57403571Y59338244D01*
X57402754Y59308991D01*
X57395914Y59286593D01*
X57377112Y59266526D01*
X57340408Y59244267D01*
X57279862Y59215291D01*
X57189534Y59175073D01*
X57189077Y59174871D01*
X57105933Y59136790D01*
X57037753Y59102975D01*
X56991505Y59077067D01*
X56974158Y59062705D01*
X56974154Y59062589D01*
X56989443Y59031315D01*
X57025196Y58996843D01*
X57066242Y58972010D01*
X57087037Y58967077D01*
X57143770Y58984138D01*
X57192627Y59026867D01*
X57216465Y59073845D01*
X57239397Y59108478D01*
X57284318Y59147919D01*
X57337123Y59181991D01*
X57383710Y59200520D01*
X57393452Y59201538D01*
X57404418Y59184785D01*
X57405079Y59141961D01*
X57397020Y59084219D01*
X57381827Y59022711D01*
X57361086Y58968591D01*
X57360038Y58966490D01*
X57297621Y58879340D01*
X57216726Y58820061D01*
X57124856Y58790966D01*
X57029513Y58794366D01*
X56938198Y58832572D01*
X56934138Y58835259D01*
X56862306Y58900358D01*
X56815073Y58985295D01*
X56788934Y59096979D01*
X56785426Y59128357D01*
X56779213Y59276464D01*
X56786661Y59345532D01*
X56974154Y59345532D01*
X56976590Y59302448D01*
X56989914Y59289874D01*
X57023132Y59299281D01*
X57075494Y59321517D01*
X57134024Y59349390D01*
X57135479Y59350128D01*
X57185089Y59376223D01*
X57205000Y59393637D01*
X57200090Y59411893D01*
X57179416Y59435880D01*
X57126819Y59470594D01*
X57070177Y59473144D01*
X57019369Y59447881D01*
X56984276Y59399153D01*
X56974154Y59345532D01*
X56786661Y59345532D01*
X56791992Y59394964D01*
X56824778Y59488945D01*
X56870421Y59554785D01*
X56952802Y59621319D01*
X57043546Y59654324D01*
X57136185Y59656427D01*
X57224254Y59630255D01*
G37*
X57224254Y59630255D02*
X57301286Y59578433D01*
X57360816Y59503588D01*
X57396378Y59408346D01*
X57403571Y59338244D01*
X57402754Y59308991D01*
X57395914Y59286593D01*
X57377112Y59266526D01*
X57340408Y59244267D01*
X57279862Y59215291D01*
X57189534Y59175073D01*
X57189077Y59174871D01*
X57105933Y59136790D01*
X57037753Y59102975D01*
X56991505Y59077067D01*
X56974158Y59062705D01*
X56974154Y59062589D01*
X56989443Y59031315D01*
X57025196Y58996843D01*
X57066242Y58972010D01*
X57087037Y58967077D01*
X57143770Y58984138D01*
X57192627Y59026867D01*
X57216465Y59073845D01*
X57239397Y59108478D01*
X57284318Y59147919D01*
X57337123Y59181991D01*
X57383710Y59200520D01*
X57393452Y59201538D01*
X57404418Y59184785D01*
X57405079Y59141961D01*
X57397020Y59084219D01*
X57381827Y59022711D01*
X57361086Y58968591D01*
X57360038Y58966490D01*
X57297621Y58879340D01*
X57216726Y58820061D01*
X57124856Y58790966D01*
X57029513Y58794366D01*
X56938198Y58832572D01*
X56934138Y58835259D01*
X56862306Y58900358D01*
X56815073Y58985295D01*
X56788934Y59096979D01*
X56785426Y59128357D01*
X56779213Y59276464D01*
X56786661Y59345532D01*
X56974154Y59345532D01*
X56976590Y59302448D01*
X56989914Y59289874D01*
X57023132Y59299281D01*
X57075494Y59321517D01*
X57134024Y59349390D01*
X57135479Y59350128D01*
X57185089Y59376223D01*
X57205000Y59393637D01*
X57200090Y59411893D01*
X57179416Y59435880D01*
X57126819Y59470594D01*
X57070177Y59473144D01*
X57019369Y59447881D01*
X56984276Y59399153D01*
X56974154Y59345532D01*
X56786661Y59345532D01*
X56791992Y59394964D01*
X56824778Y59488945D01*
X56870421Y59554785D01*
X56952802Y59621319D01*
X57043546Y59654324D01*
X57136185Y59656427D01*
X57224254Y59630255D01*
G36*
X55706886Y59642744D02*
G01*
X55798464Y59594591D01*
X55866049Y59517095D01*
X55890057Y59467273D01*
X55908738Y59392467D01*
X55918301Y59297948D01*
X55919208Y59194790D01*
X55911921Y59094065D01*
X55896903Y59006847D01*
X55874615Y58944209D01*
X55867765Y58933421D01*
X55786632Y58852895D01*
X55690266Y58804664D01*
X55585701Y58790550D01*
X55479968Y58812371D01*
X55450543Y58825453D01*
X55393241Y58865769D01*
X55342950Y58919225D01*
X55338197Y58926005D01*
X55318878Y58958679D01*
X55306108Y58993606D01*
X55298564Y59039586D01*
X55294924Y59105416D01*
X55293865Y59199895D01*
X55293846Y59221077D01*
X55293894Y59227818D01*
X55489231Y59227818D01*
X55490368Y59138651D01*
X55494841Y59079480D01*
X55504246Y59041259D01*
X55520176Y59014947D01*
X55528308Y59006154D01*
X55575058Y58972739D01*
X55620447Y58974263D01*
X55666340Y59003248D01*
X55693712Y59034191D01*
X55709923Y59079357D01*
X55719026Y59150580D01*
X55719651Y59158886D01*
X55721204Y59287963D01*
X55704965Y59383828D01*
X55671152Y59445893D01*
X55619984Y59473568D01*
X55601720Y59475077D01*
X55553760Y59467487D01*
X55520953Y59441192D01*
X55500895Y59390905D01*
X55491178Y59311336D01*
X55489231Y59227818D01*
X55293894Y59227818D01*
X55294574Y59321751D01*
X55297629Y59392094D01*
X55304322Y59440837D01*
X55315960Y59476712D01*
X55333853Y59508452D01*
X55337808Y59514352D01*
X55404267Y59593896D01*
X55476685Y59640071D01*
X55564849Y59658401D01*
X55594787Y59659297D01*
X55706886Y59642744D01*
G37*
X55706886Y59642744D02*
X55798464Y59594591D01*
X55866049Y59517095D01*
X55890057Y59467273D01*
X55908738Y59392467D01*
X55918301Y59297948D01*
X55919208Y59194790D01*
X55911921Y59094065D01*
X55896903Y59006847D01*
X55874615Y58944209D01*
X55867765Y58933421D01*
X55786632Y58852895D01*
X55690266Y58804664D01*
X55585701Y58790550D01*
X55479968Y58812371D01*
X55450543Y58825453D01*
X55393241Y58865769D01*
X55342950Y58919225D01*
X55338197Y58926005D01*
X55318878Y58958679D01*
X55306108Y58993606D01*
X55298564Y59039586D01*
X55294924Y59105416D01*
X55293865Y59199895D01*
X55293846Y59221077D01*
X55293894Y59227818D01*
X55489231Y59227818D01*
X55490368Y59138651D01*
X55494841Y59079480D01*
X55504246Y59041259D01*
X55520176Y59014947D01*
X55528308Y59006154D01*
X55575058Y58972739D01*
X55620447Y58974263D01*
X55666340Y59003248D01*
X55693712Y59034191D01*
X55709923Y59079357D01*
X55719026Y59150580D01*
X55719651Y59158886D01*
X55721204Y59287963D01*
X55704965Y59383828D01*
X55671152Y59445893D01*
X55619984Y59473568D01*
X55601720Y59475077D01*
X55553760Y59467487D01*
X55520953Y59441192D01*
X55500895Y59390905D01*
X55491178Y59311336D01*
X55489231Y59227818D01*
X55293894Y59227818D01*
X55294574Y59321751D01*
X55297629Y59392094D01*
X55304322Y59440837D01*
X55315960Y59476712D01*
X55333853Y59508452D01*
X55337808Y59514352D01*
X55404267Y59593896D01*
X55476685Y59640071D01*
X55564849Y59658401D01*
X55594787Y59659297D01*
X55706886Y59642744D01*
G36*
X57961664Y59634911D02*
G01*
X58024367Y59598642D01*
X58067961Y59562642D01*
X58099845Y59524925D01*
X58121810Y59478801D01*
X58135649Y59417579D01*
X58143153Y59334569D01*
X58146117Y59223081D01*
X58146461Y59142938D01*
X58146461Y58847935D01*
X57980385Y58773485D01*
X57970615Y59096598D01*
X57966579Y59217271D01*
X57962344Y59304859D01*
X57957097Y59365350D01*
X57950025Y59404732D01*
X57940311Y59428993D01*
X57927144Y59444120D01*
X57922919Y59447394D01*
X57858909Y59472966D01*
X57794208Y59462847D01*
X57755692Y59436000D01*
X57740025Y59416976D01*
X57729180Y59392012D01*
X57722288Y59354166D01*
X57718479Y59296498D01*
X57716883Y59212065D01*
X57716615Y59124072D01*
X57716563Y59013677D01*
X57714672Y58935537D01*
X57708345Y58882835D01*
X57694983Y58848758D01*
X57671985Y58826489D01*
X57636754Y58809213D01*
X57589697Y58791262D01*
X57538303Y58771722D01*
X57544421Y59118515D01*
X57546884Y59243532D01*
X57549767Y59335918D01*
X57553898Y59402119D01*
X57560107Y59448580D01*
X57569226Y59481744D01*
X57582083Y59508056D01*
X57597584Y59531271D01*
X57672371Y59605431D01*
X57763628Y59648316D01*
X57862883Y59658588D01*
X57961664Y59634911D01*
G37*
X57961664Y59634911D02*
X58024367Y59598642D01*
X58067961Y59562642D01*
X58099845Y59524925D01*
X58121810Y59478801D01*
X58135649Y59417579D01*
X58143153Y59334569D01*
X58146117Y59223081D01*
X58146461Y59142938D01*
X58146461Y58847935D01*
X57980385Y58773485D01*
X57970615Y59096598D01*
X57966579Y59217271D01*
X57962344Y59304859D01*
X57957097Y59365350D01*
X57950025Y59404732D01*
X57940311Y59428993D01*
X57927144Y59444120D01*
X57922919Y59447394D01*
X57858909Y59472966D01*
X57794208Y59462847D01*
X57755692Y59436000D01*
X57740025Y59416976D01*
X57729180Y59392012D01*
X57722288Y59354166D01*
X57718479Y59296498D01*
X57716883Y59212065D01*
X57716615Y59124072D01*
X57716563Y59013677D01*
X57714672Y58935537D01*
X57708345Y58882835D01*
X57694983Y58848758D01*
X57671985Y58826489D01*
X57636754Y58809213D01*
X57589697Y58791262D01*
X57538303Y58771722D01*
X57544421Y59118515D01*
X57546884Y59243532D01*
X57549767Y59335918D01*
X57553898Y59402119D01*
X57560107Y59448580D01*
X57569226Y59481744D01*
X57582083Y59508056D01*
X57597584Y59531271D01*
X57672371Y59605431D01*
X57763628Y59648316D01*
X57862883Y59658588D01*
X57961664Y59634911D01*
G36*
X56458886Y59645495D02*
G01*
X56533539Y59608273D01*
X56599431Y59539739D01*
X56617577Y59514352D01*
X56637345Y59481134D01*
X56650172Y59445055D01*
X56657510Y59396902D01*
X56660813Y59327464D01*
X56661538Y59235794D01*
X56658263Y59110170D01*
X56646877Y59015846D01*
X56625041Y58945477D01*
X56590419Y58891714D01*
X56540670Y58847212D01*
X56537014Y58844577D01*
X56487985Y58817623D01*
X56428945Y58804288D01*
X56353859Y58801000D01*
X56231795Y58801000D01*
X56231744Y58682503D01*
X56230608Y58616508D01*
X56223686Y58577798D01*
X56205598Y58554581D01*
X56170962Y58535067D01*
X56162645Y58531080D01*
X56123720Y58512397D01*
X56093583Y58500597D01*
X56071174Y58499578D01*
X56055433Y58513239D01*
X56045302Y58545478D01*
X56039723Y58600196D01*
X56037635Y58681289D01*
X56037981Y58792656D01*
X56039700Y58938198D01*
X56040237Y58981731D01*
X56042172Y59131795D01*
X56043904Y59229958D01*
X56231692Y59229958D01*
X56232748Y59146636D01*
X56237438Y59092120D01*
X56248051Y59056163D01*
X56266872Y59028518D01*
X56279650Y59015035D01*
X56331890Y58975583D01*
X56378142Y58972372D01*
X56425867Y59004951D01*
X56427077Y59006154D01*
X56446494Y59031332D01*
X56458307Y59065553D01*
X56464265Y59118252D01*
X56466120Y59198869D01*
X56466154Y59216729D01*
X56461670Y59327825D01*
X56447074Y59404839D01*
X56420650Y59451853D01*
X56380683Y59472950D01*
X56357584Y59475077D01*
X56302762Y59465100D01*
X56265158Y59432248D01*
X56242523Y59372143D01*
X56232606Y59280402D01*
X56231692Y59229958D01*
X56043904Y59229958D01*
X56044222Y59247940D01*
X56046873Y59335321D01*
X56050606Y59399095D01*
X56055907Y59444418D01*
X56063258Y59476445D01*
X56073143Y59500332D01*
X56086046Y59521236D01*
X56091579Y59529102D01*
X56164969Y59603405D01*
X56257760Y59645533D01*
X56365096Y59657278D01*
X56458886Y59645495D01*
G37*
X56458886Y59645495D02*
X56533539Y59608273D01*
X56599431Y59539739D01*
X56617577Y59514352D01*
X56637345Y59481134D01*
X56650172Y59445055D01*
X56657510Y59396902D01*
X56660813Y59327464D01*
X56661538Y59235794D01*
X56658263Y59110170D01*
X56646877Y59015846D01*
X56625041Y58945477D01*
X56590419Y58891714D01*
X56540670Y58847212D01*
X56537014Y58844577D01*
X56487985Y58817623D01*
X56428945Y58804288D01*
X56353859Y58801000D01*
X56231795Y58801000D01*
X56231744Y58682503D01*
X56230608Y58616508D01*
X56223686Y58577798D01*
X56205598Y58554581D01*
X56170962Y58535067D01*
X56162645Y58531080D01*
X56123720Y58512397D01*
X56093583Y58500597D01*
X56071174Y58499578D01*
X56055433Y58513239D01*
X56045302Y58545478D01*
X56039723Y58600196D01*
X56037635Y58681289D01*
X56037981Y58792656D01*
X56039700Y58938198D01*
X56040237Y58981731D01*
X56042172Y59131795D01*
X56043904Y59229958D01*
X56231692Y59229958D01*
X56232748Y59146636D01*
X56237438Y59092120D01*
X56248051Y59056163D01*
X56266872Y59028518D01*
X56279650Y59015035D01*
X56331890Y58975583D01*
X56378142Y58972372D01*
X56425867Y59004951D01*
X56427077Y59006154D01*
X56446494Y59031332D01*
X56458307Y59065553D01*
X56464265Y59118252D01*
X56466120Y59198869D01*
X56466154Y59216729D01*
X56461670Y59327825D01*
X56447074Y59404839D01*
X56420650Y59451853D01*
X56380683Y59472950D01*
X56357584Y59475077D01*
X56302762Y59465100D01*
X56265158Y59432248D01*
X56242523Y59372143D01*
X56232606Y59280402D01*
X56231692Y59229958D01*
X56043904Y59229958D01*
X56044222Y59247940D01*
X56046873Y59335321D01*
X56050606Y59399095D01*
X56055907Y59444418D01*
X56063258Y59476445D01*
X56073143Y59500332D01*
X56086046Y59521236D01*
X56091579Y59529102D01*
X56164969Y59603405D01*
X56257760Y59645533D01*
X56365096Y59657278D01*
X56458886Y59645495D01*
D13*
X62524640Y32301180D02*
X62524640Y42461180D01*
X54904640Y32301180D02*
X62524640Y32301180D01*
X54904640Y42461180D02*
X54904640Y32301180D01*
X62524640Y42461180D02*
X54904640Y42461180D01*
X61254640Y42461180D02*
X61254640Y32301180D01*
X58170000Y25560000D02*
G75*
G03X58170000Y25560000I-3270000J0D01*
G01*
X36730000Y25590000D02*
G75*
G03X36730000Y25590000I-3270000J0D01*
G01*
X51699260Y66975940D02*
X51699260Y69585940D01*
X53069260Y65605940D02*
G75*
G03X53069260Y65605940I-1370000J0D01*
G01*
X27950260Y66721940D02*
X27950260Y69331940D01*
X29320260Y65351940D02*
G75*
G03X29320260Y65351940I-1370000J0D01*
G01*
X36840260Y66467940D02*
X36840260Y69077940D01*
X38210260Y65097940D02*
G75*
G03X38210260Y65097940I-1370000J0D01*
G01*
X24140260Y66975940D02*
X24140260Y69585940D01*
X25510260Y65605940D02*
G75*
G03X25510260Y65605940I-1370000J0D01*
G01*
X6290000Y2680000D02*
X6290000Y4010000D01*
X7620000Y2680000D02*
X6290000Y2680000D01*
X8890000Y2680000D02*
X8890000Y5340000D01*
X8890000Y5340000D02*
X16570000Y5340000D01*
X8890000Y2680000D02*
X16570000Y2680000D01*
X16570000Y2680000D02*
X16570000Y5340000D01*
X49586840Y2761940D02*
X49586840Y4091940D01*
X50916840Y2761940D02*
X49586840Y2761940D01*
X52186840Y2761940D02*
X52186840Y5421940D01*
X52186840Y5421940D02*
X59866840Y5421940D01*
X52186840Y2761940D02*
X59866840Y2761940D01*
X59866840Y2761940D02*
X59866840Y5421940D01*
X14129060Y75454820D02*
X14129060Y74124820D01*
X12799060Y75454820D02*
X14129060Y75454820D01*
X11529060Y75454820D02*
X11529060Y72794820D01*
X11529060Y72794820D02*
X8929060Y72794820D01*
X11529060Y75454820D02*
X8929060Y75454820D01*
X8929060Y75454820D02*
X8929060Y72794820D01*
X3094680Y69081960D02*
X4424680Y69081960D01*
X3094680Y67751960D02*
X3094680Y69081960D01*
X3094680Y66481960D02*
X5754680Y66481960D01*
X5754680Y66481960D02*
X5754680Y63881960D01*
X3094680Y66481960D02*
X3094680Y63881960D01*
X3094680Y63881960D02*
X5754680Y63881960D01*
X28350000Y2710000D02*
X28350000Y4040000D01*
X29680000Y2710000D02*
X28350000Y2710000D01*
X30950000Y2710000D02*
X30950000Y5370000D01*
X30950000Y5370000D02*
X38630000Y5370000D01*
X30950000Y2710000D02*
X38630000Y2710000D01*
X38630000Y2710000D02*
X38630000Y5370000D01*
X17637480Y28561440D02*
X18967480Y28561440D01*
X18967480Y28561440D02*
X18967480Y27231440D01*
X18967480Y25961440D02*
X18967480Y8121440D01*
X16307480Y8121440D02*
X18967480Y8121440D01*
X16307480Y25961440D02*
X16307480Y8121440D01*
X16307480Y25961440D02*
X18967480Y25961440D01*
X23644000Y75483040D02*
X23644000Y74153040D01*
X22314000Y75483040D02*
X23644000Y75483040D01*
X21044000Y75483040D02*
X21044000Y72823040D01*
X21044000Y72823040D02*
X18444000Y72823040D01*
X21044000Y75483040D02*
X18444000Y75483040D01*
X18444000Y75483040D02*
X18444000Y72823040D01*
X33084560Y72772240D02*
X33084560Y74102240D01*
X34414560Y72772240D02*
X33084560Y72772240D01*
X35684560Y72772240D02*
X35684560Y75432240D01*
X35684560Y75432240D02*
X38284560Y75432240D01*
X35684560Y72772240D02*
X38284560Y72772240D01*
X38284560Y72772240D02*
X38284560Y75432240D01*
X53008940Y75554160D02*
X53008940Y74224160D01*
X51678940Y75554160D02*
X53008940Y75554160D01*
X50408940Y75554160D02*
X50408940Y72894160D01*
X50408940Y72894160D02*
X47808940Y72894160D01*
X50408940Y75554160D02*
X47808940Y75554160D01*
X47808940Y75554160D02*
X47808940Y72894160D01*
X61171600Y28427780D02*
X62501600Y28427780D01*
X62501600Y28427780D02*
X62501600Y27097780D01*
X62501600Y25827780D02*
X62501600Y7987780D01*
X59841600Y7987780D02*
X62501600Y7987780D01*
X59841600Y25827780D02*
X59841600Y7987780D01*
X59841600Y25827780D02*
X62501600Y25827780D01*
X25271520Y72825580D02*
X25271520Y74155580D01*
X26601520Y72825580D02*
X25271520Y72825580D01*
X27871520Y72825580D02*
X27871520Y75485580D01*
X27871520Y75485580D02*
X30471520Y75485580D01*
X27871520Y72825580D02*
X30471520Y72825580D01*
X30471520Y72825580D02*
X30471520Y75485580D01*
X39884720Y28552700D02*
X41214720Y28552700D01*
X41214720Y28552700D02*
X41214720Y27222700D01*
X41214720Y25952700D02*
X41214720Y8112700D01*
X38554720Y8112700D02*
X41214720Y8112700D01*
X38554720Y25952700D02*
X38554720Y8112700D01*
X38554720Y25952700D02*
X41214720Y25952700D01*
X60181800Y44682100D02*
X58851800Y44682100D01*
X60181800Y46012100D02*
X60181800Y44682100D01*
X60181800Y47282100D02*
X57521800Y47282100D01*
X57521800Y47282100D02*
X57521800Y49882100D01*
X60181800Y47282100D02*
X60181800Y49882100D01*
X60181800Y49882100D02*
X57521800Y49882100D01*
X4937480Y28561440D02*
X6267480Y28561440D01*
X6267480Y28561440D02*
X6267480Y27231440D01*
X6267480Y25961440D02*
X6267480Y8121440D01*
X3607480Y8121440D02*
X6267480Y8121440D01*
X3607480Y25961440D02*
X3607480Y8121440D01*
X3607480Y25961440D02*
X6267480Y25961440D01*
X51378260Y34617940D02*
X51378260Y33287940D01*
X51378260Y33287940D02*
X50048260Y33287940D01*
X48778260Y33287940D02*
X2998260Y33287940D01*
X2998260Y35947940D02*
X2998260Y33287940D01*
X48778260Y35947940D02*
X2998260Y35947940D01*
X48778260Y35947940D02*
X48778260Y33287940D01*
X48471600Y28427780D02*
X49801600Y28427780D01*
X49801600Y28427780D02*
X49801600Y27097780D01*
X49801600Y25827780D02*
X49801600Y7987780D01*
X47141600Y7987780D02*
X49801600Y7987780D01*
X47141600Y25827780D02*
X47141600Y7987780D01*
X47141600Y25827780D02*
X49801600Y25827780D01*
X27184720Y28552700D02*
X28514720Y28552700D01*
X28514720Y28552700D02*
X28514720Y27222700D01*
X28514720Y25952700D02*
X28514720Y8112700D01*
X25854720Y8112700D02*
X28514720Y8112700D01*
X25854720Y25952700D02*
X25854720Y8112700D01*
X25854720Y25952700D02*
X28514720Y25952700D01*
X51378260Y60017940D02*
X51378260Y58687940D01*
X51378260Y58687940D02*
X50048260Y58687940D01*
X48778260Y58687940D02*
X2998260Y58687940D01*
X2998260Y61347940D02*
X2998260Y58687940D01*
X48778260Y61347940D02*
X2998260Y61347940D01*
X48778260Y61347940D02*
X48778260Y58687940D01*
X45084260Y71609940D02*
X49524260Y71609940D01*
X45084260Y62969940D02*
X49524260Y62969940D01*
X49524260Y62969940D02*
X49524260Y71609940D01*
X45084260Y62969940D02*
X45084260Y71609940D01*
X30098260Y71609940D02*
X34538260Y71609940D01*
X30098260Y62969940D02*
X34538260Y62969940D01*
X34538260Y62969940D02*
X34538260Y71609940D01*
X30098260Y62969940D02*
X30098260Y71609940D01*
X38988260Y71609940D02*
X43428260Y71609940D01*
X38988260Y62969940D02*
X43428260Y62969940D01*
X43428260Y62969940D02*
X43428260Y71609940D01*
X38988260Y62969940D02*
X38988260Y71609940D01*
X17017260Y71355940D02*
X21457260Y71355940D01*
X17017260Y62715940D02*
X21457260Y62715940D01*
X21457260Y62715940D02*
X21457260Y71355940D01*
X17017260Y62715940D02*
X17017260Y71355940D01*
X14650000Y25930000D02*
G75*
G03X14650000Y25930000I-3270000J0D01*
G01*
D14*
X57654973Y21738297D02*
X57607354Y21690678D01*
X57464497Y21643059D01*
X57369259Y21643059D01*
X57226401Y21690678D01*
X57131163Y21785916D01*
X57083544Y21881154D01*
X57035925Y22071630D01*
X57035925Y22214487D01*
X57083544Y22404963D01*
X57131163Y22500201D01*
X57226401Y22595440D01*
X57369259Y22643059D01*
X57464497Y22643059D01*
X57607354Y22595440D01*
X57654973Y22547820D01*
X58035925Y22547820D02*
X58083544Y22595440D01*
X58178782Y22643059D01*
X58416878Y22643059D01*
X58512116Y22595440D01*
X58559735Y22547820D01*
X58607354Y22452582D01*
X58607354Y22357344D01*
X58559735Y22214487D01*
X57988306Y21643059D01*
X58607354Y21643059D01*
X35437733Y21295857D02*
X35390114Y21248238D01*
X35247257Y21200619D01*
X35152019Y21200619D01*
X35009161Y21248238D01*
X34913923Y21343476D01*
X34866304Y21438714D01*
X34818685Y21629190D01*
X34818685Y21772047D01*
X34866304Y21962523D01*
X34913923Y22057761D01*
X35009161Y22153000D01*
X35152019Y22200619D01*
X35247257Y22200619D01*
X35390114Y22153000D01*
X35437733Y22105380D01*
X36390114Y21200619D02*
X35818685Y21200619D01*
X36104400Y21200619D02*
X36104400Y22200619D01*
X36009161Y22057761D01*
X35913923Y21962523D01*
X35818685Y21914904D01*
X52151640Y67503082D02*
X51675450Y67169749D01*
X52151640Y66931654D02*
X51151640Y66931654D01*
X51151640Y67312606D01*
X51199260Y67407844D01*
X51246879Y67455463D01*
X51342117Y67503082D01*
X51484974Y67503082D01*
X51580212Y67455463D01*
X51627831Y67407844D01*
X51675450Y67312606D01*
X51675450Y66931654D01*
X52151640Y68455463D02*
X52151640Y67884035D01*
X52151640Y68169749D02*
X51151640Y68169749D01*
X51294498Y68074511D01*
X51389736Y67979273D01*
X51437355Y67884035D01*
X51151640Y68788797D02*
X51151640Y69407844D01*
X51532593Y69074511D01*
X51532593Y69217368D01*
X51580212Y69312606D01*
X51627831Y69360225D01*
X51723069Y69407844D01*
X51961164Y69407844D01*
X52056402Y69360225D01*
X52104021Y69312606D01*
X52151640Y69217368D01*
X52151640Y68931654D01*
X52104021Y68836416D01*
X52056402Y68788797D01*
X28402640Y67249082D02*
X27926450Y66915749D01*
X28402640Y66677654D02*
X27402640Y66677654D01*
X27402640Y67058606D01*
X27450260Y67153844D01*
X27497879Y67201463D01*
X27593117Y67249082D01*
X27735974Y67249082D01*
X27831212Y67201463D01*
X27878831Y67153844D01*
X27926450Y67058606D01*
X27926450Y66677654D01*
X28402640Y68201463D02*
X28402640Y67630035D01*
X28402640Y67915749D02*
X27402640Y67915749D01*
X27545498Y67820511D01*
X27640736Y67725273D01*
X27688355Y67630035D01*
X27497879Y68582416D02*
X27450260Y68630035D01*
X27402640Y68725273D01*
X27402640Y68963368D01*
X27450260Y69058606D01*
X27497879Y69106225D01*
X27593117Y69153844D01*
X27688355Y69153844D01*
X27831212Y69106225D01*
X28402640Y68534797D01*
X28402640Y69153844D01*
X37292640Y66995082D02*
X36816450Y66661749D01*
X37292640Y66423654D02*
X36292640Y66423654D01*
X36292640Y66804606D01*
X36340260Y66899844D01*
X36387879Y66947463D01*
X36483117Y66995082D01*
X36625974Y66995082D01*
X36721212Y66947463D01*
X36768831Y66899844D01*
X36816450Y66804606D01*
X36816450Y66423654D01*
X37292640Y67947463D02*
X37292640Y67376035D01*
X37292640Y67661749D02*
X36292640Y67661749D01*
X36435498Y67566511D01*
X36530736Y67471273D01*
X36578355Y67376035D01*
X37292640Y68899844D02*
X37292640Y68328416D01*
X37292640Y68614130D02*
X36292640Y68614130D01*
X36435498Y68518892D01*
X36530736Y68423654D01*
X36578355Y68328416D01*
X24592640Y67503082D02*
X24116450Y67169749D01*
X24592640Y66931654D02*
X23592640Y66931654D01*
X23592640Y67312606D01*
X23640260Y67407844D01*
X23687879Y67455463D01*
X23783117Y67503082D01*
X23925974Y67503082D01*
X24021212Y67455463D01*
X24068831Y67407844D01*
X24116450Y67312606D01*
X24116450Y66931654D01*
X24592640Y68455463D02*
X24592640Y67884035D01*
X24592640Y68169749D02*
X23592640Y68169749D01*
X23735498Y68074511D01*
X23830736Y67979273D01*
X23878355Y67884035D01*
X23592640Y69074511D02*
X23592640Y69169749D01*
X23640260Y69264987D01*
X23687879Y69312606D01*
X23783117Y69360225D01*
X23973593Y69407844D01*
X24211688Y69407844D01*
X24402164Y69360225D01*
X24497402Y69312606D01*
X24545021Y69264987D01*
X24592640Y69169749D01*
X24592640Y69074511D01*
X24545021Y68979273D01*
X24497402Y68931654D01*
X24402164Y68884035D01*
X24211688Y68836416D01*
X23973593Y68836416D01*
X23783117Y68884035D01*
X23687879Y68931654D01*
X23640260Y68979273D01*
X23592640Y69074511D01*
X47611402Y66447082D02*
X47659021Y66399463D01*
X47706640Y66256606D01*
X47706640Y66161368D01*
X47659021Y66018511D01*
X47563783Y65923273D01*
X47468545Y65875654D01*
X47278069Y65828035D01*
X47135212Y65828035D01*
X46944736Y65875654D01*
X46849498Y65923273D01*
X46754260Y66018511D01*
X46706640Y66161368D01*
X46706640Y66256606D01*
X46754260Y66399463D01*
X46801879Y66447082D01*
X47706640Y67399463D02*
X47706640Y66828035D01*
X47706640Y67113749D02*
X46706640Y67113749D01*
X46849498Y67018511D01*
X46944736Y66923273D01*
X46992355Y66828035D01*
X46706640Y68018511D02*
X46706640Y68113749D01*
X46754260Y68208987D01*
X46801879Y68256606D01*
X46897117Y68304225D01*
X47087593Y68351844D01*
X47325688Y68351844D01*
X47516164Y68304225D01*
X47611402Y68256606D01*
X47659021Y68208987D01*
X47706640Y68113749D01*
X47706640Y68018511D01*
X47659021Y67923273D01*
X47611402Y67875654D01*
X47516164Y67828035D01*
X47325688Y67780416D01*
X47087593Y67780416D01*
X46897117Y67828035D01*
X46801879Y67875654D01*
X46754260Y67923273D01*
X46706640Y68018511D01*
X32625402Y66923273D02*
X32673021Y66875654D01*
X32720640Y66732797D01*
X32720640Y66637559D01*
X32673021Y66494701D01*
X32577783Y66399463D01*
X32482545Y66351844D01*
X32292069Y66304225D01*
X32149212Y66304225D01*
X31958736Y66351844D01*
X31863498Y66399463D01*
X31768260Y66494701D01*
X31720640Y66637559D01*
X31720640Y66732797D01*
X31768260Y66875654D01*
X31815879Y66923273D01*
X32720640Y67399463D02*
X32720640Y67589940D01*
X32673021Y67685178D01*
X32625402Y67732797D01*
X32482545Y67828035D01*
X32292069Y67875654D01*
X31911117Y67875654D01*
X31815879Y67828035D01*
X31768260Y67780416D01*
X31720640Y67685178D01*
X31720640Y67494701D01*
X31768260Y67399463D01*
X31815879Y67351844D01*
X31911117Y67304225D01*
X32149212Y67304225D01*
X32244450Y67351844D01*
X32292069Y67399463D01*
X32339688Y67494701D01*
X32339688Y67685178D01*
X32292069Y67780416D01*
X32244450Y67828035D01*
X32149212Y67875654D01*
X41515402Y66963273D02*
X41563021Y66915654D01*
X41610640Y66772797D01*
X41610640Y66677559D01*
X41563021Y66534701D01*
X41467783Y66439463D01*
X41372545Y66391844D01*
X41182069Y66344225D01*
X41039212Y66344225D01*
X40848736Y66391844D01*
X40753498Y66439463D01*
X40658260Y66534701D01*
X40610640Y66677559D01*
X40610640Y66772797D01*
X40658260Y66915654D01*
X40705879Y66963273D01*
X41039212Y67534701D02*
X40991593Y67439463D01*
X40943974Y67391844D01*
X40848736Y67344225D01*
X40801117Y67344225D01*
X40705879Y67391844D01*
X40658260Y67439463D01*
X40610640Y67534701D01*
X40610640Y67725178D01*
X40658260Y67820416D01*
X40705879Y67868035D01*
X40801117Y67915654D01*
X40848736Y67915654D01*
X40943974Y67868035D01*
X40991593Y67820416D01*
X41039212Y67725178D01*
X41039212Y67534701D01*
X41086831Y67439463D01*
X41134450Y67391844D01*
X41229688Y67344225D01*
X41420164Y67344225D01*
X41515402Y67391844D01*
X41563021Y67439463D01*
X41610640Y67534701D01*
X41610640Y67725178D01*
X41563021Y67820416D01*
X41515402Y67868035D01*
X41420164Y67915654D01*
X41229688Y67915654D01*
X41134450Y67868035D01*
X41086831Y67820416D01*
X41039212Y67725178D01*
X19544402Y66709273D02*
X19592021Y66661654D01*
X19639640Y66518797D01*
X19639640Y66423559D01*
X19592021Y66280701D01*
X19496783Y66185463D01*
X19401545Y66137844D01*
X19211069Y66090225D01*
X19068212Y66090225D01*
X18877736Y66137844D01*
X18782498Y66185463D01*
X18687260Y66280701D01*
X18639640Y66423559D01*
X18639640Y66518797D01*
X18687260Y66661654D01*
X18734879Y66709273D01*
X18639640Y67042606D02*
X18639640Y67709273D01*
X19639640Y67280701D01*
X13773013Y21976217D02*
X13725394Y21928598D01*
X13582537Y21880979D01*
X13487299Y21880979D01*
X13344441Y21928598D01*
X13249203Y22023836D01*
X13201584Y22119074D01*
X13153965Y22309550D01*
X13153965Y22452407D01*
X13201584Y22642883D01*
X13249203Y22738121D01*
X13344441Y22833360D01*
X13487299Y22880979D01*
X13582537Y22880979D01*
X13725394Y22833360D01*
X13773013Y22785740D01*
X14106346Y22880979D02*
X14725394Y22880979D01*
X14392060Y22500026D01*
X14534918Y22500026D01*
X14630156Y22452407D01*
X14677775Y22404788D01*
X14725394Y22309550D01*
X14725394Y22071455D01*
X14677775Y21976217D01*
X14630156Y21928598D01*
X14534918Y21880979D01*
X14249203Y21880979D01*
X14153965Y21928598D01*
X14106346Y21976217D01*
M02*
