G04 #@! TF.GenerationSoftware,KiCad,Pcbnew,(5.1.5-0)*
G04 #@! TF.CreationDate,2022-07-03T13:43:41+01:00*
G04 #@! TF.ProjectId,ESP32_Cnc_Shield,45535033-325f-4436-9e63-5f536869656c,rev?*
G04 #@! TF.SameCoordinates,Original*
G04 #@! TF.FileFunction,Soldermask,Bot*
G04 #@! TF.FilePolarity,Negative*
%FSLAX46Y46*%
G04 Gerber Fmt 4.6, Leading zero omitted, Abs format (unit mm)*
G04 Created by KiCad (PCBNEW (5.1.5-0)) date 2022-07-03 13:43:41*
%MOMM*%
%LPD*%
G04 APERTURE LIST*
%ADD10C,0.050000*%
G04 APERTURE END LIST*
D10*
G36*
X63539487Y4111004D02*
G01*
X63752113Y4022931D01*
X63776255Y4012931D01*
X63989339Y3870553D01*
X64170553Y3689339D01*
X64306251Y3486253D01*
X64312932Y3476253D01*
X64411004Y3239487D01*
X64461000Y2988139D01*
X64461000Y2731861D01*
X64411004Y2480513D01*
X64317074Y2253747D01*
X64312931Y2243745D01*
X64170553Y2030661D01*
X63989339Y1849447D01*
X63776255Y1707069D01*
X63776254Y1707068D01*
X63776253Y1707068D01*
X63539487Y1608996D01*
X63288139Y1559000D01*
X63031861Y1559000D01*
X62780513Y1608996D01*
X62543747Y1707068D01*
X62543746Y1707068D01*
X62543745Y1707069D01*
X62330661Y1849447D01*
X62149447Y2030661D01*
X62007069Y2243745D01*
X62002926Y2253747D01*
X61908996Y2480513D01*
X61859000Y2731861D01*
X61859000Y2988139D01*
X61908996Y3239487D01*
X62007068Y3476253D01*
X62013750Y3486253D01*
X62149447Y3689339D01*
X62330661Y3870553D01*
X62543745Y4012931D01*
X62567887Y4022931D01*
X62780513Y4111004D01*
X63031861Y4161000D01*
X63288139Y4161000D01*
X63539487Y4111004D01*
G37*
G36*
X3269487Y4121004D02*
G01*
X3506253Y4022932D01*
X3506255Y4022931D01*
X3719339Y3880553D01*
X3900553Y3699339D01*
X4041518Y3488370D01*
X4042932Y3486253D01*
X4141004Y3249487D01*
X4191000Y2998139D01*
X4191000Y2741861D01*
X4141004Y2490513D01*
X4042932Y2253747D01*
X4042931Y2253745D01*
X3900553Y2040661D01*
X3719339Y1859447D01*
X3506255Y1717069D01*
X3506254Y1717068D01*
X3506253Y1717068D01*
X3269487Y1618996D01*
X3018139Y1569000D01*
X2761861Y1569000D01*
X2510513Y1618996D01*
X2273747Y1717068D01*
X2273746Y1717068D01*
X2273745Y1717069D01*
X2060661Y1859447D01*
X1879447Y2040661D01*
X1737069Y2253745D01*
X1737068Y2253747D01*
X1638996Y2490513D01*
X1589000Y2741861D01*
X1589000Y2998139D01*
X1638996Y3249487D01*
X1737068Y3486253D01*
X1738483Y3488370D01*
X1879447Y3699339D01*
X2060661Y3880553D01*
X2273745Y4022931D01*
X2273747Y4022932D01*
X2510513Y4121004D01*
X2761861Y4171000D01*
X3018139Y4171000D01*
X3269487Y4121004D01*
G37*
G36*
X15446031Y5545793D02*
G01*
X15644145Y5485695D01*
X15644148Y5485694D01*
X15710030Y5450479D01*
X15826729Y5388103D01*
X15986765Y5256765D01*
X16118103Y5096729D01*
X16118104Y5096727D01*
X16215694Y4914149D01*
X16215694Y4914148D01*
X16215695Y4914146D01*
X16275793Y4716032D01*
X16291000Y4561630D01*
X16291000Y3458370D01*
X16275793Y3303968D01*
X16215695Y3105854D01*
X16215694Y3105851D01*
X16163939Y3009025D01*
X16118103Y2923271D01*
X15986765Y2763235D01*
X15826729Y2631897D01*
X15740975Y2586061D01*
X15644149Y2534306D01*
X15644146Y2534305D01*
X15446032Y2474207D01*
X15240000Y2453915D01*
X15033969Y2474207D01*
X14835855Y2534305D01*
X14835852Y2534306D01*
X14739026Y2586061D01*
X14653272Y2631897D01*
X14493236Y2763235D01*
X14361898Y2923271D01*
X14339184Y2965766D01*
X14264305Y3105853D01*
X14204207Y3303970D01*
X14189000Y3458369D01*
X14189000Y4561630D01*
X14204207Y4716029D01*
X14204207Y4716031D01*
X14264305Y4914145D01*
X14264306Y4914148D01*
X14308104Y4996088D01*
X14361897Y5096729D01*
X14493235Y5256765D01*
X14653271Y5388103D01*
X14739025Y5433939D01*
X14835851Y5485694D01*
X14835854Y5485695D01*
X15033968Y5545793D01*
X15240000Y5566085D01*
X15446031Y5545793D01*
G37*
G36*
X12906031Y5545793D02*
G01*
X13104145Y5485695D01*
X13104148Y5485694D01*
X13170030Y5450479D01*
X13286729Y5388103D01*
X13446765Y5256765D01*
X13578103Y5096729D01*
X13578104Y5096727D01*
X13675694Y4914149D01*
X13675694Y4914148D01*
X13675695Y4914146D01*
X13735793Y4716032D01*
X13751000Y4561630D01*
X13751000Y3458370D01*
X13735793Y3303968D01*
X13675695Y3105854D01*
X13675694Y3105851D01*
X13623939Y3009025D01*
X13578103Y2923271D01*
X13446765Y2763235D01*
X13286729Y2631897D01*
X13200975Y2586061D01*
X13104149Y2534306D01*
X13104146Y2534305D01*
X12906032Y2474207D01*
X12700000Y2453915D01*
X12493969Y2474207D01*
X12295855Y2534305D01*
X12295852Y2534306D01*
X12199026Y2586061D01*
X12113272Y2631897D01*
X11953236Y2763235D01*
X11821898Y2923271D01*
X11799184Y2965766D01*
X11724305Y3105853D01*
X11664207Y3303970D01*
X11649000Y3458369D01*
X11649000Y4561630D01*
X11664207Y4716029D01*
X11664207Y4716031D01*
X11724305Y4914145D01*
X11724306Y4914148D01*
X11768104Y4996088D01*
X11821897Y5096729D01*
X11953235Y5256765D01*
X12113271Y5388103D01*
X12199025Y5433939D01*
X12295851Y5485694D01*
X12295854Y5485695D01*
X12493968Y5545793D01*
X12700000Y5566085D01*
X12906031Y5545793D01*
G37*
G36*
X10366031Y5545793D02*
G01*
X10564145Y5485695D01*
X10564148Y5485694D01*
X10630030Y5450479D01*
X10746729Y5388103D01*
X10906765Y5256765D01*
X11038103Y5096729D01*
X11038104Y5096727D01*
X11135694Y4914149D01*
X11135694Y4914148D01*
X11135695Y4914146D01*
X11195793Y4716032D01*
X11211000Y4561630D01*
X11211000Y3458370D01*
X11195793Y3303968D01*
X11135695Y3105854D01*
X11135694Y3105851D01*
X11083939Y3009025D01*
X11038103Y2923271D01*
X10906765Y2763235D01*
X10746729Y2631897D01*
X10660975Y2586061D01*
X10564149Y2534306D01*
X10564146Y2534305D01*
X10366032Y2474207D01*
X10160000Y2453915D01*
X9953969Y2474207D01*
X9755855Y2534305D01*
X9755852Y2534306D01*
X9659026Y2586061D01*
X9573272Y2631897D01*
X9413236Y2763235D01*
X9281898Y2923271D01*
X9259184Y2965766D01*
X9184305Y3105853D01*
X9124207Y3303970D01*
X9109000Y3458369D01*
X9109000Y4561630D01*
X9124207Y4716029D01*
X9124207Y4716031D01*
X9184305Y4914145D01*
X9184306Y4914148D01*
X9228104Y4996088D01*
X9281897Y5096729D01*
X9413235Y5256765D01*
X9573271Y5388103D01*
X9659025Y5433939D01*
X9755851Y5485694D01*
X9755854Y5485695D01*
X9953968Y5545793D01*
X10160000Y5566085D01*
X10366031Y5545793D01*
G37*
G36*
X8671000Y2459000D02*
G01*
X6569000Y2459000D01*
X6569000Y5561000D01*
X8671000Y5561000D01*
X8671000Y2459000D01*
G37*
G36*
X32426031Y5575793D02*
G01*
X32624145Y5515695D01*
X32624148Y5515694D01*
X32680272Y5485695D01*
X32806729Y5418103D01*
X32966765Y5286765D01*
X33098103Y5126729D01*
X33114139Y5096727D01*
X33195694Y4944149D01*
X33195694Y4944148D01*
X33195695Y4944146D01*
X33255793Y4746032D01*
X33255793Y4746030D01*
X33271000Y4591631D01*
X33271000Y3488369D01*
X33269807Y3476255D01*
X33255793Y3333968D01*
X33227132Y3239488D01*
X33195694Y3135851D01*
X33143939Y3039025D01*
X33098103Y2953271D01*
X32966765Y2793235D01*
X32806729Y2661897D01*
X32721321Y2616246D01*
X32624149Y2564306D01*
X32624146Y2564305D01*
X32426032Y2504207D01*
X32220000Y2483915D01*
X32013969Y2504207D01*
X31815855Y2564305D01*
X31815852Y2564306D01*
X31718680Y2616246D01*
X31633272Y2661897D01*
X31473236Y2793235D01*
X31341898Y2953271D01*
X31314135Y3005212D01*
X31244305Y3135853D01*
X31184207Y3333970D01*
X31169000Y3488369D01*
X31169000Y4591630D01*
X31181252Y4716031D01*
X31184207Y4746031D01*
X31244305Y4944145D01*
X31244306Y4944148D01*
X31279521Y5010030D01*
X31341897Y5126729D01*
X31473235Y5286765D01*
X31633271Y5418103D01*
X31719025Y5463939D01*
X31815851Y5515694D01*
X31815854Y5515695D01*
X32013968Y5575793D01*
X32220000Y5596085D01*
X32426031Y5575793D01*
G37*
G36*
X34966031Y5575793D02*
G01*
X35164145Y5515695D01*
X35164148Y5515694D01*
X35220272Y5485695D01*
X35346729Y5418103D01*
X35506765Y5286765D01*
X35638103Y5126729D01*
X35654139Y5096727D01*
X35735694Y4944149D01*
X35735694Y4944148D01*
X35735695Y4944146D01*
X35795793Y4746032D01*
X35795793Y4746030D01*
X35811000Y4591631D01*
X35811000Y3488369D01*
X35809807Y3476255D01*
X35795793Y3333968D01*
X35767132Y3239488D01*
X35735694Y3135851D01*
X35683939Y3039025D01*
X35638103Y2953271D01*
X35506765Y2793235D01*
X35346729Y2661897D01*
X35261321Y2616246D01*
X35164149Y2564306D01*
X35164146Y2564305D01*
X34966032Y2504207D01*
X34760000Y2483915D01*
X34553969Y2504207D01*
X34355855Y2564305D01*
X34355852Y2564306D01*
X34258680Y2616246D01*
X34173272Y2661897D01*
X34013236Y2793235D01*
X33881898Y2953271D01*
X33854135Y3005212D01*
X33784305Y3135853D01*
X33724207Y3333970D01*
X33709000Y3488369D01*
X33709000Y4591630D01*
X33721252Y4716031D01*
X33724207Y4746031D01*
X33784305Y4944145D01*
X33784306Y4944148D01*
X33819521Y5010030D01*
X33881897Y5126729D01*
X34013235Y5286765D01*
X34173271Y5418103D01*
X34259025Y5463939D01*
X34355851Y5515694D01*
X34355854Y5515695D01*
X34553968Y5575793D01*
X34760000Y5596085D01*
X34966031Y5575793D01*
G37*
G36*
X37506031Y5575793D02*
G01*
X37704145Y5515695D01*
X37704148Y5515694D01*
X37760272Y5485695D01*
X37886729Y5418103D01*
X38046765Y5286765D01*
X38178103Y5126729D01*
X38194139Y5096727D01*
X38275694Y4944149D01*
X38275694Y4944148D01*
X38275695Y4944146D01*
X38335793Y4746032D01*
X38335793Y4746030D01*
X38351000Y4591631D01*
X38351000Y3488369D01*
X38349807Y3476255D01*
X38335793Y3333968D01*
X38307132Y3239488D01*
X38275694Y3135851D01*
X38223939Y3039025D01*
X38178103Y2953271D01*
X38046765Y2793235D01*
X37886729Y2661897D01*
X37801321Y2616246D01*
X37704149Y2564306D01*
X37704146Y2564305D01*
X37506032Y2504207D01*
X37300000Y2483915D01*
X37093969Y2504207D01*
X36895855Y2564305D01*
X36895852Y2564306D01*
X36798680Y2616246D01*
X36713272Y2661897D01*
X36553236Y2793235D01*
X36421898Y2953271D01*
X36394135Y3005212D01*
X36324305Y3135853D01*
X36264207Y3333970D01*
X36249000Y3488369D01*
X36249000Y4591630D01*
X36261252Y4716031D01*
X36264207Y4746031D01*
X36324305Y4944145D01*
X36324306Y4944148D01*
X36359521Y5010030D01*
X36421897Y5126729D01*
X36553235Y5286765D01*
X36713271Y5418103D01*
X36799025Y5463939D01*
X36895851Y5515694D01*
X36895854Y5515695D01*
X37093968Y5575793D01*
X37300000Y5596085D01*
X37506031Y5575793D01*
G37*
G36*
X30731000Y2489000D02*
G01*
X28629000Y2489000D01*
X28629000Y5591000D01*
X30731000Y5591000D01*
X30731000Y2489000D01*
G37*
G36*
X58742871Y5627733D02*
G01*
X58940985Y5567635D01*
X58940988Y5567634D01*
X58981849Y5545793D01*
X59123569Y5470043D01*
X59283605Y5338705D01*
X59414943Y5178669D01*
X59414944Y5178667D01*
X59512534Y4996089D01*
X59512534Y4996088D01*
X59512535Y4996086D01*
X59572633Y4797972D01*
X59587840Y4643570D01*
X59587840Y3540310D01*
X59572633Y3385908D01*
X59528216Y3239488D01*
X59512534Y3187791D01*
X59468737Y3105853D01*
X59414943Y3005211D01*
X59283605Y2845175D01*
X59123569Y2713837D01*
X59037815Y2668001D01*
X58940989Y2616246D01*
X58940986Y2616245D01*
X58742872Y2556147D01*
X58536840Y2535855D01*
X58330809Y2556147D01*
X58132695Y2616245D01*
X58132692Y2616246D01*
X58035866Y2668001D01*
X57950112Y2713837D01*
X57790076Y2845175D01*
X57658738Y3005211D01*
X57604945Y3105851D01*
X57561145Y3187793D01*
X57501047Y3385910D01*
X57485840Y3540309D01*
X57485840Y4643570D01*
X57495931Y4746030D01*
X57501047Y4797971D01*
X57561145Y4996085D01*
X57561146Y4996088D01*
X57630974Y5126727D01*
X57658737Y5178669D01*
X57790075Y5338705D01*
X57950111Y5470043D01*
X58091830Y5545793D01*
X58132691Y5567634D01*
X58132694Y5567635D01*
X58330808Y5627733D01*
X58536840Y5648025D01*
X58742871Y5627733D01*
G37*
G36*
X56202871Y5627733D02*
G01*
X56400985Y5567635D01*
X56400988Y5567634D01*
X56441849Y5545793D01*
X56583569Y5470043D01*
X56743605Y5338705D01*
X56874943Y5178669D01*
X56874944Y5178667D01*
X56972534Y4996089D01*
X56972534Y4996088D01*
X56972535Y4996086D01*
X57032633Y4797972D01*
X57047840Y4643570D01*
X57047840Y3540310D01*
X57032633Y3385908D01*
X56988216Y3239488D01*
X56972534Y3187791D01*
X56928737Y3105853D01*
X56874943Y3005211D01*
X56743605Y2845175D01*
X56583569Y2713837D01*
X56497815Y2668001D01*
X56400989Y2616246D01*
X56400986Y2616245D01*
X56202872Y2556147D01*
X55996840Y2535855D01*
X55790809Y2556147D01*
X55592695Y2616245D01*
X55592692Y2616246D01*
X55495866Y2668001D01*
X55410112Y2713837D01*
X55250076Y2845175D01*
X55118738Y3005211D01*
X55064945Y3105851D01*
X55021145Y3187793D01*
X54961047Y3385910D01*
X54945840Y3540309D01*
X54945840Y4643570D01*
X54955931Y4746030D01*
X54961047Y4797971D01*
X55021145Y4996085D01*
X55021146Y4996088D01*
X55090974Y5126727D01*
X55118737Y5178669D01*
X55250075Y5338705D01*
X55410111Y5470043D01*
X55551830Y5545793D01*
X55592691Y5567634D01*
X55592694Y5567635D01*
X55790808Y5627733D01*
X55996840Y5648025D01*
X56202871Y5627733D01*
G37*
G36*
X53662871Y5627733D02*
G01*
X53860985Y5567635D01*
X53860988Y5567634D01*
X53901849Y5545793D01*
X54043569Y5470043D01*
X54203605Y5338705D01*
X54334943Y5178669D01*
X54334944Y5178667D01*
X54432534Y4996089D01*
X54432534Y4996088D01*
X54432535Y4996086D01*
X54492633Y4797972D01*
X54507840Y4643570D01*
X54507840Y3540310D01*
X54492633Y3385908D01*
X54448216Y3239488D01*
X54432534Y3187791D01*
X54388737Y3105853D01*
X54334943Y3005211D01*
X54203605Y2845175D01*
X54043569Y2713837D01*
X53957815Y2668001D01*
X53860989Y2616246D01*
X53860986Y2616245D01*
X53662872Y2556147D01*
X53456840Y2535855D01*
X53250809Y2556147D01*
X53052695Y2616245D01*
X53052692Y2616246D01*
X52955866Y2668001D01*
X52870112Y2713837D01*
X52710076Y2845175D01*
X52578738Y3005211D01*
X52524945Y3105851D01*
X52481145Y3187793D01*
X52421047Y3385910D01*
X52405840Y3540309D01*
X52405840Y4643570D01*
X52415931Y4746030D01*
X52421047Y4797971D01*
X52481145Y4996085D01*
X52481146Y4996088D01*
X52550974Y5126727D01*
X52578737Y5178669D01*
X52710075Y5338705D01*
X52870111Y5470043D01*
X53011830Y5545793D01*
X53052691Y5567634D01*
X53052694Y5567635D01*
X53250808Y5627733D01*
X53456840Y5648025D01*
X53662871Y5627733D01*
G37*
G36*
X51967840Y2540940D02*
G01*
X49865840Y2540940D01*
X49865840Y5642940D01*
X51967840Y5642940D01*
X51967840Y2540940D01*
G37*
G36*
X49074697Y10363711D02*
G01*
X49177632Y10353573D01*
X49375746Y10293475D01*
X49375749Y10293474D01*
X49472575Y10241719D01*
X49558329Y10195883D01*
X49718365Y10064545D01*
X49849703Y9904509D01*
X49880523Y9846849D01*
X49947294Y9721929D01*
X49947295Y9721926D01*
X50007393Y9523812D01*
X50027685Y9317780D01*
X50007393Y9111748D01*
X49947295Y8913634D01*
X49947294Y8913631D01*
X49916474Y8855972D01*
X49849703Y8731051D01*
X49718365Y8571015D01*
X49558329Y8439677D01*
X49497020Y8406907D01*
X49375749Y8342086D01*
X49375746Y8342085D01*
X49177632Y8281987D01*
X49074697Y8271849D01*
X49023231Y8266780D01*
X47919969Y8266780D01*
X47868503Y8271849D01*
X47765568Y8281987D01*
X47567454Y8342085D01*
X47567451Y8342086D01*
X47446180Y8406907D01*
X47384871Y8439677D01*
X47224835Y8571015D01*
X47093497Y8731051D01*
X47026726Y8855972D01*
X46995906Y8913631D01*
X46995905Y8913634D01*
X46935807Y9111748D01*
X46915515Y9317780D01*
X46935807Y9523812D01*
X46995905Y9721926D01*
X46995906Y9721929D01*
X47062677Y9846849D01*
X47093497Y9904509D01*
X47224835Y10064545D01*
X47384871Y10195883D01*
X47470625Y10241719D01*
X47567451Y10293474D01*
X47567454Y10293475D01*
X47765568Y10353573D01*
X47868503Y10363711D01*
X47919969Y10368780D01*
X49023231Y10368780D01*
X49074697Y10363711D01*
G37*
G36*
X61774697Y10363711D02*
G01*
X61877632Y10353573D01*
X62075746Y10293475D01*
X62075749Y10293474D01*
X62172575Y10241719D01*
X62258329Y10195883D01*
X62418365Y10064545D01*
X62549703Y9904509D01*
X62580523Y9846849D01*
X62647294Y9721929D01*
X62647295Y9721926D01*
X62707393Y9523812D01*
X62727685Y9317780D01*
X62707393Y9111748D01*
X62647295Y8913634D01*
X62647294Y8913631D01*
X62616474Y8855972D01*
X62549703Y8731051D01*
X62418365Y8571015D01*
X62258329Y8439677D01*
X62197020Y8406907D01*
X62075749Y8342086D01*
X62075746Y8342085D01*
X61877632Y8281987D01*
X61774697Y8271849D01*
X61723231Y8266780D01*
X60619969Y8266780D01*
X60568503Y8271849D01*
X60465568Y8281987D01*
X60267454Y8342085D01*
X60267451Y8342086D01*
X60146180Y8406907D01*
X60084871Y8439677D01*
X59924835Y8571015D01*
X59793497Y8731051D01*
X59726726Y8855972D01*
X59695906Y8913631D01*
X59695905Y8913634D01*
X59635807Y9111748D01*
X59615515Y9317780D01*
X59635807Y9523812D01*
X59695905Y9721926D01*
X59695906Y9721929D01*
X59762677Y9846849D01*
X59793497Y9904509D01*
X59924835Y10064545D01*
X60084871Y10195883D01*
X60170625Y10241719D01*
X60267451Y10293474D01*
X60267454Y10293475D01*
X60465568Y10353573D01*
X60568503Y10363711D01*
X60619969Y10368780D01*
X61723231Y10368780D01*
X61774697Y10363711D01*
G37*
G36*
X27787817Y10488631D02*
G01*
X27890752Y10478493D01*
X28088866Y10418395D01*
X28088869Y10418394D01*
X28181690Y10368780D01*
X28271449Y10320803D01*
X28431485Y10189465D01*
X28562823Y10029429D01*
X28608659Y9943675D01*
X28660414Y9846849D01*
X28660415Y9846846D01*
X28720513Y9648732D01*
X28740805Y9442700D01*
X28720513Y9236668D01*
X28682619Y9111750D01*
X28660414Y9038551D01*
X28608659Y8941725D01*
X28562823Y8855971D01*
X28431485Y8695935D01*
X28271449Y8564597D01*
X28185695Y8518761D01*
X28088869Y8467006D01*
X28088866Y8467005D01*
X27890752Y8406907D01*
X27825090Y8400440D01*
X27736351Y8391700D01*
X26633089Y8391700D01*
X26544350Y8400440D01*
X26478688Y8406907D01*
X26280574Y8467005D01*
X26280571Y8467006D01*
X26183745Y8518761D01*
X26097991Y8564597D01*
X25937955Y8695935D01*
X25806617Y8855971D01*
X25760781Y8941725D01*
X25709026Y9038551D01*
X25686821Y9111750D01*
X25648927Y9236668D01*
X25628635Y9442700D01*
X25648927Y9648732D01*
X25709025Y9846846D01*
X25709026Y9846849D01*
X25760781Y9943675D01*
X25806617Y10029429D01*
X25937955Y10189465D01*
X26097991Y10320803D01*
X26187750Y10368780D01*
X26280571Y10418394D01*
X26280574Y10418395D01*
X26478688Y10478493D01*
X26581623Y10488631D01*
X26633089Y10493700D01*
X27736351Y10493700D01*
X27787817Y10488631D01*
G37*
G36*
X40487817Y10488631D02*
G01*
X40590752Y10478493D01*
X40788866Y10418395D01*
X40788869Y10418394D01*
X40881690Y10368780D01*
X40971449Y10320803D01*
X41131485Y10189465D01*
X41262823Y10029429D01*
X41308659Y9943675D01*
X41360414Y9846849D01*
X41360415Y9846846D01*
X41420513Y9648732D01*
X41440805Y9442700D01*
X41420513Y9236668D01*
X41382619Y9111750D01*
X41360414Y9038551D01*
X41308659Y8941725D01*
X41262823Y8855971D01*
X41131485Y8695935D01*
X40971449Y8564597D01*
X40885695Y8518761D01*
X40788869Y8467006D01*
X40788866Y8467005D01*
X40590752Y8406907D01*
X40525090Y8400440D01*
X40436351Y8391700D01*
X39333089Y8391700D01*
X39244350Y8400440D01*
X39178688Y8406907D01*
X38980574Y8467005D01*
X38980571Y8467006D01*
X38883745Y8518761D01*
X38797991Y8564597D01*
X38637955Y8695935D01*
X38506617Y8855971D01*
X38460781Y8941725D01*
X38409026Y9038551D01*
X38386821Y9111750D01*
X38348927Y9236668D01*
X38328635Y9442700D01*
X38348927Y9648732D01*
X38409025Y9846846D01*
X38409026Y9846849D01*
X38460781Y9943675D01*
X38506617Y10029429D01*
X38637955Y10189465D01*
X38797991Y10320803D01*
X38887750Y10368780D01*
X38980571Y10418394D01*
X38980574Y10418395D01*
X39178688Y10478493D01*
X39281623Y10488631D01*
X39333089Y10493700D01*
X40436351Y10493700D01*
X40487817Y10488631D01*
G37*
G36*
X5540577Y10497371D02*
G01*
X5643512Y10487233D01*
X5841626Y10427135D01*
X5841629Y10427134D01*
X5938455Y10375379D01*
X6024209Y10329543D01*
X6184245Y10198205D01*
X6315583Y10038169D01*
X6320255Y10029428D01*
X6413174Y9855589D01*
X6413175Y9855586D01*
X6473273Y9657472D01*
X6493565Y9451440D01*
X6473273Y9245408D01*
X6432728Y9111750D01*
X6413174Y9047291D01*
X6408502Y9038551D01*
X6315583Y8864711D01*
X6184245Y8704675D01*
X6024209Y8573337D01*
X5938455Y8527501D01*
X5841629Y8475746D01*
X5841626Y8475745D01*
X5643512Y8415647D01*
X5540577Y8405509D01*
X5489111Y8400440D01*
X4385849Y8400440D01*
X4334383Y8405509D01*
X4231448Y8415647D01*
X4033334Y8475745D01*
X4033331Y8475746D01*
X3936505Y8527501D01*
X3850751Y8573337D01*
X3690715Y8704675D01*
X3559377Y8864711D01*
X3466458Y9038551D01*
X3461786Y9047291D01*
X3442232Y9111750D01*
X3401687Y9245408D01*
X3381395Y9451440D01*
X3401687Y9657472D01*
X3461785Y9855586D01*
X3461786Y9855589D01*
X3554705Y10029428D01*
X3559377Y10038169D01*
X3690715Y10198205D01*
X3850751Y10329543D01*
X3936505Y10375379D01*
X4033331Y10427134D01*
X4033334Y10427135D01*
X4231448Y10487233D01*
X4334383Y10497371D01*
X4385849Y10502440D01*
X5489111Y10502440D01*
X5540577Y10497371D01*
G37*
G36*
X18240577Y10497371D02*
G01*
X18343512Y10487233D01*
X18541626Y10427135D01*
X18541629Y10427134D01*
X18638455Y10375379D01*
X18724209Y10329543D01*
X18884245Y10198205D01*
X19015583Y10038169D01*
X19020255Y10029428D01*
X19113174Y9855589D01*
X19113175Y9855586D01*
X19173273Y9657472D01*
X19193565Y9451440D01*
X19173273Y9245408D01*
X19132728Y9111750D01*
X19113174Y9047291D01*
X19108502Y9038551D01*
X19015583Y8864711D01*
X18884245Y8704675D01*
X18724209Y8573337D01*
X18638455Y8527501D01*
X18541629Y8475746D01*
X18541626Y8475745D01*
X18343512Y8415647D01*
X18240577Y8405509D01*
X18189111Y8400440D01*
X17085849Y8400440D01*
X17034383Y8405509D01*
X16931448Y8415647D01*
X16733334Y8475745D01*
X16733331Y8475746D01*
X16636505Y8527501D01*
X16550751Y8573337D01*
X16390715Y8704675D01*
X16259377Y8864711D01*
X16166458Y9038551D01*
X16161786Y9047291D01*
X16142232Y9111750D01*
X16101687Y9245408D01*
X16081395Y9451440D01*
X16101687Y9657472D01*
X16161785Y9855586D01*
X16161786Y9855589D01*
X16254705Y10029428D01*
X16259377Y10038169D01*
X16390715Y10198205D01*
X16550751Y10329543D01*
X16636505Y10375379D01*
X16733331Y10427134D01*
X16733334Y10427135D01*
X16931448Y10487233D01*
X17034383Y10497371D01*
X17085849Y10502440D01*
X18189111Y10502440D01*
X18240577Y10497371D01*
G37*
G36*
X49074697Y12903711D02*
G01*
X49177632Y12893573D01*
X49375746Y12833475D01*
X49375749Y12833474D01*
X49472575Y12781719D01*
X49558329Y12735883D01*
X49718365Y12604545D01*
X49849703Y12444509D01*
X49880523Y12386849D01*
X49947294Y12261929D01*
X49947295Y12261926D01*
X50007393Y12063812D01*
X50027685Y11857780D01*
X50007393Y11651748D01*
X49947295Y11453634D01*
X49947294Y11453631D01*
X49916474Y11395972D01*
X49849703Y11271051D01*
X49718365Y11111015D01*
X49558329Y10979677D01*
X49497020Y10946907D01*
X49375749Y10882086D01*
X49375746Y10882085D01*
X49177632Y10821987D01*
X49074697Y10811849D01*
X49023231Y10806780D01*
X47919969Y10806780D01*
X47868503Y10811849D01*
X47765568Y10821987D01*
X47567454Y10882085D01*
X47567451Y10882086D01*
X47446180Y10946907D01*
X47384871Y10979677D01*
X47224835Y11111015D01*
X47093497Y11271051D01*
X47026726Y11395972D01*
X46995906Y11453631D01*
X46995905Y11453634D01*
X46935807Y11651748D01*
X46915515Y11857780D01*
X46935807Y12063812D01*
X46995905Y12261926D01*
X46995906Y12261929D01*
X47062677Y12386849D01*
X47093497Y12444509D01*
X47224835Y12604545D01*
X47384871Y12735883D01*
X47470625Y12781719D01*
X47567451Y12833474D01*
X47567454Y12833475D01*
X47765568Y12893573D01*
X47868503Y12903711D01*
X47919969Y12908780D01*
X49023231Y12908780D01*
X49074697Y12903711D01*
G37*
G36*
X61774697Y12903711D02*
G01*
X61877632Y12893573D01*
X62075746Y12833475D01*
X62075749Y12833474D01*
X62172575Y12781719D01*
X62258329Y12735883D01*
X62418365Y12604545D01*
X62549703Y12444509D01*
X62580523Y12386849D01*
X62647294Y12261929D01*
X62647295Y12261926D01*
X62707393Y12063812D01*
X62727685Y11857780D01*
X62707393Y11651748D01*
X62647295Y11453634D01*
X62647294Y11453631D01*
X62616474Y11395972D01*
X62549703Y11271051D01*
X62418365Y11111015D01*
X62258329Y10979677D01*
X62197020Y10946907D01*
X62075749Y10882086D01*
X62075746Y10882085D01*
X61877632Y10821987D01*
X61774697Y10811849D01*
X61723231Y10806780D01*
X60619969Y10806780D01*
X60568503Y10811849D01*
X60465568Y10821987D01*
X60267454Y10882085D01*
X60267451Y10882086D01*
X60146180Y10946907D01*
X60084871Y10979677D01*
X59924835Y11111015D01*
X59793497Y11271051D01*
X59726726Y11395972D01*
X59695906Y11453631D01*
X59695905Y11453634D01*
X59635807Y11651748D01*
X59615515Y11857780D01*
X59635807Y12063812D01*
X59695905Y12261926D01*
X59695906Y12261929D01*
X59762677Y12386849D01*
X59793497Y12444509D01*
X59924835Y12604545D01*
X60084871Y12735883D01*
X60170625Y12781719D01*
X60267451Y12833474D01*
X60267454Y12833475D01*
X60465568Y12893573D01*
X60568503Y12903711D01*
X60619969Y12908780D01*
X61723231Y12908780D01*
X61774697Y12903711D01*
G37*
G36*
X27787817Y13028631D02*
G01*
X27890752Y13018493D01*
X28088866Y12958395D01*
X28088869Y12958394D01*
X28181690Y12908780D01*
X28271449Y12860803D01*
X28431485Y12729465D01*
X28562823Y12569429D01*
X28608659Y12483675D01*
X28660414Y12386849D01*
X28660415Y12386846D01*
X28720513Y12188732D01*
X28740805Y11982700D01*
X28720513Y11776668D01*
X28682619Y11651750D01*
X28660414Y11578551D01*
X28608659Y11481725D01*
X28562823Y11395971D01*
X28431485Y11235935D01*
X28271449Y11104597D01*
X28185695Y11058761D01*
X28088869Y11007006D01*
X28088866Y11007005D01*
X27890752Y10946907D01*
X27825090Y10940440D01*
X27736351Y10931700D01*
X26633089Y10931700D01*
X26544350Y10940440D01*
X26478688Y10946907D01*
X26280574Y11007005D01*
X26280571Y11007006D01*
X26183745Y11058761D01*
X26097991Y11104597D01*
X25937955Y11235935D01*
X25806617Y11395971D01*
X25760781Y11481725D01*
X25709026Y11578551D01*
X25686821Y11651750D01*
X25648927Y11776668D01*
X25628635Y11982700D01*
X25648927Y12188732D01*
X25709025Y12386846D01*
X25709026Y12386849D01*
X25760781Y12483675D01*
X25806617Y12569429D01*
X25937955Y12729465D01*
X26097991Y12860803D01*
X26187750Y12908780D01*
X26280571Y12958394D01*
X26280574Y12958395D01*
X26478688Y13018493D01*
X26581623Y13028631D01*
X26633089Y13033700D01*
X27736351Y13033700D01*
X27787817Y13028631D01*
G37*
G36*
X40487817Y13028631D02*
G01*
X40590752Y13018493D01*
X40788866Y12958395D01*
X40788869Y12958394D01*
X40881690Y12908780D01*
X40971449Y12860803D01*
X41131485Y12729465D01*
X41262823Y12569429D01*
X41308659Y12483675D01*
X41360414Y12386849D01*
X41360415Y12386846D01*
X41420513Y12188732D01*
X41440805Y11982700D01*
X41420513Y11776668D01*
X41382619Y11651750D01*
X41360414Y11578551D01*
X41308659Y11481725D01*
X41262823Y11395971D01*
X41131485Y11235935D01*
X40971449Y11104597D01*
X40885695Y11058761D01*
X40788869Y11007006D01*
X40788866Y11007005D01*
X40590752Y10946907D01*
X40525090Y10940440D01*
X40436351Y10931700D01*
X39333089Y10931700D01*
X39244350Y10940440D01*
X39178688Y10946907D01*
X38980574Y11007005D01*
X38980571Y11007006D01*
X38883745Y11058761D01*
X38797991Y11104597D01*
X38637955Y11235935D01*
X38506617Y11395971D01*
X38460781Y11481725D01*
X38409026Y11578551D01*
X38386821Y11651750D01*
X38348927Y11776668D01*
X38328635Y11982700D01*
X38348927Y12188732D01*
X38409025Y12386846D01*
X38409026Y12386849D01*
X38460781Y12483675D01*
X38506617Y12569429D01*
X38637955Y12729465D01*
X38797991Y12860803D01*
X38887750Y12908780D01*
X38980571Y12958394D01*
X38980574Y12958395D01*
X39178688Y13018493D01*
X39281623Y13028631D01*
X39333089Y13033700D01*
X40436351Y13033700D01*
X40487817Y13028631D01*
G37*
G36*
X18240577Y13037371D02*
G01*
X18343512Y13027233D01*
X18541626Y12967135D01*
X18541629Y12967134D01*
X18638455Y12915379D01*
X18724209Y12869543D01*
X18884245Y12738205D01*
X19015583Y12578169D01*
X19020255Y12569428D01*
X19113174Y12395589D01*
X19113175Y12395586D01*
X19173273Y12197472D01*
X19193565Y11991440D01*
X19173273Y11785408D01*
X19132728Y11651750D01*
X19113174Y11587291D01*
X19108502Y11578551D01*
X19015583Y11404711D01*
X18884245Y11244675D01*
X18724209Y11113337D01*
X18638455Y11067501D01*
X18541629Y11015746D01*
X18541626Y11015745D01*
X18343512Y10955647D01*
X18240577Y10945509D01*
X18189111Y10940440D01*
X17085849Y10940440D01*
X17034383Y10945509D01*
X16931448Y10955647D01*
X16733334Y11015745D01*
X16733331Y11015746D01*
X16636505Y11067501D01*
X16550751Y11113337D01*
X16390715Y11244675D01*
X16259377Y11404711D01*
X16166458Y11578551D01*
X16161786Y11587291D01*
X16142232Y11651750D01*
X16101687Y11785408D01*
X16081395Y11991440D01*
X16101687Y12197472D01*
X16161785Y12395586D01*
X16161786Y12395589D01*
X16254705Y12569428D01*
X16259377Y12578169D01*
X16390715Y12738205D01*
X16550751Y12869543D01*
X16636505Y12915379D01*
X16733331Y12967134D01*
X16733334Y12967135D01*
X16931448Y13027233D01*
X17034383Y13037371D01*
X17085849Y13042440D01*
X18189111Y13042440D01*
X18240577Y13037371D01*
G37*
G36*
X5540577Y13037371D02*
G01*
X5643512Y13027233D01*
X5841626Y12967135D01*
X5841629Y12967134D01*
X5938455Y12915379D01*
X6024209Y12869543D01*
X6184245Y12738205D01*
X6315583Y12578169D01*
X6320255Y12569428D01*
X6413174Y12395589D01*
X6413175Y12395586D01*
X6473273Y12197472D01*
X6493565Y11991440D01*
X6473273Y11785408D01*
X6432728Y11651750D01*
X6413174Y11587291D01*
X6408502Y11578551D01*
X6315583Y11404711D01*
X6184245Y11244675D01*
X6024209Y11113337D01*
X5938455Y11067501D01*
X5841629Y11015746D01*
X5841626Y11015745D01*
X5643512Y10955647D01*
X5540577Y10945509D01*
X5489111Y10940440D01*
X4385849Y10940440D01*
X4334383Y10945509D01*
X4231448Y10955647D01*
X4033334Y11015745D01*
X4033331Y11015746D01*
X3936505Y11067501D01*
X3850751Y11113337D01*
X3690715Y11244675D01*
X3559377Y11404711D01*
X3466458Y11578551D01*
X3461786Y11587291D01*
X3442232Y11651750D01*
X3401687Y11785408D01*
X3381395Y11991440D01*
X3401687Y12197472D01*
X3461785Y12395586D01*
X3461786Y12395589D01*
X3554705Y12569428D01*
X3559377Y12578169D01*
X3690715Y12738205D01*
X3850751Y12869543D01*
X3936505Y12915379D01*
X4033331Y12967134D01*
X4033334Y12967135D01*
X4231448Y13027233D01*
X4334383Y13037371D01*
X4385849Y13042440D01*
X5489111Y13042440D01*
X5540577Y13037371D01*
G37*
G36*
X61774697Y15443711D02*
G01*
X61877632Y15433573D01*
X62075746Y15373475D01*
X62075749Y15373474D01*
X62172575Y15321719D01*
X62258329Y15275883D01*
X62418365Y15144545D01*
X62549703Y14984509D01*
X62580523Y14926849D01*
X62647294Y14801929D01*
X62647295Y14801926D01*
X62707393Y14603812D01*
X62727685Y14397780D01*
X62707393Y14191748D01*
X62647295Y13993634D01*
X62647294Y13993631D01*
X62616474Y13935972D01*
X62549703Y13811051D01*
X62418365Y13651015D01*
X62258329Y13519677D01*
X62197020Y13486907D01*
X62075749Y13422086D01*
X62075746Y13422085D01*
X61877632Y13361987D01*
X61774697Y13351849D01*
X61723231Y13346780D01*
X60619969Y13346780D01*
X60568503Y13351849D01*
X60465568Y13361987D01*
X60267454Y13422085D01*
X60267451Y13422086D01*
X60146180Y13486907D01*
X60084871Y13519677D01*
X59924835Y13651015D01*
X59793497Y13811051D01*
X59726726Y13935972D01*
X59695906Y13993631D01*
X59695905Y13993634D01*
X59635807Y14191748D01*
X59615515Y14397780D01*
X59635807Y14603812D01*
X59695905Y14801926D01*
X59695906Y14801929D01*
X59762677Y14926849D01*
X59793497Y14984509D01*
X59924835Y15144545D01*
X60084871Y15275883D01*
X60170625Y15321719D01*
X60267451Y15373474D01*
X60267454Y15373475D01*
X60465568Y15433573D01*
X60568503Y15443711D01*
X60619969Y15448780D01*
X61723231Y15448780D01*
X61774697Y15443711D01*
G37*
G36*
X49074697Y15443711D02*
G01*
X49177632Y15433573D01*
X49375746Y15373475D01*
X49375749Y15373474D01*
X49472575Y15321719D01*
X49558329Y15275883D01*
X49718365Y15144545D01*
X49849703Y14984509D01*
X49880523Y14926849D01*
X49947294Y14801929D01*
X49947295Y14801926D01*
X50007393Y14603812D01*
X50027685Y14397780D01*
X50007393Y14191748D01*
X49947295Y13993634D01*
X49947294Y13993631D01*
X49916474Y13935972D01*
X49849703Y13811051D01*
X49718365Y13651015D01*
X49558329Y13519677D01*
X49497020Y13486907D01*
X49375749Y13422086D01*
X49375746Y13422085D01*
X49177632Y13361987D01*
X49074697Y13351849D01*
X49023231Y13346780D01*
X47919969Y13346780D01*
X47868503Y13351849D01*
X47765568Y13361987D01*
X47567454Y13422085D01*
X47567451Y13422086D01*
X47446180Y13486907D01*
X47384871Y13519677D01*
X47224835Y13651015D01*
X47093497Y13811051D01*
X47026726Y13935972D01*
X46995906Y13993631D01*
X46995905Y13993634D01*
X46935807Y14191748D01*
X46915515Y14397780D01*
X46935807Y14603812D01*
X46995905Y14801926D01*
X46995906Y14801929D01*
X47062677Y14926849D01*
X47093497Y14984509D01*
X47224835Y15144545D01*
X47384871Y15275883D01*
X47470625Y15321719D01*
X47567451Y15373474D01*
X47567454Y15373475D01*
X47765568Y15433573D01*
X47868503Y15443711D01*
X47919969Y15448780D01*
X49023231Y15448780D01*
X49074697Y15443711D01*
G37*
G36*
X27787817Y15568631D02*
G01*
X27890752Y15558493D01*
X28088866Y15498395D01*
X28088869Y15498394D01*
X28181690Y15448780D01*
X28271449Y15400803D01*
X28431485Y15269465D01*
X28562823Y15109429D01*
X28608659Y15023675D01*
X28660414Y14926849D01*
X28660415Y14926846D01*
X28720513Y14728732D01*
X28740805Y14522700D01*
X28720513Y14316668D01*
X28682619Y14191750D01*
X28660414Y14118551D01*
X28608659Y14021725D01*
X28562823Y13935971D01*
X28431485Y13775935D01*
X28271449Y13644597D01*
X28185695Y13598761D01*
X28088869Y13547006D01*
X28088866Y13547005D01*
X27890752Y13486907D01*
X27825090Y13480440D01*
X27736351Y13471700D01*
X26633089Y13471700D01*
X26544350Y13480440D01*
X26478688Y13486907D01*
X26280574Y13547005D01*
X26280571Y13547006D01*
X26183745Y13598761D01*
X26097991Y13644597D01*
X25937955Y13775935D01*
X25806617Y13935971D01*
X25760781Y14021725D01*
X25709026Y14118551D01*
X25686821Y14191750D01*
X25648927Y14316668D01*
X25628635Y14522700D01*
X25648927Y14728732D01*
X25709025Y14926846D01*
X25709026Y14926849D01*
X25760781Y15023675D01*
X25806617Y15109429D01*
X25937955Y15269465D01*
X26097991Y15400803D01*
X26187750Y15448780D01*
X26280571Y15498394D01*
X26280574Y15498395D01*
X26478688Y15558493D01*
X26581623Y15568631D01*
X26633089Y15573700D01*
X27736351Y15573700D01*
X27787817Y15568631D01*
G37*
G36*
X40487817Y15568631D02*
G01*
X40590752Y15558493D01*
X40788866Y15498395D01*
X40788869Y15498394D01*
X40881690Y15448780D01*
X40971449Y15400803D01*
X41131485Y15269465D01*
X41262823Y15109429D01*
X41308659Y15023675D01*
X41360414Y14926849D01*
X41360415Y14926846D01*
X41420513Y14728732D01*
X41440805Y14522700D01*
X41420513Y14316668D01*
X41382619Y14191750D01*
X41360414Y14118551D01*
X41308659Y14021725D01*
X41262823Y13935971D01*
X41131485Y13775935D01*
X40971449Y13644597D01*
X40885695Y13598761D01*
X40788869Y13547006D01*
X40788866Y13547005D01*
X40590752Y13486907D01*
X40525090Y13480440D01*
X40436351Y13471700D01*
X39333089Y13471700D01*
X39244350Y13480440D01*
X39178688Y13486907D01*
X38980574Y13547005D01*
X38980571Y13547006D01*
X38883745Y13598761D01*
X38797991Y13644597D01*
X38637955Y13775935D01*
X38506617Y13935971D01*
X38460781Y14021725D01*
X38409026Y14118551D01*
X38386821Y14191750D01*
X38348927Y14316668D01*
X38328635Y14522700D01*
X38348927Y14728732D01*
X38409025Y14926846D01*
X38409026Y14926849D01*
X38460781Y15023675D01*
X38506617Y15109429D01*
X38637955Y15269465D01*
X38797991Y15400803D01*
X38887750Y15448780D01*
X38980571Y15498394D01*
X38980574Y15498395D01*
X39178688Y15558493D01*
X39281623Y15568631D01*
X39333089Y15573700D01*
X40436351Y15573700D01*
X40487817Y15568631D01*
G37*
G36*
X5540577Y15577371D02*
G01*
X5643512Y15567233D01*
X5841626Y15507135D01*
X5841629Y15507134D01*
X5938455Y15455379D01*
X6024209Y15409543D01*
X6184245Y15278205D01*
X6315583Y15118169D01*
X6320255Y15109428D01*
X6413174Y14935589D01*
X6413175Y14935586D01*
X6473273Y14737472D01*
X6493565Y14531440D01*
X6473273Y14325408D01*
X6432728Y14191750D01*
X6413174Y14127291D01*
X6408502Y14118551D01*
X6315583Y13944711D01*
X6184245Y13784675D01*
X6024209Y13653337D01*
X5938455Y13607501D01*
X5841629Y13555746D01*
X5841626Y13555745D01*
X5643512Y13495647D01*
X5540577Y13485509D01*
X5489111Y13480440D01*
X4385849Y13480440D01*
X4334383Y13485509D01*
X4231448Y13495647D01*
X4033334Y13555745D01*
X4033331Y13555746D01*
X3936505Y13607501D01*
X3850751Y13653337D01*
X3690715Y13784675D01*
X3559377Y13944711D01*
X3466458Y14118551D01*
X3461786Y14127291D01*
X3442232Y14191750D01*
X3401687Y14325408D01*
X3381395Y14531440D01*
X3401687Y14737472D01*
X3461785Y14935586D01*
X3461786Y14935589D01*
X3554705Y15109428D01*
X3559377Y15118169D01*
X3690715Y15278205D01*
X3850751Y15409543D01*
X3936505Y15455379D01*
X4033331Y15507134D01*
X4033334Y15507135D01*
X4231448Y15567233D01*
X4334383Y15577371D01*
X4385849Y15582440D01*
X5489111Y15582440D01*
X5540577Y15577371D01*
G37*
G36*
X18240577Y15577371D02*
G01*
X18343512Y15567233D01*
X18541626Y15507135D01*
X18541629Y15507134D01*
X18638455Y15455379D01*
X18724209Y15409543D01*
X18884245Y15278205D01*
X19015583Y15118169D01*
X19020255Y15109428D01*
X19113174Y14935589D01*
X19113175Y14935586D01*
X19173273Y14737472D01*
X19193565Y14531440D01*
X19173273Y14325408D01*
X19132728Y14191750D01*
X19113174Y14127291D01*
X19108502Y14118551D01*
X19015583Y13944711D01*
X18884245Y13784675D01*
X18724209Y13653337D01*
X18638455Y13607501D01*
X18541629Y13555746D01*
X18541626Y13555745D01*
X18343512Y13495647D01*
X18240577Y13485509D01*
X18189111Y13480440D01*
X17085849Y13480440D01*
X17034383Y13485509D01*
X16931448Y13495647D01*
X16733334Y13555745D01*
X16733331Y13555746D01*
X16636505Y13607501D01*
X16550751Y13653337D01*
X16390715Y13784675D01*
X16259377Y13944711D01*
X16166458Y14118551D01*
X16161786Y14127291D01*
X16142232Y14191750D01*
X16101687Y14325408D01*
X16081395Y14531440D01*
X16101687Y14737472D01*
X16161785Y14935586D01*
X16161786Y14935589D01*
X16254705Y15109428D01*
X16259377Y15118169D01*
X16390715Y15278205D01*
X16550751Y15409543D01*
X16636505Y15455379D01*
X16733331Y15507134D01*
X16733334Y15507135D01*
X16931448Y15567233D01*
X17034383Y15577371D01*
X17085849Y15582440D01*
X18189111Y15582440D01*
X18240577Y15577371D01*
G37*
G36*
X49074697Y17983711D02*
G01*
X49177632Y17973573D01*
X49375746Y17913475D01*
X49375749Y17913474D01*
X49472575Y17861719D01*
X49558329Y17815883D01*
X49718365Y17684545D01*
X49849703Y17524509D01*
X49880523Y17466849D01*
X49947294Y17341929D01*
X49947295Y17341926D01*
X50007393Y17143812D01*
X50027685Y16937780D01*
X50007393Y16731748D01*
X49947295Y16533634D01*
X49947294Y16533631D01*
X49916474Y16475972D01*
X49849703Y16351051D01*
X49718365Y16191015D01*
X49558329Y16059677D01*
X49497020Y16026907D01*
X49375749Y15962086D01*
X49375746Y15962085D01*
X49177632Y15901987D01*
X49074697Y15891849D01*
X49023231Y15886780D01*
X47919969Y15886780D01*
X47868503Y15891849D01*
X47765568Y15901987D01*
X47567454Y15962085D01*
X47567451Y15962086D01*
X47446180Y16026907D01*
X47384871Y16059677D01*
X47224835Y16191015D01*
X47093497Y16351051D01*
X47026726Y16475972D01*
X46995906Y16533631D01*
X46995905Y16533634D01*
X46935807Y16731748D01*
X46915515Y16937780D01*
X46935807Y17143812D01*
X46995905Y17341926D01*
X46995906Y17341929D01*
X47062677Y17466849D01*
X47093497Y17524509D01*
X47224835Y17684545D01*
X47384871Y17815883D01*
X47470625Y17861719D01*
X47567451Y17913474D01*
X47567454Y17913475D01*
X47765568Y17973573D01*
X47868503Y17983711D01*
X47919969Y17988780D01*
X49023231Y17988780D01*
X49074697Y17983711D01*
G37*
G36*
X61774697Y17983711D02*
G01*
X61877632Y17973573D01*
X62075746Y17913475D01*
X62075749Y17913474D01*
X62172575Y17861719D01*
X62258329Y17815883D01*
X62418365Y17684545D01*
X62549703Y17524509D01*
X62580523Y17466849D01*
X62647294Y17341929D01*
X62647295Y17341926D01*
X62707393Y17143812D01*
X62727685Y16937780D01*
X62707393Y16731748D01*
X62647295Y16533634D01*
X62647294Y16533631D01*
X62616474Y16475972D01*
X62549703Y16351051D01*
X62418365Y16191015D01*
X62258329Y16059677D01*
X62197020Y16026907D01*
X62075749Y15962086D01*
X62075746Y15962085D01*
X61877632Y15901987D01*
X61774697Y15891849D01*
X61723231Y15886780D01*
X60619969Y15886780D01*
X60568503Y15891849D01*
X60465568Y15901987D01*
X60267454Y15962085D01*
X60267451Y15962086D01*
X60146180Y16026907D01*
X60084871Y16059677D01*
X59924835Y16191015D01*
X59793497Y16351051D01*
X59726726Y16475972D01*
X59695906Y16533631D01*
X59695905Y16533634D01*
X59635807Y16731748D01*
X59615515Y16937780D01*
X59635807Y17143812D01*
X59695905Y17341926D01*
X59695906Y17341929D01*
X59762677Y17466849D01*
X59793497Y17524509D01*
X59924835Y17684545D01*
X60084871Y17815883D01*
X60170625Y17861719D01*
X60267451Y17913474D01*
X60267454Y17913475D01*
X60465568Y17973573D01*
X60568503Y17983711D01*
X60619969Y17988780D01*
X61723231Y17988780D01*
X61774697Y17983711D01*
G37*
G36*
X40487817Y18108631D02*
G01*
X40590752Y18098493D01*
X40788866Y18038395D01*
X40788869Y18038394D01*
X40881690Y17988780D01*
X40971449Y17940803D01*
X41131485Y17809465D01*
X41262823Y17649429D01*
X41308659Y17563675D01*
X41360414Y17466849D01*
X41360415Y17466846D01*
X41420513Y17268732D01*
X41440805Y17062700D01*
X41420513Y16856668D01*
X41382619Y16731750D01*
X41360414Y16658551D01*
X41308659Y16561725D01*
X41262823Y16475971D01*
X41131485Y16315935D01*
X40971449Y16184597D01*
X40885695Y16138761D01*
X40788869Y16087006D01*
X40788866Y16087005D01*
X40590752Y16026907D01*
X40525090Y16020440D01*
X40436351Y16011700D01*
X39333089Y16011700D01*
X39244350Y16020440D01*
X39178688Y16026907D01*
X38980574Y16087005D01*
X38980571Y16087006D01*
X38883745Y16138761D01*
X38797991Y16184597D01*
X38637955Y16315935D01*
X38506617Y16475971D01*
X38460781Y16561725D01*
X38409026Y16658551D01*
X38386821Y16731750D01*
X38348927Y16856668D01*
X38328635Y17062700D01*
X38348927Y17268732D01*
X38409025Y17466846D01*
X38409026Y17466849D01*
X38460781Y17563675D01*
X38506617Y17649429D01*
X38637955Y17809465D01*
X38797991Y17940803D01*
X38887750Y17988780D01*
X38980571Y18038394D01*
X38980574Y18038395D01*
X39178688Y18098493D01*
X39281623Y18108631D01*
X39333089Y18113700D01*
X40436351Y18113700D01*
X40487817Y18108631D01*
G37*
G36*
X27787817Y18108631D02*
G01*
X27890752Y18098493D01*
X28088866Y18038395D01*
X28088869Y18038394D01*
X28181690Y17988780D01*
X28271449Y17940803D01*
X28431485Y17809465D01*
X28562823Y17649429D01*
X28608659Y17563675D01*
X28660414Y17466849D01*
X28660415Y17466846D01*
X28720513Y17268732D01*
X28740805Y17062700D01*
X28720513Y16856668D01*
X28682619Y16731750D01*
X28660414Y16658551D01*
X28608659Y16561725D01*
X28562823Y16475971D01*
X28431485Y16315935D01*
X28271449Y16184597D01*
X28185695Y16138761D01*
X28088869Y16087006D01*
X28088866Y16087005D01*
X27890752Y16026907D01*
X27825090Y16020440D01*
X27736351Y16011700D01*
X26633089Y16011700D01*
X26544350Y16020440D01*
X26478688Y16026907D01*
X26280574Y16087005D01*
X26280571Y16087006D01*
X26183745Y16138761D01*
X26097991Y16184597D01*
X25937955Y16315935D01*
X25806617Y16475971D01*
X25760781Y16561725D01*
X25709026Y16658551D01*
X25686821Y16731750D01*
X25648927Y16856668D01*
X25628635Y17062700D01*
X25648927Y17268732D01*
X25709025Y17466846D01*
X25709026Y17466849D01*
X25760781Y17563675D01*
X25806617Y17649429D01*
X25937955Y17809465D01*
X26097991Y17940803D01*
X26187750Y17988780D01*
X26280571Y18038394D01*
X26280574Y18038395D01*
X26478688Y18098493D01*
X26581623Y18108631D01*
X26633089Y18113700D01*
X27736351Y18113700D01*
X27787817Y18108631D01*
G37*
G36*
X18240577Y18117371D02*
G01*
X18343512Y18107233D01*
X18541626Y18047135D01*
X18541629Y18047134D01*
X18638455Y17995379D01*
X18724209Y17949543D01*
X18884245Y17818205D01*
X19015583Y17658169D01*
X19020255Y17649428D01*
X19113174Y17475589D01*
X19113175Y17475586D01*
X19173273Y17277472D01*
X19193565Y17071440D01*
X19173273Y16865408D01*
X19132728Y16731750D01*
X19113174Y16667291D01*
X19108502Y16658551D01*
X19015583Y16484711D01*
X18884245Y16324675D01*
X18724209Y16193337D01*
X18638455Y16147501D01*
X18541629Y16095746D01*
X18541626Y16095745D01*
X18343512Y16035647D01*
X18240577Y16025509D01*
X18189111Y16020440D01*
X17085849Y16020440D01*
X17034383Y16025509D01*
X16931448Y16035647D01*
X16733334Y16095745D01*
X16733331Y16095746D01*
X16636505Y16147501D01*
X16550751Y16193337D01*
X16390715Y16324675D01*
X16259377Y16484711D01*
X16166458Y16658551D01*
X16161786Y16667291D01*
X16142232Y16731750D01*
X16101687Y16865408D01*
X16081395Y17071440D01*
X16101687Y17277472D01*
X16161785Y17475586D01*
X16161786Y17475589D01*
X16254705Y17649428D01*
X16259377Y17658169D01*
X16390715Y17818205D01*
X16550751Y17949543D01*
X16636505Y17995379D01*
X16733331Y18047134D01*
X16733334Y18047135D01*
X16931448Y18107233D01*
X17034383Y18117371D01*
X17085849Y18122440D01*
X18189111Y18122440D01*
X18240577Y18117371D01*
G37*
G36*
X5540577Y18117371D02*
G01*
X5643512Y18107233D01*
X5841626Y18047135D01*
X5841629Y18047134D01*
X5938455Y17995379D01*
X6024209Y17949543D01*
X6184245Y17818205D01*
X6315583Y17658169D01*
X6320255Y17649428D01*
X6413174Y17475589D01*
X6413175Y17475586D01*
X6473273Y17277472D01*
X6493565Y17071440D01*
X6473273Y16865408D01*
X6432728Y16731750D01*
X6413174Y16667291D01*
X6408502Y16658551D01*
X6315583Y16484711D01*
X6184245Y16324675D01*
X6024209Y16193337D01*
X5938455Y16147501D01*
X5841629Y16095746D01*
X5841626Y16095745D01*
X5643512Y16035647D01*
X5540577Y16025509D01*
X5489111Y16020440D01*
X4385849Y16020440D01*
X4334383Y16025509D01*
X4231448Y16035647D01*
X4033334Y16095745D01*
X4033331Y16095746D01*
X3936505Y16147501D01*
X3850751Y16193337D01*
X3690715Y16324675D01*
X3559377Y16484711D01*
X3466458Y16658551D01*
X3461786Y16667291D01*
X3442232Y16731750D01*
X3401687Y16865408D01*
X3381395Y17071440D01*
X3401687Y17277472D01*
X3461785Y17475586D01*
X3461786Y17475589D01*
X3554705Y17649428D01*
X3559377Y17658169D01*
X3690715Y17818205D01*
X3850751Y17949543D01*
X3936505Y17995379D01*
X4033331Y18047134D01*
X4033334Y18047135D01*
X4231448Y18107233D01*
X4334383Y18117371D01*
X4385849Y18122440D01*
X5489111Y18122440D01*
X5540577Y18117371D01*
G37*
G36*
X49074697Y20523711D02*
G01*
X49177632Y20513573D01*
X49375746Y20453475D01*
X49375749Y20453474D01*
X49472575Y20401719D01*
X49558329Y20355883D01*
X49718365Y20224545D01*
X49849703Y20064509D01*
X49880523Y20006849D01*
X49947294Y19881929D01*
X49947295Y19881926D01*
X50007393Y19683812D01*
X50027685Y19477780D01*
X50007393Y19271748D01*
X49947295Y19073634D01*
X49947294Y19073631D01*
X49916474Y19015972D01*
X49849703Y18891051D01*
X49718365Y18731015D01*
X49558329Y18599677D01*
X49497020Y18566907D01*
X49375749Y18502086D01*
X49375746Y18502085D01*
X49177632Y18441987D01*
X49074697Y18431849D01*
X49023231Y18426780D01*
X47919969Y18426780D01*
X47868503Y18431849D01*
X47765568Y18441987D01*
X47567454Y18502085D01*
X47567451Y18502086D01*
X47446180Y18566907D01*
X47384871Y18599677D01*
X47224835Y18731015D01*
X47093497Y18891051D01*
X47026726Y19015972D01*
X46995906Y19073631D01*
X46995905Y19073634D01*
X46935807Y19271748D01*
X46915515Y19477780D01*
X46935807Y19683812D01*
X46995905Y19881926D01*
X46995906Y19881929D01*
X47062677Y20006849D01*
X47093497Y20064509D01*
X47224835Y20224545D01*
X47384871Y20355883D01*
X47470625Y20401719D01*
X47567451Y20453474D01*
X47567454Y20453475D01*
X47765568Y20513573D01*
X47868503Y20523711D01*
X47919969Y20528780D01*
X49023231Y20528780D01*
X49074697Y20523711D01*
G37*
G36*
X61774697Y20523711D02*
G01*
X61877632Y20513573D01*
X62075746Y20453475D01*
X62075749Y20453474D01*
X62172575Y20401719D01*
X62258329Y20355883D01*
X62418365Y20224545D01*
X62549703Y20064509D01*
X62580523Y20006849D01*
X62647294Y19881929D01*
X62647295Y19881926D01*
X62707393Y19683812D01*
X62727685Y19477780D01*
X62707393Y19271748D01*
X62647295Y19073634D01*
X62647294Y19073631D01*
X62616474Y19015972D01*
X62549703Y18891051D01*
X62418365Y18731015D01*
X62258329Y18599677D01*
X62197020Y18566907D01*
X62075749Y18502086D01*
X62075746Y18502085D01*
X61877632Y18441987D01*
X61774697Y18431849D01*
X61723231Y18426780D01*
X60619969Y18426780D01*
X60568503Y18431849D01*
X60465568Y18441987D01*
X60267454Y18502085D01*
X60267451Y18502086D01*
X60146180Y18566907D01*
X60084871Y18599677D01*
X59924835Y18731015D01*
X59793497Y18891051D01*
X59726726Y19015972D01*
X59695906Y19073631D01*
X59695905Y19073634D01*
X59635807Y19271748D01*
X59615515Y19477780D01*
X59635807Y19683812D01*
X59695905Y19881926D01*
X59695906Y19881929D01*
X59762677Y20006849D01*
X59793497Y20064509D01*
X59924835Y20224545D01*
X60084871Y20355883D01*
X60170625Y20401719D01*
X60267451Y20453474D01*
X60267454Y20453475D01*
X60465568Y20513573D01*
X60568503Y20523711D01*
X60619969Y20528780D01*
X61723231Y20528780D01*
X61774697Y20523711D01*
G37*
G36*
X27787817Y20648631D02*
G01*
X27890752Y20638493D01*
X28088866Y20578395D01*
X28088869Y20578394D01*
X28181690Y20528780D01*
X28271449Y20480803D01*
X28431485Y20349465D01*
X28562823Y20189429D01*
X28608659Y20103675D01*
X28660414Y20006849D01*
X28660415Y20006846D01*
X28720513Y19808732D01*
X28740805Y19602700D01*
X28720513Y19396668D01*
X28682619Y19271750D01*
X28660414Y19198551D01*
X28608659Y19101725D01*
X28562823Y19015971D01*
X28431485Y18855935D01*
X28271449Y18724597D01*
X28185695Y18678761D01*
X28088869Y18627006D01*
X28088866Y18627005D01*
X27890752Y18566907D01*
X27825090Y18560440D01*
X27736351Y18551700D01*
X26633089Y18551700D01*
X26544350Y18560440D01*
X26478688Y18566907D01*
X26280574Y18627005D01*
X26280571Y18627006D01*
X26183745Y18678761D01*
X26097991Y18724597D01*
X25937955Y18855935D01*
X25806617Y19015971D01*
X25760781Y19101725D01*
X25709026Y19198551D01*
X25686821Y19271750D01*
X25648927Y19396668D01*
X25628635Y19602700D01*
X25648927Y19808732D01*
X25709025Y20006846D01*
X25709026Y20006849D01*
X25760781Y20103675D01*
X25806617Y20189429D01*
X25937955Y20349465D01*
X26097991Y20480803D01*
X26187750Y20528780D01*
X26280571Y20578394D01*
X26280574Y20578395D01*
X26478688Y20638493D01*
X26581623Y20648631D01*
X26633089Y20653700D01*
X27736351Y20653700D01*
X27787817Y20648631D01*
G37*
G36*
X40487817Y20648631D02*
G01*
X40590752Y20638493D01*
X40788866Y20578395D01*
X40788869Y20578394D01*
X40881690Y20528780D01*
X40971449Y20480803D01*
X41131485Y20349465D01*
X41262823Y20189429D01*
X41308659Y20103675D01*
X41360414Y20006849D01*
X41360415Y20006846D01*
X41420513Y19808732D01*
X41440805Y19602700D01*
X41420513Y19396668D01*
X41382619Y19271750D01*
X41360414Y19198551D01*
X41308659Y19101725D01*
X41262823Y19015971D01*
X41131485Y18855935D01*
X40971449Y18724597D01*
X40885695Y18678761D01*
X40788869Y18627006D01*
X40788866Y18627005D01*
X40590752Y18566907D01*
X40525090Y18560440D01*
X40436351Y18551700D01*
X39333089Y18551700D01*
X39244350Y18560440D01*
X39178688Y18566907D01*
X38980574Y18627005D01*
X38980571Y18627006D01*
X38883745Y18678761D01*
X38797991Y18724597D01*
X38637955Y18855935D01*
X38506617Y19015971D01*
X38460781Y19101725D01*
X38409026Y19198551D01*
X38386821Y19271750D01*
X38348927Y19396668D01*
X38328635Y19602700D01*
X38348927Y19808732D01*
X38409025Y20006846D01*
X38409026Y20006849D01*
X38460781Y20103675D01*
X38506617Y20189429D01*
X38637955Y20349465D01*
X38797991Y20480803D01*
X38887750Y20528780D01*
X38980571Y20578394D01*
X38980574Y20578395D01*
X39178688Y20638493D01*
X39281623Y20648631D01*
X39333089Y20653700D01*
X40436351Y20653700D01*
X40487817Y20648631D01*
G37*
G36*
X18240577Y20657371D02*
G01*
X18343512Y20647233D01*
X18541626Y20587135D01*
X18541629Y20587134D01*
X18638455Y20535379D01*
X18724209Y20489543D01*
X18884245Y20358205D01*
X19015583Y20198169D01*
X19020255Y20189428D01*
X19113174Y20015589D01*
X19113175Y20015586D01*
X19173273Y19817472D01*
X19193565Y19611440D01*
X19173273Y19405408D01*
X19132728Y19271750D01*
X19113174Y19207291D01*
X19108502Y19198551D01*
X19015583Y19024711D01*
X18884245Y18864675D01*
X18724209Y18733337D01*
X18638455Y18687501D01*
X18541629Y18635746D01*
X18541626Y18635745D01*
X18343512Y18575647D01*
X18240577Y18565509D01*
X18189111Y18560440D01*
X17085849Y18560440D01*
X17034383Y18565509D01*
X16931448Y18575647D01*
X16733334Y18635745D01*
X16733331Y18635746D01*
X16636505Y18687501D01*
X16550751Y18733337D01*
X16390715Y18864675D01*
X16259377Y19024711D01*
X16166458Y19198551D01*
X16161786Y19207291D01*
X16142232Y19271750D01*
X16101687Y19405408D01*
X16081395Y19611440D01*
X16101687Y19817472D01*
X16161785Y20015586D01*
X16161786Y20015589D01*
X16254705Y20189428D01*
X16259377Y20198169D01*
X16390715Y20358205D01*
X16550751Y20489543D01*
X16636505Y20535379D01*
X16733331Y20587134D01*
X16733334Y20587135D01*
X16931448Y20647233D01*
X17034383Y20657371D01*
X17085849Y20662440D01*
X18189111Y20662440D01*
X18240577Y20657371D01*
G37*
G36*
X5540577Y20657371D02*
G01*
X5643512Y20647233D01*
X5841626Y20587135D01*
X5841629Y20587134D01*
X5938455Y20535379D01*
X6024209Y20489543D01*
X6184245Y20358205D01*
X6315583Y20198169D01*
X6320255Y20189428D01*
X6413174Y20015589D01*
X6413175Y20015586D01*
X6473273Y19817472D01*
X6493565Y19611440D01*
X6473273Y19405408D01*
X6432728Y19271750D01*
X6413174Y19207291D01*
X6408502Y19198551D01*
X6315583Y19024711D01*
X6184245Y18864675D01*
X6024209Y18733337D01*
X5938455Y18687501D01*
X5841629Y18635746D01*
X5841626Y18635745D01*
X5643512Y18575647D01*
X5540577Y18565509D01*
X5489111Y18560440D01*
X4385849Y18560440D01*
X4334383Y18565509D01*
X4231448Y18575647D01*
X4033334Y18635745D01*
X4033331Y18635746D01*
X3936505Y18687501D01*
X3850751Y18733337D01*
X3690715Y18864675D01*
X3559377Y19024711D01*
X3466458Y19198551D01*
X3461786Y19207291D01*
X3442232Y19271750D01*
X3401687Y19405408D01*
X3381395Y19611440D01*
X3401687Y19817472D01*
X3461785Y20015586D01*
X3461786Y20015589D01*
X3554705Y20189428D01*
X3559377Y20198169D01*
X3690715Y20358205D01*
X3850751Y20489543D01*
X3936505Y20535379D01*
X4033331Y20587134D01*
X4033334Y20587135D01*
X4231448Y20647233D01*
X4334383Y20657371D01*
X4385849Y20662440D01*
X5489111Y20662440D01*
X5540577Y20657371D01*
G37*
G36*
X49074697Y23063711D02*
G01*
X49177632Y23053573D01*
X49375746Y22993475D01*
X49375749Y22993474D01*
X49472575Y22941719D01*
X49558329Y22895883D01*
X49718365Y22764545D01*
X49849703Y22604509D01*
X49880523Y22546849D01*
X49947294Y22421929D01*
X49947295Y22421926D01*
X50007393Y22223812D01*
X50027685Y22017780D01*
X50007393Y21811748D01*
X49947295Y21613634D01*
X49947294Y21613631D01*
X49916474Y21555972D01*
X49849703Y21431051D01*
X49718365Y21271015D01*
X49558329Y21139677D01*
X49497020Y21106907D01*
X49375749Y21042086D01*
X49375746Y21042085D01*
X49177632Y20981987D01*
X49074697Y20971849D01*
X49023231Y20966780D01*
X47919969Y20966780D01*
X47868503Y20971849D01*
X47765568Y20981987D01*
X47567454Y21042085D01*
X47567451Y21042086D01*
X47446180Y21106907D01*
X47384871Y21139677D01*
X47224835Y21271015D01*
X47093497Y21431051D01*
X47026726Y21555972D01*
X46995906Y21613631D01*
X46995905Y21613634D01*
X46935807Y21811748D01*
X46915515Y22017780D01*
X46935807Y22223812D01*
X46995905Y22421926D01*
X46995906Y22421929D01*
X47062677Y22546849D01*
X47093497Y22604509D01*
X47224835Y22764545D01*
X47384871Y22895883D01*
X47470625Y22941719D01*
X47567451Y22993474D01*
X47567454Y22993475D01*
X47765568Y23053573D01*
X47868503Y23063711D01*
X47919969Y23068780D01*
X49023231Y23068780D01*
X49074697Y23063711D01*
G37*
G36*
X61774697Y23063711D02*
G01*
X61877632Y23053573D01*
X62075746Y22993475D01*
X62075749Y22993474D01*
X62172575Y22941719D01*
X62258329Y22895883D01*
X62418365Y22764545D01*
X62549703Y22604509D01*
X62580523Y22546849D01*
X62647294Y22421929D01*
X62647295Y22421926D01*
X62707393Y22223812D01*
X62727685Y22017780D01*
X62707393Y21811748D01*
X62647295Y21613634D01*
X62647294Y21613631D01*
X62616474Y21555972D01*
X62549703Y21431051D01*
X62418365Y21271015D01*
X62258329Y21139677D01*
X62197020Y21106907D01*
X62075749Y21042086D01*
X62075746Y21042085D01*
X61877632Y20981987D01*
X61774697Y20971849D01*
X61723231Y20966780D01*
X60619969Y20966780D01*
X60568503Y20971849D01*
X60465568Y20981987D01*
X60267454Y21042085D01*
X60267451Y21042086D01*
X60146180Y21106907D01*
X60084871Y21139677D01*
X59924835Y21271015D01*
X59793497Y21431051D01*
X59726726Y21555972D01*
X59695906Y21613631D01*
X59695905Y21613634D01*
X59635807Y21811748D01*
X59615515Y22017780D01*
X59635807Y22223812D01*
X59695905Y22421926D01*
X59695906Y22421929D01*
X59762677Y22546849D01*
X59793497Y22604509D01*
X59924835Y22764545D01*
X60084871Y22895883D01*
X60170625Y22941719D01*
X60267451Y22993474D01*
X60267454Y22993475D01*
X60465568Y23053573D01*
X60568503Y23063711D01*
X60619969Y23068780D01*
X61723231Y23068780D01*
X61774697Y23063711D01*
G37*
G36*
X40487817Y23188631D02*
G01*
X40590752Y23178493D01*
X40788866Y23118395D01*
X40788869Y23118394D01*
X40881690Y23068780D01*
X40971449Y23020803D01*
X41131485Y22889465D01*
X41262823Y22729429D01*
X41308659Y22643675D01*
X41360414Y22546849D01*
X41360415Y22546846D01*
X41420513Y22348732D01*
X41440805Y22142700D01*
X41420513Y21936668D01*
X41382619Y21811750D01*
X41360414Y21738551D01*
X41308659Y21641725D01*
X41262823Y21555971D01*
X41131485Y21395935D01*
X40971449Y21264597D01*
X40885695Y21218761D01*
X40788869Y21167006D01*
X40788866Y21167005D01*
X40590752Y21106907D01*
X40525090Y21100440D01*
X40436351Y21091700D01*
X39333089Y21091700D01*
X39244350Y21100440D01*
X39178688Y21106907D01*
X38980574Y21167005D01*
X38980571Y21167006D01*
X38883745Y21218761D01*
X38797991Y21264597D01*
X38637955Y21395935D01*
X38506617Y21555971D01*
X38460781Y21641725D01*
X38409026Y21738551D01*
X38386821Y21811750D01*
X38348927Y21936668D01*
X38328635Y22142700D01*
X38348927Y22348732D01*
X38409025Y22546846D01*
X38409026Y22546849D01*
X38460781Y22643675D01*
X38506617Y22729429D01*
X38637955Y22889465D01*
X38797991Y23020803D01*
X38887750Y23068780D01*
X38980571Y23118394D01*
X38980574Y23118395D01*
X39178688Y23178493D01*
X39281623Y23188631D01*
X39333089Y23193700D01*
X40436351Y23193700D01*
X40487817Y23188631D01*
G37*
G36*
X27787817Y23188631D02*
G01*
X27890752Y23178493D01*
X28088866Y23118395D01*
X28088869Y23118394D01*
X28181690Y23068780D01*
X28271449Y23020803D01*
X28431485Y22889465D01*
X28562823Y22729429D01*
X28608659Y22643675D01*
X28660414Y22546849D01*
X28660415Y22546846D01*
X28720513Y22348732D01*
X28740805Y22142700D01*
X28720513Y21936668D01*
X28682619Y21811750D01*
X28660414Y21738551D01*
X28608659Y21641725D01*
X28562823Y21555971D01*
X28431485Y21395935D01*
X28271449Y21264597D01*
X28185695Y21218761D01*
X28088869Y21167006D01*
X28088866Y21167005D01*
X27890752Y21106907D01*
X27825090Y21100440D01*
X27736351Y21091700D01*
X26633089Y21091700D01*
X26544350Y21100440D01*
X26478688Y21106907D01*
X26280574Y21167005D01*
X26280571Y21167006D01*
X26183745Y21218761D01*
X26097991Y21264597D01*
X25937955Y21395935D01*
X25806617Y21555971D01*
X25760781Y21641725D01*
X25709026Y21738551D01*
X25686821Y21811750D01*
X25648927Y21936668D01*
X25628635Y22142700D01*
X25648927Y22348732D01*
X25709025Y22546846D01*
X25709026Y22546849D01*
X25760781Y22643675D01*
X25806617Y22729429D01*
X25937955Y22889465D01*
X26097991Y23020803D01*
X26187750Y23068780D01*
X26280571Y23118394D01*
X26280574Y23118395D01*
X26478688Y23178493D01*
X26581623Y23188631D01*
X26633089Y23193700D01*
X27736351Y23193700D01*
X27787817Y23188631D01*
G37*
G36*
X18240577Y23197371D02*
G01*
X18343512Y23187233D01*
X18541626Y23127135D01*
X18541629Y23127134D01*
X18638455Y23075379D01*
X18724209Y23029543D01*
X18884245Y22898205D01*
X19015583Y22738169D01*
X19020255Y22729428D01*
X19113174Y22555589D01*
X19113175Y22555586D01*
X19173273Y22357472D01*
X19193565Y22151440D01*
X19173273Y21945408D01*
X19132728Y21811750D01*
X19113174Y21747291D01*
X19108502Y21738551D01*
X19015583Y21564711D01*
X18884245Y21404675D01*
X18724209Y21273337D01*
X18638455Y21227501D01*
X18541629Y21175746D01*
X18541626Y21175745D01*
X18343512Y21115647D01*
X18240577Y21105509D01*
X18189111Y21100440D01*
X17085849Y21100440D01*
X17034383Y21105509D01*
X16931448Y21115647D01*
X16733334Y21175745D01*
X16733331Y21175746D01*
X16636505Y21227501D01*
X16550751Y21273337D01*
X16390715Y21404675D01*
X16259377Y21564711D01*
X16166458Y21738551D01*
X16161786Y21747291D01*
X16142232Y21811750D01*
X16101687Y21945408D01*
X16081395Y22151440D01*
X16101687Y22357472D01*
X16161785Y22555586D01*
X16161786Y22555589D01*
X16254705Y22729428D01*
X16259377Y22738169D01*
X16390715Y22898205D01*
X16550751Y23029543D01*
X16636505Y23075379D01*
X16733331Y23127134D01*
X16733334Y23127135D01*
X16931448Y23187233D01*
X17034383Y23197371D01*
X17085849Y23202440D01*
X18189111Y23202440D01*
X18240577Y23197371D01*
G37*
G36*
X5540577Y23197371D02*
G01*
X5643512Y23187233D01*
X5841626Y23127135D01*
X5841629Y23127134D01*
X5938455Y23075379D01*
X6024209Y23029543D01*
X6184245Y22898205D01*
X6315583Y22738169D01*
X6320255Y22729428D01*
X6413174Y22555589D01*
X6413175Y22555586D01*
X6473273Y22357472D01*
X6493565Y22151440D01*
X6473273Y21945408D01*
X6432728Y21811750D01*
X6413174Y21747291D01*
X6408502Y21738551D01*
X6315583Y21564711D01*
X6184245Y21404675D01*
X6024209Y21273337D01*
X5938455Y21227501D01*
X5841629Y21175746D01*
X5841626Y21175745D01*
X5643512Y21115647D01*
X5540577Y21105509D01*
X5489111Y21100440D01*
X4385849Y21100440D01*
X4334383Y21105509D01*
X4231448Y21115647D01*
X4033334Y21175745D01*
X4033331Y21175746D01*
X3936505Y21227501D01*
X3850751Y21273337D01*
X3690715Y21404675D01*
X3559377Y21564711D01*
X3466458Y21738551D01*
X3461786Y21747291D01*
X3442232Y21811750D01*
X3401687Y21945408D01*
X3381395Y22151440D01*
X3401687Y22357472D01*
X3461785Y22555586D01*
X3461786Y22555589D01*
X3554705Y22729428D01*
X3559377Y22738169D01*
X3690715Y22898205D01*
X3850751Y23029543D01*
X3936505Y23075379D01*
X4033331Y23127134D01*
X4033334Y23127135D01*
X4231448Y23187233D01*
X4334383Y23197371D01*
X4385849Y23202440D01*
X5489111Y23202440D01*
X5540577Y23197371D01*
G37*
G36*
X49074697Y25603711D02*
G01*
X49177632Y25593573D01*
X49375746Y25533475D01*
X49375749Y25533474D01*
X49472575Y25481719D01*
X49558329Y25435883D01*
X49718365Y25304545D01*
X49849703Y25144509D01*
X49880523Y25086849D01*
X49947294Y24961929D01*
X49947295Y24961926D01*
X50007393Y24763812D01*
X50027685Y24557780D01*
X50007393Y24351748D01*
X49966068Y24215521D01*
X49947294Y24153631D01*
X49917881Y24098604D01*
X49849703Y23971051D01*
X49718365Y23811015D01*
X49558329Y23679677D01*
X49497020Y23646907D01*
X49375749Y23582086D01*
X49375746Y23582085D01*
X49177632Y23521987D01*
X49074697Y23511849D01*
X49023231Y23506780D01*
X47919969Y23506780D01*
X47868503Y23511849D01*
X47765568Y23521987D01*
X47567454Y23582085D01*
X47567451Y23582086D01*
X47446180Y23646907D01*
X47384871Y23679677D01*
X47224835Y23811015D01*
X47093497Y23971051D01*
X47025319Y24098604D01*
X46995906Y24153631D01*
X46977132Y24215521D01*
X46935807Y24351748D01*
X46915515Y24557780D01*
X46935807Y24763812D01*
X46995905Y24961926D01*
X46995906Y24961929D01*
X47062677Y25086849D01*
X47093497Y25144509D01*
X47224835Y25304545D01*
X47384871Y25435883D01*
X47470625Y25481719D01*
X47567451Y25533474D01*
X47567454Y25533475D01*
X47765568Y25593573D01*
X47868503Y25603711D01*
X47919969Y25608780D01*
X49023231Y25608780D01*
X49074697Y25603711D01*
G37*
G36*
X61774697Y25603711D02*
G01*
X61877632Y25593573D01*
X62075746Y25533475D01*
X62075749Y25533474D01*
X62172575Y25481719D01*
X62258329Y25435883D01*
X62418365Y25304545D01*
X62549703Y25144509D01*
X62580523Y25086849D01*
X62647294Y24961929D01*
X62647295Y24961926D01*
X62707393Y24763812D01*
X62727685Y24557780D01*
X62707393Y24351748D01*
X62666068Y24215521D01*
X62647294Y24153631D01*
X62617881Y24098604D01*
X62549703Y23971051D01*
X62418365Y23811015D01*
X62258329Y23679677D01*
X62197020Y23646907D01*
X62075749Y23582086D01*
X62075746Y23582085D01*
X61877632Y23521987D01*
X61774697Y23511849D01*
X61723231Y23506780D01*
X60619969Y23506780D01*
X60568503Y23511849D01*
X60465568Y23521987D01*
X60267454Y23582085D01*
X60267451Y23582086D01*
X60146180Y23646907D01*
X60084871Y23679677D01*
X59924835Y23811015D01*
X59793497Y23971051D01*
X59725319Y24098604D01*
X59695906Y24153631D01*
X59677132Y24215521D01*
X59635807Y24351748D01*
X59615515Y24557780D01*
X59635807Y24763812D01*
X59695905Y24961926D01*
X59695906Y24961929D01*
X59762677Y25086849D01*
X59793497Y25144509D01*
X59924835Y25304545D01*
X60084871Y25435883D01*
X60170625Y25481719D01*
X60267451Y25533474D01*
X60267454Y25533475D01*
X60465568Y25593573D01*
X60568503Y25603711D01*
X60619969Y25608780D01*
X61723231Y25608780D01*
X61774697Y25603711D01*
G37*
G36*
X40487817Y25728631D02*
G01*
X40590752Y25718493D01*
X40788866Y25658395D01*
X40788869Y25658394D01*
X40881690Y25608780D01*
X40971449Y25560803D01*
X41131485Y25429465D01*
X41262823Y25269429D01*
X41302432Y25195326D01*
X41360414Y25086849D01*
X41360415Y25086846D01*
X41420513Y24888732D01*
X41440805Y24682700D01*
X41420513Y24476668D01*
X41382619Y24351750D01*
X41360414Y24278551D01*
X41310688Y24185521D01*
X41262823Y24095971D01*
X41131485Y23935935D01*
X40971449Y23804597D01*
X40885695Y23758761D01*
X40788869Y23707006D01*
X40788866Y23707005D01*
X40590752Y23646907D01*
X40525090Y23640440D01*
X40436351Y23631700D01*
X39333089Y23631700D01*
X39244350Y23640440D01*
X39178688Y23646907D01*
X38980574Y23707005D01*
X38980571Y23707006D01*
X38883745Y23758761D01*
X38797991Y23804597D01*
X38637955Y23935935D01*
X38506617Y24095971D01*
X38458752Y24185521D01*
X38409026Y24278551D01*
X38386821Y24351750D01*
X38348927Y24476668D01*
X38328635Y24682700D01*
X38348927Y24888732D01*
X38409025Y25086846D01*
X38409026Y25086849D01*
X38467008Y25195326D01*
X38506617Y25269429D01*
X38637955Y25429465D01*
X38797991Y25560803D01*
X38887750Y25608780D01*
X38980571Y25658394D01*
X38980574Y25658395D01*
X39178688Y25718493D01*
X39281623Y25728631D01*
X39333089Y25733700D01*
X40436351Y25733700D01*
X40487817Y25728631D01*
G37*
G36*
X27787817Y25728631D02*
G01*
X27890752Y25718493D01*
X28088866Y25658395D01*
X28088869Y25658394D01*
X28181690Y25608780D01*
X28271449Y25560803D01*
X28431485Y25429465D01*
X28562823Y25269429D01*
X28602432Y25195326D01*
X28660414Y25086849D01*
X28660415Y25086846D01*
X28720513Y24888732D01*
X28740805Y24682700D01*
X28720513Y24476668D01*
X28682619Y24351750D01*
X28660414Y24278551D01*
X28610688Y24185521D01*
X28562823Y24095971D01*
X28431485Y23935935D01*
X28271449Y23804597D01*
X28185695Y23758761D01*
X28088869Y23707006D01*
X28088866Y23707005D01*
X27890752Y23646907D01*
X27825090Y23640440D01*
X27736351Y23631700D01*
X26633089Y23631700D01*
X26544350Y23640440D01*
X26478688Y23646907D01*
X26280574Y23707005D01*
X26280571Y23707006D01*
X26183745Y23758761D01*
X26097991Y23804597D01*
X25937955Y23935935D01*
X25806617Y24095971D01*
X25758752Y24185521D01*
X25709026Y24278551D01*
X25686821Y24351750D01*
X25648927Y24476668D01*
X25628635Y24682700D01*
X25648927Y24888732D01*
X25709025Y25086846D01*
X25709026Y25086849D01*
X25767008Y25195326D01*
X25806617Y25269429D01*
X25937955Y25429465D01*
X26097991Y25560803D01*
X26187750Y25608780D01*
X26280571Y25658394D01*
X26280574Y25658395D01*
X26478688Y25718493D01*
X26581623Y25728631D01*
X26633089Y25733700D01*
X27736351Y25733700D01*
X27787817Y25728631D01*
G37*
G36*
X5540577Y25737371D02*
G01*
X5643512Y25727233D01*
X5841626Y25667135D01*
X5841629Y25667134D01*
X5938455Y25615379D01*
X6024209Y25569543D01*
X6184245Y25438205D01*
X6315583Y25278169D01*
X6320255Y25269428D01*
X6413174Y25095589D01*
X6413175Y25095586D01*
X6473273Y24897472D01*
X6493565Y24691440D01*
X6473273Y24485408D01*
X6433792Y24355259D01*
X6413174Y24287291D01*
X6408502Y24278551D01*
X6315583Y24104711D01*
X6184245Y23944675D01*
X6024209Y23813337D01*
X5938455Y23767501D01*
X5841629Y23715746D01*
X5841626Y23715745D01*
X5643512Y23655647D01*
X5540577Y23645509D01*
X5489111Y23640440D01*
X4385849Y23640440D01*
X4334383Y23645509D01*
X4231448Y23655647D01*
X4033334Y23715745D01*
X4033331Y23715746D01*
X3936505Y23767501D01*
X3850751Y23813337D01*
X3690715Y23944675D01*
X3559377Y24104711D01*
X3466458Y24278551D01*
X3461786Y24287291D01*
X3441168Y24355259D01*
X3401687Y24485408D01*
X3381395Y24691440D01*
X3401687Y24897472D01*
X3461785Y25095586D01*
X3461786Y25095589D01*
X3554705Y25269428D01*
X3559377Y25278169D01*
X3690715Y25438205D01*
X3850751Y25569543D01*
X3936505Y25615379D01*
X4033331Y25667134D01*
X4033334Y25667135D01*
X4231448Y25727233D01*
X4334383Y25737371D01*
X4385849Y25742440D01*
X5489111Y25742440D01*
X5540577Y25737371D01*
G37*
G36*
X18240577Y25737371D02*
G01*
X18343512Y25727233D01*
X18541626Y25667135D01*
X18541629Y25667134D01*
X18638455Y25615379D01*
X18724209Y25569543D01*
X18884245Y25438205D01*
X19015583Y25278169D01*
X19020255Y25269428D01*
X19113174Y25095589D01*
X19113175Y25095586D01*
X19173273Y24897472D01*
X19193565Y24691440D01*
X19173273Y24485408D01*
X19133792Y24355259D01*
X19113174Y24287291D01*
X19108502Y24278551D01*
X19015583Y24104711D01*
X18884245Y23944675D01*
X18724209Y23813337D01*
X18638455Y23767501D01*
X18541629Y23715746D01*
X18541626Y23715745D01*
X18343512Y23655647D01*
X18240577Y23645509D01*
X18189111Y23640440D01*
X17085849Y23640440D01*
X17034383Y23645509D01*
X16931448Y23655647D01*
X16733334Y23715745D01*
X16733331Y23715746D01*
X16636505Y23767501D01*
X16550751Y23813337D01*
X16390715Y23944675D01*
X16259377Y24104711D01*
X16166458Y24278551D01*
X16161786Y24287291D01*
X16141168Y24355259D01*
X16101687Y24485408D01*
X16081395Y24691440D01*
X16101687Y24897472D01*
X16161785Y25095586D01*
X16161786Y25095589D01*
X16254705Y25269428D01*
X16259377Y25278169D01*
X16390715Y25438205D01*
X16550751Y25569543D01*
X16636505Y25615379D01*
X16733331Y25667134D01*
X16733334Y25667135D01*
X16931448Y25727233D01*
X17034383Y25737371D01*
X17085849Y25742440D01*
X18189111Y25742440D01*
X18240577Y25737371D01*
G37*
G36*
X52701590Y27081396D02*
G01*
X52852410Y27051396D01*
X53134674Y26934479D01*
X53388705Y26764741D01*
X53604741Y26548705D01*
X53774479Y26294674D01*
X53878970Y26042409D01*
X53891396Y26012409D01*
X53945033Y25742761D01*
X53951000Y25712760D01*
X53951000Y25407240D01*
X53891396Y25107590D01*
X53774479Y24825326D01*
X53604741Y24571295D01*
X53388705Y24355259D01*
X53134674Y24185521D01*
X52852410Y24068604D01*
X52703580Y24039000D01*
X52552761Y24009000D01*
X52247239Y24009000D01*
X52096420Y24039000D01*
X51947590Y24068604D01*
X51665326Y24185521D01*
X51411295Y24355259D01*
X51195259Y24571295D01*
X51025521Y24825326D01*
X50908604Y25107590D01*
X50849000Y25407240D01*
X50849000Y25712760D01*
X50854968Y25742761D01*
X50908604Y26012409D01*
X50921030Y26042409D01*
X51025521Y26294674D01*
X51195259Y26548705D01*
X51411295Y26764741D01*
X51665326Y26934479D01*
X51947590Y27051396D01*
X52098410Y27081396D01*
X52247239Y27111000D01*
X52552761Y27111000D01*
X52701590Y27081396D01*
G37*
G36*
X57701590Y27081396D02*
G01*
X57852410Y27051396D01*
X58134674Y26934479D01*
X58388705Y26764741D01*
X58604741Y26548705D01*
X58774479Y26294674D01*
X58878970Y26042409D01*
X58891396Y26012409D01*
X58945033Y25742761D01*
X58951000Y25712760D01*
X58951000Y25407240D01*
X58891396Y25107590D01*
X58774479Y24825326D01*
X58604741Y24571295D01*
X58388705Y24355259D01*
X58134674Y24185521D01*
X57852410Y24068604D01*
X57703580Y24039000D01*
X57552761Y24009000D01*
X57247239Y24009000D01*
X57096420Y24039000D01*
X56947590Y24068604D01*
X56665326Y24185521D01*
X56411295Y24355259D01*
X56195259Y24571295D01*
X56025521Y24825326D01*
X55908604Y25107590D01*
X55849000Y25407240D01*
X55849000Y25712760D01*
X55854968Y25742761D01*
X55908604Y26012409D01*
X55921030Y26042409D01*
X56025521Y26294674D01*
X56195259Y26548705D01*
X56411295Y26764741D01*
X56665326Y26934479D01*
X56947590Y27051396D01*
X57098410Y27081396D01*
X57247239Y27111000D01*
X57552761Y27111000D01*
X57701590Y27081396D01*
G37*
G36*
X31262585Y27111198D02*
G01*
X31412410Y27081396D01*
X31694674Y26964479D01*
X31948705Y26794741D01*
X32164741Y26578705D01*
X32334479Y26324674D01*
X32451396Y26042410D01*
X32481198Y25892585D01*
X32511000Y25742761D01*
X32511000Y25437239D01*
X32484605Y25304545D01*
X32451396Y25137590D01*
X32334479Y24855326D01*
X32164741Y24601295D01*
X31948705Y24385259D01*
X31694674Y24215521D01*
X31412410Y24098604D01*
X31262585Y24068802D01*
X31112761Y24039000D01*
X30807239Y24039000D01*
X30657415Y24068802D01*
X30507590Y24098604D01*
X30225326Y24215521D01*
X29971295Y24385259D01*
X29755259Y24601295D01*
X29585521Y24855326D01*
X29468604Y25137590D01*
X29435395Y25304545D01*
X29409000Y25437239D01*
X29409000Y25742761D01*
X29438802Y25892585D01*
X29468604Y26042410D01*
X29585521Y26324674D01*
X29755259Y26578705D01*
X29971295Y26794741D01*
X30225326Y26964479D01*
X30507590Y27081396D01*
X30657415Y27111198D01*
X30807239Y27141000D01*
X31112761Y27141000D01*
X31262585Y27111198D01*
G37*
G36*
X36262585Y27111198D02*
G01*
X36412410Y27081396D01*
X36694674Y26964479D01*
X36948705Y26794741D01*
X37164741Y26578705D01*
X37334479Y26324674D01*
X37451396Y26042410D01*
X37481198Y25892585D01*
X37511000Y25742761D01*
X37511000Y25437239D01*
X37484605Y25304545D01*
X37451396Y25137590D01*
X37334479Y24855326D01*
X37164741Y24601295D01*
X36948705Y24385259D01*
X36694674Y24215521D01*
X36412410Y24098604D01*
X36262585Y24068802D01*
X36112761Y24039000D01*
X35807239Y24039000D01*
X35657415Y24068802D01*
X35507590Y24098604D01*
X35225326Y24215521D01*
X34971295Y24385259D01*
X34755259Y24601295D01*
X34585521Y24855326D01*
X34468604Y25137590D01*
X34435395Y25304545D01*
X34409000Y25437239D01*
X34409000Y25742761D01*
X34438802Y25892585D01*
X34468604Y26042410D01*
X34585521Y26324674D01*
X34755259Y26578705D01*
X34971295Y26794741D01*
X35225326Y26964479D01*
X35507590Y27081396D01*
X35657415Y27111198D01*
X35807239Y27141000D01*
X36112761Y27141000D01*
X36262585Y27111198D01*
G37*
G36*
X14182585Y27451198D02*
G01*
X14332410Y27421396D01*
X14614674Y27304479D01*
X14868705Y27134741D01*
X15084741Y26918705D01*
X15254479Y26664674D01*
X15371396Y26382410D01*
X15371396Y26382409D01*
X15431000Y26082761D01*
X15431000Y25777239D01*
X15421053Y25727233D01*
X15371396Y25477590D01*
X15254479Y25195326D01*
X15084741Y24941295D01*
X14868705Y24725259D01*
X14614674Y24555521D01*
X14332410Y24438604D01*
X14182585Y24408802D01*
X14032761Y24379000D01*
X13727239Y24379000D01*
X13577415Y24408802D01*
X13427590Y24438604D01*
X13145326Y24555521D01*
X12891295Y24725259D01*
X12675259Y24941295D01*
X12505521Y25195326D01*
X12388604Y25477590D01*
X12338947Y25727233D01*
X12329000Y25777239D01*
X12329000Y26082761D01*
X12388604Y26382409D01*
X12388604Y26382410D01*
X12505521Y26664674D01*
X12675259Y26918705D01*
X12891295Y27134741D01*
X13145326Y27304479D01*
X13427590Y27421396D01*
X13577415Y27451198D01*
X13727239Y27481000D01*
X14032761Y27481000D01*
X14182585Y27451198D01*
G37*
G36*
X9182585Y27451198D02*
G01*
X9332410Y27421396D01*
X9614674Y27304479D01*
X9868705Y27134741D01*
X10084741Y26918705D01*
X10254479Y26664674D01*
X10371396Y26382410D01*
X10371396Y26382409D01*
X10431000Y26082761D01*
X10431000Y25777239D01*
X10421053Y25727233D01*
X10371396Y25477590D01*
X10254479Y25195326D01*
X10084741Y24941295D01*
X9868705Y24725259D01*
X9614674Y24555521D01*
X9332410Y24438604D01*
X9182585Y24408802D01*
X9032761Y24379000D01*
X8727239Y24379000D01*
X8577415Y24408802D01*
X8427590Y24438604D01*
X8145326Y24555521D01*
X7891295Y24725259D01*
X7675259Y24941295D01*
X7505521Y25195326D01*
X7388604Y25477590D01*
X7338947Y25727233D01*
X7329000Y25777239D01*
X7329000Y26082761D01*
X7388604Y26382409D01*
X7388604Y26382410D01*
X7505521Y26664674D01*
X7675259Y26918705D01*
X7891295Y27134741D01*
X8145326Y27304479D01*
X8427590Y27421396D01*
X8577415Y27451198D01*
X8727239Y27481000D01*
X9032761Y27481000D01*
X9182585Y27451198D01*
G37*
G36*
X50022600Y26046780D02*
G01*
X46920600Y26046780D01*
X46920600Y28148780D01*
X50022600Y28148780D01*
X50022600Y26046780D01*
G37*
G36*
X62722600Y26046780D02*
G01*
X59620600Y26046780D01*
X59620600Y28148780D01*
X62722600Y28148780D01*
X62722600Y26046780D01*
G37*
G36*
X28735720Y26171700D02*
G01*
X25633720Y26171700D01*
X25633720Y28273700D01*
X28735720Y28273700D01*
X28735720Y26171700D01*
G37*
G36*
X41435720Y26171700D02*
G01*
X38333720Y26171700D01*
X38333720Y28273700D01*
X41435720Y28273700D01*
X41435720Y26171700D01*
G37*
G36*
X19188480Y26180440D02*
G01*
X16086480Y26180440D01*
X16086480Y28282440D01*
X19188480Y28282440D01*
X19188480Y26180440D01*
G37*
G36*
X6488480Y26180440D02*
G01*
X3386480Y26180440D01*
X3386480Y28282440D01*
X6488480Y28282440D01*
X6488480Y26180440D01*
G37*
G36*
X35014292Y36153733D02*
G01*
X35212406Y36093635D01*
X35212409Y36093634D01*
X35309235Y36041879D01*
X35394989Y35996043D01*
X35555025Y35864705D01*
X35686363Y35704669D01*
X35732199Y35618915D01*
X35783954Y35522089D01*
X35783955Y35522086D01*
X35844053Y35323972D01*
X35859260Y35169570D01*
X35859260Y34066310D01*
X35844053Y33911908D01*
X35783955Y33713795D01*
X35783954Y33713791D01*
X35732199Y33616965D01*
X35686363Y33531211D01*
X35555025Y33371175D01*
X35394989Y33239837D01*
X35278290Y33177461D01*
X35212408Y33142246D01*
X35212405Y33142245D01*
X35014291Y33082147D01*
X34808260Y33061855D01*
X34602228Y33082147D01*
X34404114Y33142245D01*
X34404111Y33142246D01*
X34307285Y33194001D01*
X34221531Y33239837D01*
X34061495Y33371175D01*
X33930157Y33531211D01*
X33832567Y33713791D01*
X33832566Y33713792D01*
X33832565Y33713795D01*
X33772467Y33911909D01*
X33757260Y34066311D01*
X33757260Y35169571D01*
X33772467Y35323970D01*
X33832565Y35522087D01*
X33907444Y35662174D01*
X33930158Y35704669D01*
X34061496Y35864705D01*
X34221532Y35996043D01*
X34307286Y36041879D01*
X34404112Y36093634D01*
X34404115Y36093635D01*
X34602229Y36153733D01*
X34808260Y36174025D01*
X35014292Y36153733D01*
G37*
G36*
X37554292Y36153733D02*
G01*
X37752406Y36093635D01*
X37752409Y36093634D01*
X37849235Y36041879D01*
X37934989Y35996043D01*
X38095025Y35864705D01*
X38226363Y35704669D01*
X38272199Y35618915D01*
X38323954Y35522089D01*
X38323955Y35522086D01*
X38384053Y35323972D01*
X38399260Y35169570D01*
X38399260Y34066310D01*
X38384053Y33911908D01*
X38323955Y33713795D01*
X38323954Y33713791D01*
X38272199Y33616965D01*
X38226363Y33531211D01*
X38095025Y33371175D01*
X37934989Y33239837D01*
X37818290Y33177461D01*
X37752408Y33142246D01*
X37752405Y33142245D01*
X37554291Y33082147D01*
X37348260Y33061855D01*
X37142228Y33082147D01*
X36944114Y33142245D01*
X36944111Y33142246D01*
X36847285Y33194001D01*
X36761531Y33239837D01*
X36601495Y33371175D01*
X36470157Y33531211D01*
X36372567Y33713791D01*
X36372566Y33713792D01*
X36372565Y33713795D01*
X36312467Y33911909D01*
X36297260Y34066311D01*
X36297260Y35169571D01*
X36312467Y35323970D01*
X36372565Y35522087D01*
X36447444Y35662174D01*
X36470158Y35704669D01*
X36601496Y35864705D01*
X36761532Y35996043D01*
X36847286Y36041879D01*
X36944112Y36093634D01*
X36944115Y36093635D01*
X37142229Y36153733D01*
X37348260Y36174025D01*
X37554292Y36153733D01*
G37*
G36*
X40094292Y36153733D02*
G01*
X40292406Y36093635D01*
X40292409Y36093634D01*
X40389235Y36041879D01*
X40474989Y35996043D01*
X40635025Y35864705D01*
X40766363Y35704669D01*
X40812199Y35618915D01*
X40863954Y35522089D01*
X40863955Y35522086D01*
X40924053Y35323972D01*
X40939260Y35169570D01*
X40939260Y34066310D01*
X40924053Y33911908D01*
X40863955Y33713795D01*
X40863954Y33713791D01*
X40812199Y33616965D01*
X40766363Y33531211D01*
X40635025Y33371175D01*
X40474989Y33239837D01*
X40358290Y33177461D01*
X40292408Y33142246D01*
X40292405Y33142245D01*
X40094291Y33082147D01*
X39888260Y33061855D01*
X39682228Y33082147D01*
X39484114Y33142245D01*
X39484111Y33142246D01*
X39387285Y33194001D01*
X39301531Y33239837D01*
X39141495Y33371175D01*
X39010157Y33531211D01*
X38912567Y33713791D01*
X38912566Y33713792D01*
X38912565Y33713795D01*
X38852467Y33911909D01*
X38837260Y34066311D01*
X38837260Y35169571D01*
X38852467Y35323970D01*
X38912565Y35522087D01*
X38987444Y35662174D01*
X39010158Y35704669D01*
X39141496Y35864705D01*
X39301532Y35996043D01*
X39387286Y36041879D01*
X39484112Y36093634D01*
X39484115Y36093635D01*
X39682229Y36153733D01*
X39888260Y36174025D01*
X40094292Y36153733D01*
G37*
G36*
X42634292Y36153733D02*
G01*
X42832406Y36093635D01*
X42832409Y36093634D01*
X42929235Y36041879D01*
X43014989Y35996043D01*
X43175025Y35864705D01*
X43306363Y35704669D01*
X43352199Y35618915D01*
X43403954Y35522089D01*
X43403955Y35522086D01*
X43464053Y35323972D01*
X43479260Y35169570D01*
X43479260Y34066310D01*
X43464053Y33911908D01*
X43403955Y33713795D01*
X43403954Y33713791D01*
X43352199Y33616965D01*
X43306363Y33531211D01*
X43175025Y33371175D01*
X43014989Y33239837D01*
X42898290Y33177461D01*
X42832408Y33142246D01*
X42832405Y33142245D01*
X42634291Y33082147D01*
X42428260Y33061855D01*
X42222228Y33082147D01*
X42024114Y33142245D01*
X42024111Y33142246D01*
X41927285Y33194001D01*
X41841531Y33239837D01*
X41681495Y33371175D01*
X41550157Y33531211D01*
X41452567Y33713791D01*
X41452566Y33713792D01*
X41452565Y33713795D01*
X41392467Y33911909D01*
X41377260Y34066311D01*
X41377260Y35169571D01*
X41392467Y35323970D01*
X41452565Y35522087D01*
X41527444Y35662174D01*
X41550158Y35704669D01*
X41681496Y35864705D01*
X41841532Y35996043D01*
X41927286Y36041879D01*
X42024112Y36093634D01*
X42024115Y36093635D01*
X42222229Y36153733D01*
X42428260Y36174025D01*
X42634292Y36153733D01*
G37*
G36*
X45174292Y36153733D02*
G01*
X45372406Y36093635D01*
X45372409Y36093634D01*
X45469235Y36041879D01*
X45554989Y35996043D01*
X45715025Y35864705D01*
X45846363Y35704669D01*
X45892199Y35618915D01*
X45943954Y35522089D01*
X45943955Y35522086D01*
X46004053Y35323972D01*
X46019260Y35169570D01*
X46019260Y34066310D01*
X46004053Y33911908D01*
X45943955Y33713795D01*
X45943954Y33713791D01*
X45892199Y33616965D01*
X45846363Y33531211D01*
X45715025Y33371175D01*
X45554989Y33239837D01*
X45438290Y33177461D01*
X45372408Y33142246D01*
X45372405Y33142245D01*
X45174291Y33082147D01*
X44968260Y33061855D01*
X44762228Y33082147D01*
X44564114Y33142245D01*
X44564111Y33142246D01*
X44467285Y33194001D01*
X44381531Y33239837D01*
X44221495Y33371175D01*
X44090157Y33531211D01*
X43992567Y33713791D01*
X43992566Y33713792D01*
X43992565Y33713795D01*
X43932467Y33911909D01*
X43917260Y34066311D01*
X43917260Y35169571D01*
X43932467Y35323970D01*
X43992565Y35522087D01*
X44067444Y35662174D01*
X44090158Y35704669D01*
X44221496Y35864705D01*
X44381532Y35996043D01*
X44467286Y36041879D01*
X44564112Y36093634D01*
X44564115Y36093635D01*
X44762229Y36153733D01*
X44968260Y36174025D01*
X45174292Y36153733D01*
G37*
G36*
X47714292Y36153733D02*
G01*
X47912406Y36093635D01*
X47912409Y36093634D01*
X48009235Y36041879D01*
X48094989Y35996043D01*
X48255025Y35864705D01*
X48386363Y35704669D01*
X48432199Y35618915D01*
X48483954Y35522089D01*
X48483955Y35522086D01*
X48544053Y35323972D01*
X48559260Y35169570D01*
X48559260Y34066310D01*
X48544053Y33911908D01*
X48483955Y33713795D01*
X48483954Y33713791D01*
X48432199Y33616965D01*
X48386363Y33531211D01*
X48255025Y33371175D01*
X48094989Y33239837D01*
X47978290Y33177461D01*
X47912408Y33142246D01*
X47912405Y33142245D01*
X47714291Y33082147D01*
X47508260Y33061855D01*
X47302228Y33082147D01*
X47104114Y33142245D01*
X47104111Y33142246D01*
X47007285Y33194001D01*
X46921531Y33239837D01*
X46761495Y33371175D01*
X46630157Y33531211D01*
X46532567Y33713791D01*
X46532566Y33713792D01*
X46532565Y33713795D01*
X46472467Y33911909D01*
X46457260Y34066311D01*
X46457260Y35169571D01*
X46472467Y35323970D01*
X46532565Y35522087D01*
X46607444Y35662174D01*
X46630158Y35704669D01*
X46761496Y35864705D01*
X46921532Y35996043D01*
X47007286Y36041879D01*
X47104112Y36093634D01*
X47104115Y36093635D01*
X47302229Y36153733D01*
X47508260Y36174025D01*
X47714292Y36153733D01*
G37*
G36*
X32474292Y36153733D02*
G01*
X32672406Y36093635D01*
X32672409Y36093634D01*
X32769235Y36041879D01*
X32854989Y35996043D01*
X33015025Y35864705D01*
X33146363Y35704669D01*
X33192199Y35618915D01*
X33243954Y35522089D01*
X33243955Y35522086D01*
X33304053Y35323972D01*
X33319260Y35169570D01*
X33319260Y34066310D01*
X33304053Y33911908D01*
X33243955Y33713795D01*
X33243954Y33713791D01*
X33192199Y33616965D01*
X33146363Y33531211D01*
X33015025Y33371175D01*
X32854989Y33239837D01*
X32738290Y33177461D01*
X32672408Y33142246D01*
X32672405Y33142245D01*
X32474291Y33082147D01*
X32268260Y33061855D01*
X32062228Y33082147D01*
X31864114Y33142245D01*
X31864111Y33142246D01*
X31767285Y33194001D01*
X31681531Y33239837D01*
X31521495Y33371175D01*
X31390157Y33531211D01*
X31292567Y33713791D01*
X31292566Y33713792D01*
X31292565Y33713795D01*
X31232467Y33911909D01*
X31217260Y34066311D01*
X31217260Y35169571D01*
X31232467Y35323970D01*
X31292565Y35522087D01*
X31367444Y35662174D01*
X31390158Y35704669D01*
X31521496Y35864705D01*
X31681532Y35996043D01*
X31767286Y36041879D01*
X31864112Y36093634D01*
X31864115Y36093635D01*
X32062229Y36153733D01*
X32268260Y36174025D01*
X32474292Y36153733D01*
G37*
G36*
X29934292Y36153733D02*
G01*
X30132406Y36093635D01*
X30132409Y36093634D01*
X30229235Y36041879D01*
X30314989Y35996043D01*
X30475025Y35864705D01*
X30606363Y35704669D01*
X30652199Y35618915D01*
X30703954Y35522089D01*
X30703955Y35522086D01*
X30764053Y35323972D01*
X30779260Y35169570D01*
X30779260Y34066310D01*
X30764053Y33911908D01*
X30703955Y33713795D01*
X30703954Y33713791D01*
X30652199Y33616965D01*
X30606363Y33531211D01*
X30475025Y33371175D01*
X30314989Y33239837D01*
X30198290Y33177461D01*
X30132408Y33142246D01*
X30132405Y33142245D01*
X29934291Y33082147D01*
X29728260Y33061855D01*
X29522228Y33082147D01*
X29324114Y33142245D01*
X29324111Y33142246D01*
X29227285Y33194001D01*
X29141531Y33239837D01*
X28981495Y33371175D01*
X28850157Y33531211D01*
X28752567Y33713791D01*
X28752566Y33713792D01*
X28752565Y33713795D01*
X28692467Y33911909D01*
X28677260Y34066311D01*
X28677260Y35169571D01*
X28692467Y35323970D01*
X28752565Y35522087D01*
X28827444Y35662174D01*
X28850158Y35704669D01*
X28981496Y35864705D01*
X29141532Y35996043D01*
X29227286Y36041879D01*
X29324112Y36093634D01*
X29324115Y36093635D01*
X29522229Y36153733D01*
X29728260Y36174025D01*
X29934292Y36153733D01*
G37*
G36*
X27394292Y36153733D02*
G01*
X27592406Y36093635D01*
X27592409Y36093634D01*
X27689235Y36041879D01*
X27774989Y35996043D01*
X27935025Y35864705D01*
X28066363Y35704669D01*
X28112199Y35618915D01*
X28163954Y35522089D01*
X28163955Y35522086D01*
X28224053Y35323972D01*
X28239260Y35169570D01*
X28239260Y34066310D01*
X28224053Y33911908D01*
X28163955Y33713795D01*
X28163954Y33713791D01*
X28112199Y33616965D01*
X28066363Y33531211D01*
X27935025Y33371175D01*
X27774989Y33239837D01*
X27658290Y33177461D01*
X27592408Y33142246D01*
X27592405Y33142245D01*
X27394291Y33082147D01*
X27188260Y33061855D01*
X26982228Y33082147D01*
X26784114Y33142245D01*
X26784111Y33142246D01*
X26687285Y33194001D01*
X26601531Y33239837D01*
X26441495Y33371175D01*
X26310157Y33531211D01*
X26212567Y33713791D01*
X26212566Y33713792D01*
X26212565Y33713795D01*
X26152467Y33911909D01*
X26137260Y34066311D01*
X26137260Y35169571D01*
X26152467Y35323970D01*
X26212565Y35522087D01*
X26287444Y35662174D01*
X26310158Y35704669D01*
X26441496Y35864705D01*
X26601532Y35996043D01*
X26687286Y36041879D01*
X26784112Y36093634D01*
X26784115Y36093635D01*
X26982229Y36153733D01*
X27188260Y36174025D01*
X27394292Y36153733D01*
G37*
G36*
X24854292Y36153733D02*
G01*
X25052406Y36093635D01*
X25052409Y36093634D01*
X25149235Y36041879D01*
X25234989Y35996043D01*
X25395025Y35864705D01*
X25526363Y35704669D01*
X25572199Y35618915D01*
X25623954Y35522089D01*
X25623955Y35522086D01*
X25684053Y35323972D01*
X25699260Y35169570D01*
X25699260Y34066310D01*
X25684053Y33911908D01*
X25623955Y33713795D01*
X25623954Y33713791D01*
X25572199Y33616965D01*
X25526363Y33531211D01*
X25395025Y33371175D01*
X25234989Y33239837D01*
X25118290Y33177461D01*
X25052408Y33142246D01*
X25052405Y33142245D01*
X24854291Y33082147D01*
X24648260Y33061855D01*
X24442228Y33082147D01*
X24244114Y33142245D01*
X24244111Y33142246D01*
X24147285Y33194001D01*
X24061531Y33239837D01*
X23901495Y33371175D01*
X23770157Y33531211D01*
X23672567Y33713791D01*
X23672566Y33713792D01*
X23672565Y33713795D01*
X23612467Y33911909D01*
X23597260Y34066311D01*
X23597260Y35169571D01*
X23612467Y35323970D01*
X23672565Y35522087D01*
X23747444Y35662174D01*
X23770158Y35704669D01*
X23901496Y35864705D01*
X24061532Y35996043D01*
X24147286Y36041879D01*
X24244112Y36093634D01*
X24244115Y36093635D01*
X24442229Y36153733D01*
X24648260Y36174025D01*
X24854292Y36153733D01*
G37*
G36*
X22314292Y36153733D02*
G01*
X22512406Y36093635D01*
X22512409Y36093634D01*
X22609235Y36041879D01*
X22694989Y35996043D01*
X22855025Y35864705D01*
X22986363Y35704669D01*
X23032199Y35618915D01*
X23083954Y35522089D01*
X23083955Y35522086D01*
X23144053Y35323972D01*
X23159260Y35169570D01*
X23159260Y34066310D01*
X23144053Y33911908D01*
X23083955Y33713795D01*
X23083954Y33713791D01*
X23032199Y33616965D01*
X22986363Y33531211D01*
X22855025Y33371175D01*
X22694989Y33239837D01*
X22578290Y33177461D01*
X22512408Y33142246D01*
X22512405Y33142245D01*
X22314291Y33082147D01*
X22108260Y33061855D01*
X21902228Y33082147D01*
X21704114Y33142245D01*
X21704111Y33142246D01*
X21607285Y33194001D01*
X21521531Y33239837D01*
X21361495Y33371175D01*
X21230157Y33531211D01*
X21132567Y33713791D01*
X21132566Y33713792D01*
X21132565Y33713795D01*
X21072467Y33911909D01*
X21057260Y34066311D01*
X21057260Y35169571D01*
X21072467Y35323970D01*
X21132565Y35522087D01*
X21207444Y35662174D01*
X21230158Y35704669D01*
X21361496Y35864705D01*
X21521532Y35996043D01*
X21607286Y36041879D01*
X21704112Y36093634D01*
X21704115Y36093635D01*
X21902229Y36153733D01*
X22108260Y36174025D01*
X22314292Y36153733D01*
G37*
G36*
X19774292Y36153733D02*
G01*
X19972406Y36093635D01*
X19972409Y36093634D01*
X20069235Y36041879D01*
X20154989Y35996043D01*
X20315025Y35864705D01*
X20446363Y35704669D01*
X20492199Y35618915D01*
X20543954Y35522089D01*
X20543955Y35522086D01*
X20604053Y35323972D01*
X20619260Y35169570D01*
X20619260Y34066310D01*
X20604053Y33911908D01*
X20543955Y33713795D01*
X20543954Y33713791D01*
X20492199Y33616965D01*
X20446363Y33531211D01*
X20315025Y33371175D01*
X20154989Y33239837D01*
X20038290Y33177461D01*
X19972408Y33142246D01*
X19972405Y33142245D01*
X19774291Y33082147D01*
X19568260Y33061855D01*
X19362228Y33082147D01*
X19164114Y33142245D01*
X19164111Y33142246D01*
X19067285Y33194001D01*
X18981531Y33239837D01*
X18821495Y33371175D01*
X18690157Y33531211D01*
X18592567Y33713791D01*
X18592566Y33713792D01*
X18592565Y33713795D01*
X18532467Y33911909D01*
X18517260Y34066311D01*
X18517260Y35169571D01*
X18532467Y35323970D01*
X18592565Y35522087D01*
X18667444Y35662174D01*
X18690158Y35704669D01*
X18821496Y35864705D01*
X18981532Y35996043D01*
X19067286Y36041879D01*
X19164112Y36093634D01*
X19164115Y36093635D01*
X19362229Y36153733D01*
X19568260Y36174025D01*
X19774292Y36153733D01*
G37*
G36*
X17234292Y36153733D02*
G01*
X17432406Y36093635D01*
X17432409Y36093634D01*
X17529235Y36041879D01*
X17614989Y35996043D01*
X17775025Y35864705D01*
X17906363Y35704669D01*
X17952199Y35618915D01*
X18003954Y35522089D01*
X18003955Y35522086D01*
X18064053Y35323972D01*
X18079260Y35169570D01*
X18079260Y34066310D01*
X18064053Y33911908D01*
X18003955Y33713795D01*
X18003954Y33713791D01*
X17952199Y33616965D01*
X17906363Y33531211D01*
X17775025Y33371175D01*
X17614989Y33239837D01*
X17498290Y33177461D01*
X17432408Y33142246D01*
X17432405Y33142245D01*
X17234291Y33082147D01*
X17028260Y33061855D01*
X16822228Y33082147D01*
X16624114Y33142245D01*
X16624111Y33142246D01*
X16527285Y33194001D01*
X16441531Y33239837D01*
X16281495Y33371175D01*
X16150157Y33531211D01*
X16052567Y33713791D01*
X16052566Y33713792D01*
X16052565Y33713795D01*
X15992467Y33911909D01*
X15977260Y34066311D01*
X15977260Y35169571D01*
X15992467Y35323970D01*
X16052565Y35522087D01*
X16127444Y35662174D01*
X16150158Y35704669D01*
X16281496Y35864705D01*
X16441532Y35996043D01*
X16527286Y36041879D01*
X16624112Y36093634D01*
X16624115Y36093635D01*
X16822229Y36153733D01*
X17028260Y36174025D01*
X17234292Y36153733D01*
G37*
G36*
X4534292Y36153733D02*
G01*
X4732406Y36093635D01*
X4732409Y36093634D01*
X4829235Y36041879D01*
X4914989Y35996043D01*
X5075025Y35864705D01*
X5206363Y35704669D01*
X5252199Y35618915D01*
X5303954Y35522089D01*
X5303955Y35522086D01*
X5364053Y35323972D01*
X5379260Y35169570D01*
X5379260Y34066310D01*
X5364053Y33911908D01*
X5303955Y33713795D01*
X5303954Y33713791D01*
X5252199Y33616965D01*
X5206363Y33531211D01*
X5075025Y33371175D01*
X4914989Y33239837D01*
X4798290Y33177461D01*
X4732408Y33142246D01*
X4732405Y33142245D01*
X4534291Y33082147D01*
X4328260Y33061855D01*
X4122228Y33082147D01*
X3924114Y33142245D01*
X3924111Y33142246D01*
X3827285Y33194001D01*
X3741531Y33239837D01*
X3581495Y33371175D01*
X3450157Y33531211D01*
X3352567Y33713791D01*
X3352566Y33713792D01*
X3352565Y33713795D01*
X3292467Y33911909D01*
X3277260Y34066311D01*
X3277260Y35169571D01*
X3292467Y35323970D01*
X3352565Y35522087D01*
X3427444Y35662174D01*
X3450158Y35704669D01*
X3581496Y35864705D01*
X3741532Y35996043D01*
X3827286Y36041879D01*
X3924112Y36093634D01*
X3924115Y36093635D01*
X4122229Y36153733D01*
X4328260Y36174025D01*
X4534292Y36153733D01*
G37*
G36*
X14694292Y36153733D02*
G01*
X14892406Y36093635D01*
X14892409Y36093634D01*
X14989235Y36041879D01*
X15074989Y35996043D01*
X15235025Y35864705D01*
X15366363Y35704669D01*
X15412199Y35618915D01*
X15463954Y35522089D01*
X15463955Y35522086D01*
X15524053Y35323972D01*
X15539260Y35169570D01*
X15539260Y34066310D01*
X15524053Y33911908D01*
X15463955Y33713795D01*
X15463954Y33713791D01*
X15412199Y33616965D01*
X15366363Y33531211D01*
X15235025Y33371175D01*
X15074989Y33239837D01*
X14958290Y33177461D01*
X14892408Y33142246D01*
X14892405Y33142245D01*
X14694291Y33082147D01*
X14488260Y33061855D01*
X14282228Y33082147D01*
X14084114Y33142245D01*
X14084111Y33142246D01*
X13987285Y33194001D01*
X13901531Y33239837D01*
X13741495Y33371175D01*
X13610157Y33531211D01*
X13512567Y33713791D01*
X13512566Y33713792D01*
X13512565Y33713795D01*
X13452467Y33911909D01*
X13437260Y34066311D01*
X13437260Y35169571D01*
X13452467Y35323970D01*
X13512565Y35522087D01*
X13587444Y35662174D01*
X13610158Y35704669D01*
X13741496Y35864705D01*
X13901532Y35996043D01*
X13987286Y36041879D01*
X14084112Y36093634D01*
X14084115Y36093635D01*
X14282229Y36153733D01*
X14488260Y36174025D01*
X14694292Y36153733D01*
G37*
G36*
X7074292Y36153733D02*
G01*
X7272406Y36093635D01*
X7272409Y36093634D01*
X7369235Y36041879D01*
X7454989Y35996043D01*
X7615025Y35864705D01*
X7746363Y35704669D01*
X7792199Y35618915D01*
X7843954Y35522089D01*
X7843955Y35522086D01*
X7904053Y35323972D01*
X7919260Y35169570D01*
X7919260Y34066310D01*
X7904053Y33911908D01*
X7843955Y33713795D01*
X7843954Y33713791D01*
X7792199Y33616965D01*
X7746363Y33531211D01*
X7615025Y33371175D01*
X7454989Y33239837D01*
X7338290Y33177461D01*
X7272408Y33142246D01*
X7272405Y33142245D01*
X7074291Y33082147D01*
X6868260Y33061855D01*
X6662228Y33082147D01*
X6464114Y33142245D01*
X6464111Y33142246D01*
X6367285Y33194001D01*
X6281531Y33239837D01*
X6121495Y33371175D01*
X5990157Y33531211D01*
X5892567Y33713791D01*
X5892566Y33713792D01*
X5892565Y33713795D01*
X5832467Y33911909D01*
X5817260Y34066311D01*
X5817260Y35169571D01*
X5832467Y35323970D01*
X5892565Y35522087D01*
X5967444Y35662174D01*
X5990158Y35704669D01*
X6121496Y35864705D01*
X6281532Y35996043D01*
X6367286Y36041879D01*
X6464112Y36093634D01*
X6464115Y36093635D01*
X6662229Y36153733D01*
X6868260Y36174025D01*
X7074292Y36153733D01*
G37*
G36*
X9614292Y36153733D02*
G01*
X9812406Y36093635D01*
X9812409Y36093634D01*
X9909235Y36041879D01*
X9994989Y35996043D01*
X10155025Y35864705D01*
X10286363Y35704669D01*
X10332199Y35618915D01*
X10383954Y35522089D01*
X10383955Y35522086D01*
X10444053Y35323972D01*
X10459260Y35169570D01*
X10459260Y34066310D01*
X10444053Y33911908D01*
X10383955Y33713795D01*
X10383954Y33713791D01*
X10332199Y33616965D01*
X10286363Y33531211D01*
X10155025Y33371175D01*
X9994989Y33239837D01*
X9878290Y33177461D01*
X9812408Y33142246D01*
X9812405Y33142245D01*
X9614291Y33082147D01*
X9408260Y33061855D01*
X9202228Y33082147D01*
X9004114Y33142245D01*
X9004111Y33142246D01*
X8907285Y33194001D01*
X8821531Y33239837D01*
X8661495Y33371175D01*
X8530157Y33531211D01*
X8432567Y33713791D01*
X8432566Y33713792D01*
X8432565Y33713795D01*
X8372467Y33911909D01*
X8357260Y34066311D01*
X8357260Y35169571D01*
X8372467Y35323970D01*
X8432565Y35522087D01*
X8507444Y35662174D01*
X8530158Y35704669D01*
X8661496Y35864705D01*
X8821532Y35996043D01*
X8907286Y36041879D01*
X9004112Y36093634D01*
X9004115Y36093635D01*
X9202229Y36153733D01*
X9408260Y36174025D01*
X9614292Y36153733D01*
G37*
G36*
X12154292Y36153733D02*
G01*
X12352406Y36093635D01*
X12352409Y36093634D01*
X12449235Y36041879D01*
X12534989Y35996043D01*
X12695025Y35864705D01*
X12826363Y35704669D01*
X12872199Y35618915D01*
X12923954Y35522089D01*
X12923955Y35522086D01*
X12984053Y35323972D01*
X12999260Y35169570D01*
X12999260Y34066310D01*
X12984053Y33911908D01*
X12923955Y33713795D01*
X12923954Y33713791D01*
X12872199Y33616965D01*
X12826363Y33531211D01*
X12695025Y33371175D01*
X12534989Y33239837D01*
X12418290Y33177461D01*
X12352408Y33142246D01*
X12352405Y33142245D01*
X12154291Y33082147D01*
X11948260Y33061855D01*
X11742228Y33082147D01*
X11544114Y33142245D01*
X11544111Y33142246D01*
X11447285Y33194001D01*
X11361531Y33239837D01*
X11201495Y33371175D01*
X11070157Y33531211D01*
X10972567Y33713791D01*
X10972566Y33713792D01*
X10972565Y33713795D01*
X10912467Y33911909D01*
X10897260Y34066311D01*
X10897260Y35169571D01*
X10912467Y35323970D01*
X10972565Y35522087D01*
X11047444Y35662174D01*
X11070158Y35704669D01*
X11201496Y35864705D01*
X11361532Y35996043D01*
X11447286Y36041879D01*
X11544112Y36093634D01*
X11544115Y36093635D01*
X11742229Y36153733D01*
X11948260Y36174025D01*
X12154292Y36153733D01*
G37*
G36*
X51099260Y33066940D02*
G01*
X48997260Y33066940D01*
X48997260Y36168940D01*
X51099260Y36168940D01*
X51099260Y33066940D01*
G37*
G36*
X60265640Y33290180D02*
G01*
X57163640Y33290180D01*
X57163640Y36392180D01*
X60265640Y36392180D01*
X60265640Y33290180D01*
G37*
G36*
X12596977Y39653931D02*
G01*
X12699912Y39643793D01*
X12898026Y39583695D01*
X12898029Y39583694D01*
X12994855Y39531939D01*
X13080609Y39486103D01*
X13240645Y39354765D01*
X13371983Y39194729D01*
X13376377Y39186508D01*
X13469574Y39012149D01*
X13469575Y39012146D01*
X13529673Y38814032D01*
X13549965Y38608000D01*
X13529673Y38401968D01*
X13520030Y38370180D01*
X13469574Y38203851D01*
X13417819Y38107025D01*
X13371983Y38021271D01*
X13240645Y37861235D01*
X13080609Y37729897D01*
X12994855Y37684061D01*
X12898029Y37632306D01*
X12898026Y37632305D01*
X12699912Y37572207D01*
X12596977Y37562069D01*
X12545511Y37557000D01*
X11442249Y37557000D01*
X11390783Y37562069D01*
X11287848Y37572207D01*
X11089734Y37632305D01*
X11089731Y37632306D01*
X10992905Y37684061D01*
X10907151Y37729897D01*
X10747115Y37861235D01*
X10615777Y38021271D01*
X10569941Y38107025D01*
X10518186Y38203851D01*
X10467730Y38370180D01*
X10458087Y38401968D01*
X10437795Y38608000D01*
X10458087Y38814032D01*
X10518185Y39012146D01*
X10518186Y39012149D01*
X10611383Y39186508D01*
X10615777Y39194729D01*
X10747115Y39354765D01*
X10907151Y39486103D01*
X10992905Y39531939D01*
X11089731Y39583694D01*
X11089734Y39583695D01*
X11287848Y39643793D01*
X11390783Y39653931D01*
X11442249Y39659000D01*
X12545511Y39659000D01*
X12596977Y39653931D01*
G37*
G36*
X59017225Y41442378D02*
G01*
X59167050Y41412576D01*
X59449314Y41295659D01*
X59703345Y41125921D01*
X59919381Y40909885D01*
X60089119Y40655854D01*
X60206036Y40373590D01*
X60265640Y40073940D01*
X60265640Y39768420D01*
X60206036Y39468770D01*
X60089119Y39186506D01*
X59919381Y38932475D01*
X59703345Y38716439D01*
X59449314Y38546701D01*
X59167050Y38429784D01*
X59027219Y38401970D01*
X58867401Y38370180D01*
X58561879Y38370180D01*
X58402061Y38401970D01*
X58262230Y38429784D01*
X57979966Y38546701D01*
X57725935Y38716439D01*
X57509899Y38932475D01*
X57340161Y39186506D01*
X57223244Y39468770D01*
X57163640Y39768420D01*
X57163640Y40073940D01*
X57223244Y40373590D01*
X57340161Y40655854D01*
X57509899Y40909885D01*
X57725935Y41125921D01*
X57979966Y41295659D01*
X58262230Y41412576D01*
X58412055Y41442378D01*
X58561879Y41472180D01*
X58867401Y41472180D01*
X59017225Y41442378D01*
G37*
G36*
X12596977Y42193931D02*
G01*
X12699912Y42183793D01*
X12898026Y42123695D01*
X12898029Y42123694D01*
X12994855Y42071939D01*
X13080609Y42026103D01*
X13240645Y41894765D01*
X13371983Y41734729D01*
X13417819Y41648975D01*
X13469574Y41552149D01*
X13469575Y41552146D01*
X13529673Y41354032D01*
X13549965Y41148000D01*
X13529673Y40941968D01*
X13519940Y40909884D01*
X13469574Y40743851D01*
X13422538Y40655854D01*
X13371983Y40561271D01*
X13240645Y40401235D01*
X13080609Y40269897D01*
X12994855Y40224061D01*
X12898029Y40172306D01*
X12898026Y40172305D01*
X12699912Y40112207D01*
X12596977Y40102069D01*
X12545511Y40097000D01*
X11442249Y40097000D01*
X11390783Y40102069D01*
X11287848Y40112207D01*
X11089734Y40172305D01*
X11089731Y40172306D01*
X10992905Y40224061D01*
X10907151Y40269897D01*
X10747115Y40401235D01*
X10615777Y40561271D01*
X10565222Y40655854D01*
X10518186Y40743851D01*
X10467820Y40909884D01*
X10458087Y40941968D01*
X10437795Y41148000D01*
X10458087Y41354032D01*
X10518185Y41552146D01*
X10518186Y41552149D01*
X10569941Y41648975D01*
X10615777Y41734729D01*
X10747115Y41894765D01*
X10907151Y42026103D01*
X10992905Y42071939D01*
X11089731Y42123694D01*
X11089734Y42123695D01*
X11287848Y42183793D01*
X11390783Y42193931D01*
X11442249Y42199000D01*
X12545511Y42199000D01*
X12596977Y42193931D01*
G37*
G36*
X12596977Y44733931D02*
G01*
X12699912Y44723793D01*
X12898026Y44663695D01*
X12898029Y44663694D01*
X12994855Y44611939D01*
X13080609Y44566103D01*
X13240645Y44434765D01*
X13371983Y44274729D01*
X13417819Y44188975D01*
X13469574Y44092149D01*
X13469575Y44092146D01*
X13529673Y43894032D01*
X13549965Y43688000D01*
X13529673Y43481968D01*
X13469575Y43283854D01*
X13469574Y43283851D01*
X13417819Y43187025D01*
X13371983Y43101271D01*
X13240645Y42941235D01*
X13080609Y42809897D01*
X12994855Y42764061D01*
X12898029Y42712306D01*
X12898026Y42712305D01*
X12699912Y42652207D01*
X12596977Y42642069D01*
X12545511Y42637000D01*
X11442249Y42637000D01*
X11390783Y42642069D01*
X11287848Y42652207D01*
X11089734Y42712305D01*
X11089731Y42712306D01*
X10992905Y42764061D01*
X10907151Y42809897D01*
X10747115Y42941235D01*
X10615777Y43101271D01*
X10569941Y43187025D01*
X10518186Y43283851D01*
X10518185Y43283854D01*
X10458087Y43481968D01*
X10437795Y43688000D01*
X10458087Y43894032D01*
X10518185Y44092146D01*
X10518186Y44092149D01*
X10569941Y44188975D01*
X10615777Y44274729D01*
X10747115Y44434765D01*
X10907151Y44566103D01*
X10992905Y44611939D01*
X11089731Y44663694D01*
X11089734Y44663695D01*
X11287848Y44723793D01*
X11390783Y44733931D01*
X11442249Y44739000D01*
X12545511Y44739000D01*
X12596977Y44733931D01*
G37*
G36*
X60402800Y44961100D02*
G01*
X57300800Y44961100D01*
X57300800Y47063100D01*
X60402800Y47063100D01*
X60402800Y44961100D01*
G37*
G36*
X12596977Y47273931D02*
G01*
X12699912Y47263793D01*
X12898026Y47203695D01*
X12898029Y47203694D01*
X12994855Y47151939D01*
X13080609Y47106103D01*
X13240645Y46974765D01*
X13371983Y46814729D01*
X13417819Y46728975D01*
X13469574Y46632149D01*
X13469575Y46632146D01*
X13529673Y46434032D01*
X13549965Y46228000D01*
X13529673Y46021968D01*
X13469575Y45823854D01*
X13469574Y45823851D01*
X13417819Y45727025D01*
X13371983Y45641271D01*
X13240645Y45481235D01*
X13080609Y45349897D01*
X12994855Y45304061D01*
X12898029Y45252306D01*
X12898026Y45252305D01*
X12699912Y45192207D01*
X12596977Y45182069D01*
X12545511Y45177000D01*
X11442249Y45177000D01*
X11390783Y45182069D01*
X11287848Y45192207D01*
X11089734Y45252305D01*
X11089731Y45252306D01*
X10992905Y45304061D01*
X10907151Y45349897D01*
X10747115Y45481235D01*
X10615777Y45641271D01*
X10569941Y45727025D01*
X10518186Y45823851D01*
X10518185Y45823854D01*
X10458087Y46021968D01*
X10437795Y46228000D01*
X10458087Y46434032D01*
X10518185Y46632146D01*
X10518186Y46632149D01*
X10569941Y46728975D01*
X10615777Y46814729D01*
X10747115Y46974765D01*
X10907151Y47106103D01*
X10992905Y47151939D01*
X11089731Y47203694D01*
X11089734Y47203695D01*
X11287848Y47263793D01*
X11390783Y47273931D01*
X11442249Y47279000D01*
X12545511Y47279000D01*
X12596977Y47273931D01*
G37*
G36*
X59454897Y49598031D02*
G01*
X59557832Y49587893D01*
X59755946Y49527795D01*
X59755949Y49527794D01*
X59780324Y49514765D01*
X59938529Y49430203D01*
X60098565Y49298865D01*
X60229903Y49138829D01*
X60275739Y49053075D01*
X60327494Y48956249D01*
X60327495Y48956246D01*
X60387593Y48758132D01*
X60407885Y48552100D01*
X60387593Y48346068D01*
X60337602Y48181272D01*
X60327494Y48147951D01*
X60275739Y48051125D01*
X60229903Y47965371D01*
X60098565Y47805335D01*
X59938529Y47673997D01*
X59852775Y47628161D01*
X59755949Y47576406D01*
X59755946Y47576405D01*
X59557832Y47516307D01*
X59454897Y47506169D01*
X59403431Y47501100D01*
X58300169Y47501100D01*
X58248703Y47506169D01*
X58145768Y47516307D01*
X57947654Y47576405D01*
X57947651Y47576406D01*
X57850825Y47628161D01*
X57765071Y47673997D01*
X57605035Y47805335D01*
X57473697Y47965371D01*
X57427861Y48051125D01*
X57376106Y48147951D01*
X57365998Y48181272D01*
X57316007Y48346068D01*
X57295715Y48552100D01*
X57316007Y48758132D01*
X57376105Y48956246D01*
X57376106Y48956249D01*
X57427861Y49053075D01*
X57473697Y49138829D01*
X57605035Y49298865D01*
X57765071Y49430203D01*
X57923276Y49514765D01*
X57947651Y49527794D01*
X57947654Y49527795D01*
X58145768Y49587893D01*
X58248703Y49598031D01*
X58300169Y49603100D01*
X59403431Y49603100D01*
X59454897Y49598031D01*
G37*
G36*
X12596977Y49813931D02*
G01*
X12699912Y49803793D01*
X12898026Y49743695D01*
X12898029Y49743694D01*
X12994855Y49691939D01*
X13080609Y49646103D01*
X13240645Y49514765D01*
X13371983Y49354729D01*
X13401843Y49298865D01*
X13469574Y49172149D01*
X13469575Y49172146D01*
X13529673Y48974032D01*
X13549965Y48768000D01*
X13529673Y48561968D01*
X13469575Y48363854D01*
X13469574Y48363851D01*
X13417819Y48267025D01*
X13371983Y48181271D01*
X13240645Y48021235D01*
X13080609Y47889897D01*
X12994855Y47844061D01*
X12898029Y47792306D01*
X12898026Y47792305D01*
X12699912Y47732207D01*
X12596977Y47722069D01*
X12545511Y47717000D01*
X11442249Y47717000D01*
X11390783Y47722069D01*
X11287848Y47732207D01*
X11089734Y47792305D01*
X11089731Y47792306D01*
X10992905Y47844061D01*
X10907151Y47889897D01*
X10747115Y48021235D01*
X10615777Y48181271D01*
X10569941Y48267025D01*
X10518186Y48363851D01*
X10518185Y48363854D01*
X10458087Y48561968D01*
X10437795Y48768000D01*
X10458087Y48974032D01*
X10518185Y49172146D01*
X10518186Y49172149D01*
X10585917Y49298865D01*
X10615777Y49354729D01*
X10747115Y49514765D01*
X10907151Y49646103D01*
X10992905Y49691939D01*
X11089731Y49743694D01*
X11089734Y49743695D01*
X11287848Y49803793D01*
X11390783Y49813931D01*
X11442249Y49819000D01*
X12545511Y49819000D01*
X12596977Y49813931D01*
G37*
G36*
X12596977Y52353931D02*
G01*
X12699912Y52343793D01*
X12898026Y52283695D01*
X12898029Y52283694D01*
X12994855Y52231939D01*
X13080609Y52186103D01*
X13240645Y52054765D01*
X13371983Y51894729D01*
X13417819Y51808975D01*
X13469574Y51712149D01*
X13469575Y51712146D01*
X13529673Y51514032D01*
X13549965Y51308000D01*
X13529673Y51101968D01*
X13469575Y50903854D01*
X13469574Y50903851D01*
X13417819Y50807025D01*
X13371983Y50721271D01*
X13240645Y50561235D01*
X13080609Y50429897D01*
X12994855Y50384061D01*
X12898029Y50332306D01*
X12898026Y50332305D01*
X12699912Y50272207D01*
X12596977Y50262069D01*
X12545511Y50257000D01*
X11442249Y50257000D01*
X11390783Y50262069D01*
X11287848Y50272207D01*
X11089734Y50332305D01*
X11089731Y50332306D01*
X10992905Y50384061D01*
X10907151Y50429897D01*
X10747115Y50561235D01*
X10615777Y50721271D01*
X10569941Y50807025D01*
X10518186Y50903851D01*
X10518185Y50903854D01*
X10458087Y51101968D01*
X10437795Y51308000D01*
X10458087Y51514032D01*
X10518185Y51712146D01*
X10518186Y51712149D01*
X10569941Y51808975D01*
X10615777Y51894729D01*
X10747115Y52054765D01*
X10907151Y52186103D01*
X10992905Y52231939D01*
X11089731Y52283694D01*
X11089734Y52283695D01*
X11287848Y52343793D01*
X11390783Y52353931D01*
X11442249Y52359000D01*
X12545511Y52359000D01*
X12596977Y52353931D01*
G37*
G36*
X12596977Y54893931D02*
G01*
X12699912Y54883793D01*
X12898026Y54823695D01*
X12898029Y54823694D01*
X12994855Y54771939D01*
X13080609Y54726103D01*
X13240645Y54594765D01*
X13371983Y54434729D01*
X13417819Y54348975D01*
X13469574Y54252149D01*
X13469575Y54252146D01*
X13529673Y54054032D01*
X13549965Y53848000D01*
X13529673Y53641968D01*
X13469575Y53443854D01*
X13469574Y53443851D01*
X13417819Y53347025D01*
X13371983Y53261271D01*
X13240645Y53101235D01*
X13080609Y52969897D01*
X12994855Y52924061D01*
X12898029Y52872306D01*
X12898026Y52872305D01*
X12699912Y52812207D01*
X12596977Y52802069D01*
X12545511Y52797000D01*
X11442249Y52797000D01*
X11390783Y52802069D01*
X11287848Y52812207D01*
X11089734Y52872305D01*
X11089731Y52872306D01*
X10992905Y52924061D01*
X10907151Y52969897D01*
X10747115Y53101235D01*
X10615777Y53261271D01*
X10569941Y53347025D01*
X10518186Y53443851D01*
X10518185Y53443854D01*
X10458087Y53641968D01*
X10437795Y53848000D01*
X10458087Y54054032D01*
X10518185Y54252146D01*
X10518186Y54252149D01*
X10569941Y54348975D01*
X10615777Y54434729D01*
X10747115Y54594765D01*
X10907151Y54726103D01*
X10992905Y54771939D01*
X11089731Y54823694D01*
X11089734Y54823695D01*
X11287848Y54883793D01*
X11390783Y54893931D01*
X11442249Y54899000D01*
X12545511Y54899000D01*
X12596977Y54893931D01*
G37*
G36*
X13544880Y55337000D02*
G01*
X10442880Y55337000D01*
X10442880Y57439000D01*
X13544880Y57439000D01*
X13544880Y55337000D01*
G37*
G36*
X40094292Y61553733D02*
G01*
X40292406Y61493635D01*
X40292409Y61493634D01*
X40389235Y61441879D01*
X40474989Y61396043D01*
X40635025Y61264705D01*
X40766363Y61104669D01*
X40812199Y61018915D01*
X40863954Y60922089D01*
X40863955Y60922086D01*
X40924053Y60723972D01*
X40939260Y60569570D01*
X40939260Y59466310D01*
X40924053Y59311908D01*
X40863955Y59113795D01*
X40863954Y59113791D01*
X40812199Y59016965D01*
X40766363Y58931211D01*
X40635025Y58771175D01*
X40474989Y58639837D01*
X40358290Y58577461D01*
X40292408Y58542246D01*
X40292405Y58542245D01*
X40094291Y58482147D01*
X39888260Y58461855D01*
X39682228Y58482147D01*
X39484114Y58542245D01*
X39484111Y58542246D01*
X39387285Y58594001D01*
X39301531Y58639837D01*
X39141495Y58771175D01*
X39010157Y58931211D01*
X38912567Y59113791D01*
X38912566Y59113792D01*
X38912565Y59113795D01*
X38852467Y59311909D01*
X38837260Y59466311D01*
X38837260Y60569571D01*
X38852467Y60723970D01*
X38912565Y60922087D01*
X38987444Y61062174D01*
X39010158Y61104669D01*
X39141496Y61264705D01*
X39301532Y61396043D01*
X39387286Y61441879D01*
X39484112Y61493634D01*
X39484115Y61493635D01*
X39682229Y61553733D01*
X39888260Y61574025D01*
X40094292Y61553733D01*
G37*
G36*
X42634292Y61553733D02*
G01*
X42832406Y61493635D01*
X42832409Y61493634D01*
X42929235Y61441879D01*
X43014989Y61396043D01*
X43175025Y61264705D01*
X43306363Y61104669D01*
X43352199Y61018915D01*
X43403954Y60922089D01*
X43403955Y60922086D01*
X43464053Y60723972D01*
X43479260Y60569570D01*
X43479260Y59466310D01*
X43464053Y59311908D01*
X43403955Y59113795D01*
X43403954Y59113791D01*
X43352199Y59016965D01*
X43306363Y58931211D01*
X43175025Y58771175D01*
X43014989Y58639837D01*
X42898290Y58577461D01*
X42832408Y58542246D01*
X42832405Y58542245D01*
X42634291Y58482147D01*
X42428260Y58461855D01*
X42222228Y58482147D01*
X42024114Y58542245D01*
X42024111Y58542246D01*
X41927285Y58594001D01*
X41841531Y58639837D01*
X41681495Y58771175D01*
X41550157Y58931211D01*
X41452567Y59113791D01*
X41452566Y59113792D01*
X41452565Y59113795D01*
X41392467Y59311909D01*
X41377260Y59466311D01*
X41377260Y60569571D01*
X41392467Y60723970D01*
X41452565Y60922087D01*
X41527444Y61062174D01*
X41550158Y61104669D01*
X41681496Y61264705D01*
X41841532Y61396043D01*
X41927286Y61441879D01*
X42024112Y61493634D01*
X42024115Y61493635D01*
X42222229Y61553733D01*
X42428260Y61574025D01*
X42634292Y61553733D01*
G37*
G36*
X45174292Y61553733D02*
G01*
X45372406Y61493635D01*
X45372409Y61493634D01*
X45469235Y61441879D01*
X45554989Y61396043D01*
X45715025Y61264705D01*
X45846363Y61104669D01*
X45892199Y61018915D01*
X45943954Y60922089D01*
X45943955Y60922086D01*
X46004053Y60723972D01*
X46019260Y60569570D01*
X46019260Y59466310D01*
X46004053Y59311908D01*
X45943955Y59113795D01*
X45943954Y59113791D01*
X45892199Y59016965D01*
X45846363Y58931211D01*
X45715025Y58771175D01*
X45554989Y58639837D01*
X45438290Y58577461D01*
X45372408Y58542246D01*
X45372405Y58542245D01*
X45174291Y58482147D01*
X44968260Y58461855D01*
X44762228Y58482147D01*
X44564114Y58542245D01*
X44564111Y58542246D01*
X44467285Y58594001D01*
X44381531Y58639837D01*
X44221495Y58771175D01*
X44090157Y58931211D01*
X43992567Y59113791D01*
X43992566Y59113792D01*
X43992565Y59113795D01*
X43932467Y59311909D01*
X43917260Y59466311D01*
X43917260Y60569571D01*
X43932467Y60723970D01*
X43992565Y60922087D01*
X44067444Y61062174D01*
X44090158Y61104669D01*
X44221496Y61264705D01*
X44381532Y61396043D01*
X44467286Y61441879D01*
X44564112Y61493634D01*
X44564115Y61493635D01*
X44762229Y61553733D01*
X44968260Y61574025D01*
X45174292Y61553733D01*
G37*
G36*
X37554292Y61553733D02*
G01*
X37752406Y61493635D01*
X37752409Y61493634D01*
X37849235Y61441879D01*
X37934989Y61396043D01*
X38095025Y61264705D01*
X38226363Y61104669D01*
X38272199Y61018915D01*
X38323954Y60922089D01*
X38323955Y60922086D01*
X38384053Y60723972D01*
X38399260Y60569570D01*
X38399260Y59466310D01*
X38384053Y59311908D01*
X38323955Y59113795D01*
X38323954Y59113791D01*
X38272199Y59016965D01*
X38226363Y58931211D01*
X38095025Y58771175D01*
X37934989Y58639837D01*
X37818290Y58577461D01*
X37752408Y58542246D01*
X37752405Y58542245D01*
X37554291Y58482147D01*
X37348260Y58461855D01*
X37142228Y58482147D01*
X36944114Y58542245D01*
X36944111Y58542246D01*
X36847285Y58594001D01*
X36761531Y58639837D01*
X36601495Y58771175D01*
X36470157Y58931211D01*
X36372567Y59113791D01*
X36372566Y59113792D01*
X36372565Y59113795D01*
X36312467Y59311909D01*
X36297260Y59466311D01*
X36297260Y60569571D01*
X36312467Y60723970D01*
X36372565Y60922087D01*
X36447444Y61062174D01*
X36470158Y61104669D01*
X36601496Y61264705D01*
X36761532Y61396043D01*
X36847286Y61441879D01*
X36944112Y61493634D01*
X36944115Y61493635D01*
X37142229Y61553733D01*
X37348260Y61574025D01*
X37554292Y61553733D01*
G37*
G36*
X4534292Y61553733D02*
G01*
X4732406Y61493635D01*
X4732409Y61493634D01*
X4829235Y61441879D01*
X4914989Y61396043D01*
X5075025Y61264705D01*
X5206363Y61104669D01*
X5252199Y61018915D01*
X5303954Y60922089D01*
X5303955Y60922086D01*
X5364053Y60723972D01*
X5379260Y60569570D01*
X5379260Y59466310D01*
X5364053Y59311908D01*
X5303955Y59113795D01*
X5303954Y59113791D01*
X5252199Y59016965D01*
X5206363Y58931211D01*
X5075025Y58771175D01*
X4914989Y58639837D01*
X4798290Y58577461D01*
X4732408Y58542246D01*
X4732405Y58542245D01*
X4534291Y58482147D01*
X4328260Y58461855D01*
X4122228Y58482147D01*
X3924114Y58542245D01*
X3924111Y58542246D01*
X3827285Y58594001D01*
X3741531Y58639837D01*
X3581495Y58771175D01*
X3450157Y58931211D01*
X3352567Y59113791D01*
X3352566Y59113792D01*
X3352565Y59113795D01*
X3292467Y59311909D01*
X3277260Y59466311D01*
X3277260Y60569571D01*
X3292467Y60723970D01*
X3352565Y60922087D01*
X3427444Y61062174D01*
X3450158Y61104669D01*
X3581496Y61264705D01*
X3741532Y61396043D01*
X3827286Y61441879D01*
X3924112Y61493634D01*
X3924115Y61493635D01*
X4122229Y61553733D01*
X4328260Y61574025D01*
X4534292Y61553733D01*
G37*
G36*
X7074292Y61553733D02*
G01*
X7272406Y61493635D01*
X7272409Y61493634D01*
X7369235Y61441879D01*
X7454989Y61396043D01*
X7615025Y61264705D01*
X7746363Y61104669D01*
X7792199Y61018915D01*
X7843954Y60922089D01*
X7843955Y60922086D01*
X7904053Y60723972D01*
X7919260Y60569570D01*
X7919260Y59466310D01*
X7904053Y59311908D01*
X7843955Y59113795D01*
X7843954Y59113791D01*
X7792199Y59016965D01*
X7746363Y58931211D01*
X7615025Y58771175D01*
X7454989Y58639837D01*
X7338290Y58577461D01*
X7272408Y58542246D01*
X7272405Y58542245D01*
X7074291Y58482147D01*
X6868260Y58461855D01*
X6662228Y58482147D01*
X6464114Y58542245D01*
X6464111Y58542246D01*
X6367285Y58594001D01*
X6281531Y58639837D01*
X6121495Y58771175D01*
X5990157Y58931211D01*
X5892567Y59113791D01*
X5892566Y59113792D01*
X5892565Y59113795D01*
X5832467Y59311909D01*
X5817260Y59466311D01*
X5817260Y60569571D01*
X5832467Y60723970D01*
X5892565Y60922087D01*
X5967444Y61062174D01*
X5990158Y61104669D01*
X6121496Y61264705D01*
X6281532Y61396043D01*
X6367286Y61441879D01*
X6464112Y61493634D01*
X6464115Y61493635D01*
X6662229Y61553733D01*
X6868260Y61574025D01*
X7074292Y61553733D01*
G37*
G36*
X9614292Y61553733D02*
G01*
X9812406Y61493635D01*
X9812409Y61493634D01*
X9909235Y61441879D01*
X9994989Y61396043D01*
X10155025Y61264705D01*
X10286363Y61104669D01*
X10332199Y61018915D01*
X10383954Y60922089D01*
X10383955Y60922086D01*
X10444053Y60723972D01*
X10459260Y60569570D01*
X10459260Y59466310D01*
X10444053Y59311908D01*
X10383955Y59113795D01*
X10383954Y59113791D01*
X10332199Y59016965D01*
X10286363Y58931211D01*
X10155025Y58771175D01*
X9994989Y58639837D01*
X9878290Y58577461D01*
X9812408Y58542246D01*
X9812405Y58542245D01*
X9614291Y58482147D01*
X9408260Y58461855D01*
X9202228Y58482147D01*
X9004114Y58542245D01*
X9004111Y58542246D01*
X8907285Y58594001D01*
X8821531Y58639837D01*
X8661495Y58771175D01*
X8530157Y58931211D01*
X8432567Y59113791D01*
X8432566Y59113792D01*
X8432565Y59113795D01*
X8372467Y59311909D01*
X8357260Y59466311D01*
X8357260Y60569571D01*
X8372467Y60723970D01*
X8432565Y60922087D01*
X8507444Y61062174D01*
X8530158Y61104669D01*
X8661496Y61264705D01*
X8821532Y61396043D01*
X8907286Y61441879D01*
X9004112Y61493634D01*
X9004115Y61493635D01*
X9202229Y61553733D01*
X9408260Y61574025D01*
X9614292Y61553733D01*
G37*
G36*
X12154292Y61553733D02*
G01*
X12352406Y61493635D01*
X12352409Y61493634D01*
X12449235Y61441879D01*
X12534989Y61396043D01*
X12695025Y61264705D01*
X12826363Y61104669D01*
X12872199Y61018915D01*
X12923954Y60922089D01*
X12923955Y60922086D01*
X12984053Y60723972D01*
X12999260Y60569570D01*
X12999260Y59466310D01*
X12984053Y59311908D01*
X12923955Y59113795D01*
X12923954Y59113791D01*
X12872199Y59016965D01*
X12826363Y58931211D01*
X12695025Y58771175D01*
X12534989Y58639837D01*
X12418290Y58577461D01*
X12352408Y58542246D01*
X12352405Y58542245D01*
X12154291Y58482147D01*
X11948260Y58461855D01*
X11742228Y58482147D01*
X11544114Y58542245D01*
X11544111Y58542246D01*
X11447285Y58594001D01*
X11361531Y58639837D01*
X11201495Y58771175D01*
X11070157Y58931211D01*
X10972567Y59113791D01*
X10972566Y59113792D01*
X10972565Y59113795D01*
X10912467Y59311909D01*
X10897260Y59466311D01*
X10897260Y60569571D01*
X10912467Y60723970D01*
X10972565Y60922087D01*
X11047444Y61062174D01*
X11070158Y61104669D01*
X11201496Y61264705D01*
X11361532Y61396043D01*
X11447286Y61441879D01*
X11544112Y61493634D01*
X11544115Y61493635D01*
X11742229Y61553733D01*
X11948260Y61574025D01*
X12154292Y61553733D01*
G37*
G36*
X14694292Y61553733D02*
G01*
X14892406Y61493635D01*
X14892409Y61493634D01*
X14989235Y61441879D01*
X15074989Y61396043D01*
X15235025Y61264705D01*
X15366363Y61104669D01*
X15412199Y61018915D01*
X15463954Y60922089D01*
X15463955Y60922086D01*
X15524053Y60723972D01*
X15539260Y60569570D01*
X15539260Y59466310D01*
X15524053Y59311908D01*
X15463955Y59113795D01*
X15463954Y59113791D01*
X15412199Y59016965D01*
X15366363Y58931211D01*
X15235025Y58771175D01*
X15074989Y58639837D01*
X14958290Y58577461D01*
X14892408Y58542246D01*
X14892405Y58542245D01*
X14694291Y58482147D01*
X14488260Y58461855D01*
X14282228Y58482147D01*
X14084114Y58542245D01*
X14084111Y58542246D01*
X13987285Y58594001D01*
X13901531Y58639837D01*
X13741495Y58771175D01*
X13610157Y58931211D01*
X13512567Y59113791D01*
X13512566Y59113792D01*
X13512565Y59113795D01*
X13452467Y59311909D01*
X13437260Y59466311D01*
X13437260Y60569571D01*
X13452467Y60723970D01*
X13512565Y60922087D01*
X13587444Y61062174D01*
X13610158Y61104669D01*
X13741496Y61264705D01*
X13901532Y61396043D01*
X13987286Y61441879D01*
X14084112Y61493634D01*
X14084115Y61493635D01*
X14282229Y61553733D01*
X14488260Y61574025D01*
X14694292Y61553733D01*
G37*
G36*
X17234292Y61553733D02*
G01*
X17432406Y61493635D01*
X17432409Y61493634D01*
X17529235Y61441879D01*
X17614989Y61396043D01*
X17775025Y61264705D01*
X17906363Y61104669D01*
X17952199Y61018915D01*
X18003954Y60922089D01*
X18003955Y60922086D01*
X18064053Y60723972D01*
X18079260Y60569570D01*
X18079260Y59466310D01*
X18064053Y59311908D01*
X18003955Y59113795D01*
X18003954Y59113791D01*
X17952199Y59016965D01*
X17906363Y58931211D01*
X17775025Y58771175D01*
X17614989Y58639837D01*
X17498290Y58577461D01*
X17432408Y58542246D01*
X17432405Y58542245D01*
X17234291Y58482147D01*
X17028260Y58461855D01*
X16822228Y58482147D01*
X16624114Y58542245D01*
X16624111Y58542246D01*
X16527285Y58594001D01*
X16441531Y58639837D01*
X16281495Y58771175D01*
X16150157Y58931211D01*
X16052567Y59113791D01*
X16052566Y59113792D01*
X16052565Y59113795D01*
X15992467Y59311909D01*
X15977260Y59466311D01*
X15977260Y60569571D01*
X15992467Y60723970D01*
X16052565Y60922087D01*
X16127444Y61062174D01*
X16150158Y61104669D01*
X16281496Y61264705D01*
X16441532Y61396043D01*
X16527286Y61441879D01*
X16624112Y61493634D01*
X16624115Y61493635D01*
X16822229Y61553733D01*
X17028260Y61574025D01*
X17234292Y61553733D01*
G37*
G36*
X19774292Y61553733D02*
G01*
X19972406Y61493635D01*
X19972409Y61493634D01*
X20069235Y61441879D01*
X20154989Y61396043D01*
X20315025Y61264705D01*
X20446363Y61104669D01*
X20492199Y61018915D01*
X20543954Y60922089D01*
X20543955Y60922086D01*
X20604053Y60723972D01*
X20619260Y60569570D01*
X20619260Y59466310D01*
X20604053Y59311908D01*
X20543955Y59113795D01*
X20543954Y59113791D01*
X20492199Y59016965D01*
X20446363Y58931211D01*
X20315025Y58771175D01*
X20154989Y58639837D01*
X20038290Y58577461D01*
X19972408Y58542246D01*
X19972405Y58542245D01*
X19774291Y58482147D01*
X19568260Y58461855D01*
X19362228Y58482147D01*
X19164114Y58542245D01*
X19164111Y58542246D01*
X19067285Y58594001D01*
X18981531Y58639837D01*
X18821495Y58771175D01*
X18690157Y58931211D01*
X18592567Y59113791D01*
X18592566Y59113792D01*
X18592565Y59113795D01*
X18532467Y59311909D01*
X18517260Y59466311D01*
X18517260Y60569571D01*
X18532467Y60723970D01*
X18592565Y60922087D01*
X18667444Y61062174D01*
X18690158Y61104669D01*
X18821496Y61264705D01*
X18981532Y61396043D01*
X19067286Y61441879D01*
X19164112Y61493634D01*
X19164115Y61493635D01*
X19362229Y61553733D01*
X19568260Y61574025D01*
X19774292Y61553733D01*
G37*
G36*
X22314292Y61553733D02*
G01*
X22512406Y61493635D01*
X22512409Y61493634D01*
X22609235Y61441879D01*
X22694989Y61396043D01*
X22855025Y61264705D01*
X22986363Y61104669D01*
X23032199Y61018915D01*
X23083954Y60922089D01*
X23083955Y60922086D01*
X23144053Y60723972D01*
X23159260Y60569570D01*
X23159260Y59466310D01*
X23144053Y59311908D01*
X23083955Y59113795D01*
X23083954Y59113791D01*
X23032199Y59016965D01*
X22986363Y58931211D01*
X22855025Y58771175D01*
X22694989Y58639837D01*
X22578290Y58577461D01*
X22512408Y58542246D01*
X22512405Y58542245D01*
X22314291Y58482147D01*
X22108260Y58461855D01*
X21902228Y58482147D01*
X21704114Y58542245D01*
X21704111Y58542246D01*
X21607285Y58594001D01*
X21521531Y58639837D01*
X21361495Y58771175D01*
X21230157Y58931211D01*
X21132567Y59113791D01*
X21132566Y59113792D01*
X21132565Y59113795D01*
X21072467Y59311909D01*
X21057260Y59466311D01*
X21057260Y60569571D01*
X21072467Y60723970D01*
X21132565Y60922087D01*
X21207444Y61062174D01*
X21230158Y61104669D01*
X21361496Y61264705D01*
X21521532Y61396043D01*
X21607286Y61441879D01*
X21704112Y61493634D01*
X21704115Y61493635D01*
X21902229Y61553733D01*
X22108260Y61574025D01*
X22314292Y61553733D01*
G37*
G36*
X35014292Y61553733D02*
G01*
X35212406Y61493635D01*
X35212409Y61493634D01*
X35309235Y61441879D01*
X35394989Y61396043D01*
X35555025Y61264705D01*
X35686363Y61104669D01*
X35732199Y61018915D01*
X35783954Y60922089D01*
X35783955Y60922086D01*
X35844053Y60723972D01*
X35859260Y60569570D01*
X35859260Y59466310D01*
X35844053Y59311908D01*
X35783955Y59113795D01*
X35783954Y59113791D01*
X35732199Y59016965D01*
X35686363Y58931211D01*
X35555025Y58771175D01*
X35394989Y58639837D01*
X35278290Y58577461D01*
X35212408Y58542246D01*
X35212405Y58542245D01*
X35014291Y58482147D01*
X34808260Y58461855D01*
X34602228Y58482147D01*
X34404114Y58542245D01*
X34404111Y58542246D01*
X34307285Y58594001D01*
X34221531Y58639837D01*
X34061495Y58771175D01*
X33930157Y58931211D01*
X33832567Y59113791D01*
X33832566Y59113792D01*
X33832565Y59113795D01*
X33772467Y59311909D01*
X33757260Y59466311D01*
X33757260Y60569571D01*
X33772467Y60723970D01*
X33832565Y60922087D01*
X33907444Y61062174D01*
X33930158Y61104669D01*
X34061496Y61264705D01*
X34221532Y61396043D01*
X34307286Y61441879D01*
X34404112Y61493634D01*
X34404115Y61493635D01*
X34602229Y61553733D01*
X34808260Y61574025D01*
X35014292Y61553733D01*
G37*
G36*
X32474292Y61553733D02*
G01*
X32672406Y61493635D01*
X32672409Y61493634D01*
X32769235Y61441879D01*
X32854989Y61396043D01*
X33015025Y61264705D01*
X33146363Y61104669D01*
X33192199Y61018915D01*
X33243954Y60922089D01*
X33243955Y60922086D01*
X33304053Y60723972D01*
X33319260Y60569570D01*
X33319260Y59466310D01*
X33304053Y59311908D01*
X33243955Y59113795D01*
X33243954Y59113791D01*
X33192199Y59016965D01*
X33146363Y58931211D01*
X33015025Y58771175D01*
X32854989Y58639837D01*
X32738290Y58577461D01*
X32672408Y58542246D01*
X32672405Y58542245D01*
X32474291Y58482147D01*
X32268260Y58461855D01*
X32062228Y58482147D01*
X31864114Y58542245D01*
X31864111Y58542246D01*
X31767285Y58594001D01*
X31681531Y58639837D01*
X31521495Y58771175D01*
X31390157Y58931211D01*
X31292567Y59113791D01*
X31292566Y59113792D01*
X31292565Y59113795D01*
X31232467Y59311909D01*
X31217260Y59466311D01*
X31217260Y60569571D01*
X31232467Y60723970D01*
X31292565Y60922087D01*
X31367444Y61062174D01*
X31390158Y61104669D01*
X31521496Y61264705D01*
X31681532Y61396043D01*
X31767286Y61441879D01*
X31864112Y61493634D01*
X31864115Y61493635D01*
X32062229Y61553733D01*
X32268260Y61574025D01*
X32474292Y61553733D01*
G37*
G36*
X47714292Y61553733D02*
G01*
X47912406Y61493635D01*
X47912409Y61493634D01*
X48009235Y61441879D01*
X48094989Y61396043D01*
X48255025Y61264705D01*
X48386363Y61104669D01*
X48432199Y61018915D01*
X48483954Y60922089D01*
X48483955Y60922086D01*
X48544053Y60723972D01*
X48559260Y60569570D01*
X48559260Y59466310D01*
X48544053Y59311908D01*
X48483955Y59113795D01*
X48483954Y59113791D01*
X48432199Y59016965D01*
X48386363Y58931211D01*
X48255025Y58771175D01*
X48094989Y58639837D01*
X47978290Y58577461D01*
X47912408Y58542246D01*
X47912405Y58542245D01*
X47714291Y58482147D01*
X47508260Y58461855D01*
X47302228Y58482147D01*
X47104114Y58542245D01*
X47104111Y58542246D01*
X47007285Y58594001D01*
X46921531Y58639837D01*
X46761495Y58771175D01*
X46630157Y58931211D01*
X46532567Y59113791D01*
X46532566Y59113792D01*
X46532565Y59113795D01*
X46472467Y59311909D01*
X46457260Y59466311D01*
X46457260Y60569571D01*
X46472467Y60723970D01*
X46532565Y60922087D01*
X46607444Y61062174D01*
X46630158Y61104669D01*
X46761496Y61264705D01*
X46921532Y61396043D01*
X47007286Y61441879D01*
X47104112Y61493634D01*
X47104115Y61493635D01*
X47302229Y61553733D01*
X47508260Y61574025D01*
X47714292Y61553733D01*
G37*
G36*
X27394292Y61553733D02*
G01*
X27592406Y61493635D01*
X27592409Y61493634D01*
X27689235Y61441879D01*
X27774989Y61396043D01*
X27935025Y61264705D01*
X28066363Y61104669D01*
X28112199Y61018915D01*
X28163954Y60922089D01*
X28163955Y60922086D01*
X28224053Y60723972D01*
X28239260Y60569570D01*
X28239260Y59466310D01*
X28224053Y59311908D01*
X28163955Y59113795D01*
X28163954Y59113791D01*
X28112199Y59016965D01*
X28066363Y58931211D01*
X27935025Y58771175D01*
X27774989Y58639837D01*
X27658290Y58577461D01*
X27592408Y58542246D01*
X27592405Y58542245D01*
X27394291Y58482147D01*
X27188260Y58461855D01*
X26982228Y58482147D01*
X26784114Y58542245D01*
X26784111Y58542246D01*
X26687285Y58594001D01*
X26601531Y58639837D01*
X26441495Y58771175D01*
X26310157Y58931211D01*
X26212567Y59113791D01*
X26212566Y59113792D01*
X26212565Y59113795D01*
X26152467Y59311909D01*
X26137260Y59466311D01*
X26137260Y60569571D01*
X26152467Y60723970D01*
X26212565Y60922087D01*
X26287444Y61062174D01*
X26310158Y61104669D01*
X26441496Y61264705D01*
X26601532Y61396043D01*
X26687286Y61441879D01*
X26784112Y61493634D01*
X26784115Y61493635D01*
X26982229Y61553733D01*
X27188260Y61574025D01*
X27394292Y61553733D01*
G37*
G36*
X29934292Y61553733D02*
G01*
X30132406Y61493635D01*
X30132409Y61493634D01*
X30229235Y61441879D01*
X30314989Y61396043D01*
X30475025Y61264705D01*
X30606363Y61104669D01*
X30652199Y61018915D01*
X30703954Y60922089D01*
X30703955Y60922086D01*
X30764053Y60723972D01*
X30779260Y60569570D01*
X30779260Y59466310D01*
X30764053Y59311908D01*
X30703955Y59113795D01*
X30703954Y59113791D01*
X30652199Y59016965D01*
X30606363Y58931211D01*
X30475025Y58771175D01*
X30314989Y58639837D01*
X30198290Y58577461D01*
X30132408Y58542246D01*
X30132405Y58542245D01*
X29934291Y58482147D01*
X29728260Y58461855D01*
X29522228Y58482147D01*
X29324114Y58542245D01*
X29324111Y58542246D01*
X29227285Y58594001D01*
X29141531Y58639837D01*
X28981495Y58771175D01*
X28850157Y58931211D01*
X28752567Y59113791D01*
X28752566Y59113792D01*
X28752565Y59113795D01*
X28692467Y59311909D01*
X28677260Y59466311D01*
X28677260Y60569571D01*
X28692467Y60723970D01*
X28752565Y60922087D01*
X28827444Y61062174D01*
X28850158Y61104669D01*
X28981496Y61264705D01*
X29141532Y61396043D01*
X29227286Y61441879D01*
X29324112Y61493634D01*
X29324115Y61493635D01*
X29522229Y61553733D01*
X29728260Y61574025D01*
X29934292Y61553733D01*
G37*
G36*
X24854292Y61553733D02*
G01*
X25052406Y61493635D01*
X25052409Y61493634D01*
X25149235Y61441879D01*
X25234989Y61396043D01*
X25395025Y61264705D01*
X25526363Y61104669D01*
X25572199Y61018915D01*
X25623954Y60922089D01*
X25623955Y60922086D01*
X25684053Y60723972D01*
X25699260Y60569570D01*
X25699260Y59466310D01*
X25684053Y59311908D01*
X25623955Y59113795D01*
X25623954Y59113791D01*
X25572199Y59016965D01*
X25526363Y58931211D01*
X25395025Y58771175D01*
X25234989Y58639837D01*
X25118290Y58577461D01*
X25052408Y58542246D01*
X25052405Y58542245D01*
X24854291Y58482147D01*
X24648260Y58461855D01*
X24442228Y58482147D01*
X24244114Y58542245D01*
X24244111Y58542246D01*
X24147285Y58594001D01*
X24061531Y58639837D01*
X23901495Y58771175D01*
X23770157Y58931211D01*
X23672567Y59113791D01*
X23672566Y59113792D01*
X23672565Y59113795D01*
X23612467Y59311909D01*
X23597260Y59466311D01*
X23597260Y60569571D01*
X23612467Y60723970D01*
X23672565Y60922087D01*
X23747444Y61062174D01*
X23770158Y61104669D01*
X23901496Y61264705D01*
X24061532Y61396043D01*
X24147286Y61441879D01*
X24244112Y61493634D01*
X24244115Y61493635D01*
X24442229Y61553733D01*
X24648260Y61574025D01*
X24854292Y61553733D01*
G37*
G36*
X51099260Y58466940D02*
G01*
X48997260Y58466940D01*
X48997260Y61568940D01*
X51099260Y61568940D01*
X51099260Y58466940D01*
G37*
G36*
X19489845Y65857138D02*
G01*
X19639670Y65827336D01*
X19921934Y65710419D01*
X20175965Y65540681D01*
X20392001Y65324645D01*
X20561739Y65070614D01*
X20678656Y64788350D01*
X20687736Y64742701D01*
X20738260Y64488701D01*
X20738260Y64183179D01*
X20726139Y64122245D01*
X20678656Y63883530D01*
X20561739Y63601266D01*
X20392001Y63347235D01*
X20175965Y63131199D01*
X19921934Y62961461D01*
X19639670Y62844544D01*
X19489845Y62814742D01*
X19340021Y62784940D01*
X19034499Y62784940D01*
X18884675Y62814742D01*
X18734850Y62844544D01*
X18452586Y62961461D01*
X18198555Y63131199D01*
X17982519Y63347235D01*
X17812781Y63601266D01*
X17695864Y63883530D01*
X17648381Y64122245D01*
X17636260Y64183179D01*
X17636260Y64488701D01*
X17686784Y64742701D01*
X17695864Y64788350D01*
X17812781Y65070614D01*
X17982519Y65324645D01*
X18198555Y65540681D01*
X18452586Y65710419D01*
X18734850Y65827336D01*
X18884675Y65857138D01*
X19034499Y65886940D01*
X19340021Y65886940D01*
X19489845Y65857138D01*
G37*
G36*
X32570845Y66111138D02*
G01*
X32720670Y66081336D01*
X33002934Y65964419D01*
X33256965Y65794681D01*
X33473001Y65578645D01*
X33642739Y65324614D01*
X33759656Y65042350D01*
X33766900Y65005930D01*
X33819260Y64742701D01*
X33819260Y64437179D01*
X33807139Y64376245D01*
X33759656Y64137530D01*
X33642739Y63855266D01*
X33473001Y63601235D01*
X33256965Y63385199D01*
X33002934Y63215461D01*
X32720670Y63098544D01*
X32570845Y63068742D01*
X32421021Y63038940D01*
X32115499Y63038940D01*
X31965675Y63068742D01*
X31815850Y63098544D01*
X31533586Y63215461D01*
X31279555Y63385199D01*
X31063519Y63601235D01*
X30893781Y63855266D01*
X30776864Y64137530D01*
X30729381Y64376245D01*
X30717260Y64437179D01*
X30717260Y64742701D01*
X30769620Y65005930D01*
X30776864Y65042350D01*
X30893781Y65324614D01*
X31063519Y65578645D01*
X31279555Y65794681D01*
X31533586Y65964419D01*
X31815850Y66081336D01*
X31965675Y66111138D01*
X32115499Y66140940D01*
X32421021Y66140940D01*
X32570845Y66111138D01*
G37*
G36*
X47556845Y66111138D02*
G01*
X47706670Y66081336D01*
X47988934Y65964419D01*
X48242965Y65794681D01*
X48459001Y65578645D01*
X48628739Y65324614D01*
X48745656Y65042350D01*
X48752900Y65005930D01*
X48805260Y64742701D01*
X48805260Y64437179D01*
X48793139Y64376245D01*
X48745656Y64137530D01*
X48628739Y63855266D01*
X48459001Y63601235D01*
X48242965Y63385199D01*
X47988934Y63215461D01*
X47706670Y63098544D01*
X47556845Y63068742D01*
X47407021Y63038940D01*
X47101499Y63038940D01*
X46951675Y63068742D01*
X46801850Y63098544D01*
X46519586Y63215461D01*
X46265555Y63385199D01*
X46049519Y63601235D01*
X45879781Y63855266D01*
X45762864Y64137530D01*
X45715381Y64376245D01*
X45703260Y64437179D01*
X45703260Y64742701D01*
X45755620Y65005930D01*
X45762864Y65042350D01*
X45879781Y65324614D01*
X46049519Y65578645D01*
X46265555Y65794681D01*
X46519586Y65964419D01*
X46801850Y66081336D01*
X46951675Y66111138D01*
X47101499Y66140940D01*
X47407021Y66140940D01*
X47556845Y66111138D01*
G37*
G36*
X41460845Y66111138D02*
G01*
X41610670Y66081336D01*
X41892934Y65964419D01*
X42146965Y65794681D01*
X42363001Y65578645D01*
X42532739Y65324614D01*
X42649656Y65042350D01*
X42656900Y65005930D01*
X42709260Y64742701D01*
X42709260Y64437179D01*
X42697139Y64376245D01*
X42649656Y64137530D01*
X42532739Y63855266D01*
X42363001Y63601235D01*
X42146965Y63385199D01*
X41892934Y63215461D01*
X41610670Y63098544D01*
X41460845Y63068742D01*
X41311021Y63038940D01*
X41005499Y63038940D01*
X40855675Y63068742D01*
X40705850Y63098544D01*
X40423586Y63215461D01*
X40169555Y63385199D01*
X39953519Y63601235D01*
X39783781Y63855266D01*
X39666864Y64137530D01*
X39619381Y64376245D01*
X39607260Y64437179D01*
X39607260Y64742701D01*
X39659620Y65005930D01*
X39666864Y65042350D01*
X39783781Y65324614D01*
X39953519Y65578645D01*
X40169555Y65794681D01*
X40423586Y65964419D01*
X40705850Y66081336D01*
X40855675Y66111138D01*
X41005499Y66140940D01*
X41311021Y66140940D01*
X41460845Y66111138D01*
G37*
G36*
X37443357Y66143871D02*
G01*
X37546292Y66133733D01*
X37744406Y66073635D01*
X37744409Y66073634D01*
X37841235Y66021879D01*
X37926989Y65976043D01*
X38087025Y65844705D01*
X38218363Y65684669D01*
X38255009Y65616109D01*
X38315954Y65502089D01*
X38315955Y65502086D01*
X38376053Y65303972D01*
X38396345Y65097940D01*
X38376053Y64891908D01*
X38326282Y64727837D01*
X38315954Y64693791D01*
X38264199Y64596965D01*
X38218363Y64511211D01*
X38087025Y64351175D01*
X37926989Y64219837D01*
X37858408Y64183180D01*
X37744409Y64122246D01*
X37744406Y64122245D01*
X37546292Y64062147D01*
X37443357Y64052009D01*
X37391891Y64046940D01*
X36288629Y64046940D01*
X36237163Y64052009D01*
X36134228Y64062147D01*
X35936114Y64122245D01*
X35936111Y64122246D01*
X35822112Y64183180D01*
X35753531Y64219837D01*
X35593495Y64351175D01*
X35462157Y64511211D01*
X35416321Y64596965D01*
X35364566Y64693791D01*
X35354238Y64727837D01*
X35304467Y64891908D01*
X35284175Y65097940D01*
X35304467Y65303972D01*
X35364565Y65502086D01*
X35364566Y65502089D01*
X35425511Y65616109D01*
X35462157Y65684669D01*
X35593495Y65844705D01*
X35753531Y65976043D01*
X35839285Y66021879D01*
X35936111Y66073634D01*
X35936114Y66073635D01*
X36134228Y66133733D01*
X36237163Y66143871D01*
X36288629Y66148940D01*
X37391891Y66148940D01*
X37443357Y66143871D01*
G37*
G36*
X5027777Y66257891D02*
G01*
X5130712Y66247753D01*
X5328826Y66187655D01*
X5328829Y66187654D01*
X5401257Y66148940D01*
X5511409Y66090063D01*
X5671445Y65958725D01*
X5802783Y65798689D01*
X5848619Y65712935D01*
X5900374Y65616109D01*
X5900375Y65616106D01*
X5960473Y65417992D01*
X5980765Y65211960D01*
X5960473Y65005928D01*
X5925885Y64891908D01*
X5900374Y64807811D01*
X5865572Y64742701D01*
X5802783Y64625231D01*
X5671445Y64465195D01*
X5511409Y64333857D01*
X5449825Y64300940D01*
X5328829Y64236266D01*
X5328826Y64236265D01*
X5130712Y64176167D01*
X5027777Y64166029D01*
X4976311Y64160960D01*
X3873049Y64160960D01*
X3821583Y64166029D01*
X3718648Y64176167D01*
X3520534Y64236265D01*
X3520531Y64236266D01*
X3399535Y64300940D01*
X3337951Y64333857D01*
X3177915Y64465195D01*
X3046577Y64625231D01*
X2983788Y64742701D01*
X2948986Y64807811D01*
X2923475Y64891908D01*
X2888887Y65005928D01*
X2868595Y65211960D01*
X2888887Y65417992D01*
X2948985Y65616106D01*
X2948986Y65616109D01*
X3000741Y65712935D01*
X3046577Y65798689D01*
X3177915Y65958725D01*
X3337951Y66090063D01*
X3448103Y66148940D01*
X3520531Y66187654D01*
X3520534Y66187655D01*
X3718648Y66247753D01*
X3821583Y66257891D01*
X3873049Y66262960D01*
X4976311Y66262960D01*
X5027777Y66257891D01*
G37*
G36*
X28553357Y66397871D02*
G01*
X28656292Y66387733D01*
X28854406Y66327635D01*
X28854409Y66327634D01*
X28951235Y66275879D01*
X29036989Y66230043D01*
X29197025Y66098705D01*
X29328363Y65938669D01*
X29374199Y65852915D01*
X29425954Y65756089D01*
X29425955Y65756086D01*
X29486053Y65557972D01*
X29506345Y65351940D01*
X29486053Y65145908D01*
X29443590Y65005928D01*
X29425954Y64947791D01*
X29374199Y64850965D01*
X29328363Y64765211D01*
X29197025Y64605175D01*
X29036989Y64473837D01*
X28968408Y64437180D01*
X28854409Y64376246D01*
X28854406Y64376245D01*
X28656292Y64316147D01*
X28553357Y64306009D01*
X28501891Y64300940D01*
X27398629Y64300940D01*
X27347163Y64306009D01*
X27244228Y64316147D01*
X27046114Y64376245D01*
X27046111Y64376246D01*
X26932112Y64437180D01*
X26863531Y64473837D01*
X26703495Y64605175D01*
X26572157Y64765211D01*
X26526321Y64850965D01*
X26474566Y64947791D01*
X26456930Y65005928D01*
X26414467Y65145908D01*
X26394175Y65351940D01*
X26414467Y65557972D01*
X26474565Y65756086D01*
X26474566Y65756089D01*
X26526321Y65852915D01*
X26572157Y65938669D01*
X26703495Y66098705D01*
X26863531Y66230043D01*
X26949285Y66275879D01*
X27046111Y66327634D01*
X27046114Y66327635D01*
X27244228Y66387733D01*
X27347163Y66397871D01*
X27398629Y66402940D01*
X28501891Y66402940D01*
X28553357Y66397871D01*
G37*
G36*
X24743357Y66651871D02*
G01*
X24846292Y66641733D01*
X25044406Y66581635D01*
X25044409Y66581634D01*
X25141235Y66529879D01*
X25226989Y66484043D01*
X25387025Y66352705D01*
X25518363Y66192669D01*
X25549865Y66133733D01*
X25615954Y66010089D01*
X25615955Y66010086D01*
X25676053Y65811972D01*
X25696345Y65605940D01*
X25676053Y65399908D01*
X25646950Y65303970D01*
X25615954Y65201791D01*
X25586085Y65145910D01*
X25518363Y65019211D01*
X25387025Y64859175D01*
X25226989Y64727837D01*
X25163293Y64693791D01*
X25044409Y64630246D01*
X25044406Y64630245D01*
X24846292Y64570147D01*
X24743357Y64560009D01*
X24691891Y64554940D01*
X23588629Y64554940D01*
X23537163Y64560009D01*
X23434228Y64570147D01*
X23236114Y64630245D01*
X23236111Y64630246D01*
X23117227Y64693791D01*
X23053531Y64727837D01*
X22893495Y64859175D01*
X22762157Y65019211D01*
X22694435Y65145910D01*
X22664566Y65201791D01*
X22633570Y65303970D01*
X22604467Y65399908D01*
X22584175Y65605940D01*
X22604467Y65811972D01*
X22664565Y66010086D01*
X22664566Y66010089D01*
X22730655Y66133733D01*
X22762157Y66192669D01*
X22893495Y66352705D01*
X23053531Y66484043D01*
X23139285Y66529879D01*
X23236111Y66581634D01*
X23236114Y66581635D01*
X23434228Y66641733D01*
X23537163Y66651871D01*
X23588629Y66656940D01*
X24691891Y66656940D01*
X24743357Y66651871D01*
G37*
G36*
X52302357Y66651871D02*
G01*
X52405292Y66641733D01*
X52603406Y66581635D01*
X52603409Y66581634D01*
X52700235Y66529879D01*
X52785989Y66484043D01*
X52946025Y66352705D01*
X53077363Y66192669D01*
X53108865Y66133733D01*
X53174954Y66010089D01*
X53174955Y66010086D01*
X53235053Y65811972D01*
X53255345Y65605940D01*
X53235053Y65399908D01*
X53205950Y65303970D01*
X53174954Y65201791D01*
X53145085Y65145910D01*
X53077363Y65019211D01*
X52946025Y64859175D01*
X52785989Y64727837D01*
X52722293Y64693791D01*
X52603409Y64630246D01*
X52603406Y64630245D01*
X52405292Y64570147D01*
X52302357Y64560009D01*
X52250891Y64554940D01*
X51147629Y64554940D01*
X51096163Y64560009D01*
X50993228Y64570147D01*
X50795114Y64630245D01*
X50795111Y64630246D01*
X50676227Y64693791D01*
X50612531Y64727837D01*
X50452495Y64859175D01*
X50321157Y65019211D01*
X50253435Y65145910D01*
X50223566Y65201791D01*
X50192570Y65303970D01*
X50163467Y65399908D01*
X50143175Y65605940D01*
X50163467Y65811972D01*
X50223565Y66010086D01*
X50223566Y66010089D01*
X50289655Y66133733D01*
X50321157Y66192669D01*
X50452495Y66352705D01*
X50612531Y66484043D01*
X50698285Y66529879D01*
X50795111Y66581634D01*
X50795114Y66581635D01*
X50993228Y66641733D01*
X51096163Y66651871D01*
X51147629Y66656940D01*
X52250891Y66656940D01*
X52302357Y66651871D01*
G37*
G36*
X5975680Y66700960D02*
G01*
X2873680Y66700960D01*
X2873680Y68802960D01*
X5975680Y68802960D01*
X5975680Y66700960D01*
G37*
G36*
X19489845Y71357138D02*
G01*
X19639670Y71327336D01*
X19921934Y71210419D01*
X20175965Y71040681D01*
X20392001Y70824645D01*
X20561739Y70570614D01*
X20678656Y70288350D01*
X20687736Y70242701D01*
X20738260Y69988701D01*
X20738260Y69683179D01*
X20719966Y69591211D01*
X20678656Y69383530D01*
X20561739Y69101266D01*
X20392001Y68847235D01*
X20175965Y68631199D01*
X19921934Y68461461D01*
X19639670Y68344544D01*
X19489845Y68314742D01*
X19340021Y68284940D01*
X19034499Y68284940D01*
X18884675Y68314742D01*
X18734850Y68344544D01*
X18452586Y68461461D01*
X18198555Y68631199D01*
X17982519Y68847235D01*
X17812781Y69101266D01*
X17695864Y69383530D01*
X17654554Y69591211D01*
X17636260Y69683179D01*
X17636260Y69988701D01*
X17686784Y70242701D01*
X17695864Y70288350D01*
X17812781Y70570614D01*
X17982519Y70824645D01*
X18198555Y71040681D01*
X18452586Y71210419D01*
X18734850Y71327336D01*
X18884675Y71357138D01*
X19034499Y71386940D01*
X19340021Y71386940D01*
X19489845Y71357138D01*
G37*
G36*
X41460845Y71611138D02*
G01*
X41610670Y71581336D01*
X41892934Y71464419D01*
X42146965Y71294681D01*
X42363001Y71078645D01*
X42532739Y70824614D01*
X42649656Y70542350D01*
X42649656Y70542349D01*
X42709260Y70242701D01*
X42709260Y69937179D01*
X42690966Y69845211D01*
X42649656Y69637530D01*
X42532739Y69355266D01*
X42363001Y69101235D01*
X42146965Y68885199D01*
X41892934Y68715461D01*
X41610670Y68598544D01*
X41460845Y68568742D01*
X41311021Y68538940D01*
X41005499Y68538940D01*
X40855675Y68568742D01*
X40705850Y68598544D01*
X40423586Y68715461D01*
X40169555Y68885199D01*
X39953519Y69101235D01*
X39783781Y69355266D01*
X39666864Y69637530D01*
X39625554Y69845211D01*
X39607260Y69937179D01*
X39607260Y70242701D01*
X39666864Y70542349D01*
X39666864Y70542350D01*
X39783781Y70824614D01*
X39953519Y71078645D01*
X40169555Y71294681D01*
X40423586Y71464419D01*
X40705850Y71581336D01*
X40855675Y71611138D01*
X41005499Y71640940D01*
X41311021Y71640940D01*
X41460845Y71611138D01*
G37*
G36*
X32570845Y71611138D02*
G01*
X32720670Y71581336D01*
X33002934Y71464419D01*
X33256965Y71294681D01*
X33473001Y71078645D01*
X33642739Y70824614D01*
X33759656Y70542350D01*
X33759656Y70542349D01*
X33819260Y70242701D01*
X33819260Y69937179D01*
X33800966Y69845211D01*
X33759656Y69637530D01*
X33642739Y69355266D01*
X33473001Y69101235D01*
X33256965Y68885199D01*
X33002934Y68715461D01*
X32720670Y68598544D01*
X32570845Y68568742D01*
X32421021Y68538940D01*
X32115499Y68538940D01*
X31965675Y68568742D01*
X31815850Y68598544D01*
X31533586Y68715461D01*
X31279555Y68885199D01*
X31063519Y69101235D01*
X30893781Y69355266D01*
X30776864Y69637530D01*
X30735554Y69845211D01*
X30717260Y69937179D01*
X30717260Y70242701D01*
X30776864Y70542349D01*
X30776864Y70542350D01*
X30893781Y70824614D01*
X31063519Y71078645D01*
X31279555Y71294681D01*
X31533586Y71464419D01*
X31815850Y71581336D01*
X31965675Y71611138D01*
X32115499Y71640940D01*
X32421021Y71640940D01*
X32570845Y71611138D01*
G37*
G36*
X47556845Y71611138D02*
G01*
X47706670Y71581336D01*
X47988934Y71464419D01*
X48242965Y71294681D01*
X48459001Y71078645D01*
X48628739Y70824614D01*
X48745656Y70542350D01*
X48745656Y70542349D01*
X48805260Y70242701D01*
X48805260Y69937179D01*
X48786966Y69845211D01*
X48745656Y69637530D01*
X48628739Y69355266D01*
X48459001Y69101235D01*
X48242965Y68885199D01*
X47988934Y68715461D01*
X47706670Y68598544D01*
X47556845Y68568742D01*
X47407021Y68538940D01*
X47101499Y68538940D01*
X46951675Y68568742D01*
X46801850Y68598544D01*
X46519586Y68715461D01*
X46265555Y68885199D01*
X46049519Y69101235D01*
X45879781Y69355266D01*
X45762864Y69637530D01*
X45721554Y69845211D01*
X45703260Y69937179D01*
X45703260Y70242701D01*
X45762864Y70542349D01*
X45762864Y70542350D01*
X45879781Y70824614D01*
X46049519Y71078645D01*
X46265555Y71294681D01*
X46519586Y71464419D01*
X46801850Y71581336D01*
X46951675Y71611138D01*
X47101499Y71640940D01*
X47407021Y71640940D01*
X47556845Y71611138D01*
G37*
G36*
X37443357Y71223871D02*
G01*
X37546292Y71213733D01*
X37744406Y71153635D01*
X37744409Y71153634D01*
X37841235Y71101879D01*
X37926989Y71056043D01*
X38087025Y70924705D01*
X38218363Y70764669D01*
X38260444Y70685940D01*
X38315954Y70582089D01*
X38315955Y70582086D01*
X38376053Y70383972D01*
X38396345Y70177940D01*
X38376053Y69971908D01*
X38337619Y69845211D01*
X38315954Y69773791D01*
X38267521Y69683180D01*
X38218363Y69591211D01*
X38087025Y69431175D01*
X37926989Y69299837D01*
X37841235Y69254001D01*
X37744409Y69202246D01*
X37744406Y69202245D01*
X37546292Y69142147D01*
X37443357Y69132009D01*
X37391891Y69126940D01*
X36288629Y69126940D01*
X36237163Y69132009D01*
X36134228Y69142147D01*
X35936114Y69202245D01*
X35936111Y69202246D01*
X35839285Y69254001D01*
X35753531Y69299837D01*
X35593495Y69431175D01*
X35462157Y69591211D01*
X35412999Y69683180D01*
X35364566Y69773791D01*
X35342901Y69845211D01*
X35304467Y69971908D01*
X35284175Y70177940D01*
X35304467Y70383972D01*
X35364565Y70582086D01*
X35364566Y70582089D01*
X35420076Y70685940D01*
X35462157Y70764669D01*
X35593495Y70924705D01*
X35753531Y71056043D01*
X35839285Y71101879D01*
X35936111Y71153634D01*
X35936114Y71153635D01*
X36134228Y71213733D01*
X36237163Y71223871D01*
X36288629Y71228940D01*
X37391891Y71228940D01*
X37443357Y71223871D01*
G37*
G36*
X28553357Y71477871D02*
G01*
X28656292Y71467733D01*
X28854406Y71407635D01*
X28854409Y71407634D01*
X28951235Y71355879D01*
X29036989Y71310043D01*
X29197025Y71178705D01*
X29328363Y71018669D01*
X29374199Y70932915D01*
X29425954Y70836089D01*
X29425955Y70836086D01*
X29486053Y70637972D01*
X29506345Y70431940D01*
X29486053Y70225908D01*
X29447619Y70099211D01*
X29425954Y70027791D01*
X29377521Y69937180D01*
X29328363Y69845211D01*
X29197025Y69685175D01*
X29036989Y69553837D01*
X28951235Y69508001D01*
X28854409Y69456246D01*
X28854406Y69456245D01*
X28656292Y69396147D01*
X28553357Y69386009D01*
X28501891Y69380940D01*
X27398629Y69380940D01*
X27347163Y69386009D01*
X27244228Y69396147D01*
X27046114Y69456245D01*
X27046111Y69456246D01*
X26949285Y69508001D01*
X26863531Y69553837D01*
X26703495Y69685175D01*
X26572157Y69845211D01*
X26522999Y69937180D01*
X26474566Y70027791D01*
X26452901Y70099211D01*
X26414467Y70225908D01*
X26394175Y70431940D01*
X26414467Y70637972D01*
X26474565Y70836086D01*
X26474566Y70836089D01*
X26526321Y70932915D01*
X26572157Y71018669D01*
X26703495Y71178705D01*
X26863531Y71310043D01*
X26949285Y71355879D01*
X27046111Y71407634D01*
X27046114Y71407635D01*
X27244228Y71467733D01*
X27347163Y71477871D01*
X27398629Y71482940D01*
X28501891Y71482940D01*
X28553357Y71477871D01*
G37*
G36*
X52302357Y71731871D02*
G01*
X52405292Y71721733D01*
X52603406Y71661635D01*
X52603409Y71661634D01*
X52700235Y71609879D01*
X52785989Y71564043D01*
X52946025Y71432705D01*
X53077363Y71272669D01*
X53100736Y71228940D01*
X53174954Y71090089D01*
X53174955Y71090086D01*
X53235053Y70891972D01*
X53255345Y70685940D01*
X53235053Y70479908D01*
X53205950Y70383970D01*
X53174954Y70281791D01*
X53154059Y70242700D01*
X53077363Y70099211D01*
X52946025Y69939175D01*
X52785989Y69807837D01*
X52722293Y69773791D01*
X52603409Y69710246D01*
X52603406Y69710245D01*
X52405292Y69650147D01*
X52302357Y69640009D01*
X52250891Y69634940D01*
X51147629Y69634940D01*
X51096163Y69640009D01*
X50993228Y69650147D01*
X50795114Y69710245D01*
X50795111Y69710246D01*
X50676227Y69773791D01*
X50612531Y69807837D01*
X50452495Y69939175D01*
X50321157Y70099211D01*
X50244461Y70242700D01*
X50223566Y70281791D01*
X50192570Y70383970D01*
X50163467Y70479908D01*
X50143175Y70685940D01*
X50163467Y70891972D01*
X50223565Y71090086D01*
X50223566Y71090089D01*
X50297784Y71228940D01*
X50321157Y71272669D01*
X50452495Y71432705D01*
X50612531Y71564043D01*
X50698285Y71609879D01*
X50795111Y71661634D01*
X50795114Y71661635D01*
X50993228Y71721733D01*
X51096163Y71731871D01*
X51147629Y71736940D01*
X52250891Y71736940D01*
X52302357Y71731871D01*
G37*
G36*
X24743357Y71731871D02*
G01*
X24846292Y71721733D01*
X25044406Y71661635D01*
X25044409Y71661634D01*
X25141235Y71609879D01*
X25226989Y71564043D01*
X25387025Y71432705D01*
X25518363Y71272669D01*
X25541736Y71228940D01*
X25615954Y71090089D01*
X25615955Y71090086D01*
X25676053Y70891972D01*
X25696345Y70685940D01*
X25676053Y70479908D01*
X25646950Y70383970D01*
X25615954Y70281791D01*
X25595059Y70242700D01*
X25518363Y70099211D01*
X25387025Y69939175D01*
X25226989Y69807837D01*
X25163293Y69773791D01*
X25044409Y69710246D01*
X25044406Y69710245D01*
X24846292Y69650147D01*
X24743357Y69640009D01*
X24691891Y69634940D01*
X23588629Y69634940D01*
X23537163Y69640009D01*
X23434228Y69650147D01*
X23236114Y69710245D01*
X23236111Y69710246D01*
X23117227Y69773791D01*
X23053531Y69807837D01*
X22893495Y69939175D01*
X22762157Y70099211D01*
X22685461Y70242700D01*
X22664566Y70281791D01*
X22633570Y70383970D01*
X22604467Y70479908D01*
X22584175Y70685940D01*
X22604467Y70891972D01*
X22664565Y71090086D01*
X22664566Y71090089D01*
X22738784Y71228940D01*
X22762157Y71272669D01*
X22893495Y71432705D01*
X23053531Y71564043D01*
X23139285Y71609879D01*
X23236111Y71661634D01*
X23236114Y71661635D01*
X23434228Y71721733D01*
X23537163Y71731871D01*
X23588629Y71736940D01*
X24691891Y71736940D01*
X24743357Y71731871D01*
G37*
G36*
X37160591Y75638033D02*
G01*
X37358705Y75577935D01*
X37358708Y75577934D01*
X37424590Y75542719D01*
X37541289Y75480343D01*
X37701325Y75349005D01*
X37832663Y75188969D01*
X37832664Y75188967D01*
X37930254Y75006389D01*
X37930254Y75006388D01*
X37930255Y75006386D01*
X37990353Y74808272D01*
X38005560Y74653870D01*
X38005560Y73550610D01*
X37990353Y73396208D01*
X37945664Y73248891D01*
X37930254Y73198091D01*
X37897831Y73137433D01*
X37832663Y73015511D01*
X37701325Y72855475D01*
X37541289Y72724137D01*
X37458501Y72679886D01*
X37358709Y72626546D01*
X37358706Y72626545D01*
X37160592Y72566447D01*
X36954560Y72546155D01*
X36748529Y72566447D01*
X36550415Y72626545D01*
X36550412Y72626546D01*
X36450620Y72679886D01*
X36367832Y72724137D01*
X36207796Y72855475D01*
X36076458Y73015511D01*
X36047947Y73068852D01*
X35978865Y73198093D01*
X35918767Y73396210D01*
X35903560Y73550609D01*
X35903560Y74653870D01*
X35918767Y74808269D01*
X35918767Y74808271D01*
X35978865Y75006385D01*
X35978866Y75006388D01*
X36014081Y75072270D01*
X36076457Y75188969D01*
X36207795Y75349005D01*
X36367831Y75480343D01*
X36478205Y75539339D01*
X36550411Y75577934D01*
X36550414Y75577935D01*
X36748528Y75638033D01*
X36954560Y75658325D01*
X37160591Y75638033D01*
G37*
G36*
X35465560Y72551240D02*
G01*
X33363560Y72551240D01*
X33363560Y75653240D01*
X35465560Y75653240D01*
X35465560Y72551240D01*
G37*
G36*
X10465092Y75660613D02*
G01*
X10663206Y75600515D01*
X10663209Y75600514D01*
X10760035Y75548759D01*
X10845789Y75502923D01*
X11005825Y75371585D01*
X11137163Y75211549D01*
X11149233Y75188967D01*
X11234754Y75028969D01*
X11234755Y75028966D01*
X11294853Y74830852D01*
X11310060Y74676450D01*
X11310060Y73573190D01*
X11294853Y73418788D01*
X11234755Y73220675D01*
X11234754Y73220671D01*
X11190262Y73137433D01*
X11137163Y73038091D01*
X11005825Y72878055D01*
X10845789Y72746717D01*
X10729090Y72684341D01*
X10663208Y72649126D01*
X10663205Y72649125D01*
X10465091Y72589027D01*
X10259060Y72568735D01*
X10053028Y72589027D01*
X9854914Y72649125D01*
X9854911Y72649126D01*
X9758085Y72700881D01*
X9672331Y72746717D01*
X9512295Y72878055D01*
X9380957Y73038091D01*
X9295435Y73198093D01*
X9283366Y73220672D01*
X9274806Y73248891D01*
X9223267Y73418789D01*
X9208060Y73573191D01*
X9208060Y74676451D01*
X9223267Y74830850D01*
X9283365Y75028967D01*
X9368888Y75188967D01*
X9380958Y75211549D01*
X9512296Y75371585D01*
X9672332Y75502923D01*
X9758086Y75548759D01*
X9854912Y75600514D01*
X9854915Y75600515D01*
X10053029Y75660613D01*
X10259060Y75680905D01*
X10465092Y75660613D01*
G37*
G36*
X13850060Y72573820D02*
G01*
X11748060Y72573820D01*
X11748060Y75675820D01*
X13850060Y75675820D01*
X13850060Y72573820D01*
G37*
G36*
X19980032Y75688833D02*
G01*
X20169776Y75631274D01*
X20178149Y75628734D01*
X20273187Y75577935D01*
X20360729Y75531143D01*
X20520765Y75399805D01*
X20652103Y75239769D01*
X20679257Y75188967D01*
X20749694Y75057189D01*
X20749695Y75057186D01*
X20809793Y74859072D01*
X20825000Y74704670D01*
X20825000Y73601410D01*
X20809793Y73447008D01*
X20750465Y73251433D01*
X20749694Y73248891D01*
X20697939Y73152065D01*
X20652103Y73066311D01*
X20520765Y72906275D01*
X20360729Y72774937D01*
X20244030Y72712561D01*
X20178148Y72677346D01*
X20178145Y72677345D01*
X19980031Y72617247D01*
X19774000Y72596955D01*
X19567968Y72617247D01*
X19369854Y72677345D01*
X19369851Y72677346D01*
X19273025Y72729101D01*
X19187271Y72774937D01*
X19027235Y72906275D01*
X18895897Y73066311D01*
X18813389Y73220674D01*
X18798306Y73248892D01*
X18752772Y73398996D01*
X18738207Y73447009D01*
X18723000Y73601411D01*
X18723000Y74704670D01*
X18735428Y74830852D01*
X18738207Y74859070D01*
X18798305Y75057187D01*
X18880815Y75211550D01*
X18895898Y75239769D01*
X19027236Y75399805D01*
X19187272Y75531143D01*
X19274814Y75577935D01*
X19369852Y75628734D01*
X19378225Y75631274D01*
X19567969Y75688833D01*
X19774000Y75709125D01*
X19980032Y75688833D01*
G37*
G36*
X29347551Y75691373D02*
G01*
X29523387Y75638033D01*
X29545668Y75631274D01*
X29611550Y75596059D01*
X29728249Y75533683D01*
X29888285Y75402345D01*
X30019623Y75242309D01*
X30048134Y75188968D01*
X30117214Y75059729D01*
X30117214Y75059728D01*
X30117215Y75059726D01*
X30177313Y74861612D01*
X30192520Y74707210D01*
X30192520Y73603950D01*
X30177313Y73449548D01*
X30138019Y73320015D01*
X30117214Y73251431D01*
X30088704Y73198093D01*
X30019623Y73068851D01*
X29888285Y72908815D01*
X29728249Y72777477D01*
X29642495Y72731641D01*
X29545669Y72679886D01*
X29545666Y72679885D01*
X29347552Y72619787D01*
X29141520Y72599495D01*
X28935489Y72619787D01*
X28737375Y72679885D01*
X28737372Y72679886D01*
X28640546Y72731641D01*
X28554792Y72777477D01*
X28394756Y72908815D01*
X28263418Y73068851D01*
X28226760Y73137433D01*
X28165825Y73251433D01*
X28105727Y73449550D01*
X28090520Y73603949D01*
X28090520Y74707210D01*
X28100473Y74808269D01*
X28105727Y74861611D01*
X28165825Y75059725D01*
X28165826Y75059728D01*
X28202483Y75128309D01*
X28263417Y75242309D01*
X28394755Y75402345D01*
X28554791Y75533683D01*
X28640545Y75579519D01*
X28737371Y75631274D01*
X28759652Y75638033D01*
X28935488Y75691373D01*
X29141520Y75711665D01*
X29347551Y75691373D01*
G37*
G36*
X23365000Y72602040D02*
G01*
X21263000Y72602040D01*
X21263000Y75704040D01*
X23365000Y75704040D01*
X23365000Y72602040D01*
G37*
G36*
X27652520Y72604580D02*
G01*
X25550520Y72604580D01*
X25550520Y75706580D01*
X27652520Y75706580D01*
X27652520Y72604580D01*
G37*
G36*
X49344972Y75759953D02*
G01*
X49529290Y75704040D01*
X49543089Y75699854D01*
X49620784Y75658325D01*
X49725669Y75602263D01*
X49885705Y75470925D01*
X50017043Y75310889D01*
X50055057Y75239770D01*
X50114634Y75128309D01*
X50114635Y75128306D01*
X50174733Y74930192D01*
X50189940Y74775790D01*
X50189940Y73672530D01*
X50174733Y73518128D01*
X50138594Y73398996D01*
X50114634Y73320011D01*
X50076621Y73248894D01*
X50017043Y73137431D01*
X49885705Y72977395D01*
X49725669Y72846057D01*
X49608970Y72783681D01*
X49543088Y72748466D01*
X49543085Y72748465D01*
X49344971Y72688367D01*
X49138940Y72668075D01*
X48932908Y72688367D01*
X48734794Y72748465D01*
X48734791Y72748466D01*
X48637965Y72800221D01*
X48552211Y72846057D01*
X48392175Y72977395D01*
X48260837Y73137431D01*
X48163247Y73320011D01*
X48163246Y73320012D01*
X48163245Y73320015D01*
X48103147Y73518129D01*
X48087940Y73672531D01*
X48087940Y74775790D01*
X48094081Y74838139D01*
X48103147Y74930190D01*
X48163245Y75128307D01*
X48238124Y75268395D01*
X48260838Y75310889D01*
X48392176Y75470925D01*
X48552212Y75602263D01*
X48657097Y75658325D01*
X48734792Y75699854D01*
X48748591Y75704040D01*
X48932909Y75759953D01*
X49138940Y75780245D01*
X49344972Y75759953D01*
G37*
G36*
X52729940Y72673160D02*
G01*
X50627940Y72673160D01*
X50627940Y75775160D01*
X52729940Y75775160D01*
X52729940Y72673160D01*
G37*
G36*
X63619487Y75901004D02*
G01*
X63856253Y75802932D01*
X63856255Y75802931D01*
X64069339Y75660553D01*
X64250553Y75479339D01*
X64363108Y75310889D01*
X64392932Y75266253D01*
X64491004Y75029487D01*
X64541000Y74778139D01*
X64541000Y74521861D01*
X64491004Y74270513D01*
X64417785Y74093747D01*
X64392931Y74033745D01*
X64250553Y73820661D01*
X64069339Y73639447D01*
X63856255Y73497069D01*
X63856254Y73497068D01*
X63856253Y73497068D01*
X63619487Y73398996D01*
X63368139Y73349000D01*
X63111861Y73349000D01*
X62860513Y73398996D01*
X62623747Y73497068D01*
X62623746Y73497068D01*
X62623745Y73497069D01*
X62410661Y73639447D01*
X62229447Y73820661D01*
X62087069Y74033745D01*
X62062215Y74093747D01*
X61988996Y74270513D01*
X61939000Y74521861D01*
X61939000Y74778139D01*
X61988996Y75029487D01*
X62087068Y75266253D01*
X62116893Y75310889D01*
X62229447Y75479339D01*
X62410661Y75660553D01*
X62623745Y75802931D01*
X62623747Y75802932D01*
X62860513Y75901004D01*
X63111861Y75951000D01*
X63368139Y75951000D01*
X63619487Y75901004D01*
G37*
G36*
X3269487Y75961004D02*
G01*
X3506253Y75862932D01*
X3506255Y75862931D01*
X3719339Y75720553D01*
X3900553Y75539339D01*
X3993787Y75399805D01*
X4042932Y75326253D01*
X4141004Y75089487D01*
X4191000Y74838139D01*
X4191000Y74581861D01*
X4141004Y74330513D01*
X4042932Y74093747D01*
X4042931Y74093745D01*
X3900553Y73880661D01*
X3719339Y73699447D01*
X3506255Y73557069D01*
X3506254Y73557068D01*
X3506253Y73557068D01*
X3269487Y73458996D01*
X3018139Y73409000D01*
X2761861Y73409000D01*
X2510513Y73458996D01*
X2273747Y73557068D01*
X2273746Y73557068D01*
X2273745Y73557069D01*
X2060661Y73699447D01*
X1879447Y73880661D01*
X1737069Y74093745D01*
X1737068Y74093747D01*
X1638996Y74330513D01*
X1589000Y74581861D01*
X1589000Y74838139D01*
X1638996Y75089487D01*
X1737068Y75326253D01*
X1786214Y75399805D01*
X1879447Y75539339D01*
X2060661Y75720553D01*
X2273745Y75862931D01*
X2273747Y75862932D01*
X2510513Y75961004D01*
X2761861Y76011000D01*
X3018139Y76011000D01*
X3269487Y75961004D01*
G37*
M02*
