G04 #@! TF.GenerationSoftware,KiCad,Pcbnew,(5.1.5-0)*
G04 #@! TF.CreationDate,2022-06-30T09:19:57+01:00*
G04 #@! TF.ProjectId,ESP32_Cnc_Shield,45535033-325f-4436-9e63-5f536869656c,rev?*
G04 #@! TF.SameCoordinates,Original*
G04 #@! TF.FileFunction,Soldermask,Top*
G04 #@! TF.FilePolarity,Negative*
%FSLAX46Y46*%
G04 Gerber Fmt 4.6, Leading zero omitted, Abs format (unit mm)*
G04 Created by KiCad (PCBNEW (5.1.5-0)) date 2022-06-30 09:19:57*
%MOMM*%
%LPD*%
G04 APERTURE LIST*
%ADD10C,0.050000*%
G04 APERTURE END LIST*
D10*
G36*
X71257585Y4996198D02*
G01*
X71407410Y4966396D01*
X71689674Y4849479D01*
X71943705Y4679741D01*
X72159741Y4463705D01*
X72329479Y4209674D01*
X72446396Y3927410D01*
X72506000Y3627760D01*
X72506000Y3322240D01*
X72446396Y3022590D01*
X72329479Y2740326D01*
X72159741Y2486295D01*
X71943705Y2270259D01*
X71689674Y2100521D01*
X71407410Y1983604D01*
X71257585Y1953802D01*
X71107761Y1924000D01*
X70802239Y1924000D01*
X70652415Y1953802D01*
X70502590Y1983604D01*
X70220326Y2100521D01*
X69966295Y2270259D01*
X69750259Y2486295D01*
X69580521Y2740326D01*
X69463604Y3022590D01*
X69404000Y3322240D01*
X69404000Y3627760D01*
X69463604Y3927410D01*
X69580521Y4209674D01*
X69750259Y4463705D01*
X69966295Y4679741D01*
X70220326Y4849479D01*
X70502590Y4966396D01*
X70652415Y4996198D01*
X70802239Y5026000D01*
X71107761Y5026000D01*
X71257585Y4996198D01*
G37*
G36*
X3947585Y4996198D02*
G01*
X4097410Y4966396D01*
X4379674Y4849479D01*
X4633705Y4679741D01*
X4849741Y4463705D01*
X5019479Y4209674D01*
X5136396Y3927410D01*
X5196000Y3627760D01*
X5196000Y3322240D01*
X5136396Y3022590D01*
X5019479Y2740326D01*
X4849741Y2486295D01*
X4633705Y2270259D01*
X4379674Y2100521D01*
X4097410Y1983604D01*
X3947585Y1953802D01*
X3797761Y1924000D01*
X3492239Y1924000D01*
X3342415Y1953802D01*
X3192590Y1983604D01*
X2910326Y2100521D01*
X2656295Y2270259D01*
X2440259Y2486295D01*
X2270521Y2740326D01*
X2153604Y3022590D01*
X2094000Y3322240D01*
X2094000Y3627760D01*
X2153604Y3927410D01*
X2270521Y4209674D01*
X2440259Y4463705D01*
X2656295Y4679741D01*
X2910326Y4849479D01*
X3192590Y4966396D01*
X3342415Y4996198D01*
X3492239Y5026000D01*
X3797761Y5026000D01*
X3947585Y4996198D01*
G37*
G36*
X14646032Y6280793D02*
G01*
X14844146Y6220695D01*
X14844149Y6220694D01*
X14940975Y6168939D01*
X15026729Y6123103D01*
X15186765Y5991765D01*
X15318103Y5831729D01*
X15363939Y5745975D01*
X15415694Y5649149D01*
X15415695Y5649146D01*
X15475793Y5451032D01*
X15491000Y5296630D01*
X15491000Y4193370D01*
X15475793Y4038968D01*
X15415695Y3840855D01*
X15415694Y3840851D01*
X15363939Y3744025D01*
X15318103Y3658271D01*
X15186765Y3498235D01*
X15026729Y3366897D01*
X14910030Y3304521D01*
X14844148Y3269306D01*
X14844145Y3269305D01*
X14646031Y3209207D01*
X14440000Y3188915D01*
X14233968Y3209207D01*
X14035854Y3269305D01*
X14035851Y3269306D01*
X13936819Y3322240D01*
X13853271Y3366897D01*
X13693235Y3498235D01*
X13561897Y3658271D01*
X13464307Y3840851D01*
X13464306Y3840852D01*
X13438049Y3927409D01*
X13404207Y4038969D01*
X13389000Y4193371D01*
X13389000Y5296631D01*
X13404207Y5451030D01*
X13464305Y5649147D01*
X13539184Y5789235D01*
X13561898Y5831729D01*
X13693236Y5991765D01*
X13853272Y6123103D01*
X13939026Y6168939D01*
X14035852Y6220694D01*
X14035855Y6220695D01*
X14233969Y6280793D01*
X14440000Y6301085D01*
X14646032Y6280793D01*
G37*
G36*
X32426032Y6280793D02*
G01*
X32624146Y6220695D01*
X32624149Y6220694D01*
X32720975Y6168939D01*
X32806729Y6123103D01*
X32966765Y5991765D01*
X33098103Y5831729D01*
X33143939Y5745975D01*
X33195694Y5649149D01*
X33195695Y5649146D01*
X33255793Y5451032D01*
X33271000Y5296630D01*
X33271000Y4193370D01*
X33255793Y4038968D01*
X33195695Y3840855D01*
X33195694Y3840851D01*
X33143939Y3744025D01*
X33098103Y3658271D01*
X32966765Y3498235D01*
X32806729Y3366897D01*
X32690030Y3304521D01*
X32624148Y3269306D01*
X32624145Y3269305D01*
X32426031Y3209207D01*
X32220000Y3188915D01*
X32013968Y3209207D01*
X31815854Y3269305D01*
X31815851Y3269306D01*
X31716819Y3322240D01*
X31633271Y3366897D01*
X31473235Y3498235D01*
X31341897Y3658271D01*
X31244307Y3840851D01*
X31244306Y3840852D01*
X31218049Y3927409D01*
X31184207Y4038969D01*
X31169000Y4193371D01*
X31169000Y5296631D01*
X31184207Y5451030D01*
X31244305Y5649147D01*
X31319184Y5789234D01*
X31341898Y5831729D01*
X31473236Y5991765D01*
X31633272Y6123103D01*
X31719026Y6168939D01*
X31815852Y6220694D01*
X31815855Y6220695D01*
X32013969Y6280793D01*
X32220000Y6301085D01*
X32426032Y6280793D01*
G37*
G36*
X34966032Y6280793D02*
G01*
X35164146Y6220695D01*
X35164149Y6220694D01*
X35260975Y6168939D01*
X35346729Y6123103D01*
X35506765Y5991765D01*
X35638103Y5831729D01*
X35683939Y5745975D01*
X35735694Y5649149D01*
X35735695Y5649146D01*
X35795793Y5451032D01*
X35811000Y5296630D01*
X35811000Y4193370D01*
X35795793Y4038968D01*
X35735695Y3840855D01*
X35735694Y3840851D01*
X35683939Y3744025D01*
X35638103Y3658271D01*
X35506765Y3498235D01*
X35346729Y3366897D01*
X35230030Y3304521D01*
X35164148Y3269306D01*
X35164145Y3269305D01*
X34966031Y3209207D01*
X34760000Y3188915D01*
X34553968Y3209207D01*
X34355854Y3269305D01*
X34355851Y3269306D01*
X34256819Y3322240D01*
X34173271Y3366897D01*
X34013235Y3498235D01*
X33881897Y3658271D01*
X33784307Y3840851D01*
X33784306Y3840852D01*
X33758049Y3927409D01*
X33724207Y4038969D01*
X33709000Y4193371D01*
X33709000Y5296631D01*
X33724207Y5451030D01*
X33784305Y5649147D01*
X33859184Y5789234D01*
X33881898Y5831729D01*
X34013236Y5991765D01*
X34173272Y6123103D01*
X34259026Y6168939D01*
X34355852Y6220694D01*
X34355855Y6220695D01*
X34553969Y6280793D01*
X34760000Y6301085D01*
X34966032Y6280793D01*
G37*
G36*
X37506032Y6280793D02*
G01*
X37704146Y6220695D01*
X37704149Y6220694D01*
X37800975Y6168939D01*
X37886729Y6123103D01*
X38046765Y5991765D01*
X38178103Y5831729D01*
X38223939Y5745975D01*
X38275694Y5649149D01*
X38275695Y5649146D01*
X38335793Y5451032D01*
X38351000Y5296630D01*
X38351000Y4193370D01*
X38335793Y4038968D01*
X38275695Y3840855D01*
X38275694Y3840851D01*
X38223939Y3744025D01*
X38178103Y3658271D01*
X38046765Y3498235D01*
X37886729Y3366897D01*
X37770030Y3304521D01*
X37704148Y3269306D01*
X37704145Y3269305D01*
X37506031Y3209207D01*
X37300000Y3188915D01*
X37093968Y3209207D01*
X36895854Y3269305D01*
X36895851Y3269306D01*
X36796819Y3322240D01*
X36713271Y3366897D01*
X36553235Y3498235D01*
X36421897Y3658271D01*
X36324307Y3840851D01*
X36324306Y3840852D01*
X36298049Y3927409D01*
X36264207Y4038969D01*
X36249000Y4193371D01*
X36249000Y5296631D01*
X36264207Y5451030D01*
X36324305Y5649147D01*
X36399184Y5789234D01*
X36421898Y5831729D01*
X36553236Y5991765D01*
X36713272Y6123103D01*
X36799026Y6168939D01*
X36895852Y6220694D01*
X36895855Y6220695D01*
X37093969Y6280793D01*
X37300000Y6301085D01*
X37506032Y6280793D01*
G37*
G36*
X56556032Y6280793D02*
G01*
X56754146Y6220695D01*
X56754149Y6220694D01*
X56850975Y6168939D01*
X56936729Y6123103D01*
X57096765Y5991765D01*
X57228103Y5831729D01*
X57273939Y5745975D01*
X57325694Y5649149D01*
X57325695Y5649146D01*
X57385793Y5451032D01*
X57401000Y5296630D01*
X57401000Y4193370D01*
X57385793Y4038968D01*
X57325695Y3840855D01*
X57325694Y3840851D01*
X57273939Y3744025D01*
X57228103Y3658271D01*
X57096765Y3498235D01*
X56936729Y3366897D01*
X56820030Y3304521D01*
X56754148Y3269306D01*
X56754145Y3269305D01*
X56556031Y3209207D01*
X56350000Y3188915D01*
X56143968Y3209207D01*
X55945854Y3269305D01*
X55945851Y3269306D01*
X55846819Y3322240D01*
X55763271Y3366897D01*
X55603235Y3498235D01*
X55471897Y3658271D01*
X55374307Y3840851D01*
X55374306Y3840852D01*
X55348049Y3927409D01*
X55314207Y4038969D01*
X55299000Y4193371D01*
X55299000Y5296631D01*
X55314207Y5451030D01*
X55374305Y5649147D01*
X55449184Y5789234D01*
X55471898Y5831729D01*
X55603236Y5991765D01*
X55763272Y6123103D01*
X55849026Y6168939D01*
X55945852Y6220694D01*
X55945855Y6220695D01*
X56143969Y6280793D01*
X56350000Y6301085D01*
X56556032Y6280793D01*
G37*
G36*
X59096032Y6280793D02*
G01*
X59294146Y6220695D01*
X59294149Y6220694D01*
X59390975Y6168939D01*
X59476729Y6123103D01*
X59636765Y5991765D01*
X59768103Y5831729D01*
X59813939Y5745975D01*
X59865694Y5649149D01*
X59865695Y5649146D01*
X59925793Y5451032D01*
X59941000Y5296630D01*
X59941000Y4193370D01*
X59925793Y4038968D01*
X59865695Y3840855D01*
X59865694Y3840851D01*
X59813939Y3744025D01*
X59768103Y3658271D01*
X59636765Y3498235D01*
X59476729Y3366897D01*
X59360030Y3304521D01*
X59294148Y3269306D01*
X59294145Y3269305D01*
X59096031Y3209207D01*
X58890000Y3188915D01*
X58683968Y3209207D01*
X58485854Y3269305D01*
X58485851Y3269306D01*
X58386819Y3322240D01*
X58303271Y3366897D01*
X58143235Y3498235D01*
X58011897Y3658271D01*
X57914307Y3840851D01*
X57914306Y3840852D01*
X57888049Y3927409D01*
X57854207Y4038969D01*
X57839000Y4193371D01*
X57839000Y5296631D01*
X57854207Y5451030D01*
X57914305Y5649147D01*
X57989184Y5789234D01*
X58011898Y5831729D01*
X58143236Y5991765D01*
X58303272Y6123103D01*
X58389026Y6168939D01*
X58485852Y6220694D01*
X58485855Y6220695D01*
X58683969Y6280793D01*
X58890000Y6301085D01*
X59096032Y6280793D01*
G37*
G36*
X61636032Y6280793D02*
G01*
X61834146Y6220695D01*
X61834149Y6220694D01*
X61930975Y6168939D01*
X62016729Y6123103D01*
X62176765Y5991765D01*
X62308103Y5831729D01*
X62353939Y5745975D01*
X62405694Y5649149D01*
X62405695Y5649146D01*
X62465793Y5451032D01*
X62481000Y5296630D01*
X62481000Y4193370D01*
X62465793Y4038968D01*
X62405695Y3840855D01*
X62405694Y3840851D01*
X62353939Y3744025D01*
X62308103Y3658271D01*
X62176765Y3498235D01*
X62016729Y3366897D01*
X61900030Y3304521D01*
X61834148Y3269306D01*
X61834145Y3269305D01*
X61636031Y3209207D01*
X61430000Y3188915D01*
X61223968Y3209207D01*
X61025854Y3269305D01*
X61025851Y3269306D01*
X60926819Y3322240D01*
X60843271Y3366897D01*
X60683235Y3498235D01*
X60551897Y3658271D01*
X60454307Y3840851D01*
X60454306Y3840852D01*
X60428049Y3927409D01*
X60394207Y4038969D01*
X60379000Y4193371D01*
X60379000Y5296631D01*
X60394207Y5451030D01*
X60454305Y5649147D01*
X60529184Y5789234D01*
X60551898Y5831729D01*
X60683236Y5991765D01*
X60843272Y6123103D01*
X60929026Y6168939D01*
X61025852Y6220694D01*
X61025855Y6220695D01*
X61223969Y6280793D01*
X61430000Y6301085D01*
X61636032Y6280793D01*
G37*
G36*
X9566032Y6280793D02*
G01*
X9764146Y6220695D01*
X9764149Y6220694D01*
X9860975Y6168939D01*
X9946729Y6123103D01*
X10106765Y5991765D01*
X10238103Y5831729D01*
X10283939Y5745975D01*
X10335694Y5649149D01*
X10335695Y5649146D01*
X10395793Y5451032D01*
X10411000Y5296630D01*
X10411000Y4193370D01*
X10395793Y4038968D01*
X10335695Y3840855D01*
X10335694Y3840851D01*
X10283939Y3744025D01*
X10238103Y3658271D01*
X10106765Y3498235D01*
X9946729Y3366897D01*
X9830030Y3304521D01*
X9764148Y3269306D01*
X9764145Y3269305D01*
X9566031Y3209207D01*
X9360000Y3188915D01*
X9153968Y3209207D01*
X8955854Y3269305D01*
X8955851Y3269306D01*
X8856819Y3322240D01*
X8773271Y3366897D01*
X8613235Y3498235D01*
X8481897Y3658271D01*
X8384307Y3840851D01*
X8384306Y3840852D01*
X8358049Y3927409D01*
X8324207Y4038969D01*
X8309000Y4193371D01*
X8309000Y5296631D01*
X8324207Y5451030D01*
X8384305Y5649147D01*
X8459184Y5789235D01*
X8481898Y5831729D01*
X8613236Y5991765D01*
X8773272Y6123103D01*
X8859026Y6168939D01*
X8955852Y6220694D01*
X8955855Y6220695D01*
X9153969Y6280793D01*
X9360000Y6301085D01*
X9566032Y6280793D01*
G37*
G36*
X12106032Y6280793D02*
G01*
X12304146Y6220695D01*
X12304149Y6220694D01*
X12400975Y6168939D01*
X12486729Y6123103D01*
X12646765Y5991765D01*
X12778103Y5831729D01*
X12823939Y5745975D01*
X12875694Y5649149D01*
X12875695Y5649146D01*
X12935793Y5451032D01*
X12951000Y5296630D01*
X12951000Y4193370D01*
X12935793Y4038968D01*
X12875695Y3840855D01*
X12875694Y3840851D01*
X12823939Y3744025D01*
X12778103Y3658271D01*
X12646765Y3498235D01*
X12486729Y3366897D01*
X12370030Y3304521D01*
X12304148Y3269306D01*
X12304145Y3269305D01*
X12106031Y3209207D01*
X11900000Y3188915D01*
X11693968Y3209207D01*
X11495854Y3269305D01*
X11495851Y3269306D01*
X11396819Y3322240D01*
X11313271Y3366897D01*
X11153235Y3498235D01*
X11021897Y3658271D01*
X10924307Y3840851D01*
X10924306Y3840852D01*
X10898049Y3927409D01*
X10864207Y4038969D01*
X10849000Y4193371D01*
X10849000Y5296631D01*
X10864207Y5451030D01*
X10924305Y5649147D01*
X10999184Y5789235D01*
X11021898Y5831729D01*
X11153236Y5991765D01*
X11313272Y6123103D01*
X11399026Y6168939D01*
X11495852Y6220694D01*
X11495855Y6220695D01*
X11693969Y6280793D01*
X11900000Y6301085D01*
X12106032Y6280793D01*
G37*
G36*
X65021000Y3194000D02*
G01*
X62919000Y3194000D01*
X62919000Y6296000D01*
X65021000Y6296000D01*
X65021000Y3194000D01*
G37*
G36*
X40891000Y3194000D02*
G01*
X38789000Y3194000D01*
X38789000Y6296000D01*
X40891000Y6296000D01*
X40891000Y3194000D01*
G37*
G36*
X18031000Y3194000D02*
G01*
X15929000Y3194000D01*
X15929000Y6296000D01*
X18031000Y6296000D01*
X18031000Y3194000D01*
G37*
G36*
X51476032Y10725793D02*
G01*
X51674146Y10665695D01*
X51674149Y10665694D01*
X51770975Y10613939D01*
X51856729Y10568103D01*
X52016765Y10436765D01*
X52148103Y10276729D01*
X52193939Y10190975D01*
X52245694Y10094149D01*
X52245695Y10094146D01*
X52305793Y9896032D01*
X52321000Y9741630D01*
X52321000Y8638370D01*
X52305793Y8483968D01*
X52245695Y8285855D01*
X52245694Y8285851D01*
X52193939Y8189025D01*
X52148103Y8103271D01*
X52016765Y7943235D01*
X51856729Y7811897D01*
X51740030Y7749521D01*
X51674148Y7714306D01*
X51674145Y7714305D01*
X51476031Y7654207D01*
X51270000Y7633915D01*
X51063968Y7654207D01*
X50865854Y7714305D01*
X50865851Y7714306D01*
X50769025Y7766061D01*
X50683271Y7811897D01*
X50523235Y7943235D01*
X50391897Y8103271D01*
X50294307Y8285851D01*
X50294306Y8285852D01*
X50294305Y8285855D01*
X50234207Y8483969D01*
X50219000Y8638371D01*
X50219000Y9741631D01*
X50234207Y9896030D01*
X50294305Y10094147D01*
X50369184Y10234234D01*
X50391898Y10276729D01*
X50523236Y10436765D01*
X50683272Y10568103D01*
X50769026Y10613939D01*
X50865852Y10665694D01*
X50865855Y10665695D01*
X51063969Y10725793D01*
X51270000Y10746085D01*
X51476032Y10725793D01*
G37*
G36*
X54016032Y10725793D02*
G01*
X54214146Y10665695D01*
X54214149Y10665694D01*
X54310975Y10613939D01*
X54396729Y10568103D01*
X54556765Y10436765D01*
X54688103Y10276729D01*
X54733939Y10190975D01*
X54785694Y10094149D01*
X54785695Y10094146D01*
X54845793Y9896032D01*
X54861000Y9741630D01*
X54861000Y8638370D01*
X54845793Y8483968D01*
X54785695Y8285855D01*
X54785694Y8285851D01*
X54733939Y8189025D01*
X54688103Y8103271D01*
X54556765Y7943235D01*
X54396729Y7811897D01*
X54280030Y7749521D01*
X54214148Y7714306D01*
X54214145Y7714305D01*
X54016031Y7654207D01*
X53810000Y7633915D01*
X53603968Y7654207D01*
X53405854Y7714305D01*
X53405851Y7714306D01*
X53309025Y7766061D01*
X53223271Y7811897D01*
X53063235Y7943235D01*
X52931897Y8103271D01*
X52834307Y8285851D01*
X52834306Y8285852D01*
X52834305Y8285855D01*
X52774207Y8483969D01*
X52759000Y8638371D01*
X52759000Y9741631D01*
X52774207Y9896030D01*
X52834305Y10094147D01*
X52909184Y10234234D01*
X52931898Y10276729D01*
X53063236Y10436765D01*
X53223272Y10568103D01*
X53309026Y10613939D01*
X53405852Y10665694D01*
X53405855Y10665695D01*
X53603969Y10725793D01*
X53810000Y10746085D01*
X54016032Y10725793D01*
G37*
G36*
X56556032Y10725793D02*
G01*
X56754146Y10665695D01*
X56754149Y10665694D01*
X56850975Y10613939D01*
X56936729Y10568103D01*
X57096765Y10436765D01*
X57228103Y10276729D01*
X57273939Y10190975D01*
X57325694Y10094149D01*
X57325695Y10094146D01*
X57385793Y9896032D01*
X57401000Y9741630D01*
X57401000Y8638370D01*
X57385793Y8483968D01*
X57325695Y8285855D01*
X57325694Y8285851D01*
X57273939Y8189025D01*
X57228103Y8103271D01*
X57096765Y7943235D01*
X56936729Y7811897D01*
X56820030Y7749521D01*
X56754148Y7714306D01*
X56754145Y7714305D01*
X56556031Y7654207D01*
X56350000Y7633915D01*
X56143968Y7654207D01*
X55945854Y7714305D01*
X55945851Y7714306D01*
X55849025Y7766061D01*
X55763271Y7811897D01*
X55603235Y7943235D01*
X55471897Y8103271D01*
X55374307Y8285851D01*
X55374306Y8285852D01*
X55374305Y8285855D01*
X55314207Y8483969D01*
X55299000Y8638371D01*
X55299000Y9741631D01*
X55314207Y9896030D01*
X55374305Y10094147D01*
X55449184Y10234234D01*
X55471898Y10276729D01*
X55603236Y10436765D01*
X55763272Y10568103D01*
X55849026Y10613939D01*
X55945852Y10665694D01*
X55945855Y10665695D01*
X56143969Y10725793D01*
X56350000Y10746085D01*
X56556032Y10725793D01*
G37*
G36*
X59096032Y10725793D02*
G01*
X59294146Y10665695D01*
X59294149Y10665694D01*
X59390975Y10613939D01*
X59476729Y10568103D01*
X59636765Y10436765D01*
X59768103Y10276729D01*
X59813939Y10190975D01*
X59865694Y10094149D01*
X59865695Y10094146D01*
X59925793Y9896032D01*
X59941000Y9741630D01*
X59941000Y8638370D01*
X59925793Y8483968D01*
X59865695Y8285855D01*
X59865694Y8285851D01*
X59813939Y8189025D01*
X59768103Y8103271D01*
X59636765Y7943235D01*
X59476729Y7811897D01*
X59360030Y7749521D01*
X59294148Y7714306D01*
X59294145Y7714305D01*
X59096031Y7654207D01*
X58890000Y7633915D01*
X58683968Y7654207D01*
X58485854Y7714305D01*
X58485851Y7714306D01*
X58389025Y7766061D01*
X58303271Y7811897D01*
X58143235Y7943235D01*
X58011897Y8103271D01*
X57914307Y8285851D01*
X57914306Y8285852D01*
X57914305Y8285855D01*
X57854207Y8483969D01*
X57839000Y8638371D01*
X57839000Y9741631D01*
X57854207Y9896030D01*
X57914305Y10094147D01*
X57989184Y10234234D01*
X58011898Y10276729D01*
X58143236Y10436765D01*
X58303272Y10568103D01*
X58389026Y10613939D01*
X58485852Y10665694D01*
X58485855Y10665695D01*
X58683969Y10725793D01*
X58890000Y10746085D01*
X59096032Y10725793D01*
G37*
G36*
X61636032Y10725793D02*
G01*
X61834146Y10665695D01*
X61834149Y10665694D01*
X61930975Y10613939D01*
X62016729Y10568103D01*
X62176765Y10436765D01*
X62308103Y10276729D01*
X62353939Y10190975D01*
X62405694Y10094149D01*
X62405695Y10094146D01*
X62465793Y9896032D01*
X62481000Y9741630D01*
X62481000Y8638370D01*
X62465793Y8483968D01*
X62405695Y8285855D01*
X62405694Y8285851D01*
X62353939Y8189025D01*
X62308103Y8103271D01*
X62176765Y7943235D01*
X62016729Y7811897D01*
X61900030Y7749521D01*
X61834148Y7714306D01*
X61834145Y7714305D01*
X61636031Y7654207D01*
X61430000Y7633915D01*
X61223968Y7654207D01*
X61025854Y7714305D01*
X61025851Y7714306D01*
X60929025Y7766061D01*
X60843271Y7811897D01*
X60683235Y7943235D01*
X60551897Y8103271D01*
X60454307Y8285851D01*
X60454306Y8285852D01*
X60454305Y8285855D01*
X60394207Y8483969D01*
X60379000Y8638371D01*
X60379000Y9741631D01*
X60394207Y9896030D01*
X60454305Y10094147D01*
X60529184Y10234234D01*
X60551898Y10276729D01*
X60683236Y10436765D01*
X60843272Y10568103D01*
X60929026Y10613939D01*
X61025852Y10665694D01*
X61025855Y10665695D01*
X61223969Y10725793D01*
X61430000Y10746085D01*
X61636032Y10725793D01*
G37*
G36*
X64176032Y10725793D02*
G01*
X64374146Y10665695D01*
X64374149Y10665694D01*
X64470975Y10613939D01*
X64556729Y10568103D01*
X64716765Y10436765D01*
X64848103Y10276729D01*
X64893939Y10190975D01*
X64945694Y10094149D01*
X64945695Y10094146D01*
X65005793Y9896032D01*
X65021000Y9741630D01*
X65021000Y8638370D01*
X65005793Y8483968D01*
X64945695Y8285855D01*
X64945694Y8285851D01*
X64893939Y8189025D01*
X64848103Y8103271D01*
X64716765Y7943235D01*
X64556729Y7811897D01*
X64440030Y7749521D01*
X64374148Y7714306D01*
X64374145Y7714305D01*
X64176031Y7654207D01*
X63970000Y7633915D01*
X63763968Y7654207D01*
X63565854Y7714305D01*
X63565851Y7714306D01*
X63469025Y7766061D01*
X63383271Y7811897D01*
X63223235Y7943235D01*
X63091897Y8103271D01*
X62994307Y8285851D01*
X62994306Y8285852D01*
X62994305Y8285855D01*
X62934207Y8483969D01*
X62919000Y8638371D01*
X62919000Y9741631D01*
X62934207Y9896030D01*
X62994305Y10094147D01*
X63069184Y10234234D01*
X63091898Y10276729D01*
X63223236Y10436765D01*
X63383272Y10568103D01*
X63469026Y10613939D01*
X63565852Y10665694D01*
X63565855Y10665695D01*
X63763969Y10725793D01*
X63970000Y10746085D01*
X64176032Y10725793D01*
G37*
G36*
X66716032Y10725793D02*
G01*
X66914146Y10665695D01*
X66914149Y10665694D01*
X67010975Y10613939D01*
X67096729Y10568103D01*
X67256765Y10436765D01*
X67388103Y10276729D01*
X67433939Y10190975D01*
X67485694Y10094149D01*
X67485695Y10094146D01*
X67545793Y9896032D01*
X67561000Y9741630D01*
X67561000Y8638370D01*
X67545793Y8483968D01*
X67485695Y8285855D01*
X67485694Y8285851D01*
X67433939Y8189025D01*
X67388103Y8103271D01*
X67256765Y7943235D01*
X67096729Y7811897D01*
X66980030Y7749521D01*
X66914148Y7714306D01*
X66914145Y7714305D01*
X66716031Y7654207D01*
X66510000Y7633915D01*
X66303968Y7654207D01*
X66105854Y7714305D01*
X66105851Y7714306D01*
X66009025Y7766061D01*
X65923271Y7811897D01*
X65763235Y7943235D01*
X65631897Y8103271D01*
X65534307Y8285851D01*
X65534306Y8285852D01*
X65534305Y8285855D01*
X65474207Y8483969D01*
X65459000Y8638371D01*
X65459000Y9741631D01*
X65474207Y9896030D01*
X65534305Y10094147D01*
X65609184Y10234234D01*
X65631898Y10276729D01*
X65763236Y10436765D01*
X65923272Y10568103D01*
X66009026Y10613939D01*
X66105852Y10665694D01*
X66105855Y10665695D01*
X66303969Y10725793D01*
X66510000Y10746085D01*
X66716032Y10725793D01*
G37*
G36*
X4486032Y10725793D02*
G01*
X4684146Y10665695D01*
X4684149Y10665694D01*
X4780975Y10613939D01*
X4866729Y10568103D01*
X5026765Y10436765D01*
X5158103Y10276729D01*
X5203939Y10190975D01*
X5255694Y10094149D01*
X5255695Y10094146D01*
X5315793Y9896032D01*
X5331000Y9741630D01*
X5331000Y8638370D01*
X5315793Y8483968D01*
X5255695Y8285855D01*
X5255694Y8285851D01*
X5203939Y8189025D01*
X5158103Y8103271D01*
X5026765Y7943235D01*
X4866729Y7811897D01*
X4750030Y7749521D01*
X4684148Y7714306D01*
X4684145Y7714305D01*
X4486031Y7654207D01*
X4280000Y7633915D01*
X4073968Y7654207D01*
X3875854Y7714305D01*
X3875851Y7714306D01*
X3779025Y7766061D01*
X3693271Y7811897D01*
X3533235Y7943235D01*
X3401897Y8103271D01*
X3304307Y8285851D01*
X3304306Y8285852D01*
X3304305Y8285855D01*
X3244207Y8483969D01*
X3229000Y8638371D01*
X3229000Y9741631D01*
X3244207Y9896030D01*
X3304305Y10094147D01*
X3379184Y10234235D01*
X3401898Y10276729D01*
X3533236Y10436765D01*
X3693272Y10568103D01*
X3779026Y10613939D01*
X3875852Y10665694D01*
X3875855Y10665695D01*
X4073969Y10725793D01*
X4280000Y10746085D01*
X4486032Y10725793D01*
G37*
G36*
X7026032Y10725793D02*
G01*
X7224146Y10665695D01*
X7224149Y10665694D01*
X7320975Y10613939D01*
X7406729Y10568103D01*
X7566765Y10436765D01*
X7698103Y10276729D01*
X7743939Y10190975D01*
X7795694Y10094149D01*
X7795695Y10094146D01*
X7855793Y9896032D01*
X7871000Y9741630D01*
X7871000Y8638370D01*
X7855793Y8483968D01*
X7795695Y8285855D01*
X7795694Y8285851D01*
X7743939Y8189025D01*
X7698103Y8103271D01*
X7566765Y7943235D01*
X7406729Y7811897D01*
X7290030Y7749521D01*
X7224148Y7714306D01*
X7224145Y7714305D01*
X7026031Y7654207D01*
X6820000Y7633915D01*
X6613968Y7654207D01*
X6415854Y7714305D01*
X6415851Y7714306D01*
X6319025Y7766061D01*
X6233271Y7811897D01*
X6073235Y7943235D01*
X5941897Y8103271D01*
X5844307Y8285851D01*
X5844306Y8285852D01*
X5844305Y8285855D01*
X5784207Y8483969D01*
X5769000Y8638371D01*
X5769000Y9741631D01*
X5784207Y9896030D01*
X5844305Y10094147D01*
X5919184Y10234235D01*
X5941898Y10276729D01*
X6073236Y10436765D01*
X6233272Y10568103D01*
X6319026Y10613939D01*
X6415852Y10665694D01*
X6415855Y10665695D01*
X6613969Y10725793D01*
X6820000Y10746085D01*
X7026032Y10725793D01*
G37*
G36*
X9566032Y10725793D02*
G01*
X9764146Y10665695D01*
X9764149Y10665694D01*
X9860975Y10613939D01*
X9946729Y10568103D01*
X10106765Y10436765D01*
X10238103Y10276729D01*
X10283939Y10190975D01*
X10335694Y10094149D01*
X10335695Y10094146D01*
X10395793Y9896032D01*
X10411000Y9741630D01*
X10411000Y8638370D01*
X10395793Y8483968D01*
X10335695Y8285855D01*
X10335694Y8285851D01*
X10283939Y8189025D01*
X10238103Y8103271D01*
X10106765Y7943235D01*
X9946729Y7811897D01*
X9830030Y7749521D01*
X9764148Y7714306D01*
X9764145Y7714305D01*
X9566031Y7654207D01*
X9360000Y7633915D01*
X9153968Y7654207D01*
X8955854Y7714305D01*
X8955851Y7714306D01*
X8859025Y7766061D01*
X8773271Y7811897D01*
X8613235Y7943235D01*
X8481897Y8103271D01*
X8384307Y8285851D01*
X8384306Y8285852D01*
X8384305Y8285855D01*
X8324207Y8483969D01*
X8309000Y8638371D01*
X8309000Y9741631D01*
X8324207Y9896030D01*
X8384305Y10094147D01*
X8459184Y10234235D01*
X8481898Y10276729D01*
X8613236Y10436765D01*
X8773272Y10568103D01*
X8859026Y10613939D01*
X8955852Y10665694D01*
X8955855Y10665695D01*
X9153969Y10725793D01*
X9360000Y10746085D01*
X9566032Y10725793D01*
G37*
G36*
X42586032Y10725793D02*
G01*
X42784146Y10665695D01*
X42784149Y10665694D01*
X42880975Y10613939D01*
X42966729Y10568103D01*
X43126765Y10436765D01*
X43258103Y10276729D01*
X43303939Y10190975D01*
X43355694Y10094149D01*
X43355695Y10094146D01*
X43415793Y9896032D01*
X43431000Y9741630D01*
X43431000Y8638370D01*
X43415793Y8483968D01*
X43355695Y8285855D01*
X43355694Y8285851D01*
X43303939Y8189025D01*
X43258103Y8103271D01*
X43126765Y7943235D01*
X42966729Y7811897D01*
X42850030Y7749521D01*
X42784148Y7714306D01*
X42784145Y7714305D01*
X42586031Y7654207D01*
X42380000Y7633915D01*
X42173968Y7654207D01*
X41975854Y7714305D01*
X41975851Y7714306D01*
X41879025Y7766061D01*
X41793271Y7811897D01*
X41633235Y7943235D01*
X41501897Y8103271D01*
X41404307Y8285851D01*
X41404306Y8285852D01*
X41404305Y8285855D01*
X41344207Y8483969D01*
X41329000Y8638371D01*
X41329000Y9741631D01*
X41344207Y9896030D01*
X41404305Y10094147D01*
X41479184Y10234234D01*
X41501898Y10276729D01*
X41633236Y10436765D01*
X41793272Y10568103D01*
X41879026Y10613939D01*
X41975852Y10665694D01*
X41975855Y10665695D01*
X42173969Y10725793D01*
X42380000Y10746085D01*
X42586032Y10725793D01*
G37*
G36*
X12106032Y10725793D02*
G01*
X12304146Y10665695D01*
X12304149Y10665694D01*
X12400975Y10613939D01*
X12486729Y10568103D01*
X12646765Y10436765D01*
X12778103Y10276729D01*
X12823939Y10190975D01*
X12875694Y10094149D01*
X12875695Y10094146D01*
X12935793Y9896032D01*
X12951000Y9741630D01*
X12951000Y8638370D01*
X12935793Y8483968D01*
X12875695Y8285855D01*
X12875694Y8285851D01*
X12823939Y8189025D01*
X12778103Y8103271D01*
X12646765Y7943235D01*
X12486729Y7811897D01*
X12370030Y7749521D01*
X12304148Y7714306D01*
X12304145Y7714305D01*
X12106031Y7654207D01*
X11900000Y7633915D01*
X11693968Y7654207D01*
X11495854Y7714305D01*
X11495851Y7714306D01*
X11399025Y7766061D01*
X11313271Y7811897D01*
X11153235Y7943235D01*
X11021897Y8103271D01*
X10924307Y8285851D01*
X10924306Y8285852D01*
X10924305Y8285855D01*
X10864207Y8483969D01*
X10849000Y8638371D01*
X10849000Y9741631D01*
X10864207Y9896030D01*
X10924305Y10094147D01*
X10999184Y10234235D01*
X11021898Y10276729D01*
X11153236Y10436765D01*
X11313272Y10568103D01*
X11399026Y10613939D01*
X11495852Y10665694D01*
X11495855Y10665695D01*
X11693969Y10725793D01*
X11900000Y10746085D01*
X12106032Y10725793D01*
G37*
G36*
X40046032Y10725793D02*
G01*
X40244146Y10665695D01*
X40244149Y10665694D01*
X40340975Y10613939D01*
X40426729Y10568103D01*
X40586765Y10436765D01*
X40718103Y10276729D01*
X40763939Y10190975D01*
X40815694Y10094149D01*
X40815695Y10094146D01*
X40875793Y9896032D01*
X40891000Y9741630D01*
X40891000Y8638370D01*
X40875793Y8483968D01*
X40815695Y8285855D01*
X40815694Y8285851D01*
X40763939Y8189025D01*
X40718103Y8103271D01*
X40586765Y7943235D01*
X40426729Y7811897D01*
X40310030Y7749521D01*
X40244148Y7714306D01*
X40244145Y7714305D01*
X40046031Y7654207D01*
X39840000Y7633915D01*
X39633968Y7654207D01*
X39435854Y7714305D01*
X39435851Y7714306D01*
X39339025Y7766061D01*
X39253271Y7811897D01*
X39093235Y7943235D01*
X38961897Y8103271D01*
X38864307Y8285851D01*
X38864306Y8285852D01*
X38864305Y8285855D01*
X38804207Y8483969D01*
X38789000Y8638371D01*
X38789000Y9741631D01*
X38804207Y9896030D01*
X38864305Y10094147D01*
X38939184Y10234234D01*
X38961898Y10276729D01*
X39093236Y10436765D01*
X39253272Y10568103D01*
X39339026Y10613939D01*
X39435852Y10665694D01*
X39435855Y10665695D01*
X39633969Y10725793D01*
X39840000Y10746085D01*
X40046032Y10725793D01*
G37*
G36*
X37506032Y10725793D02*
G01*
X37704146Y10665695D01*
X37704149Y10665694D01*
X37800975Y10613939D01*
X37886729Y10568103D01*
X38046765Y10436765D01*
X38178103Y10276729D01*
X38223939Y10190975D01*
X38275694Y10094149D01*
X38275695Y10094146D01*
X38335793Y9896032D01*
X38351000Y9741630D01*
X38351000Y8638370D01*
X38335793Y8483968D01*
X38275695Y8285855D01*
X38275694Y8285851D01*
X38223939Y8189025D01*
X38178103Y8103271D01*
X38046765Y7943235D01*
X37886729Y7811897D01*
X37770030Y7749521D01*
X37704148Y7714306D01*
X37704145Y7714305D01*
X37506031Y7654207D01*
X37300000Y7633915D01*
X37093968Y7654207D01*
X36895854Y7714305D01*
X36895851Y7714306D01*
X36799025Y7766061D01*
X36713271Y7811897D01*
X36553235Y7943235D01*
X36421897Y8103271D01*
X36324307Y8285851D01*
X36324306Y8285852D01*
X36324305Y8285855D01*
X36264207Y8483969D01*
X36249000Y8638371D01*
X36249000Y9741631D01*
X36264207Y9896030D01*
X36324305Y10094147D01*
X36399184Y10234234D01*
X36421898Y10276729D01*
X36553236Y10436765D01*
X36713272Y10568103D01*
X36799026Y10613939D01*
X36895852Y10665694D01*
X36895855Y10665695D01*
X37093969Y10725793D01*
X37300000Y10746085D01*
X37506032Y10725793D01*
G37*
G36*
X34966032Y10725793D02*
G01*
X35164146Y10665695D01*
X35164149Y10665694D01*
X35260975Y10613939D01*
X35346729Y10568103D01*
X35506765Y10436765D01*
X35638103Y10276729D01*
X35683939Y10190975D01*
X35735694Y10094149D01*
X35735695Y10094146D01*
X35795793Y9896032D01*
X35811000Y9741630D01*
X35811000Y8638370D01*
X35795793Y8483968D01*
X35735695Y8285855D01*
X35735694Y8285851D01*
X35683939Y8189025D01*
X35638103Y8103271D01*
X35506765Y7943235D01*
X35346729Y7811897D01*
X35230030Y7749521D01*
X35164148Y7714306D01*
X35164145Y7714305D01*
X34966031Y7654207D01*
X34760000Y7633915D01*
X34553968Y7654207D01*
X34355854Y7714305D01*
X34355851Y7714306D01*
X34259025Y7766061D01*
X34173271Y7811897D01*
X34013235Y7943235D01*
X33881897Y8103271D01*
X33784307Y8285851D01*
X33784306Y8285852D01*
X33784305Y8285855D01*
X33724207Y8483969D01*
X33709000Y8638371D01*
X33709000Y9741631D01*
X33724207Y9896030D01*
X33784305Y10094147D01*
X33859184Y10234234D01*
X33881898Y10276729D01*
X34013236Y10436765D01*
X34173272Y10568103D01*
X34259026Y10613939D01*
X34355852Y10665694D01*
X34355855Y10665695D01*
X34553969Y10725793D01*
X34760000Y10746085D01*
X34966032Y10725793D01*
G37*
G36*
X32426032Y10725793D02*
G01*
X32624146Y10665695D01*
X32624149Y10665694D01*
X32720975Y10613939D01*
X32806729Y10568103D01*
X32966765Y10436765D01*
X33098103Y10276729D01*
X33143939Y10190975D01*
X33195694Y10094149D01*
X33195695Y10094146D01*
X33255793Y9896032D01*
X33271000Y9741630D01*
X33271000Y8638370D01*
X33255793Y8483968D01*
X33195695Y8285855D01*
X33195694Y8285851D01*
X33143939Y8189025D01*
X33098103Y8103271D01*
X32966765Y7943235D01*
X32806729Y7811897D01*
X32690030Y7749521D01*
X32624148Y7714306D01*
X32624145Y7714305D01*
X32426031Y7654207D01*
X32220000Y7633915D01*
X32013968Y7654207D01*
X31815854Y7714305D01*
X31815851Y7714306D01*
X31719025Y7766061D01*
X31633271Y7811897D01*
X31473235Y7943235D01*
X31341897Y8103271D01*
X31244307Y8285851D01*
X31244306Y8285852D01*
X31244305Y8285855D01*
X31184207Y8483969D01*
X31169000Y8638371D01*
X31169000Y9741631D01*
X31184207Y9896030D01*
X31244305Y10094147D01*
X31319184Y10234234D01*
X31341898Y10276729D01*
X31473236Y10436765D01*
X31633272Y10568103D01*
X31719026Y10613939D01*
X31815852Y10665694D01*
X31815855Y10665695D01*
X32013969Y10725793D01*
X32220000Y10746085D01*
X32426032Y10725793D01*
G37*
G36*
X29886032Y10725793D02*
G01*
X30084146Y10665695D01*
X30084149Y10665694D01*
X30180975Y10613939D01*
X30266729Y10568103D01*
X30426765Y10436765D01*
X30558103Y10276729D01*
X30603939Y10190975D01*
X30655694Y10094149D01*
X30655695Y10094146D01*
X30715793Y9896032D01*
X30731000Y9741630D01*
X30731000Y8638370D01*
X30715793Y8483968D01*
X30655695Y8285855D01*
X30655694Y8285851D01*
X30603939Y8189025D01*
X30558103Y8103271D01*
X30426765Y7943235D01*
X30266729Y7811897D01*
X30150030Y7749521D01*
X30084148Y7714306D01*
X30084145Y7714305D01*
X29886031Y7654207D01*
X29680000Y7633915D01*
X29473968Y7654207D01*
X29275854Y7714305D01*
X29275851Y7714306D01*
X29179025Y7766061D01*
X29093271Y7811897D01*
X28933235Y7943235D01*
X28801897Y8103271D01*
X28704307Y8285851D01*
X28704306Y8285852D01*
X28704305Y8285855D01*
X28644207Y8483969D01*
X28629000Y8638371D01*
X28629000Y9741631D01*
X28644207Y9896030D01*
X28704305Y10094147D01*
X28779184Y10234234D01*
X28801898Y10276729D01*
X28933236Y10436765D01*
X29093272Y10568103D01*
X29179026Y10613939D01*
X29275852Y10665694D01*
X29275855Y10665695D01*
X29473969Y10725793D01*
X29680000Y10746085D01*
X29886032Y10725793D01*
G37*
G36*
X27346032Y10725793D02*
G01*
X27544146Y10665695D01*
X27544149Y10665694D01*
X27640975Y10613939D01*
X27726729Y10568103D01*
X27886765Y10436765D01*
X28018103Y10276729D01*
X28063939Y10190975D01*
X28115694Y10094149D01*
X28115695Y10094146D01*
X28175793Y9896032D01*
X28191000Y9741630D01*
X28191000Y8638370D01*
X28175793Y8483968D01*
X28115695Y8285855D01*
X28115694Y8285851D01*
X28063939Y8189025D01*
X28018103Y8103271D01*
X27886765Y7943235D01*
X27726729Y7811897D01*
X27610030Y7749521D01*
X27544148Y7714306D01*
X27544145Y7714305D01*
X27346031Y7654207D01*
X27140000Y7633915D01*
X26933968Y7654207D01*
X26735854Y7714305D01*
X26735851Y7714306D01*
X26639025Y7766061D01*
X26553271Y7811897D01*
X26393235Y7943235D01*
X26261897Y8103271D01*
X26164307Y8285851D01*
X26164306Y8285852D01*
X26164305Y8285855D01*
X26104207Y8483969D01*
X26089000Y8638371D01*
X26089000Y9741631D01*
X26104207Y9896030D01*
X26164305Y10094147D01*
X26239184Y10234234D01*
X26261898Y10276729D01*
X26393236Y10436765D01*
X26553272Y10568103D01*
X26639026Y10613939D01*
X26735852Y10665694D01*
X26735855Y10665695D01*
X26933969Y10725793D01*
X27140000Y10746085D01*
X27346032Y10725793D01*
G37*
G36*
X14646032Y10725793D02*
G01*
X14844146Y10665695D01*
X14844149Y10665694D01*
X14940975Y10613939D01*
X15026729Y10568103D01*
X15186765Y10436765D01*
X15318103Y10276729D01*
X15363939Y10190975D01*
X15415694Y10094149D01*
X15415695Y10094146D01*
X15475793Y9896032D01*
X15491000Y9741630D01*
X15491000Y8638370D01*
X15475793Y8483968D01*
X15415695Y8285855D01*
X15415694Y8285851D01*
X15363939Y8189025D01*
X15318103Y8103271D01*
X15186765Y7943235D01*
X15026729Y7811897D01*
X14910030Y7749521D01*
X14844148Y7714306D01*
X14844145Y7714305D01*
X14646031Y7654207D01*
X14440000Y7633915D01*
X14233968Y7654207D01*
X14035854Y7714305D01*
X14035851Y7714306D01*
X13939025Y7766061D01*
X13853271Y7811897D01*
X13693235Y7943235D01*
X13561897Y8103271D01*
X13464307Y8285851D01*
X13464306Y8285852D01*
X13464305Y8285855D01*
X13404207Y8483969D01*
X13389000Y8638371D01*
X13389000Y9741631D01*
X13404207Y9896030D01*
X13464305Y10094147D01*
X13539184Y10234235D01*
X13561898Y10276729D01*
X13693236Y10436765D01*
X13853272Y10568103D01*
X13939026Y10613939D01*
X14035852Y10665694D01*
X14035855Y10665695D01*
X14233969Y10725793D01*
X14440000Y10746085D01*
X14646032Y10725793D01*
G37*
G36*
X19726032Y10725793D02*
G01*
X19924146Y10665695D01*
X19924149Y10665694D01*
X20020975Y10613939D01*
X20106729Y10568103D01*
X20266765Y10436765D01*
X20398103Y10276729D01*
X20443939Y10190975D01*
X20495694Y10094149D01*
X20495695Y10094146D01*
X20555793Y9896032D01*
X20571000Y9741630D01*
X20571000Y8638370D01*
X20555793Y8483968D01*
X20495695Y8285855D01*
X20495694Y8285851D01*
X20443939Y8189025D01*
X20398103Y8103271D01*
X20266765Y7943235D01*
X20106729Y7811897D01*
X19990030Y7749521D01*
X19924148Y7714306D01*
X19924145Y7714305D01*
X19726031Y7654207D01*
X19520000Y7633915D01*
X19313968Y7654207D01*
X19115854Y7714305D01*
X19115851Y7714306D01*
X19019025Y7766061D01*
X18933271Y7811897D01*
X18773235Y7943235D01*
X18641897Y8103271D01*
X18544307Y8285851D01*
X18544306Y8285852D01*
X18544305Y8285855D01*
X18484207Y8483969D01*
X18469000Y8638371D01*
X18469000Y9741631D01*
X18484207Y9896030D01*
X18544305Y10094147D01*
X18619184Y10234235D01*
X18641898Y10276729D01*
X18773236Y10436765D01*
X18933272Y10568103D01*
X19019026Y10613939D01*
X19115852Y10665694D01*
X19115855Y10665695D01*
X19313969Y10725793D01*
X19520000Y10746085D01*
X19726032Y10725793D01*
G37*
G36*
X17186032Y10725793D02*
G01*
X17384146Y10665695D01*
X17384149Y10665694D01*
X17480975Y10613939D01*
X17566729Y10568103D01*
X17726765Y10436765D01*
X17858103Y10276729D01*
X17903939Y10190975D01*
X17955694Y10094149D01*
X17955695Y10094146D01*
X18015793Y9896032D01*
X18031000Y9741630D01*
X18031000Y8638370D01*
X18015793Y8483968D01*
X17955695Y8285855D01*
X17955694Y8285851D01*
X17903939Y8189025D01*
X17858103Y8103271D01*
X17726765Y7943235D01*
X17566729Y7811897D01*
X17450030Y7749521D01*
X17384148Y7714306D01*
X17384145Y7714305D01*
X17186031Y7654207D01*
X16980000Y7633915D01*
X16773968Y7654207D01*
X16575854Y7714305D01*
X16575851Y7714306D01*
X16479025Y7766061D01*
X16393271Y7811897D01*
X16233235Y7943235D01*
X16101897Y8103271D01*
X16004307Y8285851D01*
X16004306Y8285852D01*
X16004305Y8285855D01*
X15944207Y8483969D01*
X15929000Y8638371D01*
X15929000Y9741631D01*
X15944207Y9896030D01*
X16004305Y10094147D01*
X16079184Y10234235D01*
X16101898Y10276729D01*
X16233236Y10436765D01*
X16393272Y10568103D01*
X16479026Y10613939D01*
X16575852Y10665694D01*
X16575855Y10665695D01*
X16773969Y10725793D01*
X16980000Y10746085D01*
X17186032Y10725793D01*
G37*
G36*
X23111000Y7639000D02*
G01*
X21009000Y7639000D01*
X21009000Y10741000D01*
X23111000Y10741000D01*
X23111000Y7639000D01*
G37*
G36*
X45971000Y7639000D02*
G01*
X43869000Y7639000D01*
X43869000Y10741000D01*
X45971000Y10741000D01*
X45971000Y7639000D01*
G37*
G36*
X70101000Y7639000D02*
G01*
X67999000Y7639000D01*
X67999000Y10741000D01*
X70101000Y10741000D01*
X70101000Y7639000D01*
G37*
G36*
X22320868Y14529496D02*
G01*
X22512410Y14491396D01*
X22794674Y14374479D01*
X23048705Y14204741D01*
X23264741Y13988705D01*
X23434479Y13734674D01*
X23551396Y13452410D01*
X23551396Y13452409D01*
X23603422Y13190860D01*
X23611000Y13152760D01*
X23611000Y12847240D01*
X23551396Y12547590D01*
X23434479Y12265326D01*
X23264741Y12011295D01*
X23048705Y11795259D01*
X22794674Y11625521D01*
X22512410Y11508604D01*
X22404302Y11487100D01*
X22212761Y11449000D01*
X21907239Y11449000D01*
X21715698Y11487100D01*
X21607590Y11508604D01*
X21325326Y11625521D01*
X21071295Y11795259D01*
X20855259Y12011295D01*
X20685521Y12265326D01*
X20568604Y12547590D01*
X20509000Y12847240D01*
X20509000Y13152760D01*
X20516579Y13190860D01*
X20568604Y13452409D01*
X20568604Y13452410D01*
X20685521Y13734674D01*
X20855259Y13988705D01*
X21071295Y14204741D01*
X21325326Y14374479D01*
X21607590Y14491396D01*
X21799132Y14529496D01*
X21907239Y14551000D01*
X22212761Y14551000D01*
X22320868Y14529496D01*
G37*
G36*
X45178328Y14529496D02*
G01*
X45369870Y14491396D01*
X45652134Y14374479D01*
X45906165Y14204741D01*
X46122201Y13988705D01*
X46291939Y13734674D01*
X46408856Y13452410D01*
X46408856Y13452409D01*
X46460882Y13190860D01*
X46468460Y13152760D01*
X46468460Y12847240D01*
X46408856Y12547590D01*
X46291939Y12265326D01*
X46122201Y12011295D01*
X45906165Y11795259D01*
X45652134Y11625521D01*
X45369870Y11508604D01*
X45261762Y11487100D01*
X45070221Y11449000D01*
X44764699Y11449000D01*
X44573158Y11487100D01*
X44465050Y11508604D01*
X44182786Y11625521D01*
X43928755Y11795259D01*
X43712719Y12011295D01*
X43542981Y12265326D01*
X43426064Y12547590D01*
X43366460Y12847240D01*
X43366460Y13152760D01*
X43374039Y13190860D01*
X43426064Y13452409D01*
X43426064Y13452410D01*
X43542981Y13734674D01*
X43712719Y13988705D01*
X43928755Y14204741D01*
X44182786Y14374479D01*
X44465050Y14491396D01*
X44656592Y14529496D01*
X44764699Y14551000D01*
X45070221Y14551000D01*
X45178328Y14529496D01*
G37*
G36*
X69367825Y14559298D02*
G01*
X69517650Y14529496D01*
X69799914Y14412579D01*
X70053945Y14242841D01*
X70269981Y14026805D01*
X70439719Y13772774D01*
X70556636Y13490510D01*
X70564215Y13452409D01*
X70616240Y13190861D01*
X70616240Y12885339D01*
X70608661Y12847239D01*
X70556636Y12585690D01*
X70439719Y12303426D01*
X70269981Y12049395D01*
X70053945Y11833359D01*
X69799914Y11663621D01*
X69517650Y11546704D01*
X69367825Y11516902D01*
X69218001Y11487100D01*
X68912479Y11487100D01*
X68762655Y11516902D01*
X68612830Y11546704D01*
X68330566Y11663621D01*
X68076535Y11833359D01*
X67860499Y12049395D01*
X67690761Y12303426D01*
X67573844Y12585690D01*
X67521819Y12847239D01*
X67514240Y12885339D01*
X67514240Y13190861D01*
X67566265Y13452409D01*
X67573844Y13490510D01*
X67690761Y13772774D01*
X67860499Y14026805D01*
X68076535Y14242841D01*
X68330566Y14412579D01*
X68612830Y14529496D01*
X68762655Y14559298D01*
X68912479Y14589100D01*
X69218001Y14589100D01*
X69367825Y14559298D01*
G37*
G36*
X45178328Y19529496D02*
G01*
X45369870Y19491396D01*
X45652134Y19374479D01*
X45906165Y19204741D01*
X46122201Y18988705D01*
X46291939Y18734674D01*
X46408856Y18452410D01*
X46408856Y18452409D01*
X46460882Y18190860D01*
X46468460Y18152760D01*
X46468460Y17847240D01*
X46408856Y17547590D01*
X46291939Y17265326D01*
X46122201Y17011295D01*
X45906165Y16795259D01*
X45652134Y16625521D01*
X45369870Y16508604D01*
X45261762Y16487100D01*
X45070221Y16449000D01*
X44764699Y16449000D01*
X44573158Y16487100D01*
X44465050Y16508604D01*
X44182786Y16625521D01*
X43928755Y16795259D01*
X43712719Y17011295D01*
X43542981Y17265326D01*
X43426064Y17547590D01*
X43366460Y17847240D01*
X43366460Y18152760D01*
X43374039Y18190860D01*
X43426064Y18452409D01*
X43426064Y18452410D01*
X43542981Y18734674D01*
X43712719Y18988705D01*
X43928755Y19204741D01*
X44182786Y19374479D01*
X44465050Y19491396D01*
X44656592Y19529496D01*
X44764699Y19551000D01*
X45070221Y19551000D01*
X45178328Y19529496D01*
G37*
G36*
X22320868Y19529496D02*
G01*
X22512410Y19491396D01*
X22794674Y19374479D01*
X23048705Y19204741D01*
X23264741Y18988705D01*
X23434479Y18734674D01*
X23551396Y18452410D01*
X23551396Y18452409D01*
X23603422Y18190860D01*
X23611000Y18152760D01*
X23611000Y17847240D01*
X23551396Y17547590D01*
X23434479Y17265326D01*
X23264741Y17011295D01*
X23048705Y16795259D01*
X22794674Y16625521D01*
X22512410Y16508604D01*
X22404302Y16487100D01*
X22212761Y16449000D01*
X21907239Y16449000D01*
X21715698Y16487100D01*
X21607590Y16508604D01*
X21325326Y16625521D01*
X21071295Y16795259D01*
X20855259Y17011295D01*
X20685521Y17265326D01*
X20568604Y17547590D01*
X20509000Y17847240D01*
X20509000Y18152760D01*
X20516579Y18190860D01*
X20568604Y18452409D01*
X20568604Y18452410D01*
X20685521Y18734674D01*
X20855259Y18988705D01*
X21071295Y19204741D01*
X21325326Y19374479D01*
X21607590Y19491396D01*
X21799132Y19529496D01*
X21907239Y19551000D01*
X22212761Y19551000D01*
X22320868Y19529496D01*
G37*
G36*
X69367825Y19559298D02*
G01*
X69517650Y19529496D01*
X69799914Y19412579D01*
X70053945Y19242841D01*
X70269981Y19026805D01*
X70439719Y18772774D01*
X70556636Y18490510D01*
X70564215Y18452409D01*
X70616240Y18190861D01*
X70616240Y17885339D01*
X70608661Y17847239D01*
X70556636Y17585690D01*
X70439719Y17303426D01*
X70269981Y17049395D01*
X70053945Y16833359D01*
X69799914Y16663621D01*
X69517650Y16546704D01*
X69367825Y16516902D01*
X69218001Y16487100D01*
X68912479Y16487100D01*
X68762655Y16516902D01*
X68612830Y16546704D01*
X68330566Y16663621D01*
X68076535Y16833359D01*
X67860499Y17049395D01*
X67690761Y17303426D01*
X67573844Y17585690D01*
X67521819Y17847239D01*
X67514240Y17885339D01*
X67514240Y18190861D01*
X67566265Y18452409D01*
X67573844Y18490510D01*
X67690761Y18772774D01*
X67860499Y19026805D01*
X68076535Y19242841D01*
X68330566Y19412579D01*
X68612830Y19529496D01*
X68762655Y19559298D01*
X68912479Y19589100D01*
X69218001Y19589100D01*
X69367825Y19559298D01*
G37*
G36*
X42586032Y23425793D02*
G01*
X42784146Y23365695D01*
X42784149Y23365694D01*
X42880975Y23313939D01*
X42966729Y23268103D01*
X43126765Y23136765D01*
X43258103Y22976729D01*
X43303939Y22890975D01*
X43355694Y22794149D01*
X43355695Y22794146D01*
X43415793Y22596032D01*
X43431000Y22441630D01*
X43431000Y21338370D01*
X43415793Y21183968D01*
X43355695Y20985855D01*
X43355694Y20985851D01*
X43303939Y20889025D01*
X43258103Y20803271D01*
X43126765Y20643235D01*
X42966729Y20511897D01*
X42850030Y20449521D01*
X42784148Y20414306D01*
X42784145Y20414305D01*
X42586031Y20354207D01*
X42380000Y20333915D01*
X42173968Y20354207D01*
X41975854Y20414305D01*
X41975851Y20414306D01*
X41879025Y20466061D01*
X41793271Y20511897D01*
X41633235Y20643235D01*
X41501897Y20803271D01*
X41404307Y20985851D01*
X41404306Y20985852D01*
X41404305Y20985855D01*
X41344207Y21183969D01*
X41329000Y21338371D01*
X41329000Y22441631D01*
X41344207Y22596030D01*
X41404305Y22794147D01*
X41479184Y22934234D01*
X41501898Y22976729D01*
X41633236Y23136765D01*
X41793272Y23268103D01*
X41879026Y23313939D01*
X41975852Y23365694D01*
X41975855Y23365695D01*
X42173969Y23425793D01*
X42380000Y23446085D01*
X42586032Y23425793D01*
G37*
G36*
X40046032Y23425793D02*
G01*
X40244146Y23365695D01*
X40244149Y23365694D01*
X40340975Y23313939D01*
X40426729Y23268103D01*
X40586765Y23136765D01*
X40718103Y22976729D01*
X40763939Y22890975D01*
X40815694Y22794149D01*
X40815695Y22794146D01*
X40875793Y22596032D01*
X40891000Y22441630D01*
X40891000Y21338370D01*
X40875793Y21183968D01*
X40815695Y20985855D01*
X40815694Y20985851D01*
X40763939Y20889025D01*
X40718103Y20803271D01*
X40586765Y20643235D01*
X40426729Y20511897D01*
X40310030Y20449521D01*
X40244148Y20414306D01*
X40244145Y20414305D01*
X40046031Y20354207D01*
X39840000Y20333915D01*
X39633968Y20354207D01*
X39435854Y20414305D01*
X39435851Y20414306D01*
X39339025Y20466061D01*
X39253271Y20511897D01*
X39093235Y20643235D01*
X38961897Y20803271D01*
X38864307Y20985851D01*
X38864306Y20985852D01*
X38864305Y20985855D01*
X38804207Y21183969D01*
X38789000Y21338371D01*
X38789000Y22441631D01*
X38804207Y22596030D01*
X38864305Y22794147D01*
X38939184Y22934234D01*
X38961898Y22976729D01*
X39093236Y23136765D01*
X39253272Y23268103D01*
X39339026Y23313939D01*
X39435852Y23365694D01*
X39435855Y23365695D01*
X39633969Y23425793D01*
X39840000Y23446085D01*
X40046032Y23425793D01*
G37*
G36*
X37506032Y23425793D02*
G01*
X37704146Y23365695D01*
X37704149Y23365694D01*
X37800975Y23313939D01*
X37886729Y23268103D01*
X38046765Y23136765D01*
X38178103Y22976729D01*
X38223939Y22890975D01*
X38275694Y22794149D01*
X38275695Y22794146D01*
X38335793Y22596032D01*
X38351000Y22441630D01*
X38351000Y21338370D01*
X38335793Y21183968D01*
X38275695Y20985855D01*
X38275694Y20985851D01*
X38223939Y20889025D01*
X38178103Y20803271D01*
X38046765Y20643235D01*
X37886729Y20511897D01*
X37770030Y20449521D01*
X37704148Y20414306D01*
X37704145Y20414305D01*
X37506031Y20354207D01*
X37300000Y20333915D01*
X37093968Y20354207D01*
X36895854Y20414305D01*
X36895851Y20414306D01*
X36799025Y20466061D01*
X36713271Y20511897D01*
X36553235Y20643235D01*
X36421897Y20803271D01*
X36324307Y20985851D01*
X36324306Y20985852D01*
X36324305Y20985855D01*
X36264207Y21183969D01*
X36249000Y21338371D01*
X36249000Y22441631D01*
X36264207Y22596030D01*
X36324305Y22794147D01*
X36399184Y22934234D01*
X36421898Y22976729D01*
X36553236Y23136765D01*
X36713272Y23268103D01*
X36799026Y23313939D01*
X36895852Y23365694D01*
X36895855Y23365695D01*
X37093969Y23425793D01*
X37300000Y23446085D01*
X37506032Y23425793D01*
G37*
G36*
X34966032Y23425793D02*
G01*
X35164146Y23365695D01*
X35164149Y23365694D01*
X35260975Y23313939D01*
X35346729Y23268103D01*
X35506765Y23136765D01*
X35638103Y22976729D01*
X35683939Y22890975D01*
X35735694Y22794149D01*
X35735695Y22794146D01*
X35795793Y22596032D01*
X35811000Y22441630D01*
X35811000Y21338370D01*
X35795793Y21183968D01*
X35735695Y20985855D01*
X35735694Y20985851D01*
X35683939Y20889025D01*
X35638103Y20803271D01*
X35506765Y20643235D01*
X35346729Y20511897D01*
X35230030Y20449521D01*
X35164148Y20414306D01*
X35164145Y20414305D01*
X34966031Y20354207D01*
X34760000Y20333915D01*
X34553968Y20354207D01*
X34355854Y20414305D01*
X34355851Y20414306D01*
X34259025Y20466061D01*
X34173271Y20511897D01*
X34013235Y20643235D01*
X33881897Y20803271D01*
X33784307Y20985851D01*
X33784306Y20985852D01*
X33784305Y20985855D01*
X33724207Y21183969D01*
X33709000Y21338371D01*
X33709000Y22441631D01*
X33724207Y22596030D01*
X33784305Y22794147D01*
X33859184Y22934234D01*
X33881898Y22976729D01*
X34013236Y23136765D01*
X34173272Y23268103D01*
X34259026Y23313939D01*
X34355852Y23365694D01*
X34355855Y23365695D01*
X34553969Y23425793D01*
X34760000Y23446085D01*
X34966032Y23425793D01*
G37*
G36*
X32426032Y23425793D02*
G01*
X32624146Y23365695D01*
X32624149Y23365694D01*
X32720975Y23313939D01*
X32806729Y23268103D01*
X32966765Y23136765D01*
X33098103Y22976729D01*
X33143939Y22890975D01*
X33195694Y22794149D01*
X33195695Y22794146D01*
X33255793Y22596032D01*
X33271000Y22441630D01*
X33271000Y21338370D01*
X33255793Y21183968D01*
X33195695Y20985855D01*
X33195694Y20985851D01*
X33143939Y20889025D01*
X33098103Y20803271D01*
X32966765Y20643235D01*
X32806729Y20511897D01*
X32690030Y20449521D01*
X32624148Y20414306D01*
X32624145Y20414305D01*
X32426031Y20354207D01*
X32220000Y20333915D01*
X32013968Y20354207D01*
X31815854Y20414305D01*
X31815851Y20414306D01*
X31719025Y20466061D01*
X31633271Y20511897D01*
X31473235Y20643235D01*
X31341897Y20803271D01*
X31244307Y20985851D01*
X31244306Y20985852D01*
X31244305Y20985855D01*
X31184207Y21183969D01*
X31169000Y21338371D01*
X31169000Y22441631D01*
X31184207Y22596030D01*
X31244305Y22794147D01*
X31319184Y22934234D01*
X31341898Y22976729D01*
X31473236Y23136765D01*
X31633272Y23268103D01*
X31719026Y23313939D01*
X31815852Y23365694D01*
X31815855Y23365695D01*
X32013969Y23425793D01*
X32220000Y23446085D01*
X32426032Y23425793D01*
G37*
G36*
X29886032Y23425793D02*
G01*
X30084146Y23365695D01*
X30084149Y23365694D01*
X30180975Y23313939D01*
X30266729Y23268103D01*
X30426765Y23136765D01*
X30558103Y22976729D01*
X30603939Y22890975D01*
X30655694Y22794149D01*
X30655695Y22794146D01*
X30715793Y22596032D01*
X30731000Y22441630D01*
X30731000Y21338370D01*
X30715793Y21183968D01*
X30655695Y20985855D01*
X30655694Y20985851D01*
X30603939Y20889025D01*
X30558103Y20803271D01*
X30426765Y20643235D01*
X30266729Y20511897D01*
X30150030Y20449521D01*
X30084148Y20414306D01*
X30084145Y20414305D01*
X29886031Y20354207D01*
X29680000Y20333915D01*
X29473968Y20354207D01*
X29275854Y20414305D01*
X29275851Y20414306D01*
X29179025Y20466061D01*
X29093271Y20511897D01*
X28933235Y20643235D01*
X28801897Y20803271D01*
X28704307Y20985851D01*
X28704306Y20985852D01*
X28704305Y20985855D01*
X28644207Y21183969D01*
X28629000Y21338371D01*
X28629000Y22441631D01*
X28644207Y22596030D01*
X28704305Y22794147D01*
X28779184Y22934235D01*
X28801898Y22976729D01*
X28933236Y23136765D01*
X29093272Y23268103D01*
X29179026Y23313939D01*
X29275852Y23365694D01*
X29275855Y23365695D01*
X29473969Y23425793D01*
X29680000Y23446085D01*
X29886032Y23425793D01*
G37*
G36*
X27346032Y23425793D02*
G01*
X27544146Y23365695D01*
X27544149Y23365694D01*
X27640975Y23313939D01*
X27726729Y23268103D01*
X27886765Y23136765D01*
X28018103Y22976729D01*
X28063939Y22890975D01*
X28115694Y22794149D01*
X28115695Y22794146D01*
X28175793Y22596032D01*
X28191000Y22441630D01*
X28191000Y21338370D01*
X28175793Y21183968D01*
X28115695Y20985855D01*
X28115694Y20985851D01*
X28063939Y20889025D01*
X28018103Y20803271D01*
X27886765Y20643235D01*
X27726729Y20511897D01*
X27610030Y20449521D01*
X27544148Y20414306D01*
X27544145Y20414305D01*
X27346031Y20354207D01*
X27140000Y20333915D01*
X26933968Y20354207D01*
X26735854Y20414305D01*
X26735851Y20414306D01*
X26639025Y20466061D01*
X26553271Y20511897D01*
X26393235Y20643235D01*
X26261897Y20803271D01*
X26164307Y20985851D01*
X26164306Y20985852D01*
X26164305Y20985855D01*
X26104207Y21183969D01*
X26089000Y21338371D01*
X26089000Y22441631D01*
X26104207Y22596030D01*
X26164305Y22794147D01*
X26239184Y22934235D01*
X26261898Y22976729D01*
X26393236Y23136765D01*
X26553272Y23268103D01*
X26639026Y23313939D01*
X26735852Y23365694D01*
X26735855Y23365695D01*
X26933969Y23425793D01*
X27140000Y23446085D01*
X27346032Y23425793D01*
G37*
G36*
X59096032Y23425793D02*
G01*
X59294146Y23365695D01*
X59294149Y23365694D01*
X59390975Y23313939D01*
X59476729Y23268103D01*
X59636765Y23136765D01*
X59768103Y22976729D01*
X59813939Y22890975D01*
X59865694Y22794149D01*
X59865695Y22794146D01*
X59925793Y22596032D01*
X59941000Y22441630D01*
X59941000Y21338370D01*
X59925793Y21183968D01*
X59865695Y20985855D01*
X59865694Y20985851D01*
X59813939Y20889025D01*
X59768103Y20803271D01*
X59636765Y20643235D01*
X59476729Y20511897D01*
X59360030Y20449521D01*
X59294148Y20414306D01*
X59294145Y20414305D01*
X59096031Y20354207D01*
X58890000Y20333915D01*
X58683968Y20354207D01*
X58485854Y20414305D01*
X58485851Y20414306D01*
X58389025Y20466061D01*
X58303271Y20511897D01*
X58143235Y20643235D01*
X58011897Y20803271D01*
X57914307Y20985851D01*
X57914306Y20985852D01*
X57914305Y20985855D01*
X57854207Y21183969D01*
X57839000Y21338371D01*
X57839000Y22441631D01*
X57854207Y22596030D01*
X57914305Y22794147D01*
X57989184Y22934234D01*
X58011898Y22976729D01*
X58143236Y23136765D01*
X58303272Y23268103D01*
X58389026Y23313939D01*
X58485852Y23365694D01*
X58485855Y23365695D01*
X58683969Y23425793D01*
X58890000Y23446085D01*
X59096032Y23425793D01*
G37*
G36*
X19726032Y23425793D02*
G01*
X19924146Y23365695D01*
X19924149Y23365694D01*
X20020975Y23313939D01*
X20106729Y23268103D01*
X20266765Y23136765D01*
X20398103Y22976729D01*
X20443939Y22890975D01*
X20495694Y22794149D01*
X20495695Y22794146D01*
X20555793Y22596032D01*
X20571000Y22441630D01*
X20571000Y21338370D01*
X20555793Y21183968D01*
X20495695Y20985855D01*
X20495694Y20985851D01*
X20443939Y20889025D01*
X20398103Y20803271D01*
X20266765Y20643235D01*
X20106729Y20511897D01*
X19990030Y20449521D01*
X19924148Y20414306D01*
X19924145Y20414305D01*
X19726031Y20354207D01*
X19520000Y20333915D01*
X19313968Y20354207D01*
X19115854Y20414305D01*
X19115851Y20414306D01*
X19019025Y20466061D01*
X18933271Y20511897D01*
X18773235Y20643235D01*
X18641897Y20803271D01*
X18544307Y20985851D01*
X18544306Y20985852D01*
X18544305Y20985855D01*
X18484207Y21183969D01*
X18469000Y21338371D01*
X18469000Y22441631D01*
X18484207Y22596030D01*
X18544305Y22794147D01*
X18619184Y22934235D01*
X18641898Y22976729D01*
X18773236Y23136765D01*
X18933272Y23268103D01*
X19019026Y23313939D01*
X19115852Y23365694D01*
X19115855Y23365695D01*
X19313969Y23425793D01*
X19520000Y23446085D01*
X19726032Y23425793D01*
G37*
G36*
X17186032Y23425793D02*
G01*
X17384146Y23365695D01*
X17384149Y23365694D01*
X17480975Y23313939D01*
X17566729Y23268103D01*
X17726765Y23136765D01*
X17858103Y22976729D01*
X17903939Y22890975D01*
X17955694Y22794149D01*
X17955695Y22794146D01*
X18015793Y22596032D01*
X18031000Y22441630D01*
X18031000Y21338370D01*
X18015793Y21183968D01*
X17955695Y20985855D01*
X17955694Y20985851D01*
X17903939Y20889025D01*
X17858103Y20803271D01*
X17726765Y20643235D01*
X17566729Y20511897D01*
X17450030Y20449521D01*
X17384148Y20414306D01*
X17384145Y20414305D01*
X17186031Y20354207D01*
X16980000Y20333915D01*
X16773968Y20354207D01*
X16575854Y20414305D01*
X16575851Y20414306D01*
X16479025Y20466061D01*
X16393271Y20511897D01*
X16233235Y20643235D01*
X16101897Y20803271D01*
X16004307Y20985851D01*
X16004306Y20985852D01*
X16004305Y20985855D01*
X15944207Y21183969D01*
X15929000Y21338371D01*
X15929000Y22441631D01*
X15944207Y22596030D01*
X16004305Y22794147D01*
X16079184Y22934235D01*
X16101898Y22976729D01*
X16233236Y23136765D01*
X16393272Y23268103D01*
X16479026Y23313939D01*
X16575852Y23365694D01*
X16575855Y23365695D01*
X16773969Y23425793D01*
X16980000Y23446085D01*
X17186032Y23425793D01*
G37*
G36*
X14646032Y23425793D02*
G01*
X14844146Y23365695D01*
X14844149Y23365694D01*
X14940975Y23313939D01*
X15026729Y23268103D01*
X15186765Y23136765D01*
X15318103Y22976729D01*
X15363939Y22890975D01*
X15415694Y22794149D01*
X15415695Y22794146D01*
X15475793Y22596032D01*
X15491000Y22441630D01*
X15491000Y21338370D01*
X15475793Y21183968D01*
X15415695Y20985855D01*
X15415694Y20985851D01*
X15363939Y20889025D01*
X15318103Y20803271D01*
X15186765Y20643235D01*
X15026729Y20511897D01*
X14910030Y20449521D01*
X14844148Y20414306D01*
X14844145Y20414305D01*
X14646031Y20354207D01*
X14440000Y20333915D01*
X14233968Y20354207D01*
X14035854Y20414305D01*
X14035851Y20414306D01*
X13939025Y20466061D01*
X13853271Y20511897D01*
X13693235Y20643235D01*
X13561897Y20803271D01*
X13464307Y20985851D01*
X13464306Y20985852D01*
X13464305Y20985855D01*
X13404207Y21183969D01*
X13389000Y21338371D01*
X13389000Y22441631D01*
X13404207Y22596030D01*
X13464305Y22794147D01*
X13539184Y22934235D01*
X13561898Y22976729D01*
X13693236Y23136765D01*
X13853272Y23268103D01*
X13939026Y23313939D01*
X14035852Y23365694D01*
X14035855Y23365695D01*
X14233969Y23425793D01*
X14440000Y23446085D01*
X14646032Y23425793D01*
G37*
G36*
X12106032Y23425793D02*
G01*
X12304146Y23365695D01*
X12304149Y23365694D01*
X12400975Y23313939D01*
X12486729Y23268103D01*
X12646765Y23136765D01*
X12778103Y22976729D01*
X12823939Y22890975D01*
X12875694Y22794149D01*
X12875695Y22794146D01*
X12935793Y22596032D01*
X12951000Y22441630D01*
X12951000Y21338370D01*
X12935793Y21183968D01*
X12875695Y20985855D01*
X12875694Y20985851D01*
X12823939Y20889025D01*
X12778103Y20803271D01*
X12646765Y20643235D01*
X12486729Y20511897D01*
X12370030Y20449521D01*
X12304148Y20414306D01*
X12304145Y20414305D01*
X12106031Y20354207D01*
X11900000Y20333915D01*
X11693968Y20354207D01*
X11495854Y20414305D01*
X11495851Y20414306D01*
X11399025Y20466061D01*
X11313271Y20511897D01*
X11153235Y20643235D01*
X11021897Y20803271D01*
X10924307Y20985851D01*
X10924306Y20985852D01*
X10924305Y20985855D01*
X10864207Y21183969D01*
X10849000Y21338371D01*
X10849000Y22441631D01*
X10864207Y22596030D01*
X10924305Y22794147D01*
X10999184Y22934235D01*
X11021898Y22976729D01*
X11153236Y23136765D01*
X11313272Y23268103D01*
X11399026Y23313939D01*
X11495852Y23365694D01*
X11495855Y23365695D01*
X11693969Y23425793D01*
X11900000Y23446085D01*
X12106032Y23425793D01*
G37*
G36*
X9566032Y23425793D02*
G01*
X9764146Y23365695D01*
X9764149Y23365694D01*
X9860975Y23313939D01*
X9946729Y23268103D01*
X10106765Y23136765D01*
X10238103Y22976729D01*
X10283939Y22890975D01*
X10335694Y22794149D01*
X10335695Y22794146D01*
X10395793Y22596032D01*
X10411000Y22441630D01*
X10411000Y21338370D01*
X10395793Y21183968D01*
X10335695Y20985855D01*
X10335694Y20985851D01*
X10283939Y20889025D01*
X10238103Y20803271D01*
X10106765Y20643235D01*
X9946729Y20511897D01*
X9830030Y20449521D01*
X9764148Y20414306D01*
X9764145Y20414305D01*
X9566031Y20354207D01*
X9360000Y20333915D01*
X9153968Y20354207D01*
X8955854Y20414305D01*
X8955851Y20414306D01*
X8859025Y20466061D01*
X8773271Y20511897D01*
X8613235Y20643235D01*
X8481897Y20803271D01*
X8384307Y20985851D01*
X8384306Y20985852D01*
X8384305Y20985855D01*
X8324207Y21183969D01*
X8309000Y21338371D01*
X8309000Y22441631D01*
X8324207Y22596030D01*
X8384305Y22794147D01*
X8459184Y22934235D01*
X8481898Y22976729D01*
X8613236Y23136765D01*
X8773272Y23268103D01*
X8859026Y23313939D01*
X8955852Y23365694D01*
X8955855Y23365695D01*
X9153969Y23425793D01*
X9360000Y23446085D01*
X9566032Y23425793D01*
G37*
G36*
X7026032Y23425793D02*
G01*
X7224146Y23365695D01*
X7224149Y23365694D01*
X7320975Y23313939D01*
X7406729Y23268103D01*
X7566765Y23136765D01*
X7698103Y22976729D01*
X7743939Y22890975D01*
X7795694Y22794149D01*
X7795695Y22794146D01*
X7855793Y22596032D01*
X7871000Y22441630D01*
X7871000Y21338370D01*
X7855793Y21183968D01*
X7795695Y20985855D01*
X7795694Y20985851D01*
X7743939Y20889025D01*
X7698103Y20803271D01*
X7566765Y20643235D01*
X7406729Y20511897D01*
X7290030Y20449521D01*
X7224148Y20414306D01*
X7224145Y20414305D01*
X7026031Y20354207D01*
X6820000Y20333915D01*
X6613968Y20354207D01*
X6415854Y20414305D01*
X6415851Y20414306D01*
X6319025Y20466061D01*
X6233271Y20511897D01*
X6073235Y20643235D01*
X5941897Y20803271D01*
X5844307Y20985851D01*
X5844306Y20985852D01*
X5844305Y20985855D01*
X5784207Y21183969D01*
X5769000Y21338371D01*
X5769000Y22441631D01*
X5784207Y22596030D01*
X5844305Y22794147D01*
X5919184Y22934235D01*
X5941898Y22976729D01*
X6073236Y23136765D01*
X6233272Y23268103D01*
X6319026Y23313939D01*
X6415852Y23365694D01*
X6415855Y23365695D01*
X6613969Y23425793D01*
X6820000Y23446085D01*
X7026032Y23425793D01*
G37*
G36*
X4486032Y23425793D02*
G01*
X4684146Y23365695D01*
X4684149Y23365694D01*
X4780975Y23313939D01*
X4866729Y23268103D01*
X5026765Y23136765D01*
X5158103Y22976729D01*
X5203939Y22890975D01*
X5255694Y22794149D01*
X5255695Y22794146D01*
X5315793Y22596032D01*
X5331000Y22441630D01*
X5331000Y21338370D01*
X5315793Y21183968D01*
X5255695Y20985855D01*
X5255694Y20985851D01*
X5203939Y20889025D01*
X5158103Y20803271D01*
X5026765Y20643235D01*
X4866729Y20511897D01*
X4750030Y20449521D01*
X4684148Y20414306D01*
X4684145Y20414305D01*
X4486031Y20354207D01*
X4280000Y20333915D01*
X4073968Y20354207D01*
X3875854Y20414305D01*
X3875851Y20414306D01*
X3779025Y20466061D01*
X3693271Y20511897D01*
X3533235Y20643235D01*
X3401897Y20803271D01*
X3304307Y20985851D01*
X3304306Y20985852D01*
X3304305Y20985855D01*
X3244207Y21183969D01*
X3229000Y21338371D01*
X3229000Y22441631D01*
X3244207Y22596030D01*
X3304305Y22794147D01*
X3379184Y22934235D01*
X3401898Y22976729D01*
X3533236Y23136765D01*
X3693272Y23268103D01*
X3779026Y23313939D01*
X3875852Y23365694D01*
X3875855Y23365695D01*
X4073969Y23425793D01*
X4280000Y23446085D01*
X4486032Y23425793D01*
G37*
G36*
X56556032Y23425793D02*
G01*
X56754146Y23365695D01*
X56754149Y23365694D01*
X56850975Y23313939D01*
X56936729Y23268103D01*
X57096765Y23136765D01*
X57228103Y22976729D01*
X57273939Y22890975D01*
X57325694Y22794149D01*
X57325695Y22794146D01*
X57385793Y22596032D01*
X57401000Y22441630D01*
X57401000Y21338370D01*
X57385793Y21183968D01*
X57325695Y20985855D01*
X57325694Y20985851D01*
X57273939Y20889025D01*
X57228103Y20803271D01*
X57096765Y20643235D01*
X56936729Y20511897D01*
X56820030Y20449521D01*
X56754148Y20414306D01*
X56754145Y20414305D01*
X56556031Y20354207D01*
X56350000Y20333915D01*
X56143968Y20354207D01*
X55945854Y20414305D01*
X55945851Y20414306D01*
X55849025Y20466061D01*
X55763271Y20511897D01*
X55603235Y20643235D01*
X55471897Y20803271D01*
X55374307Y20985851D01*
X55374306Y20985852D01*
X55374305Y20985855D01*
X55314207Y21183969D01*
X55299000Y21338371D01*
X55299000Y22441631D01*
X55314207Y22596030D01*
X55374305Y22794147D01*
X55449184Y22934234D01*
X55471898Y22976729D01*
X55603236Y23136765D01*
X55763272Y23268103D01*
X55849026Y23313939D01*
X55945852Y23365694D01*
X55945855Y23365695D01*
X56143969Y23425793D01*
X56350000Y23446085D01*
X56556032Y23425793D01*
G37*
G36*
X54016032Y23425793D02*
G01*
X54214146Y23365695D01*
X54214149Y23365694D01*
X54310975Y23313939D01*
X54396729Y23268103D01*
X54556765Y23136765D01*
X54688103Y22976729D01*
X54733939Y22890975D01*
X54785694Y22794149D01*
X54785695Y22794146D01*
X54845793Y22596032D01*
X54861000Y22441630D01*
X54861000Y21338370D01*
X54845793Y21183968D01*
X54785695Y20985855D01*
X54785694Y20985851D01*
X54733939Y20889025D01*
X54688103Y20803271D01*
X54556765Y20643235D01*
X54396729Y20511897D01*
X54280030Y20449521D01*
X54214148Y20414306D01*
X54214145Y20414305D01*
X54016031Y20354207D01*
X53810000Y20333915D01*
X53603968Y20354207D01*
X53405854Y20414305D01*
X53405851Y20414306D01*
X53309025Y20466061D01*
X53223271Y20511897D01*
X53063235Y20643235D01*
X52931897Y20803271D01*
X52834307Y20985851D01*
X52834306Y20985852D01*
X52834305Y20985855D01*
X52774207Y21183969D01*
X52759000Y21338371D01*
X52759000Y22441631D01*
X52774207Y22596030D01*
X52834305Y22794147D01*
X52909184Y22934234D01*
X52931898Y22976729D01*
X53063236Y23136765D01*
X53223272Y23268103D01*
X53309026Y23313939D01*
X53405852Y23365694D01*
X53405855Y23365695D01*
X53603969Y23425793D01*
X53810000Y23446085D01*
X54016032Y23425793D01*
G37*
G36*
X64176032Y23425793D02*
G01*
X64374146Y23365695D01*
X64374149Y23365694D01*
X64470975Y23313939D01*
X64556729Y23268103D01*
X64716765Y23136765D01*
X64848103Y22976729D01*
X64893939Y22890975D01*
X64945694Y22794149D01*
X64945695Y22794146D01*
X65005793Y22596032D01*
X65021000Y22441630D01*
X65021000Y21338370D01*
X65005793Y21183968D01*
X64945695Y20985855D01*
X64945694Y20985851D01*
X64893939Y20889025D01*
X64848103Y20803271D01*
X64716765Y20643235D01*
X64556729Y20511897D01*
X64440030Y20449521D01*
X64374148Y20414306D01*
X64374145Y20414305D01*
X64176031Y20354207D01*
X63970000Y20333915D01*
X63763968Y20354207D01*
X63565854Y20414305D01*
X63565851Y20414306D01*
X63469025Y20466061D01*
X63383271Y20511897D01*
X63223235Y20643235D01*
X63091897Y20803271D01*
X62994307Y20985851D01*
X62994306Y20985852D01*
X62994305Y20985855D01*
X62934207Y21183969D01*
X62919000Y21338371D01*
X62919000Y22441631D01*
X62934207Y22596030D01*
X62994305Y22794147D01*
X63069184Y22934234D01*
X63091898Y22976729D01*
X63223236Y23136765D01*
X63383272Y23268103D01*
X63469026Y23313939D01*
X63565852Y23365694D01*
X63565855Y23365695D01*
X63763969Y23425793D01*
X63970000Y23446085D01*
X64176032Y23425793D01*
G37*
G36*
X66716032Y23425793D02*
G01*
X66914146Y23365695D01*
X66914149Y23365694D01*
X67010975Y23313939D01*
X67096729Y23268103D01*
X67256765Y23136765D01*
X67388103Y22976729D01*
X67433939Y22890975D01*
X67485694Y22794149D01*
X67485695Y22794146D01*
X67545793Y22596032D01*
X67561000Y22441630D01*
X67561000Y21338370D01*
X67545793Y21183968D01*
X67485695Y20985855D01*
X67485694Y20985851D01*
X67433939Y20889025D01*
X67388103Y20803271D01*
X67256765Y20643235D01*
X67096729Y20511897D01*
X66980030Y20449521D01*
X66914148Y20414306D01*
X66914145Y20414305D01*
X66716031Y20354207D01*
X66510000Y20333915D01*
X66303968Y20354207D01*
X66105854Y20414305D01*
X66105851Y20414306D01*
X66009025Y20466061D01*
X65923271Y20511897D01*
X65763235Y20643235D01*
X65631897Y20803271D01*
X65534307Y20985851D01*
X65534306Y20985852D01*
X65534305Y20985855D01*
X65474207Y21183969D01*
X65459000Y21338371D01*
X65459000Y22441631D01*
X65474207Y22596030D01*
X65534305Y22794147D01*
X65609184Y22934234D01*
X65631898Y22976729D01*
X65763236Y23136765D01*
X65923272Y23268103D01*
X66009026Y23313939D01*
X66105852Y23365694D01*
X66105855Y23365695D01*
X66303969Y23425793D01*
X66510000Y23446085D01*
X66716032Y23425793D01*
G37*
G36*
X61636032Y23425793D02*
G01*
X61834146Y23365695D01*
X61834149Y23365694D01*
X61930975Y23313939D01*
X62016729Y23268103D01*
X62176765Y23136765D01*
X62308103Y22976729D01*
X62353939Y22890975D01*
X62405694Y22794149D01*
X62405695Y22794146D01*
X62465793Y22596032D01*
X62481000Y22441630D01*
X62481000Y21338370D01*
X62465793Y21183968D01*
X62405695Y20985855D01*
X62405694Y20985851D01*
X62353939Y20889025D01*
X62308103Y20803271D01*
X62176765Y20643235D01*
X62016729Y20511897D01*
X61900030Y20449521D01*
X61834148Y20414306D01*
X61834145Y20414305D01*
X61636031Y20354207D01*
X61430000Y20333915D01*
X61223968Y20354207D01*
X61025854Y20414305D01*
X61025851Y20414306D01*
X60929025Y20466061D01*
X60843271Y20511897D01*
X60683235Y20643235D01*
X60551897Y20803271D01*
X60454307Y20985851D01*
X60454306Y20985852D01*
X60454305Y20985855D01*
X60394207Y21183969D01*
X60379000Y21338371D01*
X60379000Y22441631D01*
X60394207Y22596030D01*
X60454305Y22794147D01*
X60529184Y22934234D01*
X60551898Y22976729D01*
X60683236Y23136765D01*
X60843272Y23268103D01*
X60929026Y23313939D01*
X61025852Y23365694D01*
X61025855Y23365695D01*
X61223969Y23425793D01*
X61430000Y23446085D01*
X61636032Y23425793D01*
G37*
G36*
X51476032Y23425793D02*
G01*
X51674146Y23365695D01*
X51674149Y23365694D01*
X51770975Y23313939D01*
X51856729Y23268103D01*
X52016765Y23136765D01*
X52148103Y22976729D01*
X52193939Y22890975D01*
X52245694Y22794149D01*
X52245695Y22794146D01*
X52305793Y22596032D01*
X52321000Y22441630D01*
X52321000Y21338370D01*
X52305793Y21183968D01*
X52245695Y20985855D01*
X52245694Y20985851D01*
X52193939Y20889025D01*
X52148103Y20803271D01*
X52016765Y20643235D01*
X51856729Y20511897D01*
X51740030Y20449521D01*
X51674148Y20414306D01*
X51674145Y20414305D01*
X51476031Y20354207D01*
X51270000Y20333915D01*
X51063968Y20354207D01*
X50865854Y20414305D01*
X50865851Y20414306D01*
X50769025Y20466061D01*
X50683271Y20511897D01*
X50523235Y20643235D01*
X50391897Y20803271D01*
X50294307Y20985851D01*
X50294306Y20985852D01*
X50294305Y20985855D01*
X50234207Y21183969D01*
X50219000Y21338371D01*
X50219000Y22441631D01*
X50234207Y22596030D01*
X50294305Y22794147D01*
X50369184Y22934234D01*
X50391898Y22976729D01*
X50523236Y23136765D01*
X50683272Y23268103D01*
X50769026Y23313939D01*
X50865852Y23365694D01*
X50865855Y23365695D01*
X51063969Y23425793D01*
X51270000Y23446085D01*
X51476032Y23425793D01*
G37*
G36*
X45971000Y20339000D02*
G01*
X43869000Y20339000D01*
X43869000Y23441000D01*
X45971000Y23441000D01*
X45971000Y20339000D01*
G37*
G36*
X70101000Y20339000D02*
G01*
X67999000Y20339000D01*
X67999000Y23441000D01*
X70101000Y23441000D01*
X70101000Y20339000D01*
G37*
G36*
X23111000Y20339000D02*
G01*
X21009000Y20339000D01*
X21009000Y23441000D01*
X23111000Y23441000D01*
X23111000Y20339000D01*
G37*
G36*
X68748032Y29394793D02*
G01*
X68946146Y29334695D01*
X68946149Y29334694D01*
X69042975Y29282939D01*
X69128729Y29237103D01*
X69288765Y29105765D01*
X69420103Y28945729D01*
X69465939Y28859975D01*
X69517694Y28763149D01*
X69517695Y28763146D01*
X69577793Y28565032D01*
X69593000Y28410630D01*
X69593000Y27307370D01*
X69577793Y27152968D01*
X69529338Y26993235D01*
X69517694Y26954851D01*
X69468009Y26861897D01*
X69420103Y26772271D01*
X69288765Y26612235D01*
X69128729Y26480897D01*
X69012030Y26418521D01*
X68946148Y26383306D01*
X68946145Y26383305D01*
X68748031Y26323207D01*
X68542000Y26302915D01*
X68335968Y26323207D01*
X68137854Y26383305D01*
X68137851Y26383306D01*
X68041025Y26435061D01*
X67955271Y26480897D01*
X67795235Y26612235D01*
X67663897Y26772271D01*
X67566307Y26954851D01*
X67566306Y26954852D01*
X67566305Y26954855D01*
X67506207Y27152969D01*
X67491000Y27307371D01*
X67491000Y28410631D01*
X67506207Y28565030D01*
X67566305Y28763147D01*
X67641184Y28903234D01*
X67663898Y28945729D01*
X67795236Y29105765D01*
X67955272Y29237103D01*
X68041026Y29282939D01*
X68137852Y29334694D01*
X68137855Y29334695D01*
X68335969Y29394793D01*
X68542000Y29415085D01*
X68748032Y29394793D01*
G37*
G36*
X72133000Y26308000D02*
G01*
X70031000Y26308000D01*
X70031000Y29410000D01*
X72133000Y29410000D01*
X72133000Y26308000D01*
G37*
G36*
X22266032Y29775793D02*
G01*
X22464146Y29715695D01*
X22464149Y29715694D01*
X22560975Y29663939D01*
X22646729Y29618103D01*
X22806765Y29486765D01*
X22938103Y29326729D01*
X22983939Y29240975D01*
X23035694Y29144149D01*
X23035695Y29144146D01*
X23095793Y28946032D01*
X23111000Y28791630D01*
X23111000Y27688370D01*
X23095793Y27533968D01*
X23035695Y27335855D01*
X23035694Y27335851D01*
X23020470Y27307369D01*
X22938103Y27153271D01*
X22806765Y26993235D01*
X22646729Y26861897D01*
X22530030Y26799521D01*
X22464148Y26764306D01*
X22464145Y26764305D01*
X22266031Y26704207D01*
X22060000Y26683915D01*
X21853968Y26704207D01*
X21655854Y26764305D01*
X21655851Y26764306D01*
X21559025Y26816061D01*
X21473271Y26861897D01*
X21313235Y26993235D01*
X21181897Y27153271D01*
X21099530Y27307370D01*
X21084306Y27335852D01*
X21084305Y27335855D01*
X21024207Y27533969D01*
X21009000Y27688371D01*
X21009000Y28791631D01*
X21024207Y28946030D01*
X21084305Y29144147D01*
X21159184Y29284235D01*
X21181898Y29326729D01*
X21313236Y29486765D01*
X21473272Y29618103D01*
X21559026Y29663939D01*
X21655852Y29715694D01*
X21655855Y29715695D01*
X21853969Y29775793D01*
X22060000Y29796085D01*
X22266032Y29775793D01*
G37*
G36*
X47666032Y29775793D02*
G01*
X47864146Y29715695D01*
X47864149Y29715694D01*
X47960975Y29663939D01*
X48046729Y29618103D01*
X48206765Y29486765D01*
X48338103Y29326729D01*
X48383939Y29240975D01*
X48435694Y29144149D01*
X48435695Y29144146D01*
X48495793Y28946032D01*
X48511000Y28791630D01*
X48511000Y27688370D01*
X48495793Y27533968D01*
X48435695Y27335855D01*
X48435694Y27335851D01*
X48420470Y27307369D01*
X48338103Y27153271D01*
X48206765Y26993235D01*
X48046729Y26861897D01*
X47930030Y26799521D01*
X47864148Y26764306D01*
X47864145Y26764305D01*
X47666031Y26704207D01*
X47460000Y26683915D01*
X47253968Y26704207D01*
X47055854Y26764305D01*
X47055851Y26764306D01*
X46959025Y26816061D01*
X46873271Y26861897D01*
X46713235Y26993235D01*
X46581897Y27153271D01*
X46499530Y27307370D01*
X46484306Y27335852D01*
X46484305Y27335855D01*
X46424207Y27533969D01*
X46409000Y27688371D01*
X46409000Y28791631D01*
X46424207Y28946030D01*
X46484305Y29144147D01*
X46559184Y29284234D01*
X46581898Y29326729D01*
X46713236Y29486765D01*
X46873272Y29618103D01*
X46959026Y29663939D01*
X47055852Y29715694D01*
X47055855Y29715695D01*
X47253969Y29775793D01*
X47460000Y29796085D01*
X47666032Y29775793D01*
G37*
G36*
X24806032Y29775793D02*
G01*
X25004146Y29715695D01*
X25004149Y29715694D01*
X25100975Y29663939D01*
X25186729Y29618103D01*
X25346765Y29486765D01*
X25478103Y29326729D01*
X25523939Y29240975D01*
X25575694Y29144149D01*
X25575695Y29144146D01*
X25635793Y28946032D01*
X25651000Y28791630D01*
X25651000Y27688370D01*
X25635793Y27533968D01*
X25575695Y27335855D01*
X25575694Y27335851D01*
X25560470Y27307369D01*
X25478103Y27153271D01*
X25346765Y26993235D01*
X25186729Y26861897D01*
X25070030Y26799521D01*
X25004148Y26764306D01*
X25004145Y26764305D01*
X24806031Y26704207D01*
X24600000Y26683915D01*
X24393968Y26704207D01*
X24195854Y26764305D01*
X24195851Y26764306D01*
X24099025Y26816061D01*
X24013271Y26861897D01*
X23853235Y26993235D01*
X23721897Y27153271D01*
X23639530Y27307370D01*
X23624306Y27335852D01*
X23624305Y27335855D01*
X23564207Y27533969D01*
X23549000Y27688371D01*
X23549000Y28791631D01*
X23564207Y28946030D01*
X23624305Y29144147D01*
X23699184Y29284235D01*
X23721898Y29326729D01*
X23853236Y29486765D01*
X24013272Y29618103D01*
X24099026Y29663939D01*
X24195852Y29715694D01*
X24195855Y29715695D01*
X24393969Y29775793D01*
X24600000Y29796085D01*
X24806032Y29775793D01*
G37*
G36*
X45126032Y29775793D02*
G01*
X45324146Y29715695D01*
X45324149Y29715694D01*
X45420975Y29663939D01*
X45506729Y29618103D01*
X45666765Y29486765D01*
X45798103Y29326729D01*
X45843939Y29240975D01*
X45895694Y29144149D01*
X45895695Y29144146D01*
X45955793Y28946032D01*
X45971000Y28791630D01*
X45971000Y27688370D01*
X45955793Y27533968D01*
X45895695Y27335855D01*
X45895694Y27335851D01*
X45880470Y27307369D01*
X45798103Y27153271D01*
X45666765Y26993235D01*
X45506729Y26861897D01*
X45390030Y26799521D01*
X45324148Y26764306D01*
X45324145Y26764305D01*
X45126031Y26704207D01*
X44920000Y26683915D01*
X44713968Y26704207D01*
X44515854Y26764305D01*
X44515851Y26764306D01*
X44419025Y26816061D01*
X44333271Y26861897D01*
X44173235Y26993235D01*
X44041897Y27153271D01*
X43959530Y27307370D01*
X43944306Y27335852D01*
X43944305Y27335855D01*
X43884207Y27533969D01*
X43869000Y27688371D01*
X43869000Y28791631D01*
X43884207Y28946030D01*
X43944305Y29144147D01*
X44019184Y29284234D01*
X44041898Y29326729D01*
X44173236Y29486765D01*
X44333272Y29618103D01*
X44419026Y29663939D01*
X44515852Y29715694D01*
X44515855Y29715695D01*
X44713969Y29775793D01*
X44920000Y29796085D01*
X45126032Y29775793D01*
G37*
G36*
X42586032Y29775793D02*
G01*
X42784146Y29715695D01*
X42784149Y29715694D01*
X42880975Y29663939D01*
X42966729Y29618103D01*
X43126765Y29486765D01*
X43258103Y29326729D01*
X43303939Y29240975D01*
X43355694Y29144149D01*
X43355695Y29144146D01*
X43415793Y28946032D01*
X43431000Y28791630D01*
X43431000Y27688370D01*
X43415793Y27533968D01*
X43355695Y27335855D01*
X43355694Y27335851D01*
X43340470Y27307369D01*
X43258103Y27153271D01*
X43126765Y26993235D01*
X42966729Y26861897D01*
X42850030Y26799521D01*
X42784148Y26764306D01*
X42784145Y26764305D01*
X42586031Y26704207D01*
X42380000Y26683915D01*
X42173968Y26704207D01*
X41975854Y26764305D01*
X41975851Y26764306D01*
X41879025Y26816061D01*
X41793271Y26861897D01*
X41633235Y26993235D01*
X41501897Y27153271D01*
X41419530Y27307370D01*
X41404306Y27335852D01*
X41404305Y27335855D01*
X41344207Y27533969D01*
X41329000Y27688371D01*
X41329000Y28791631D01*
X41344207Y28946030D01*
X41404305Y29144147D01*
X41479184Y29284234D01*
X41501898Y29326729D01*
X41633236Y29486765D01*
X41793272Y29618103D01*
X41879026Y29663939D01*
X41975852Y29715694D01*
X41975855Y29715695D01*
X42173969Y29775793D01*
X42380000Y29796085D01*
X42586032Y29775793D01*
G37*
G36*
X40046032Y29775793D02*
G01*
X40244146Y29715695D01*
X40244149Y29715694D01*
X40340975Y29663939D01*
X40426729Y29618103D01*
X40586765Y29486765D01*
X40718103Y29326729D01*
X40763939Y29240975D01*
X40815694Y29144149D01*
X40815695Y29144146D01*
X40875793Y28946032D01*
X40891000Y28791630D01*
X40891000Y27688370D01*
X40875793Y27533968D01*
X40815695Y27335855D01*
X40815694Y27335851D01*
X40800470Y27307369D01*
X40718103Y27153271D01*
X40586765Y26993235D01*
X40426729Y26861897D01*
X40310030Y26799521D01*
X40244148Y26764306D01*
X40244145Y26764305D01*
X40046031Y26704207D01*
X39840000Y26683915D01*
X39633968Y26704207D01*
X39435854Y26764305D01*
X39435851Y26764306D01*
X39339025Y26816061D01*
X39253271Y26861897D01*
X39093235Y26993235D01*
X38961897Y27153271D01*
X38879530Y27307370D01*
X38864306Y27335852D01*
X38864305Y27335855D01*
X38804207Y27533969D01*
X38789000Y27688371D01*
X38789000Y28791631D01*
X38804207Y28946030D01*
X38864305Y29144147D01*
X38939184Y29284234D01*
X38961898Y29326729D01*
X39093236Y29486765D01*
X39253272Y29618103D01*
X39339026Y29663939D01*
X39435852Y29715694D01*
X39435855Y29715695D01*
X39633969Y29775793D01*
X39840000Y29796085D01*
X40046032Y29775793D01*
G37*
G36*
X37506032Y29775793D02*
G01*
X37704146Y29715695D01*
X37704149Y29715694D01*
X37800975Y29663939D01*
X37886729Y29618103D01*
X38046765Y29486765D01*
X38178103Y29326729D01*
X38223939Y29240975D01*
X38275694Y29144149D01*
X38275695Y29144146D01*
X38335793Y28946032D01*
X38351000Y28791630D01*
X38351000Y27688370D01*
X38335793Y27533968D01*
X38275695Y27335855D01*
X38275694Y27335851D01*
X38260470Y27307369D01*
X38178103Y27153271D01*
X38046765Y26993235D01*
X37886729Y26861897D01*
X37770030Y26799521D01*
X37704148Y26764306D01*
X37704145Y26764305D01*
X37506031Y26704207D01*
X37300000Y26683915D01*
X37093968Y26704207D01*
X36895854Y26764305D01*
X36895851Y26764306D01*
X36799025Y26816061D01*
X36713271Y26861897D01*
X36553235Y26993235D01*
X36421897Y27153271D01*
X36339530Y27307370D01*
X36324306Y27335852D01*
X36324305Y27335855D01*
X36264207Y27533969D01*
X36249000Y27688371D01*
X36249000Y28791631D01*
X36264207Y28946030D01*
X36324305Y29144147D01*
X36399184Y29284234D01*
X36421898Y29326729D01*
X36553236Y29486765D01*
X36713272Y29618103D01*
X36799026Y29663939D01*
X36895852Y29715694D01*
X36895855Y29715695D01*
X37093969Y29775793D01*
X37300000Y29796085D01*
X37506032Y29775793D01*
G37*
G36*
X34966032Y29775793D02*
G01*
X35164146Y29715695D01*
X35164149Y29715694D01*
X35260975Y29663939D01*
X35346729Y29618103D01*
X35506765Y29486765D01*
X35638103Y29326729D01*
X35683939Y29240975D01*
X35735694Y29144149D01*
X35735695Y29144146D01*
X35795793Y28946032D01*
X35811000Y28791630D01*
X35811000Y27688370D01*
X35795793Y27533968D01*
X35735695Y27335855D01*
X35735694Y27335851D01*
X35720470Y27307369D01*
X35638103Y27153271D01*
X35506765Y26993235D01*
X35346729Y26861897D01*
X35230030Y26799521D01*
X35164148Y26764306D01*
X35164145Y26764305D01*
X34966031Y26704207D01*
X34760000Y26683915D01*
X34553968Y26704207D01*
X34355854Y26764305D01*
X34355851Y26764306D01*
X34259025Y26816061D01*
X34173271Y26861897D01*
X34013235Y26993235D01*
X33881897Y27153271D01*
X33799530Y27307370D01*
X33784306Y27335852D01*
X33784305Y27335855D01*
X33724207Y27533969D01*
X33709000Y27688371D01*
X33709000Y28791631D01*
X33724207Y28946030D01*
X33784305Y29144147D01*
X33859184Y29284234D01*
X33881898Y29326729D01*
X34013236Y29486765D01*
X34173272Y29618103D01*
X34259026Y29663939D01*
X34355852Y29715694D01*
X34355855Y29715695D01*
X34553969Y29775793D01*
X34760000Y29796085D01*
X34966032Y29775793D01*
G37*
G36*
X19726032Y29775793D02*
G01*
X19924146Y29715695D01*
X19924149Y29715694D01*
X20020975Y29663939D01*
X20106729Y29618103D01*
X20266765Y29486765D01*
X20398103Y29326729D01*
X20443939Y29240975D01*
X20495694Y29144149D01*
X20495695Y29144146D01*
X20555793Y28946032D01*
X20571000Y28791630D01*
X20571000Y27688370D01*
X20555793Y27533968D01*
X20495695Y27335855D01*
X20495694Y27335851D01*
X20480470Y27307369D01*
X20398103Y27153271D01*
X20266765Y26993235D01*
X20106729Y26861897D01*
X19990030Y26799521D01*
X19924148Y26764306D01*
X19924145Y26764305D01*
X19726031Y26704207D01*
X19520000Y26683915D01*
X19313968Y26704207D01*
X19115854Y26764305D01*
X19115851Y26764306D01*
X19019025Y26816061D01*
X18933271Y26861897D01*
X18773235Y26993235D01*
X18641897Y27153271D01*
X18559530Y27307370D01*
X18544306Y27335852D01*
X18544305Y27335855D01*
X18484207Y27533969D01*
X18469000Y27688371D01*
X18469000Y28791631D01*
X18484207Y28946030D01*
X18544305Y29144147D01*
X18619184Y29284235D01*
X18641898Y29326729D01*
X18773236Y29486765D01*
X18933272Y29618103D01*
X19019026Y29663939D01*
X19115852Y29715694D01*
X19115855Y29715695D01*
X19313969Y29775793D01*
X19520000Y29796085D01*
X19726032Y29775793D01*
G37*
G36*
X32426032Y29775793D02*
G01*
X32624146Y29715695D01*
X32624149Y29715694D01*
X32720975Y29663939D01*
X32806729Y29618103D01*
X32966765Y29486765D01*
X33098103Y29326729D01*
X33143939Y29240975D01*
X33195694Y29144149D01*
X33195695Y29144146D01*
X33255793Y28946032D01*
X33271000Y28791630D01*
X33271000Y27688370D01*
X33255793Y27533968D01*
X33195695Y27335855D01*
X33195694Y27335851D01*
X33180470Y27307369D01*
X33098103Y27153271D01*
X32966765Y26993235D01*
X32806729Y26861897D01*
X32690030Y26799521D01*
X32624148Y26764306D01*
X32624145Y26764305D01*
X32426031Y26704207D01*
X32220000Y26683915D01*
X32013968Y26704207D01*
X31815854Y26764305D01*
X31815851Y26764306D01*
X31719025Y26816061D01*
X31633271Y26861897D01*
X31473235Y26993235D01*
X31341897Y27153271D01*
X31259530Y27307370D01*
X31244306Y27335852D01*
X31244305Y27335855D01*
X31184207Y27533969D01*
X31169000Y27688371D01*
X31169000Y28791631D01*
X31184207Y28946030D01*
X31244305Y29144147D01*
X31319184Y29284235D01*
X31341898Y29326729D01*
X31473236Y29486765D01*
X31633272Y29618103D01*
X31719026Y29663939D01*
X31815852Y29715694D01*
X31815855Y29715695D01*
X32013969Y29775793D01*
X32220000Y29796085D01*
X32426032Y29775793D01*
G37*
G36*
X17186032Y29775793D02*
G01*
X17384146Y29715695D01*
X17384149Y29715694D01*
X17480975Y29663939D01*
X17566729Y29618103D01*
X17726765Y29486765D01*
X17858103Y29326729D01*
X17903939Y29240975D01*
X17955694Y29144149D01*
X17955695Y29144146D01*
X18015793Y28946032D01*
X18031000Y28791630D01*
X18031000Y27688370D01*
X18015793Y27533968D01*
X17955695Y27335855D01*
X17955694Y27335851D01*
X17940470Y27307369D01*
X17858103Y27153271D01*
X17726765Y26993235D01*
X17566729Y26861897D01*
X17450030Y26799521D01*
X17384148Y26764306D01*
X17384145Y26764305D01*
X17186031Y26704207D01*
X16980000Y26683915D01*
X16773968Y26704207D01*
X16575854Y26764305D01*
X16575851Y26764306D01*
X16479025Y26816061D01*
X16393271Y26861897D01*
X16233235Y26993235D01*
X16101897Y27153271D01*
X16019530Y27307370D01*
X16004306Y27335852D01*
X16004305Y27335855D01*
X15944207Y27533969D01*
X15929000Y27688371D01*
X15929000Y28791631D01*
X15944207Y28946030D01*
X16004305Y29144147D01*
X16079184Y29284235D01*
X16101898Y29326729D01*
X16233236Y29486765D01*
X16393272Y29618103D01*
X16479026Y29663939D01*
X16575852Y29715694D01*
X16575855Y29715695D01*
X16773969Y29775793D01*
X16980000Y29796085D01*
X17186032Y29775793D01*
G37*
G36*
X14646032Y29775793D02*
G01*
X14844146Y29715695D01*
X14844149Y29715694D01*
X14940975Y29663939D01*
X15026729Y29618103D01*
X15186765Y29486765D01*
X15318103Y29326729D01*
X15363939Y29240975D01*
X15415694Y29144149D01*
X15415695Y29144146D01*
X15475793Y28946032D01*
X15491000Y28791630D01*
X15491000Y27688370D01*
X15475793Y27533968D01*
X15415695Y27335855D01*
X15415694Y27335851D01*
X15400470Y27307369D01*
X15318103Y27153271D01*
X15186765Y26993235D01*
X15026729Y26861897D01*
X14910030Y26799521D01*
X14844148Y26764306D01*
X14844145Y26764305D01*
X14646031Y26704207D01*
X14440000Y26683915D01*
X14233968Y26704207D01*
X14035854Y26764305D01*
X14035851Y26764306D01*
X13939025Y26816061D01*
X13853271Y26861897D01*
X13693235Y26993235D01*
X13561897Y27153271D01*
X13479530Y27307370D01*
X13464306Y27335852D01*
X13464305Y27335855D01*
X13404207Y27533969D01*
X13389000Y27688371D01*
X13389000Y28791631D01*
X13404207Y28946030D01*
X13464305Y29144147D01*
X13539184Y29284235D01*
X13561898Y29326729D01*
X13693236Y29486765D01*
X13853272Y29618103D01*
X13939026Y29663939D01*
X14035852Y29715694D01*
X14035855Y29715695D01*
X14233969Y29775793D01*
X14440000Y29796085D01*
X14646032Y29775793D01*
G37*
G36*
X29886032Y29775793D02*
G01*
X30084146Y29715695D01*
X30084149Y29715694D01*
X30180975Y29663939D01*
X30266729Y29618103D01*
X30426765Y29486765D01*
X30558103Y29326729D01*
X30603939Y29240975D01*
X30655694Y29144149D01*
X30655695Y29144146D01*
X30715793Y28946032D01*
X30731000Y28791630D01*
X30731000Y27688370D01*
X30715793Y27533968D01*
X30655695Y27335855D01*
X30655694Y27335851D01*
X30640470Y27307369D01*
X30558103Y27153271D01*
X30426765Y26993235D01*
X30266729Y26861897D01*
X30150030Y26799521D01*
X30084148Y26764306D01*
X30084145Y26764305D01*
X29886031Y26704207D01*
X29680000Y26683915D01*
X29473968Y26704207D01*
X29275854Y26764305D01*
X29275851Y26764306D01*
X29179025Y26816061D01*
X29093271Y26861897D01*
X28933235Y26993235D01*
X28801897Y27153271D01*
X28719530Y27307370D01*
X28704306Y27335852D01*
X28704305Y27335855D01*
X28644207Y27533969D01*
X28629000Y27688371D01*
X28629000Y28791631D01*
X28644207Y28946030D01*
X28704305Y29144147D01*
X28779184Y29284235D01*
X28801898Y29326729D01*
X28933236Y29486765D01*
X29093272Y29618103D01*
X29179026Y29663939D01*
X29275852Y29715694D01*
X29275855Y29715695D01*
X29473969Y29775793D01*
X29680000Y29796085D01*
X29886032Y29775793D01*
G37*
G36*
X27346032Y29775793D02*
G01*
X27544146Y29715695D01*
X27544149Y29715694D01*
X27640975Y29663939D01*
X27726729Y29618103D01*
X27886765Y29486765D01*
X28018103Y29326729D01*
X28063939Y29240975D01*
X28115694Y29144149D01*
X28115695Y29144146D01*
X28175793Y28946032D01*
X28191000Y28791630D01*
X28191000Y27688370D01*
X28175793Y27533968D01*
X28115695Y27335855D01*
X28115694Y27335851D01*
X28100470Y27307369D01*
X28018103Y27153271D01*
X27886765Y26993235D01*
X27726729Y26861897D01*
X27610030Y26799521D01*
X27544148Y26764306D01*
X27544145Y26764305D01*
X27346031Y26704207D01*
X27140000Y26683915D01*
X26933968Y26704207D01*
X26735854Y26764305D01*
X26735851Y26764306D01*
X26639025Y26816061D01*
X26553271Y26861897D01*
X26393235Y26993235D01*
X26261897Y27153271D01*
X26179530Y27307370D01*
X26164306Y27335852D01*
X26164305Y27335855D01*
X26104207Y27533969D01*
X26089000Y27688371D01*
X26089000Y28791631D01*
X26104207Y28946030D01*
X26164305Y29144147D01*
X26239184Y29284235D01*
X26261898Y29326729D01*
X26393236Y29486765D01*
X26553272Y29618103D01*
X26639026Y29663939D01*
X26735852Y29715694D01*
X26735855Y29715695D01*
X26933969Y29775793D01*
X27140000Y29796085D01*
X27346032Y29775793D01*
G37*
G36*
X12106032Y29775793D02*
G01*
X12304146Y29715695D01*
X12304149Y29715694D01*
X12400975Y29663939D01*
X12486729Y29618103D01*
X12646765Y29486765D01*
X12778103Y29326729D01*
X12823939Y29240975D01*
X12875694Y29144149D01*
X12875695Y29144146D01*
X12935793Y28946032D01*
X12951000Y28791630D01*
X12951000Y27688370D01*
X12935793Y27533968D01*
X12875695Y27335855D01*
X12875694Y27335851D01*
X12860470Y27307369D01*
X12778103Y27153271D01*
X12646765Y26993235D01*
X12486729Y26861897D01*
X12370030Y26799521D01*
X12304148Y26764306D01*
X12304145Y26764305D01*
X12106031Y26704207D01*
X11900000Y26683915D01*
X11693968Y26704207D01*
X11495854Y26764305D01*
X11495851Y26764306D01*
X11399025Y26816061D01*
X11313271Y26861897D01*
X11153235Y26993235D01*
X11021897Y27153271D01*
X10939530Y27307370D01*
X10924306Y27335852D01*
X10924305Y27335855D01*
X10864207Y27533969D01*
X10849000Y27688371D01*
X10849000Y28791631D01*
X10864207Y28946030D01*
X10924305Y29144147D01*
X10999184Y29284235D01*
X11021898Y29326729D01*
X11153236Y29486765D01*
X11313272Y29618103D01*
X11399026Y29663939D01*
X11495852Y29715694D01*
X11495855Y29715695D01*
X11693969Y29775793D01*
X11900000Y29796085D01*
X12106032Y29775793D01*
G37*
G36*
X9566032Y29775793D02*
G01*
X9764146Y29715695D01*
X9764149Y29715694D01*
X9860975Y29663939D01*
X9946729Y29618103D01*
X10106765Y29486765D01*
X10238103Y29326729D01*
X10283939Y29240975D01*
X10335694Y29144149D01*
X10335695Y29144146D01*
X10395793Y28946032D01*
X10411000Y28791630D01*
X10411000Y27688370D01*
X10395793Y27533968D01*
X10335695Y27335855D01*
X10335694Y27335851D01*
X10320470Y27307369D01*
X10238103Y27153271D01*
X10106765Y26993235D01*
X9946729Y26861897D01*
X9830030Y26799521D01*
X9764148Y26764306D01*
X9764145Y26764305D01*
X9566031Y26704207D01*
X9360000Y26683915D01*
X9153968Y26704207D01*
X8955854Y26764305D01*
X8955851Y26764306D01*
X8859025Y26816061D01*
X8773271Y26861897D01*
X8613235Y26993235D01*
X8481897Y27153271D01*
X8399530Y27307370D01*
X8384306Y27335852D01*
X8384305Y27335855D01*
X8324207Y27533969D01*
X8309000Y27688371D01*
X8309000Y28791631D01*
X8324207Y28946030D01*
X8384305Y29144147D01*
X8459184Y29284235D01*
X8481898Y29326729D01*
X8613236Y29486765D01*
X8773272Y29618103D01*
X8859026Y29663939D01*
X8955852Y29715694D01*
X8955855Y29715695D01*
X9153969Y29775793D01*
X9360000Y29796085D01*
X9566032Y29775793D01*
G37*
G36*
X7026032Y29775793D02*
G01*
X7224146Y29715695D01*
X7224149Y29715694D01*
X7320975Y29663939D01*
X7406729Y29618103D01*
X7566765Y29486765D01*
X7698103Y29326729D01*
X7743939Y29240975D01*
X7795694Y29144149D01*
X7795695Y29144146D01*
X7855793Y28946032D01*
X7871000Y28791630D01*
X7871000Y27688370D01*
X7855793Y27533968D01*
X7795695Y27335855D01*
X7795694Y27335851D01*
X7780470Y27307369D01*
X7698103Y27153271D01*
X7566765Y26993235D01*
X7406729Y26861897D01*
X7290030Y26799521D01*
X7224148Y26764306D01*
X7224145Y26764305D01*
X7026031Y26704207D01*
X6820000Y26683915D01*
X6613968Y26704207D01*
X6415854Y26764305D01*
X6415851Y26764306D01*
X6319025Y26816061D01*
X6233271Y26861897D01*
X6073235Y26993235D01*
X5941897Y27153271D01*
X5859530Y27307370D01*
X5844306Y27335852D01*
X5844305Y27335855D01*
X5784207Y27533969D01*
X5769000Y27688371D01*
X5769000Y28791631D01*
X5784207Y28946030D01*
X5844305Y29144147D01*
X5919184Y29284235D01*
X5941898Y29326729D01*
X6073236Y29486765D01*
X6233272Y29618103D01*
X6319026Y29663939D01*
X6415852Y29715694D01*
X6415855Y29715695D01*
X6613969Y29775793D01*
X6820000Y29796085D01*
X7026032Y29775793D01*
G37*
G36*
X4486032Y29775793D02*
G01*
X4684146Y29715695D01*
X4684149Y29715694D01*
X4780975Y29663939D01*
X4866729Y29618103D01*
X5026765Y29486765D01*
X5158103Y29326729D01*
X5203939Y29240975D01*
X5255694Y29144149D01*
X5255695Y29144146D01*
X5315793Y28946032D01*
X5331000Y28791630D01*
X5331000Y27688370D01*
X5315793Y27533968D01*
X5255695Y27335855D01*
X5255694Y27335851D01*
X5240470Y27307369D01*
X5158103Y27153271D01*
X5026765Y26993235D01*
X4866729Y26861897D01*
X4750030Y26799521D01*
X4684148Y26764306D01*
X4684145Y26764305D01*
X4486031Y26704207D01*
X4280000Y26683915D01*
X4073968Y26704207D01*
X3875854Y26764305D01*
X3875851Y26764306D01*
X3779025Y26816061D01*
X3693271Y26861897D01*
X3533235Y26993235D01*
X3401897Y27153271D01*
X3319530Y27307370D01*
X3304306Y27335852D01*
X3304305Y27335855D01*
X3244207Y27533969D01*
X3229000Y27688371D01*
X3229000Y28791631D01*
X3244207Y28946030D01*
X3304305Y29144147D01*
X3379184Y29284235D01*
X3401898Y29326729D01*
X3533236Y29486765D01*
X3693272Y29618103D01*
X3779026Y29663939D01*
X3875852Y29715694D01*
X3875855Y29715695D01*
X4073969Y29775793D01*
X4280000Y29796085D01*
X4486032Y29775793D01*
G37*
G36*
X51051000Y26689000D02*
G01*
X48949000Y26689000D01*
X48949000Y29791000D01*
X51051000Y29791000D01*
X51051000Y26689000D01*
G37*
G36*
X12510617Y33110891D02*
G01*
X12613552Y33100753D01*
X12811666Y33040655D01*
X12811669Y33040654D01*
X12908495Y32988899D01*
X12994249Y32943063D01*
X13154285Y32811725D01*
X13285623Y32651689D01*
X13331459Y32565935D01*
X13383214Y32469109D01*
X13383215Y32469106D01*
X13443313Y32270992D01*
X13463605Y32064960D01*
X13443313Y31858928D01*
X13383215Y31660814D01*
X13383214Y31660811D01*
X13331459Y31563985D01*
X13285623Y31478231D01*
X13154285Y31318195D01*
X12994249Y31186857D01*
X12908495Y31141021D01*
X12811669Y31089266D01*
X12811666Y31089265D01*
X12613552Y31029167D01*
X12510617Y31019029D01*
X12459151Y31013960D01*
X11355889Y31013960D01*
X11304423Y31019029D01*
X11201488Y31029167D01*
X11003374Y31089265D01*
X11003371Y31089266D01*
X10906545Y31141021D01*
X10820791Y31186857D01*
X10660755Y31318195D01*
X10529417Y31478231D01*
X10483581Y31563985D01*
X10431826Y31660811D01*
X10431825Y31660814D01*
X10371727Y31858928D01*
X10351435Y32064960D01*
X10371727Y32270992D01*
X10431825Y32469106D01*
X10431826Y32469109D01*
X10483581Y32565935D01*
X10529417Y32651689D01*
X10660755Y32811725D01*
X10820791Y32943063D01*
X10906545Y32988899D01*
X11003371Y33040654D01*
X11003374Y33040655D01*
X11201488Y33100753D01*
X11304423Y33110891D01*
X11355889Y33115960D01*
X12459151Y33115960D01*
X12510617Y33110891D01*
G37*
G36*
X12510617Y35650891D02*
G01*
X12613552Y35640753D01*
X12811666Y35580655D01*
X12811669Y35580654D01*
X12908495Y35528899D01*
X12994249Y35483063D01*
X13154285Y35351725D01*
X13285623Y35191689D01*
X13331459Y35105935D01*
X13383214Y35009109D01*
X13383215Y35009106D01*
X13443313Y34810992D01*
X13463605Y34604960D01*
X13443313Y34398928D01*
X13383215Y34200814D01*
X13383214Y34200811D01*
X13331459Y34103985D01*
X13285623Y34018231D01*
X13154285Y33858195D01*
X12994249Y33726857D01*
X12908495Y33681021D01*
X12811669Y33629266D01*
X12811666Y33629265D01*
X12613552Y33569167D01*
X12510617Y33559029D01*
X12459151Y33553960D01*
X11355889Y33553960D01*
X11304423Y33559029D01*
X11201488Y33569167D01*
X11003374Y33629265D01*
X11003371Y33629266D01*
X10906545Y33681021D01*
X10820791Y33726857D01*
X10660755Y33858195D01*
X10529417Y34018231D01*
X10483581Y34103985D01*
X10431826Y34200811D01*
X10431825Y34200814D01*
X10371727Y34398928D01*
X10351435Y34604960D01*
X10371727Y34810992D01*
X10431825Y35009106D01*
X10431826Y35009109D01*
X10483581Y35105935D01*
X10529417Y35191689D01*
X10660755Y35351725D01*
X10820791Y35483063D01*
X10906545Y35528899D01*
X11003371Y35580654D01*
X11003374Y35580655D01*
X11201488Y35640753D01*
X11304423Y35650891D01*
X11355889Y35655960D01*
X12459151Y35655960D01*
X12510617Y35650891D01*
G37*
G36*
X12510617Y38190891D02*
G01*
X12613552Y38180753D01*
X12811666Y38120655D01*
X12811669Y38120654D01*
X12908495Y38068899D01*
X12994249Y38023063D01*
X13154285Y37891725D01*
X13285623Y37731689D01*
X13331459Y37645935D01*
X13383214Y37549109D01*
X13383215Y37549106D01*
X13443313Y37350992D01*
X13463605Y37144960D01*
X13443313Y36938928D01*
X13383215Y36740814D01*
X13383214Y36740811D01*
X13331459Y36643985D01*
X13285623Y36558231D01*
X13154285Y36398195D01*
X12994249Y36266857D01*
X12908495Y36221021D01*
X12811669Y36169266D01*
X12811666Y36169265D01*
X12613552Y36109167D01*
X12510617Y36099029D01*
X12459151Y36093960D01*
X11355889Y36093960D01*
X11304423Y36099029D01*
X11201488Y36109167D01*
X11003374Y36169265D01*
X11003371Y36169266D01*
X10906545Y36221021D01*
X10820791Y36266857D01*
X10660755Y36398195D01*
X10529417Y36558231D01*
X10483581Y36643985D01*
X10431826Y36740811D01*
X10431825Y36740814D01*
X10371727Y36938928D01*
X10351435Y37144960D01*
X10371727Y37350992D01*
X10431825Y37549106D01*
X10431826Y37549109D01*
X10483581Y37645935D01*
X10529417Y37731689D01*
X10660755Y37891725D01*
X10820791Y38023063D01*
X10906545Y38068899D01*
X11003371Y38120654D01*
X11003374Y38120655D01*
X11201488Y38180753D01*
X11304423Y38190891D01*
X11355889Y38195960D01*
X12459151Y38195960D01*
X12510617Y38190891D01*
G37*
G36*
X12510617Y40730891D02*
G01*
X12613552Y40720753D01*
X12811666Y40660655D01*
X12811669Y40660654D01*
X12908495Y40608899D01*
X12994249Y40563063D01*
X13154285Y40431725D01*
X13285623Y40271689D01*
X13331459Y40185935D01*
X13383214Y40089109D01*
X13383215Y40089106D01*
X13443313Y39890992D01*
X13463605Y39684960D01*
X13443313Y39478928D01*
X13383215Y39280814D01*
X13383214Y39280811D01*
X13331459Y39183985D01*
X13285623Y39098231D01*
X13154285Y38938195D01*
X12994249Y38806857D01*
X12908495Y38761021D01*
X12811669Y38709266D01*
X12811666Y38709265D01*
X12613552Y38649167D01*
X12510617Y38639029D01*
X12459151Y38633960D01*
X11355889Y38633960D01*
X11304423Y38639029D01*
X11201488Y38649167D01*
X11003374Y38709265D01*
X11003371Y38709266D01*
X10906545Y38761021D01*
X10820791Y38806857D01*
X10660755Y38938195D01*
X10529417Y39098231D01*
X10483581Y39183985D01*
X10431826Y39280811D01*
X10431825Y39280814D01*
X10371727Y39478928D01*
X10351435Y39684960D01*
X10371727Y39890992D01*
X10431825Y40089106D01*
X10431826Y40089109D01*
X10483581Y40185935D01*
X10529417Y40271689D01*
X10660755Y40431725D01*
X10820791Y40563063D01*
X10906545Y40608899D01*
X11003371Y40660654D01*
X11003374Y40660655D01*
X11201488Y40720753D01*
X11304423Y40730891D01*
X11355889Y40735960D01*
X12459151Y40735960D01*
X12510617Y40730891D01*
G37*
G36*
X12510617Y43270891D02*
G01*
X12613552Y43260753D01*
X12811666Y43200655D01*
X12811669Y43200654D01*
X12908495Y43148899D01*
X12994249Y43103063D01*
X13154285Y42971725D01*
X13285623Y42811689D01*
X13331459Y42725935D01*
X13383214Y42629109D01*
X13383215Y42629106D01*
X13443313Y42430992D01*
X13463605Y42224960D01*
X13443313Y42018928D01*
X13383215Y41820814D01*
X13383214Y41820811D01*
X13331459Y41723985D01*
X13285623Y41638231D01*
X13154285Y41478195D01*
X12994249Y41346857D01*
X12908495Y41301021D01*
X12811669Y41249266D01*
X12811666Y41249265D01*
X12613552Y41189167D01*
X12510617Y41179029D01*
X12459151Y41173960D01*
X11355889Y41173960D01*
X11304423Y41179029D01*
X11201488Y41189167D01*
X11003374Y41249265D01*
X11003371Y41249266D01*
X10906545Y41301021D01*
X10820791Y41346857D01*
X10660755Y41478195D01*
X10529417Y41638231D01*
X10483581Y41723985D01*
X10431826Y41820811D01*
X10431825Y41820814D01*
X10371727Y42018928D01*
X10351435Y42224960D01*
X10371727Y42430992D01*
X10431825Y42629106D01*
X10431826Y42629109D01*
X10483581Y42725935D01*
X10529417Y42811689D01*
X10660755Y42971725D01*
X10820791Y43103063D01*
X10906545Y43148899D01*
X11003371Y43200654D01*
X11003374Y43200655D01*
X11201488Y43260753D01*
X11304423Y43270891D01*
X11355889Y43275960D01*
X12459151Y43275960D01*
X12510617Y43270891D01*
G37*
G36*
X12510617Y45810891D02*
G01*
X12613552Y45800753D01*
X12811666Y45740655D01*
X12811669Y45740654D01*
X12908495Y45688899D01*
X12994249Y45643063D01*
X13154285Y45511725D01*
X13285623Y45351689D01*
X13331459Y45265935D01*
X13383214Y45169109D01*
X13383215Y45169106D01*
X13443313Y44970992D01*
X13463605Y44764960D01*
X13443313Y44558928D01*
X13383215Y44360814D01*
X13383214Y44360811D01*
X13331459Y44263985D01*
X13285623Y44178231D01*
X13154285Y44018195D01*
X12994249Y43886857D01*
X12908495Y43841021D01*
X12811669Y43789266D01*
X12811666Y43789265D01*
X12613552Y43729167D01*
X12510617Y43719029D01*
X12459151Y43713960D01*
X11355889Y43713960D01*
X11304423Y43719029D01*
X11201488Y43729167D01*
X11003374Y43789265D01*
X11003371Y43789266D01*
X10906545Y43841021D01*
X10820791Y43886857D01*
X10660755Y44018195D01*
X10529417Y44178231D01*
X10483581Y44263985D01*
X10431826Y44360811D01*
X10431825Y44360814D01*
X10371727Y44558928D01*
X10351435Y44764960D01*
X10371727Y44970992D01*
X10431825Y45169106D01*
X10431826Y45169109D01*
X10483581Y45265935D01*
X10529417Y45351689D01*
X10660755Y45511725D01*
X10820791Y45643063D01*
X10906545Y45688899D01*
X11003371Y45740654D01*
X11003374Y45740655D01*
X11201488Y45800753D01*
X11304423Y45810891D01*
X11355889Y45815960D01*
X12459151Y45815960D01*
X12510617Y45810891D01*
G37*
G36*
X12510617Y48350891D02*
G01*
X12613552Y48340753D01*
X12811666Y48280655D01*
X12811669Y48280654D01*
X12908495Y48228899D01*
X12994249Y48183063D01*
X13154285Y48051725D01*
X13285623Y47891689D01*
X13331459Y47805935D01*
X13383214Y47709109D01*
X13383215Y47709106D01*
X13443313Y47510992D01*
X13463605Y47304960D01*
X13443313Y47098928D01*
X13383215Y46900814D01*
X13383214Y46900811D01*
X13331459Y46803985D01*
X13285623Y46718231D01*
X13154285Y46558195D01*
X12994249Y46426857D01*
X12908495Y46381021D01*
X12811669Y46329266D01*
X12811666Y46329265D01*
X12613552Y46269167D01*
X12510617Y46259029D01*
X12459151Y46253960D01*
X11355889Y46253960D01*
X11304423Y46259029D01*
X11201488Y46269167D01*
X11003374Y46329265D01*
X11003371Y46329266D01*
X10906545Y46381021D01*
X10820791Y46426857D01*
X10660755Y46558195D01*
X10529417Y46718231D01*
X10483581Y46803985D01*
X10431826Y46900811D01*
X10431825Y46900814D01*
X10371727Y47098928D01*
X10351435Y47304960D01*
X10371727Y47510992D01*
X10431825Y47709106D01*
X10431826Y47709109D01*
X10483581Y47805935D01*
X10529417Y47891689D01*
X10660755Y48051725D01*
X10820791Y48183063D01*
X10906545Y48228899D01*
X11003371Y48280654D01*
X11003374Y48280655D01*
X11201488Y48340753D01*
X11304423Y48350891D01*
X11355889Y48355960D01*
X12459151Y48355960D01*
X12510617Y48350891D01*
G37*
G36*
X13458520Y48793960D02*
G01*
X10356520Y48793960D01*
X10356520Y50895960D01*
X13458520Y50895960D01*
X13458520Y48793960D01*
G37*
G36*
X32426032Y55175793D02*
G01*
X32624146Y55115695D01*
X32624149Y55115694D01*
X32720975Y55063939D01*
X32806729Y55018103D01*
X32966765Y54886765D01*
X33098103Y54726729D01*
X33143939Y54640975D01*
X33195694Y54544149D01*
X33195695Y54544146D01*
X33255793Y54346032D01*
X33271000Y54191630D01*
X33271000Y53088370D01*
X33255793Y52933968D01*
X33195695Y52735855D01*
X33195694Y52735851D01*
X33143939Y52639025D01*
X33098103Y52553271D01*
X32966765Y52393235D01*
X32806729Y52261897D01*
X32690030Y52199521D01*
X32624148Y52164306D01*
X32624145Y52164305D01*
X32426031Y52104207D01*
X32220000Y52083915D01*
X32013968Y52104207D01*
X31815854Y52164305D01*
X31815851Y52164306D01*
X31719025Y52216061D01*
X31633271Y52261897D01*
X31473235Y52393235D01*
X31341897Y52553271D01*
X31244307Y52735851D01*
X31244306Y52735852D01*
X31244305Y52735855D01*
X31184207Y52933969D01*
X31169000Y53088371D01*
X31169000Y54191631D01*
X31184207Y54346030D01*
X31244305Y54544147D01*
X31319184Y54684234D01*
X31341898Y54726729D01*
X31473236Y54886765D01*
X31633272Y55018103D01*
X31719026Y55063939D01*
X31815852Y55115694D01*
X31815855Y55115695D01*
X32013969Y55175793D01*
X32220000Y55196085D01*
X32426032Y55175793D01*
G37*
G36*
X22266032Y55175793D02*
G01*
X22464146Y55115695D01*
X22464149Y55115694D01*
X22560975Y55063939D01*
X22646729Y55018103D01*
X22806765Y54886765D01*
X22938103Y54726729D01*
X22983939Y54640975D01*
X23035694Y54544149D01*
X23035695Y54544146D01*
X23095793Y54346032D01*
X23111000Y54191630D01*
X23111000Y53088370D01*
X23095793Y52933968D01*
X23035695Y52735855D01*
X23035694Y52735851D01*
X22983939Y52639025D01*
X22938103Y52553271D01*
X22806765Y52393235D01*
X22646729Y52261897D01*
X22530030Y52199521D01*
X22464148Y52164306D01*
X22464145Y52164305D01*
X22266031Y52104207D01*
X22060000Y52083915D01*
X21853968Y52104207D01*
X21655854Y52164305D01*
X21655851Y52164306D01*
X21559025Y52216061D01*
X21473271Y52261897D01*
X21313235Y52393235D01*
X21181897Y52553271D01*
X21084307Y52735851D01*
X21084306Y52735852D01*
X21084305Y52735855D01*
X21024207Y52933969D01*
X21009000Y53088371D01*
X21009000Y54191631D01*
X21024207Y54346030D01*
X21084305Y54544147D01*
X21159184Y54684234D01*
X21181898Y54726729D01*
X21313236Y54886765D01*
X21473272Y55018103D01*
X21559026Y55063939D01*
X21655852Y55115694D01*
X21655855Y55115695D01*
X21853969Y55175793D01*
X22060000Y55196085D01*
X22266032Y55175793D01*
G37*
G36*
X47666032Y55175793D02*
G01*
X47864146Y55115695D01*
X47864149Y55115694D01*
X47960975Y55063939D01*
X48046729Y55018103D01*
X48206765Y54886765D01*
X48338103Y54726729D01*
X48383939Y54640975D01*
X48435694Y54544149D01*
X48435695Y54544146D01*
X48495793Y54346032D01*
X48511000Y54191630D01*
X48511000Y53088370D01*
X48495793Y52933968D01*
X48435695Y52735855D01*
X48435694Y52735851D01*
X48383939Y52639025D01*
X48338103Y52553271D01*
X48206765Y52393235D01*
X48046729Y52261897D01*
X47930030Y52199521D01*
X47864148Y52164306D01*
X47864145Y52164305D01*
X47666031Y52104207D01*
X47460000Y52083915D01*
X47253968Y52104207D01*
X47055854Y52164305D01*
X47055851Y52164306D01*
X46959025Y52216061D01*
X46873271Y52261897D01*
X46713235Y52393235D01*
X46581897Y52553271D01*
X46484307Y52735851D01*
X46484306Y52735852D01*
X46484305Y52735855D01*
X46424207Y52933969D01*
X46409000Y53088371D01*
X46409000Y54191631D01*
X46424207Y54346030D01*
X46484305Y54544147D01*
X46559184Y54684234D01*
X46581898Y54726729D01*
X46713236Y54886765D01*
X46873272Y55018103D01*
X46959026Y55063939D01*
X47055852Y55115694D01*
X47055855Y55115695D01*
X47253969Y55175793D01*
X47460000Y55196085D01*
X47666032Y55175793D01*
G37*
G36*
X45126032Y55175793D02*
G01*
X45324146Y55115695D01*
X45324149Y55115694D01*
X45420975Y55063939D01*
X45506729Y55018103D01*
X45666765Y54886765D01*
X45798103Y54726729D01*
X45843939Y54640975D01*
X45895694Y54544149D01*
X45895695Y54544146D01*
X45955793Y54346032D01*
X45971000Y54191630D01*
X45971000Y53088370D01*
X45955793Y52933968D01*
X45895695Y52735855D01*
X45895694Y52735851D01*
X45843939Y52639025D01*
X45798103Y52553271D01*
X45666765Y52393235D01*
X45506729Y52261897D01*
X45390030Y52199521D01*
X45324148Y52164306D01*
X45324145Y52164305D01*
X45126031Y52104207D01*
X44920000Y52083915D01*
X44713968Y52104207D01*
X44515854Y52164305D01*
X44515851Y52164306D01*
X44419025Y52216061D01*
X44333271Y52261897D01*
X44173235Y52393235D01*
X44041897Y52553271D01*
X43944307Y52735851D01*
X43944306Y52735852D01*
X43944305Y52735855D01*
X43884207Y52933969D01*
X43869000Y53088371D01*
X43869000Y54191631D01*
X43884207Y54346030D01*
X43944305Y54544147D01*
X44019184Y54684234D01*
X44041898Y54726729D01*
X44173236Y54886765D01*
X44333272Y55018103D01*
X44419026Y55063939D01*
X44515852Y55115694D01*
X44515855Y55115695D01*
X44713969Y55175793D01*
X44920000Y55196085D01*
X45126032Y55175793D01*
G37*
G36*
X4486032Y55175793D02*
G01*
X4684146Y55115695D01*
X4684149Y55115694D01*
X4780975Y55063939D01*
X4866729Y55018103D01*
X5026765Y54886765D01*
X5158103Y54726729D01*
X5203939Y54640975D01*
X5255694Y54544149D01*
X5255695Y54544146D01*
X5315793Y54346032D01*
X5331000Y54191630D01*
X5331000Y53088370D01*
X5315793Y52933968D01*
X5255695Y52735855D01*
X5255694Y52735851D01*
X5203939Y52639025D01*
X5158103Y52553271D01*
X5026765Y52393235D01*
X4866729Y52261897D01*
X4750030Y52199521D01*
X4684148Y52164306D01*
X4684145Y52164305D01*
X4486031Y52104207D01*
X4280000Y52083915D01*
X4073968Y52104207D01*
X3875854Y52164305D01*
X3875851Y52164306D01*
X3779025Y52216061D01*
X3693271Y52261897D01*
X3533235Y52393235D01*
X3401897Y52553271D01*
X3304307Y52735851D01*
X3304306Y52735852D01*
X3304305Y52735855D01*
X3244207Y52933969D01*
X3229000Y53088371D01*
X3229000Y54191631D01*
X3244207Y54346030D01*
X3304305Y54544147D01*
X3379184Y54684234D01*
X3401898Y54726729D01*
X3533236Y54886765D01*
X3693272Y55018103D01*
X3779026Y55063939D01*
X3875852Y55115694D01*
X3875855Y55115695D01*
X4073969Y55175793D01*
X4280000Y55196085D01*
X4486032Y55175793D01*
G37*
G36*
X7026032Y55175793D02*
G01*
X7224146Y55115695D01*
X7224149Y55115694D01*
X7320975Y55063939D01*
X7406729Y55018103D01*
X7566765Y54886765D01*
X7698103Y54726729D01*
X7743939Y54640975D01*
X7795694Y54544149D01*
X7795695Y54544146D01*
X7855793Y54346032D01*
X7871000Y54191630D01*
X7871000Y53088370D01*
X7855793Y52933968D01*
X7795695Y52735855D01*
X7795694Y52735851D01*
X7743939Y52639025D01*
X7698103Y52553271D01*
X7566765Y52393235D01*
X7406729Y52261897D01*
X7290030Y52199521D01*
X7224148Y52164306D01*
X7224145Y52164305D01*
X7026031Y52104207D01*
X6820000Y52083915D01*
X6613968Y52104207D01*
X6415854Y52164305D01*
X6415851Y52164306D01*
X6319025Y52216061D01*
X6233271Y52261897D01*
X6073235Y52393235D01*
X5941897Y52553271D01*
X5844307Y52735851D01*
X5844306Y52735852D01*
X5844305Y52735855D01*
X5784207Y52933969D01*
X5769000Y53088371D01*
X5769000Y54191631D01*
X5784207Y54346030D01*
X5844305Y54544147D01*
X5919184Y54684234D01*
X5941898Y54726729D01*
X6073236Y54886765D01*
X6233272Y55018103D01*
X6319026Y55063939D01*
X6415852Y55115694D01*
X6415855Y55115695D01*
X6613969Y55175793D01*
X6820000Y55196085D01*
X7026032Y55175793D01*
G37*
G36*
X9566032Y55175793D02*
G01*
X9764146Y55115695D01*
X9764149Y55115694D01*
X9860975Y55063939D01*
X9946729Y55018103D01*
X10106765Y54886765D01*
X10238103Y54726729D01*
X10283939Y54640975D01*
X10335694Y54544149D01*
X10335695Y54544146D01*
X10395793Y54346032D01*
X10411000Y54191630D01*
X10411000Y53088370D01*
X10395793Y52933968D01*
X10335695Y52735855D01*
X10335694Y52735851D01*
X10283939Y52639025D01*
X10238103Y52553271D01*
X10106765Y52393235D01*
X9946729Y52261897D01*
X9830030Y52199521D01*
X9764148Y52164306D01*
X9764145Y52164305D01*
X9566031Y52104207D01*
X9360000Y52083915D01*
X9153968Y52104207D01*
X8955854Y52164305D01*
X8955851Y52164306D01*
X8859025Y52216061D01*
X8773271Y52261897D01*
X8613235Y52393235D01*
X8481897Y52553271D01*
X8384307Y52735851D01*
X8384306Y52735852D01*
X8384305Y52735855D01*
X8324207Y52933969D01*
X8309000Y53088371D01*
X8309000Y54191631D01*
X8324207Y54346030D01*
X8384305Y54544147D01*
X8459184Y54684234D01*
X8481898Y54726729D01*
X8613236Y54886765D01*
X8773272Y55018103D01*
X8859026Y55063939D01*
X8955852Y55115694D01*
X8955855Y55115695D01*
X9153969Y55175793D01*
X9360000Y55196085D01*
X9566032Y55175793D01*
G37*
G36*
X12106032Y55175793D02*
G01*
X12304146Y55115695D01*
X12304149Y55115694D01*
X12400975Y55063939D01*
X12486729Y55018103D01*
X12646765Y54886765D01*
X12778103Y54726729D01*
X12823939Y54640975D01*
X12875694Y54544149D01*
X12875695Y54544146D01*
X12935793Y54346032D01*
X12951000Y54191630D01*
X12951000Y53088370D01*
X12935793Y52933968D01*
X12875695Y52735855D01*
X12875694Y52735851D01*
X12823939Y52639025D01*
X12778103Y52553271D01*
X12646765Y52393235D01*
X12486729Y52261897D01*
X12370030Y52199521D01*
X12304148Y52164306D01*
X12304145Y52164305D01*
X12106031Y52104207D01*
X11900000Y52083915D01*
X11693968Y52104207D01*
X11495854Y52164305D01*
X11495851Y52164306D01*
X11399025Y52216061D01*
X11313271Y52261897D01*
X11153235Y52393235D01*
X11021897Y52553271D01*
X10924307Y52735851D01*
X10924306Y52735852D01*
X10924305Y52735855D01*
X10864207Y52933969D01*
X10849000Y53088371D01*
X10849000Y54191631D01*
X10864207Y54346030D01*
X10924305Y54544147D01*
X10999184Y54684234D01*
X11021898Y54726729D01*
X11153236Y54886765D01*
X11313272Y55018103D01*
X11399026Y55063939D01*
X11495852Y55115694D01*
X11495855Y55115695D01*
X11693969Y55175793D01*
X11900000Y55196085D01*
X12106032Y55175793D01*
G37*
G36*
X14646032Y55175793D02*
G01*
X14844146Y55115695D01*
X14844149Y55115694D01*
X14940975Y55063939D01*
X15026729Y55018103D01*
X15186765Y54886765D01*
X15318103Y54726729D01*
X15363939Y54640975D01*
X15415694Y54544149D01*
X15415695Y54544146D01*
X15475793Y54346032D01*
X15491000Y54191630D01*
X15491000Y53088370D01*
X15475793Y52933968D01*
X15415695Y52735855D01*
X15415694Y52735851D01*
X15363939Y52639025D01*
X15318103Y52553271D01*
X15186765Y52393235D01*
X15026729Y52261897D01*
X14910030Y52199521D01*
X14844148Y52164306D01*
X14844145Y52164305D01*
X14646031Y52104207D01*
X14440000Y52083915D01*
X14233968Y52104207D01*
X14035854Y52164305D01*
X14035851Y52164306D01*
X13939025Y52216061D01*
X13853271Y52261897D01*
X13693235Y52393235D01*
X13561897Y52553271D01*
X13464307Y52735851D01*
X13464306Y52735852D01*
X13464305Y52735855D01*
X13404207Y52933969D01*
X13389000Y53088371D01*
X13389000Y54191631D01*
X13404207Y54346030D01*
X13464305Y54544147D01*
X13539184Y54684234D01*
X13561898Y54726729D01*
X13693236Y54886765D01*
X13853272Y55018103D01*
X13939026Y55063939D01*
X14035852Y55115694D01*
X14035855Y55115695D01*
X14233969Y55175793D01*
X14440000Y55196085D01*
X14646032Y55175793D01*
G37*
G36*
X17186032Y55175793D02*
G01*
X17384146Y55115695D01*
X17384149Y55115694D01*
X17480975Y55063939D01*
X17566729Y55018103D01*
X17726765Y54886765D01*
X17858103Y54726729D01*
X17903939Y54640975D01*
X17955694Y54544149D01*
X17955695Y54544146D01*
X18015793Y54346032D01*
X18031000Y54191630D01*
X18031000Y53088370D01*
X18015793Y52933968D01*
X17955695Y52735855D01*
X17955694Y52735851D01*
X17903939Y52639025D01*
X17858103Y52553271D01*
X17726765Y52393235D01*
X17566729Y52261897D01*
X17450030Y52199521D01*
X17384148Y52164306D01*
X17384145Y52164305D01*
X17186031Y52104207D01*
X16980000Y52083915D01*
X16773968Y52104207D01*
X16575854Y52164305D01*
X16575851Y52164306D01*
X16479025Y52216061D01*
X16393271Y52261897D01*
X16233235Y52393235D01*
X16101897Y52553271D01*
X16004307Y52735851D01*
X16004306Y52735852D01*
X16004305Y52735855D01*
X15944207Y52933969D01*
X15929000Y53088371D01*
X15929000Y54191631D01*
X15944207Y54346030D01*
X16004305Y54544147D01*
X16079184Y54684234D01*
X16101898Y54726729D01*
X16233236Y54886765D01*
X16393272Y55018103D01*
X16479026Y55063939D01*
X16575852Y55115694D01*
X16575855Y55115695D01*
X16773969Y55175793D01*
X16980000Y55196085D01*
X17186032Y55175793D01*
G37*
G36*
X42586032Y55175793D02*
G01*
X42784146Y55115695D01*
X42784149Y55115694D01*
X42880975Y55063939D01*
X42966729Y55018103D01*
X43126765Y54886765D01*
X43258103Y54726729D01*
X43303939Y54640975D01*
X43355694Y54544149D01*
X43355695Y54544146D01*
X43415793Y54346032D01*
X43431000Y54191630D01*
X43431000Y53088370D01*
X43415793Y52933968D01*
X43355695Y52735855D01*
X43355694Y52735851D01*
X43303939Y52639025D01*
X43258103Y52553271D01*
X43126765Y52393235D01*
X42966729Y52261897D01*
X42850030Y52199521D01*
X42784148Y52164306D01*
X42784145Y52164305D01*
X42586031Y52104207D01*
X42380000Y52083915D01*
X42173968Y52104207D01*
X41975854Y52164305D01*
X41975851Y52164306D01*
X41879025Y52216061D01*
X41793271Y52261897D01*
X41633235Y52393235D01*
X41501897Y52553271D01*
X41404307Y52735851D01*
X41404306Y52735852D01*
X41404305Y52735855D01*
X41344207Y52933969D01*
X41329000Y53088371D01*
X41329000Y54191631D01*
X41344207Y54346030D01*
X41404305Y54544147D01*
X41479184Y54684234D01*
X41501898Y54726729D01*
X41633236Y54886765D01*
X41793272Y55018103D01*
X41879026Y55063939D01*
X41975852Y55115694D01*
X41975855Y55115695D01*
X42173969Y55175793D01*
X42380000Y55196085D01*
X42586032Y55175793D01*
G37*
G36*
X40046032Y55175793D02*
G01*
X40244146Y55115695D01*
X40244149Y55115694D01*
X40340975Y55063939D01*
X40426729Y55018103D01*
X40586765Y54886765D01*
X40718103Y54726729D01*
X40763939Y54640975D01*
X40815694Y54544149D01*
X40815695Y54544146D01*
X40875793Y54346032D01*
X40891000Y54191630D01*
X40891000Y53088370D01*
X40875793Y52933968D01*
X40815695Y52735855D01*
X40815694Y52735851D01*
X40763939Y52639025D01*
X40718103Y52553271D01*
X40586765Y52393235D01*
X40426729Y52261897D01*
X40310030Y52199521D01*
X40244148Y52164306D01*
X40244145Y52164305D01*
X40046031Y52104207D01*
X39840000Y52083915D01*
X39633968Y52104207D01*
X39435854Y52164305D01*
X39435851Y52164306D01*
X39339025Y52216061D01*
X39253271Y52261897D01*
X39093235Y52393235D01*
X38961897Y52553271D01*
X38864307Y52735851D01*
X38864306Y52735852D01*
X38864305Y52735855D01*
X38804207Y52933969D01*
X38789000Y53088371D01*
X38789000Y54191631D01*
X38804207Y54346030D01*
X38864305Y54544147D01*
X38939184Y54684234D01*
X38961898Y54726729D01*
X39093236Y54886765D01*
X39253272Y55018103D01*
X39339026Y55063939D01*
X39435852Y55115694D01*
X39435855Y55115695D01*
X39633969Y55175793D01*
X39840000Y55196085D01*
X40046032Y55175793D01*
G37*
G36*
X37506032Y55175793D02*
G01*
X37704146Y55115695D01*
X37704149Y55115694D01*
X37800975Y55063939D01*
X37886729Y55018103D01*
X38046765Y54886765D01*
X38178103Y54726729D01*
X38223939Y54640975D01*
X38275694Y54544149D01*
X38275695Y54544146D01*
X38335793Y54346032D01*
X38351000Y54191630D01*
X38351000Y53088370D01*
X38335793Y52933968D01*
X38275695Y52735855D01*
X38275694Y52735851D01*
X38223939Y52639025D01*
X38178103Y52553271D01*
X38046765Y52393235D01*
X37886729Y52261897D01*
X37770030Y52199521D01*
X37704148Y52164306D01*
X37704145Y52164305D01*
X37506031Y52104207D01*
X37300000Y52083915D01*
X37093968Y52104207D01*
X36895854Y52164305D01*
X36895851Y52164306D01*
X36799025Y52216061D01*
X36713271Y52261897D01*
X36553235Y52393235D01*
X36421897Y52553271D01*
X36324307Y52735851D01*
X36324306Y52735852D01*
X36324305Y52735855D01*
X36264207Y52933969D01*
X36249000Y53088371D01*
X36249000Y54191631D01*
X36264207Y54346030D01*
X36324305Y54544147D01*
X36399184Y54684234D01*
X36421898Y54726729D01*
X36553236Y54886765D01*
X36713272Y55018103D01*
X36799026Y55063939D01*
X36895852Y55115694D01*
X36895855Y55115695D01*
X37093969Y55175793D01*
X37300000Y55196085D01*
X37506032Y55175793D01*
G37*
G36*
X34966032Y55175793D02*
G01*
X35164146Y55115695D01*
X35164149Y55115694D01*
X35260975Y55063939D01*
X35346729Y55018103D01*
X35506765Y54886765D01*
X35638103Y54726729D01*
X35683939Y54640975D01*
X35735694Y54544149D01*
X35735695Y54544146D01*
X35795793Y54346032D01*
X35811000Y54191630D01*
X35811000Y53088370D01*
X35795793Y52933968D01*
X35735695Y52735855D01*
X35735694Y52735851D01*
X35683939Y52639025D01*
X35638103Y52553271D01*
X35506765Y52393235D01*
X35346729Y52261897D01*
X35230030Y52199521D01*
X35164148Y52164306D01*
X35164145Y52164305D01*
X34966031Y52104207D01*
X34760000Y52083915D01*
X34553968Y52104207D01*
X34355854Y52164305D01*
X34355851Y52164306D01*
X34259025Y52216061D01*
X34173271Y52261897D01*
X34013235Y52393235D01*
X33881897Y52553271D01*
X33784307Y52735851D01*
X33784306Y52735852D01*
X33784305Y52735855D01*
X33724207Y52933969D01*
X33709000Y53088371D01*
X33709000Y54191631D01*
X33724207Y54346030D01*
X33784305Y54544147D01*
X33859184Y54684234D01*
X33881898Y54726729D01*
X34013236Y54886765D01*
X34173272Y55018103D01*
X34259026Y55063939D01*
X34355852Y55115694D01*
X34355855Y55115695D01*
X34553969Y55175793D01*
X34760000Y55196085D01*
X34966032Y55175793D01*
G37*
G36*
X29886032Y55175793D02*
G01*
X30084146Y55115695D01*
X30084149Y55115694D01*
X30180975Y55063939D01*
X30266729Y55018103D01*
X30426765Y54886765D01*
X30558103Y54726729D01*
X30603939Y54640975D01*
X30655694Y54544149D01*
X30655695Y54544146D01*
X30715793Y54346032D01*
X30731000Y54191630D01*
X30731000Y53088370D01*
X30715793Y52933968D01*
X30655695Y52735855D01*
X30655694Y52735851D01*
X30603939Y52639025D01*
X30558103Y52553271D01*
X30426765Y52393235D01*
X30266729Y52261897D01*
X30150030Y52199521D01*
X30084148Y52164306D01*
X30084145Y52164305D01*
X29886031Y52104207D01*
X29680000Y52083915D01*
X29473968Y52104207D01*
X29275854Y52164305D01*
X29275851Y52164306D01*
X29179025Y52216061D01*
X29093271Y52261897D01*
X28933235Y52393235D01*
X28801897Y52553271D01*
X28704307Y52735851D01*
X28704306Y52735852D01*
X28704305Y52735855D01*
X28644207Y52933969D01*
X28629000Y53088371D01*
X28629000Y54191631D01*
X28644207Y54346030D01*
X28704305Y54544147D01*
X28779184Y54684234D01*
X28801898Y54726729D01*
X28933236Y54886765D01*
X29093272Y55018103D01*
X29179026Y55063939D01*
X29275852Y55115694D01*
X29275855Y55115695D01*
X29473969Y55175793D01*
X29680000Y55196085D01*
X29886032Y55175793D01*
G37*
G36*
X19726032Y55175793D02*
G01*
X19924146Y55115695D01*
X19924149Y55115694D01*
X20020975Y55063939D01*
X20106729Y55018103D01*
X20266765Y54886765D01*
X20398103Y54726729D01*
X20443939Y54640975D01*
X20495694Y54544149D01*
X20495695Y54544146D01*
X20555793Y54346032D01*
X20571000Y54191630D01*
X20571000Y53088370D01*
X20555793Y52933968D01*
X20495695Y52735855D01*
X20495694Y52735851D01*
X20443939Y52639025D01*
X20398103Y52553271D01*
X20266765Y52393235D01*
X20106729Y52261897D01*
X19990030Y52199521D01*
X19924148Y52164306D01*
X19924145Y52164305D01*
X19726031Y52104207D01*
X19520000Y52083915D01*
X19313968Y52104207D01*
X19115854Y52164305D01*
X19115851Y52164306D01*
X19019025Y52216061D01*
X18933271Y52261897D01*
X18773235Y52393235D01*
X18641897Y52553271D01*
X18544307Y52735851D01*
X18544306Y52735852D01*
X18544305Y52735855D01*
X18484207Y52933969D01*
X18469000Y53088371D01*
X18469000Y54191631D01*
X18484207Y54346030D01*
X18544305Y54544147D01*
X18619184Y54684234D01*
X18641898Y54726729D01*
X18773236Y54886765D01*
X18933272Y55018103D01*
X19019026Y55063939D01*
X19115852Y55115694D01*
X19115855Y55115695D01*
X19313969Y55175793D01*
X19520000Y55196085D01*
X19726032Y55175793D01*
G37*
G36*
X27346032Y55175793D02*
G01*
X27544146Y55115695D01*
X27544149Y55115694D01*
X27640975Y55063939D01*
X27726729Y55018103D01*
X27886765Y54886765D01*
X28018103Y54726729D01*
X28063939Y54640975D01*
X28115694Y54544149D01*
X28115695Y54544146D01*
X28175793Y54346032D01*
X28191000Y54191630D01*
X28191000Y53088370D01*
X28175793Y52933968D01*
X28115695Y52735855D01*
X28115694Y52735851D01*
X28063939Y52639025D01*
X28018103Y52553271D01*
X27886765Y52393235D01*
X27726729Y52261897D01*
X27610030Y52199521D01*
X27544148Y52164306D01*
X27544145Y52164305D01*
X27346031Y52104207D01*
X27140000Y52083915D01*
X26933968Y52104207D01*
X26735854Y52164305D01*
X26735851Y52164306D01*
X26639025Y52216061D01*
X26553271Y52261897D01*
X26393235Y52393235D01*
X26261897Y52553271D01*
X26164307Y52735851D01*
X26164306Y52735852D01*
X26164305Y52735855D01*
X26104207Y52933969D01*
X26089000Y53088371D01*
X26089000Y54191631D01*
X26104207Y54346030D01*
X26164305Y54544147D01*
X26239184Y54684234D01*
X26261898Y54726729D01*
X26393236Y54886765D01*
X26553272Y55018103D01*
X26639026Y55063939D01*
X26735852Y55115694D01*
X26735855Y55115695D01*
X26933969Y55175793D01*
X27140000Y55196085D01*
X27346032Y55175793D01*
G37*
G36*
X24806032Y55175793D02*
G01*
X25004146Y55115695D01*
X25004149Y55115694D01*
X25100975Y55063939D01*
X25186729Y55018103D01*
X25346765Y54886765D01*
X25478103Y54726729D01*
X25523939Y54640975D01*
X25575694Y54544149D01*
X25575695Y54544146D01*
X25635793Y54346032D01*
X25651000Y54191630D01*
X25651000Y53088370D01*
X25635793Y52933968D01*
X25575695Y52735855D01*
X25575694Y52735851D01*
X25523939Y52639025D01*
X25478103Y52553271D01*
X25346765Y52393235D01*
X25186729Y52261897D01*
X25070030Y52199521D01*
X25004148Y52164306D01*
X25004145Y52164305D01*
X24806031Y52104207D01*
X24600000Y52083915D01*
X24393968Y52104207D01*
X24195854Y52164305D01*
X24195851Y52164306D01*
X24099025Y52216061D01*
X24013271Y52261897D01*
X23853235Y52393235D01*
X23721897Y52553271D01*
X23624307Y52735851D01*
X23624306Y52735852D01*
X23624305Y52735855D01*
X23564207Y52933969D01*
X23549000Y53088371D01*
X23549000Y54191631D01*
X23564207Y54346030D01*
X23624305Y54544147D01*
X23699184Y54684234D01*
X23721898Y54726729D01*
X23853236Y54886765D01*
X24013272Y55018103D01*
X24099026Y55063939D01*
X24195852Y55115694D01*
X24195855Y55115695D01*
X24393969Y55175793D01*
X24600000Y55196085D01*
X24806032Y55175793D01*
G37*
G36*
X51051000Y52089000D02*
G01*
X48949000Y52089000D01*
X48949000Y55191000D01*
X51051000Y55191000D01*
X51051000Y52089000D01*
G37*
G36*
X71236000Y54629000D02*
G01*
X68134000Y54629000D01*
X68134000Y57731000D01*
X71236000Y57731000D01*
X71236000Y54629000D01*
G37*
G36*
X19441585Y59479198D02*
G01*
X19591410Y59449396D01*
X19873674Y59332479D01*
X20127705Y59162741D01*
X20343741Y58946705D01*
X20513479Y58692674D01*
X20630396Y58410410D01*
X20639476Y58364761D01*
X20690000Y58110761D01*
X20690000Y57805239D01*
X20677879Y57744305D01*
X20630396Y57505590D01*
X20513479Y57223326D01*
X20343741Y56969295D01*
X20127705Y56753259D01*
X19873674Y56583521D01*
X19591410Y56466604D01*
X19441585Y56436802D01*
X19291761Y56407000D01*
X18986239Y56407000D01*
X18836415Y56436802D01*
X18686590Y56466604D01*
X18404326Y56583521D01*
X18150295Y56753259D01*
X17934259Y56969295D01*
X17764521Y57223326D01*
X17647604Y57505590D01*
X17600121Y57744305D01*
X17588000Y57805239D01*
X17588000Y58110761D01*
X17638524Y58364761D01*
X17647604Y58410410D01*
X17764521Y58692674D01*
X17934259Y58946705D01*
X18150295Y59162741D01*
X18404326Y59332479D01*
X18686590Y59449396D01*
X18836415Y59479198D01*
X18986239Y59509000D01*
X19291761Y59509000D01*
X19441585Y59479198D01*
G37*
G36*
X41412585Y59733198D02*
G01*
X41562410Y59703396D01*
X41844674Y59586479D01*
X42098705Y59416741D01*
X42314741Y59200705D01*
X42484479Y58946674D01*
X42601396Y58664410D01*
X42620204Y58569854D01*
X42661000Y58364761D01*
X42661000Y58059239D01*
X42648879Y57998305D01*
X42601396Y57759590D01*
X42484479Y57477326D01*
X42314741Y57223295D01*
X42098705Y57007259D01*
X41844674Y56837521D01*
X41562410Y56720604D01*
X41412585Y56690802D01*
X41262761Y56661000D01*
X40957239Y56661000D01*
X40807415Y56690802D01*
X40657590Y56720604D01*
X40375326Y56837521D01*
X40121295Y57007259D01*
X39905259Y57223295D01*
X39735521Y57477326D01*
X39618604Y57759590D01*
X39571121Y57998305D01*
X39559000Y58059239D01*
X39559000Y58364761D01*
X39599796Y58569854D01*
X39618604Y58664410D01*
X39735521Y58946674D01*
X39905259Y59200705D01*
X40121295Y59416741D01*
X40375326Y59586479D01*
X40657590Y59703396D01*
X40807415Y59733198D01*
X40957239Y59763000D01*
X41262761Y59763000D01*
X41412585Y59733198D01*
G37*
G36*
X32522585Y59733198D02*
G01*
X32672410Y59703396D01*
X32954674Y59586479D01*
X33208705Y59416741D01*
X33424741Y59200705D01*
X33594479Y58946674D01*
X33711396Y58664410D01*
X33730204Y58569854D01*
X33771000Y58364761D01*
X33771000Y58059239D01*
X33758879Y57998305D01*
X33711396Y57759590D01*
X33594479Y57477326D01*
X33424741Y57223295D01*
X33208705Y57007259D01*
X32954674Y56837521D01*
X32672410Y56720604D01*
X32522585Y56690802D01*
X32372761Y56661000D01*
X32067239Y56661000D01*
X31917415Y56690802D01*
X31767590Y56720604D01*
X31485326Y56837521D01*
X31231295Y57007259D01*
X31015259Y57223295D01*
X30845521Y57477326D01*
X30728604Y57759590D01*
X30681121Y57998305D01*
X30669000Y58059239D01*
X30669000Y58364761D01*
X30709796Y58569854D01*
X30728604Y58664410D01*
X30845521Y58946674D01*
X31015259Y59200705D01*
X31231295Y59416741D01*
X31485326Y59586479D01*
X31767590Y59703396D01*
X31917415Y59733198D01*
X32067239Y59763000D01*
X32372761Y59763000D01*
X32522585Y59733198D01*
G37*
G36*
X47508585Y59733198D02*
G01*
X47658410Y59703396D01*
X47940674Y59586479D01*
X48194705Y59416741D01*
X48410741Y59200705D01*
X48580479Y58946674D01*
X48697396Y58664410D01*
X48716204Y58569854D01*
X48757000Y58364761D01*
X48757000Y58059239D01*
X48744879Y57998305D01*
X48697396Y57759590D01*
X48580479Y57477326D01*
X48410741Y57223295D01*
X48194705Y57007259D01*
X47940674Y56837521D01*
X47658410Y56720604D01*
X47508585Y56690802D01*
X47358761Y56661000D01*
X47053239Y56661000D01*
X46903415Y56690802D01*
X46753590Y56720604D01*
X46471326Y56837521D01*
X46217295Y57007259D01*
X46001259Y57223295D01*
X45831521Y57477326D01*
X45714604Y57759590D01*
X45667121Y57998305D01*
X45655000Y58059239D01*
X45655000Y58364761D01*
X45695796Y58569854D01*
X45714604Y58664410D01*
X45831521Y58946674D01*
X46001259Y59200705D01*
X46217295Y59416741D01*
X46471326Y59586479D01*
X46753590Y59703396D01*
X46903415Y59733198D01*
X47053239Y59763000D01*
X47358761Y59763000D01*
X47508585Y59733198D01*
G37*
G36*
X37395097Y59765931D02*
G01*
X37498032Y59755793D01*
X37696146Y59695695D01*
X37696149Y59695694D01*
X37792975Y59643939D01*
X37878729Y59598103D01*
X38038765Y59466765D01*
X38170103Y59306729D01*
X38212184Y59228000D01*
X38267694Y59124149D01*
X38267695Y59124146D01*
X38327793Y58926032D01*
X38348085Y58720000D01*
X38327793Y58513968D01*
X38278022Y58349897D01*
X38267694Y58315851D01*
X38215939Y58219025D01*
X38170103Y58133271D01*
X38038765Y57973235D01*
X37878729Y57841897D01*
X37810148Y57805240D01*
X37696149Y57744306D01*
X37696146Y57744305D01*
X37498032Y57684207D01*
X37395097Y57674069D01*
X37343631Y57669000D01*
X36240369Y57669000D01*
X36188903Y57674069D01*
X36085968Y57684207D01*
X35887854Y57744305D01*
X35887851Y57744306D01*
X35773852Y57805240D01*
X35705271Y57841897D01*
X35545235Y57973235D01*
X35413897Y58133271D01*
X35368061Y58219025D01*
X35316306Y58315851D01*
X35305978Y58349897D01*
X35256207Y58513968D01*
X35235915Y58720000D01*
X35256207Y58926032D01*
X35316305Y59124146D01*
X35316306Y59124149D01*
X35371816Y59228000D01*
X35413897Y59306729D01*
X35545235Y59466765D01*
X35705271Y59598103D01*
X35791025Y59643939D01*
X35887851Y59695694D01*
X35887854Y59695695D01*
X36085968Y59755793D01*
X36188903Y59765931D01*
X36240369Y59771000D01*
X37343631Y59771000D01*
X37395097Y59765931D01*
G37*
G36*
X28505097Y60019931D02*
G01*
X28608032Y60009793D01*
X28806146Y59949695D01*
X28806149Y59949694D01*
X28902975Y59897939D01*
X28988729Y59852103D01*
X29148765Y59720765D01*
X29280103Y59560729D01*
X29325939Y59474975D01*
X29377694Y59378149D01*
X29377695Y59378146D01*
X29437793Y59180032D01*
X29458085Y58974000D01*
X29437793Y58767968D01*
X29399359Y58641271D01*
X29377694Y58569851D01*
X29325939Y58473025D01*
X29280103Y58387271D01*
X29148765Y58227235D01*
X28988729Y58095897D01*
X28920148Y58059240D01*
X28806149Y57998306D01*
X28806146Y57998305D01*
X28608032Y57938207D01*
X28505097Y57928069D01*
X28453631Y57923000D01*
X27350369Y57923000D01*
X27298903Y57928069D01*
X27195968Y57938207D01*
X26997854Y57998305D01*
X26997851Y57998306D01*
X26883852Y58059240D01*
X26815271Y58095897D01*
X26655235Y58227235D01*
X26523897Y58387271D01*
X26478061Y58473025D01*
X26426306Y58569851D01*
X26404641Y58641271D01*
X26366207Y58767968D01*
X26345915Y58974000D01*
X26366207Y59180032D01*
X26426305Y59378146D01*
X26426306Y59378149D01*
X26478061Y59474975D01*
X26523897Y59560729D01*
X26655235Y59720765D01*
X26815271Y59852103D01*
X26901025Y59897939D01*
X26997851Y59949694D01*
X26997854Y59949695D01*
X27195968Y60009793D01*
X27298903Y60019931D01*
X27350369Y60025000D01*
X28453631Y60025000D01*
X28505097Y60019931D01*
G37*
G36*
X52254097Y60273931D02*
G01*
X52357032Y60263793D01*
X52555146Y60203695D01*
X52555149Y60203694D01*
X52651975Y60151939D01*
X52737729Y60106103D01*
X52897765Y59974765D01*
X53029103Y59814729D01*
X53060605Y59755793D01*
X53126694Y59632149D01*
X53126695Y59632146D01*
X53186793Y59434032D01*
X53207085Y59228000D01*
X53186793Y59021968D01*
X53157690Y58926030D01*
X53126694Y58823851D01*
X53096825Y58767970D01*
X53029103Y58641271D01*
X52897765Y58481235D01*
X52737729Y58349897D01*
X52674033Y58315851D01*
X52555149Y58252306D01*
X52555146Y58252305D01*
X52357032Y58192207D01*
X52254097Y58182069D01*
X52202631Y58177000D01*
X51099369Y58177000D01*
X51047903Y58182069D01*
X50944968Y58192207D01*
X50746854Y58252305D01*
X50746851Y58252306D01*
X50627967Y58315851D01*
X50564271Y58349897D01*
X50404235Y58481235D01*
X50272897Y58641271D01*
X50205175Y58767970D01*
X50175306Y58823851D01*
X50144310Y58926030D01*
X50115207Y59021968D01*
X50094915Y59228000D01*
X50115207Y59434032D01*
X50175305Y59632146D01*
X50175306Y59632149D01*
X50241395Y59755793D01*
X50272897Y59814729D01*
X50404235Y59974765D01*
X50564271Y60106103D01*
X50650025Y60151939D01*
X50746851Y60203694D01*
X50746854Y60203695D01*
X50944968Y60263793D01*
X51047903Y60273931D01*
X51099369Y60279000D01*
X52202631Y60279000D01*
X52254097Y60273931D01*
G37*
G36*
X24695097Y60273931D02*
G01*
X24798032Y60263793D01*
X24996146Y60203695D01*
X24996149Y60203694D01*
X25092975Y60151939D01*
X25178729Y60106103D01*
X25338765Y59974765D01*
X25470103Y59814729D01*
X25501605Y59755793D01*
X25567694Y59632149D01*
X25567695Y59632146D01*
X25627793Y59434032D01*
X25648085Y59228000D01*
X25627793Y59021968D01*
X25598690Y58926030D01*
X25567694Y58823851D01*
X25537825Y58767970D01*
X25470103Y58641271D01*
X25338765Y58481235D01*
X25178729Y58349897D01*
X25115033Y58315851D01*
X24996149Y58252306D01*
X24996146Y58252305D01*
X24798032Y58192207D01*
X24695097Y58182069D01*
X24643631Y58177000D01*
X23540369Y58177000D01*
X23488903Y58182069D01*
X23385968Y58192207D01*
X23187854Y58252305D01*
X23187851Y58252306D01*
X23068967Y58315851D01*
X23005271Y58349897D01*
X22845235Y58481235D01*
X22713897Y58641271D01*
X22646175Y58767970D01*
X22616306Y58823851D01*
X22585310Y58926030D01*
X22556207Y59021968D01*
X22535915Y59228000D01*
X22556207Y59434032D01*
X22616305Y59632146D01*
X22616306Y59632149D01*
X22682395Y59755793D01*
X22713897Y59814729D01*
X22845235Y59974765D01*
X23005271Y60106103D01*
X23091025Y60151939D01*
X23187851Y60203694D01*
X23187854Y60203695D01*
X23385968Y60263793D01*
X23488903Y60273931D01*
X23540369Y60279000D01*
X24643631Y60279000D01*
X24695097Y60273931D01*
G37*
G36*
X69987585Y62781198D02*
G01*
X70137410Y62751396D01*
X70419674Y62634479D01*
X70673705Y62464741D01*
X70889741Y62248705D01*
X71059479Y61994674D01*
X71176396Y61712410D01*
X71236000Y61412760D01*
X71236000Y61107240D01*
X71176396Y60807590D01*
X71059479Y60525326D01*
X70889741Y60271295D01*
X70673705Y60055259D01*
X70419674Y59885521D01*
X70137410Y59768604D01*
X69987585Y59738802D01*
X69837761Y59709000D01*
X69532239Y59709000D01*
X69382415Y59738802D01*
X69232590Y59768604D01*
X68950326Y59885521D01*
X68696295Y60055259D01*
X68480259Y60271295D01*
X68310521Y60525326D01*
X68193604Y60807590D01*
X68134000Y61107240D01*
X68134000Y61412760D01*
X68193604Y61712410D01*
X68310521Y61994674D01*
X68480259Y62248705D01*
X68696295Y62464741D01*
X68950326Y62634479D01*
X69232590Y62751396D01*
X69382415Y62781198D01*
X69532239Y62811000D01*
X69837761Y62811000D01*
X69987585Y62781198D01*
G37*
G36*
X19441585Y64979198D02*
G01*
X19591410Y64949396D01*
X19873674Y64832479D01*
X20127705Y64662741D01*
X20343741Y64446705D01*
X20513479Y64192674D01*
X20630396Y63910410D01*
X20639476Y63864761D01*
X20690000Y63610761D01*
X20690000Y63305239D01*
X20671706Y63213271D01*
X20630396Y63005590D01*
X20513479Y62723326D01*
X20343741Y62469295D01*
X20127705Y62253259D01*
X19873674Y62083521D01*
X19591410Y61966604D01*
X19441585Y61936802D01*
X19291761Y61907000D01*
X18986239Y61907000D01*
X18836415Y61936802D01*
X18686590Y61966604D01*
X18404326Y62083521D01*
X18150295Y62253259D01*
X17934259Y62469295D01*
X17764521Y62723326D01*
X17647604Y63005590D01*
X17606294Y63213271D01*
X17588000Y63305239D01*
X17588000Y63610761D01*
X17638524Y63864761D01*
X17647604Y63910410D01*
X17764521Y64192674D01*
X17934259Y64446705D01*
X18150295Y64662741D01*
X18404326Y64832479D01*
X18686590Y64949396D01*
X18836415Y64979198D01*
X18986239Y65009000D01*
X19291761Y65009000D01*
X19441585Y64979198D01*
G37*
G36*
X41412585Y65233198D02*
G01*
X41562410Y65203396D01*
X41844674Y65086479D01*
X42098705Y64916741D01*
X42314741Y64700705D01*
X42484479Y64446674D01*
X42601396Y64164410D01*
X42601396Y64164409D01*
X42661000Y63864761D01*
X42661000Y63559239D01*
X42642706Y63467271D01*
X42601396Y63259590D01*
X42484479Y62977326D01*
X42314741Y62723295D01*
X42098705Y62507259D01*
X41844674Y62337521D01*
X41562410Y62220604D01*
X41412585Y62190802D01*
X41262761Y62161000D01*
X40957239Y62161000D01*
X40807415Y62190802D01*
X40657590Y62220604D01*
X40375326Y62337521D01*
X40121295Y62507259D01*
X39905259Y62723295D01*
X39735521Y62977326D01*
X39618604Y63259590D01*
X39577294Y63467271D01*
X39559000Y63559239D01*
X39559000Y63864761D01*
X39618604Y64164409D01*
X39618604Y64164410D01*
X39735521Y64446674D01*
X39905259Y64700705D01*
X40121295Y64916741D01*
X40375326Y65086479D01*
X40657590Y65203396D01*
X40807415Y65233198D01*
X40957239Y65263000D01*
X41262761Y65263000D01*
X41412585Y65233198D01*
G37*
G36*
X32522585Y65233198D02*
G01*
X32672410Y65203396D01*
X32954674Y65086479D01*
X33208705Y64916741D01*
X33424741Y64700705D01*
X33594479Y64446674D01*
X33711396Y64164410D01*
X33711396Y64164409D01*
X33771000Y63864761D01*
X33771000Y63559239D01*
X33752706Y63467271D01*
X33711396Y63259590D01*
X33594479Y62977326D01*
X33424741Y62723295D01*
X33208705Y62507259D01*
X32954674Y62337521D01*
X32672410Y62220604D01*
X32522585Y62190802D01*
X32372761Y62161000D01*
X32067239Y62161000D01*
X31917415Y62190802D01*
X31767590Y62220604D01*
X31485326Y62337521D01*
X31231295Y62507259D01*
X31015259Y62723295D01*
X30845521Y62977326D01*
X30728604Y63259590D01*
X30687294Y63467271D01*
X30669000Y63559239D01*
X30669000Y63864761D01*
X30728604Y64164409D01*
X30728604Y64164410D01*
X30845521Y64446674D01*
X31015259Y64700705D01*
X31231295Y64916741D01*
X31485326Y65086479D01*
X31767590Y65203396D01*
X31917415Y65233198D01*
X32067239Y65263000D01*
X32372761Y65263000D01*
X32522585Y65233198D01*
G37*
G36*
X47508585Y65233198D02*
G01*
X47658410Y65203396D01*
X47940674Y65086479D01*
X48194705Y64916741D01*
X48410741Y64700705D01*
X48580479Y64446674D01*
X48697396Y64164410D01*
X48697396Y64164409D01*
X48757000Y63864761D01*
X48757000Y63559239D01*
X48738706Y63467271D01*
X48697396Y63259590D01*
X48580479Y62977326D01*
X48410741Y62723295D01*
X48194705Y62507259D01*
X47940674Y62337521D01*
X47658410Y62220604D01*
X47508585Y62190802D01*
X47358761Y62161000D01*
X47053239Y62161000D01*
X46903415Y62190802D01*
X46753590Y62220604D01*
X46471326Y62337521D01*
X46217295Y62507259D01*
X46001259Y62723295D01*
X45831521Y62977326D01*
X45714604Y63259590D01*
X45673294Y63467271D01*
X45655000Y63559239D01*
X45655000Y63864761D01*
X45714604Y64164409D01*
X45714604Y64164410D01*
X45831521Y64446674D01*
X46001259Y64700705D01*
X46217295Y64916741D01*
X46471326Y65086479D01*
X46753590Y65203396D01*
X46903415Y65233198D01*
X47053239Y65263000D01*
X47358761Y65263000D01*
X47508585Y65233198D01*
G37*
G36*
X37395097Y64845931D02*
G01*
X37498032Y64835793D01*
X37696146Y64775695D01*
X37696149Y64775694D01*
X37792975Y64723939D01*
X37878729Y64678103D01*
X38038765Y64546765D01*
X38170103Y64386729D01*
X38212184Y64308000D01*
X38267694Y64204149D01*
X38267695Y64204146D01*
X38327793Y64006032D01*
X38348085Y63800000D01*
X38327793Y63593968D01*
X38289359Y63467271D01*
X38267694Y63395851D01*
X38219261Y63305240D01*
X38170103Y63213271D01*
X38038765Y63053235D01*
X37878729Y62921897D01*
X37792975Y62876061D01*
X37696149Y62824306D01*
X37696146Y62824305D01*
X37498032Y62764207D01*
X37395097Y62754069D01*
X37343631Y62749000D01*
X36240369Y62749000D01*
X36188903Y62754069D01*
X36085968Y62764207D01*
X35887854Y62824305D01*
X35887851Y62824306D01*
X35791025Y62876061D01*
X35705271Y62921897D01*
X35545235Y63053235D01*
X35413897Y63213271D01*
X35364739Y63305240D01*
X35316306Y63395851D01*
X35294641Y63467271D01*
X35256207Y63593968D01*
X35235915Y63800000D01*
X35256207Y64006032D01*
X35316305Y64204146D01*
X35316306Y64204149D01*
X35371816Y64308000D01*
X35413897Y64386729D01*
X35545235Y64546765D01*
X35705271Y64678103D01*
X35791025Y64723939D01*
X35887851Y64775694D01*
X35887854Y64775695D01*
X36085968Y64835793D01*
X36188903Y64845931D01*
X36240369Y64851000D01*
X37343631Y64851000D01*
X37395097Y64845931D01*
G37*
G36*
X28505097Y65099931D02*
G01*
X28608032Y65089793D01*
X28806146Y65029695D01*
X28806149Y65029694D01*
X28902975Y64977939D01*
X28988729Y64932103D01*
X29148765Y64800765D01*
X29280103Y64640729D01*
X29325939Y64554975D01*
X29377694Y64458149D01*
X29377695Y64458146D01*
X29437793Y64260032D01*
X29458085Y64054000D01*
X29437793Y63847968D01*
X29399359Y63721271D01*
X29377694Y63649851D01*
X29329261Y63559240D01*
X29280103Y63467271D01*
X29148765Y63307235D01*
X28988729Y63175897D01*
X28902975Y63130061D01*
X28806149Y63078306D01*
X28806146Y63078305D01*
X28608032Y63018207D01*
X28505097Y63008069D01*
X28453631Y63003000D01*
X27350369Y63003000D01*
X27298903Y63008069D01*
X27195968Y63018207D01*
X26997854Y63078305D01*
X26997851Y63078306D01*
X26901025Y63130061D01*
X26815271Y63175897D01*
X26655235Y63307235D01*
X26523897Y63467271D01*
X26474739Y63559240D01*
X26426306Y63649851D01*
X26404641Y63721271D01*
X26366207Y63847968D01*
X26345915Y64054000D01*
X26366207Y64260032D01*
X26426305Y64458146D01*
X26426306Y64458149D01*
X26478061Y64554975D01*
X26523897Y64640729D01*
X26655235Y64800765D01*
X26815271Y64932103D01*
X26901025Y64977939D01*
X26997851Y65029694D01*
X26997854Y65029695D01*
X27195968Y65089793D01*
X27298903Y65099931D01*
X27350369Y65105000D01*
X28453631Y65105000D01*
X28505097Y65099931D01*
G37*
G36*
X52254097Y65353931D02*
G01*
X52357032Y65343793D01*
X52555146Y65283695D01*
X52555149Y65283694D01*
X52651975Y65231939D01*
X52737729Y65186103D01*
X52897765Y65054765D01*
X53029103Y64894729D01*
X53052476Y64851000D01*
X53126694Y64712149D01*
X53126695Y64712146D01*
X53186793Y64514032D01*
X53207085Y64308000D01*
X53186793Y64101968D01*
X53157690Y64006030D01*
X53126694Y63903851D01*
X53105799Y63864760D01*
X53029103Y63721271D01*
X52897765Y63561235D01*
X52737729Y63429897D01*
X52674033Y63395851D01*
X52555149Y63332306D01*
X52555146Y63332305D01*
X52357032Y63272207D01*
X52254097Y63262069D01*
X52202631Y63257000D01*
X51099369Y63257000D01*
X51047903Y63262069D01*
X50944968Y63272207D01*
X50746854Y63332305D01*
X50746851Y63332306D01*
X50627967Y63395851D01*
X50564271Y63429897D01*
X50404235Y63561235D01*
X50272897Y63721271D01*
X50196201Y63864760D01*
X50175306Y63903851D01*
X50144310Y64006030D01*
X50115207Y64101968D01*
X50094915Y64308000D01*
X50115207Y64514032D01*
X50175305Y64712146D01*
X50175306Y64712149D01*
X50249524Y64851000D01*
X50272897Y64894729D01*
X50404235Y65054765D01*
X50564271Y65186103D01*
X50650025Y65231939D01*
X50746851Y65283694D01*
X50746854Y65283695D01*
X50944968Y65343793D01*
X51047903Y65353931D01*
X51099369Y65359000D01*
X52202631Y65359000D01*
X52254097Y65353931D01*
G37*
G36*
X24695097Y65353931D02*
G01*
X24798032Y65343793D01*
X24996146Y65283695D01*
X24996149Y65283694D01*
X25092975Y65231939D01*
X25178729Y65186103D01*
X25338765Y65054765D01*
X25470103Y64894729D01*
X25493476Y64851000D01*
X25567694Y64712149D01*
X25567695Y64712146D01*
X25627793Y64514032D01*
X25648085Y64308000D01*
X25627793Y64101968D01*
X25598690Y64006030D01*
X25567694Y63903851D01*
X25546799Y63864760D01*
X25470103Y63721271D01*
X25338765Y63561235D01*
X25178729Y63429897D01*
X25115033Y63395851D01*
X24996149Y63332306D01*
X24996146Y63332305D01*
X24798032Y63272207D01*
X24695097Y63262069D01*
X24643631Y63257000D01*
X23540369Y63257000D01*
X23488903Y63262069D01*
X23385968Y63272207D01*
X23187854Y63332305D01*
X23187851Y63332306D01*
X23068967Y63395851D01*
X23005271Y63429897D01*
X22845235Y63561235D01*
X22713897Y63721271D01*
X22637201Y63864760D01*
X22616306Y63903851D01*
X22585310Y64006030D01*
X22556207Y64101968D01*
X22535915Y64308000D01*
X22556207Y64514032D01*
X22616305Y64712146D01*
X22616306Y64712149D01*
X22690524Y64851000D01*
X22713897Y64894729D01*
X22845235Y65054765D01*
X23005271Y65186103D01*
X23091025Y65231939D01*
X23187851Y65283694D01*
X23187854Y65283695D01*
X23385968Y65343793D01*
X23488903Y65353931D01*
X23540369Y65359000D01*
X24643631Y65359000D01*
X24695097Y65353931D01*
G37*
G36*
X4201585Y69512198D02*
G01*
X4351410Y69482396D01*
X4633674Y69365479D01*
X4887705Y69195741D01*
X5103741Y68979705D01*
X5273479Y68725674D01*
X5390396Y68443410D01*
X5450000Y68143760D01*
X5450000Y67838240D01*
X5390396Y67538590D01*
X5273479Y67256326D01*
X5103741Y67002295D01*
X4887705Y66786259D01*
X4633674Y66616521D01*
X4351410Y66499604D01*
X4201585Y66469802D01*
X4051761Y66440000D01*
X3746239Y66440000D01*
X3596415Y66469802D01*
X3446590Y66499604D01*
X3164326Y66616521D01*
X2910295Y66786259D01*
X2694259Y67002295D01*
X2524521Y67256326D01*
X2407604Y67538590D01*
X2348000Y67838240D01*
X2348000Y68143760D01*
X2407604Y68443410D01*
X2524521Y68725674D01*
X2694259Y68979705D01*
X2910295Y69195741D01*
X3164326Y69365479D01*
X3446590Y69482396D01*
X3596415Y69512198D01*
X3746239Y69542000D01*
X4051761Y69542000D01*
X4201585Y69512198D01*
G37*
G36*
X20996031Y69653793D02*
G01*
X21194145Y69593695D01*
X21194148Y69593694D01*
X21260030Y69558479D01*
X21376729Y69496103D01*
X21536765Y69364765D01*
X21668103Y69204729D01*
X21697813Y69149145D01*
X21765694Y69022149D01*
X21765695Y69022146D01*
X21825793Y68824032D01*
X21825793Y68824030D01*
X21841000Y68669631D01*
X21841000Y67566369D01*
X21838301Y67538970D01*
X21825793Y67411968D01*
X21765695Y67213855D01*
X21765694Y67213851D01*
X21735985Y67158270D01*
X21668103Y67031271D01*
X21536765Y66871235D01*
X21376729Y66739897D01*
X21290975Y66694061D01*
X21194149Y66642306D01*
X21194146Y66642305D01*
X20996032Y66582207D01*
X20790000Y66561915D01*
X20583969Y66582207D01*
X20385855Y66642305D01*
X20385852Y66642306D01*
X20289026Y66694061D01*
X20203272Y66739897D01*
X20043236Y66871235D01*
X19911898Y67031271D01*
X19889184Y67073765D01*
X19814305Y67213853D01*
X19754207Y67411970D01*
X19739000Y67566369D01*
X19739000Y68669630D01*
X19751508Y68796630D01*
X19754207Y68824031D01*
X19814305Y69022145D01*
X19814306Y69022148D01*
X19849521Y69088030D01*
X19911897Y69204729D01*
X20043235Y69364765D01*
X20203271Y69496103D01*
X20289139Y69542000D01*
X20385851Y69593694D01*
X20385854Y69593695D01*
X20583968Y69653793D01*
X20790000Y69674085D01*
X20996031Y69653793D01*
G37*
G36*
X11217032Y69653793D02*
G01*
X11415146Y69593695D01*
X11415149Y69593694D01*
X11511861Y69542000D01*
X11597729Y69496103D01*
X11757765Y69364765D01*
X11889103Y69204729D01*
X11918813Y69149145D01*
X11986694Y69022149D01*
X11986695Y69022146D01*
X12046793Y68824032D01*
X12046793Y68824030D01*
X12062000Y68669631D01*
X12062000Y67566369D01*
X12059301Y67538970D01*
X12046793Y67411968D01*
X11986695Y67213855D01*
X11986694Y67213851D01*
X11956985Y67158270D01*
X11889103Y67031271D01*
X11757765Y66871235D01*
X11597729Y66739897D01*
X11502347Y66688915D01*
X11415148Y66642306D01*
X11415145Y66642305D01*
X11217031Y66582207D01*
X11011000Y66561915D01*
X10804968Y66582207D01*
X10606854Y66642305D01*
X10606851Y66642306D01*
X10510025Y66694061D01*
X10424271Y66739897D01*
X10264235Y66871235D01*
X10132897Y67031271D01*
X10035307Y67213851D01*
X10035306Y67213852D01*
X10022431Y67256295D01*
X9975207Y67411969D01*
X9960000Y67566371D01*
X9960000Y68669630D01*
X9965520Y68725674D01*
X9975207Y68824030D01*
X10035305Y69022147D01*
X10110184Y69162234D01*
X10132898Y69204729D01*
X10264236Y69364765D01*
X10424272Y69496103D01*
X10510140Y69542000D01*
X10606852Y69593694D01*
X10606855Y69593695D01*
X10804969Y69653793D01*
X11011000Y69674085D01*
X11217032Y69653793D01*
G37*
G36*
X14602000Y66567000D02*
G01*
X12500000Y66567000D01*
X12500000Y69669000D01*
X14602000Y69669000D01*
X14602000Y66567000D01*
G37*
G36*
X19301000Y66567000D02*
G01*
X17199000Y66567000D01*
X17199000Y69669000D01*
X19301000Y69669000D01*
X19301000Y66567000D01*
G37*
G36*
X44224331Y69780793D02*
G01*
X44370686Y69736396D01*
X44422448Y69720694D01*
X44488330Y69685479D01*
X44605029Y69623103D01*
X44765065Y69491765D01*
X44896403Y69331729D01*
X44896404Y69331727D01*
X44993994Y69149149D01*
X44993995Y69149146D01*
X45054093Y68951032D01*
X45054093Y68951030D01*
X45066602Y68824029D01*
X45069300Y68796630D01*
X45069300Y67693370D01*
X45054093Y67538968D01*
X45053978Y67538590D01*
X44993994Y67340851D01*
X44948815Y67256328D01*
X44896403Y67158271D01*
X44765065Y66998235D01*
X44605029Y66866897D01*
X44519275Y66821061D01*
X44422449Y66769306D01*
X44422446Y66769305D01*
X44224332Y66709207D01*
X44018300Y66688915D01*
X43812269Y66709207D01*
X43614155Y66769305D01*
X43614152Y66769306D01*
X43517326Y66821061D01*
X43431572Y66866897D01*
X43271536Y66998235D01*
X43140198Y67158271D01*
X43110490Y67213851D01*
X43042605Y67340853D01*
X42982507Y67538970D01*
X42967300Y67693369D01*
X42967300Y68796630D01*
X42982507Y68951029D01*
X42982507Y68951031D01*
X43042605Y69149145D01*
X43042606Y69149148D01*
X43087803Y69233705D01*
X43140197Y69331729D01*
X43271535Y69491765D01*
X43431571Y69623103D01*
X43526952Y69674085D01*
X43614151Y69720694D01*
X43665913Y69736396D01*
X43812268Y69780793D01*
X44018300Y69801085D01*
X44224331Y69780793D01*
G37*
G36*
X36589091Y69780793D02*
G01*
X36735446Y69736396D01*
X36787208Y69720694D01*
X36853090Y69685479D01*
X36969789Y69623103D01*
X37129825Y69491765D01*
X37261163Y69331729D01*
X37261164Y69331727D01*
X37358754Y69149149D01*
X37358755Y69149146D01*
X37418853Y68951032D01*
X37418853Y68951030D01*
X37431362Y68824029D01*
X37434060Y68796630D01*
X37434060Y67693370D01*
X37418853Y67538968D01*
X37418738Y67538590D01*
X37358754Y67340851D01*
X37313575Y67256328D01*
X37261163Y67158271D01*
X37129825Y66998235D01*
X36969789Y66866897D01*
X36884035Y66821061D01*
X36787209Y66769306D01*
X36787206Y66769305D01*
X36589092Y66709207D01*
X36383060Y66688915D01*
X36177029Y66709207D01*
X35978915Y66769305D01*
X35978912Y66769306D01*
X35882086Y66821061D01*
X35796332Y66866897D01*
X35636296Y66998235D01*
X35504958Y67158271D01*
X35475250Y67213851D01*
X35407365Y67340853D01*
X35347267Y67538970D01*
X35332060Y67693369D01*
X35332060Y68796630D01*
X35347267Y68951029D01*
X35347267Y68951031D01*
X35407365Y69149145D01*
X35407366Y69149148D01*
X35452563Y69233705D01*
X35504957Y69331729D01*
X35636295Y69491765D01*
X35796331Y69623103D01*
X35891712Y69674085D01*
X35978911Y69720694D01*
X36030673Y69736396D01*
X36177028Y69780793D01*
X36383060Y69801085D01*
X36589091Y69780793D01*
G37*
G36*
X26462112Y69780793D02*
G01*
X26608467Y69736396D01*
X26660229Y69720694D01*
X26747428Y69674085D01*
X26842809Y69623103D01*
X27002845Y69491765D01*
X27134183Y69331729D01*
X27134184Y69331727D01*
X27231774Y69149149D01*
X27231775Y69149146D01*
X27291873Y68951032D01*
X27291873Y68951030D01*
X27304382Y68824029D01*
X27307080Y68796630D01*
X27307080Y67693370D01*
X27291873Y67538968D01*
X27291758Y67538590D01*
X27231774Y67340851D01*
X27186595Y67256328D01*
X27134183Y67158271D01*
X27002845Y66998235D01*
X26842809Y66866897D01*
X26726110Y66804521D01*
X26660228Y66769306D01*
X26660225Y66769305D01*
X26462111Y66709207D01*
X26256080Y66688915D01*
X26050048Y66709207D01*
X25851934Y66769305D01*
X25851931Y66769306D01*
X25755105Y66821061D01*
X25669351Y66866897D01*
X25509315Y66998235D01*
X25377977Y67158271D01*
X25280387Y67340851D01*
X25280386Y67340852D01*
X25228976Y67510326D01*
X25220287Y67538969D01*
X25205080Y67693371D01*
X25205080Y68796631D01*
X25220287Y68951030D01*
X25280385Y69149147D01*
X25377977Y69331727D01*
X25377978Y69331729D01*
X25509316Y69491765D01*
X25669352Y69623103D01*
X25764733Y69674085D01*
X25851932Y69720694D01*
X25903694Y69736396D01*
X26050049Y69780793D01*
X26256080Y69801085D01*
X26462112Y69780793D01*
G37*
G36*
X49334812Y69780793D02*
G01*
X49481167Y69736396D01*
X49532929Y69720694D01*
X49620128Y69674085D01*
X49715509Y69623103D01*
X49875545Y69491765D01*
X50006883Y69331729D01*
X50006884Y69331727D01*
X50104474Y69149149D01*
X50104475Y69149146D01*
X50164573Y68951032D01*
X50164573Y68951030D01*
X50177082Y68824029D01*
X50179780Y68796630D01*
X50179780Y67693370D01*
X50164573Y67538968D01*
X50164458Y67538590D01*
X50104474Y67340851D01*
X50059295Y67256328D01*
X50006883Y67158271D01*
X49875545Y66998235D01*
X49715509Y66866897D01*
X49598810Y66804521D01*
X49532928Y66769306D01*
X49532925Y66769305D01*
X49334811Y66709207D01*
X49128780Y66688915D01*
X48922748Y66709207D01*
X48724634Y66769305D01*
X48724631Y66769306D01*
X48627805Y66821061D01*
X48542051Y66866897D01*
X48382015Y66998235D01*
X48250677Y67158271D01*
X48153087Y67340851D01*
X48153086Y67340852D01*
X48101676Y67510326D01*
X48092987Y67538969D01*
X48077780Y67693371D01*
X48077780Y68796631D01*
X48092987Y68951030D01*
X48153085Y69149147D01*
X48250677Y69331727D01*
X48250678Y69331729D01*
X48382016Y69491765D01*
X48542052Y69623103D01*
X48637433Y69674085D01*
X48724632Y69720694D01*
X48776394Y69736396D01*
X48922749Y69780793D01*
X49128780Y69801085D01*
X49334812Y69780793D01*
G37*
G36*
X29847080Y66694000D02*
G01*
X27745080Y66694000D01*
X27745080Y69796000D01*
X29847080Y69796000D01*
X29847080Y66694000D01*
G37*
G36*
X71057211Y69780793D02*
G01*
X71280410Y69736396D01*
X71562674Y69619479D01*
X71816705Y69449741D01*
X72032741Y69233705D01*
X72202479Y68979674D01*
X72319396Y68697410D01*
X72379000Y68397760D01*
X72379000Y68092240D01*
X72319396Y67792590D01*
X72202479Y67510326D01*
X72032741Y67256295D01*
X71816705Y67040259D01*
X71562674Y66870521D01*
X71280410Y66753604D01*
X71211500Y66739897D01*
X70980761Y66694000D01*
X70675239Y66694000D01*
X70444500Y66739897D01*
X70375590Y66753604D01*
X70093326Y66870521D01*
X69839295Y67040259D01*
X69623259Y67256295D01*
X69453521Y67510326D01*
X69336604Y67792590D01*
X69277000Y68092240D01*
X69277000Y68397760D01*
X69336604Y68697410D01*
X69453521Y68979674D01*
X69623259Y69233705D01*
X69839295Y69449741D01*
X70093326Y69619479D01*
X70375590Y69736396D01*
X70598789Y69780793D01*
X70675239Y69796000D01*
X70980761Y69796000D01*
X71057211Y69780793D01*
G37*
G36*
X42529300Y66694000D02*
G01*
X40427300Y66694000D01*
X40427300Y69796000D01*
X42529300Y69796000D01*
X42529300Y66694000D01*
G37*
G36*
X34894060Y66694000D02*
G01*
X32792060Y66694000D01*
X32792060Y69796000D01*
X34894060Y69796000D01*
X34894060Y66694000D01*
G37*
G36*
X52719780Y66694000D02*
G01*
X50617780Y66694000D01*
X50617780Y69796000D01*
X52719780Y69796000D01*
X52719780Y66694000D01*
G37*
M02*
