G04 #@! TF.GenerationSoftware,KiCad,Pcbnew,(5.1.5-0)*
G04 #@! TF.CreationDate,2022-06-30T09:19:57+01:00*
G04 #@! TF.ProjectId,ESP32_Cnc_Shield,45535033-325f-4436-9e63-5f536869656c,rev?*
G04 #@! TF.SameCoordinates,Original*
G04 #@! TF.FileFunction,Legend,Bot*
G04 #@! TF.FilePolarity,Positive*
%FSLAX46Y46*%
G04 Gerber Fmt 4.6, Leading zero omitted, Abs format (unit mm)*
G04 Created by KiCad (PCBNEW (5.1.5-0)) date 2022-06-30 09:19:57*
%MOMM*%
%LPD*%
G04 APERTURE LIST*
%ADD10C,0.300000*%
%ADD11C,0.200000*%
%ADD12C,0.010000*%
%ADD13C,0.120000*%
G04 APERTURE END LIST*
D10*
X51694134Y35585862D02*
X51194134Y35585862D01*
X50979848Y34800148D02*
X51694134Y34800148D01*
X51694134Y36300148D01*
X50979848Y36300148D01*
X50408420Y34871577D02*
X50194134Y34800148D01*
X49836991Y34800148D01*
X49694134Y34871577D01*
X49622705Y34943005D01*
X49551277Y35085862D01*
X49551277Y35228720D01*
X49622705Y35371577D01*
X49694134Y35443005D01*
X49836991Y35514434D01*
X50122705Y35585862D01*
X50265562Y35657291D01*
X50336991Y35728720D01*
X50408420Y35871577D01*
X50408420Y36014434D01*
X50336991Y36157291D01*
X50265562Y36228720D01*
X50122705Y36300148D01*
X49765562Y36300148D01*
X49551277Y36228720D01*
X48908420Y34800148D02*
X48908420Y36300148D01*
X48336991Y36300148D01*
X48194134Y36228720D01*
X48122705Y36157291D01*
X48051277Y36014434D01*
X48051277Y35800148D01*
X48122705Y35657291D01*
X48194134Y35585862D01*
X48336991Y35514434D01*
X48908420Y35514434D01*
X47551277Y36300148D02*
X46622705Y36300148D01*
X47122705Y35728720D01*
X46908420Y35728720D01*
X46765562Y35657291D01*
X46694134Y35585862D01*
X46622705Y35443005D01*
X46622705Y35085862D01*
X46694134Y34943005D01*
X46765562Y34871577D01*
X46908420Y34800148D01*
X47336991Y34800148D01*
X47479848Y34871577D01*
X47551277Y34943005D01*
X46051277Y36157291D02*
X45979848Y36228720D01*
X45836991Y36300148D01*
X45479848Y36300148D01*
X45336991Y36228720D01*
X45265562Y36157291D01*
X45194134Y36014434D01*
X45194134Y35871577D01*
X45265562Y35657291D01*
X46122705Y34800148D01*
X45194134Y34800148D01*
X42551277Y34943005D02*
X42622705Y34871577D01*
X42836991Y34800148D01*
X42979848Y34800148D01*
X43194134Y34871577D01*
X43336991Y35014434D01*
X43408420Y35157291D01*
X43479848Y35443005D01*
X43479848Y35657291D01*
X43408420Y35943005D01*
X43336991Y36085862D01*
X43194134Y36228720D01*
X42979848Y36300148D01*
X42836991Y36300148D01*
X42622705Y36228720D01*
X42551277Y36157291D01*
X41908420Y34800148D02*
X41908420Y36300148D01*
X41051277Y34800148D01*
X41051277Y36300148D01*
X39479848Y34943005D02*
X39551277Y34871577D01*
X39765562Y34800148D01*
X39908420Y34800148D01*
X40122705Y34871577D01*
X40265562Y35014434D01*
X40336991Y35157291D01*
X40408420Y35443005D01*
X40408420Y35657291D01*
X40336991Y35943005D01*
X40265562Y36085862D01*
X40122705Y36228720D01*
X39908420Y36300148D01*
X39765562Y36300148D01*
X39551277Y36228720D01*
X39479848Y36157291D01*
X37765562Y34871577D02*
X37551277Y34800148D01*
X37194134Y34800148D01*
X37051277Y34871577D01*
X36979848Y34943005D01*
X36908420Y35085862D01*
X36908420Y35228720D01*
X36979848Y35371577D01*
X37051277Y35443005D01*
X37194134Y35514434D01*
X37479848Y35585862D01*
X37622705Y35657291D01*
X37694134Y35728720D01*
X37765562Y35871577D01*
X37765562Y36014434D01*
X37694134Y36157291D01*
X37622705Y36228720D01*
X37479848Y36300148D01*
X37122705Y36300148D01*
X36908420Y36228720D01*
X36265562Y34800148D02*
X36265562Y36300148D01*
X36265562Y35585862D02*
X35408420Y35585862D01*
X35408420Y34800148D02*
X35408420Y36300148D01*
X34694134Y34800148D02*
X34694134Y36300148D01*
X33979848Y35585862D02*
X33479848Y35585862D01*
X33265562Y34800148D02*
X33979848Y34800148D01*
X33979848Y36300148D01*
X33265562Y36300148D01*
X31908420Y34800148D02*
X32622705Y34800148D01*
X32622705Y36300148D01*
X31408420Y34800148D02*
X31408420Y36300148D01*
X31051277Y36300148D01*
X30836991Y36228720D01*
X30694134Y36085862D01*
X30622705Y35943005D01*
X30551277Y35657291D01*
X30551277Y35443005D01*
X30622705Y35157291D01*
X30694134Y35014434D01*
X30836991Y34871577D01*
X31051277Y34800148D01*
X31408420Y34800148D01*
X28979848Y36300148D02*
X28479848Y34800148D01*
X27979848Y36300148D01*
X26694134Y34800148D02*
X27551277Y34800148D01*
X27122705Y34800148D02*
X27122705Y36300148D01*
X27265562Y36085862D01*
X27408420Y35943005D01*
X27551277Y35871577D01*
X26051277Y34943005D02*
X25979848Y34871577D01*
X26051277Y34800148D01*
X26122705Y34871577D01*
X26051277Y34943005D01*
X26051277Y34800148D01*
X25051277Y36300148D02*
X24908420Y36300148D01*
X24765562Y36228720D01*
X24694134Y36157291D01*
X24622705Y36014434D01*
X24551277Y35728720D01*
X24551277Y35371577D01*
X24622705Y35085862D01*
X24694134Y34943005D01*
X24765562Y34871577D01*
X24908420Y34800148D01*
X25051277Y34800148D01*
X25194134Y34871577D01*
X25265562Y34943005D01*
X25336991Y35085862D01*
X25408420Y35371577D01*
X25408420Y35728720D01*
X25336991Y36014434D01*
X25265562Y36157291D01*
X25194134Y36228720D01*
X25051277Y36300148D01*
D11*
X50770000Y6332404D02*
X50722380Y6427642D01*
X50722380Y6570500D01*
X50770000Y6713357D01*
X50865238Y6808595D01*
X50960476Y6856214D01*
X51150952Y6903833D01*
X51293809Y6903833D01*
X51484285Y6856214D01*
X51579523Y6808595D01*
X51674761Y6713357D01*
X51722380Y6570500D01*
X51722380Y6475261D01*
X51674761Y6332404D01*
X51627142Y6284785D01*
X51293809Y6284785D01*
X51293809Y6475261D01*
X51722380Y5856214D02*
X50722380Y5856214D01*
X51722380Y5284785D01*
X50722380Y5284785D01*
X51722380Y4808595D02*
X50722380Y4808595D01*
X50722380Y4570500D01*
X50770000Y4427642D01*
X50865238Y4332404D01*
X50960476Y4284785D01*
X51150952Y4237166D01*
X51293809Y4237166D01*
X51484285Y4284785D01*
X51579523Y4332404D01*
X51674761Y4427642D01*
X51722380Y4570500D01*
X51722380Y4808595D01*
X26513000Y6395904D02*
X26465380Y6491142D01*
X26465380Y6634000D01*
X26513000Y6776857D01*
X26608238Y6872095D01*
X26703476Y6919714D01*
X26893952Y6967333D01*
X27036809Y6967333D01*
X27227285Y6919714D01*
X27322523Y6872095D01*
X27417761Y6776857D01*
X27465380Y6634000D01*
X27465380Y6538761D01*
X27417761Y6395904D01*
X27370142Y6348285D01*
X27036809Y6348285D01*
X27036809Y6538761D01*
X27465380Y5919714D02*
X26465380Y5919714D01*
X27465380Y5348285D01*
X26465380Y5348285D01*
X27465380Y4872095D02*
X26465380Y4872095D01*
X26465380Y4634000D01*
X26513000Y4491142D01*
X26608238Y4395904D01*
X26703476Y4348285D01*
X26893952Y4300666D01*
X27036809Y4300666D01*
X27227285Y4348285D01*
X27322523Y4395904D01*
X27417761Y4491142D01*
X27465380Y4634000D01*
X27465380Y4872095D01*
X2248095Y6150000D02*
X2152857Y6102380D01*
X2010000Y6102380D01*
X1867142Y6150000D01*
X1771904Y6245238D01*
X1724285Y6340476D01*
X1676666Y6530952D01*
X1676666Y6673809D01*
X1724285Y6864285D01*
X1771904Y6959523D01*
X1867142Y7054761D01*
X2010000Y7102380D01*
X2105238Y7102380D01*
X2248095Y7054761D01*
X2295714Y7007142D01*
X2295714Y6673809D01*
X2105238Y6673809D01*
X2724285Y7102380D02*
X2724285Y6102380D01*
X3295714Y7102380D01*
X3295714Y6102380D01*
X3771904Y7102380D02*
X3771904Y6102380D01*
X4009999Y6102380D01*
X4152857Y6150000D01*
X4248095Y6245238D01*
X4295714Y6340476D01*
X4343333Y6530952D01*
X4343333Y6673809D01*
X4295714Y6864285D01*
X4248095Y6959523D01*
X4152857Y7054761D01*
X4010000Y7102380D01*
X3771904Y7102380D01*
X21575880Y6665761D02*
X22575880Y6332428D01*
X21575880Y5999095D01*
X22575880Y5665761D02*
X21575880Y5665761D01*
X22290166Y5332428D01*
X21575880Y4999095D01*
X22575880Y4999095D01*
X44435880Y7173761D02*
X45435880Y6840428D01*
X44435880Y6507095D01*
X45435880Y6173761D02*
X44435880Y6173761D01*
X45150166Y5840428D01*
X44435880Y5507095D01*
X45435880Y5507095D01*
X68629380Y7237261D02*
X69629380Y6903928D01*
X68629380Y6570595D01*
X69629380Y6237261D02*
X68629380Y6237261D01*
X69343666Y5903928D01*
X68629380Y5570595D01*
X69629380Y5570595D01*
X4795880Y26065000D02*
X3795880Y26065000D01*
X3795880Y25826904D01*
X3843500Y25684047D01*
X3938738Y25588809D01*
X4033976Y25541190D01*
X4224452Y25493571D01*
X4367309Y25493571D01*
X4557785Y25541190D01*
X4653023Y25588809D01*
X4748261Y25684047D01*
X4795880Y25826904D01*
X4795880Y26065000D01*
X4795880Y25065000D02*
X3795880Y25065000D01*
X4795880Y24017380D02*
X4319690Y24350714D01*
X4795880Y24588809D02*
X3795880Y24588809D01*
X3795880Y24207857D01*
X3843500Y24112619D01*
X3891119Y24065000D01*
X3986357Y24017380D01*
X4129214Y24017380D01*
X4224452Y24065000D01*
X4272071Y24112619D01*
X4319690Y24207857D01*
X4319690Y24588809D01*
X27592380Y26001500D02*
X26592380Y26001500D01*
X26592380Y25763404D01*
X26640000Y25620547D01*
X26735238Y25525309D01*
X26830476Y25477690D01*
X27020952Y25430071D01*
X27163809Y25430071D01*
X27354285Y25477690D01*
X27449523Y25525309D01*
X27544761Y25620547D01*
X27592380Y25763404D01*
X27592380Y26001500D01*
X27592380Y25001500D02*
X26592380Y25001500D01*
X27592380Y23953880D02*
X27116190Y24287214D01*
X27592380Y24525309D02*
X26592380Y24525309D01*
X26592380Y24144357D01*
X26640000Y24049119D01*
X26687619Y24001500D01*
X26782857Y23953880D01*
X26925714Y23953880D01*
X27020952Y24001500D01*
X27068571Y24049119D01*
X27116190Y24144357D01*
X27116190Y24525309D01*
X51658880Y26065000D02*
X50658880Y26065000D01*
X50658880Y25826904D01*
X50706500Y25684047D01*
X50801738Y25588809D01*
X50896976Y25541190D01*
X51087452Y25493571D01*
X51230309Y25493571D01*
X51420785Y25541190D01*
X51516023Y25588809D01*
X51611261Y25684047D01*
X51658880Y25826904D01*
X51658880Y26065000D01*
X51658880Y25065000D02*
X50658880Y25065000D01*
X51658880Y24017380D02*
X51182690Y24350714D01*
X51658880Y24588809D02*
X50658880Y24588809D01*
X50658880Y24207857D01*
X50706500Y24112619D01*
X50754119Y24065000D01*
X50849357Y24017380D01*
X50992214Y24017380D01*
X51087452Y24065000D01*
X51135071Y24112619D01*
X51182690Y24207857D01*
X51182690Y24588809D01*
X21988571Y25549095D02*
X21988571Y25215761D01*
X22512380Y25072904D02*
X22512380Y25549095D01*
X21512380Y25549095D01*
X21512380Y25072904D01*
X22512380Y24644333D02*
X21512380Y24644333D01*
X22512380Y24072904D01*
X21512380Y24072904D01*
X44848571Y25549095D02*
X44848571Y25215761D01*
X45372380Y25072904D02*
X45372380Y25549095D01*
X44372380Y25549095D01*
X44372380Y25072904D01*
X45372380Y24644333D02*
X44372380Y24644333D01*
X45372380Y24072904D01*
X44372380Y24072904D01*
X69042071Y25358595D02*
X69042071Y25025261D01*
X69565880Y24882404D02*
X69565880Y25358595D01*
X68565880Y25358595D01*
X68565880Y24882404D01*
X69565880Y24453833D02*
X68565880Y24453833D01*
X69565880Y23882404D01*
X68565880Y23882404D01*
D10*
X13670000Y2518428D02*
X12670000Y2518428D01*
X13670000Y1018428D01*
X12670000Y1018428D01*
X36030000Y1478714D02*
X36030000Y764428D01*
X36530000Y2264428D02*
X36030000Y1478714D01*
X35530000Y2264428D01*
X60660000Y2327928D02*
X59660000Y827928D01*
X59660000Y2327928D02*
X60660000Y827928D01*
D11*
X66962380Y26668214D02*
X65962380Y26668214D01*
X66676666Y26334880D01*
X65962380Y26001547D01*
X66962380Y26001547D01*
X66914761Y25572976D02*
X66962380Y25430119D01*
X66962380Y25192023D01*
X66914761Y25096785D01*
X66867142Y25049166D01*
X66771904Y25001547D01*
X66676666Y25001547D01*
X66581428Y25049166D01*
X66533809Y25096785D01*
X66486190Y25192023D01*
X66438571Y25382500D01*
X66390952Y25477738D01*
X66343333Y25525357D01*
X66248095Y25572976D01*
X66152857Y25572976D01*
X66057619Y25525357D01*
X66010000Y25477738D01*
X65962380Y25382500D01*
X65962380Y25144404D01*
X66010000Y25001547D01*
X65962380Y24382500D02*
X65962380Y24287261D01*
X66010000Y24192023D01*
X66057619Y24144404D01*
X66152857Y24096785D01*
X66343333Y24049166D01*
X66581428Y24049166D01*
X66771904Y24096785D01*
X66867142Y24144404D01*
X66914761Y24192023D01*
X66962380Y24287261D01*
X66962380Y24382500D01*
X66914761Y24477738D01*
X66867142Y24525357D01*
X66771904Y24572976D01*
X66581428Y24620595D01*
X66343333Y24620595D01*
X66152857Y24572976D01*
X66057619Y24525357D01*
X66010000Y24477738D01*
X65962380Y24382500D01*
X64358880Y26604714D02*
X63358880Y26604714D01*
X64073166Y26271380D01*
X63358880Y25938047D01*
X64358880Y25938047D01*
X64311261Y25509476D02*
X64358880Y25366619D01*
X64358880Y25128523D01*
X64311261Y25033285D01*
X64263642Y24985666D01*
X64168404Y24938047D01*
X64073166Y24938047D01*
X63977928Y24985666D01*
X63930309Y25033285D01*
X63882690Y25128523D01*
X63835071Y25319000D01*
X63787452Y25414238D01*
X63739833Y25461857D01*
X63644595Y25509476D01*
X63549357Y25509476D01*
X63454119Y25461857D01*
X63406500Y25414238D01*
X63358880Y25319000D01*
X63358880Y25080904D01*
X63406500Y24938047D01*
X64358880Y23985666D02*
X64358880Y24557095D01*
X64358880Y24271380D02*
X63358880Y24271380D01*
X63501738Y24366619D01*
X63596976Y24461857D01*
X63644595Y24557095D01*
X61945880Y26731714D02*
X60945880Y26731714D01*
X61660166Y26398380D01*
X60945880Y26065047D01*
X61945880Y26065047D01*
X61898261Y25636476D02*
X61945880Y25493619D01*
X61945880Y25255523D01*
X61898261Y25160285D01*
X61850642Y25112666D01*
X61755404Y25065047D01*
X61660166Y25065047D01*
X61564928Y25112666D01*
X61517309Y25160285D01*
X61469690Y25255523D01*
X61422071Y25446000D01*
X61374452Y25541238D01*
X61326833Y25588857D01*
X61231595Y25636476D01*
X61136357Y25636476D01*
X61041119Y25588857D01*
X60993500Y25541238D01*
X60945880Y25446000D01*
X60945880Y25207904D01*
X60993500Y25065047D01*
X61041119Y24684095D02*
X60993500Y24636476D01*
X60945880Y24541238D01*
X60945880Y24303142D01*
X60993500Y24207904D01*
X61041119Y24160285D01*
X61136357Y24112666D01*
X61231595Y24112666D01*
X61374452Y24160285D01*
X61945880Y24731714D01*
X61945880Y24112666D01*
X40292380Y26223714D02*
X39292380Y26223714D01*
X40006666Y25890380D01*
X39292380Y25557047D01*
X40292380Y25557047D01*
X40244761Y25128476D02*
X40292380Y24985619D01*
X40292380Y24747523D01*
X40244761Y24652285D01*
X40197142Y24604666D01*
X40101904Y24557047D01*
X40006666Y24557047D01*
X39911428Y24604666D01*
X39863809Y24652285D01*
X39816190Y24747523D01*
X39768571Y24938000D01*
X39720952Y25033238D01*
X39673333Y25080857D01*
X39578095Y25128476D01*
X39482857Y25128476D01*
X39387619Y25080857D01*
X39340000Y25033238D01*
X39292380Y24938000D01*
X39292380Y24699904D01*
X39340000Y24557047D01*
X40292380Y23604666D02*
X40292380Y24176095D01*
X40292380Y23890380D02*
X39292380Y23890380D01*
X39435238Y23985619D01*
X39530476Y24080857D01*
X39578095Y24176095D01*
X37815880Y26350714D02*
X36815880Y26350714D01*
X37530166Y26017380D01*
X36815880Y25684047D01*
X37815880Y25684047D01*
X37768261Y25255476D02*
X37815880Y25112619D01*
X37815880Y24874523D01*
X37768261Y24779285D01*
X37720642Y24731666D01*
X37625404Y24684047D01*
X37530166Y24684047D01*
X37434928Y24731666D01*
X37387309Y24779285D01*
X37339690Y24874523D01*
X37292071Y25065000D01*
X37244452Y25160238D01*
X37196833Y25207857D01*
X37101595Y25255476D01*
X37006357Y25255476D01*
X36911119Y25207857D01*
X36863500Y25160238D01*
X36815880Y25065000D01*
X36815880Y24826904D01*
X36863500Y24684047D01*
X36911119Y24303095D02*
X36863500Y24255476D01*
X36815880Y24160238D01*
X36815880Y23922142D01*
X36863500Y23826904D01*
X36911119Y23779285D01*
X37006357Y23731666D01*
X37101595Y23731666D01*
X37244452Y23779285D01*
X37815880Y24350714D01*
X37815880Y23731666D01*
X19972380Y26223714D02*
X18972380Y26223714D01*
X19686666Y25890380D01*
X18972380Y25557047D01*
X19972380Y25557047D01*
X19924761Y25128476D02*
X19972380Y24985619D01*
X19972380Y24747523D01*
X19924761Y24652285D01*
X19877142Y24604666D01*
X19781904Y24557047D01*
X19686666Y24557047D01*
X19591428Y24604666D01*
X19543809Y24652285D01*
X19496190Y24747523D01*
X19448571Y24938000D01*
X19400952Y25033238D01*
X19353333Y25080857D01*
X19258095Y25128476D01*
X19162857Y25128476D01*
X19067619Y25080857D01*
X19020000Y25033238D01*
X18972380Y24938000D01*
X18972380Y24699904D01*
X19020000Y24557047D01*
X18972380Y23938000D02*
X18972380Y23842761D01*
X19020000Y23747523D01*
X19067619Y23699904D01*
X19162857Y23652285D01*
X19353333Y23604666D01*
X19591428Y23604666D01*
X19781904Y23652285D01*
X19877142Y23699904D01*
X19924761Y23747523D01*
X19972380Y23842761D01*
X19972380Y23938000D01*
X19924761Y24033238D01*
X19877142Y24080857D01*
X19781904Y24128476D01*
X19591428Y24176095D01*
X19353333Y24176095D01*
X19162857Y24128476D01*
X19067619Y24080857D01*
X19020000Y24033238D01*
X18972380Y23938000D01*
X17495880Y26287214D02*
X16495880Y26287214D01*
X17210166Y25953880D01*
X16495880Y25620547D01*
X17495880Y25620547D01*
X17448261Y25191976D02*
X17495880Y25049119D01*
X17495880Y24811023D01*
X17448261Y24715785D01*
X17400642Y24668166D01*
X17305404Y24620547D01*
X17210166Y24620547D01*
X17114928Y24668166D01*
X17067309Y24715785D01*
X17019690Y24811023D01*
X16972071Y25001500D01*
X16924452Y25096738D01*
X16876833Y25144357D01*
X16781595Y25191976D01*
X16686357Y25191976D01*
X16591119Y25144357D01*
X16543500Y25096738D01*
X16495880Y25001500D01*
X16495880Y24763404D01*
X16543500Y24620547D01*
X17495880Y23668166D02*
X17495880Y24239595D01*
X17495880Y23953880D02*
X16495880Y23953880D01*
X16638738Y24049119D01*
X16733976Y24144357D01*
X16781595Y24239595D01*
X15019380Y26350714D02*
X14019380Y26350714D01*
X14733666Y26017380D01*
X14019380Y25684047D01*
X15019380Y25684047D01*
X14971761Y25255476D02*
X15019380Y25112619D01*
X15019380Y24874523D01*
X14971761Y24779285D01*
X14924142Y24731666D01*
X14828904Y24684047D01*
X14733666Y24684047D01*
X14638428Y24731666D01*
X14590809Y24779285D01*
X14543190Y24874523D01*
X14495571Y25065000D01*
X14447952Y25160238D01*
X14400333Y25207857D01*
X14305095Y25255476D01*
X14209857Y25255476D01*
X14114619Y25207857D01*
X14067000Y25160238D01*
X14019380Y25065000D01*
X14019380Y24826904D01*
X14067000Y24684047D01*
X14114619Y24303095D02*
X14067000Y24255476D01*
X14019380Y24160238D01*
X14019380Y23922142D01*
X14067000Y23826904D01*
X14114619Y23779285D01*
X14209857Y23731666D01*
X14305095Y23731666D01*
X14447952Y23779285D01*
X15019380Y24350714D01*
X15019380Y23731666D01*
X42895880Y26287214D02*
X41895880Y26287214D01*
X42610166Y25953880D01*
X41895880Y25620547D01*
X42895880Y25620547D01*
X42848261Y25191976D02*
X42895880Y25049119D01*
X42895880Y24811023D01*
X42848261Y24715785D01*
X42800642Y24668166D01*
X42705404Y24620547D01*
X42610166Y24620547D01*
X42514928Y24668166D01*
X42467309Y24715785D01*
X42419690Y24811023D01*
X42372071Y25001500D01*
X42324452Y25096738D01*
X42276833Y25144357D01*
X42181595Y25191976D01*
X42086357Y25191976D01*
X41991119Y25144357D01*
X41943500Y25096738D01*
X41895880Y25001500D01*
X41895880Y24763404D01*
X41943500Y24620547D01*
X41895880Y24001500D02*
X41895880Y23906261D01*
X41943500Y23811023D01*
X41991119Y23763404D01*
X42086357Y23715785D01*
X42276833Y23668166D01*
X42514928Y23668166D01*
X42705404Y23715785D01*
X42800642Y23763404D01*
X42848261Y23811023D01*
X42895880Y23906261D01*
X42895880Y24001500D01*
X42848261Y24096738D01*
X42800642Y24144357D01*
X42705404Y24191976D01*
X42514928Y24239595D01*
X42276833Y24239595D01*
X42086357Y24191976D01*
X41991119Y24144357D01*
X41943500Y24096738D01*
X41895880Y24001500D01*
X52158952Y66014571D02*
X51397047Y66014571D01*
X51778000Y65633619D02*
X51778000Y66395523D01*
X49364952Y66014571D02*
X48603047Y66014571D01*
X44538952Y65760571D02*
X43777047Y65760571D01*
X44158000Y65379619D02*
X44158000Y66141523D01*
X41744952Y65760571D02*
X40983047Y65760571D01*
X36664952Y65760571D02*
X35903047Y65760571D01*
X36284000Y65379619D02*
X36284000Y66141523D01*
X34124952Y65760571D02*
X33363047Y65760571D01*
X29298952Y65760571D02*
X28537047Y65760571D01*
X28918000Y65379619D02*
X28918000Y66141523D01*
X26504952Y65760571D02*
X25743047Y65760571D01*
X20972571Y65451047D02*
X20972571Y66212952D01*
X20591619Y65832000D02*
X21353523Y65832000D01*
X18630952Y65760571D02*
X17869047Y65760571D01*
X13860571Y65451047D02*
X13860571Y66212952D01*
X13479619Y65832000D02*
X14241523Y65832000D01*
X11264952Y65760571D02*
X10503047Y65760571D01*
X9376238Y71189761D02*
X9519095Y71237380D01*
X9757190Y71237380D01*
X9852428Y71189761D01*
X9900047Y71142142D01*
X9947666Y71046904D01*
X9947666Y70951666D01*
X9900047Y70856428D01*
X9852428Y70808809D01*
X9757190Y70761190D01*
X9566714Y70713571D01*
X9471476Y70665952D01*
X9423857Y70618333D01*
X9376238Y70523095D01*
X9376238Y70427857D01*
X9423857Y70332619D01*
X9471476Y70285000D01*
X9566714Y70237380D01*
X9804809Y70237380D01*
X9947666Y70285000D01*
X10376238Y71237380D02*
X10376238Y70237380D01*
X10757190Y70237380D01*
X10852428Y70285000D01*
X10900047Y70332619D01*
X10947666Y70427857D01*
X10947666Y70570714D01*
X10900047Y70665952D01*
X10852428Y70713571D01*
X10757190Y70761190D01*
X10376238Y70761190D01*
X11376238Y71237380D02*
X11376238Y70237380D01*
X11852428Y71237380D02*
X11852428Y70237380D01*
X12423857Y71237380D01*
X12423857Y70237380D01*
X12900047Y71237380D02*
X12900047Y70237380D01*
X13138142Y70237380D01*
X13281000Y70285000D01*
X13376238Y70380238D01*
X13423857Y70475476D01*
X13471476Y70665952D01*
X13471476Y70808809D01*
X13423857Y70999285D01*
X13376238Y71094523D01*
X13281000Y71189761D01*
X13138142Y71237380D01*
X12900047Y71237380D01*
X14376238Y71237380D02*
X13900047Y71237380D01*
X13900047Y70237380D01*
X14709571Y70713571D02*
X15042904Y70713571D01*
X15185761Y71237380D02*
X14709571Y71237380D01*
X14709571Y70237380D01*
X15185761Y70237380D01*
X18091428Y71110380D02*
X18091428Y70110380D01*
X18424761Y70824666D01*
X18758095Y70110380D01*
X18758095Y71110380D01*
X19234285Y71110380D02*
X19234285Y70110380D01*
X19662857Y71062761D02*
X19805714Y71110380D01*
X20043809Y71110380D01*
X20139047Y71062761D01*
X20186666Y71015142D01*
X20234285Y70919904D01*
X20234285Y70824666D01*
X20186666Y70729428D01*
X20139047Y70681809D01*
X20043809Y70634190D01*
X19853333Y70586571D01*
X19758095Y70538952D01*
X19710476Y70491333D01*
X19662857Y70396095D01*
X19662857Y70300857D01*
X19710476Y70205619D01*
X19758095Y70158000D01*
X19853333Y70110380D01*
X20091428Y70110380D01*
X20234285Y70158000D01*
X20520000Y70110380D02*
X21091428Y70110380D01*
X20805714Y71110380D02*
X20805714Y70110380D01*
X25481333Y70364380D02*
X26148000Y71364380D01*
X26148000Y70364380D02*
X25481333Y71364380D01*
X26528952Y70983428D02*
X27290857Y70983428D01*
X28243238Y71364380D02*
X27767047Y71364380D01*
X27767047Y70364380D01*
X28576571Y71364380D02*
X28576571Y70364380D01*
X29052761Y71364380D02*
X29052761Y70364380D01*
X29386095Y71078666D01*
X29719428Y70364380D01*
X29719428Y71364380D01*
X33355333Y70364380D02*
X34022000Y70364380D01*
X33355333Y71364380D01*
X34022000Y71364380D01*
X34402952Y70983428D02*
X35164857Y70983428D01*
X36117238Y71364380D02*
X35641047Y71364380D01*
X35641047Y70364380D01*
X36450571Y71364380D02*
X36450571Y70364380D01*
X36926761Y71364380D02*
X36926761Y70364380D01*
X37260095Y71078666D01*
X37593428Y70364380D01*
X37593428Y71364380D01*
X41562666Y70888190D02*
X41562666Y71364380D01*
X41229333Y70364380D02*
X41562666Y70888190D01*
X41896000Y70364380D01*
X42229333Y70983428D02*
X42991238Y70983428D01*
X43943619Y71364380D02*
X43467428Y71364380D01*
X43467428Y70364380D01*
X44276952Y71364380D02*
X44276952Y70364380D01*
X44753142Y71364380D02*
X44753142Y70364380D01*
X45086476Y71078666D01*
X45419809Y70364380D01*
X45419809Y71364380D01*
X48777904Y71237380D02*
X48777904Y70237380D01*
X49158857Y70237380D01*
X49254095Y70285000D01*
X49301714Y70332619D01*
X49349333Y70427857D01*
X49349333Y70570714D01*
X49301714Y70665952D01*
X49254095Y70713571D01*
X49158857Y70761190D01*
X48777904Y70761190D01*
X50349333Y71237380D02*
X50016000Y70761190D01*
X49777904Y71237380D02*
X49777904Y70237380D01*
X50158857Y70237380D01*
X50254095Y70285000D01*
X50301714Y70332619D01*
X50349333Y70427857D01*
X50349333Y70570714D01*
X50301714Y70665952D01*
X50254095Y70713571D01*
X50158857Y70761190D01*
X49777904Y70761190D01*
X50968380Y70237380D02*
X51158857Y70237380D01*
X51254095Y70285000D01*
X51349333Y70380238D01*
X51396952Y70570714D01*
X51396952Y70904047D01*
X51349333Y71094523D01*
X51254095Y71189761D01*
X51158857Y71237380D01*
X50968380Y71237380D01*
X50873142Y71189761D01*
X50777904Y71094523D01*
X50730285Y70904047D01*
X50730285Y70570714D01*
X50777904Y70380238D01*
X50873142Y70285000D01*
X50968380Y70237380D01*
X52158857Y70713571D02*
X52301714Y70761190D01*
X52349333Y70808809D01*
X52396952Y70904047D01*
X52396952Y71046904D01*
X52349333Y71142142D01*
X52301714Y71189761D01*
X52206476Y71237380D01*
X51825523Y71237380D01*
X51825523Y70237380D01*
X52158857Y70237380D01*
X52254095Y70285000D01*
X52301714Y70332619D01*
X52349333Y70427857D01*
X52349333Y70523095D01*
X52301714Y70618333D01*
X52254095Y70665952D01*
X52158857Y70713571D01*
X51825523Y70713571D01*
X52825523Y70713571D02*
X53158857Y70713571D01*
X53301714Y71237380D02*
X52825523Y71237380D01*
X52825523Y70237380D01*
X53301714Y70237380D01*
D10*
X69728642Y65133428D02*
X69728642Y63990571D01*
X63982000Y63291857D02*
X63910571Y63434714D01*
X63910571Y63649000D01*
X63982000Y63863285D01*
X64124857Y64006142D01*
X64267714Y64077571D01*
X64553428Y64149000D01*
X64767714Y64149000D01*
X65053428Y64077571D01*
X65196285Y64006142D01*
X65339142Y63863285D01*
X65410571Y63649000D01*
X65410571Y63506142D01*
X65339142Y63291857D01*
X65267714Y63220428D01*
X64767714Y63220428D01*
X64767714Y63506142D01*
X65410571Y62577571D02*
X63910571Y62577571D01*
X65410571Y61720428D01*
X63910571Y61720428D01*
X65410571Y61006142D02*
X63910571Y61006142D01*
X63910571Y60649000D01*
X63982000Y60434714D01*
X64124857Y60291857D01*
X64267714Y60220428D01*
X64553428Y60149000D01*
X64767714Y60149000D01*
X65053428Y60220428D01*
X65196285Y60291857D01*
X65339142Y60434714D01*
X65410571Y60649000D01*
X65410571Y61006142D01*
X64712142Y58949857D02*
X64712142Y57807000D01*
X65283571Y58378428D02*
X64140714Y58378428D01*
X63926428Y57164142D02*
X63855000Y57092714D01*
X63783571Y56949857D01*
X63783571Y56592714D01*
X63855000Y56449857D01*
X63926428Y56378428D01*
X64069285Y56307000D01*
X64212142Y56307000D01*
X64426428Y56378428D01*
X65283571Y57235571D01*
X65283571Y56307000D01*
X64283571Y55021285D02*
X65283571Y55021285D01*
X63712142Y55378428D02*
X64783571Y55735571D01*
X64783571Y54807000D01*
X63783571Y54449857D02*
X65283571Y53949857D01*
X63783571Y53449857D01*
X70256428Y52072357D02*
X69113571Y52072357D01*
X69685000Y51500928D02*
X69685000Y52643785D01*
X47184714Y49429142D02*
X46684714Y49429142D01*
X46470428Y48643428D02*
X47184714Y48643428D01*
X47184714Y50143428D01*
X46470428Y50143428D01*
X45898999Y48714857D02*
X45684714Y48643428D01*
X45327571Y48643428D01*
X45184714Y48714857D01*
X45113285Y48786285D01*
X45041857Y48929142D01*
X45041857Y49072000D01*
X45113285Y49214857D01*
X45184714Y49286285D01*
X45327571Y49357714D01*
X45613285Y49429142D01*
X45756142Y49500571D01*
X45827571Y49572000D01*
X45898999Y49714857D01*
X45898999Y49857714D01*
X45827571Y50000571D01*
X45756142Y50072000D01*
X45613285Y50143428D01*
X45256142Y50143428D01*
X45041857Y50072000D01*
X44398999Y48643428D02*
X44398999Y50143428D01*
X43827571Y50143428D01*
X43684714Y50072000D01*
X43613285Y50000571D01*
X43541857Y49857714D01*
X43541857Y49643428D01*
X43613285Y49500571D01*
X43684714Y49429142D01*
X43827571Y49357714D01*
X44398999Y49357714D01*
X43041857Y50143428D02*
X42113285Y50143428D01*
X42613285Y49572000D01*
X42398999Y49572000D01*
X42256142Y49500571D01*
X42184714Y49429142D01*
X42113285Y49286285D01*
X42113285Y48929142D01*
X42184714Y48786285D01*
X42256142Y48714857D01*
X42398999Y48643428D01*
X42827571Y48643428D01*
X42970428Y48714857D01*
X43041857Y48786285D01*
X41541857Y50000571D02*
X41470428Y50072000D01*
X41327571Y50143428D01*
X40970428Y50143428D01*
X40827571Y50072000D01*
X40756142Y50000571D01*
X40684714Y49857714D01*
X40684714Y49714857D01*
X40756142Y49500571D01*
X41613285Y48643428D01*
X40684714Y48643428D01*
X40041857Y49214857D02*
X38898999Y49214857D01*
X38327571Y50143428D02*
X37970428Y48643428D01*
X37684714Y49714857D01*
X37398999Y48643428D01*
X37041857Y50143428D01*
X35613285Y48643428D02*
X36113285Y49357714D01*
X36470428Y48643428D02*
X36470428Y50143428D01*
X35898999Y50143428D01*
X35756142Y50072000D01*
X35684714Y50000571D01*
X35613285Y49857714D01*
X35613285Y49643428D01*
X35684714Y49500571D01*
X35756142Y49429142D01*
X35898999Y49357714D01*
X36470428Y49357714D01*
X34684714Y50143428D02*
X34398999Y50143428D01*
X34256142Y50072000D01*
X34113285Y49929142D01*
X34041857Y49643428D01*
X34041857Y49143428D01*
X34113285Y48857714D01*
X34256142Y48714857D01*
X34398999Y48643428D01*
X34684714Y48643428D01*
X34827571Y48714857D01*
X34970428Y48857714D01*
X35041857Y49143428D01*
X35041857Y49643428D01*
X34970428Y49929142D01*
X34827571Y50072000D01*
X34684714Y50143428D01*
X33113285Y50143428D02*
X32827571Y50143428D01*
X32684714Y50072000D01*
X32541857Y49929142D01*
X32470428Y49643428D01*
X32470428Y49143428D01*
X32541857Y48857714D01*
X32684714Y48714857D01*
X32827571Y48643428D01*
X33113285Y48643428D01*
X33256142Y48714857D01*
X33398999Y48857714D01*
X33470428Y49143428D01*
X33470428Y49643428D01*
X33398999Y49929142D01*
X33256142Y50072000D01*
X33113285Y50143428D01*
X31827571Y48643428D02*
X31827571Y50143428D01*
X31327571Y49072000D01*
X30827571Y50143428D01*
X30827571Y48643428D01*
X30113285Y49214857D02*
X28970428Y49214857D01*
X28256142Y49429142D02*
X27756142Y49429142D01*
X27541857Y48643428D02*
X28256142Y48643428D01*
X28256142Y50143428D01*
X27541857Y50143428D01*
X26470428Y48072000D02*
X26541857Y48143428D01*
X26684714Y48357714D01*
X26756142Y48500571D01*
X26827571Y48714857D01*
X26898999Y49072000D01*
X26898999Y49357714D01*
X26827571Y49714857D01*
X26756142Y49929142D01*
X26684714Y50072000D01*
X26541857Y50286285D01*
X26470428Y50357714D01*
X25898999Y48643428D02*
X25898999Y50143428D01*
X25541857Y50143428D01*
X25327571Y50072000D01*
X25184714Y49929142D01*
X25113285Y49786285D01*
X25041857Y49500571D01*
X25041857Y49286285D01*
X25113285Y49000571D01*
X25184714Y48857714D01*
X25327571Y48714857D01*
X25541857Y48643428D01*
X25898999Y48643428D01*
X24541857Y48072000D02*
X24470428Y48143428D01*
X24327571Y48357714D01*
X24256142Y48500571D01*
X24184714Y48714857D01*
X24113285Y49072000D01*
X24113285Y49357714D01*
X24184714Y49714857D01*
X24256142Y49929142D01*
X24327571Y50072000D01*
X24470428Y50286285D01*
X24541857Y50357714D01*
X22667142Y46852857D02*
X22738571Y46638571D01*
X22738571Y46281428D01*
X22667142Y46138571D01*
X22595714Y46067142D01*
X22452857Y45995714D01*
X22310000Y45995714D01*
X22167142Y46067142D01*
X22095714Y46138571D01*
X22024285Y46281428D01*
X21952857Y46567142D01*
X21881428Y46710000D01*
X21810000Y46781428D01*
X21667142Y46852857D01*
X21524285Y46852857D01*
X21381428Y46781428D01*
X21310000Y46710000D01*
X21238571Y46567142D01*
X21238571Y46210000D01*
X21310000Y45995714D01*
X22738571Y45352857D02*
X21238571Y45352857D01*
X21238571Y44995714D01*
X21310000Y44781428D01*
X21452857Y44638571D01*
X21595714Y44567142D01*
X21881428Y44495714D01*
X22095714Y44495714D01*
X22381428Y44567142D01*
X22524285Y44638571D01*
X22667142Y44781428D01*
X22738571Y44995714D01*
X22738571Y45352857D01*
X22595714Y41852857D02*
X22667142Y41924285D01*
X22738571Y42138571D01*
X22738571Y42281428D01*
X22667142Y42495714D01*
X22524285Y42638571D01*
X22381428Y42710000D01*
X22095714Y42781428D01*
X21881428Y42781428D01*
X21595714Y42710000D01*
X21452857Y42638571D01*
X21310000Y42495714D01*
X21238571Y42281428D01*
X21238571Y42138571D01*
X21310000Y41924285D01*
X21381428Y41852857D01*
X22310000Y41281428D02*
X22310000Y40567142D01*
X22738571Y41424285D02*
X21238571Y40924285D01*
X22738571Y40424285D01*
X22738571Y39067142D02*
X22024285Y39567142D01*
X22738571Y39924285D02*
X21238571Y39924285D01*
X21238571Y39352857D01*
X21310000Y39210000D01*
X21381428Y39138571D01*
X21524285Y39067142D01*
X21738571Y39067142D01*
X21881428Y39138571D01*
X21952857Y39210000D01*
X22024285Y39352857D01*
X22024285Y39924285D01*
X22738571Y38424285D02*
X21238571Y38424285D01*
X21238571Y38067142D01*
X21310000Y37852857D01*
X21452857Y37710000D01*
X21595714Y37638571D01*
X21881428Y37567142D01*
X22095714Y37567142D01*
X22381428Y37638571D01*
X22524285Y37710000D01*
X22667142Y37852857D01*
X22738571Y38067142D01*
X22738571Y38424285D01*
X16214000Y34054285D02*
X16285428Y33982857D01*
X16499714Y33911428D01*
X16642571Y33911428D01*
X16856857Y33982857D01*
X16999714Y34125714D01*
X17071142Y34268571D01*
X17142571Y34554285D01*
X17142571Y34768571D01*
X17071142Y35054285D01*
X16999714Y35197142D01*
X16856857Y35340000D01*
X16642571Y35411428D01*
X16499714Y35411428D01*
X16285428Y35340000D01*
X16214000Y35268571D01*
X15642571Y33982857D02*
X15428285Y33911428D01*
X15071142Y33911428D01*
X14928285Y33982857D01*
X14856857Y34054285D01*
X14785428Y34197142D01*
X14785428Y34340000D01*
X14856857Y34482857D01*
X14928285Y34554285D01*
X15071142Y34625714D01*
X15356857Y34697142D01*
X15499714Y34768571D01*
X15571142Y34840000D01*
X15642571Y34982857D01*
X15642571Y35125714D01*
X15571142Y35268571D01*
X15499714Y35340000D01*
X15356857Y35411428D01*
X14999714Y35411428D01*
X14785428Y35340000D01*
X19337142Y36451428D02*
X19337142Y37951428D01*
X18837142Y36880000D01*
X18337142Y37951428D01*
X18337142Y36451428D01*
X17337142Y37951428D02*
X17051428Y37951428D01*
X16908571Y37880000D01*
X16765714Y37737142D01*
X16694285Y37451428D01*
X16694285Y36951428D01*
X16765714Y36665714D01*
X16908571Y36522857D01*
X17051428Y36451428D01*
X17337142Y36451428D01*
X17480000Y36522857D01*
X17622857Y36665714D01*
X17694285Y36951428D01*
X17694285Y37451428D01*
X17622857Y37737142D01*
X17480000Y37880000D01*
X17337142Y37951428D01*
X16122857Y36522857D02*
X15908571Y36451428D01*
X15551428Y36451428D01*
X15408571Y36522857D01*
X15337142Y36594285D01*
X15265714Y36737142D01*
X15265714Y36880000D01*
X15337142Y37022857D01*
X15408571Y37094285D01*
X15551428Y37165714D01*
X15837142Y37237142D01*
X15980000Y37308571D01*
X16051428Y37380000D01*
X16122857Y37522857D01*
X16122857Y37665714D01*
X16051428Y37808571D01*
X15980000Y37880000D01*
X15837142Y37951428D01*
X15480000Y37951428D01*
X15265714Y37880000D01*
X14622857Y36451428D02*
X14622857Y37951428D01*
X18837142Y40491428D02*
X17908571Y40491428D01*
X18408571Y39920000D01*
X18194285Y39920000D01*
X18051428Y39848571D01*
X17980000Y39777142D01*
X17908571Y39634285D01*
X17908571Y39277142D01*
X17980000Y39134285D01*
X18051428Y39062857D01*
X18194285Y38991428D01*
X18622857Y38991428D01*
X18765714Y39062857D01*
X18837142Y39134285D01*
X17480000Y40491428D02*
X16980000Y38991428D01*
X16480000Y40491428D01*
X16122857Y40491428D02*
X15194285Y40491428D01*
X15694285Y39920000D01*
X15480000Y39920000D01*
X15337142Y39848571D01*
X15265714Y39777142D01*
X15194285Y39634285D01*
X15194285Y39277142D01*
X15265714Y39134285D01*
X15337142Y39062857D01*
X15480000Y38991428D01*
X15908571Y38991428D01*
X16051428Y39062857D01*
X16122857Y39134285D01*
X18908571Y41602857D02*
X18694285Y41531428D01*
X18337142Y41531428D01*
X18194285Y41602857D01*
X18122857Y41674285D01*
X18051428Y41817142D01*
X18051428Y41960000D01*
X18122857Y42102857D01*
X18194285Y42174285D01*
X18337142Y42245714D01*
X18622857Y42317142D01*
X18765714Y42388571D01*
X18837142Y42460000D01*
X18908571Y42602857D01*
X18908571Y42745714D01*
X18837142Y42888571D01*
X18765714Y42960000D01*
X18622857Y43031428D01*
X18265714Y43031428D01*
X18051428Y42960000D01*
X16551428Y41674285D02*
X16622857Y41602857D01*
X16837142Y41531428D01*
X16980000Y41531428D01*
X17194285Y41602857D01*
X17337142Y41745714D01*
X17408571Y41888571D01*
X17480000Y42174285D01*
X17480000Y42388571D01*
X17408571Y42674285D01*
X17337142Y42817142D01*
X17194285Y42960000D01*
X16980000Y43031428D01*
X16837142Y43031428D01*
X16622857Y42960000D01*
X16551428Y42888571D01*
X15908571Y41531428D02*
X15908571Y43031428D01*
X15051428Y41531428D02*
X15694285Y42388571D01*
X15051428Y43031428D02*
X15908571Y42174285D01*
X18122857Y45754000D02*
X18265714Y45825428D01*
X18480000Y45825428D01*
X18694285Y45754000D01*
X18837142Y45611142D01*
X18908571Y45468285D01*
X18980000Y45182571D01*
X18980000Y44968285D01*
X18908571Y44682571D01*
X18837142Y44539714D01*
X18694285Y44396857D01*
X18480000Y44325428D01*
X18337142Y44325428D01*
X18122857Y44396857D01*
X18051428Y44468285D01*
X18051428Y44968285D01*
X18337142Y44968285D01*
X17408571Y44325428D02*
X17408571Y45825428D01*
X16551428Y44325428D01*
X16551428Y45825428D01*
X15837142Y44325428D02*
X15837142Y45825428D01*
X15480000Y45825428D01*
X15265714Y45754000D01*
X15122857Y45611142D01*
X15051428Y45468285D01*
X14980000Y45182571D01*
X14980000Y44968285D01*
X15051428Y44682571D01*
X15122857Y44539714D01*
X15265714Y44396857D01*
X15480000Y44325428D01*
X15837142Y44325428D01*
X19337142Y46611428D02*
X19337142Y48111428D01*
X18837142Y47040000D01*
X18337142Y48111428D01*
X18337142Y46611428D01*
X17622857Y46611428D02*
X17622857Y48111428D01*
X16980000Y46682857D02*
X16765714Y46611428D01*
X16408571Y46611428D01*
X16265714Y46682857D01*
X16194285Y46754285D01*
X16122857Y46897142D01*
X16122857Y47040000D01*
X16194285Y47182857D01*
X16265714Y47254285D01*
X16408571Y47325714D01*
X16694285Y47397142D01*
X16837142Y47468571D01*
X16908571Y47540000D01*
X16980000Y47682857D01*
X16980000Y47825714D01*
X16908571Y47968571D01*
X16837142Y48040000D01*
X16694285Y48111428D01*
X16337142Y48111428D01*
X16122857Y48040000D01*
X15194285Y48111428D02*
X14908571Y48111428D01*
X14765714Y48040000D01*
X14622857Y47897142D01*
X14551428Y47611428D01*
X14551428Y47111428D01*
X14622857Y46825714D01*
X14765714Y46682857D01*
X14908571Y46611428D01*
X15194285Y46611428D01*
X15337142Y46682857D01*
X15480000Y46825714D01*
X15551428Y47111428D01*
X15551428Y47611428D01*
X15480000Y47897142D01*
X15337142Y48040000D01*
X15194285Y48111428D01*
D12*
G36*
X64870191Y42778319D02*
G01*
X64835093Y42678856D01*
X64807852Y42596968D01*
X64792398Y42544704D01*
X64790320Y42533513D01*
X64813498Y42521310D01*
X64874189Y42512648D01*
X64957132Y42509440D01*
X65046083Y42510707D01*
X65094349Y42516686D01*
X65112023Y42530643D01*
X65109199Y42555846D01*
X65108403Y42558405D01*
X65092619Y42604684D01*
X65064704Y42683479D01*
X65030046Y42779622D01*
X65021462Y42803211D01*
X64950062Y42999053D01*
X64870191Y42778319D01*
G37*
X64870191Y42778319D02*
X64835093Y42678856D01*
X64807852Y42596968D01*
X64792398Y42544704D01*
X64790320Y42533513D01*
X64813498Y42521310D01*
X64874189Y42512648D01*
X64957132Y42509440D01*
X65046083Y42510707D01*
X65094349Y42516686D01*
X65112023Y42530643D01*
X65109199Y42555846D01*
X65108403Y42558405D01*
X65092619Y42604684D01*
X65064704Y42683479D01*
X65030046Y42779622D01*
X65021462Y42803211D01*
X64950062Y42999053D01*
X64870191Y42778319D01*
G36*
X56890920Y41328101D02*
G01*
X59405830Y40070953D01*
X59399325Y38088221D01*
X59392820Y36105488D01*
X58592720Y35698996D01*
X58381146Y35591528D01*
X58161650Y35480075D01*
X57943978Y35369585D01*
X57737874Y35265001D01*
X57553085Y35171270D01*
X57399354Y35093337D01*
X57341770Y35064165D01*
X56890920Y34835825D01*
X56890920Y31587440D01*
X69895720Y31587440D01*
X69895720Y33213040D01*
X69895527Y33495250D01*
X69894969Y33761921D01*
X69894079Y34008801D01*
X69892891Y34231640D01*
X69891438Y34426187D01*
X69889754Y34588192D01*
X69887871Y34713404D01*
X69885823Y34797572D01*
X69883644Y34836446D01*
X69882981Y34838640D01*
X69859175Y34827486D01*
X69792506Y34794874D01*
X69685539Y34742083D01*
X69540839Y34670390D01*
X69360972Y34581072D01*
X69148503Y34475408D01*
X68905996Y34354675D01*
X68636018Y34220150D01*
X68341134Y34073112D01*
X68023909Y33914837D01*
X67686909Y33746605D01*
X67332698Y33569691D01*
X66963842Y33385374D01*
X66644521Y33225740D01*
X66265344Y33036192D01*
X65898657Y32852973D01*
X65547026Y32677361D01*
X65213015Y32510635D01*
X64899190Y32354071D01*
X64608116Y32208948D01*
X64342358Y32076542D01*
X64104482Y31958133D01*
X63897053Y31854996D01*
X63722637Y31768411D01*
X63583798Y31699654D01*
X63483102Y31650004D01*
X63423114Y31620737D01*
X63406060Y31612840D01*
X63403548Y31637429D01*
X63401225Y31707946D01*
X63399138Y31819523D01*
X63397336Y31967288D01*
X63395867Y32146372D01*
X63394777Y32351903D01*
X63394115Y32579012D01*
X63393928Y32822829D01*
X63393939Y32851090D01*
X63394557Y34089340D01*
X63401203Y34092686D01*
X63367920Y34092686D01*
X63367920Y32850949D01*
X63367808Y32567085D01*
X63367383Y32330053D01*
X63366514Y32135883D01*
X63365068Y31980608D01*
X63362915Y31860259D01*
X63359922Y31770868D01*
X63355957Y31708467D01*
X63350889Y31669086D01*
X63344585Y31648759D01*
X63336915Y31643515D01*
X63328006Y31649126D01*
X63283184Y31682738D01*
X63258156Y31692048D01*
X63214557Y31692677D01*
X63209170Y31692048D01*
X63190385Y31707694D01*
X63190120Y31711359D01*
X63169173Y31733943D01*
X63119718Y31762042D01*
X63061842Y31786348D01*
X63015627Y31797558D01*
X63005970Y31796680D01*
X62987252Y31808920D01*
X62986920Y31812959D01*
X62965973Y31835543D01*
X62916518Y31863642D01*
X62858642Y31887948D01*
X62812427Y31899158D01*
X62802770Y31898280D01*
X62784200Y31910804D01*
X62783720Y31915929D01*
X62762739Y31939892D01*
X62715731Y31962883D01*
X62666605Y31974586D01*
X62650370Y31973473D01*
X62631629Y31986840D01*
X62631320Y31990759D01*
X62610373Y32013343D01*
X62560918Y32041442D01*
X62503042Y32065748D01*
X62456827Y32076958D01*
X62447170Y32076080D01*
X62428452Y32088320D01*
X62428120Y32092359D01*
X62407173Y32114943D01*
X62357718Y32143042D01*
X62299842Y32167348D01*
X62253627Y32178558D01*
X62243970Y32177680D01*
X62225252Y32189920D01*
X62224920Y32193959D01*
X62203973Y32216543D01*
X62154518Y32244642D01*
X62096642Y32268948D01*
X62050427Y32280158D01*
X62040770Y32279280D01*
X62022052Y32291520D01*
X62021720Y32295559D01*
X62000773Y32318143D01*
X61951318Y32346242D01*
X61893442Y32370548D01*
X61847227Y32381758D01*
X61837570Y32380880D01*
X61819000Y32393404D01*
X61818520Y32398529D01*
X61797539Y32422492D01*
X61750531Y32445483D01*
X61701405Y32457186D01*
X61685170Y32456073D01*
X61666960Y32470281D01*
X61666120Y32477940D01*
X61650560Y32493109D01*
X61640720Y32489140D01*
X61617272Y32490180D01*
X61615320Y32498630D01*
X61594314Y32523599D01*
X61547188Y32547205D01*
X61497786Y32558891D01*
X61481970Y32557673D01*
X61463229Y32571040D01*
X61462920Y32574959D01*
X61441973Y32597543D01*
X61392518Y32625642D01*
X61334642Y32649948D01*
X61288427Y32661158D01*
X61278770Y32660280D01*
X61260052Y32672520D01*
X61259720Y32676559D01*
X61238773Y32699143D01*
X61189318Y32727242D01*
X61131442Y32751548D01*
X61085227Y32762758D01*
X61075570Y32761880D01*
X61057000Y32774404D01*
X61056520Y32779529D01*
X61035539Y32803492D01*
X60988531Y32826483D01*
X60939405Y32838186D01*
X60923170Y32837073D01*
X60904960Y32851281D01*
X60904120Y32858940D01*
X60888560Y32874109D01*
X60878720Y32870140D01*
X60855272Y32871180D01*
X60853320Y32879630D01*
X60832314Y32904599D01*
X60785188Y32928205D01*
X60735786Y32939891D01*
X60719970Y32938673D01*
X60701229Y32952040D01*
X60700920Y32955959D01*
X60679973Y32978543D01*
X60630518Y33006642D01*
X60572642Y33030948D01*
X60526427Y33042158D01*
X60516770Y33041280D01*
X60498052Y33053520D01*
X60497720Y33057559D01*
X60476773Y33080143D01*
X60427318Y33108242D01*
X60369442Y33132548D01*
X60323227Y33143758D01*
X60313570Y33142880D01*
X60294852Y33155120D01*
X60294520Y33159159D01*
X60273573Y33181743D01*
X60224118Y33209842D01*
X60166242Y33234148D01*
X60120027Y33245358D01*
X60110370Y33244480D01*
X60091800Y33257004D01*
X60091320Y33262129D01*
X60070339Y33286092D01*
X60023331Y33309083D01*
X59974205Y33320786D01*
X59957970Y33319673D01*
X59939229Y33333040D01*
X59938920Y33336959D01*
X59918806Y33358904D01*
X59872454Y33385841D01*
X59820850Y33407750D01*
X59784982Y33414608D01*
X59780664Y33412521D01*
X59758941Y33421614D01*
X59716634Y33455769D01*
X59711285Y33460690D01*
X59632272Y33513308D01*
X59551697Y33520868D01*
X59551570Y33520848D01*
X59532785Y33536494D01*
X59532520Y33540159D01*
X59511573Y33562743D01*
X59462118Y33590842D01*
X59404242Y33615148D01*
X59358027Y33626358D01*
X59348370Y33625480D01*
X59329800Y33638004D01*
X59329320Y33643129D01*
X59308339Y33667092D01*
X59261331Y33690083D01*
X59212205Y33701786D01*
X59195970Y33700673D01*
X59177229Y33714040D01*
X59176920Y33717959D01*
X59155973Y33740543D01*
X59106518Y33768642D01*
X59048642Y33792948D01*
X59002427Y33804158D01*
X58992770Y33803280D01*
X58974052Y33815520D01*
X58973720Y33819559D01*
X58953024Y33841915D01*
X58904923Y33869590D01*
X58850402Y33892434D01*
X58810445Y33900302D01*
X58807786Y33899802D01*
X58780671Y33912922D01*
X58749547Y33941622D01*
X58674785Y33994260D01*
X58599070Y34007905D01*
X58569494Y34021237D01*
X58567320Y34028362D01*
X58546402Y34049523D01*
X58499702Y34070756D01*
X58451304Y34082433D01*
X58433970Y34081673D01*
X58415229Y34095040D01*
X58414920Y34098959D01*
X58393973Y34121543D01*
X58344518Y34149642D01*
X58286642Y34173948D01*
X58240427Y34185158D01*
X58230770Y34184280D01*
X58212052Y34196520D01*
X58211720Y34200559D01*
X58190773Y34223143D01*
X58141318Y34251242D01*
X58083442Y34275548D01*
X58037227Y34286758D01*
X58027570Y34285880D01*
X58008852Y34298120D01*
X58008520Y34302159D01*
X57987573Y34324743D01*
X57938118Y34352842D01*
X57880242Y34377148D01*
X57834027Y34388358D01*
X57824370Y34387480D01*
X57805800Y34400004D01*
X57805320Y34405129D01*
X57784339Y34429092D01*
X57737331Y34452083D01*
X57688205Y34463786D01*
X57671970Y34462673D01*
X57653229Y34476040D01*
X57652920Y34479959D01*
X57631973Y34502543D01*
X57582518Y34530642D01*
X57524642Y34554948D01*
X57478427Y34566158D01*
X57468770Y34565280D01*
X57450052Y34577520D01*
X57449720Y34581559D01*
X57428773Y34604143D01*
X57379318Y34632242D01*
X57321442Y34656548D01*
X57275227Y34667758D01*
X57265570Y34666880D01*
X57246852Y34679120D01*
X57246520Y34683159D01*
X57225937Y34704456D01*
X57177524Y34732922D01*
X57121287Y34758625D01*
X57077232Y34771631D01*
X57068720Y34771431D01*
X57043036Y34784621D01*
X57014036Y34809842D01*
X57007395Y34820173D01*
X57009575Y34832826D01*
X57023973Y34849697D01*
X57053984Y34872686D01*
X57103007Y34903690D01*
X57174438Y34944607D01*
X57271674Y34997335D01*
X57398113Y35063772D01*
X57557150Y35145817D01*
X57752184Y35245366D01*
X57986612Y35364319D01*
X58196698Y35470630D01*
X59421344Y36089919D01*
X59654179Y35968959D01*
X59749189Y35917011D01*
X59822777Y35871788D01*
X59866120Y35839030D01*
X59873548Y35826210D01*
X59879593Y35814311D01*
X59896385Y35818353D01*
X59936699Y35816445D01*
X59990126Y35795291D01*
X60040491Y35764399D01*
X60071617Y35733278D01*
X60072179Y35715010D01*
X60071032Y35705555D01*
X60083067Y35711191D01*
X60123403Y35715169D01*
X60173696Y35699864D01*
X60214879Y35674246D01*
X60227883Y35647287D01*
X60226300Y35643802D01*
X60227123Y35630466D01*
X60239515Y35636141D01*
X60277897Y35638755D01*
X60333007Y35622110D01*
X60387731Y35594559D01*
X60424956Y35564457D01*
X60430072Y35543128D01*
X60430088Y35528640D01*
X60441252Y35533637D01*
X60478656Y35535561D01*
X60533438Y35518516D01*
X60588422Y35490904D01*
X60626431Y35461126D01*
X60632408Y35440130D01*
X60633589Y35427087D01*
X60644633Y35432149D01*
X60679101Y35430913D01*
X60740100Y35410826D01*
X60814405Y35378457D01*
X60888790Y35340375D01*
X60950030Y35303150D01*
X60984899Y35273350D01*
X60987663Y35261771D01*
X60989300Y35249358D01*
X61000705Y35254641D01*
X61028739Y35247610D01*
X61095881Y35220096D01*
X61196688Y35174823D01*
X61325720Y35114517D01*
X61477534Y35041901D01*
X61646689Y34959703D01*
X61827744Y34870646D01*
X62015257Y34777457D01*
X62203786Y34682860D01*
X62387890Y34589580D01*
X62562128Y34500343D01*
X62721057Y34417874D01*
X62859236Y34344898D01*
X62971223Y34284140D01*
X63051578Y34238325D01*
X63094858Y34210179D01*
X63100770Y34202911D01*
X63105836Y34189417D01*
X63124146Y34193506D01*
X63167928Y34190655D01*
X63234039Y34166401D01*
X63265166Y34150438D01*
X63367920Y34092686D01*
X63401203Y34092686D01*
X65387654Y35092640D01*
X67380750Y36095940D01*
X67380935Y38081350D01*
X67381121Y40066759D01*
X68632071Y40700523D01*
X69883020Y41334286D01*
X69888663Y42740599D01*
X69245097Y42740599D01*
X69244925Y42599142D01*
X69231085Y42464812D01*
X69203608Y42356284D01*
X69203360Y42355640D01*
X69123071Y42215272D01*
X69003455Y42096845D01*
X68853169Y42005622D01*
X68680870Y41946865D01*
X68496434Y41925843D01*
X68384935Y41932502D01*
X68253431Y41950541D01*
X68130362Y41976055D01*
X68130192Y41976099D01*
X68036560Y42000900D01*
X67963928Y42021746D01*
X67924708Y42035022D01*
X67921397Y42036897D01*
X67919013Y42064497D01*
X67919387Y42133259D01*
X67922306Y42233632D01*
X67927555Y42356064D01*
X67929384Y42392438D01*
X67946444Y42721371D01*
X67017250Y42721371D01*
X67012808Y42519138D01*
X66966553Y42341293D01*
X66882768Y42190876D01*
X66765736Y42070927D01*
X66619740Y41984485D01*
X66449062Y41934589D01*
X66257986Y41924277D01*
X66050795Y41956590D01*
X65992624Y41973578D01*
X65675087Y41973578D01*
X65656042Y41962614D01*
X65597952Y41954503D01*
X65512555Y41950741D01*
X65494959Y41950640D01*
X65306364Y41950640D01*
X65259973Y42103857D01*
X65213583Y42257073D01*
X64947858Y42249907D01*
X64682133Y42242740D01*
X64640151Y42103040D01*
X64598170Y41963340D01*
X64402289Y41955925D01*
X64206408Y41948509D01*
X64270252Y42121025D01*
X64298342Y42196921D01*
X64340376Y42310484D01*
X64392662Y42451737D01*
X64451507Y42610707D01*
X64513220Y42777418D01*
X64531552Y42826940D01*
X64729009Y43360340D01*
X64943815Y43367430D01*
X65113804Y43373040D01*
X64002920Y43373040D01*
X64002920Y41950640D01*
X63672720Y41950640D01*
X63672720Y42420540D01*
X63671745Y42568617D01*
X63669031Y42697400D01*
X63664900Y42799012D01*
X63659671Y42865575D01*
X63653670Y42889212D01*
X63635366Y42868160D01*
X63594842Y42809945D01*
X63536204Y42720851D01*
X63463560Y42607160D01*
X63381015Y42475156D01*
X63346561Y42419312D01*
X63058502Y41950640D01*
X62707520Y41950640D01*
X62707520Y42723324D01*
X61762049Y42723324D01*
X61759174Y42525054D01*
X61720631Y42358099D01*
X61644103Y42215459D01*
X61563508Y42123228D01*
X61448234Y42028791D01*
X61327326Y41968749D01*
X61187779Y41938830D01*
X61016587Y41934762D01*
X60993020Y41935823D01*
X60876596Y41946979D01*
X60855192Y41950640D01*
X60269120Y41950640D01*
X59940017Y41950640D01*
X59933119Y42437673D01*
X59926220Y42924706D01*
X59324666Y41950640D01*
X58973720Y41950640D01*
X58973720Y42738518D01*
X58682241Y42738518D01*
X58681824Y42569177D01*
X58651495Y42404281D01*
X58591415Y42252713D01*
X58501745Y42123354D01*
X58382646Y42025087D01*
X58358596Y42011647D01*
X58217940Y41961123D01*
X58049856Y41936742D01*
X57870710Y41938903D01*
X57696865Y41968001D01*
X57614820Y41993602D01*
X57487820Y42040943D01*
X57472650Y42388993D01*
X57556435Y42333237D01*
X57683082Y42258996D01*
X57794295Y42219026D01*
X57906675Y42208172D01*
X57951674Y42210487D01*
X58092368Y42241881D01*
X58198351Y42310052D01*
X58269882Y42415325D01*
X58307221Y42558023D01*
X58313320Y42661840D01*
X58296448Y42827091D01*
X58245609Y42954684D01*
X58160471Y43045034D01*
X58040702Y43098554D01*
X57950682Y43113277D01*
X57852713Y43114838D01*
X57769477Y43096469D01*
X57684726Y43058787D01*
X57611004Y43018506D01*
X57557070Y42983636D01*
X57538919Y42967123D01*
X57510400Y42939964D01*
X57489718Y42961149D01*
X57477784Y43028700D01*
X57475120Y43105688D01*
X57476713Y43195659D01*
X57484914Y43249214D01*
X57504858Y43280716D01*
X57541680Y43304530D01*
X57547251Y43307436D01*
X57698461Y43361402D01*
X57873911Y43385446D01*
X58057151Y43380055D01*
X58231728Y43345718D01*
X58381192Y43282921D01*
X58381583Y43282692D01*
X58502418Y43184392D01*
X58592699Y43055008D01*
X58652586Y42903422D01*
X58682241Y42738518D01*
X58973720Y42738518D01*
X58973720Y43373040D01*
X59302662Y43373040D01*
X59316620Y42561112D01*
X59826610Y43360340D01*
X60269120Y43375018D01*
X60269120Y41950640D01*
X60855192Y41950640D01*
X60762121Y41966559D01*
X60673289Y41990455D01*
X60669170Y41991983D01*
X60548520Y42037798D01*
X60548520Y42210119D01*
X60552083Y42312198D01*
X60563983Y42367272D01*
X60586041Y42378716D01*
X60620077Y42349903D01*
X60622410Y42347124D01*
X60661239Y42317756D01*
X60729647Y42280085D01*
X60783082Y42255298D01*
X60925546Y42215708D01*
X61066388Y42215850D01*
X61192085Y42254997D01*
X61232329Y42279423D01*
X61308644Y42362663D01*
X61359916Y42478138D01*
X61384081Y42612774D01*
X61379069Y42753496D01*
X61342816Y42887233D01*
X61332157Y42910914D01*
X61255774Y43016287D01*
X61151462Y43083903D01*
X61026651Y43112478D01*
X60888771Y43100730D01*
X60745250Y43047375D01*
X60697903Y43020411D01*
X60628116Y42978096D01*
X60577455Y42949369D01*
X60559533Y42941240D01*
X60553914Y42964411D01*
X60549946Y43025013D01*
X60548520Y43105688D01*
X60550113Y43195659D01*
X60558314Y43249214D01*
X60578258Y43280716D01*
X60615080Y43304530D01*
X60620651Y43307436D01*
X60713577Y43341664D01*
X60837378Y43369083D01*
X60972282Y43386785D01*
X61098513Y43391861D01*
X61163972Y43387362D01*
X61349727Y43340339D01*
X61504102Y43254220D01*
X61624788Y43131569D01*
X61709475Y42974951D01*
X61755854Y42786929D01*
X61762049Y42723324D01*
X62707520Y42723324D01*
X62707520Y43373040D01*
X63037720Y43373040D01*
X63037720Y42977841D01*
X63038948Y42843853D01*
X63042337Y42730938D01*
X63047448Y42647355D01*
X63053840Y42601361D01*
X63058104Y42595240D01*
X63077602Y42619898D01*
X63119145Y42680560D01*
X63178007Y42770057D01*
X63249464Y42881217D01*
X63318454Y42990371D01*
X63558420Y43372905D01*
X63780670Y43372973D01*
X64002920Y43373040D01*
X65113804Y43373040D01*
X65158620Y43374519D01*
X65412620Y42685517D01*
X65477902Y42508436D01*
X65537553Y42346627D01*
X65589289Y42206292D01*
X65630824Y42093630D01*
X65659872Y42014842D01*
X65674147Y41976127D01*
X65675087Y41973578D01*
X65992624Y41973578D01*
X65971954Y41979614D01*
X65806320Y42033988D01*
X65806320Y42208214D01*
X65807789Y42294871D01*
X65811648Y42357258D01*
X65817076Y42382393D01*
X65817333Y42382440D01*
X65843070Y42370100D01*
X65898528Y42338109D01*
X65955703Y42303270D01*
X66105197Y42233536D01*
X66247674Y42209978D01*
X66377122Y42229467D01*
X66487529Y42288874D01*
X66572884Y42385069D01*
X66627176Y42514924D01*
X66644520Y42661840D01*
X66626075Y42806050D01*
X66574889Y42935321D01*
X66497185Y43035400D01*
X66472701Y43055395D01*
X66407387Y43088508D01*
X66318999Y43103904D01*
X66248578Y43106195D01*
X66147222Y43101235D01*
X66067910Y43080890D01*
X65983254Y43037309D01*
X65961140Y43023790D01*
X65889813Y42980476D01*
X65837437Y42950584D01*
X65817333Y42941240D01*
X65811895Y42964492D01*
X65807960Y43025662D01*
X65806328Y43111873D01*
X65806320Y43118331D01*
X65806320Y43295421D01*
X65952370Y43339370D01*
X66084748Y43367480D01*
X66234533Y43380839D01*
X66384581Y43379480D01*
X66517743Y43363434D01*
X66605053Y43338182D01*
X66763681Y43246550D01*
X66883622Y43123350D01*
X66965852Y42967120D01*
X67011350Y42776394D01*
X67017250Y42721371D01*
X67946444Y42721371D01*
X67947309Y42738040D01*
X68574920Y42738040D01*
X68574920Y42458640D01*
X68295520Y42458640D01*
X68295520Y42173323D01*
X68460347Y42183818D01*
X68593219Y42203033D01*
X68694210Y42246660D01*
X68779663Y42323141D01*
X68814651Y42366823D01*
X68841856Y42412626D01*
X68857913Y42469246D01*
X68865420Y42550691D01*
X68867020Y42649140D01*
X68864709Y42762457D01*
X68856042Y42839120D01*
X68838421Y42893137D01*
X68814651Y42931458D01*
X68732938Y43022701D01*
X68643759Y43078551D01*
X68530929Y43107199D01*
X68453459Y43114300D01*
X68360408Y43117067D01*
X68289864Y43109678D01*
X68221300Y43087218D01*
X68134187Y43044772D01*
X68110200Y43032107D01*
X67937580Y42940386D01*
X67952620Y43280976D01*
X68092320Y43330581D01*
X68237178Y43366524D01*
X68403470Y43383335D01*
X68573682Y43381164D01*
X68730300Y43360160D01*
X68847758Y43324141D01*
X68983787Y43241436D01*
X69104212Y43126231D01*
X69192920Y42994520D01*
X69204323Y42970185D01*
X69231573Y42870505D01*
X69245097Y42740599D01*
X69888663Y42740599D01*
X69889557Y42963263D01*
X69896093Y44592240D01*
X56890920Y44592240D01*
X56890920Y41328101D01*
G37*
X56890920Y41328101D02*
X59405830Y40070953D01*
X59399325Y38088221D01*
X59392820Y36105488D01*
X58592720Y35698996D01*
X58381146Y35591528D01*
X58161650Y35480075D01*
X57943978Y35369585D01*
X57737874Y35265001D01*
X57553085Y35171270D01*
X57399354Y35093337D01*
X57341770Y35064165D01*
X56890920Y34835825D01*
X56890920Y31587440D01*
X69895720Y31587440D01*
X69895720Y33213040D01*
X69895527Y33495250D01*
X69894969Y33761921D01*
X69894079Y34008801D01*
X69892891Y34231640D01*
X69891438Y34426187D01*
X69889754Y34588192D01*
X69887871Y34713404D01*
X69885823Y34797572D01*
X69883644Y34836446D01*
X69882981Y34838640D01*
X69859175Y34827486D01*
X69792506Y34794874D01*
X69685539Y34742083D01*
X69540839Y34670390D01*
X69360972Y34581072D01*
X69148503Y34475408D01*
X68905996Y34354675D01*
X68636018Y34220150D01*
X68341134Y34073112D01*
X68023909Y33914837D01*
X67686909Y33746605D01*
X67332698Y33569691D01*
X66963842Y33385374D01*
X66644521Y33225740D01*
X66265344Y33036192D01*
X65898657Y32852973D01*
X65547026Y32677361D01*
X65213015Y32510635D01*
X64899190Y32354071D01*
X64608116Y32208948D01*
X64342358Y32076542D01*
X64104482Y31958133D01*
X63897053Y31854996D01*
X63722637Y31768411D01*
X63583798Y31699654D01*
X63483102Y31650004D01*
X63423114Y31620737D01*
X63406060Y31612840D01*
X63403548Y31637429D01*
X63401225Y31707946D01*
X63399138Y31819523D01*
X63397336Y31967288D01*
X63395867Y32146372D01*
X63394777Y32351903D01*
X63394115Y32579012D01*
X63393928Y32822829D01*
X63393939Y32851090D01*
X63394557Y34089340D01*
X63401203Y34092686D01*
X63367920Y34092686D01*
X63367920Y32850949D01*
X63367808Y32567085D01*
X63367383Y32330053D01*
X63366514Y32135883D01*
X63365068Y31980608D01*
X63362915Y31860259D01*
X63359922Y31770868D01*
X63355957Y31708467D01*
X63350889Y31669086D01*
X63344585Y31648759D01*
X63336915Y31643515D01*
X63328006Y31649126D01*
X63283184Y31682738D01*
X63258156Y31692048D01*
X63214557Y31692677D01*
X63209170Y31692048D01*
X63190385Y31707694D01*
X63190120Y31711359D01*
X63169173Y31733943D01*
X63119718Y31762042D01*
X63061842Y31786348D01*
X63015627Y31797558D01*
X63005970Y31796680D01*
X62987252Y31808920D01*
X62986920Y31812959D01*
X62965973Y31835543D01*
X62916518Y31863642D01*
X62858642Y31887948D01*
X62812427Y31899158D01*
X62802770Y31898280D01*
X62784200Y31910804D01*
X62783720Y31915929D01*
X62762739Y31939892D01*
X62715731Y31962883D01*
X62666605Y31974586D01*
X62650370Y31973473D01*
X62631629Y31986840D01*
X62631320Y31990759D01*
X62610373Y32013343D01*
X62560918Y32041442D01*
X62503042Y32065748D01*
X62456827Y32076958D01*
X62447170Y32076080D01*
X62428452Y32088320D01*
X62428120Y32092359D01*
X62407173Y32114943D01*
X62357718Y32143042D01*
X62299842Y32167348D01*
X62253627Y32178558D01*
X62243970Y32177680D01*
X62225252Y32189920D01*
X62224920Y32193959D01*
X62203973Y32216543D01*
X62154518Y32244642D01*
X62096642Y32268948D01*
X62050427Y32280158D01*
X62040770Y32279280D01*
X62022052Y32291520D01*
X62021720Y32295559D01*
X62000773Y32318143D01*
X61951318Y32346242D01*
X61893442Y32370548D01*
X61847227Y32381758D01*
X61837570Y32380880D01*
X61819000Y32393404D01*
X61818520Y32398529D01*
X61797539Y32422492D01*
X61750531Y32445483D01*
X61701405Y32457186D01*
X61685170Y32456073D01*
X61666960Y32470281D01*
X61666120Y32477940D01*
X61650560Y32493109D01*
X61640720Y32489140D01*
X61617272Y32490180D01*
X61615320Y32498630D01*
X61594314Y32523599D01*
X61547188Y32547205D01*
X61497786Y32558891D01*
X61481970Y32557673D01*
X61463229Y32571040D01*
X61462920Y32574959D01*
X61441973Y32597543D01*
X61392518Y32625642D01*
X61334642Y32649948D01*
X61288427Y32661158D01*
X61278770Y32660280D01*
X61260052Y32672520D01*
X61259720Y32676559D01*
X61238773Y32699143D01*
X61189318Y32727242D01*
X61131442Y32751548D01*
X61085227Y32762758D01*
X61075570Y32761880D01*
X61057000Y32774404D01*
X61056520Y32779529D01*
X61035539Y32803492D01*
X60988531Y32826483D01*
X60939405Y32838186D01*
X60923170Y32837073D01*
X60904960Y32851281D01*
X60904120Y32858940D01*
X60888560Y32874109D01*
X60878720Y32870140D01*
X60855272Y32871180D01*
X60853320Y32879630D01*
X60832314Y32904599D01*
X60785188Y32928205D01*
X60735786Y32939891D01*
X60719970Y32938673D01*
X60701229Y32952040D01*
X60700920Y32955959D01*
X60679973Y32978543D01*
X60630518Y33006642D01*
X60572642Y33030948D01*
X60526427Y33042158D01*
X60516770Y33041280D01*
X60498052Y33053520D01*
X60497720Y33057559D01*
X60476773Y33080143D01*
X60427318Y33108242D01*
X60369442Y33132548D01*
X60323227Y33143758D01*
X60313570Y33142880D01*
X60294852Y33155120D01*
X60294520Y33159159D01*
X60273573Y33181743D01*
X60224118Y33209842D01*
X60166242Y33234148D01*
X60120027Y33245358D01*
X60110370Y33244480D01*
X60091800Y33257004D01*
X60091320Y33262129D01*
X60070339Y33286092D01*
X60023331Y33309083D01*
X59974205Y33320786D01*
X59957970Y33319673D01*
X59939229Y33333040D01*
X59938920Y33336959D01*
X59918806Y33358904D01*
X59872454Y33385841D01*
X59820850Y33407750D01*
X59784982Y33414608D01*
X59780664Y33412521D01*
X59758941Y33421614D01*
X59716634Y33455769D01*
X59711285Y33460690D01*
X59632272Y33513308D01*
X59551697Y33520868D01*
X59551570Y33520848D01*
X59532785Y33536494D01*
X59532520Y33540159D01*
X59511573Y33562743D01*
X59462118Y33590842D01*
X59404242Y33615148D01*
X59358027Y33626358D01*
X59348370Y33625480D01*
X59329800Y33638004D01*
X59329320Y33643129D01*
X59308339Y33667092D01*
X59261331Y33690083D01*
X59212205Y33701786D01*
X59195970Y33700673D01*
X59177229Y33714040D01*
X59176920Y33717959D01*
X59155973Y33740543D01*
X59106518Y33768642D01*
X59048642Y33792948D01*
X59002427Y33804158D01*
X58992770Y33803280D01*
X58974052Y33815520D01*
X58973720Y33819559D01*
X58953024Y33841915D01*
X58904923Y33869590D01*
X58850402Y33892434D01*
X58810445Y33900302D01*
X58807786Y33899802D01*
X58780671Y33912922D01*
X58749547Y33941622D01*
X58674785Y33994260D01*
X58599070Y34007905D01*
X58569494Y34021237D01*
X58567320Y34028362D01*
X58546402Y34049523D01*
X58499702Y34070756D01*
X58451304Y34082433D01*
X58433970Y34081673D01*
X58415229Y34095040D01*
X58414920Y34098959D01*
X58393973Y34121543D01*
X58344518Y34149642D01*
X58286642Y34173948D01*
X58240427Y34185158D01*
X58230770Y34184280D01*
X58212052Y34196520D01*
X58211720Y34200559D01*
X58190773Y34223143D01*
X58141318Y34251242D01*
X58083442Y34275548D01*
X58037227Y34286758D01*
X58027570Y34285880D01*
X58008852Y34298120D01*
X58008520Y34302159D01*
X57987573Y34324743D01*
X57938118Y34352842D01*
X57880242Y34377148D01*
X57834027Y34388358D01*
X57824370Y34387480D01*
X57805800Y34400004D01*
X57805320Y34405129D01*
X57784339Y34429092D01*
X57737331Y34452083D01*
X57688205Y34463786D01*
X57671970Y34462673D01*
X57653229Y34476040D01*
X57652920Y34479959D01*
X57631973Y34502543D01*
X57582518Y34530642D01*
X57524642Y34554948D01*
X57478427Y34566158D01*
X57468770Y34565280D01*
X57450052Y34577520D01*
X57449720Y34581559D01*
X57428773Y34604143D01*
X57379318Y34632242D01*
X57321442Y34656548D01*
X57275227Y34667758D01*
X57265570Y34666880D01*
X57246852Y34679120D01*
X57246520Y34683159D01*
X57225937Y34704456D01*
X57177524Y34732922D01*
X57121287Y34758625D01*
X57077232Y34771631D01*
X57068720Y34771431D01*
X57043036Y34784621D01*
X57014036Y34809842D01*
X57007395Y34820173D01*
X57009575Y34832826D01*
X57023973Y34849697D01*
X57053984Y34872686D01*
X57103007Y34903690D01*
X57174438Y34944607D01*
X57271674Y34997335D01*
X57398113Y35063772D01*
X57557150Y35145817D01*
X57752184Y35245366D01*
X57986612Y35364319D01*
X58196698Y35470630D01*
X59421344Y36089919D01*
X59654179Y35968959D01*
X59749189Y35917011D01*
X59822777Y35871788D01*
X59866120Y35839030D01*
X59873548Y35826210D01*
X59879593Y35814311D01*
X59896385Y35818353D01*
X59936699Y35816445D01*
X59990126Y35795291D01*
X60040491Y35764399D01*
X60071617Y35733278D01*
X60072179Y35715010D01*
X60071032Y35705555D01*
X60083067Y35711191D01*
X60123403Y35715169D01*
X60173696Y35699864D01*
X60214879Y35674246D01*
X60227883Y35647287D01*
X60226300Y35643802D01*
X60227123Y35630466D01*
X60239515Y35636141D01*
X60277897Y35638755D01*
X60333007Y35622110D01*
X60387731Y35594559D01*
X60424956Y35564457D01*
X60430072Y35543128D01*
X60430088Y35528640D01*
X60441252Y35533637D01*
X60478656Y35535561D01*
X60533438Y35518516D01*
X60588422Y35490904D01*
X60626431Y35461126D01*
X60632408Y35440130D01*
X60633589Y35427087D01*
X60644633Y35432149D01*
X60679101Y35430913D01*
X60740100Y35410826D01*
X60814405Y35378457D01*
X60888790Y35340375D01*
X60950030Y35303150D01*
X60984899Y35273350D01*
X60987663Y35261771D01*
X60989300Y35249358D01*
X61000705Y35254641D01*
X61028739Y35247610D01*
X61095881Y35220096D01*
X61196688Y35174823D01*
X61325720Y35114517D01*
X61477534Y35041901D01*
X61646689Y34959703D01*
X61827744Y34870646D01*
X62015257Y34777457D01*
X62203786Y34682860D01*
X62387890Y34589580D01*
X62562128Y34500343D01*
X62721057Y34417874D01*
X62859236Y34344898D01*
X62971223Y34284140D01*
X63051578Y34238325D01*
X63094858Y34210179D01*
X63100770Y34202911D01*
X63105836Y34189417D01*
X63124146Y34193506D01*
X63167928Y34190655D01*
X63234039Y34166401D01*
X63265166Y34150438D01*
X63367920Y34092686D01*
X63401203Y34092686D01*
X65387654Y35092640D01*
X67380750Y36095940D01*
X67380935Y38081350D01*
X67381121Y40066759D01*
X68632071Y40700523D01*
X69883020Y41334286D01*
X69888663Y42740599D01*
X69245097Y42740599D01*
X69244925Y42599142D01*
X69231085Y42464812D01*
X69203608Y42356284D01*
X69203360Y42355640D01*
X69123071Y42215272D01*
X69003455Y42096845D01*
X68853169Y42005622D01*
X68680870Y41946865D01*
X68496434Y41925843D01*
X68384935Y41932502D01*
X68253431Y41950541D01*
X68130362Y41976055D01*
X68130192Y41976099D01*
X68036560Y42000900D01*
X67963928Y42021746D01*
X67924708Y42035022D01*
X67921397Y42036897D01*
X67919013Y42064497D01*
X67919387Y42133259D01*
X67922306Y42233632D01*
X67927555Y42356064D01*
X67929384Y42392438D01*
X67946444Y42721371D01*
X67017250Y42721371D01*
X67012808Y42519138D01*
X66966553Y42341293D01*
X66882768Y42190876D01*
X66765736Y42070927D01*
X66619740Y41984485D01*
X66449062Y41934589D01*
X66257986Y41924277D01*
X66050795Y41956590D01*
X65992624Y41973578D01*
X65675087Y41973578D01*
X65656042Y41962614D01*
X65597952Y41954503D01*
X65512555Y41950741D01*
X65494959Y41950640D01*
X65306364Y41950640D01*
X65259973Y42103857D01*
X65213583Y42257073D01*
X64947858Y42249907D01*
X64682133Y42242740D01*
X64640151Y42103040D01*
X64598170Y41963340D01*
X64402289Y41955925D01*
X64206408Y41948509D01*
X64270252Y42121025D01*
X64298342Y42196921D01*
X64340376Y42310484D01*
X64392662Y42451737D01*
X64451507Y42610707D01*
X64513220Y42777418D01*
X64531552Y42826940D01*
X64729009Y43360340D01*
X64943815Y43367430D01*
X65113804Y43373040D01*
X64002920Y43373040D01*
X64002920Y41950640D01*
X63672720Y41950640D01*
X63672720Y42420540D01*
X63671745Y42568617D01*
X63669031Y42697400D01*
X63664900Y42799012D01*
X63659671Y42865575D01*
X63653670Y42889212D01*
X63635366Y42868160D01*
X63594842Y42809945D01*
X63536204Y42720851D01*
X63463560Y42607160D01*
X63381015Y42475156D01*
X63346561Y42419312D01*
X63058502Y41950640D01*
X62707520Y41950640D01*
X62707520Y42723324D01*
X61762049Y42723324D01*
X61759174Y42525054D01*
X61720631Y42358099D01*
X61644103Y42215459D01*
X61563508Y42123228D01*
X61448234Y42028791D01*
X61327326Y41968749D01*
X61187779Y41938830D01*
X61016587Y41934762D01*
X60993020Y41935823D01*
X60876596Y41946979D01*
X60855192Y41950640D01*
X60269120Y41950640D01*
X59940017Y41950640D01*
X59933119Y42437673D01*
X59926220Y42924706D01*
X59324666Y41950640D01*
X58973720Y41950640D01*
X58973720Y42738518D01*
X58682241Y42738518D01*
X58681824Y42569177D01*
X58651495Y42404281D01*
X58591415Y42252713D01*
X58501745Y42123354D01*
X58382646Y42025087D01*
X58358596Y42011647D01*
X58217940Y41961123D01*
X58049856Y41936742D01*
X57870710Y41938903D01*
X57696865Y41968001D01*
X57614820Y41993602D01*
X57487820Y42040943D01*
X57472650Y42388993D01*
X57556435Y42333237D01*
X57683082Y42258996D01*
X57794295Y42219026D01*
X57906675Y42208172D01*
X57951674Y42210487D01*
X58092368Y42241881D01*
X58198351Y42310052D01*
X58269882Y42415325D01*
X58307221Y42558023D01*
X58313320Y42661840D01*
X58296448Y42827091D01*
X58245609Y42954684D01*
X58160471Y43045034D01*
X58040702Y43098554D01*
X57950682Y43113277D01*
X57852713Y43114838D01*
X57769477Y43096469D01*
X57684726Y43058787D01*
X57611004Y43018506D01*
X57557070Y42983636D01*
X57538919Y42967123D01*
X57510400Y42939964D01*
X57489718Y42961149D01*
X57477784Y43028700D01*
X57475120Y43105688D01*
X57476713Y43195659D01*
X57484914Y43249214D01*
X57504858Y43280716D01*
X57541680Y43304530D01*
X57547251Y43307436D01*
X57698461Y43361402D01*
X57873911Y43385446D01*
X58057151Y43380055D01*
X58231728Y43345718D01*
X58381192Y43282921D01*
X58381583Y43282692D01*
X58502418Y43184392D01*
X58592699Y43055008D01*
X58652586Y42903422D01*
X58682241Y42738518D01*
X58973720Y42738518D01*
X58973720Y43373040D01*
X59302662Y43373040D01*
X59316620Y42561112D01*
X59826610Y43360340D01*
X60269120Y43375018D01*
X60269120Y41950640D01*
X60855192Y41950640D01*
X60762121Y41966559D01*
X60673289Y41990455D01*
X60669170Y41991983D01*
X60548520Y42037798D01*
X60548520Y42210119D01*
X60552083Y42312198D01*
X60563983Y42367272D01*
X60586041Y42378716D01*
X60620077Y42349903D01*
X60622410Y42347124D01*
X60661239Y42317756D01*
X60729647Y42280085D01*
X60783082Y42255298D01*
X60925546Y42215708D01*
X61066388Y42215850D01*
X61192085Y42254997D01*
X61232329Y42279423D01*
X61308644Y42362663D01*
X61359916Y42478138D01*
X61384081Y42612774D01*
X61379069Y42753496D01*
X61342816Y42887233D01*
X61332157Y42910914D01*
X61255774Y43016287D01*
X61151462Y43083903D01*
X61026651Y43112478D01*
X60888771Y43100730D01*
X60745250Y43047375D01*
X60697903Y43020411D01*
X60628116Y42978096D01*
X60577455Y42949369D01*
X60559533Y42941240D01*
X60553914Y42964411D01*
X60549946Y43025013D01*
X60548520Y43105688D01*
X60550113Y43195659D01*
X60558314Y43249214D01*
X60578258Y43280716D01*
X60615080Y43304530D01*
X60620651Y43307436D01*
X60713577Y43341664D01*
X60837378Y43369083D01*
X60972282Y43386785D01*
X61098513Y43391861D01*
X61163972Y43387362D01*
X61349727Y43340339D01*
X61504102Y43254220D01*
X61624788Y43131569D01*
X61709475Y42974951D01*
X61755854Y42786929D01*
X61762049Y42723324D01*
X62707520Y42723324D01*
X62707520Y43373040D01*
X63037720Y43373040D01*
X63037720Y42977841D01*
X63038948Y42843853D01*
X63042337Y42730938D01*
X63047448Y42647355D01*
X63053840Y42601361D01*
X63058104Y42595240D01*
X63077602Y42619898D01*
X63119145Y42680560D01*
X63178007Y42770057D01*
X63249464Y42881217D01*
X63318454Y42990371D01*
X63558420Y43372905D01*
X63780670Y43372973D01*
X64002920Y43373040D01*
X65113804Y43373040D01*
X65158620Y43374519D01*
X65412620Y42685517D01*
X65477902Y42508436D01*
X65537553Y42346627D01*
X65589289Y42206292D01*
X65630824Y42093630D01*
X65659872Y42014842D01*
X65674147Y41976127D01*
X65675087Y41973578D01*
X65992624Y41973578D01*
X65971954Y41979614D01*
X65806320Y42033988D01*
X65806320Y42208214D01*
X65807789Y42294871D01*
X65811648Y42357258D01*
X65817076Y42382393D01*
X65817333Y42382440D01*
X65843070Y42370100D01*
X65898528Y42338109D01*
X65955703Y42303270D01*
X66105197Y42233536D01*
X66247674Y42209978D01*
X66377122Y42229467D01*
X66487529Y42288874D01*
X66572884Y42385069D01*
X66627176Y42514924D01*
X66644520Y42661840D01*
X66626075Y42806050D01*
X66574889Y42935321D01*
X66497185Y43035400D01*
X66472701Y43055395D01*
X66407387Y43088508D01*
X66318999Y43103904D01*
X66248578Y43106195D01*
X66147222Y43101235D01*
X66067910Y43080890D01*
X65983254Y43037309D01*
X65961140Y43023790D01*
X65889813Y42980476D01*
X65837437Y42950584D01*
X65817333Y42941240D01*
X65811895Y42964492D01*
X65807960Y43025662D01*
X65806328Y43111873D01*
X65806320Y43118331D01*
X65806320Y43295421D01*
X65952370Y43339370D01*
X66084748Y43367480D01*
X66234533Y43380839D01*
X66384581Y43379480D01*
X66517743Y43363434D01*
X66605053Y43338182D01*
X66763681Y43246550D01*
X66883622Y43123350D01*
X66965852Y42967120D01*
X67011350Y42776394D01*
X67017250Y42721371D01*
X67946444Y42721371D01*
X67947309Y42738040D01*
X68574920Y42738040D01*
X68574920Y42458640D01*
X68295520Y42458640D01*
X68295520Y42173323D01*
X68460347Y42183818D01*
X68593219Y42203033D01*
X68694210Y42246660D01*
X68779663Y42323141D01*
X68814651Y42366823D01*
X68841856Y42412626D01*
X68857913Y42469246D01*
X68865420Y42550691D01*
X68867020Y42649140D01*
X68864709Y42762457D01*
X68856042Y42839120D01*
X68838421Y42893137D01*
X68814651Y42931458D01*
X68732938Y43022701D01*
X68643759Y43078551D01*
X68530929Y43107199D01*
X68453459Y43114300D01*
X68360408Y43117067D01*
X68289864Y43109678D01*
X68221300Y43087218D01*
X68134187Y43044772D01*
X68110200Y43032107D01*
X67937580Y42940386D01*
X67952620Y43280976D01*
X68092320Y43330581D01*
X68237178Y43366524D01*
X68403470Y43383335D01*
X68573682Y43381164D01*
X68730300Y43360160D01*
X68847758Y43324141D01*
X68983787Y43241436D01*
X69104212Y43126231D01*
X69192920Y42994520D01*
X69204323Y42970185D01*
X69231573Y42870505D01*
X69245097Y42740599D01*
X69888663Y42740599D01*
X69889557Y42963263D01*
X69896093Y44592240D01*
X56890920Y44592240D01*
X56890920Y41328101D01*
G36*
X60794722Y53661324D02*
G01*
X60688988Y53660745D01*
X60612468Y53659178D01*
X60560228Y53656128D01*
X60527337Y53651104D01*
X60508863Y53643611D01*
X60499873Y53633156D01*
X60495437Y53619247D01*
X60495006Y53617446D01*
X60488267Y53584955D01*
X60475792Y53520848D01*
X60458881Y53431949D01*
X60438829Y53325081D01*
X60416936Y53207067D01*
X60416171Y53202922D01*
X60394241Y53087269D01*
X60373723Y52985086D01*
X60355941Y52902502D01*
X60342219Y52845644D01*
X60333882Y52820642D01*
X60333484Y52820199D01*
X60308923Y52807990D01*
X60258285Y52787644D01*
X60192505Y52763555D01*
X60192139Y52763426D01*
X60109283Y52732282D01*
X60011600Y52692609D01*
X59919523Y52652719D01*
X59915166Y52650747D01*
X59765193Y52582680D01*
X59433102Y52809461D01*
X59331226Y52878596D01*
X59238943Y52940403D01*
X59161597Y52991367D01*
X59104536Y53027973D01*
X59073105Y53046706D01*
X59070121Y53048096D01*
X59047279Y53041910D01*
X59004618Y53012065D01*
X58940472Y52957153D01*
X58853179Y52875766D01*
X58764065Y52789178D01*
X58678159Y52703853D01*
X58601273Y52625992D01*
X58538036Y52560403D01*
X58493077Y52511895D01*
X58471024Y52485275D01*
X58470204Y52483905D01*
X58467766Y52465637D01*
X58476950Y52435805D01*
X58500026Y52390379D01*
X58539263Y52325330D01*
X58596930Y52236630D01*
X58673805Y52122443D01*
X58742030Y52021938D01*
X58803018Y51931797D01*
X58853244Y51857251D01*
X58889184Y51803535D01*
X58907313Y51775882D01*
X58908454Y51774005D01*
X58906241Y51747510D01*
X58889462Y51696014D01*
X58861458Y51629249D01*
X58851478Y51607928D01*
X58807928Y51512941D01*
X58761466Y51405163D01*
X58723723Y51311908D01*
X58696527Y51242694D01*
X58674925Y51190094D01*
X58662442Y51162603D01*
X58660891Y51160484D01*
X58637932Y51156976D01*
X58583814Y51147362D01*
X58505732Y51133011D01*
X58410881Y51115293D01*
X58306457Y51095575D01*
X58199656Y51075226D01*
X58097674Y51055614D01*
X58007706Y51038109D01*
X57936947Y51024078D01*
X57892594Y51014891D01*
X57881715Y51012293D01*
X57870478Y51005882D01*
X57861995Y50991403D01*
X57855886Y50963967D01*
X57851768Y50918689D01*
X57849259Y50850680D01*
X57847979Y50755053D01*
X57847546Y50626920D01*
X57847523Y50574399D01*
X57847523Y50147255D01*
X57950100Y50127009D01*
X58007169Y50116030D01*
X58092331Y50100005D01*
X58195228Y50080867D01*
X58305504Y50060549D01*
X58335985Y50054968D01*
X58437745Y50035183D01*
X58526395Y50015727D01*
X58594492Y49998403D01*
X58634596Y49985012D01*
X58641277Y49981021D01*
X58657681Y49952758D01*
X58681201Y49897991D01*
X58707284Y49827512D01*
X58712458Y49812331D01*
X58746644Y49718204D01*
X58789077Y49611999D01*
X58830603Y49516627D01*
X58830808Y49516184D01*
X58899960Y49366575D01*
X58445088Y48697483D01*
X58737100Y48404984D01*
X58825420Y48317930D01*
X58905975Y48241191D01*
X58974240Y48178863D01*
X59025692Y48135044D01*
X59055806Y48113830D01*
X59060126Y48112484D01*
X59085489Y48123084D01*
X59137242Y48152553D01*
X59209732Y48197395D01*
X59297306Y48254116D01*
X59391988Y48317638D01*
X59488084Y48382432D01*
X59573763Y48438813D01*
X59643584Y48483312D01*
X59692106Y48512461D01*
X59713818Y48522792D01*
X59740307Y48514050D01*
X59790538Y48491013D01*
X59854149Y48458469D01*
X59860892Y48454851D01*
X59946554Y48411890D01*
X60005294Y48390821D01*
X60041828Y48390597D01*
X60060869Y48410172D01*
X60060980Y48410446D01*
X60070498Y48433628D01*
X60093197Y48488659D01*
X60127318Y48571278D01*
X60171100Y48677228D01*
X60222784Y48802248D01*
X60280608Y48942080D01*
X60336609Y49077463D01*
X60398153Y49226866D01*
X60454661Y49365268D01*
X60504439Y49488427D01*
X60545794Y49592098D01*
X60577032Y49672041D01*
X60596459Y49724012D01*
X60602446Y49743408D01*
X60587432Y49765657D01*
X60548161Y49801118D01*
X60495793Y49840213D01*
X60346659Y49963855D01*
X60230089Y50105578D01*
X60147482Y50262396D01*
X60100234Y50431325D01*
X60089743Y50609378D01*
X60097369Y50691561D01*
X60138918Y50862069D01*
X60210477Y51012641D01*
X60307605Y51141791D01*
X60425866Y51248036D01*
X60560820Y51329890D01*
X60708029Y51385868D01*
X60863056Y51414485D01*
X61021461Y51414256D01*
X61178806Y51383695D01*
X61330654Y51321318D01*
X61472565Y51225640D01*
X61531797Y51171528D01*
X61645397Y51032580D01*
X61724494Y50880739D01*
X61769614Y50720433D01*
X61781284Y50556088D01*
X61760031Y50392129D01*
X61706380Y50232982D01*
X61620860Y50083075D01*
X61503995Y49946833D01*
X61373407Y49840213D01*
X61319012Y49799458D01*
X61280586Y49764382D01*
X61266754Y49743374D01*
X61273997Y49720465D01*
X61294595Y49665735D01*
X61326854Y49583428D01*
X61369079Y49477785D01*
X61419577Y49353050D01*
X61476652Y49213464D01*
X61532746Y49077430D01*
X61594633Y48927899D01*
X61651956Y48789333D01*
X61702956Y48665993D01*
X61745873Y48562136D01*
X61778947Y48482020D01*
X61800419Y48429905D01*
X61808375Y48410446D01*
X61827171Y48390677D01*
X61863526Y48390735D01*
X61922121Y48411659D01*
X62007632Y48454487D01*
X62008308Y48454851D01*
X62072693Y48488088D01*
X62124739Y48512298D01*
X62154088Y48522696D01*
X62155383Y48522792D01*
X62177476Y48512245D01*
X62226252Y48482916D01*
X62296269Y48438273D01*
X62382086Y48381786D01*
X62477212Y48317638D01*
X62574060Y48252689D01*
X62661347Y48196204D01*
X62733419Y48151679D01*
X62784623Y48122610D01*
X62809074Y48112484D01*
X62831590Y48125793D01*
X62876858Y48162988D01*
X62940356Y48219972D01*
X63017561Y48292651D01*
X63103949Y48376929D01*
X63132201Y48405084D01*
X63424313Y48697684D01*
X63201969Y49023996D01*
X63134398Y49124203D01*
X63075093Y49214137D01*
X63027383Y49288590D01*
X62994593Y49342349D01*
X62980052Y49370206D01*
X62979626Y49372188D01*
X62987292Y49398445D01*
X63007911Y49451263D01*
X63037915Y49521790D01*
X63058975Y49569007D01*
X63098352Y49659406D01*
X63135435Y49750734D01*
X63164185Y49827900D01*
X63171995Y49851408D01*
X63194183Y49914184D01*
X63215873Y49962689D01*
X63227787Y49981021D01*
X63254077Y49992241D01*
X63311458Y50008146D01*
X63392482Y50026933D01*
X63489705Y50046801D01*
X63533215Y50054968D01*
X63643704Y50075271D01*
X63749684Y50094930D01*
X63840799Y50112012D01*
X63906692Y50124582D01*
X63919100Y50127009D01*
X64021677Y50147255D01*
X64021677Y50574399D01*
X64021447Y50714854D01*
X64020501Y50821121D01*
X64018459Y50898087D01*
X64014938Y50950640D01*
X64009557Y50983667D01*
X64001934Y51002055D01*
X63991688Y51010692D01*
X63987485Y51012293D01*
X63962130Y51017973D01*
X63906116Y51029305D01*
X63826636Y51044921D01*
X63730888Y51063453D01*
X63626067Y51083531D01*
X63519368Y51103788D01*
X63417987Y51122854D01*
X63329121Y51139361D01*
X63259963Y51151941D01*
X63217711Y51159225D01*
X63208310Y51160484D01*
X63199793Y51177337D01*
X63180940Y51222230D01*
X63155276Y51286670D01*
X63145477Y51311908D01*
X63105952Y51409414D01*
X63059408Y51517141D01*
X63017723Y51607928D01*
X62987050Y51677347D01*
X62966644Y51734390D01*
X62959832Y51769323D01*
X62960918Y51774005D01*
X62975315Y51796109D01*
X63008188Y51845269D01*
X63056010Y51916252D01*
X63115252Y52003822D01*
X63182385Y52102743D01*
X63195659Y52122270D01*
X63273554Y52237960D01*
X63330813Y52326056D01*
X63369719Y52390614D01*
X63392556Y52435689D01*
X63401606Y52465337D01*
X63399152Y52483615D01*
X63399089Y52483731D01*
X63379773Y52507739D01*
X63337049Y52554153D01*
X63275549Y52618163D01*
X63199902Y52694955D01*
X63114739Y52779718D01*
X63105135Y52789178D01*
X62997810Y52893111D01*
X62914985Y52969425D01*
X62854995Y53019529D01*
X62816177Y53044830D01*
X62799080Y53048096D01*
X62774127Y53033850D01*
X62722345Y53000944D01*
X62649080Y52952892D01*
X62559680Y52893210D01*
X62459489Y52825412D01*
X62436099Y52809461D01*
X62104007Y52582680D01*
X61954035Y52650747D01*
X61862830Y52690415D01*
X61764931Y52730309D01*
X61680769Y52762117D01*
X61677062Y52763426D01*
X61611231Y52787524D01*
X61560484Y52807900D01*
X61535758Y52820164D01*
X61535716Y52820199D01*
X61527871Y52842366D01*
X61514534Y52896883D01*
X61497030Y52977620D01*
X61476683Y53078450D01*
X61454818Y53193244D01*
X61453029Y53202922D01*
X61431096Y53321196D01*
X61410960Y53428558D01*
X61393920Y53518183D01*
X61381272Y53583249D01*
X61374316Y53616932D01*
X61374194Y53617446D01*
X61369961Y53631775D01*
X61361729Y53642593D01*
X61344567Y53650394D01*
X61313542Y53655671D01*
X61263722Y53658918D01*
X61190176Y53660628D01*
X61087971Y53661293D01*
X60952175Y53661407D01*
X60934600Y53661408D01*
X60794722Y53661324D01*
G37*
X60794722Y53661324D02*
X60688988Y53660745D01*
X60612468Y53659178D01*
X60560228Y53656128D01*
X60527337Y53651104D01*
X60508863Y53643611D01*
X60499873Y53633156D01*
X60495437Y53619247D01*
X60495006Y53617446D01*
X60488267Y53584955D01*
X60475792Y53520848D01*
X60458881Y53431949D01*
X60438829Y53325081D01*
X60416936Y53207067D01*
X60416171Y53202922D01*
X60394241Y53087269D01*
X60373723Y52985086D01*
X60355941Y52902502D01*
X60342219Y52845644D01*
X60333882Y52820642D01*
X60333484Y52820199D01*
X60308923Y52807990D01*
X60258285Y52787644D01*
X60192505Y52763555D01*
X60192139Y52763426D01*
X60109283Y52732282D01*
X60011600Y52692609D01*
X59919523Y52652719D01*
X59915166Y52650747D01*
X59765193Y52582680D01*
X59433102Y52809461D01*
X59331226Y52878596D01*
X59238943Y52940403D01*
X59161597Y52991367D01*
X59104536Y53027973D01*
X59073105Y53046706D01*
X59070121Y53048096D01*
X59047279Y53041910D01*
X59004618Y53012065D01*
X58940472Y52957153D01*
X58853179Y52875766D01*
X58764065Y52789178D01*
X58678159Y52703853D01*
X58601273Y52625992D01*
X58538036Y52560403D01*
X58493077Y52511895D01*
X58471024Y52485275D01*
X58470204Y52483905D01*
X58467766Y52465637D01*
X58476950Y52435805D01*
X58500026Y52390379D01*
X58539263Y52325330D01*
X58596930Y52236630D01*
X58673805Y52122443D01*
X58742030Y52021938D01*
X58803018Y51931797D01*
X58853244Y51857251D01*
X58889184Y51803535D01*
X58907313Y51775882D01*
X58908454Y51774005D01*
X58906241Y51747510D01*
X58889462Y51696014D01*
X58861458Y51629249D01*
X58851478Y51607928D01*
X58807928Y51512941D01*
X58761466Y51405163D01*
X58723723Y51311908D01*
X58696527Y51242694D01*
X58674925Y51190094D01*
X58662442Y51162603D01*
X58660891Y51160484D01*
X58637932Y51156976D01*
X58583814Y51147362D01*
X58505732Y51133011D01*
X58410881Y51115293D01*
X58306457Y51095575D01*
X58199656Y51075226D01*
X58097674Y51055614D01*
X58007706Y51038109D01*
X57936947Y51024078D01*
X57892594Y51014891D01*
X57881715Y51012293D01*
X57870478Y51005882D01*
X57861995Y50991403D01*
X57855886Y50963967D01*
X57851768Y50918689D01*
X57849259Y50850680D01*
X57847979Y50755053D01*
X57847546Y50626920D01*
X57847523Y50574399D01*
X57847523Y50147255D01*
X57950100Y50127009D01*
X58007169Y50116030D01*
X58092331Y50100005D01*
X58195228Y50080867D01*
X58305504Y50060549D01*
X58335985Y50054968D01*
X58437745Y50035183D01*
X58526395Y50015727D01*
X58594492Y49998403D01*
X58634596Y49985012D01*
X58641277Y49981021D01*
X58657681Y49952758D01*
X58681201Y49897991D01*
X58707284Y49827512D01*
X58712458Y49812331D01*
X58746644Y49718204D01*
X58789077Y49611999D01*
X58830603Y49516627D01*
X58830808Y49516184D01*
X58899960Y49366575D01*
X58445088Y48697483D01*
X58737100Y48404984D01*
X58825420Y48317930D01*
X58905975Y48241191D01*
X58974240Y48178863D01*
X59025692Y48135044D01*
X59055806Y48113830D01*
X59060126Y48112484D01*
X59085489Y48123084D01*
X59137242Y48152553D01*
X59209732Y48197395D01*
X59297306Y48254116D01*
X59391988Y48317638D01*
X59488084Y48382432D01*
X59573763Y48438813D01*
X59643584Y48483312D01*
X59692106Y48512461D01*
X59713818Y48522792D01*
X59740307Y48514050D01*
X59790538Y48491013D01*
X59854149Y48458469D01*
X59860892Y48454851D01*
X59946554Y48411890D01*
X60005294Y48390821D01*
X60041828Y48390597D01*
X60060869Y48410172D01*
X60060980Y48410446D01*
X60070498Y48433628D01*
X60093197Y48488659D01*
X60127318Y48571278D01*
X60171100Y48677228D01*
X60222784Y48802248D01*
X60280608Y48942080D01*
X60336609Y49077463D01*
X60398153Y49226866D01*
X60454661Y49365268D01*
X60504439Y49488427D01*
X60545794Y49592098D01*
X60577032Y49672041D01*
X60596459Y49724012D01*
X60602446Y49743408D01*
X60587432Y49765657D01*
X60548161Y49801118D01*
X60495793Y49840213D01*
X60346659Y49963855D01*
X60230089Y50105578D01*
X60147482Y50262396D01*
X60100234Y50431325D01*
X60089743Y50609378D01*
X60097369Y50691561D01*
X60138918Y50862069D01*
X60210477Y51012641D01*
X60307605Y51141791D01*
X60425866Y51248036D01*
X60560820Y51329890D01*
X60708029Y51385868D01*
X60863056Y51414485D01*
X61021461Y51414256D01*
X61178806Y51383695D01*
X61330654Y51321318D01*
X61472565Y51225640D01*
X61531797Y51171528D01*
X61645397Y51032580D01*
X61724494Y50880739D01*
X61769614Y50720433D01*
X61781284Y50556088D01*
X61760031Y50392129D01*
X61706380Y50232982D01*
X61620860Y50083075D01*
X61503995Y49946833D01*
X61373407Y49840213D01*
X61319012Y49799458D01*
X61280586Y49764382D01*
X61266754Y49743374D01*
X61273997Y49720465D01*
X61294595Y49665735D01*
X61326854Y49583428D01*
X61369079Y49477785D01*
X61419577Y49353050D01*
X61476652Y49213464D01*
X61532746Y49077430D01*
X61594633Y48927899D01*
X61651956Y48789333D01*
X61702956Y48665993D01*
X61745873Y48562136D01*
X61778947Y48482020D01*
X61800419Y48429905D01*
X61808375Y48410446D01*
X61827171Y48390677D01*
X61863526Y48390735D01*
X61922121Y48411659D01*
X62007632Y48454487D01*
X62008308Y48454851D01*
X62072693Y48488088D01*
X62124739Y48512298D01*
X62154088Y48522696D01*
X62155383Y48522792D01*
X62177476Y48512245D01*
X62226252Y48482916D01*
X62296269Y48438273D01*
X62382086Y48381786D01*
X62477212Y48317638D01*
X62574060Y48252689D01*
X62661347Y48196204D01*
X62733419Y48151679D01*
X62784623Y48122610D01*
X62809074Y48112484D01*
X62831590Y48125793D01*
X62876858Y48162988D01*
X62940356Y48219972D01*
X63017561Y48292651D01*
X63103949Y48376929D01*
X63132201Y48405084D01*
X63424313Y48697684D01*
X63201969Y49023996D01*
X63134398Y49124203D01*
X63075093Y49214137D01*
X63027383Y49288590D01*
X62994593Y49342349D01*
X62980052Y49370206D01*
X62979626Y49372188D01*
X62987292Y49398445D01*
X63007911Y49451263D01*
X63037915Y49521790D01*
X63058975Y49569007D01*
X63098352Y49659406D01*
X63135435Y49750734D01*
X63164185Y49827900D01*
X63171995Y49851408D01*
X63194183Y49914184D01*
X63215873Y49962689D01*
X63227787Y49981021D01*
X63254077Y49992241D01*
X63311458Y50008146D01*
X63392482Y50026933D01*
X63489705Y50046801D01*
X63533215Y50054968D01*
X63643704Y50075271D01*
X63749684Y50094930D01*
X63840799Y50112012D01*
X63906692Y50124582D01*
X63919100Y50127009D01*
X64021677Y50147255D01*
X64021677Y50574399D01*
X64021447Y50714854D01*
X64020501Y50821121D01*
X64018459Y50898087D01*
X64014938Y50950640D01*
X64009557Y50983667D01*
X64001934Y51002055D01*
X63991688Y51010692D01*
X63987485Y51012293D01*
X63962130Y51017973D01*
X63906116Y51029305D01*
X63826636Y51044921D01*
X63730888Y51063453D01*
X63626067Y51083531D01*
X63519368Y51103788D01*
X63417987Y51122854D01*
X63329121Y51139361D01*
X63259963Y51151941D01*
X63217711Y51159225D01*
X63208310Y51160484D01*
X63199793Y51177337D01*
X63180940Y51222230D01*
X63155276Y51286670D01*
X63145477Y51311908D01*
X63105952Y51409414D01*
X63059408Y51517141D01*
X63017723Y51607928D01*
X62987050Y51677347D01*
X62966644Y51734390D01*
X62959832Y51769323D01*
X62960918Y51774005D01*
X62975315Y51796109D01*
X63008188Y51845269D01*
X63056010Y51916252D01*
X63115252Y52003822D01*
X63182385Y52102743D01*
X63195659Y52122270D01*
X63273554Y52237960D01*
X63330813Y52326056D01*
X63369719Y52390614D01*
X63392556Y52435689D01*
X63401606Y52465337D01*
X63399152Y52483615D01*
X63399089Y52483731D01*
X63379773Y52507739D01*
X63337049Y52554153D01*
X63275549Y52618163D01*
X63199902Y52694955D01*
X63114739Y52779718D01*
X63105135Y52789178D01*
X62997810Y52893111D01*
X62914985Y52969425D01*
X62854995Y53019529D01*
X62816177Y53044830D01*
X62799080Y53048096D01*
X62774127Y53033850D01*
X62722345Y53000944D01*
X62649080Y52952892D01*
X62559680Y52893210D01*
X62459489Y52825412D01*
X62436099Y52809461D01*
X62104007Y52582680D01*
X61954035Y52650747D01*
X61862830Y52690415D01*
X61764931Y52730309D01*
X61680769Y52762117D01*
X61677062Y52763426D01*
X61611231Y52787524D01*
X61560484Y52807900D01*
X61535758Y52820164D01*
X61535716Y52820199D01*
X61527871Y52842366D01*
X61514534Y52896883D01*
X61497030Y52977620D01*
X61476683Y53078450D01*
X61454818Y53193244D01*
X61453029Y53202922D01*
X61431096Y53321196D01*
X61410960Y53428558D01*
X61393920Y53518183D01*
X61381272Y53583249D01*
X61374316Y53616932D01*
X61374194Y53617446D01*
X61369961Y53631775D01*
X61361729Y53642593D01*
X61344567Y53650394D01*
X61313542Y53655671D01*
X61263722Y53658918D01*
X61190176Y53660628D01*
X61087971Y53661293D01*
X60952175Y53661407D01*
X60934600Y53661408D01*
X60794722Y53661324D01*
G36*
X56689376Y47301262D02*
G01*
X56612072Y47250739D01*
X56574786Y47205510D01*
X56545247Y47123437D01*
X56542901Y47058493D01*
X56548215Y46971655D01*
X56748485Y46883997D01*
X56845861Y46839213D01*
X56909487Y46803187D01*
X56942571Y46771983D01*
X56948320Y46741664D01*
X56929942Y46708295D01*
X56909677Y46686177D01*
X56850711Y46650707D01*
X56786576Y46648221D01*
X56727674Y46675865D01*
X56684403Y46730780D01*
X56676664Y46750172D01*
X56639594Y46810736D01*
X56596946Y46836548D01*
X56538446Y46858629D01*
X56538446Y46774916D01*
X56543618Y46717950D01*
X56563877Y46669911D01*
X56606338Y46614754D01*
X56612649Y46607586D01*
X56659880Y46558515D01*
X56700479Y46532180D01*
X56751272Y46520065D01*
X56793380Y46516097D01*
X56868698Y46515109D01*
X56922314Y46527634D01*
X56955762Y46546231D01*
X57008332Y46587125D01*
X57044721Y46631352D01*
X57067750Y46686974D01*
X57080241Y46762053D01*
X57085013Y46864651D01*
X57085394Y46916724D01*
X57084099Y46979152D01*
X56966129Y46979152D01*
X56964761Y46945662D01*
X56961351Y46940177D01*
X56938847Y46947628D01*
X56890418Y46967347D01*
X56825692Y46995382D01*
X56812157Y47001408D01*
X56730356Y47043004D01*
X56685288Y47079562D01*
X56675383Y47113804D01*
X56699074Y47148452D01*
X56718640Y47163761D01*
X56789240Y47194379D01*
X56855320Y47189320D01*
X56910641Y47151949D01*
X56948964Y47085627D01*
X56961251Y47032984D01*
X56966129Y46979152D01*
X57084099Y46979152D01*
X57082870Y47038380D01*
X57073568Y47128390D01*
X57055140Y47193933D01*
X57025240Y47242188D01*
X56981520Y47280333D01*
X56962459Y47292660D01*
X56875874Y47324764D01*
X56781078Y47326784D01*
X56689376Y47301262D01*
G37*
X56689376Y47301262D02*
X56612072Y47250739D01*
X56574786Y47205510D01*
X56545247Y47123437D01*
X56542901Y47058493D01*
X56548215Y46971655D01*
X56748485Y46883997D01*
X56845861Y46839213D01*
X56909487Y46803187D01*
X56942571Y46771983D01*
X56948320Y46741664D01*
X56929942Y46708295D01*
X56909677Y46686177D01*
X56850711Y46650707D01*
X56786576Y46648221D01*
X56727674Y46675865D01*
X56684403Y46730780D01*
X56676664Y46750172D01*
X56639594Y46810736D01*
X56596946Y46836548D01*
X56538446Y46858629D01*
X56538446Y46774916D01*
X56543618Y46717950D01*
X56563877Y46669911D01*
X56606338Y46614754D01*
X56612649Y46607586D01*
X56659880Y46558515D01*
X56700479Y46532180D01*
X56751272Y46520065D01*
X56793380Y46516097D01*
X56868698Y46515109D01*
X56922314Y46527634D01*
X56955762Y46546231D01*
X57008332Y46587125D01*
X57044721Y46631352D01*
X57067750Y46686974D01*
X57080241Y46762053D01*
X57085013Y46864651D01*
X57085394Y46916724D01*
X57084099Y46979152D01*
X56966129Y46979152D01*
X56964761Y46945662D01*
X56961351Y46940177D01*
X56938847Y46947628D01*
X56890418Y46967347D01*
X56825692Y46995382D01*
X56812157Y47001408D01*
X56730356Y47043004D01*
X56685288Y47079562D01*
X56675383Y47113804D01*
X56699074Y47148452D01*
X56718640Y47163761D01*
X56789240Y47194379D01*
X56855320Y47189320D01*
X56910641Y47151949D01*
X56948964Y47085627D01*
X56961251Y47032984D01*
X56966129Y46979152D01*
X57084099Y46979152D01*
X57082870Y47038380D01*
X57073568Y47128390D01*
X57055140Y47193933D01*
X57025240Y47242188D01*
X56981520Y47280333D01*
X56962459Y47292660D01*
X56875874Y47324764D01*
X56781078Y47326784D01*
X56689376Y47301262D01*
G36*
X57363793Y47312318D02*
G01*
X57340439Y47302112D01*
X57284698Y47257966D01*
X57237031Y47194133D01*
X57207552Y47126013D01*
X57202754Y47092430D01*
X57218840Y47045544D01*
X57254125Y47020735D01*
X57291956Y47005713D01*
X57309279Y47002945D01*
X57317714Y47023034D01*
X57334370Y47066749D01*
X57341677Y47086502D01*
X57382652Y47154829D01*
X57441978Y47188909D01*
X57518048Y47187861D01*
X57523682Y47186519D01*
X57564295Y47167264D01*
X57594152Y47129725D01*
X57614545Y47069291D01*
X57626764Y46981349D01*
X57632100Y46861287D01*
X57632600Y46797402D01*
X57632848Y46696697D01*
X57634474Y46628046D01*
X57638799Y46584427D01*
X57647146Y46558818D01*
X57660835Y46544197D01*
X57681189Y46533542D01*
X57682366Y46533005D01*
X57721562Y46516433D01*
X57740981Y46510331D01*
X57743965Y46528781D01*
X57746519Y46579777D01*
X57748460Y46656792D01*
X57749603Y46753295D01*
X57749831Y46823916D01*
X57748668Y46960575D01*
X57744121Y47064249D01*
X57734601Y47140992D01*
X57718519Y47196854D01*
X57694287Y47237888D01*
X57660314Y47270146D01*
X57626767Y47292660D01*
X57546101Y47322624D01*
X57452219Y47329382D01*
X57363793Y47312318D01*
G37*
X57363793Y47312318D02*
X57340439Y47302112D01*
X57284698Y47257966D01*
X57237031Y47194133D01*
X57207552Y47126013D01*
X57202754Y47092430D01*
X57218840Y47045544D01*
X57254125Y47020735D01*
X57291956Y47005713D01*
X57309279Y47002945D01*
X57317714Y47023034D01*
X57334370Y47066749D01*
X57341677Y47086502D01*
X57382652Y47154829D01*
X57441978Y47188909D01*
X57518048Y47187861D01*
X57523682Y47186519D01*
X57564295Y47167264D01*
X57594152Y47129725D01*
X57614545Y47069291D01*
X57626764Y46981349D01*
X57632100Y46861287D01*
X57632600Y46797402D01*
X57632848Y46696697D01*
X57634474Y46628046D01*
X57638799Y46584427D01*
X57647146Y46558818D01*
X57660835Y46544197D01*
X57681189Y46533542D01*
X57682366Y46533005D01*
X57721562Y46516433D01*
X57740981Y46510331D01*
X57743965Y46528781D01*
X57746519Y46579777D01*
X57748460Y46656792D01*
X57749603Y46753295D01*
X57749831Y46823916D01*
X57748668Y46960575D01*
X57744121Y47064249D01*
X57734601Y47140992D01*
X57718519Y47196854D01*
X57694287Y47237888D01*
X57660314Y47270146D01*
X57626767Y47292660D01*
X57546101Y47322624D01*
X57452219Y47329382D01*
X57363793Y47312318D01*
G36*
X58047267Y47315572D02*
G01*
X57991010Y47289983D01*
X57946853Y47258976D01*
X57914499Y47224305D01*
X57892162Y47179580D01*
X57878054Y47118408D01*
X57870389Y47034399D01*
X57867380Y46921160D01*
X57867062Y46846591D01*
X57867062Y46555680D01*
X57916827Y46533005D01*
X57956024Y46516433D01*
X57975443Y46510331D01*
X57979158Y46528490D01*
X57982105Y46577452D01*
X57983909Y46648947D01*
X57984292Y46705715D01*
X57985939Y46787729D01*
X57990378Y46852791D01*
X57996860Y46892633D01*
X58002010Y46901100D01*
X58036623Y46892454D01*
X58090960Y46870277D01*
X58153878Y46840214D01*
X58214232Y46807908D01*
X58260879Y46779002D01*
X58282674Y46759139D01*
X58282761Y46758925D01*
X58280886Y46722165D01*
X58264075Y46687074D01*
X58234561Y46658572D01*
X58191484Y46649039D01*
X58154668Y46650150D01*
X58102526Y46650967D01*
X58075156Y46638751D01*
X58058718Y46606476D01*
X58056645Y46600390D01*
X58049519Y46554361D01*
X58068576Y46526413D01*
X58118247Y46513093D01*
X58171903Y46510630D01*
X58268458Y46528890D01*
X58318441Y46554969D01*
X58380171Y46616232D01*
X58412910Y46691430D01*
X58415847Y46770889D01*
X58388176Y46844933D01*
X58346553Y46891331D01*
X58304996Y46917307D01*
X58239678Y46950193D01*
X58163562Y46983543D01*
X58150874Y46988639D01*
X58067267Y47025535D01*
X58019070Y47058054D01*
X58003570Y47090382D01*
X58018050Y47126706D01*
X58042908Y47155100D01*
X58101661Y47190061D01*
X58166307Y47192683D01*
X58225592Y47165742D01*
X58268261Y47112012D01*
X58273861Y47098150D01*
X58306467Y47047164D01*
X58354070Y47009313D01*
X58414139Y46978250D01*
X58414139Y47066332D01*
X58410603Y47120149D01*
X58395444Y47162566D01*
X58361832Y47207821D01*
X58329565Y47242680D01*
X58279391Y47292038D01*
X58240407Y47318553D01*
X58198536Y47329189D01*
X58151140Y47330946D01*
X58047267Y47315572D01*
G37*
X58047267Y47315572D02*
X57991010Y47289983D01*
X57946853Y47258976D01*
X57914499Y47224305D01*
X57892162Y47179580D01*
X57878054Y47118408D01*
X57870389Y47034399D01*
X57867380Y46921160D01*
X57867062Y46846591D01*
X57867062Y46555680D01*
X57916827Y46533005D01*
X57956024Y46516433D01*
X57975443Y46510331D01*
X57979158Y46528490D01*
X57982105Y46577452D01*
X57983909Y46648947D01*
X57984292Y46705715D01*
X57985939Y46787729D01*
X57990378Y46852791D01*
X57996860Y46892633D01*
X58002010Y46901100D01*
X58036623Y46892454D01*
X58090960Y46870277D01*
X58153878Y46840214D01*
X58214232Y46807908D01*
X58260879Y46779002D01*
X58282674Y46759139D01*
X58282761Y46758925D01*
X58280886Y46722165D01*
X58264075Y46687074D01*
X58234561Y46658572D01*
X58191484Y46649039D01*
X58154668Y46650150D01*
X58102526Y46650967D01*
X58075156Y46638751D01*
X58058718Y46606476D01*
X58056645Y46600390D01*
X58049519Y46554361D01*
X58068576Y46526413D01*
X58118247Y46513093D01*
X58171903Y46510630D01*
X58268458Y46528890D01*
X58318441Y46554969D01*
X58380171Y46616232D01*
X58412910Y46691430D01*
X58415847Y46770889D01*
X58388176Y46844933D01*
X58346553Y46891331D01*
X58304996Y46917307D01*
X58239678Y46950193D01*
X58163562Y46983543D01*
X58150874Y46988639D01*
X58067267Y47025535D01*
X58019070Y47058054D01*
X58003570Y47090382D01*
X58018050Y47126706D01*
X58042908Y47155100D01*
X58101661Y47190061D01*
X58166307Y47192683D01*
X58225592Y47165742D01*
X58268261Y47112012D01*
X58273861Y47098150D01*
X58306467Y47047164D01*
X58354070Y47009313D01*
X58414139Y46978250D01*
X58414139Y47066332D01*
X58410603Y47120149D01*
X58395444Y47162566D01*
X58361832Y47207821D01*
X58329565Y47242680D01*
X58279391Y47292038D01*
X58240407Y47318553D01*
X58198536Y47329189D01*
X58151140Y47330946D01*
X58047267Y47315572D01*
G36*
X58538671Y47312438D02*
G01*
X58535689Y47261032D01*
X58533353Y47182908D01*
X58531851Y47084243D01*
X58531369Y46980757D01*
X58531369Y46630567D01*
X58593199Y46568737D01*
X58635807Y46530638D01*
X58673210Y46515205D01*
X58724330Y46516182D01*
X58744622Y46518667D01*
X58808046Y46525900D01*
X58860505Y46530045D01*
X58873292Y46530428D01*
X58916401Y46527924D01*
X58978056Y46521638D01*
X59001962Y46518667D01*
X59060678Y46514072D01*
X59100136Y46524054D01*
X59139262Y46554872D01*
X59153385Y46568737D01*
X59215215Y46630567D01*
X59215215Y47285597D01*
X59165450Y47308271D01*
X59122598Y47325066D01*
X59097527Y47330946D01*
X59091099Y47312364D01*
X59085091Y47260445D01*
X59079903Y47180928D01*
X59075936Y47079554D01*
X59074023Y46993908D01*
X59068677Y46656869D01*
X59022040Y46650275D01*
X58979624Y46654886D01*
X58958840Y46669813D01*
X58953030Y46697723D01*
X58948070Y46757175D01*
X58944354Y46840634D01*
X58942276Y46940568D01*
X58941976Y46991996D01*
X58941677Y47288046D01*
X58880146Y47309496D01*
X58836596Y47324080D01*
X58812906Y47330881D01*
X58812223Y47330946D01*
X58809846Y47312458D01*
X58807234Y47261194D01*
X58804605Y47183451D01*
X58802179Y47085526D01*
X58800485Y46993908D01*
X58795139Y46656869D01*
X58677908Y46656869D01*
X58672528Y46964354D01*
X58667149Y47271839D01*
X58609999Y47301393D01*
X58567803Y47321687D01*
X58542830Y47330896D01*
X58542109Y47330946D01*
X58538671Y47312438D01*
G37*
X58538671Y47312438D02*
X58535689Y47261032D01*
X58533353Y47182908D01*
X58531851Y47084243D01*
X58531369Y46980757D01*
X58531369Y46630567D01*
X58593199Y46568737D01*
X58635807Y46530638D01*
X58673210Y46515205D01*
X58724330Y46516182D01*
X58744622Y46518667D01*
X58808046Y46525900D01*
X58860505Y46530045D01*
X58873292Y46530428D01*
X58916401Y46527924D01*
X58978056Y46521638D01*
X59001962Y46518667D01*
X59060678Y46514072D01*
X59100136Y46524054D01*
X59139262Y46554872D01*
X59153385Y46568737D01*
X59215215Y46630567D01*
X59215215Y47285597D01*
X59165450Y47308271D01*
X59122598Y47325066D01*
X59097527Y47330946D01*
X59091099Y47312364D01*
X59085091Y47260445D01*
X59079903Y47180928D01*
X59075936Y47079554D01*
X59074023Y46993908D01*
X59068677Y46656869D01*
X59022040Y46650275D01*
X58979624Y46654886D01*
X58958840Y46669813D01*
X58953030Y46697723D01*
X58948070Y46757175D01*
X58944354Y46840634D01*
X58942276Y46940568D01*
X58941976Y46991996D01*
X58941677Y47288046D01*
X58880146Y47309496D01*
X58836596Y47324080D01*
X58812906Y47330881D01*
X58812223Y47330946D01*
X58809846Y47312458D01*
X58807234Y47261194D01*
X58804605Y47183451D01*
X58802179Y47085526D01*
X58800485Y46993908D01*
X58795139Y46656869D01*
X58677908Y46656869D01*
X58672528Y46964354D01*
X58667149Y47271839D01*
X58609999Y47301393D01*
X58567803Y47321687D01*
X58542830Y47330896D01*
X58542109Y47330946D01*
X58538671Y47312438D01*
G36*
X59332519Y47168811D02*
G01*
X59332767Y47022780D01*
X59333728Y46910445D01*
X59335806Y46826422D01*
X59339407Y46765331D01*
X59344935Y46721791D01*
X59352796Y46690421D01*
X59363393Y46665838D01*
X59371418Y46651806D01*
X59437872Y46575712D01*
X59522130Y46528016D01*
X59615351Y46510901D01*
X59708700Y46526554D01*
X59764288Y46554682D01*
X59822643Y46603340D01*
X59862414Y46662767D01*
X59886410Y46740593D01*
X59897439Y46844448D01*
X59899001Y46920638D01*
X59898791Y46926114D01*
X59762292Y46926114D01*
X59761459Y46838745D01*
X59757639Y46780908D01*
X59748854Y46743071D01*
X59733126Y46715702D01*
X59714334Y46695058D01*
X59651225Y46655210D01*
X59583463Y46651805D01*
X59519421Y46685075D01*
X59514436Y46689583D01*
X59493161Y46713033D01*
X59479821Y46740934D01*
X59472599Y46782459D01*
X59469677Y46846784D01*
X59469215Y46917900D01*
X59470217Y47007242D01*
X59474362Y47066842D01*
X59483364Y47106011D01*
X59498933Y47134060D01*
X59511698Y47148956D01*
X59571000Y47186525D01*
X59639299Y47191043D01*
X59704490Y47162347D01*
X59717072Y47151694D01*
X59738489Y47128037D01*
X59751856Y47099849D01*
X59759034Y47057855D01*
X59761881Y46992781D01*
X59762292Y46926114D01*
X59898791Y46926114D01*
X59894278Y47043335D01*
X59878238Y47135523D01*
X59848072Y47204831D01*
X59800971Y47258889D01*
X59764288Y47286595D01*
X59697610Y47316528D01*
X59620328Y47330422D01*
X59548490Y47326703D01*
X59508292Y47311700D01*
X59492518Y47307430D01*
X59482050Y47323350D01*
X59474744Y47366011D01*
X59469215Y47430994D01*
X59463163Y47503368D01*
X59454756Y47546913D01*
X59439459Y47571813D01*
X59412736Y47588255D01*
X59395946Y47595536D01*
X59332446Y47622137D01*
X59332519Y47168811D01*
G37*
X59332519Y47168811D02*
X59332767Y47022780D01*
X59333728Y46910445D01*
X59335806Y46826422D01*
X59339407Y46765331D01*
X59344935Y46721791D01*
X59352796Y46690421D01*
X59363393Y46665838D01*
X59371418Y46651806D01*
X59437872Y46575712D01*
X59522130Y46528016D01*
X59615351Y46510901D01*
X59708700Y46526554D01*
X59764288Y46554682D01*
X59822643Y46603340D01*
X59862414Y46662767D01*
X59886410Y46740593D01*
X59897439Y46844448D01*
X59899001Y46920638D01*
X59898791Y46926114D01*
X59762292Y46926114D01*
X59761459Y46838745D01*
X59757639Y46780908D01*
X59748854Y46743071D01*
X59733126Y46715702D01*
X59714334Y46695058D01*
X59651225Y46655210D01*
X59583463Y46651805D01*
X59519421Y46685075D01*
X59514436Y46689583D01*
X59493161Y46713033D01*
X59479821Y46740934D01*
X59472599Y46782459D01*
X59469677Y46846784D01*
X59469215Y46917900D01*
X59470217Y47007242D01*
X59474362Y47066842D01*
X59483364Y47106011D01*
X59498933Y47134060D01*
X59511698Y47148956D01*
X59571000Y47186525D01*
X59639299Y47191043D01*
X59704490Y47162347D01*
X59717072Y47151694D01*
X59738489Y47128037D01*
X59751856Y47099849D01*
X59759034Y47057855D01*
X59761881Y46992781D01*
X59762292Y46926114D01*
X59898791Y46926114D01*
X59894278Y47043335D01*
X59878238Y47135523D01*
X59848072Y47204831D01*
X59800971Y47258889D01*
X59764288Y47286595D01*
X59697610Y47316528D01*
X59620328Y47330422D01*
X59548490Y47326703D01*
X59508292Y47311700D01*
X59492518Y47307430D01*
X59482050Y47323350D01*
X59474744Y47366011D01*
X59469215Y47430994D01*
X59463163Y47503368D01*
X59454756Y47546913D01*
X59439459Y47571813D01*
X59412736Y47588255D01*
X59395946Y47595536D01*
X59332446Y47622137D01*
X59332519Y47168811D01*
G36*
X60221238Y47324430D02*
G01*
X60132483Y47291679D01*
X60060578Y47233750D01*
X60032456Y47192972D01*
X60001798Y47118146D01*
X60002435Y47064042D01*
X60034613Y47027654D01*
X60046519Y47021467D01*
X60097925Y47002175D01*
X60124178Y47007118D01*
X60133070Y47039513D01*
X60133523Y47057408D01*
X60149803Y47123241D01*
X60192235Y47169293D01*
X60251212Y47191536D01*
X60317125Y47185939D01*
X60370705Y47156871D01*
X60388802Y47140290D01*
X60401629Y47120175D01*
X60410294Y47089768D01*
X60415904Y47042312D01*
X60419565Y46971050D01*
X60422385Y46869225D01*
X60423116Y46836985D01*
X60425780Y46726690D01*
X60428808Y46649064D01*
X60433350Y46597704D01*
X60440554Y46566210D01*
X60451567Y46548180D01*
X60467540Y46537212D01*
X60477766Y46532367D01*
X60521194Y46515799D01*
X60546758Y46510331D01*
X60555205Y46528593D01*
X60560361Y46583804D01*
X60562254Y46676601D01*
X60560911Y46807622D01*
X60560493Y46827831D01*
X60557542Y46947367D01*
X60554052Y47034651D01*
X60549086Y47096509D01*
X60541707Y47139764D01*
X60530976Y47171240D01*
X60515955Y47197761D01*
X60508098Y47209125D01*
X60463047Y47259408D01*
X60412660Y47298519D01*
X60406492Y47301933D01*
X60316142Y47328888D01*
X60221238Y47324430D01*
G37*
X60221238Y47324430D02*
X60132483Y47291679D01*
X60060578Y47233750D01*
X60032456Y47192972D01*
X60001798Y47118146D01*
X60002435Y47064042D01*
X60034613Y47027654D01*
X60046519Y47021467D01*
X60097925Y47002175D01*
X60124178Y47007118D01*
X60133070Y47039513D01*
X60133523Y47057408D01*
X60149803Y47123241D01*
X60192235Y47169293D01*
X60251212Y47191536D01*
X60317125Y47185939D01*
X60370705Y47156871D01*
X60388802Y47140290D01*
X60401629Y47120175D01*
X60410294Y47089768D01*
X60415904Y47042312D01*
X60419565Y46971050D01*
X60422385Y46869225D01*
X60423116Y46836985D01*
X60425780Y46726690D01*
X60428808Y46649064D01*
X60433350Y46597704D01*
X60440554Y46566210D01*
X60451567Y46548180D01*
X60467540Y46537212D01*
X60477766Y46532367D01*
X60521194Y46515799D01*
X60546758Y46510331D01*
X60555205Y46528593D01*
X60560361Y46583804D01*
X60562254Y46676601D01*
X60560911Y46807622D01*
X60560493Y46827831D01*
X60557542Y46947367D01*
X60554052Y47034651D01*
X60549086Y47096509D01*
X60541707Y47139764D01*
X60530976Y47171240D01*
X60515955Y47197761D01*
X60508098Y47209125D01*
X60463047Y47259408D01*
X60412660Y47298519D01*
X60406492Y47301933D01*
X60316142Y47328888D01*
X60221238Y47324430D01*
G36*
X60881099Y47322797D02*
G01*
X60804540Y47294367D01*
X60803664Y47293821D01*
X60756315Y47258973D01*
X60721359Y47218248D01*
X60696775Y47165175D01*
X60680538Y47093286D01*
X60670625Y46996108D01*
X60665014Y46867172D01*
X60664523Y46848802D01*
X60657459Y46571813D01*
X60716905Y46541072D01*
X60759919Y46520298D01*
X60785890Y46510454D01*
X60787091Y46510331D01*
X60791586Y46528494D01*
X60795156Y46577488D01*
X60797352Y46649069D01*
X60797831Y46707032D01*
X60797842Y46800930D01*
X60802134Y46859897D01*
X60817097Y46888021D01*
X60849118Y46889394D01*
X60904586Y46868102D01*
X60988331Y46828964D01*
X61049911Y46796457D01*
X61081583Y46768255D01*
X61090894Y46737518D01*
X61090908Y46735996D01*
X61075543Y46683046D01*
X61030053Y46654440D01*
X60960434Y46650297D01*
X60910287Y46651016D01*
X60883846Y46636573D01*
X60867357Y46601882D01*
X60857867Y46557684D01*
X60871543Y46532607D01*
X60876693Y46529018D01*
X60925175Y46514604D01*
X60993069Y46512563D01*
X61062988Y46522117D01*
X61112532Y46539578D01*
X61181030Y46597736D01*
X61219966Y46678692D01*
X61227677Y46741940D01*
X61221793Y46798989D01*
X61200499Y46845558D01*
X61158335Y46886919D01*
X61089841Y46928345D01*
X60989556Y46975107D01*
X60983446Y46977750D01*
X60893110Y47019483D01*
X60837365Y47053709D01*
X60813471Y47084465D01*
X60818687Y47115789D01*
X60850272Y47151717D01*
X60859717Y47159984D01*
X60922983Y47192042D01*
X60988536Y47190693D01*
X61045628Y47159262D01*
X61083507Y47101076D01*
X61087026Y47089654D01*
X61121300Y47034263D01*
X61164791Y47007582D01*
X61227677Y46981140D01*
X61227677Y47049552D01*
X61208548Y47148990D01*
X61151769Y47240198D01*
X61122222Y47270711D01*
X61055058Y47309872D01*
X60969644Y47327600D01*
X60881099Y47322797D01*
G37*
X60881099Y47322797D02*
X60804540Y47294367D01*
X60803664Y47293821D01*
X60756315Y47258973D01*
X60721359Y47218248D01*
X60696775Y47165175D01*
X60680538Y47093286D01*
X60670625Y46996108D01*
X60665014Y46867172D01*
X60664523Y46848802D01*
X60657459Y46571813D01*
X60716905Y46541072D01*
X60759919Y46520298D01*
X60785890Y46510454D01*
X60787091Y46510331D01*
X60791586Y46528494D01*
X60795156Y46577488D01*
X60797352Y46649069D01*
X60797831Y46707032D01*
X60797842Y46800930D01*
X60802134Y46859897D01*
X60817097Y46888021D01*
X60849118Y46889394D01*
X60904586Y46868102D01*
X60988331Y46828964D01*
X61049911Y46796457D01*
X61081583Y46768255D01*
X61090894Y46737518D01*
X61090908Y46735996D01*
X61075543Y46683046D01*
X61030053Y46654440D01*
X60960434Y46650297D01*
X60910287Y46651016D01*
X60883846Y46636573D01*
X60867357Y46601882D01*
X60857867Y46557684D01*
X60871543Y46532607D01*
X60876693Y46529018D01*
X60925175Y46514604D01*
X60993069Y46512563D01*
X61062988Y46522117D01*
X61112532Y46539578D01*
X61181030Y46597736D01*
X61219966Y46678692D01*
X61227677Y46741940D01*
X61221793Y46798989D01*
X61200499Y46845558D01*
X61158335Y46886919D01*
X61089841Y46928345D01*
X60989556Y46975107D01*
X60983446Y46977750D01*
X60893110Y47019483D01*
X60837365Y47053709D01*
X60813471Y47084465D01*
X60818687Y47115789D01*
X60850272Y47151717D01*
X60859717Y47159984D01*
X60922983Y47192042D01*
X60988536Y47190693D01*
X61045628Y47159262D01*
X61083507Y47101076D01*
X61087026Y47089654D01*
X61121300Y47034263D01*
X61164791Y47007582D01*
X61227677Y46981140D01*
X61227677Y47049552D01*
X61208548Y47148990D01*
X61151769Y47240198D01*
X61122222Y47270711D01*
X61055058Y47309872D01*
X60969644Y47327600D01*
X60881099Y47322797D01*
G36*
X61774754Y47456980D02*
G01*
X61769028Y47377120D01*
X61762451Y47330061D01*
X61753338Y47309534D01*
X61740002Y47309271D01*
X61735677Y47311722D01*
X61678156Y47329464D01*
X61603332Y47328428D01*
X61527261Y47310190D01*
X61479682Y47286595D01*
X61430898Y47248902D01*
X61395236Y47206245D01*
X61370755Y47152043D01*
X61355513Y47079716D01*
X61347570Y46982681D01*
X61344984Y46854358D01*
X61344938Y46829742D01*
X61344908Y46553230D01*
X61406439Y46531780D01*
X61450141Y46517188D01*
X61474118Y46510394D01*
X61474823Y46510331D01*
X61477185Y46528755D01*
X61479194Y46579574D01*
X61480699Y46656107D01*
X61481547Y46751670D01*
X61481677Y46809771D01*
X61481949Y46924329D01*
X61483348Y47006433D01*
X61486751Y47062707D01*
X61493033Y47099774D01*
X61503071Y47124256D01*
X61517739Y47142775D01*
X61526898Y47151694D01*
X61589811Y47187634D01*
X61658464Y47190325D01*
X61720752Y47159930D01*
X61732271Y47148956D01*
X61749167Y47128321D01*
X61760886Y47103844D01*
X61768367Y47068453D01*
X61772546Y47015074D01*
X61774363Y46936634D01*
X61774754Y46828483D01*
X61774754Y46553230D01*
X61836285Y46531780D01*
X61879987Y46517188D01*
X61903964Y46510394D01*
X61904670Y46510331D01*
X61906474Y46529031D01*
X61908100Y46581778D01*
X61909483Y46663543D01*
X61910558Y46769295D01*
X61911260Y46894006D01*
X61911523Y47032645D01*
X61911523Y47567294D01*
X61784523Y47620864D01*
X61774754Y47456980D01*
G37*
X61774754Y47456980D02*
X61769028Y47377120D01*
X61762451Y47330061D01*
X61753338Y47309534D01*
X61740002Y47309271D01*
X61735677Y47311722D01*
X61678156Y47329464D01*
X61603332Y47328428D01*
X61527261Y47310190D01*
X61479682Y47286595D01*
X61430898Y47248902D01*
X61395236Y47206245D01*
X61370755Y47152043D01*
X61355513Y47079716D01*
X61347570Y46982681D01*
X61344984Y46854358D01*
X61344938Y46829742D01*
X61344908Y46553230D01*
X61406439Y46531780D01*
X61450141Y46517188D01*
X61474118Y46510394D01*
X61474823Y46510331D01*
X61477185Y46528755D01*
X61479194Y46579574D01*
X61480699Y46656107D01*
X61481547Y46751670D01*
X61481677Y46809771D01*
X61481949Y46924329D01*
X61483348Y47006433D01*
X61486751Y47062707D01*
X61493033Y47099774D01*
X61503071Y47124256D01*
X61517739Y47142775D01*
X61526898Y47151694D01*
X61589811Y47187634D01*
X61658464Y47190325D01*
X61720752Y47159930D01*
X61732271Y47148956D01*
X61749167Y47128321D01*
X61760886Y47103844D01*
X61768367Y47068453D01*
X61772546Y47015074D01*
X61774363Y46936634D01*
X61774754Y46828483D01*
X61774754Y46553230D01*
X61836285Y46531780D01*
X61879987Y46517188D01*
X61903964Y46510394D01*
X61904670Y46510331D01*
X61906474Y46529031D01*
X61908100Y46581778D01*
X61909483Y46663543D01*
X61910558Y46769295D01*
X61911260Y46894006D01*
X61911523Y47032645D01*
X61911523Y47567294D01*
X61784523Y47620864D01*
X61774754Y47456980D01*
G36*
X63400346Y47349355D02*
G01*
X63323314Y47297533D01*
X63263784Y47222688D01*
X63228222Y47127446D01*
X63221029Y47057344D01*
X63221846Y47028091D01*
X63228686Y47005693D01*
X63247488Y46985626D01*
X63284192Y46963367D01*
X63344738Y46934391D01*
X63435066Y46894173D01*
X63435523Y46893971D01*
X63518667Y46855890D01*
X63586847Y46822075D01*
X63633095Y46796167D01*
X63650442Y46781805D01*
X63650446Y46781689D01*
X63635157Y46750415D01*
X63599404Y46715943D01*
X63558358Y46691110D01*
X63537563Y46686177D01*
X63480830Y46703238D01*
X63431973Y46745967D01*
X63408135Y46792945D01*
X63385203Y46827578D01*
X63340282Y46867019D01*
X63287477Y46901091D01*
X63240890Y46919620D01*
X63231148Y46920638D01*
X63220182Y46903885D01*
X63219521Y46861061D01*
X63227580Y46803319D01*
X63242773Y46741811D01*
X63263514Y46687691D01*
X63264562Y46685590D01*
X63326979Y46598440D01*
X63407874Y46539161D01*
X63499744Y46510066D01*
X63595087Y46513466D01*
X63686402Y46551672D01*
X63690462Y46554359D01*
X63762294Y46619458D01*
X63809527Y46704395D01*
X63835666Y46816079D01*
X63839174Y46847457D01*
X63845387Y46995564D01*
X63837939Y47064632D01*
X63650446Y47064632D01*
X63648010Y47021548D01*
X63634686Y47008974D01*
X63601468Y47018381D01*
X63549106Y47040617D01*
X63490576Y47068490D01*
X63489121Y47069228D01*
X63439511Y47095323D01*
X63419600Y47112737D01*
X63424510Y47130993D01*
X63445184Y47154980D01*
X63497781Y47189694D01*
X63554423Y47192244D01*
X63605231Y47166981D01*
X63640324Y47118253D01*
X63650446Y47064632D01*
X63837939Y47064632D01*
X63832608Y47114064D01*
X63799822Y47208045D01*
X63754179Y47273885D01*
X63671798Y47340419D01*
X63581054Y47373424D01*
X63488415Y47375527D01*
X63400346Y47349355D01*
G37*
X63400346Y47349355D02*
X63323314Y47297533D01*
X63263784Y47222688D01*
X63228222Y47127446D01*
X63221029Y47057344D01*
X63221846Y47028091D01*
X63228686Y47005693D01*
X63247488Y46985626D01*
X63284192Y46963367D01*
X63344738Y46934391D01*
X63435066Y46894173D01*
X63435523Y46893971D01*
X63518667Y46855890D01*
X63586847Y46822075D01*
X63633095Y46796167D01*
X63650442Y46781805D01*
X63650446Y46781689D01*
X63635157Y46750415D01*
X63599404Y46715943D01*
X63558358Y46691110D01*
X63537563Y46686177D01*
X63480830Y46703238D01*
X63431973Y46745967D01*
X63408135Y46792945D01*
X63385203Y46827578D01*
X63340282Y46867019D01*
X63287477Y46901091D01*
X63240890Y46919620D01*
X63231148Y46920638D01*
X63220182Y46903885D01*
X63219521Y46861061D01*
X63227580Y46803319D01*
X63242773Y46741811D01*
X63263514Y46687691D01*
X63264562Y46685590D01*
X63326979Y46598440D01*
X63407874Y46539161D01*
X63499744Y46510066D01*
X63595087Y46513466D01*
X63686402Y46551672D01*
X63690462Y46554359D01*
X63762294Y46619458D01*
X63809527Y46704395D01*
X63835666Y46816079D01*
X63839174Y46847457D01*
X63845387Y46995564D01*
X63837939Y47064632D01*
X63650446Y47064632D01*
X63648010Y47021548D01*
X63634686Y47008974D01*
X63601468Y47018381D01*
X63549106Y47040617D01*
X63490576Y47068490D01*
X63489121Y47069228D01*
X63439511Y47095323D01*
X63419600Y47112737D01*
X63424510Y47130993D01*
X63445184Y47154980D01*
X63497781Y47189694D01*
X63554423Y47192244D01*
X63605231Y47166981D01*
X63640324Y47118253D01*
X63650446Y47064632D01*
X63837939Y47064632D01*
X63832608Y47114064D01*
X63799822Y47208045D01*
X63754179Y47273885D01*
X63671798Y47340419D01*
X63581054Y47373424D01*
X63488415Y47375527D01*
X63400346Y47349355D01*
G36*
X64917714Y47361844D02*
G01*
X64826136Y47313691D01*
X64758551Y47236195D01*
X64734543Y47186373D01*
X64715862Y47111567D01*
X64706299Y47017048D01*
X64705392Y46913890D01*
X64712679Y46813165D01*
X64727697Y46725947D01*
X64749985Y46663309D01*
X64756835Y46652521D01*
X64837968Y46571995D01*
X64934334Y46523764D01*
X65038899Y46509650D01*
X65144632Y46531471D01*
X65174057Y46544553D01*
X65231359Y46584869D01*
X65281650Y46638325D01*
X65286403Y46645105D01*
X65305722Y46677779D01*
X65318492Y46712706D01*
X65326036Y46758686D01*
X65329676Y46824516D01*
X65330735Y46918995D01*
X65330754Y46940177D01*
X65330706Y46946918D01*
X65135369Y46946918D01*
X65134232Y46857751D01*
X65129759Y46798580D01*
X65120354Y46760359D01*
X65104424Y46734047D01*
X65096292Y46725254D01*
X65049542Y46691839D01*
X65004153Y46693363D01*
X64958260Y46722348D01*
X64930888Y46753291D01*
X64914677Y46798457D01*
X64905574Y46869680D01*
X64904949Y46877986D01*
X64903396Y47007063D01*
X64919635Y47102928D01*
X64953448Y47164993D01*
X65004616Y47192668D01*
X65022880Y47194177D01*
X65070840Y47186587D01*
X65103647Y47160292D01*
X65123705Y47110005D01*
X65133422Y47030436D01*
X65135369Y46946918D01*
X65330706Y46946918D01*
X65330026Y47040851D01*
X65326971Y47111194D01*
X65320278Y47159937D01*
X65308640Y47195812D01*
X65290747Y47227552D01*
X65286792Y47233452D01*
X65220333Y47312996D01*
X65147915Y47359171D01*
X65059751Y47377501D01*
X65029813Y47378397D01*
X64917714Y47361844D01*
G37*
X64917714Y47361844D02*
X64826136Y47313691D01*
X64758551Y47236195D01*
X64734543Y47186373D01*
X64715862Y47111567D01*
X64706299Y47017048D01*
X64705392Y46913890D01*
X64712679Y46813165D01*
X64727697Y46725947D01*
X64749985Y46663309D01*
X64756835Y46652521D01*
X64837968Y46571995D01*
X64934334Y46523764D01*
X65038899Y46509650D01*
X65144632Y46531471D01*
X65174057Y46544553D01*
X65231359Y46584869D01*
X65281650Y46638325D01*
X65286403Y46645105D01*
X65305722Y46677779D01*
X65318492Y46712706D01*
X65326036Y46758686D01*
X65329676Y46824516D01*
X65330735Y46918995D01*
X65330754Y46940177D01*
X65330706Y46946918D01*
X65135369Y46946918D01*
X65134232Y46857751D01*
X65129759Y46798580D01*
X65120354Y46760359D01*
X65104424Y46734047D01*
X65096292Y46725254D01*
X65049542Y46691839D01*
X65004153Y46693363D01*
X64958260Y46722348D01*
X64930888Y46753291D01*
X64914677Y46798457D01*
X64905574Y46869680D01*
X64904949Y46877986D01*
X64903396Y47007063D01*
X64919635Y47102928D01*
X64953448Y47164993D01*
X65004616Y47192668D01*
X65022880Y47194177D01*
X65070840Y47186587D01*
X65103647Y47160292D01*
X65123705Y47110005D01*
X65133422Y47030436D01*
X65135369Y46946918D01*
X65330706Y46946918D01*
X65330026Y47040851D01*
X65326971Y47111194D01*
X65320278Y47159937D01*
X65308640Y47195812D01*
X65290747Y47227552D01*
X65286792Y47233452D01*
X65220333Y47312996D01*
X65147915Y47359171D01*
X65059751Y47377501D01*
X65029813Y47378397D01*
X64917714Y47361844D01*
G36*
X62662936Y47354011D02*
G01*
X62600233Y47317742D01*
X62556639Y47281742D01*
X62524755Y47244025D01*
X62502790Y47197901D01*
X62488951Y47136679D01*
X62481447Y47053669D01*
X62478483Y46942181D01*
X62478139Y46862038D01*
X62478139Y46567035D01*
X62644215Y46492585D01*
X62653985Y46815698D01*
X62658021Y46936371D01*
X62662256Y47023959D01*
X62667503Y47084450D01*
X62674575Y47123832D01*
X62684289Y47148093D01*
X62697456Y47163220D01*
X62701681Y47166494D01*
X62765691Y47192066D01*
X62830392Y47181947D01*
X62868908Y47155100D01*
X62884575Y47136076D01*
X62895420Y47111112D01*
X62902312Y47073266D01*
X62906121Y47015598D01*
X62907717Y46931165D01*
X62907985Y46843172D01*
X62908037Y46732777D01*
X62909928Y46654637D01*
X62916255Y46601935D01*
X62929617Y46567858D01*
X62952615Y46545589D01*
X62987846Y46528313D01*
X63034903Y46510362D01*
X63086297Y46490822D01*
X63080179Y46837615D01*
X63077716Y46962632D01*
X63074833Y47055018D01*
X63070702Y47121219D01*
X63064493Y47167680D01*
X63055374Y47200844D01*
X63042517Y47227156D01*
X63027016Y47250371D01*
X62952229Y47324531D01*
X62860972Y47367416D01*
X62761717Y47377688D01*
X62662936Y47354011D01*
G37*
X62662936Y47354011D02*
X62600233Y47317742D01*
X62556639Y47281742D01*
X62524755Y47244025D01*
X62502790Y47197901D01*
X62488951Y47136679D01*
X62481447Y47053669D01*
X62478483Y46942181D01*
X62478139Y46862038D01*
X62478139Y46567035D01*
X62644215Y46492585D01*
X62653985Y46815698D01*
X62658021Y46936371D01*
X62662256Y47023959D01*
X62667503Y47084450D01*
X62674575Y47123832D01*
X62684289Y47148093D01*
X62697456Y47163220D01*
X62701681Y47166494D01*
X62765691Y47192066D01*
X62830392Y47181947D01*
X62868908Y47155100D01*
X62884575Y47136076D01*
X62895420Y47111112D01*
X62902312Y47073266D01*
X62906121Y47015598D01*
X62907717Y46931165D01*
X62907985Y46843172D01*
X62908037Y46732777D01*
X62909928Y46654637D01*
X62916255Y46601935D01*
X62929617Y46567858D01*
X62952615Y46545589D01*
X62987846Y46528313D01*
X63034903Y46510362D01*
X63086297Y46490822D01*
X63080179Y46837615D01*
X63077716Y46962632D01*
X63074833Y47055018D01*
X63070702Y47121219D01*
X63064493Y47167680D01*
X63055374Y47200844D01*
X63042517Y47227156D01*
X63027016Y47250371D01*
X62952229Y47324531D01*
X62860972Y47367416D01*
X62761717Y47377688D01*
X62662936Y47354011D01*
G36*
X64165714Y47364595D02*
G01*
X64091061Y47327373D01*
X64025169Y47258839D01*
X64007023Y47233452D01*
X63987255Y47200234D01*
X63974428Y47164155D01*
X63967090Y47116002D01*
X63963787Y47046564D01*
X63963062Y46954894D01*
X63966337Y46829270D01*
X63977723Y46734946D01*
X63999559Y46664577D01*
X64034181Y46610814D01*
X64083930Y46566312D01*
X64087586Y46563677D01*
X64136615Y46536723D01*
X64195655Y46523388D01*
X64270741Y46520100D01*
X64392805Y46520100D01*
X64392856Y46401603D01*
X64393992Y46335608D01*
X64400914Y46296898D01*
X64419002Y46273681D01*
X64453638Y46254167D01*
X64461955Y46250180D01*
X64500880Y46231497D01*
X64531017Y46219697D01*
X64553426Y46218678D01*
X64569167Y46232339D01*
X64579298Y46264578D01*
X64584877Y46319296D01*
X64586965Y46400389D01*
X64586619Y46511756D01*
X64584900Y46657298D01*
X64584363Y46700831D01*
X64582428Y46850895D01*
X64580696Y46949058D01*
X64392908Y46949058D01*
X64391852Y46865736D01*
X64387162Y46811220D01*
X64376549Y46775263D01*
X64357728Y46747618D01*
X64344950Y46734135D01*
X64292710Y46694683D01*
X64246458Y46691472D01*
X64198733Y46724051D01*
X64197523Y46725254D01*
X64178106Y46750432D01*
X64166293Y46784653D01*
X64160335Y46837352D01*
X64158480Y46917969D01*
X64158446Y46935829D01*
X64162930Y47046925D01*
X64177526Y47123939D01*
X64203950Y47170953D01*
X64243917Y47192050D01*
X64267016Y47194177D01*
X64321838Y47184200D01*
X64359442Y47151348D01*
X64382077Y47091243D01*
X64391994Y46999502D01*
X64392908Y46949058D01*
X64580696Y46949058D01*
X64580378Y46967040D01*
X64577727Y47054421D01*
X64573994Y47118195D01*
X64568693Y47163518D01*
X64561342Y47195545D01*
X64551457Y47219432D01*
X64538554Y47240336D01*
X64533021Y47248202D01*
X64459631Y47322505D01*
X64366840Y47364633D01*
X64259504Y47376378D01*
X64165714Y47364595D01*
G37*
X64165714Y47364595D02*
X64091061Y47327373D01*
X64025169Y47258839D01*
X64007023Y47233452D01*
X63987255Y47200234D01*
X63974428Y47164155D01*
X63967090Y47116002D01*
X63963787Y47046564D01*
X63963062Y46954894D01*
X63966337Y46829270D01*
X63977723Y46734946D01*
X63999559Y46664577D01*
X64034181Y46610814D01*
X64083930Y46566312D01*
X64087586Y46563677D01*
X64136615Y46536723D01*
X64195655Y46523388D01*
X64270741Y46520100D01*
X64392805Y46520100D01*
X64392856Y46401603D01*
X64393992Y46335608D01*
X64400914Y46296898D01*
X64419002Y46273681D01*
X64453638Y46254167D01*
X64461955Y46250180D01*
X64500880Y46231497D01*
X64531017Y46219697D01*
X64553426Y46218678D01*
X64569167Y46232339D01*
X64579298Y46264578D01*
X64584877Y46319296D01*
X64586965Y46400389D01*
X64586619Y46511756D01*
X64584900Y46657298D01*
X64584363Y46700831D01*
X64582428Y46850895D01*
X64580696Y46949058D01*
X64392908Y46949058D01*
X64391852Y46865736D01*
X64387162Y46811220D01*
X64376549Y46775263D01*
X64357728Y46747618D01*
X64344950Y46734135D01*
X64292710Y46694683D01*
X64246458Y46691472D01*
X64198733Y46724051D01*
X64197523Y46725254D01*
X64178106Y46750432D01*
X64166293Y46784653D01*
X64160335Y46837352D01*
X64158480Y46917969D01*
X64158446Y46935829D01*
X64162930Y47046925D01*
X64177526Y47123939D01*
X64203950Y47170953D01*
X64243917Y47192050D01*
X64267016Y47194177D01*
X64321838Y47184200D01*
X64359442Y47151348D01*
X64382077Y47091243D01*
X64391994Y46999502D01*
X64392908Y46949058D01*
X64580696Y46949058D01*
X64580378Y46967040D01*
X64577727Y47054421D01*
X64573994Y47118195D01*
X64568693Y47163518D01*
X64561342Y47195545D01*
X64551457Y47219432D01*
X64538554Y47240336D01*
X64533021Y47248202D01*
X64459631Y47322505D01*
X64366840Y47364633D01*
X64259504Y47376378D01*
X64165714Y47364595D01*
G36*
X64379957Y40679468D02*
G01*
X64363632Y40633206D01*
X64350962Y40595119D01*
X64343774Y40570810D01*
X64342808Y40565605D01*
X64353588Y40559929D01*
X64381817Y40555900D01*
X64420395Y40554408D01*
X64461767Y40554997D01*
X64484216Y40557778D01*
X64492437Y40564270D01*
X64491123Y40575992D01*
X64490753Y40577183D01*
X64483412Y40598708D01*
X64470428Y40635357D01*
X64454308Y40680074D01*
X64450316Y40691046D01*
X64417106Y40782135D01*
X64379957Y40679468D01*
G37*
X64379957Y40679468D02*
X64363632Y40633206D01*
X64350962Y40595119D01*
X64343774Y40570810D01*
X64342808Y40565605D01*
X64353588Y40559929D01*
X64381817Y40555900D01*
X64420395Y40554408D01*
X64461767Y40554997D01*
X64484216Y40557778D01*
X64492437Y40564270D01*
X64491123Y40575992D01*
X64490753Y40577183D01*
X64483412Y40598708D01*
X64470428Y40635357D01*
X64454308Y40680074D01*
X64450316Y40691046D01*
X64417106Y40782135D01*
X64379957Y40679468D01*
G36*
X60668668Y40004948D02*
G01*
X61838394Y39420228D01*
X61835368Y38498027D01*
X61832343Y37575826D01*
X61460203Y37386760D01*
X61361797Y37336774D01*
X61259705Y37284936D01*
X61158462Y37233545D01*
X61062600Y37184902D01*
X60976652Y37141306D01*
X60905149Y37105058D01*
X60878366Y37091489D01*
X60668668Y36985285D01*
X60668668Y35474408D01*
X66717412Y35474408D01*
X66717412Y36230501D01*
X66717322Y36361762D01*
X66717063Y36485795D01*
X66716649Y36600622D01*
X66716096Y36704269D01*
X66715421Y36794756D01*
X66714637Y36870107D01*
X66713762Y36928345D01*
X66712809Y36967493D01*
X66711796Y36985574D01*
X66711487Y36986594D01*
X66700415Y36981406D01*
X66669406Y36966238D01*
X66619654Y36941684D01*
X66552351Y36908338D01*
X66468692Y36866795D01*
X66369869Y36817649D01*
X66257076Y36761494D01*
X66131505Y36698924D01*
X65994349Y36630535D01*
X65846803Y36556919D01*
X65690058Y36478671D01*
X65525309Y36396385D01*
X65353748Y36310656D01*
X65205226Y36236408D01*
X65028865Y36148246D01*
X64858313Y36063028D01*
X64694764Y35981348D01*
X64539410Y35903801D01*
X64393445Y35830981D01*
X64258061Y35763481D01*
X64134453Y35701898D01*
X64023813Y35646823D01*
X63927335Y35598853D01*
X63846211Y35558581D01*
X63781634Y35526601D01*
X63734799Y35503508D01*
X63706898Y35489895D01*
X63698966Y35486222D01*
X63697797Y35497659D01*
X63696717Y35530458D01*
X63695746Y35582354D01*
X63694908Y35651082D01*
X63694225Y35734376D01*
X63693718Y35829972D01*
X63693410Y35935605D01*
X63693323Y36049007D01*
X63693328Y36062152D01*
X63693615Y36638083D01*
X63696706Y36639639D01*
X63681226Y36639639D01*
X63681226Y36062087D01*
X63681174Y35930057D01*
X63680977Y35819809D01*
X63680572Y35729498D01*
X63679900Y35657277D01*
X63678898Y35601301D01*
X63677506Y35559724D01*
X63675662Y35530700D01*
X63673305Y35512383D01*
X63670373Y35502928D01*
X63666805Y35500490D01*
X63662662Y35503099D01*
X63641814Y35518733D01*
X63630173Y35523063D01*
X63609895Y35523355D01*
X63607389Y35523063D01*
X63598652Y35530340D01*
X63598529Y35532045D01*
X63588786Y35542549D01*
X63565784Y35555618D01*
X63538864Y35566923D01*
X63517369Y35572137D01*
X63512878Y35571729D01*
X63504171Y35577422D01*
X63504017Y35579301D01*
X63494274Y35589805D01*
X63471272Y35602874D01*
X63444353Y35614179D01*
X63422857Y35619393D01*
X63418366Y35618985D01*
X63409729Y35624810D01*
X63409506Y35627194D01*
X63399746Y35638339D01*
X63377882Y35649033D01*
X63355033Y35654476D01*
X63347482Y35653958D01*
X63338765Y35660175D01*
X63338622Y35661998D01*
X63328879Y35672503D01*
X63305877Y35685572D01*
X63278957Y35696877D01*
X63257462Y35702091D01*
X63252971Y35701682D01*
X63244264Y35707376D01*
X63244110Y35709254D01*
X63234367Y35719758D01*
X63211365Y35732827D01*
X63184446Y35744133D01*
X63162950Y35749347D01*
X63158459Y35748938D01*
X63149753Y35754632D01*
X63149599Y35756510D01*
X63139855Y35767014D01*
X63116853Y35780083D01*
X63089934Y35791389D01*
X63068439Y35796602D01*
X63063947Y35796194D01*
X63055241Y35801887D01*
X63055087Y35803766D01*
X63045344Y35814270D01*
X63022342Y35827339D01*
X62995422Y35838644D01*
X62973927Y35843858D01*
X62969436Y35843450D01*
X62960798Y35849275D01*
X62960575Y35851659D01*
X62950816Y35862804D01*
X62928952Y35873498D01*
X62906103Y35878941D01*
X62898552Y35878423D01*
X62890082Y35885032D01*
X62889692Y35888594D01*
X62882454Y35895650D01*
X62877878Y35893804D01*
X62866971Y35894287D01*
X62866064Y35898217D01*
X62856293Y35909831D01*
X62834374Y35920810D01*
X62811397Y35926246D01*
X62804040Y35925679D01*
X62795324Y35931896D01*
X62795180Y35933719D01*
X62785437Y35944224D01*
X62762435Y35957293D01*
X62735515Y35968598D01*
X62714020Y35973812D01*
X62709529Y35973403D01*
X62700822Y35979097D01*
X62700668Y35980975D01*
X62690925Y35991479D01*
X62667923Y36004548D01*
X62641004Y36015854D01*
X62619508Y36021067D01*
X62615017Y36020659D01*
X62606380Y36026484D01*
X62606157Y36028868D01*
X62596398Y36040014D01*
X62574534Y36050707D01*
X62551684Y36056150D01*
X62544133Y36055633D01*
X62535663Y36062241D01*
X62535273Y36065803D01*
X62528035Y36072859D01*
X62523459Y36071013D01*
X62512553Y36071496D01*
X62511645Y36075427D01*
X62501874Y36087040D01*
X62479956Y36098020D01*
X62456978Y36103455D01*
X62449622Y36102888D01*
X62440905Y36109106D01*
X62440761Y36110929D01*
X62431018Y36121433D01*
X62408016Y36134502D01*
X62381097Y36145807D01*
X62359601Y36151021D01*
X62355110Y36150613D01*
X62346404Y36156306D01*
X62346250Y36158184D01*
X62336507Y36168689D01*
X62313505Y36181758D01*
X62286585Y36193063D01*
X62265090Y36198277D01*
X62260599Y36197868D01*
X62251892Y36203562D01*
X62251738Y36205440D01*
X62241995Y36215945D01*
X62218993Y36229013D01*
X62192074Y36240319D01*
X62170578Y36245533D01*
X62166087Y36245124D01*
X62157450Y36250949D01*
X62157226Y36253333D01*
X62147467Y36264479D01*
X62125603Y36275172D01*
X62102754Y36280616D01*
X62095203Y36280098D01*
X62086486Y36286315D01*
X62086343Y36288138D01*
X62076987Y36298345D01*
X62055428Y36310874D01*
X62031426Y36321064D01*
X62014743Y36324254D01*
X62012735Y36323283D01*
X62002631Y36327512D01*
X61982954Y36343398D01*
X61980466Y36345687D01*
X61943716Y36370161D01*
X61906239Y36373677D01*
X61906180Y36373668D01*
X61897443Y36380945D01*
X61897319Y36382649D01*
X61887576Y36393154D01*
X61864574Y36406223D01*
X61837655Y36417528D01*
X61816160Y36422742D01*
X61811668Y36422334D01*
X61803031Y36428159D01*
X61802808Y36430542D01*
X61793049Y36441688D01*
X61771185Y36452382D01*
X61748335Y36457825D01*
X61740785Y36457307D01*
X61732068Y36463524D01*
X61731924Y36465347D01*
X61722181Y36475851D01*
X61699179Y36488920D01*
X61672260Y36500226D01*
X61650764Y36505440D01*
X61646273Y36505031D01*
X61637567Y36510725D01*
X61637412Y36512603D01*
X61627786Y36523001D01*
X61605413Y36535873D01*
X61580055Y36546499D01*
X61561471Y36550158D01*
X61560234Y36549925D01*
X61547622Y36556028D01*
X61533146Y36569376D01*
X61498373Y36593859D01*
X61463157Y36600206D01*
X61449400Y36606407D01*
X61448389Y36609721D01*
X61438660Y36619563D01*
X61416939Y36629439D01*
X61394428Y36634870D01*
X61386366Y36634516D01*
X61377649Y36640734D01*
X61377506Y36642556D01*
X61367762Y36653061D01*
X61344760Y36666130D01*
X61317841Y36677435D01*
X61296346Y36682649D01*
X61291854Y36682241D01*
X61283148Y36687934D01*
X61282994Y36689812D01*
X61273251Y36700317D01*
X61250249Y36713386D01*
X61223329Y36724691D01*
X61201834Y36729905D01*
X61197343Y36729496D01*
X61188636Y36735190D01*
X61188482Y36737068D01*
X61178739Y36747572D01*
X61155737Y36760641D01*
X61128818Y36771947D01*
X61107322Y36777161D01*
X61102831Y36776752D01*
X61094194Y36782577D01*
X61093971Y36784961D01*
X61084212Y36796107D01*
X61062348Y36806800D01*
X61039498Y36812243D01*
X61031947Y36811726D01*
X61023231Y36817943D01*
X61023087Y36819766D01*
X61013344Y36830270D01*
X60990342Y36843339D01*
X60963422Y36854644D01*
X60941927Y36859858D01*
X60937436Y36859450D01*
X60928729Y36865143D01*
X60928575Y36867022D01*
X60918832Y36877526D01*
X60895830Y36890595D01*
X60868911Y36901900D01*
X60847415Y36907114D01*
X60842924Y36906706D01*
X60834218Y36912399D01*
X60834064Y36914277D01*
X60824490Y36924183D01*
X60801972Y36937423D01*
X60775816Y36949378D01*
X60755325Y36955427D01*
X60751366Y36955334D01*
X60739419Y36961469D01*
X60725931Y36973200D01*
X60722843Y36978005D01*
X60723857Y36983890D01*
X60730553Y36991737D01*
X60744512Y37002430D01*
X60767313Y37016850D01*
X60800537Y37035881D01*
X60845763Y37060406D01*
X60904572Y37091307D01*
X60978543Y37129467D01*
X61069256Y37175769D01*
X61178292Y37231096D01*
X61276007Y37280543D01*
X61845609Y37568584D01*
X61953905Y37512324D01*
X61998096Y37488162D01*
X62032322Y37467128D01*
X62052482Y37451892D01*
X62055937Y37445929D01*
X62058748Y37440394D01*
X62066559Y37442275D01*
X62085310Y37441387D01*
X62110159Y37431548D01*
X62133585Y37417180D01*
X62148062Y37402705D01*
X62148324Y37394208D01*
X62147790Y37389810D01*
X62153388Y37392432D01*
X62172148Y37394282D01*
X62195541Y37387163D01*
X62214695Y37375248D01*
X62220744Y37362709D01*
X62220007Y37361088D01*
X62220390Y37354885D01*
X62226154Y37357525D01*
X62244006Y37358740D01*
X62269639Y37350999D01*
X62295092Y37338184D01*
X62312406Y37324183D01*
X62314785Y37314263D01*
X62314793Y37307524D01*
X62319985Y37309849D01*
X62337383Y37310743D01*
X62362863Y37302815D01*
X62388436Y37289973D01*
X62406115Y37276123D01*
X62408895Y37266357D01*
X62409444Y37260290D01*
X62414581Y37262645D01*
X62430613Y37262070D01*
X62458984Y37252727D01*
X62493545Y37237672D01*
X62528143Y37219959D01*
X62556626Y37202645D01*
X62572844Y37188785D01*
X62574130Y37183399D01*
X62574891Y37177626D01*
X62580196Y37180083D01*
X62593235Y37176813D01*
X62624464Y37164016D01*
X62671351Y37142958D01*
X62731366Y37114909D01*
X62801977Y37081134D01*
X62880654Y37042902D01*
X62964865Y37001481D01*
X63052081Y36958137D01*
X63139769Y36914138D01*
X63225398Y36870752D01*
X63306439Y36829247D01*
X63380360Y36790889D01*
X63444629Y36756947D01*
X63496716Y36728687D01*
X63534090Y36707378D01*
X63554221Y36694287D01*
X63556970Y36690906D01*
X63559327Y36684630D01*
X63567843Y36686532D01*
X63588207Y36685206D01*
X63618956Y36673925D01*
X63633433Y36666500D01*
X63681226Y36639639D01*
X63696706Y36639639D01*
X65547659Y37571385D01*
X65547831Y39418277D01*
X66129668Y39713051D01*
X66711506Y40007825D01*
X66714130Y40661924D01*
X66414797Y40661924D01*
X66414717Y40596130D01*
X66408280Y40533651D01*
X66395499Y40483173D01*
X66395384Y40482873D01*
X66358041Y40417586D01*
X66302405Y40362503D01*
X66232505Y40320074D01*
X66152366Y40292746D01*
X66066581Y40282968D01*
X66014722Y40286065D01*
X65953557Y40294455D01*
X65896316Y40306322D01*
X65896236Y40306343D01*
X65852687Y40317878D01*
X65818904Y40327574D01*
X65800662Y40333748D01*
X65799123Y40334621D01*
X65798014Y40347458D01*
X65798188Y40379440D01*
X65799545Y40426125D01*
X65801987Y40483070D01*
X65802837Y40499989D01*
X65810772Y40652981D01*
X65378589Y40652981D01*
X65376523Y40558919D01*
X65355009Y40476200D01*
X65316039Y40406239D01*
X65261606Y40350449D01*
X65193700Y40310243D01*
X65114316Y40287035D01*
X65025443Y40282239D01*
X64929075Y40297269D01*
X64902018Y40305170D01*
X64754327Y40305170D01*
X64745469Y40300070D01*
X64718451Y40296298D01*
X64678731Y40294548D01*
X64670547Y40294501D01*
X64582828Y40294501D01*
X64561251Y40365765D01*
X64539674Y40437028D01*
X64292488Y40430362D01*
X64272962Y40365385D01*
X64253435Y40300408D01*
X64162328Y40296959D01*
X64071220Y40293510D01*
X64100915Y40373750D01*
X64113981Y40409051D01*
X64133531Y40461870D01*
X64157850Y40527569D01*
X64185220Y40601509D01*
X64213924Y40679049D01*
X64222451Y40702083D01*
X64314291Y40950176D01*
X64414201Y40953473D01*
X64493291Y40956083D01*
X63976575Y40956083D01*
X63976575Y40294501D01*
X63822994Y40294501D01*
X63822994Y40513059D01*
X63822540Y40581932D01*
X63821278Y40641831D01*
X63819356Y40689093D01*
X63816924Y40720052D01*
X63814133Y40731046D01*
X63805620Y40721255D01*
X63786771Y40694178D01*
X63759498Y40652739D01*
X63725710Y40599859D01*
X63687317Y40538462D01*
X63671292Y40512488D01*
X63537311Y40294501D01*
X63374064Y40294501D01*
X63374064Y40653889D01*
X62934309Y40653889D01*
X62932972Y40561670D01*
X62915045Y40484017D01*
X62879451Y40417673D01*
X62841965Y40374774D01*
X62788349Y40330850D01*
X62732113Y40302924D01*
X62667207Y40289008D01*
X62587583Y40287116D01*
X62576622Y40287609D01*
X62522471Y40292798D01*
X62512515Y40294501D01*
X62239924Y40294501D01*
X62086853Y40294501D01*
X62083644Y40521028D01*
X62080436Y40747555D01*
X61940539Y40521028D01*
X61800643Y40294501D01*
X61637412Y40294501D01*
X61637412Y40660956D01*
X61501841Y40660956D01*
X61501646Y40582193D01*
X61487540Y40505497D01*
X61459596Y40435000D01*
X61417889Y40374833D01*
X61362494Y40329128D01*
X61351308Y40322877D01*
X61285886Y40299377D01*
X61207708Y40288037D01*
X61124384Y40289042D01*
X61043526Y40302576D01*
X61005366Y40314483D01*
X60946296Y40336503D01*
X60942768Y40417444D01*
X60939240Y40498386D01*
X60978210Y40472453D01*
X61037115Y40437922D01*
X61088842Y40419332D01*
X61141112Y40414284D01*
X61162042Y40415360D01*
X61227481Y40429962D01*
X61276775Y40461669D01*
X61310046Y40510633D01*
X61327413Y40577005D01*
X61330250Y40625292D01*
X61322402Y40702153D01*
X61298756Y40761499D01*
X61259157Y40803522D01*
X61203450Y40828415D01*
X61161581Y40835262D01*
X61116014Y40835988D01*
X61077299Y40827445D01*
X61037880Y40809918D01*
X61003591Y40791183D01*
X60978505Y40774964D01*
X60970063Y40767284D01*
X60956798Y40754652D01*
X60947179Y40764505D01*
X60941628Y40795924D01*
X60940389Y40831733D01*
X60941130Y40873580D01*
X60944944Y40898489D01*
X60954220Y40913141D01*
X60971347Y40924217D01*
X60973938Y40925569D01*
X61044268Y40950670D01*
X61125873Y40961853D01*
X61211101Y40959345D01*
X61292300Y40943374D01*
X61361818Y40914167D01*
X61362000Y40914060D01*
X61418202Y40868339D01*
X61460193Y40808160D01*
X61488048Y40737656D01*
X61501841Y40660956D01*
X61637412Y40660956D01*
X61637412Y40956083D01*
X61790409Y40956083D01*
X61793655Y40767262D01*
X61796901Y40578442D01*
X62034105Y40950176D01*
X62137015Y40953589D01*
X62239924Y40957003D01*
X62239924Y40294501D01*
X62512515Y40294501D01*
X62469227Y40301905D01*
X62427909Y40313020D01*
X62425994Y40313730D01*
X62369878Y40335040D01*
X62369878Y40415189D01*
X62371534Y40462668D01*
X62377069Y40488284D01*
X62387329Y40493606D01*
X62403160Y40480205D01*
X62404245Y40478912D01*
X62422305Y40465253D01*
X62454122Y40447731D01*
X62478976Y40436202D01*
X62545239Y40417789D01*
X62610746Y40417855D01*
X62669210Y40436063D01*
X62687928Y40447423D01*
X62723423Y40486140D01*
X62747271Y40539849D01*
X62758510Y40602470D01*
X62756179Y40667923D01*
X62739317Y40730126D01*
X62734360Y40741140D01*
X62698833Y40790151D01*
X62650316Y40821600D01*
X62592264Y40834891D01*
X62528134Y40829426D01*
X62461380Y40804611D01*
X62439358Y40792069D01*
X62406899Y40772388D01*
X62383335Y40759026D01*
X62375000Y40755246D01*
X62372386Y40766022D01*
X62370541Y40794209D01*
X62369878Y40831733D01*
X62370618Y40873580D01*
X62374433Y40898489D01*
X62383709Y40913141D01*
X62400836Y40924217D01*
X62403427Y40925569D01*
X62446648Y40941489D01*
X62504230Y40954242D01*
X62566976Y40962475D01*
X62625688Y40964836D01*
X62656134Y40962744D01*
X62742532Y40940873D01*
X62814334Y40900817D01*
X62870467Y40843770D01*
X62909856Y40770925D01*
X62931428Y40683473D01*
X62934309Y40653889D01*
X63374064Y40653889D01*
X63374064Y40956083D01*
X63527645Y40956083D01*
X63527645Y40772269D01*
X63528216Y40709949D01*
X63529792Y40657430D01*
X63532169Y40618554D01*
X63535143Y40597162D01*
X63537126Y40594315D01*
X63546195Y40605784D01*
X63565517Y40633999D01*
X63592895Y40675625D01*
X63626131Y40727328D01*
X63658219Y40778097D01*
X63769831Y40956020D01*
X63873203Y40956051D01*
X63976575Y40956083D01*
X64493291Y40956083D01*
X64514110Y40956770D01*
X64632250Y40636304D01*
X64662613Y40553941D01*
X64690358Y40478681D01*
X64714421Y40413409D01*
X64733740Y40361008D01*
X64747250Y40324362D01*
X64753890Y40306356D01*
X64754327Y40305170D01*
X64902018Y40305170D01*
X64892405Y40307977D01*
X64815366Y40333267D01*
X64815366Y40414303D01*
X64816049Y40454609D01*
X64817844Y40483626D01*
X64820368Y40495317D01*
X64820488Y40495339D01*
X64832459Y40489599D01*
X64858253Y40474719D01*
X64884846Y40458515D01*
X64954378Y40426081D01*
X65020647Y40415123D01*
X65080855Y40424188D01*
X65132207Y40451819D01*
X65171907Y40496561D01*
X65197159Y40556959D01*
X65205226Y40625292D01*
X65196647Y40692366D01*
X65172840Y40752492D01*
X65136698Y40799040D01*
X65125311Y40808341D01*
X65094932Y40823742D01*
X65053821Y40830903D01*
X65021067Y40831968D01*
X64973925Y40829661D01*
X64937036Y40820199D01*
X64897661Y40799929D01*
X64887375Y40793641D01*
X64854200Y40773495D01*
X64829839Y40759591D01*
X64820488Y40755246D01*
X64817959Y40766060D01*
X64816128Y40794511D01*
X64815369Y40834609D01*
X64815366Y40837613D01*
X64815366Y40919981D01*
X64883296Y40940422D01*
X64944867Y40953496D01*
X65014535Y40959710D01*
X65084324Y40959078D01*
X65146260Y40951614D01*
X65186870Y40939869D01*
X65260650Y40897250D01*
X65316436Y40839948D01*
X65354683Y40767282D01*
X65375845Y40678573D01*
X65378589Y40652981D01*
X65810772Y40652981D01*
X65811175Y40660734D01*
X66103087Y40660734D01*
X66103087Y40530780D01*
X65973133Y40530780D01*
X65973133Y40398074D01*
X66049797Y40402956D01*
X66111598Y40411893D01*
X66158570Y40432185D01*
X66198316Y40467757D01*
X66214590Y40488074D01*
X66227243Y40509378D01*
X66234711Y40535713D01*
X66238203Y40573595D01*
X66238947Y40619385D01*
X66237872Y40672090D01*
X66233841Y40707748D01*
X66225646Y40732872D01*
X66214590Y40750696D01*
X66176584Y40793134D01*
X66135105Y40819111D01*
X66082626Y40832436D01*
X66046593Y40835738D01*
X66003314Y40837025D01*
X65970503Y40833589D01*
X65938612Y40823142D01*
X65898094Y40803400D01*
X65886938Y40797509D01*
X65806649Y40754848D01*
X65813645Y40913262D01*
X65878622Y40936334D01*
X65945997Y40953052D01*
X66023342Y40960871D01*
X66102511Y40959861D01*
X66175357Y40950092D01*
X66229988Y40933339D01*
X66293257Y40894871D01*
X66349269Y40841288D01*
X66390528Y40780027D01*
X66395832Y40768708D01*
X66408507Y40722345D01*
X66414797Y40661924D01*
X66714130Y40661924D01*
X66714546Y40765489D01*
X66717585Y41523152D01*
X60668668Y41523152D01*
X60668668Y40004948D01*
G37*
X60668668Y40004948D02*
X61838394Y39420228D01*
X61835368Y38498027D01*
X61832343Y37575826D01*
X61460203Y37386760D01*
X61361797Y37336774D01*
X61259705Y37284936D01*
X61158462Y37233545D01*
X61062600Y37184902D01*
X60976652Y37141306D01*
X60905149Y37105058D01*
X60878366Y37091489D01*
X60668668Y36985285D01*
X60668668Y35474408D01*
X66717412Y35474408D01*
X66717412Y36230501D01*
X66717322Y36361762D01*
X66717063Y36485795D01*
X66716649Y36600622D01*
X66716096Y36704269D01*
X66715421Y36794756D01*
X66714637Y36870107D01*
X66713762Y36928345D01*
X66712809Y36967493D01*
X66711796Y36985574D01*
X66711487Y36986594D01*
X66700415Y36981406D01*
X66669406Y36966238D01*
X66619654Y36941684D01*
X66552351Y36908338D01*
X66468692Y36866795D01*
X66369869Y36817649D01*
X66257076Y36761494D01*
X66131505Y36698924D01*
X65994349Y36630535D01*
X65846803Y36556919D01*
X65690058Y36478671D01*
X65525309Y36396385D01*
X65353748Y36310656D01*
X65205226Y36236408D01*
X65028865Y36148246D01*
X64858313Y36063028D01*
X64694764Y35981348D01*
X64539410Y35903801D01*
X64393445Y35830981D01*
X64258061Y35763481D01*
X64134453Y35701898D01*
X64023813Y35646823D01*
X63927335Y35598853D01*
X63846211Y35558581D01*
X63781634Y35526601D01*
X63734799Y35503508D01*
X63706898Y35489895D01*
X63698966Y35486222D01*
X63697797Y35497659D01*
X63696717Y35530458D01*
X63695746Y35582354D01*
X63694908Y35651082D01*
X63694225Y35734376D01*
X63693718Y35829972D01*
X63693410Y35935605D01*
X63693323Y36049007D01*
X63693328Y36062152D01*
X63693615Y36638083D01*
X63696706Y36639639D01*
X63681226Y36639639D01*
X63681226Y36062087D01*
X63681174Y35930057D01*
X63680977Y35819809D01*
X63680572Y35729498D01*
X63679900Y35657277D01*
X63678898Y35601301D01*
X63677506Y35559724D01*
X63675662Y35530700D01*
X63673305Y35512383D01*
X63670373Y35502928D01*
X63666805Y35500490D01*
X63662662Y35503099D01*
X63641814Y35518733D01*
X63630173Y35523063D01*
X63609895Y35523355D01*
X63607389Y35523063D01*
X63598652Y35530340D01*
X63598529Y35532045D01*
X63588786Y35542549D01*
X63565784Y35555618D01*
X63538864Y35566923D01*
X63517369Y35572137D01*
X63512878Y35571729D01*
X63504171Y35577422D01*
X63504017Y35579301D01*
X63494274Y35589805D01*
X63471272Y35602874D01*
X63444353Y35614179D01*
X63422857Y35619393D01*
X63418366Y35618985D01*
X63409729Y35624810D01*
X63409506Y35627194D01*
X63399746Y35638339D01*
X63377882Y35649033D01*
X63355033Y35654476D01*
X63347482Y35653958D01*
X63338765Y35660175D01*
X63338622Y35661998D01*
X63328879Y35672503D01*
X63305877Y35685572D01*
X63278957Y35696877D01*
X63257462Y35702091D01*
X63252971Y35701682D01*
X63244264Y35707376D01*
X63244110Y35709254D01*
X63234367Y35719758D01*
X63211365Y35732827D01*
X63184446Y35744133D01*
X63162950Y35749347D01*
X63158459Y35748938D01*
X63149753Y35754632D01*
X63149599Y35756510D01*
X63139855Y35767014D01*
X63116853Y35780083D01*
X63089934Y35791389D01*
X63068439Y35796602D01*
X63063947Y35796194D01*
X63055241Y35801887D01*
X63055087Y35803766D01*
X63045344Y35814270D01*
X63022342Y35827339D01*
X62995422Y35838644D01*
X62973927Y35843858D01*
X62969436Y35843450D01*
X62960798Y35849275D01*
X62960575Y35851659D01*
X62950816Y35862804D01*
X62928952Y35873498D01*
X62906103Y35878941D01*
X62898552Y35878423D01*
X62890082Y35885032D01*
X62889692Y35888594D01*
X62882454Y35895650D01*
X62877878Y35893804D01*
X62866971Y35894287D01*
X62866064Y35898217D01*
X62856293Y35909831D01*
X62834374Y35920810D01*
X62811397Y35926246D01*
X62804040Y35925679D01*
X62795324Y35931896D01*
X62795180Y35933719D01*
X62785437Y35944224D01*
X62762435Y35957293D01*
X62735515Y35968598D01*
X62714020Y35973812D01*
X62709529Y35973403D01*
X62700822Y35979097D01*
X62700668Y35980975D01*
X62690925Y35991479D01*
X62667923Y36004548D01*
X62641004Y36015854D01*
X62619508Y36021067D01*
X62615017Y36020659D01*
X62606380Y36026484D01*
X62606157Y36028868D01*
X62596398Y36040014D01*
X62574534Y36050707D01*
X62551684Y36056150D01*
X62544133Y36055633D01*
X62535663Y36062241D01*
X62535273Y36065803D01*
X62528035Y36072859D01*
X62523459Y36071013D01*
X62512553Y36071496D01*
X62511645Y36075427D01*
X62501874Y36087040D01*
X62479956Y36098020D01*
X62456978Y36103455D01*
X62449622Y36102888D01*
X62440905Y36109106D01*
X62440761Y36110929D01*
X62431018Y36121433D01*
X62408016Y36134502D01*
X62381097Y36145807D01*
X62359601Y36151021D01*
X62355110Y36150613D01*
X62346404Y36156306D01*
X62346250Y36158184D01*
X62336507Y36168689D01*
X62313505Y36181758D01*
X62286585Y36193063D01*
X62265090Y36198277D01*
X62260599Y36197868D01*
X62251892Y36203562D01*
X62251738Y36205440D01*
X62241995Y36215945D01*
X62218993Y36229013D01*
X62192074Y36240319D01*
X62170578Y36245533D01*
X62166087Y36245124D01*
X62157450Y36250949D01*
X62157226Y36253333D01*
X62147467Y36264479D01*
X62125603Y36275172D01*
X62102754Y36280616D01*
X62095203Y36280098D01*
X62086486Y36286315D01*
X62086343Y36288138D01*
X62076987Y36298345D01*
X62055428Y36310874D01*
X62031426Y36321064D01*
X62014743Y36324254D01*
X62012735Y36323283D01*
X62002631Y36327512D01*
X61982954Y36343398D01*
X61980466Y36345687D01*
X61943716Y36370161D01*
X61906239Y36373677D01*
X61906180Y36373668D01*
X61897443Y36380945D01*
X61897319Y36382649D01*
X61887576Y36393154D01*
X61864574Y36406223D01*
X61837655Y36417528D01*
X61816160Y36422742D01*
X61811668Y36422334D01*
X61803031Y36428159D01*
X61802808Y36430542D01*
X61793049Y36441688D01*
X61771185Y36452382D01*
X61748335Y36457825D01*
X61740785Y36457307D01*
X61732068Y36463524D01*
X61731924Y36465347D01*
X61722181Y36475851D01*
X61699179Y36488920D01*
X61672260Y36500226D01*
X61650764Y36505440D01*
X61646273Y36505031D01*
X61637567Y36510725D01*
X61637412Y36512603D01*
X61627786Y36523001D01*
X61605413Y36535873D01*
X61580055Y36546499D01*
X61561471Y36550158D01*
X61560234Y36549925D01*
X61547622Y36556028D01*
X61533146Y36569376D01*
X61498373Y36593859D01*
X61463157Y36600206D01*
X61449400Y36606407D01*
X61448389Y36609721D01*
X61438660Y36619563D01*
X61416939Y36629439D01*
X61394428Y36634870D01*
X61386366Y36634516D01*
X61377649Y36640734D01*
X61377506Y36642556D01*
X61367762Y36653061D01*
X61344760Y36666130D01*
X61317841Y36677435D01*
X61296346Y36682649D01*
X61291854Y36682241D01*
X61283148Y36687934D01*
X61282994Y36689812D01*
X61273251Y36700317D01*
X61250249Y36713386D01*
X61223329Y36724691D01*
X61201834Y36729905D01*
X61197343Y36729496D01*
X61188636Y36735190D01*
X61188482Y36737068D01*
X61178739Y36747572D01*
X61155737Y36760641D01*
X61128818Y36771947D01*
X61107322Y36777161D01*
X61102831Y36776752D01*
X61094194Y36782577D01*
X61093971Y36784961D01*
X61084212Y36796107D01*
X61062348Y36806800D01*
X61039498Y36812243D01*
X61031947Y36811726D01*
X61023231Y36817943D01*
X61023087Y36819766D01*
X61013344Y36830270D01*
X60990342Y36843339D01*
X60963422Y36854644D01*
X60941927Y36859858D01*
X60937436Y36859450D01*
X60928729Y36865143D01*
X60928575Y36867022D01*
X60918832Y36877526D01*
X60895830Y36890595D01*
X60868911Y36901900D01*
X60847415Y36907114D01*
X60842924Y36906706D01*
X60834218Y36912399D01*
X60834064Y36914277D01*
X60824490Y36924183D01*
X60801972Y36937423D01*
X60775816Y36949378D01*
X60755325Y36955427D01*
X60751366Y36955334D01*
X60739419Y36961469D01*
X60725931Y36973200D01*
X60722843Y36978005D01*
X60723857Y36983890D01*
X60730553Y36991737D01*
X60744512Y37002430D01*
X60767313Y37016850D01*
X60800537Y37035881D01*
X60845763Y37060406D01*
X60904572Y37091307D01*
X60978543Y37129467D01*
X61069256Y37175769D01*
X61178292Y37231096D01*
X61276007Y37280543D01*
X61845609Y37568584D01*
X61953905Y37512324D01*
X61998096Y37488162D01*
X62032322Y37467128D01*
X62052482Y37451892D01*
X62055937Y37445929D01*
X62058748Y37440394D01*
X62066559Y37442275D01*
X62085310Y37441387D01*
X62110159Y37431548D01*
X62133585Y37417180D01*
X62148062Y37402705D01*
X62148324Y37394208D01*
X62147790Y37389810D01*
X62153388Y37392432D01*
X62172148Y37394282D01*
X62195541Y37387163D01*
X62214695Y37375248D01*
X62220744Y37362709D01*
X62220007Y37361088D01*
X62220390Y37354885D01*
X62226154Y37357525D01*
X62244006Y37358740D01*
X62269639Y37350999D01*
X62295092Y37338184D01*
X62312406Y37324183D01*
X62314785Y37314263D01*
X62314793Y37307524D01*
X62319985Y37309849D01*
X62337383Y37310743D01*
X62362863Y37302815D01*
X62388436Y37289973D01*
X62406115Y37276123D01*
X62408895Y37266357D01*
X62409444Y37260290D01*
X62414581Y37262645D01*
X62430613Y37262070D01*
X62458984Y37252727D01*
X62493545Y37237672D01*
X62528143Y37219959D01*
X62556626Y37202645D01*
X62572844Y37188785D01*
X62574130Y37183399D01*
X62574891Y37177626D01*
X62580196Y37180083D01*
X62593235Y37176813D01*
X62624464Y37164016D01*
X62671351Y37142958D01*
X62731366Y37114909D01*
X62801977Y37081134D01*
X62880654Y37042902D01*
X62964865Y37001481D01*
X63052081Y36958137D01*
X63139769Y36914138D01*
X63225398Y36870752D01*
X63306439Y36829247D01*
X63380360Y36790889D01*
X63444629Y36756947D01*
X63496716Y36728687D01*
X63534090Y36707378D01*
X63554221Y36694287D01*
X63556970Y36690906D01*
X63559327Y36684630D01*
X63567843Y36686532D01*
X63588207Y36685206D01*
X63618956Y36673925D01*
X63633433Y36666500D01*
X63681226Y36639639D01*
X63696706Y36639639D01*
X65547659Y37571385D01*
X65547831Y39418277D01*
X66129668Y39713051D01*
X66711506Y40007825D01*
X66714130Y40661924D01*
X66414797Y40661924D01*
X66414717Y40596130D01*
X66408280Y40533651D01*
X66395499Y40483173D01*
X66395384Y40482873D01*
X66358041Y40417586D01*
X66302405Y40362503D01*
X66232505Y40320074D01*
X66152366Y40292746D01*
X66066581Y40282968D01*
X66014722Y40286065D01*
X65953557Y40294455D01*
X65896316Y40306322D01*
X65896236Y40306343D01*
X65852687Y40317878D01*
X65818904Y40327574D01*
X65800662Y40333748D01*
X65799123Y40334621D01*
X65798014Y40347458D01*
X65798188Y40379440D01*
X65799545Y40426125D01*
X65801987Y40483070D01*
X65802837Y40499989D01*
X65810772Y40652981D01*
X65378589Y40652981D01*
X65376523Y40558919D01*
X65355009Y40476200D01*
X65316039Y40406239D01*
X65261606Y40350449D01*
X65193700Y40310243D01*
X65114316Y40287035D01*
X65025443Y40282239D01*
X64929075Y40297269D01*
X64902018Y40305170D01*
X64754327Y40305170D01*
X64745469Y40300070D01*
X64718451Y40296298D01*
X64678731Y40294548D01*
X64670547Y40294501D01*
X64582828Y40294501D01*
X64561251Y40365765D01*
X64539674Y40437028D01*
X64292488Y40430362D01*
X64272962Y40365385D01*
X64253435Y40300408D01*
X64162328Y40296959D01*
X64071220Y40293510D01*
X64100915Y40373750D01*
X64113981Y40409051D01*
X64133531Y40461870D01*
X64157850Y40527569D01*
X64185220Y40601509D01*
X64213924Y40679049D01*
X64222451Y40702083D01*
X64314291Y40950176D01*
X64414201Y40953473D01*
X64493291Y40956083D01*
X63976575Y40956083D01*
X63976575Y40294501D01*
X63822994Y40294501D01*
X63822994Y40513059D01*
X63822540Y40581932D01*
X63821278Y40641831D01*
X63819356Y40689093D01*
X63816924Y40720052D01*
X63814133Y40731046D01*
X63805620Y40721255D01*
X63786771Y40694178D01*
X63759498Y40652739D01*
X63725710Y40599859D01*
X63687317Y40538462D01*
X63671292Y40512488D01*
X63537311Y40294501D01*
X63374064Y40294501D01*
X63374064Y40653889D01*
X62934309Y40653889D01*
X62932972Y40561670D01*
X62915045Y40484017D01*
X62879451Y40417673D01*
X62841965Y40374774D01*
X62788349Y40330850D01*
X62732113Y40302924D01*
X62667207Y40289008D01*
X62587583Y40287116D01*
X62576622Y40287609D01*
X62522471Y40292798D01*
X62512515Y40294501D01*
X62239924Y40294501D01*
X62086853Y40294501D01*
X62083644Y40521028D01*
X62080436Y40747555D01*
X61940539Y40521028D01*
X61800643Y40294501D01*
X61637412Y40294501D01*
X61637412Y40660956D01*
X61501841Y40660956D01*
X61501646Y40582193D01*
X61487540Y40505497D01*
X61459596Y40435000D01*
X61417889Y40374833D01*
X61362494Y40329128D01*
X61351308Y40322877D01*
X61285886Y40299377D01*
X61207708Y40288037D01*
X61124384Y40289042D01*
X61043526Y40302576D01*
X61005366Y40314483D01*
X60946296Y40336503D01*
X60942768Y40417444D01*
X60939240Y40498386D01*
X60978210Y40472453D01*
X61037115Y40437922D01*
X61088842Y40419332D01*
X61141112Y40414284D01*
X61162042Y40415360D01*
X61227481Y40429962D01*
X61276775Y40461669D01*
X61310046Y40510633D01*
X61327413Y40577005D01*
X61330250Y40625292D01*
X61322402Y40702153D01*
X61298756Y40761499D01*
X61259157Y40803522D01*
X61203450Y40828415D01*
X61161581Y40835262D01*
X61116014Y40835988D01*
X61077299Y40827445D01*
X61037880Y40809918D01*
X61003591Y40791183D01*
X60978505Y40774964D01*
X60970063Y40767284D01*
X60956798Y40754652D01*
X60947179Y40764505D01*
X60941628Y40795924D01*
X60940389Y40831733D01*
X60941130Y40873580D01*
X60944944Y40898489D01*
X60954220Y40913141D01*
X60971347Y40924217D01*
X60973938Y40925569D01*
X61044268Y40950670D01*
X61125873Y40961853D01*
X61211101Y40959345D01*
X61292300Y40943374D01*
X61361818Y40914167D01*
X61362000Y40914060D01*
X61418202Y40868339D01*
X61460193Y40808160D01*
X61488048Y40737656D01*
X61501841Y40660956D01*
X61637412Y40660956D01*
X61637412Y40956083D01*
X61790409Y40956083D01*
X61793655Y40767262D01*
X61796901Y40578442D01*
X62034105Y40950176D01*
X62137015Y40953589D01*
X62239924Y40957003D01*
X62239924Y40294501D01*
X62512515Y40294501D01*
X62469227Y40301905D01*
X62427909Y40313020D01*
X62425994Y40313730D01*
X62369878Y40335040D01*
X62369878Y40415189D01*
X62371534Y40462668D01*
X62377069Y40488284D01*
X62387329Y40493606D01*
X62403160Y40480205D01*
X62404245Y40478912D01*
X62422305Y40465253D01*
X62454122Y40447731D01*
X62478976Y40436202D01*
X62545239Y40417789D01*
X62610746Y40417855D01*
X62669210Y40436063D01*
X62687928Y40447423D01*
X62723423Y40486140D01*
X62747271Y40539849D01*
X62758510Y40602470D01*
X62756179Y40667923D01*
X62739317Y40730126D01*
X62734360Y40741140D01*
X62698833Y40790151D01*
X62650316Y40821600D01*
X62592264Y40834891D01*
X62528134Y40829426D01*
X62461380Y40804611D01*
X62439358Y40792069D01*
X62406899Y40772388D01*
X62383335Y40759026D01*
X62375000Y40755246D01*
X62372386Y40766022D01*
X62370541Y40794209D01*
X62369878Y40831733D01*
X62370618Y40873580D01*
X62374433Y40898489D01*
X62383709Y40913141D01*
X62400836Y40924217D01*
X62403427Y40925569D01*
X62446648Y40941489D01*
X62504230Y40954242D01*
X62566976Y40962475D01*
X62625688Y40964836D01*
X62656134Y40962744D01*
X62742532Y40940873D01*
X62814334Y40900817D01*
X62870467Y40843770D01*
X62909856Y40770925D01*
X62931428Y40683473D01*
X62934309Y40653889D01*
X63374064Y40653889D01*
X63374064Y40956083D01*
X63527645Y40956083D01*
X63527645Y40772269D01*
X63528216Y40709949D01*
X63529792Y40657430D01*
X63532169Y40618554D01*
X63535143Y40597162D01*
X63537126Y40594315D01*
X63546195Y40605784D01*
X63565517Y40633999D01*
X63592895Y40675625D01*
X63626131Y40727328D01*
X63658219Y40778097D01*
X63769831Y40956020D01*
X63873203Y40956051D01*
X63976575Y40956083D01*
X64493291Y40956083D01*
X64514110Y40956770D01*
X64632250Y40636304D01*
X64662613Y40553941D01*
X64690358Y40478681D01*
X64714421Y40413409D01*
X64733740Y40361008D01*
X64747250Y40324362D01*
X64753890Y40306356D01*
X64754327Y40305170D01*
X64902018Y40305170D01*
X64892405Y40307977D01*
X64815366Y40333267D01*
X64815366Y40414303D01*
X64816049Y40454609D01*
X64817844Y40483626D01*
X64820368Y40495317D01*
X64820488Y40495339D01*
X64832459Y40489599D01*
X64858253Y40474719D01*
X64884846Y40458515D01*
X64954378Y40426081D01*
X65020647Y40415123D01*
X65080855Y40424188D01*
X65132207Y40451819D01*
X65171907Y40496561D01*
X65197159Y40556959D01*
X65205226Y40625292D01*
X65196647Y40692366D01*
X65172840Y40752492D01*
X65136698Y40799040D01*
X65125311Y40808341D01*
X65094932Y40823742D01*
X65053821Y40830903D01*
X65021067Y40831968D01*
X64973925Y40829661D01*
X64937036Y40820199D01*
X64897661Y40799929D01*
X64887375Y40793641D01*
X64854200Y40773495D01*
X64829839Y40759591D01*
X64820488Y40755246D01*
X64817959Y40766060D01*
X64816128Y40794511D01*
X64815369Y40834609D01*
X64815366Y40837613D01*
X64815366Y40919981D01*
X64883296Y40940422D01*
X64944867Y40953496D01*
X65014535Y40959710D01*
X65084324Y40959078D01*
X65146260Y40951614D01*
X65186870Y40939869D01*
X65260650Y40897250D01*
X65316436Y40839948D01*
X65354683Y40767282D01*
X65375845Y40678573D01*
X65378589Y40652981D01*
X65810772Y40652981D01*
X65811175Y40660734D01*
X66103087Y40660734D01*
X66103087Y40530780D01*
X65973133Y40530780D01*
X65973133Y40398074D01*
X66049797Y40402956D01*
X66111598Y40411893D01*
X66158570Y40432185D01*
X66198316Y40467757D01*
X66214590Y40488074D01*
X66227243Y40509378D01*
X66234711Y40535713D01*
X66238203Y40573595D01*
X66238947Y40619385D01*
X66237872Y40672090D01*
X66233841Y40707748D01*
X66225646Y40732872D01*
X66214590Y40750696D01*
X66176584Y40793134D01*
X66135105Y40819111D01*
X66082626Y40832436D01*
X66046593Y40835738D01*
X66003314Y40837025D01*
X65970503Y40833589D01*
X65938612Y40823142D01*
X65898094Y40803400D01*
X65886938Y40797509D01*
X65806649Y40754848D01*
X65813645Y40913262D01*
X65878622Y40936334D01*
X65945997Y40953052D01*
X66023342Y40960871D01*
X66102511Y40959861D01*
X66175357Y40950092D01*
X66229988Y40933339D01*
X66293257Y40894871D01*
X66349269Y40841288D01*
X66390528Y40780027D01*
X66395832Y40768708D01*
X66408507Y40722345D01*
X66414797Y40661924D01*
X66714130Y40661924D01*
X66714546Y40765489D01*
X66717585Y41523152D01*
X60668668Y41523152D01*
X60668668Y40004948D01*
D13*
X13177520Y51114960D02*
X11907520Y51114960D01*
X13177520Y49844960D02*
X13177520Y51114960D01*
X10864591Y31684960D02*
X10467520Y31684960D01*
X10864591Y32444960D02*
X10467520Y32444960D01*
X1807520Y31684960D02*
X7807520Y31684960D01*
X1807520Y32444960D02*
X1807520Y31684960D01*
X7807520Y32444960D02*
X1807520Y32444960D01*
X10467520Y33334960D02*
X7807520Y33334960D01*
X10864591Y34224960D02*
X10467520Y34224960D01*
X10864591Y34984960D02*
X10467520Y34984960D01*
X1807520Y34224960D02*
X7807520Y34224960D01*
X1807520Y34984960D02*
X1807520Y34224960D01*
X7807520Y34984960D02*
X1807520Y34984960D01*
X10467520Y35874960D02*
X7807520Y35874960D01*
X10864591Y36764960D02*
X10467520Y36764960D01*
X10864591Y37524960D02*
X10467520Y37524960D01*
X1807520Y36764960D02*
X7807520Y36764960D01*
X1807520Y37524960D02*
X1807520Y36764960D01*
X7807520Y37524960D02*
X1807520Y37524960D01*
X10467520Y38414960D02*
X7807520Y38414960D01*
X10864591Y39304960D02*
X10467520Y39304960D01*
X10864591Y40064960D02*
X10467520Y40064960D01*
X1807520Y39304960D02*
X7807520Y39304960D01*
X1807520Y40064960D02*
X1807520Y39304960D01*
X7807520Y40064960D02*
X1807520Y40064960D01*
X10467520Y40954960D02*
X7807520Y40954960D01*
X10864591Y41844960D02*
X10467520Y41844960D01*
X10864591Y42604960D02*
X10467520Y42604960D01*
X1807520Y41844960D02*
X7807520Y41844960D01*
X1807520Y42604960D02*
X1807520Y41844960D01*
X7807520Y42604960D02*
X1807520Y42604960D01*
X10467520Y43494960D02*
X7807520Y43494960D01*
X10864591Y44384960D02*
X10467520Y44384960D01*
X10864591Y45144960D02*
X10467520Y45144960D01*
X1807520Y44384960D02*
X7807520Y44384960D01*
X1807520Y45144960D02*
X1807520Y44384960D01*
X7807520Y45144960D02*
X1807520Y45144960D01*
X10467520Y46034960D02*
X7807520Y46034960D01*
X10864591Y46924960D02*
X10467520Y46924960D01*
X10864591Y47684960D02*
X10467520Y47684960D01*
X1807520Y46924960D02*
X7807520Y46924960D01*
X1807520Y47684960D02*
X1807520Y46924960D01*
X7807520Y47684960D02*
X1807520Y47684960D01*
X10467520Y48574960D02*
X7807520Y48574960D01*
X10797520Y49464960D02*
X10467520Y49464960D01*
X10797520Y50224960D02*
X10467520Y50224960D01*
X7807520Y49564960D02*
X1807520Y49564960D01*
X7807520Y49684960D02*
X1807520Y49684960D01*
X7807520Y49804960D02*
X1807520Y49804960D01*
X7807520Y49924960D02*
X1807520Y49924960D01*
X7807520Y50044960D02*
X1807520Y50044960D01*
X7807520Y50164960D02*
X1807520Y50164960D01*
X1807520Y49464960D02*
X7807520Y49464960D01*
X1807520Y50224960D02*
X1807520Y49464960D01*
X7807520Y50224960D02*
X1807520Y50224960D01*
X7807520Y51174960D02*
X10467520Y51174960D01*
X7807520Y30734960D02*
X7807520Y51174960D01*
X10467520Y30734960D02*
X7807520Y30734960D01*
X10467520Y51174960D02*
X10467520Y30734960D01*
M02*
