G04 #@! TF.GenerationSoftware,KiCad,Pcbnew,(5.1.5-0)*
G04 #@! TF.CreationDate,2022-06-30T09:19:57+01:00*
G04 #@! TF.ProjectId,ESP32_Cnc_Shield,45535033-325f-4436-9e63-5f536869656c,rev?*
G04 #@! TF.SameCoordinates,Original*
G04 #@! TF.FileFunction,Copper,L1,Top*
G04 #@! TF.FilePolarity,Positive*
%FSLAX46Y46*%
G04 Gerber Fmt 4.6, Leading zero omitted, Abs format (unit mm)*
G04 Created by KiCad (PCBNEW (5.1.5-0)) date 2022-06-30 09:19:57*
%MOMM*%
%LPD*%
G04 APERTURE LIST*
%ADD10C,3.000000*%
%ADD11R,3.000000X3.000000*%
%ADD12O,3.000000X2.000000*%
%ADD13R,3.000000X2.000000*%
%ADD14O,2.000000X3.000000*%
%ADD15R,2.000000X3.000000*%
%ADD16C,2.000000*%
%ADD17C,1.000000*%
%ADD18C,0.500000*%
G04 APERTURE END LIST*
D10*
X69685000Y61260000D03*
D11*
X69685000Y56180000D03*
D10*
X44917460Y18000000D03*
X44917460Y13000000D03*
D12*
X11907520Y32064960D03*
X11907520Y34604960D03*
X11907520Y37144960D03*
X11907520Y39684960D03*
X11907520Y42224960D03*
X11907520Y44764960D03*
X11907520Y47304960D03*
D13*
X11907520Y49844960D03*
D10*
X69065240Y18038100D03*
X69065240Y13038100D03*
D12*
X51651000Y64308000D03*
X51651000Y59228000D03*
X27902000Y64054000D03*
X27902000Y58974000D03*
X36792000Y63800000D03*
X36792000Y58720000D03*
X24092000Y64308000D03*
X24092000Y59228000D03*
D14*
X9360000Y4745000D03*
X11900000Y4745000D03*
X14440000Y4745000D03*
D15*
X16980000Y4745000D03*
D14*
X32220000Y4745000D03*
X34760000Y4745000D03*
X37300000Y4745000D03*
D15*
X39840000Y4745000D03*
D14*
X20790000Y68118000D03*
D15*
X18250000Y68118000D03*
D14*
X11011000Y68118000D03*
D15*
X13551000Y68118000D03*
D14*
X56350000Y4745000D03*
X58890000Y4745000D03*
X61430000Y4745000D03*
D15*
X63970000Y4745000D03*
D14*
X4280000Y9190000D03*
X6820000Y9190000D03*
X9360000Y9190000D03*
X11900000Y9190000D03*
X14440000Y9190000D03*
X16980000Y9190000D03*
X19520000Y9190000D03*
D15*
X22060000Y9190000D03*
D14*
X26256080Y68245000D03*
D15*
X28796080Y68245000D03*
D14*
X44018300Y68245000D03*
D15*
X41478300Y68245000D03*
D14*
X49128780Y68245000D03*
D15*
X51668780Y68245000D03*
D14*
X27140000Y9190000D03*
X29680000Y9190000D03*
X32220000Y9190000D03*
X34760000Y9190000D03*
X37300000Y9190000D03*
X39840000Y9190000D03*
X42380000Y9190000D03*
D15*
X44920000Y9190000D03*
D14*
X36383060Y68245000D03*
D15*
X33843060Y68245000D03*
D14*
X51270000Y9190000D03*
X53810000Y9190000D03*
X56350000Y9190000D03*
X58890000Y9190000D03*
X61430000Y9190000D03*
X63970000Y9190000D03*
X66510000Y9190000D03*
D15*
X69050000Y9190000D03*
D14*
X68542000Y27859000D03*
D15*
X71082000Y27859000D03*
D14*
X4280000Y21890000D03*
X6820000Y21890000D03*
X9360000Y21890000D03*
X11900000Y21890000D03*
X14440000Y21890000D03*
X16980000Y21890000D03*
X19520000Y21890000D03*
D15*
X22060000Y21890000D03*
D14*
X4280000Y28240000D03*
X6820000Y28240000D03*
X9360000Y28240000D03*
X11900000Y28240000D03*
X14440000Y28240000D03*
X16980000Y28240000D03*
X19520000Y28240000D03*
X22060000Y28240000D03*
X24600000Y28240000D03*
X27140000Y28240000D03*
X29680000Y28240000D03*
X32220000Y28240000D03*
X34760000Y28240000D03*
X37300000Y28240000D03*
X39840000Y28240000D03*
X42380000Y28240000D03*
X44920000Y28240000D03*
X47460000Y28240000D03*
D15*
X50000000Y28240000D03*
D14*
X27140000Y21890000D03*
X29680000Y21890000D03*
X32220000Y21890000D03*
X34760000Y21890000D03*
X37300000Y21890000D03*
X39840000Y21890000D03*
X42380000Y21890000D03*
D15*
X44920000Y21890000D03*
D14*
X51270000Y21890000D03*
X53810000Y21890000D03*
X56350000Y21890000D03*
X58890000Y21890000D03*
X61430000Y21890000D03*
X63970000Y21890000D03*
X66510000Y21890000D03*
D15*
X69050000Y21890000D03*
D14*
X4280000Y53640000D03*
X6820000Y53640000D03*
X9360000Y53640000D03*
X11900000Y53640000D03*
X14440000Y53640000D03*
X16980000Y53640000D03*
X19520000Y53640000D03*
X22060000Y53640000D03*
X24600000Y53640000D03*
X27140000Y53640000D03*
X29680000Y53640000D03*
X32220000Y53640000D03*
X34760000Y53640000D03*
X37300000Y53640000D03*
X39840000Y53640000D03*
X42380000Y53640000D03*
X44920000Y53640000D03*
X47460000Y53640000D03*
D15*
X50000000Y53640000D03*
D10*
X47206000Y63712000D03*
X47206000Y58212000D03*
X32220000Y63712000D03*
X32220000Y58212000D03*
X41110000Y63712000D03*
X41110000Y58212000D03*
X19139000Y63458000D03*
X19139000Y57958000D03*
X22060000Y18000000D03*
X22060000Y13000000D03*
D16*
X27140000Y13000000D03*
X25870000Y5380000D03*
X20790000Y2205000D03*
X42380000Y6015000D03*
X51270000Y13635000D03*
X51270000Y18080000D03*
X66510000Y15540000D03*
X69050000Y25065000D03*
X53556000Y31796000D03*
X48476000Y31796000D03*
X47460000Y6015000D03*
X55715000Y12365000D03*
X51270000Y12365000D03*
X1740000Y35225000D03*
X1740000Y16048000D03*
X27140000Y18080000D03*
X8725000Y46655000D03*
X9023878Y36831122D03*
X3645000Y31415000D03*
X3440010Y25192000D03*
X25235000Y19985000D03*
X17442180Y17444720D03*
X38316000Y25700000D03*
X46596300Y24500840D03*
X53810000Y24430000D03*
X53886100Y27581860D03*
X30950000Y24430000D03*
X26075249Y26107933D03*
D17*
X23965000Y5380000D02*
X20790000Y2205000D01*
X25870000Y5380000D02*
X23965000Y5380000D01*
X51270000Y13635000D02*
X51270000Y18080000D01*
X66510000Y15540000D02*
X67924213Y15540000D01*
X70955000Y15540000D02*
X71590000Y16175000D01*
X67924213Y15540000D02*
X70955000Y15540000D01*
X71590000Y16175000D02*
X71590000Y23795000D01*
X71590000Y23795000D02*
X70320000Y25065000D01*
X70320000Y25065000D02*
X69050000Y25065000D01*
X53556000Y31796000D02*
X48476000Y31796000D01*
X47460000Y6015000D02*
X42380000Y6015000D01*
X55715000Y12365000D02*
X51270000Y12365000D01*
X1740000Y16048000D02*
X1740000Y35225000D01*
X27140000Y13000000D02*
X27140000Y18080000D01*
D18*
X9023878Y45721122D02*
X9023878Y38245335D01*
X8725000Y46020000D02*
X9023878Y45721122D01*
X9023878Y38245335D02*
X9023878Y36831122D01*
X2690011Y30460011D02*
X3645000Y31415000D01*
X3440010Y25192000D02*
X2690011Y26449999D01*
X2690011Y26449999D02*
X2690011Y30460011D01*
X25235000Y18288998D02*
X25235000Y19985000D01*
X19010001Y16049999D02*
X22996001Y16049999D01*
X17442180Y17444720D02*
X19010001Y16049999D01*
X22996001Y16049999D02*
X25235000Y18288998D01*
X46596300Y24500840D02*
X44285000Y25700000D01*
X44285000Y25700000D02*
X38316000Y25700000D01*
X53810000Y26970000D02*
X53810000Y24430000D01*
X53886100Y27581860D02*
X53810000Y26970000D01*
X27753182Y24430000D02*
X30950000Y24430000D01*
X26075249Y26107933D02*
X27753182Y24430000D01*
M02*
