G04 #@! TF.GenerationSoftware,KiCad,Pcbnew,(5.1.5-0)*
G04 #@! TF.CreationDate,2022-06-30T09:19:57+01:00*
G04 #@! TF.ProjectId,ESP32_Cnc_Shield,45535033-325f-4436-9e63-5f536869656c,rev?*
G04 #@! TF.SameCoordinates,Original*
G04 #@! TF.FileFunction,Legend,Top*
G04 #@! TF.FilePolarity,Positive*
%FSLAX46Y46*%
G04 Gerber Fmt 4.6, Leading zero omitted, Abs format (unit mm)*
G04 Created by KiCad (PCBNEW (5.1.5-0)) date 2022-06-30 09:19:57*
%MOMM*%
%LPD*%
G04 APERTURE LIST*
%ADD10C,0.300000*%
%ADD11C,0.200000*%
%ADD12C,0.010000*%
%ADD13C,0.120000*%
%ADD14C,0.150000*%
G04 APERTURE END LIST*
D10*
X24622705Y35585862D02*
X25122705Y35585862D01*
X25336991Y34800148D02*
X24622705Y34800148D01*
X24622705Y36300148D01*
X25336991Y36300148D01*
X25908420Y34871577D02*
X26122705Y34800148D01*
X26479848Y34800148D01*
X26622705Y34871577D01*
X26694134Y34943005D01*
X26765562Y35085862D01*
X26765562Y35228720D01*
X26694134Y35371577D01*
X26622705Y35443005D01*
X26479848Y35514434D01*
X26194134Y35585862D01*
X26051277Y35657291D01*
X25979848Y35728720D01*
X25908420Y35871577D01*
X25908420Y36014434D01*
X25979848Y36157291D01*
X26051277Y36228720D01*
X26194134Y36300148D01*
X26551277Y36300148D01*
X26765562Y36228720D01*
X27408420Y34800148D02*
X27408420Y36300148D01*
X27979848Y36300148D01*
X28122705Y36228720D01*
X28194134Y36157291D01*
X28265562Y36014434D01*
X28265562Y35800148D01*
X28194134Y35657291D01*
X28122705Y35585862D01*
X27979848Y35514434D01*
X27408420Y35514434D01*
X28765562Y36300148D02*
X29694134Y36300148D01*
X29194134Y35728720D01*
X29408420Y35728720D01*
X29551277Y35657291D01*
X29622705Y35585862D01*
X29694134Y35443005D01*
X29694134Y35085862D01*
X29622705Y34943005D01*
X29551277Y34871577D01*
X29408420Y34800148D01*
X28979848Y34800148D01*
X28836991Y34871577D01*
X28765562Y34943005D01*
X30265562Y36157291D02*
X30336991Y36228720D01*
X30479848Y36300148D01*
X30836991Y36300148D01*
X30979848Y36228720D01*
X31051277Y36157291D01*
X31122705Y36014434D01*
X31122705Y35871577D01*
X31051277Y35657291D01*
X30194134Y34800148D01*
X31122705Y34800148D01*
X33765562Y34943005D02*
X33694134Y34871577D01*
X33479848Y34800148D01*
X33336991Y34800148D01*
X33122705Y34871577D01*
X32979848Y35014434D01*
X32908420Y35157291D01*
X32836991Y35443005D01*
X32836991Y35657291D01*
X32908420Y35943005D01*
X32979848Y36085862D01*
X33122705Y36228720D01*
X33336991Y36300148D01*
X33479848Y36300148D01*
X33694134Y36228720D01*
X33765562Y36157291D01*
X34408420Y34800148D02*
X34408420Y36300148D01*
X35265562Y34800148D01*
X35265562Y36300148D01*
X36836991Y34943005D02*
X36765562Y34871577D01*
X36551277Y34800148D01*
X36408420Y34800148D01*
X36194134Y34871577D01*
X36051277Y35014434D01*
X35979848Y35157291D01*
X35908420Y35443005D01*
X35908420Y35657291D01*
X35979848Y35943005D01*
X36051277Y36085862D01*
X36194134Y36228720D01*
X36408420Y36300148D01*
X36551277Y36300148D01*
X36765562Y36228720D01*
X36836991Y36157291D01*
X38551277Y34871577D02*
X38765562Y34800148D01*
X39122705Y34800148D01*
X39265562Y34871577D01*
X39336991Y34943005D01*
X39408420Y35085862D01*
X39408420Y35228720D01*
X39336991Y35371577D01*
X39265562Y35443005D01*
X39122705Y35514434D01*
X38836991Y35585862D01*
X38694134Y35657291D01*
X38622705Y35728720D01*
X38551277Y35871577D01*
X38551277Y36014434D01*
X38622705Y36157291D01*
X38694134Y36228720D01*
X38836991Y36300148D01*
X39194134Y36300148D01*
X39408420Y36228720D01*
X40051277Y34800148D02*
X40051277Y36300148D01*
X40051277Y35585862D02*
X40908420Y35585862D01*
X40908420Y34800148D02*
X40908420Y36300148D01*
X41622705Y34800148D02*
X41622705Y36300148D01*
X42336991Y35585862D02*
X42836991Y35585862D01*
X43051277Y34800148D02*
X42336991Y34800148D01*
X42336991Y36300148D01*
X43051277Y36300148D01*
X44408420Y34800148D02*
X43694134Y34800148D01*
X43694134Y36300148D01*
X44908420Y34800148D02*
X44908420Y36300148D01*
X45265562Y36300148D01*
X45479848Y36228720D01*
X45622705Y36085862D01*
X45694134Y35943005D01*
X45765562Y35657291D01*
X45765562Y35443005D01*
X45694134Y35157291D01*
X45622705Y35014434D01*
X45479848Y34871577D01*
X45265562Y34800148D01*
X44908420Y34800148D01*
X47336991Y36300148D02*
X47836991Y34800148D01*
X48336991Y36300148D01*
X49622705Y34800148D02*
X48765562Y34800148D01*
X49194134Y34800148D02*
X49194134Y36300148D01*
X49051277Y36085862D01*
X48908420Y35943005D01*
X48765562Y35871577D01*
X50265562Y34943005D02*
X50336991Y34871577D01*
X50265562Y34800148D01*
X50194134Y34871577D01*
X50265562Y34943005D01*
X50265562Y34800148D01*
X51265562Y36300148D02*
X51408420Y36300148D01*
X51551277Y36228720D01*
X51622705Y36157291D01*
X51694134Y36014434D01*
X51765562Y35728720D01*
X51765562Y35371577D01*
X51694134Y35085862D01*
X51622705Y34943005D01*
X51551277Y34871577D01*
X51408420Y34800148D01*
X51265562Y34800148D01*
X51122705Y34871577D01*
X51051277Y34943005D01*
X50979848Y35085862D01*
X50908420Y35371577D01*
X50908420Y35728720D01*
X50979848Y36014434D01*
X51051277Y36157291D01*
X51122705Y36228720D01*
X51265562Y36300148D01*
X1236071Y39829000D02*
X2736071Y40186142D01*
X1664642Y40471857D01*
X2736071Y40757571D01*
X1236071Y41114714D01*
X2736071Y41686142D02*
X1236071Y41686142D01*
X1950357Y42900428D02*
X1950357Y42400428D01*
X2736071Y42400428D02*
X1236071Y42400428D01*
X1236071Y43114714D01*
X2736071Y43686142D02*
X1236071Y43686142D01*
X52480571Y38602642D02*
X53694857Y38602642D01*
X53837714Y38674071D01*
X53909142Y38745500D01*
X53980571Y38888357D01*
X53980571Y39174071D01*
X53909142Y39316928D01*
X53837714Y39388357D01*
X53694857Y39459785D01*
X52480571Y39459785D01*
X53909142Y40102642D02*
X53980571Y40316928D01*
X53980571Y40674071D01*
X53909142Y40816928D01*
X53837714Y40888357D01*
X53694857Y40959785D01*
X53552000Y40959785D01*
X53409142Y40888357D01*
X53337714Y40816928D01*
X53266285Y40674071D01*
X53194857Y40388357D01*
X53123428Y40245500D01*
X53052000Y40174071D01*
X52909142Y40102642D01*
X52766285Y40102642D01*
X52623428Y40174071D01*
X52552000Y40245500D01*
X52480571Y40388357D01*
X52480571Y40745500D01*
X52552000Y40959785D01*
X53194857Y42102642D02*
X53266285Y42316928D01*
X53337714Y42388357D01*
X53480571Y42459785D01*
X53694857Y42459785D01*
X53837714Y42388357D01*
X53909142Y42316928D01*
X53980571Y42174071D01*
X53980571Y41602642D01*
X52480571Y41602642D01*
X52480571Y42102642D01*
X52552000Y42245500D01*
X52623428Y42316928D01*
X52766285Y42388357D01*
X52909142Y42388357D01*
X53052000Y42316928D01*
X53123428Y42245500D01*
X53194857Y42102642D01*
X53194857Y41602642D01*
X3403000Y48115642D02*
X3331571Y47972785D01*
X3331571Y47758500D01*
X3403000Y47544214D01*
X3545857Y47401357D01*
X3688714Y47329928D01*
X3974428Y47258500D01*
X4188714Y47258500D01*
X4474428Y47329928D01*
X4617285Y47401357D01*
X4760142Y47544214D01*
X4831571Y47758500D01*
X4831571Y47901357D01*
X4760142Y48115642D01*
X4688714Y48187071D01*
X4188714Y48187071D01*
X4188714Y47901357D01*
X4831571Y48829928D02*
X3331571Y48829928D01*
X4831571Y49687071D01*
X3331571Y49687071D01*
X4831571Y50401357D02*
X3331571Y50401357D01*
X3331571Y50758500D01*
X3403000Y50972785D01*
X3545857Y51115642D01*
X3688714Y51187071D01*
X3974428Y51258500D01*
X4188714Y51258500D01*
X4474428Y51187071D01*
X4617285Y51115642D01*
X4760142Y50972785D01*
X4831571Y50758500D01*
X4831571Y50401357D01*
X3458571Y30319857D02*
X3458571Y31248428D01*
X4030000Y30748428D01*
X4030000Y30962714D01*
X4101428Y31105571D01*
X4172857Y31177000D01*
X4315714Y31248428D01*
X4672857Y31248428D01*
X4815714Y31177000D01*
X4887142Y31105571D01*
X4958571Y30962714D01*
X4958571Y30534142D01*
X4887142Y30391285D01*
X4815714Y30319857D01*
X3458571Y31677000D02*
X4958571Y32177000D01*
X3458571Y32677000D01*
X3458571Y33034142D02*
X3458571Y33962714D01*
X4030000Y33462714D01*
X4030000Y33677000D01*
X4101428Y33819857D01*
X4172857Y33891285D01*
X4315714Y33962714D01*
X4672857Y33962714D01*
X4815714Y33891285D01*
X4887142Y33819857D01*
X4958571Y33677000D01*
X4958571Y33248428D01*
X4887142Y33105571D01*
X4815714Y33034142D01*
X50726214Y48492642D02*
X50797642Y48421214D01*
X50869071Y48206928D01*
X50869071Y48064071D01*
X50797642Y47849785D01*
X50654785Y47706928D01*
X50511928Y47635500D01*
X50226214Y47564071D01*
X50011928Y47564071D01*
X49726214Y47635500D01*
X49583357Y47706928D01*
X49440500Y47849785D01*
X49369071Y48064071D01*
X49369071Y48206928D01*
X49440500Y48421214D01*
X49511928Y48492642D01*
X50869071Y49849785D02*
X50869071Y49135500D01*
X49369071Y49135500D01*
X50869071Y50349785D02*
X49369071Y50349785D01*
X50869071Y51206928D02*
X50011928Y50564071D01*
X49369071Y51206928D02*
X50226214Y50349785D01*
X49369071Y31827785D02*
X49369071Y31113500D01*
X50083357Y31042071D01*
X50011928Y31113500D01*
X49940500Y31256357D01*
X49940500Y31613500D01*
X50011928Y31756357D01*
X50083357Y31827785D01*
X50226214Y31899214D01*
X50583357Y31899214D01*
X50726214Y31827785D01*
X50797642Y31756357D01*
X50869071Y31613500D01*
X50869071Y31256357D01*
X50797642Y31113500D01*
X50726214Y31042071D01*
X49369071Y32327785D02*
X50869071Y32827785D01*
X49369071Y33327785D01*
D11*
X50770000Y4745095D02*
X50722380Y4649857D01*
X50722380Y4507000D01*
X50770000Y4364142D01*
X50865238Y4268904D01*
X50960476Y4221285D01*
X51150952Y4173666D01*
X51293809Y4173666D01*
X51484285Y4221285D01*
X51579523Y4268904D01*
X51674761Y4364142D01*
X51722380Y4507000D01*
X51722380Y4602238D01*
X51674761Y4745095D01*
X51627142Y4792714D01*
X51293809Y4792714D01*
X51293809Y4602238D01*
X51722380Y5221285D02*
X50722380Y5221285D01*
X51722380Y5792714D01*
X50722380Y5792714D01*
X51722380Y6268904D02*
X50722380Y6268904D01*
X50722380Y6507000D01*
X50770000Y6649857D01*
X50865238Y6745095D01*
X50960476Y6792714D01*
X51150952Y6840333D01*
X51293809Y6840333D01*
X51484285Y6792714D01*
X51579523Y6745095D01*
X51674761Y6649857D01*
X51722380Y6507000D01*
X51722380Y6268904D01*
X26513000Y4935595D02*
X26465380Y4840357D01*
X26465380Y4697500D01*
X26513000Y4554642D01*
X26608238Y4459404D01*
X26703476Y4411785D01*
X26893952Y4364166D01*
X27036809Y4364166D01*
X27227285Y4411785D01*
X27322523Y4459404D01*
X27417761Y4554642D01*
X27465380Y4697500D01*
X27465380Y4792738D01*
X27417761Y4935595D01*
X27370142Y4983214D01*
X27036809Y4983214D01*
X27036809Y4792738D01*
X27465380Y5411785D02*
X26465380Y5411785D01*
X27465380Y5983214D01*
X26465380Y5983214D01*
X27465380Y6459404D02*
X26465380Y6459404D01*
X26465380Y6697500D01*
X26513000Y6840357D01*
X26608238Y6935595D01*
X26703476Y6983214D01*
X26893952Y7030833D01*
X27036809Y7030833D01*
X27227285Y6983214D01*
X27322523Y6935595D01*
X27417761Y6840357D01*
X27465380Y6697500D01*
X27465380Y6459404D01*
X3771904Y6150000D02*
X3867142Y6102380D01*
X4010000Y6102380D01*
X4152857Y6150000D01*
X4248095Y6245238D01*
X4295714Y6340476D01*
X4343333Y6530952D01*
X4343333Y6673809D01*
X4295714Y6864285D01*
X4248095Y6959523D01*
X4152857Y7054761D01*
X4010000Y7102380D01*
X3914761Y7102380D01*
X3771904Y7054761D01*
X3724285Y7007142D01*
X3724285Y6673809D01*
X3914761Y6673809D01*
X3295714Y7102380D02*
X3295714Y6102380D01*
X2724285Y7102380D01*
X2724285Y6102380D01*
X2248095Y7102380D02*
X2248095Y6102380D01*
X2010000Y6102380D01*
X1867142Y6150000D01*
X1771904Y6245238D01*
X1724285Y6340476D01*
X1676666Y6530952D01*
X1676666Y6673809D01*
X1724285Y6864285D01*
X1771904Y6959523D01*
X1867142Y7054761D01*
X2010000Y7102380D01*
X2248095Y7102380D01*
X21575880Y4856238D02*
X22575880Y5189571D01*
X21575880Y5522904D01*
X22575880Y5856238D02*
X21575880Y5856238D01*
X22290166Y6189571D01*
X21575880Y6522904D01*
X22575880Y6522904D01*
X44435880Y5364238D02*
X45435880Y5697571D01*
X44435880Y6030904D01*
X45435880Y6364238D02*
X44435880Y6364238D01*
X45150166Y6697571D01*
X44435880Y7030904D01*
X45435880Y7030904D01*
X68629380Y5427738D02*
X69629380Y5761071D01*
X68629380Y6094404D01*
X69629380Y6427738D02*
X68629380Y6427738D01*
X69343666Y6761071D01*
X68629380Y7094404D01*
X69629380Y7094404D01*
X4795880Y24065000D02*
X3795880Y24065000D01*
X3795880Y24303095D01*
X3843500Y24445952D01*
X3938738Y24541190D01*
X4033976Y24588809D01*
X4224452Y24636428D01*
X4367309Y24636428D01*
X4557785Y24588809D01*
X4653023Y24541190D01*
X4748261Y24445952D01*
X4795880Y24303095D01*
X4795880Y24065000D01*
X4795880Y25065000D02*
X3795880Y25065000D01*
X4795880Y26112619D02*
X4319690Y25779285D01*
X4795880Y25541190D02*
X3795880Y25541190D01*
X3795880Y25922142D01*
X3843500Y26017380D01*
X3891119Y26065000D01*
X3986357Y26112619D01*
X4129214Y26112619D01*
X4224452Y26065000D01*
X4272071Y26017380D01*
X4319690Y25922142D01*
X4319690Y25541190D01*
X27592380Y24001500D02*
X26592380Y24001500D01*
X26592380Y24239595D01*
X26640000Y24382452D01*
X26735238Y24477690D01*
X26830476Y24525309D01*
X27020952Y24572928D01*
X27163809Y24572928D01*
X27354285Y24525309D01*
X27449523Y24477690D01*
X27544761Y24382452D01*
X27592380Y24239595D01*
X27592380Y24001500D01*
X27592380Y25001500D02*
X26592380Y25001500D01*
X27592380Y26049119D02*
X27116190Y25715785D01*
X27592380Y25477690D02*
X26592380Y25477690D01*
X26592380Y25858642D01*
X26640000Y25953880D01*
X26687619Y26001500D01*
X26782857Y26049119D01*
X26925714Y26049119D01*
X27020952Y26001500D01*
X27068571Y25953880D01*
X27116190Y25858642D01*
X27116190Y25477690D01*
X51658880Y24065000D02*
X50658880Y24065000D01*
X50658880Y24303095D01*
X50706500Y24445952D01*
X50801738Y24541190D01*
X50896976Y24588809D01*
X51087452Y24636428D01*
X51230309Y24636428D01*
X51420785Y24588809D01*
X51516023Y24541190D01*
X51611261Y24445952D01*
X51658880Y24303095D01*
X51658880Y24065000D01*
X51658880Y25065000D02*
X50658880Y25065000D01*
X51658880Y26112619D02*
X51182690Y25779285D01*
X51658880Y25541190D02*
X50658880Y25541190D01*
X50658880Y25922142D01*
X50706500Y26017380D01*
X50754119Y26065000D01*
X50849357Y26112619D01*
X50992214Y26112619D01*
X51087452Y26065000D01*
X51135071Y26017380D01*
X51182690Y25922142D01*
X51182690Y25541190D01*
X21988571Y24072904D02*
X21988571Y24406238D01*
X22512380Y24549095D02*
X22512380Y24072904D01*
X21512380Y24072904D01*
X21512380Y24549095D01*
X22512380Y24977666D02*
X21512380Y24977666D01*
X22512380Y25549095D01*
X21512380Y25549095D01*
X44848571Y24072904D02*
X44848571Y24406238D01*
X45372380Y24549095D02*
X45372380Y24072904D01*
X44372380Y24072904D01*
X44372380Y24549095D01*
X45372380Y24977666D02*
X44372380Y24977666D01*
X45372380Y25549095D01*
X44372380Y25549095D01*
X69042071Y23882404D02*
X69042071Y24215738D01*
X69565880Y24358595D02*
X69565880Y23882404D01*
X68565880Y23882404D01*
X68565880Y24358595D01*
X69565880Y24787166D02*
X68565880Y24787166D01*
X69565880Y25358595D01*
X68565880Y25358595D01*
X66954547Y30264071D02*
X67716452Y30264071D01*
X42895880Y23715785D02*
X41895880Y23715785D01*
X42610166Y24049119D01*
X41895880Y24382452D01*
X42895880Y24382452D01*
X42848261Y24811023D02*
X42895880Y24953880D01*
X42895880Y25191976D01*
X42848261Y25287214D01*
X42800642Y25334833D01*
X42705404Y25382452D01*
X42610166Y25382452D01*
X42514928Y25334833D01*
X42467309Y25287214D01*
X42419690Y25191976D01*
X42372071Y25001500D01*
X42324452Y24906261D01*
X42276833Y24858642D01*
X42181595Y24811023D01*
X42086357Y24811023D01*
X41991119Y24858642D01*
X41943500Y24906261D01*
X41895880Y25001500D01*
X41895880Y25239595D01*
X41943500Y25382452D01*
X41895880Y26001500D02*
X41895880Y26096738D01*
X41943500Y26191976D01*
X41991119Y26239595D01*
X42086357Y26287214D01*
X42276833Y26334833D01*
X42514928Y26334833D01*
X42705404Y26287214D01*
X42800642Y26239595D01*
X42848261Y26191976D01*
X42895880Y26096738D01*
X42895880Y26001500D01*
X42848261Y25906261D01*
X42800642Y25858642D01*
X42705404Y25811023D01*
X42514928Y25763404D01*
X42276833Y25763404D01*
X42086357Y25811023D01*
X41991119Y25858642D01*
X41943500Y25906261D01*
X41895880Y26001500D01*
X19972380Y23779285D02*
X18972380Y23779285D01*
X19686666Y24112619D01*
X18972380Y24445952D01*
X19972380Y24445952D01*
X19924761Y24874523D02*
X19972380Y25017380D01*
X19972380Y25255476D01*
X19924761Y25350714D01*
X19877142Y25398333D01*
X19781904Y25445952D01*
X19686666Y25445952D01*
X19591428Y25398333D01*
X19543809Y25350714D01*
X19496190Y25255476D01*
X19448571Y25065000D01*
X19400952Y24969761D01*
X19353333Y24922142D01*
X19258095Y24874523D01*
X19162857Y24874523D01*
X19067619Y24922142D01*
X19020000Y24969761D01*
X18972380Y25065000D01*
X18972380Y25303095D01*
X19020000Y25445952D01*
X18972380Y26065000D02*
X18972380Y26160238D01*
X19020000Y26255476D01*
X19067619Y26303095D01*
X19162857Y26350714D01*
X19353333Y26398333D01*
X19591428Y26398333D01*
X19781904Y26350714D01*
X19877142Y26303095D01*
X19924761Y26255476D01*
X19972380Y26160238D01*
X19972380Y26065000D01*
X19924761Y25969761D01*
X19877142Y25922142D01*
X19781904Y25874523D01*
X19591428Y25826904D01*
X19353333Y25826904D01*
X19162857Y25874523D01*
X19067619Y25922142D01*
X19020000Y25969761D01*
X18972380Y26065000D01*
X17495880Y23715785D02*
X16495880Y23715785D01*
X17210166Y24049119D01*
X16495880Y24382452D01*
X17495880Y24382452D01*
X17448261Y24811023D02*
X17495880Y24953880D01*
X17495880Y25191976D01*
X17448261Y25287214D01*
X17400642Y25334833D01*
X17305404Y25382452D01*
X17210166Y25382452D01*
X17114928Y25334833D01*
X17067309Y25287214D01*
X17019690Y25191976D01*
X16972071Y25001500D01*
X16924452Y24906261D01*
X16876833Y24858642D01*
X16781595Y24811023D01*
X16686357Y24811023D01*
X16591119Y24858642D01*
X16543500Y24906261D01*
X16495880Y25001500D01*
X16495880Y25239595D01*
X16543500Y25382452D01*
X17495880Y26334833D02*
X17495880Y25763404D01*
X17495880Y26049119D02*
X16495880Y26049119D01*
X16638738Y25953880D01*
X16733976Y25858642D01*
X16781595Y25763404D01*
X40292380Y23906285D02*
X39292380Y23906285D01*
X40006666Y24239619D01*
X39292380Y24572952D01*
X40292380Y24572952D01*
X40244761Y25001523D02*
X40292380Y25144380D01*
X40292380Y25382476D01*
X40244761Y25477714D01*
X40197142Y25525333D01*
X40101904Y25572952D01*
X40006666Y25572952D01*
X39911428Y25525333D01*
X39863809Y25477714D01*
X39816190Y25382476D01*
X39768571Y25192000D01*
X39720952Y25096761D01*
X39673333Y25049142D01*
X39578095Y25001523D01*
X39482857Y25001523D01*
X39387619Y25049142D01*
X39340000Y25096761D01*
X39292380Y25192000D01*
X39292380Y25430095D01*
X39340000Y25572952D01*
X40292380Y26525333D02*
X40292380Y25953904D01*
X40292380Y26239619D02*
X39292380Y26239619D01*
X39435238Y26144380D01*
X39530476Y26049142D01*
X39578095Y25953904D01*
X15019380Y23715785D02*
X14019380Y23715785D01*
X14733666Y24049119D01*
X14019380Y24382452D01*
X15019380Y24382452D01*
X14971761Y24811023D02*
X15019380Y24953880D01*
X15019380Y25191976D01*
X14971761Y25287214D01*
X14924142Y25334833D01*
X14828904Y25382452D01*
X14733666Y25382452D01*
X14638428Y25334833D01*
X14590809Y25287214D01*
X14543190Y25191976D01*
X14495571Y25001500D01*
X14447952Y24906261D01*
X14400333Y24858642D01*
X14305095Y24811023D01*
X14209857Y24811023D01*
X14114619Y24858642D01*
X14067000Y24906261D01*
X14019380Y25001500D01*
X14019380Y25239595D01*
X14067000Y25382452D01*
X14114619Y25763404D02*
X14067000Y25811023D01*
X14019380Y25906261D01*
X14019380Y26144357D01*
X14067000Y26239595D01*
X14114619Y26287214D01*
X14209857Y26334833D01*
X14305095Y26334833D01*
X14447952Y26287214D01*
X15019380Y25715785D01*
X15019380Y26334833D01*
X37752380Y23842785D02*
X36752380Y23842785D01*
X37466666Y24176119D01*
X36752380Y24509452D01*
X37752380Y24509452D01*
X37704761Y24938023D02*
X37752380Y25080880D01*
X37752380Y25318976D01*
X37704761Y25414214D01*
X37657142Y25461833D01*
X37561904Y25509452D01*
X37466666Y25509452D01*
X37371428Y25461833D01*
X37323809Y25414214D01*
X37276190Y25318976D01*
X37228571Y25128500D01*
X37180952Y25033261D01*
X37133333Y24985642D01*
X37038095Y24938023D01*
X36942857Y24938023D01*
X36847619Y24985642D01*
X36800000Y25033261D01*
X36752380Y25128500D01*
X36752380Y25366595D01*
X36800000Y25509452D01*
X36847619Y25890404D02*
X36800000Y25938023D01*
X36752380Y26033261D01*
X36752380Y26271357D01*
X36800000Y26366595D01*
X36847619Y26414214D01*
X36942857Y26461833D01*
X37038095Y26461833D01*
X37180952Y26414214D01*
X37752380Y25842785D01*
X37752380Y26461833D01*
X61945880Y24223785D02*
X60945880Y24223785D01*
X61660166Y24557119D01*
X60945880Y24890452D01*
X61945880Y24890452D01*
X61898261Y25319023D02*
X61945880Y25461880D01*
X61945880Y25699976D01*
X61898261Y25795214D01*
X61850642Y25842833D01*
X61755404Y25890452D01*
X61660166Y25890452D01*
X61564928Y25842833D01*
X61517309Y25795214D01*
X61469690Y25699976D01*
X61422071Y25509500D01*
X61374452Y25414261D01*
X61326833Y25366642D01*
X61231595Y25319023D01*
X61136357Y25319023D01*
X61041119Y25366642D01*
X60993500Y25414261D01*
X60945880Y25509500D01*
X60945880Y25747595D01*
X60993500Y25890452D01*
X61041119Y26271404D02*
X60993500Y26319023D01*
X60945880Y26414261D01*
X60945880Y26652357D01*
X60993500Y26747595D01*
X61041119Y26795214D01*
X61136357Y26842833D01*
X61231595Y26842833D01*
X61374452Y26795214D01*
X61945880Y26223785D01*
X61945880Y26842833D01*
X64422380Y24287285D02*
X63422380Y24287285D01*
X64136666Y24620619D01*
X63422380Y24953952D01*
X64422380Y24953952D01*
X64374761Y25382523D02*
X64422380Y25525380D01*
X64422380Y25763476D01*
X64374761Y25858714D01*
X64327142Y25906333D01*
X64231904Y25953952D01*
X64136666Y25953952D01*
X64041428Y25906333D01*
X63993809Y25858714D01*
X63946190Y25763476D01*
X63898571Y25573000D01*
X63850952Y25477761D01*
X63803333Y25430142D01*
X63708095Y25382523D01*
X63612857Y25382523D01*
X63517619Y25430142D01*
X63470000Y25477761D01*
X63422380Y25573000D01*
X63422380Y25811095D01*
X63470000Y25953952D01*
X64422380Y26906333D02*
X64422380Y26334904D01*
X64422380Y26620619D02*
X63422380Y26620619D01*
X63565238Y26525380D01*
X63660476Y26430142D01*
X63708095Y26334904D01*
X66771780Y24086345D02*
X65771780Y24086345D01*
X66486066Y24419679D01*
X65771780Y24753012D01*
X66771780Y24753012D01*
X66724161Y25181583D02*
X66771780Y25324440D01*
X66771780Y25562536D01*
X66724161Y25657774D01*
X66676542Y25705393D01*
X66581304Y25753012D01*
X66486066Y25753012D01*
X66390828Y25705393D01*
X66343209Y25657774D01*
X66295590Y25562536D01*
X66247971Y25372060D01*
X66200352Y25276821D01*
X66152733Y25229202D01*
X66057495Y25181583D01*
X65962257Y25181583D01*
X65867019Y25229202D01*
X65819400Y25276821D01*
X65771780Y25372060D01*
X65771780Y25610155D01*
X65819400Y25753012D01*
X65771780Y26372060D02*
X65771780Y26467298D01*
X65819400Y26562536D01*
X65867019Y26610155D01*
X65962257Y26657774D01*
X66152733Y26705393D01*
X66390828Y26705393D01*
X66581304Y26657774D01*
X66676542Y26610155D01*
X66724161Y26562536D01*
X66771780Y26467298D01*
X66771780Y26372060D01*
X66724161Y26276821D01*
X66676542Y26229202D01*
X66581304Y26181583D01*
X66390828Y26133964D01*
X66152733Y26133964D01*
X65962257Y26181583D01*
X65867019Y26229202D01*
X65819400Y26276821D01*
X65771780Y26372060D01*
X17869047Y65760571D02*
X18630952Y65760571D01*
X25743047Y65760571D02*
X26504952Y65760571D01*
X29814666Y70364380D02*
X29148000Y71364380D01*
X29148000Y70364380D02*
X29814666Y71364380D01*
X28767047Y70983428D02*
X28005142Y70983428D01*
X27052761Y71364380D02*
X27528952Y71364380D01*
X27528952Y70364380D01*
X26719428Y71364380D02*
X26719428Y70364380D01*
X26243238Y71364380D02*
X26243238Y70364380D01*
X25909904Y71078666D01*
X25576571Y70364380D01*
X25576571Y71364380D01*
X33363047Y65760571D02*
X34124952Y65760571D01*
X37434666Y70364380D02*
X36768000Y70364380D01*
X37434666Y71364380D01*
X36768000Y71364380D01*
X36387047Y70983428D02*
X35625142Y70983428D01*
X34672761Y71364380D02*
X35148952Y71364380D01*
X35148952Y70364380D01*
X34339428Y71364380D02*
X34339428Y70364380D01*
X33863238Y71364380D02*
X33863238Y70364380D01*
X33529904Y71078666D01*
X33196571Y70364380D01*
X33196571Y71364380D01*
X40983047Y65760571D02*
X41744952Y65760571D01*
X45229333Y70888190D02*
X45229333Y71364380D01*
X45562666Y70364380D02*
X45229333Y70888190D01*
X44896000Y70364380D01*
X44562666Y70983428D02*
X43800761Y70983428D01*
X42848380Y71364380D02*
X43324571Y71364380D01*
X43324571Y70364380D01*
X42515047Y71364380D02*
X42515047Y70364380D01*
X42038857Y71364380D02*
X42038857Y70364380D01*
X41705523Y71078666D01*
X41372190Y70364380D01*
X41372190Y71364380D01*
X48603047Y66014571D02*
X49364952Y66014571D01*
X10503047Y65760571D02*
X11264952Y65760571D01*
X51397047Y66014571D02*
X52158952Y66014571D01*
X51778000Y65633619D02*
X51778000Y66395523D01*
X53254095Y71237380D02*
X53254095Y70237380D01*
X52873142Y70237380D01*
X52777904Y70285000D01*
X52730285Y70332619D01*
X52682666Y70427857D01*
X52682666Y70570714D01*
X52730285Y70665952D01*
X52777904Y70713571D01*
X52873142Y70761190D01*
X53254095Y70761190D01*
X51682666Y71237380D02*
X52016000Y70761190D01*
X52254095Y71237380D02*
X52254095Y70237380D01*
X51873142Y70237380D01*
X51777904Y70285000D01*
X51730285Y70332619D01*
X51682666Y70427857D01*
X51682666Y70570714D01*
X51730285Y70665952D01*
X51777904Y70713571D01*
X51873142Y70761190D01*
X52254095Y70761190D01*
X51063619Y70237380D02*
X50873142Y70237380D01*
X50777904Y70285000D01*
X50682666Y70380238D01*
X50635047Y70570714D01*
X50635047Y70904047D01*
X50682666Y71094523D01*
X50777904Y71189761D01*
X50873142Y71237380D01*
X51063619Y71237380D01*
X51158857Y71189761D01*
X51254095Y71094523D01*
X51301714Y70904047D01*
X51301714Y70570714D01*
X51254095Y70380238D01*
X51158857Y70285000D01*
X51063619Y70237380D01*
X49873142Y70713571D02*
X49730285Y70761190D01*
X49682666Y70808809D01*
X49635047Y70904047D01*
X49635047Y71046904D01*
X49682666Y71142142D01*
X49730285Y71189761D01*
X49825523Y71237380D01*
X50206476Y71237380D01*
X50206476Y70237380D01*
X49873142Y70237380D01*
X49777904Y70285000D01*
X49730285Y70332619D01*
X49682666Y70427857D01*
X49682666Y70523095D01*
X49730285Y70618333D01*
X49777904Y70665952D01*
X49873142Y70713571D01*
X50206476Y70713571D01*
X49206476Y70713571D02*
X48873142Y70713571D01*
X48730285Y71237380D02*
X49206476Y71237380D01*
X49206476Y70237380D01*
X48730285Y70237380D01*
X13860571Y66212952D02*
X13860571Y65451047D01*
X13479619Y65832000D02*
X14241523Y65832000D01*
X20972571Y66212952D02*
X20972571Y65451047D01*
X20591619Y65832000D02*
X21353523Y65832000D01*
X28537047Y65760571D02*
X29298952Y65760571D01*
X28918000Y65379619D02*
X28918000Y66141523D01*
X35903047Y65760571D02*
X36664952Y65760571D01*
X36284000Y65379619D02*
X36284000Y66141523D01*
X43777047Y65760571D02*
X44538952Y65760571D01*
X44158000Y65379619D02*
X44158000Y66141523D01*
X71717047Y30327571D02*
X72478952Y30327571D01*
X72098000Y29946619D02*
X72098000Y30708523D01*
D10*
X69593922Y64366211D02*
X69593922Y65509068D01*
X69113571Y52008857D02*
X70256428Y52008857D01*
X69685000Y51437428D02*
X69685000Y52580285D01*
D11*
X15185761Y71189761D02*
X15042904Y71237380D01*
X14804809Y71237380D01*
X14709571Y71189761D01*
X14661952Y71142142D01*
X14614333Y71046904D01*
X14614333Y70951666D01*
X14661952Y70856428D01*
X14709571Y70808809D01*
X14804809Y70761190D01*
X14995285Y70713571D01*
X15090523Y70665952D01*
X15138142Y70618333D01*
X15185761Y70523095D01*
X15185761Y70427857D01*
X15138142Y70332619D01*
X15090523Y70285000D01*
X14995285Y70237380D01*
X14757190Y70237380D01*
X14614333Y70285000D01*
X14185761Y71237380D02*
X14185761Y70237380D01*
X13804809Y70237380D01*
X13709571Y70285000D01*
X13661952Y70332619D01*
X13614333Y70427857D01*
X13614333Y70570714D01*
X13661952Y70665952D01*
X13709571Y70713571D01*
X13804809Y70761190D01*
X14185761Y70761190D01*
X13185761Y71237380D02*
X13185761Y70237380D01*
X12709571Y71237380D02*
X12709571Y70237380D01*
X12138142Y71237380D01*
X12138142Y70237380D01*
X11661952Y71237380D02*
X11661952Y70237380D01*
X11423857Y70237380D01*
X11281000Y70285000D01*
X11185761Y70380238D01*
X11138142Y70475476D01*
X11090523Y70665952D01*
X11090523Y70808809D01*
X11138142Y70999285D01*
X11185761Y71094523D01*
X11281000Y71189761D01*
X11423857Y71237380D01*
X11661952Y71237380D01*
X10185761Y71237380D02*
X10661952Y71237380D01*
X10661952Y70237380D01*
X9852428Y70713571D02*
X9519095Y70713571D01*
X9376238Y71237380D02*
X9852428Y71237380D01*
X9852428Y70237380D01*
X9376238Y70237380D01*
D10*
X24240285Y49238642D02*
X24740285Y49238642D01*
X24954571Y48452928D02*
X24240285Y48452928D01*
X24240285Y49952928D01*
X24954571Y49952928D01*
X25526000Y48524357D02*
X25740285Y48452928D01*
X26097428Y48452928D01*
X26240285Y48524357D01*
X26311714Y48595785D01*
X26383142Y48738642D01*
X26383142Y48881500D01*
X26311714Y49024357D01*
X26240285Y49095785D01*
X26097428Y49167214D01*
X25811714Y49238642D01*
X25668857Y49310071D01*
X25597428Y49381500D01*
X25526000Y49524357D01*
X25526000Y49667214D01*
X25597428Y49810071D01*
X25668857Y49881500D01*
X25811714Y49952928D01*
X26168857Y49952928D01*
X26383142Y49881500D01*
X27026000Y48452928D02*
X27026000Y49952928D01*
X27597428Y49952928D01*
X27740285Y49881500D01*
X27811714Y49810071D01*
X27883142Y49667214D01*
X27883142Y49452928D01*
X27811714Y49310071D01*
X27740285Y49238642D01*
X27597428Y49167214D01*
X27026000Y49167214D01*
X28383142Y49952928D02*
X29311714Y49952928D01*
X28811714Y49381500D01*
X29026000Y49381500D01*
X29168857Y49310071D01*
X29240285Y49238642D01*
X29311714Y49095785D01*
X29311714Y48738642D01*
X29240285Y48595785D01*
X29168857Y48524357D01*
X29026000Y48452928D01*
X28597428Y48452928D01*
X28454571Y48524357D01*
X28383142Y48595785D01*
X29883142Y49810071D02*
X29954571Y49881500D01*
X30097428Y49952928D01*
X30454571Y49952928D01*
X30597428Y49881500D01*
X30668857Y49810071D01*
X30740285Y49667214D01*
X30740285Y49524357D01*
X30668857Y49310071D01*
X29811714Y48452928D01*
X30740285Y48452928D01*
X31383142Y49024357D02*
X32526000Y49024357D01*
X33097428Y49952928D02*
X33454571Y48452928D01*
X33740285Y49524357D01*
X34026000Y48452928D01*
X34383142Y49952928D01*
X35811714Y48452928D02*
X35311714Y49167214D01*
X34954571Y48452928D02*
X34954571Y49952928D01*
X35526000Y49952928D01*
X35668857Y49881500D01*
X35740285Y49810071D01*
X35811714Y49667214D01*
X35811714Y49452928D01*
X35740285Y49310071D01*
X35668857Y49238642D01*
X35526000Y49167214D01*
X34954571Y49167214D01*
X36740285Y49952928D02*
X37026000Y49952928D01*
X37168857Y49881500D01*
X37311714Y49738642D01*
X37383142Y49452928D01*
X37383142Y48952928D01*
X37311714Y48667214D01*
X37168857Y48524357D01*
X37026000Y48452928D01*
X36740285Y48452928D01*
X36597428Y48524357D01*
X36454571Y48667214D01*
X36383142Y48952928D01*
X36383142Y49452928D01*
X36454571Y49738642D01*
X36597428Y49881500D01*
X36740285Y49952928D01*
X38311714Y49952928D02*
X38597428Y49952928D01*
X38740285Y49881500D01*
X38883142Y49738642D01*
X38954571Y49452928D01*
X38954571Y48952928D01*
X38883142Y48667214D01*
X38740285Y48524357D01*
X38597428Y48452928D01*
X38311714Y48452928D01*
X38168857Y48524357D01*
X38026000Y48667214D01*
X37954571Y48952928D01*
X37954571Y49452928D01*
X38026000Y49738642D01*
X38168857Y49881500D01*
X38311714Y49952928D01*
X39597428Y48452928D02*
X39597428Y49952928D01*
X40097428Y48881500D01*
X40597428Y49952928D01*
X40597428Y48452928D01*
X41311714Y49024357D02*
X42454571Y49024357D01*
X43168857Y49238642D02*
X43668857Y49238642D01*
X43883142Y48452928D02*
X43168857Y48452928D01*
X43168857Y49952928D01*
X43883142Y49952928D01*
X44954571Y47881500D02*
X44883142Y47952928D01*
X44740285Y48167214D01*
X44668857Y48310071D01*
X44597428Y48524357D01*
X44526000Y48881500D01*
X44526000Y49167214D01*
X44597428Y49524357D01*
X44668857Y49738642D01*
X44740285Y49881500D01*
X44883142Y50095785D01*
X44954571Y50167214D01*
X45526000Y48452928D02*
X45526000Y49952928D01*
X45883142Y49952928D01*
X46097428Y49881500D01*
X46240285Y49738642D01*
X46311714Y49595785D01*
X46383142Y49310071D01*
X46383142Y49095785D01*
X46311714Y48810071D01*
X46240285Y48667214D01*
X46097428Y48524357D01*
X45883142Y48452928D01*
X45526000Y48452928D01*
X46883142Y47881500D02*
X46954571Y47952928D01*
X47097428Y48167214D01*
X47168857Y48310071D01*
X47240285Y48524357D01*
X47311714Y48881500D01*
X47311714Y49167214D01*
X47240285Y49524357D01*
X47168857Y49738642D01*
X47097428Y49881500D01*
X46954571Y50095785D01*
X46883142Y50167214D01*
D11*
X20948571Y71110380D02*
X20948571Y70110380D01*
X20615238Y70824666D01*
X20281904Y70110380D01*
X20281904Y71110380D01*
X19805714Y71110380D02*
X19805714Y70110380D01*
X19377142Y71062761D02*
X19234285Y71110380D01*
X18996190Y71110380D01*
X18900952Y71062761D01*
X18853333Y71015142D01*
X18805714Y70919904D01*
X18805714Y70824666D01*
X18853333Y70729428D01*
X18900952Y70681809D01*
X18996190Y70634190D01*
X19186666Y70586571D01*
X19281904Y70538952D01*
X19329523Y70491333D01*
X19377142Y70396095D01*
X19377142Y70300857D01*
X19329523Y70205619D01*
X19281904Y70158000D01*
X19186666Y70110380D01*
X18948571Y70110380D01*
X18805714Y70158000D01*
X18520000Y70110380D02*
X17948571Y70110380D01*
X18234285Y71110380D02*
X18234285Y70110380D01*
X70621523Y30327571D02*
X70954857Y30327571D01*
X70954857Y30851380D02*
X70954857Y29851380D01*
X70478666Y29851380D01*
X70145333Y30565666D02*
X69669142Y30565666D01*
X70240571Y30851380D02*
X69907238Y29851380D01*
X69573904Y30851380D01*
X69240571Y30851380D02*
X69240571Y29851380D01*
X68669142Y30851380D01*
X68669142Y29851380D01*
D10*
X63728000Y60752142D02*
X63656571Y60609285D01*
X63656571Y60395000D01*
X63728000Y60180714D01*
X63870857Y60037857D01*
X64013714Y59966428D01*
X64299428Y59895000D01*
X64513714Y59895000D01*
X64799428Y59966428D01*
X64942285Y60037857D01*
X65085142Y60180714D01*
X65156571Y60395000D01*
X65156571Y60537857D01*
X65085142Y60752142D01*
X65013714Y60823571D01*
X64513714Y60823571D01*
X64513714Y60537857D01*
X65156571Y61466428D02*
X63656571Y61466428D01*
X65156571Y62323571D01*
X63656571Y62323571D01*
X65156571Y63037857D02*
X63656571Y63037857D01*
X63656571Y63395000D01*
X63728000Y63609285D01*
X63870857Y63752142D01*
X64013714Y63823571D01*
X64299428Y63895000D01*
X64513714Y63895000D01*
X64799428Y63823571D01*
X64942285Y63752142D01*
X65085142Y63609285D01*
X65156571Y63395000D01*
X65156571Y63037857D01*
X64712142Y52902142D02*
X64712142Y54045000D01*
X65283571Y53473571D02*
X64140714Y53473571D01*
X63926428Y54687857D02*
X63855000Y54759285D01*
X63783571Y54902142D01*
X63783571Y55259285D01*
X63855000Y55402142D01*
X63926428Y55473571D01*
X64069285Y55545000D01*
X64212142Y55545000D01*
X64426428Y55473571D01*
X65283571Y54616428D01*
X65283571Y55545000D01*
X64283571Y56830714D02*
X65283571Y56830714D01*
X63712142Y56473571D02*
X64783571Y56116428D01*
X64783571Y57045000D01*
X63783571Y57402142D02*
X65283571Y57902142D01*
X63783571Y58402142D01*
X12670000Y2581928D02*
X13670000Y2581928D01*
X12670000Y1081928D01*
X13670000Y1081928D01*
X36030000Y1542214D02*
X36030000Y827928D01*
X35530000Y2327928D02*
X36030000Y1542214D01*
X36530000Y2327928D01*
X59660000Y2327928D02*
X60660000Y827928D01*
X60660000Y2327928D02*
X59660000Y827928D01*
X15460000Y34054285D02*
X15388571Y33982857D01*
X15174285Y33911428D01*
X15031428Y33911428D01*
X14817142Y33982857D01*
X14674285Y34125714D01*
X14602857Y34268571D01*
X14531428Y34554285D01*
X14531428Y34768571D01*
X14602857Y35054285D01*
X14674285Y35197142D01*
X14817142Y35340000D01*
X15031428Y35411428D01*
X15174285Y35411428D01*
X15388571Y35340000D01*
X15460000Y35268571D01*
X16031428Y33982857D02*
X16245714Y33911428D01*
X16602857Y33911428D01*
X16745714Y33982857D01*
X16817142Y34054285D01*
X16888571Y34197142D01*
X16888571Y34340000D01*
X16817142Y34482857D01*
X16745714Y34554285D01*
X16602857Y34625714D01*
X16317142Y34697142D01*
X16174285Y34768571D01*
X16102857Y34840000D01*
X16031428Y34982857D01*
X16031428Y35125714D01*
X16102857Y35268571D01*
X16174285Y35340000D01*
X16317142Y35411428D01*
X16674285Y35411428D01*
X16888571Y35340000D01*
X14622857Y36451428D02*
X14622857Y37951428D01*
X15122857Y36880000D01*
X15622857Y37951428D01*
X15622857Y36451428D01*
X16622857Y37951428D02*
X16908571Y37951428D01*
X17051428Y37880000D01*
X17194285Y37737142D01*
X17265714Y37451428D01*
X17265714Y36951428D01*
X17194285Y36665714D01*
X17051428Y36522857D01*
X16908571Y36451428D01*
X16622857Y36451428D01*
X16480000Y36522857D01*
X16337142Y36665714D01*
X16265714Y36951428D01*
X16265714Y37451428D01*
X16337142Y37737142D01*
X16480000Y37880000D01*
X16622857Y37951428D01*
X17837142Y36522857D02*
X18051428Y36451428D01*
X18408571Y36451428D01*
X18551428Y36522857D01*
X18622857Y36594285D01*
X18694285Y36737142D01*
X18694285Y36880000D01*
X18622857Y37022857D01*
X18551428Y37094285D01*
X18408571Y37165714D01*
X18122857Y37237142D01*
X17980000Y37308571D01*
X17908571Y37380000D01*
X17837142Y37522857D01*
X17837142Y37665714D01*
X17908571Y37808571D01*
X17980000Y37880000D01*
X18122857Y37951428D01*
X18480000Y37951428D01*
X18694285Y37880000D01*
X19337142Y36451428D02*
X19337142Y37951428D01*
X15122857Y40491428D02*
X16051428Y40491428D01*
X15551428Y39920000D01*
X15765714Y39920000D01*
X15908571Y39848571D01*
X15980000Y39777142D01*
X16051428Y39634285D01*
X16051428Y39277142D01*
X15980000Y39134285D01*
X15908571Y39062857D01*
X15765714Y38991428D01*
X15337142Y38991428D01*
X15194285Y39062857D01*
X15122857Y39134285D01*
X16480000Y40491428D02*
X16980000Y38991428D01*
X17480000Y40491428D01*
X17837142Y40491428D02*
X18765714Y40491428D01*
X18265714Y39920000D01*
X18480000Y39920000D01*
X18622857Y39848571D01*
X18694285Y39777142D01*
X18765714Y39634285D01*
X18765714Y39277142D01*
X18694285Y39134285D01*
X18622857Y39062857D01*
X18480000Y38991428D01*
X18051428Y38991428D01*
X17908571Y39062857D01*
X17837142Y39134285D01*
X15051428Y41602857D02*
X15265714Y41531428D01*
X15622857Y41531428D01*
X15765714Y41602857D01*
X15837142Y41674285D01*
X15908571Y41817142D01*
X15908571Y41960000D01*
X15837142Y42102857D01*
X15765714Y42174285D01*
X15622857Y42245714D01*
X15337142Y42317142D01*
X15194285Y42388571D01*
X15122857Y42460000D01*
X15051428Y42602857D01*
X15051428Y42745714D01*
X15122857Y42888571D01*
X15194285Y42960000D01*
X15337142Y43031428D01*
X15694285Y43031428D01*
X15908571Y42960000D01*
X17408571Y41674285D02*
X17337142Y41602857D01*
X17122857Y41531428D01*
X16980000Y41531428D01*
X16765714Y41602857D01*
X16622857Y41745714D01*
X16551428Y41888571D01*
X16480000Y42174285D01*
X16480000Y42388571D01*
X16551428Y42674285D01*
X16622857Y42817142D01*
X16765714Y42960000D01*
X16980000Y43031428D01*
X17122857Y43031428D01*
X17337142Y42960000D01*
X17408571Y42888571D01*
X18051428Y41531428D02*
X18051428Y43031428D01*
X18908571Y41531428D02*
X18265714Y42388571D01*
X18908571Y43031428D02*
X18051428Y42174285D01*
X15837142Y45500000D02*
X15694285Y45571428D01*
X15480000Y45571428D01*
X15265714Y45500000D01*
X15122857Y45357142D01*
X15051428Y45214285D01*
X14980000Y44928571D01*
X14980000Y44714285D01*
X15051428Y44428571D01*
X15122857Y44285714D01*
X15265714Y44142857D01*
X15480000Y44071428D01*
X15622857Y44071428D01*
X15837142Y44142857D01*
X15908571Y44214285D01*
X15908571Y44714285D01*
X15622857Y44714285D01*
X16551428Y44071428D02*
X16551428Y45571428D01*
X17408571Y44071428D01*
X17408571Y45571428D01*
X18122857Y44071428D02*
X18122857Y45571428D01*
X18480000Y45571428D01*
X18694285Y45500000D01*
X18837142Y45357142D01*
X18908571Y45214285D01*
X18980000Y44928571D01*
X18980000Y44714285D01*
X18908571Y44428571D01*
X18837142Y44285714D01*
X18694285Y44142857D01*
X18480000Y44071428D01*
X18122857Y44071428D01*
X14622857Y46611428D02*
X14622857Y48111428D01*
X15122857Y47040000D01*
X15622857Y48111428D01*
X15622857Y46611428D01*
X16337142Y46611428D02*
X16337142Y48111428D01*
X16980000Y46682857D02*
X17194285Y46611428D01*
X17551428Y46611428D01*
X17694285Y46682857D01*
X17765714Y46754285D01*
X17837142Y46897142D01*
X17837142Y47040000D01*
X17765714Y47182857D01*
X17694285Y47254285D01*
X17551428Y47325714D01*
X17265714Y47397142D01*
X17122857Y47468571D01*
X17051428Y47540000D01*
X16980000Y47682857D01*
X16980000Y47825714D01*
X17051428Y47968571D01*
X17122857Y48040000D01*
X17265714Y48111428D01*
X17622857Y48111428D01*
X17837142Y48040000D01*
X18765714Y48111428D02*
X19051428Y48111428D01*
X19194285Y48040000D01*
X19337142Y47897142D01*
X19408571Y47611428D01*
X19408571Y47111428D01*
X19337142Y46825714D01*
X19194285Y46682857D01*
X19051428Y46611428D01*
X18765714Y46611428D01*
X18622857Y46682857D01*
X18480000Y46825714D01*
X18408571Y47111428D01*
X18408571Y47611428D01*
X18480000Y47897142D01*
X18622857Y48040000D01*
X18765714Y48111428D01*
X22667142Y37567142D02*
X22738571Y37781428D01*
X22738571Y38138571D01*
X22667142Y38281428D01*
X22595714Y38352857D01*
X22452857Y38424285D01*
X22310000Y38424285D01*
X22167142Y38352857D01*
X22095714Y38281428D01*
X22024285Y38138571D01*
X21952857Y37852857D01*
X21881428Y37710000D01*
X21810000Y37638571D01*
X21667142Y37567142D01*
X21524285Y37567142D01*
X21381428Y37638571D01*
X21310000Y37710000D01*
X21238571Y37852857D01*
X21238571Y38210000D01*
X21310000Y38424285D01*
X22738571Y39067142D02*
X21238571Y39067142D01*
X21238571Y39424285D01*
X21310000Y39638571D01*
X21452857Y39781428D01*
X21595714Y39852857D01*
X21881428Y39924285D01*
X22095714Y39924285D01*
X22381428Y39852857D01*
X22524285Y39781428D01*
X22667142Y39638571D01*
X22738571Y39424285D01*
X22738571Y39067142D01*
X22595714Y42567142D02*
X22667142Y42495714D01*
X22738571Y42281428D01*
X22738571Y42138571D01*
X22667142Y41924285D01*
X22524285Y41781428D01*
X22381428Y41710000D01*
X22095714Y41638571D01*
X21881428Y41638571D01*
X21595714Y41710000D01*
X21452857Y41781428D01*
X21310000Y41924285D01*
X21238571Y42138571D01*
X21238571Y42281428D01*
X21310000Y42495714D01*
X21381428Y42567142D01*
X22310000Y43138571D02*
X22310000Y43852857D01*
X22738571Y42995714D02*
X21238571Y43495714D01*
X22738571Y43995714D01*
X22738571Y45352857D02*
X22024285Y44852857D01*
X22738571Y44495714D02*
X21238571Y44495714D01*
X21238571Y45067142D01*
X21310000Y45210000D01*
X21381428Y45281428D01*
X21524285Y45352857D01*
X21738571Y45352857D01*
X21881428Y45281428D01*
X21952857Y45210000D01*
X22024285Y45067142D01*
X22024285Y44495714D01*
X22738571Y45995714D02*
X21238571Y45995714D01*
X21238571Y46352857D01*
X21310000Y46567142D01*
X21452857Y46710000D01*
X21595714Y46781428D01*
X21881428Y46852857D01*
X22095714Y46852857D01*
X22381428Y46781428D01*
X22524285Y46710000D01*
X22667142Y46567142D01*
X22738571Y46352857D01*
X22738571Y45995714D01*
D12*
G36*
X61700549Y42778319D02*
G01*
X61735647Y42678856D01*
X61762888Y42596968D01*
X61778342Y42544704D01*
X61780420Y42533513D01*
X61757242Y42521310D01*
X61696551Y42512648D01*
X61613608Y42509440D01*
X61524657Y42510707D01*
X61476391Y42516686D01*
X61458717Y42530643D01*
X61461541Y42555846D01*
X61462337Y42558405D01*
X61478121Y42604684D01*
X61506036Y42683479D01*
X61540694Y42779622D01*
X61549278Y42803211D01*
X61620678Y42999053D01*
X61700549Y42778319D01*
G37*
X61700549Y42778319D02*
X61735647Y42678856D01*
X61762888Y42596968D01*
X61778342Y42544704D01*
X61780420Y42533513D01*
X61757242Y42521310D01*
X61696551Y42512648D01*
X61613608Y42509440D01*
X61524657Y42510707D01*
X61476391Y42516686D01*
X61458717Y42530643D01*
X61461541Y42555846D01*
X61462337Y42558405D01*
X61478121Y42604684D01*
X61506036Y42683479D01*
X61540694Y42779622D01*
X61549278Y42803211D01*
X61620678Y42999053D01*
X61700549Y42778319D01*
G36*
X69679820Y41328101D02*
G01*
X67164910Y40070953D01*
X67171415Y38088221D01*
X67177920Y36105488D01*
X67978020Y35698996D01*
X68189594Y35591528D01*
X68409090Y35480075D01*
X68626762Y35369585D01*
X68832866Y35265001D01*
X69017655Y35171270D01*
X69171386Y35093337D01*
X69228970Y35064165D01*
X69679820Y34835825D01*
X69679820Y31587440D01*
X56675020Y31587440D01*
X56675020Y33213040D01*
X56675213Y33495250D01*
X56675771Y33761921D01*
X56676661Y34008801D01*
X56677849Y34231640D01*
X56679302Y34426187D01*
X56680986Y34588192D01*
X56682869Y34713404D01*
X56684917Y34797572D01*
X56687096Y34836446D01*
X56687759Y34838640D01*
X56711565Y34827486D01*
X56778234Y34794874D01*
X56885201Y34742083D01*
X57029901Y34670390D01*
X57209768Y34581072D01*
X57422237Y34475408D01*
X57664744Y34354675D01*
X57934722Y34220150D01*
X58229606Y34073112D01*
X58546831Y33914837D01*
X58883831Y33746605D01*
X59238042Y33569691D01*
X59606898Y33385374D01*
X59926219Y33225740D01*
X60305396Y33036192D01*
X60672083Y32852973D01*
X61023714Y32677361D01*
X61357725Y32510635D01*
X61671550Y32354071D01*
X61962624Y32208948D01*
X62228382Y32076542D01*
X62466258Y31958133D01*
X62673687Y31854996D01*
X62848103Y31768411D01*
X62986942Y31699654D01*
X63087638Y31650004D01*
X63147626Y31620737D01*
X63164680Y31612840D01*
X63167192Y31637429D01*
X63169515Y31707946D01*
X63171602Y31819523D01*
X63173404Y31967288D01*
X63174873Y32146372D01*
X63175963Y32351903D01*
X63176625Y32579012D01*
X63176812Y32822829D01*
X63176801Y32851090D01*
X63176183Y34089340D01*
X63169537Y34092686D01*
X63202820Y34092686D01*
X63202820Y32850949D01*
X63202932Y32567085D01*
X63203357Y32330053D01*
X63204226Y32135883D01*
X63205672Y31980608D01*
X63207825Y31860259D01*
X63210818Y31770868D01*
X63214783Y31708467D01*
X63219851Y31669086D01*
X63226155Y31648759D01*
X63233825Y31643515D01*
X63242734Y31649126D01*
X63287556Y31682738D01*
X63312584Y31692048D01*
X63356183Y31692677D01*
X63361570Y31692048D01*
X63380355Y31707694D01*
X63380620Y31711359D01*
X63401567Y31733943D01*
X63451022Y31762042D01*
X63508898Y31786348D01*
X63555113Y31797558D01*
X63564770Y31796680D01*
X63583488Y31808920D01*
X63583820Y31812959D01*
X63604767Y31835543D01*
X63654222Y31863642D01*
X63712098Y31887948D01*
X63758313Y31899158D01*
X63767970Y31898280D01*
X63786540Y31910804D01*
X63787020Y31915929D01*
X63808001Y31939892D01*
X63855009Y31962883D01*
X63904135Y31974586D01*
X63920370Y31973473D01*
X63939111Y31986840D01*
X63939420Y31990759D01*
X63960367Y32013343D01*
X64009822Y32041442D01*
X64067698Y32065748D01*
X64113913Y32076958D01*
X64123570Y32076080D01*
X64142288Y32088320D01*
X64142620Y32092359D01*
X64163567Y32114943D01*
X64213022Y32143042D01*
X64270898Y32167348D01*
X64317113Y32178558D01*
X64326770Y32177680D01*
X64345488Y32189920D01*
X64345820Y32193959D01*
X64366767Y32216543D01*
X64416222Y32244642D01*
X64474098Y32268948D01*
X64520313Y32280158D01*
X64529970Y32279280D01*
X64548688Y32291520D01*
X64549020Y32295559D01*
X64569967Y32318143D01*
X64619422Y32346242D01*
X64677298Y32370548D01*
X64723513Y32381758D01*
X64733170Y32380880D01*
X64751740Y32393404D01*
X64752220Y32398529D01*
X64773201Y32422492D01*
X64820209Y32445483D01*
X64869335Y32457186D01*
X64885570Y32456073D01*
X64903780Y32470281D01*
X64904620Y32477940D01*
X64920180Y32493109D01*
X64930020Y32489140D01*
X64953468Y32490180D01*
X64955420Y32498630D01*
X64976426Y32523599D01*
X65023552Y32547205D01*
X65072954Y32558891D01*
X65088770Y32557673D01*
X65107511Y32571040D01*
X65107820Y32574959D01*
X65128767Y32597543D01*
X65178222Y32625642D01*
X65236098Y32649948D01*
X65282313Y32661158D01*
X65291970Y32660280D01*
X65310688Y32672520D01*
X65311020Y32676559D01*
X65331967Y32699143D01*
X65381422Y32727242D01*
X65439298Y32751548D01*
X65485513Y32762758D01*
X65495170Y32761880D01*
X65513740Y32774404D01*
X65514220Y32779529D01*
X65535201Y32803492D01*
X65582209Y32826483D01*
X65631335Y32838186D01*
X65647570Y32837073D01*
X65665780Y32851281D01*
X65666620Y32858940D01*
X65682180Y32874109D01*
X65692020Y32870140D01*
X65715468Y32871180D01*
X65717420Y32879630D01*
X65738426Y32904599D01*
X65785552Y32928205D01*
X65834954Y32939891D01*
X65850770Y32938673D01*
X65869511Y32952040D01*
X65869820Y32955959D01*
X65890767Y32978543D01*
X65940222Y33006642D01*
X65998098Y33030948D01*
X66044313Y33042158D01*
X66053970Y33041280D01*
X66072688Y33053520D01*
X66073020Y33057559D01*
X66093967Y33080143D01*
X66143422Y33108242D01*
X66201298Y33132548D01*
X66247513Y33143758D01*
X66257170Y33142880D01*
X66275888Y33155120D01*
X66276220Y33159159D01*
X66297167Y33181743D01*
X66346622Y33209842D01*
X66404498Y33234148D01*
X66450713Y33245358D01*
X66460370Y33244480D01*
X66478940Y33257004D01*
X66479420Y33262129D01*
X66500401Y33286092D01*
X66547409Y33309083D01*
X66596535Y33320786D01*
X66612770Y33319673D01*
X66631511Y33333040D01*
X66631820Y33336959D01*
X66651934Y33358904D01*
X66698286Y33385841D01*
X66749890Y33407750D01*
X66785758Y33414608D01*
X66790076Y33412521D01*
X66811799Y33421614D01*
X66854106Y33455769D01*
X66859455Y33460690D01*
X66938468Y33513308D01*
X67019043Y33520868D01*
X67019170Y33520848D01*
X67037955Y33536494D01*
X67038220Y33540159D01*
X67059167Y33562743D01*
X67108622Y33590842D01*
X67166498Y33615148D01*
X67212713Y33626358D01*
X67222370Y33625480D01*
X67240940Y33638004D01*
X67241420Y33643129D01*
X67262401Y33667092D01*
X67309409Y33690083D01*
X67358535Y33701786D01*
X67374770Y33700673D01*
X67393511Y33714040D01*
X67393820Y33717959D01*
X67414767Y33740543D01*
X67464222Y33768642D01*
X67522098Y33792948D01*
X67568313Y33804158D01*
X67577970Y33803280D01*
X67596688Y33815520D01*
X67597020Y33819559D01*
X67617716Y33841915D01*
X67665817Y33869590D01*
X67720338Y33892434D01*
X67760295Y33900302D01*
X67762954Y33899802D01*
X67790069Y33912922D01*
X67821193Y33941622D01*
X67895955Y33994260D01*
X67971670Y34007905D01*
X68001246Y34021237D01*
X68003420Y34028362D01*
X68024338Y34049523D01*
X68071038Y34070756D01*
X68119436Y34082433D01*
X68136770Y34081673D01*
X68155511Y34095040D01*
X68155820Y34098959D01*
X68176767Y34121543D01*
X68226222Y34149642D01*
X68284098Y34173948D01*
X68330313Y34185158D01*
X68339970Y34184280D01*
X68358688Y34196520D01*
X68359020Y34200559D01*
X68379967Y34223143D01*
X68429422Y34251242D01*
X68487298Y34275548D01*
X68533513Y34286758D01*
X68543170Y34285880D01*
X68561888Y34298120D01*
X68562220Y34302159D01*
X68583167Y34324743D01*
X68632622Y34352842D01*
X68690498Y34377148D01*
X68736713Y34388358D01*
X68746370Y34387480D01*
X68764940Y34400004D01*
X68765420Y34405129D01*
X68786401Y34429092D01*
X68833409Y34452083D01*
X68882535Y34463786D01*
X68898770Y34462673D01*
X68917511Y34476040D01*
X68917820Y34479959D01*
X68938767Y34502543D01*
X68988222Y34530642D01*
X69046098Y34554948D01*
X69092313Y34566158D01*
X69101970Y34565280D01*
X69120688Y34577520D01*
X69121020Y34581559D01*
X69141967Y34604143D01*
X69191422Y34632242D01*
X69249298Y34656548D01*
X69295513Y34667758D01*
X69305170Y34666880D01*
X69323888Y34679120D01*
X69324220Y34683159D01*
X69344803Y34704456D01*
X69393216Y34732922D01*
X69449453Y34758625D01*
X69493508Y34771631D01*
X69502020Y34771431D01*
X69527704Y34784621D01*
X69556704Y34809842D01*
X69563345Y34820173D01*
X69561165Y34832826D01*
X69546767Y34849697D01*
X69516756Y34872686D01*
X69467733Y34903690D01*
X69396302Y34944607D01*
X69299066Y34997335D01*
X69172627Y35063772D01*
X69013590Y35145817D01*
X68818556Y35245366D01*
X68584128Y35364319D01*
X68374042Y35470630D01*
X67149396Y36089919D01*
X66916561Y35968959D01*
X66821551Y35917011D01*
X66747963Y35871788D01*
X66704620Y35839030D01*
X66697192Y35826210D01*
X66691147Y35814311D01*
X66674355Y35818353D01*
X66634041Y35816445D01*
X66580614Y35795291D01*
X66530249Y35764399D01*
X66499123Y35733278D01*
X66498561Y35715010D01*
X66499708Y35705555D01*
X66487673Y35711191D01*
X66447337Y35715169D01*
X66397044Y35699864D01*
X66355861Y35674246D01*
X66342857Y35647287D01*
X66344440Y35643802D01*
X66343617Y35630466D01*
X66331225Y35636141D01*
X66292843Y35638755D01*
X66237733Y35622110D01*
X66183009Y35594559D01*
X66145784Y35564457D01*
X66140668Y35543128D01*
X66140652Y35528640D01*
X66129488Y35533637D01*
X66092084Y35535561D01*
X66037302Y35518516D01*
X65982318Y35490904D01*
X65944309Y35461126D01*
X65938332Y35440130D01*
X65937151Y35427087D01*
X65926107Y35432149D01*
X65891639Y35430913D01*
X65830640Y35410826D01*
X65756335Y35378457D01*
X65681950Y35340375D01*
X65620710Y35303150D01*
X65585841Y35273350D01*
X65583077Y35261771D01*
X65581440Y35249358D01*
X65570035Y35254641D01*
X65542001Y35247610D01*
X65474859Y35220096D01*
X65374052Y35174823D01*
X65245020Y35114517D01*
X65093206Y35041901D01*
X64924051Y34959703D01*
X64742996Y34870646D01*
X64555483Y34777457D01*
X64366954Y34682860D01*
X64182850Y34589580D01*
X64008612Y34500343D01*
X63849683Y34417874D01*
X63711504Y34344898D01*
X63599517Y34284140D01*
X63519162Y34238325D01*
X63475882Y34210179D01*
X63469970Y34202911D01*
X63464904Y34189417D01*
X63446594Y34193506D01*
X63402812Y34190655D01*
X63336701Y34166401D01*
X63305574Y34150438D01*
X63202820Y34092686D01*
X63169537Y34092686D01*
X61183086Y35092640D01*
X59189990Y36095940D01*
X59189805Y38081350D01*
X59189619Y40066759D01*
X57938669Y40700523D01*
X56687720Y41334286D01*
X56682077Y42740599D01*
X57325643Y42740599D01*
X57325815Y42599142D01*
X57339655Y42464812D01*
X57367132Y42356284D01*
X57367380Y42355640D01*
X57447669Y42215272D01*
X57567285Y42096845D01*
X57717571Y42005622D01*
X57889870Y41946865D01*
X58074306Y41925843D01*
X58185805Y41932502D01*
X58317309Y41950541D01*
X58440378Y41976055D01*
X58440548Y41976099D01*
X58534180Y42000900D01*
X58606812Y42021746D01*
X58646032Y42035022D01*
X58649343Y42036897D01*
X58651727Y42064497D01*
X58651353Y42133259D01*
X58648434Y42233632D01*
X58643185Y42356064D01*
X58641356Y42392438D01*
X58624296Y42721371D01*
X59553490Y42721371D01*
X59557932Y42519138D01*
X59604187Y42341293D01*
X59687972Y42190876D01*
X59805004Y42070927D01*
X59951000Y41984485D01*
X60121678Y41934589D01*
X60312754Y41924277D01*
X60519945Y41956590D01*
X60578116Y41973578D01*
X60895653Y41973578D01*
X60914698Y41962614D01*
X60972788Y41954503D01*
X61058185Y41950741D01*
X61075781Y41950640D01*
X61264376Y41950640D01*
X61310767Y42103857D01*
X61357157Y42257073D01*
X61622882Y42249907D01*
X61888607Y42242740D01*
X61930589Y42103040D01*
X61972570Y41963340D01*
X62168451Y41955925D01*
X62364332Y41948509D01*
X62300488Y42121025D01*
X62272398Y42196921D01*
X62230364Y42310484D01*
X62178078Y42451737D01*
X62119233Y42610707D01*
X62057520Y42777418D01*
X62039188Y42826940D01*
X61841731Y43360340D01*
X61626925Y43367430D01*
X61456936Y43373040D01*
X62567820Y43373040D01*
X62567820Y41950640D01*
X62898020Y41950640D01*
X62898020Y42420540D01*
X62898995Y42568617D01*
X62901709Y42697400D01*
X62905840Y42799012D01*
X62911069Y42865575D01*
X62917070Y42889212D01*
X62935374Y42868160D01*
X62975898Y42809945D01*
X63034536Y42720851D01*
X63107180Y42607160D01*
X63189725Y42475156D01*
X63224179Y42419312D01*
X63512238Y41950640D01*
X63863220Y41950640D01*
X63863220Y42723324D01*
X64808691Y42723324D01*
X64811566Y42525054D01*
X64850109Y42358099D01*
X64926637Y42215459D01*
X65007232Y42123228D01*
X65122506Y42028791D01*
X65243414Y41968749D01*
X65382961Y41938830D01*
X65554153Y41934762D01*
X65577720Y41935823D01*
X65694144Y41946979D01*
X65715548Y41950640D01*
X66301620Y41950640D01*
X66630723Y41950640D01*
X66637621Y42437673D01*
X66644520Y42924706D01*
X67246074Y41950640D01*
X67597020Y41950640D01*
X67597020Y42738518D01*
X67888499Y42738518D01*
X67888916Y42569177D01*
X67919245Y42404281D01*
X67979325Y42252713D01*
X68068995Y42123354D01*
X68188094Y42025087D01*
X68212144Y42011647D01*
X68352800Y41961123D01*
X68520884Y41936742D01*
X68700030Y41938903D01*
X68873875Y41968001D01*
X68955920Y41993602D01*
X69082920Y42040943D01*
X69098090Y42388993D01*
X69014305Y42333237D01*
X68887658Y42258996D01*
X68776445Y42219026D01*
X68664065Y42208172D01*
X68619066Y42210487D01*
X68478372Y42241881D01*
X68372389Y42310052D01*
X68300858Y42415325D01*
X68263519Y42558023D01*
X68257420Y42661840D01*
X68274292Y42827091D01*
X68325131Y42954684D01*
X68410269Y43045034D01*
X68530038Y43098554D01*
X68620058Y43113277D01*
X68718027Y43114838D01*
X68801263Y43096469D01*
X68886014Y43058787D01*
X68959736Y43018506D01*
X69013670Y42983636D01*
X69031821Y42967123D01*
X69060340Y42939964D01*
X69081022Y42961149D01*
X69092956Y43028700D01*
X69095620Y43105688D01*
X69094027Y43195659D01*
X69085826Y43249214D01*
X69065882Y43280716D01*
X69029060Y43304530D01*
X69023489Y43307436D01*
X68872279Y43361402D01*
X68696829Y43385446D01*
X68513589Y43380055D01*
X68339012Y43345718D01*
X68189548Y43282921D01*
X68189157Y43282692D01*
X68068322Y43184392D01*
X67978041Y43055008D01*
X67918154Y42903422D01*
X67888499Y42738518D01*
X67597020Y42738518D01*
X67597020Y43373040D01*
X67268078Y43373040D01*
X67254120Y42561112D01*
X66744130Y43360340D01*
X66301620Y43375018D01*
X66301620Y41950640D01*
X65715548Y41950640D01*
X65808619Y41966559D01*
X65897451Y41990455D01*
X65901570Y41991983D01*
X66022220Y42037798D01*
X66022220Y42210119D01*
X66018657Y42312198D01*
X66006757Y42367272D01*
X65984699Y42378716D01*
X65950663Y42349903D01*
X65948330Y42347124D01*
X65909501Y42317756D01*
X65841093Y42280085D01*
X65787658Y42255298D01*
X65645194Y42215708D01*
X65504352Y42215850D01*
X65378655Y42254997D01*
X65338411Y42279423D01*
X65262096Y42362663D01*
X65210824Y42478138D01*
X65186659Y42612774D01*
X65191671Y42753496D01*
X65227924Y42887233D01*
X65238583Y42910914D01*
X65314966Y43016287D01*
X65419278Y43083903D01*
X65544089Y43112478D01*
X65681969Y43100730D01*
X65825490Y43047375D01*
X65872837Y43020411D01*
X65942624Y42978096D01*
X65993285Y42949369D01*
X66011207Y42941240D01*
X66016826Y42964411D01*
X66020794Y43025013D01*
X66022220Y43105688D01*
X66020627Y43195659D01*
X66012426Y43249214D01*
X65992482Y43280716D01*
X65955660Y43304530D01*
X65950089Y43307436D01*
X65857163Y43341664D01*
X65733362Y43369083D01*
X65598458Y43386785D01*
X65472227Y43391861D01*
X65406768Y43387362D01*
X65221013Y43340339D01*
X65066638Y43254220D01*
X64945952Y43131569D01*
X64861265Y42974951D01*
X64814886Y42786929D01*
X64808691Y42723324D01*
X63863220Y42723324D01*
X63863220Y43373040D01*
X63533020Y43373040D01*
X63533020Y42977841D01*
X63531792Y42843853D01*
X63528403Y42730938D01*
X63523292Y42647355D01*
X63516900Y42601361D01*
X63512636Y42595240D01*
X63493138Y42619898D01*
X63451595Y42680560D01*
X63392733Y42770057D01*
X63321276Y42881217D01*
X63252286Y42990371D01*
X63012320Y43372905D01*
X62790070Y43372973D01*
X62567820Y43373040D01*
X61456936Y43373040D01*
X61412120Y43374519D01*
X61158120Y42685517D01*
X61092838Y42508436D01*
X61033187Y42346627D01*
X60981451Y42206292D01*
X60939916Y42093630D01*
X60910868Y42014842D01*
X60896593Y41976127D01*
X60895653Y41973578D01*
X60578116Y41973578D01*
X60598786Y41979614D01*
X60764420Y42033988D01*
X60764420Y42208214D01*
X60762951Y42294871D01*
X60759092Y42357258D01*
X60753664Y42382393D01*
X60753407Y42382440D01*
X60727670Y42370100D01*
X60672212Y42338109D01*
X60615037Y42303270D01*
X60465543Y42233536D01*
X60323066Y42209978D01*
X60193618Y42229467D01*
X60083211Y42288874D01*
X59997856Y42385069D01*
X59943564Y42514924D01*
X59926220Y42661840D01*
X59944665Y42806050D01*
X59995851Y42935321D01*
X60073555Y43035400D01*
X60098039Y43055395D01*
X60163353Y43088508D01*
X60251741Y43103904D01*
X60322162Y43106195D01*
X60423518Y43101235D01*
X60502830Y43080890D01*
X60587486Y43037309D01*
X60609600Y43023790D01*
X60680927Y42980476D01*
X60733303Y42950584D01*
X60753407Y42941240D01*
X60758845Y42964492D01*
X60762780Y43025662D01*
X60764412Y43111873D01*
X60764420Y43118331D01*
X60764420Y43295421D01*
X60618370Y43339370D01*
X60485992Y43367480D01*
X60336207Y43380839D01*
X60186159Y43379480D01*
X60052997Y43363434D01*
X59965687Y43338182D01*
X59807059Y43246550D01*
X59687118Y43123350D01*
X59604888Y42967120D01*
X59559390Y42776394D01*
X59553490Y42721371D01*
X58624296Y42721371D01*
X58623431Y42738040D01*
X57995820Y42738040D01*
X57995820Y42458640D01*
X58275220Y42458640D01*
X58275220Y42173323D01*
X58110393Y42183818D01*
X57977521Y42203033D01*
X57876530Y42246660D01*
X57791077Y42323141D01*
X57756089Y42366823D01*
X57728884Y42412626D01*
X57712827Y42469246D01*
X57705320Y42550691D01*
X57703720Y42649140D01*
X57706031Y42762457D01*
X57714698Y42839120D01*
X57732319Y42893137D01*
X57756089Y42931458D01*
X57837802Y43022701D01*
X57926981Y43078551D01*
X58039811Y43107199D01*
X58117281Y43114300D01*
X58210332Y43117067D01*
X58280876Y43109678D01*
X58349440Y43087218D01*
X58436553Y43044772D01*
X58460540Y43032107D01*
X58633160Y42940386D01*
X58618120Y43280976D01*
X58478420Y43330581D01*
X58333562Y43366524D01*
X58167270Y43383335D01*
X57997058Y43381164D01*
X57840440Y43360160D01*
X57722982Y43324141D01*
X57586953Y43241436D01*
X57466528Y43126231D01*
X57377820Y42994520D01*
X57366417Y42970185D01*
X57339167Y42870505D01*
X57325643Y42740599D01*
X56682077Y42740599D01*
X56681183Y42963263D01*
X56674647Y44592240D01*
X69679820Y44592240D01*
X69679820Y41328101D01*
G37*
X69679820Y41328101D02*
X67164910Y40070953D01*
X67171415Y38088221D01*
X67177920Y36105488D01*
X67978020Y35698996D01*
X68189594Y35591528D01*
X68409090Y35480075D01*
X68626762Y35369585D01*
X68832866Y35265001D01*
X69017655Y35171270D01*
X69171386Y35093337D01*
X69228970Y35064165D01*
X69679820Y34835825D01*
X69679820Y31587440D01*
X56675020Y31587440D01*
X56675020Y33213040D01*
X56675213Y33495250D01*
X56675771Y33761921D01*
X56676661Y34008801D01*
X56677849Y34231640D01*
X56679302Y34426187D01*
X56680986Y34588192D01*
X56682869Y34713404D01*
X56684917Y34797572D01*
X56687096Y34836446D01*
X56687759Y34838640D01*
X56711565Y34827486D01*
X56778234Y34794874D01*
X56885201Y34742083D01*
X57029901Y34670390D01*
X57209768Y34581072D01*
X57422237Y34475408D01*
X57664744Y34354675D01*
X57934722Y34220150D01*
X58229606Y34073112D01*
X58546831Y33914837D01*
X58883831Y33746605D01*
X59238042Y33569691D01*
X59606898Y33385374D01*
X59926219Y33225740D01*
X60305396Y33036192D01*
X60672083Y32852973D01*
X61023714Y32677361D01*
X61357725Y32510635D01*
X61671550Y32354071D01*
X61962624Y32208948D01*
X62228382Y32076542D01*
X62466258Y31958133D01*
X62673687Y31854996D01*
X62848103Y31768411D01*
X62986942Y31699654D01*
X63087638Y31650004D01*
X63147626Y31620737D01*
X63164680Y31612840D01*
X63167192Y31637429D01*
X63169515Y31707946D01*
X63171602Y31819523D01*
X63173404Y31967288D01*
X63174873Y32146372D01*
X63175963Y32351903D01*
X63176625Y32579012D01*
X63176812Y32822829D01*
X63176801Y32851090D01*
X63176183Y34089340D01*
X63169537Y34092686D01*
X63202820Y34092686D01*
X63202820Y32850949D01*
X63202932Y32567085D01*
X63203357Y32330053D01*
X63204226Y32135883D01*
X63205672Y31980608D01*
X63207825Y31860259D01*
X63210818Y31770868D01*
X63214783Y31708467D01*
X63219851Y31669086D01*
X63226155Y31648759D01*
X63233825Y31643515D01*
X63242734Y31649126D01*
X63287556Y31682738D01*
X63312584Y31692048D01*
X63356183Y31692677D01*
X63361570Y31692048D01*
X63380355Y31707694D01*
X63380620Y31711359D01*
X63401567Y31733943D01*
X63451022Y31762042D01*
X63508898Y31786348D01*
X63555113Y31797558D01*
X63564770Y31796680D01*
X63583488Y31808920D01*
X63583820Y31812959D01*
X63604767Y31835543D01*
X63654222Y31863642D01*
X63712098Y31887948D01*
X63758313Y31899158D01*
X63767970Y31898280D01*
X63786540Y31910804D01*
X63787020Y31915929D01*
X63808001Y31939892D01*
X63855009Y31962883D01*
X63904135Y31974586D01*
X63920370Y31973473D01*
X63939111Y31986840D01*
X63939420Y31990759D01*
X63960367Y32013343D01*
X64009822Y32041442D01*
X64067698Y32065748D01*
X64113913Y32076958D01*
X64123570Y32076080D01*
X64142288Y32088320D01*
X64142620Y32092359D01*
X64163567Y32114943D01*
X64213022Y32143042D01*
X64270898Y32167348D01*
X64317113Y32178558D01*
X64326770Y32177680D01*
X64345488Y32189920D01*
X64345820Y32193959D01*
X64366767Y32216543D01*
X64416222Y32244642D01*
X64474098Y32268948D01*
X64520313Y32280158D01*
X64529970Y32279280D01*
X64548688Y32291520D01*
X64549020Y32295559D01*
X64569967Y32318143D01*
X64619422Y32346242D01*
X64677298Y32370548D01*
X64723513Y32381758D01*
X64733170Y32380880D01*
X64751740Y32393404D01*
X64752220Y32398529D01*
X64773201Y32422492D01*
X64820209Y32445483D01*
X64869335Y32457186D01*
X64885570Y32456073D01*
X64903780Y32470281D01*
X64904620Y32477940D01*
X64920180Y32493109D01*
X64930020Y32489140D01*
X64953468Y32490180D01*
X64955420Y32498630D01*
X64976426Y32523599D01*
X65023552Y32547205D01*
X65072954Y32558891D01*
X65088770Y32557673D01*
X65107511Y32571040D01*
X65107820Y32574959D01*
X65128767Y32597543D01*
X65178222Y32625642D01*
X65236098Y32649948D01*
X65282313Y32661158D01*
X65291970Y32660280D01*
X65310688Y32672520D01*
X65311020Y32676559D01*
X65331967Y32699143D01*
X65381422Y32727242D01*
X65439298Y32751548D01*
X65485513Y32762758D01*
X65495170Y32761880D01*
X65513740Y32774404D01*
X65514220Y32779529D01*
X65535201Y32803492D01*
X65582209Y32826483D01*
X65631335Y32838186D01*
X65647570Y32837073D01*
X65665780Y32851281D01*
X65666620Y32858940D01*
X65682180Y32874109D01*
X65692020Y32870140D01*
X65715468Y32871180D01*
X65717420Y32879630D01*
X65738426Y32904599D01*
X65785552Y32928205D01*
X65834954Y32939891D01*
X65850770Y32938673D01*
X65869511Y32952040D01*
X65869820Y32955959D01*
X65890767Y32978543D01*
X65940222Y33006642D01*
X65998098Y33030948D01*
X66044313Y33042158D01*
X66053970Y33041280D01*
X66072688Y33053520D01*
X66073020Y33057559D01*
X66093967Y33080143D01*
X66143422Y33108242D01*
X66201298Y33132548D01*
X66247513Y33143758D01*
X66257170Y33142880D01*
X66275888Y33155120D01*
X66276220Y33159159D01*
X66297167Y33181743D01*
X66346622Y33209842D01*
X66404498Y33234148D01*
X66450713Y33245358D01*
X66460370Y33244480D01*
X66478940Y33257004D01*
X66479420Y33262129D01*
X66500401Y33286092D01*
X66547409Y33309083D01*
X66596535Y33320786D01*
X66612770Y33319673D01*
X66631511Y33333040D01*
X66631820Y33336959D01*
X66651934Y33358904D01*
X66698286Y33385841D01*
X66749890Y33407750D01*
X66785758Y33414608D01*
X66790076Y33412521D01*
X66811799Y33421614D01*
X66854106Y33455769D01*
X66859455Y33460690D01*
X66938468Y33513308D01*
X67019043Y33520868D01*
X67019170Y33520848D01*
X67037955Y33536494D01*
X67038220Y33540159D01*
X67059167Y33562743D01*
X67108622Y33590842D01*
X67166498Y33615148D01*
X67212713Y33626358D01*
X67222370Y33625480D01*
X67240940Y33638004D01*
X67241420Y33643129D01*
X67262401Y33667092D01*
X67309409Y33690083D01*
X67358535Y33701786D01*
X67374770Y33700673D01*
X67393511Y33714040D01*
X67393820Y33717959D01*
X67414767Y33740543D01*
X67464222Y33768642D01*
X67522098Y33792948D01*
X67568313Y33804158D01*
X67577970Y33803280D01*
X67596688Y33815520D01*
X67597020Y33819559D01*
X67617716Y33841915D01*
X67665817Y33869590D01*
X67720338Y33892434D01*
X67760295Y33900302D01*
X67762954Y33899802D01*
X67790069Y33912922D01*
X67821193Y33941622D01*
X67895955Y33994260D01*
X67971670Y34007905D01*
X68001246Y34021237D01*
X68003420Y34028362D01*
X68024338Y34049523D01*
X68071038Y34070756D01*
X68119436Y34082433D01*
X68136770Y34081673D01*
X68155511Y34095040D01*
X68155820Y34098959D01*
X68176767Y34121543D01*
X68226222Y34149642D01*
X68284098Y34173948D01*
X68330313Y34185158D01*
X68339970Y34184280D01*
X68358688Y34196520D01*
X68359020Y34200559D01*
X68379967Y34223143D01*
X68429422Y34251242D01*
X68487298Y34275548D01*
X68533513Y34286758D01*
X68543170Y34285880D01*
X68561888Y34298120D01*
X68562220Y34302159D01*
X68583167Y34324743D01*
X68632622Y34352842D01*
X68690498Y34377148D01*
X68736713Y34388358D01*
X68746370Y34387480D01*
X68764940Y34400004D01*
X68765420Y34405129D01*
X68786401Y34429092D01*
X68833409Y34452083D01*
X68882535Y34463786D01*
X68898770Y34462673D01*
X68917511Y34476040D01*
X68917820Y34479959D01*
X68938767Y34502543D01*
X68988222Y34530642D01*
X69046098Y34554948D01*
X69092313Y34566158D01*
X69101970Y34565280D01*
X69120688Y34577520D01*
X69121020Y34581559D01*
X69141967Y34604143D01*
X69191422Y34632242D01*
X69249298Y34656548D01*
X69295513Y34667758D01*
X69305170Y34666880D01*
X69323888Y34679120D01*
X69324220Y34683159D01*
X69344803Y34704456D01*
X69393216Y34732922D01*
X69449453Y34758625D01*
X69493508Y34771631D01*
X69502020Y34771431D01*
X69527704Y34784621D01*
X69556704Y34809842D01*
X69563345Y34820173D01*
X69561165Y34832826D01*
X69546767Y34849697D01*
X69516756Y34872686D01*
X69467733Y34903690D01*
X69396302Y34944607D01*
X69299066Y34997335D01*
X69172627Y35063772D01*
X69013590Y35145817D01*
X68818556Y35245366D01*
X68584128Y35364319D01*
X68374042Y35470630D01*
X67149396Y36089919D01*
X66916561Y35968959D01*
X66821551Y35917011D01*
X66747963Y35871788D01*
X66704620Y35839030D01*
X66697192Y35826210D01*
X66691147Y35814311D01*
X66674355Y35818353D01*
X66634041Y35816445D01*
X66580614Y35795291D01*
X66530249Y35764399D01*
X66499123Y35733278D01*
X66498561Y35715010D01*
X66499708Y35705555D01*
X66487673Y35711191D01*
X66447337Y35715169D01*
X66397044Y35699864D01*
X66355861Y35674246D01*
X66342857Y35647287D01*
X66344440Y35643802D01*
X66343617Y35630466D01*
X66331225Y35636141D01*
X66292843Y35638755D01*
X66237733Y35622110D01*
X66183009Y35594559D01*
X66145784Y35564457D01*
X66140668Y35543128D01*
X66140652Y35528640D01*
X66129488Y35533637D01*
X66092084Y35535561D01*
X66037302Y35518516D01*
X65982318Y35490904D01*
X65944309Y35461126D01*
X65938332Y35440130D01*
X65937151Y35427087D01*
X65926107Y35432149D01*
X65891639Y35430913D01*
X65830640Y35410826D01*
X65756335Y35378457D01*
X65681950Y35340375D01*
X65620710Y35303150D01*
X65585841Y35273350D01*
X65583077Y35261771D01*
X65581440Y35249358D01*
X65570035Y35254641D01*
X65542001Y35247610D01*
X65474859Y35220096D01*
X65374052Y35174823D01*
X65245020Y35114517D01*
X65093206Y35041901D01*
X64924051Y34959703D01*
X64742996Y34870646D01*
X64555483Y34777457D01*
X64366954Y34682860D01*
X64182850Y34589580D01*
X64008612Y34500343D01*
X63849683Y34417874D01*
X63711504Y34344898D01*
X63599517Y34284140D01*
X63519162Y34238325D01*
X63475882Y34210179D01*
X63469970Y34202911D01*
X63464904Y34189417D01*
X63446594Y34193506D01*
X63402812Y34190655D01*
X63336701Y34166401D01*
X63305574Y34150438D01*
X63202820Y34092686D01*
X63169537Y34092686D01*
X61183086Y35092640D01*
X59189990Y36095940D01*
X59189805Y38081350D01*
X59189619Y40066759D01*
X57938669Y40700523D01*
X56687720Y41334286D01*
X56682077Y42740599D01*
X57325643Y42740599D01*
X57325815Y42599142D01*
X57339655Y42464812D01*
X57367132Y42356284D01*
X57367380Y42355640D01*
X57447669Y42215272D01*
X57567285Y42096845D01*
X57717571Y42005622D01*
X57889870Y41946865D01*
X58074306Y41925843D01*
X58185805Y41932502D01*
X58317309Y41950541D01*
X58440378Y41976055D01*
X58440548Y41976099D01*
X58534180Y42000900D01*
X58606812Y42021746D01*
X58646032Y42035022D01*
X58649343Y42036897D01*
X58651727Y42064497D01*
X58651353Y42133259D01*
X58648434Y42233632D01*
X58643185Y42356064D01*
X58641356Y42392438D01*
X58624296Y42721371D01*
X59553490Y42721371D01*
X59557932Y42519138D01*
X59604187Y42341293D01*
X59687972Y42190876D01*
X59805004Y42070927D01*
X59951000Y41984485D01*
X60121678Y41934589D01*
X60312754Y41924277D01*
X60519945Y41956590D01*
X60578116Y41973578D01*
X60895653Y41973578D01*
X60914698Y41962614D01*
X60972788Y41954503D01*
X61058185Y41950741D01*
X61075781Y41950640D01*
X61264376Y41950640D01*
X61310767Y42103857D01*
X61357157Y42257073D01*
X61622882Y42249907D01*
X61888607Y42242740D01*
X61930589Y42103040D01*
X61972570Y41963340D01*
X62168451Y41955925D01*
X62364332Y41948509D01*
X62300488Y42121025D01*
X62272398Y42196921D01*
X62230364Y42310484D01*
X62178078Y42451737D01*
X62119233Y42610707D01*
X62057520Y42777418D01*
X62039188Y42826940D01*
X61841731Y43360340D01*
X61626925Y43367430D01*
X61456936Y43373040D01*
X62567820Y43373040D01*
X62567820Y41950640D01*
X62898020Y41950640D01*
X62898020Y42420540D01*
X62898995Y42568617D01*
X62901709Y42697400D01*
X62905840Y42799012D01*
X62911069Y42865575D01*
X62917070Y42889212D01*
X62935374Y42868160D01*
X62975898Y42809945D01*
X63034536Y42720851D01*
X63107180Y42607160D01*
X63189725Y42475156D01*
X63224179Y42419312D01*
X63512238Y41950640D01*
X63863220Y41950640D01*
X63863220Y42723324D01*
X64808691Y42723324D01*
X64811566Y42525054D01*
X64850109Y42358099D01*
X64926637Y42215459D01*
X65007232Y42123228D01*
X65122506Y42028791D01*
X65243414Y41968749D01*
X65382961Y41938830D01*
X65554153Y41934762D01*
X65577720Y41935823D01*
X65694144Y41946979D01*
X65715548Y41950640D01*
X66301620Y41950640D01*
X66630723Y41950640D01*
X66637621Y42437673D01*
X66644520Y42924706D01*
X67246074Y41950640D01*
X67597020Y41950640D01*
X67597020Y42738518D01*
X67888499Y42738518D01*
X67888916Y42569177D01*
X67919245Y42404281D01*
X67979325Y42252713D01*
X68068995Y42123354D01*
X68188094Y42025087D01*
X68212144Y42011647D01*
X68352800Y41961123D01*
X68520884Y41936742D01*
X68700030Y41938903D01*
X68873875Y41968001D01*
X68955920Y41993602D01*
X69082920Y42040943D01*
X69098090Y42388993D01*
X69014305Y42333237D01*
X68887658Y42258996D01*
X68776445Y42219026D01*
X68664065Y42208172D01*
X68619066Y42210487D01*
X68478372Y42241881D01*
X68372389Y42310052D01*
X68300858Y42415325D01*
X68263519Y42558023D01*
X68257420Y42661840D01*
X68274292Y42827091D01*
X68325131Y42954684D01*
X68410269Y43045034D01*
X68530038Y43098554D01*
X68620058Y43113277D01*
X68718027Y43114838D01*
X68801263Y43096469D01*
X68886014Y43058787D01*
X68959736Y43018506D01*
X69013670Y42983636D01*
X69031821Y42967123D01*
X69060340Y42939964D01*
X69081022Y42961149D01*
X69092956Y43028700D01*
X69095620Y43105688D01*
X69094027Y43195659D01*
X69085826Y43249214D01*
X69065882Y43280716D01*
X69029060Y43304530D01*
X69023489Y43307436D01*
X68872279Y43361402D01*
X68696829Y43385446D01*
X68513589Y43380055D01*
X68339012Y43345718D01*
X68189548Y43282921D01*
X68189157Y43282692D01*
X68068322Y43184392D01*
X67978041Y43055008D01*
X67918154Y42903422D01*
X67888499Y42738518D01*
X67597020Y42738518D01*
X67597020Y43373040D01*
X67268078Y43373040D01*
X67254120Y42561112D01*
X66744130Y43360340D01*
X66301620Y43375018D01*
X66301620Y41950640D01*
X65715548Y41950640D01*
X65808619Y41966559D01*
X65897451Y41990455D01*
X65901570Y41991983D01*
X66022220Y42037798D01*
X66022220Y42210119D01*
X66018657Y42312198D01*
X66006757Y42367272D01*
X65984699Y42378716D01*
X65950663Y42349903D01*
X65948330Y42347124D01*
X65909501Y42317756D01*
X65841093Y42280085D01*
X65787658Y42255298D01*
X65645194Y42215708D01*
X65504352Y42215850D01*
X65378655Y42254997D01*
X65338411Y42279423D01*
X65262096Y42362663D01*
X65210824Y42478138D01*
X65186659Y42612774D01*
X65191671Y42753496D01*
X65227924Y42887233D01*
X65238583Y42910914D01*
X65314966Y43016287D01*
X65419278Y43083903D01*
X65544089Y43112478D01*
X65681969Y43100730D01*
X65825490Y43047375D01*
X65872837Y43020411D01*
X65942624Y42978096D01*
X65993285Y42949369D01*
X66011207Y42941240D01*
X66016826Y42964411D01*
X66020794Y43025013D01*
X66022220Y43105688D01*
X66020627Y43195659D01*
X66012426Y43249214D01*
X65992482Y43280716D01*
X65955660Y43304530D01*
X65950089Y43307436D01*
X65857163Y43341664D01*
X65733362Y43369083D01*
X65598458Y43386785D01*
X65472227Y43391861D01*
X65406768Y43387362D01*
X65221013Y43340339D01*
X65066638Y43254220D01*
X64945952Y43131569D01*
X64861265Y42974951D01*
X64814886Y42786929D01*
X64808691Y42723324D01*
X63863220Y42723324D01*
X63863220Y43373040D01*
X63533020Y43373040D01*
X63533020Y42977841D01*
X63531792Y42843853D01*
X63528403Y42730938D01*
X63523292Y42647355D01*
X63516900Y42601361D01*
X63512636Y42595240D01*
X63493138Y42619898D01*
X63451595Y42680560D01*
X63392733Y42770057D01*
X63321276Y42881217D01*
X63252286Y42990371D01*
X63012320Y43372905D01*
X62790070Y43372973D01*
X62567820Y43373040D01*
X61456936Y43373040D01*
X61412120Y43374519D01*
X61158120Y42685517D01*
X61092838Y42508436D01*
X61033187Y42346627D01*
X60981451Y42206292D01*
X60939916Y42093630D01*
X60910868Y42014842D01*
X60896593Y41976127D01*
X60895653Y41973578D01*
X60578116Y41973578D01*
X60598786Y41979614D01*
X60764420Y42033988D01*
X60764420Y42208214D01*
X60762951Y42294871D01*
X60759092Y42357258D01*
X60753664Y42382393D01*
X60753407Y42382440D01*
X60727670Y42370100D01*
X60672212Y42338109D01*
X60615037Y42303270D01*
X60465543Y42233536D01*
X60323066Y42209978D01*
X60193618Y42229467D01*
X60083211Y42288874D01*
X59997856Y42385069D01*
X59943564Y42514924D01*
X59926220Y42661840D01*
X59944665Y42806050D01*
X59995851Y42935321D01*
X60073555Y43035400D01*
X60098039Y43055395D01*
X60163353Y43088508D01*
X60251741Y43103904D01*
X60322162Y43106195D01*
X60423518Y43101235D01*
X60502830Y43080890D01*
X60587486Y43037309D01*
X60609600Y43023790D01*
X60680927Y42980476D01*
X60733303Y42950584D01*
X60753407Y42941240D01*
X60758845Y42964492D01*
X60762780Y43025662D01*
X60764412Y43111873D01*
X60764420Y43118331D01*
X60764420Y43295421D01*
X60618370Y43339370D01*
X60485992Y43367480D01*
X60336207Y43380839D01*
X60186159Y43379480D01*
X60052997Y43363434D01*
X59965687Y43338182D01*
X59807059Y43246550D01*
X59687118Y43123350D01*
X59604888Y42967120D01*
X59559390Y42776394D01*
X59553490Y42721371D01*
X58624296Y42721371D01*
X58623431Y42738040D01*
X57995820Y42738040D01*
X57995820Y42458640D01*
X58275220Y42458640D01*
X58275220Y42173323D01*
X58110393Y42183818D01*
X57977521Y42203033D01*
X57876530Y42246660D01*
X57791077Y42323141D01*
X57756089Y42366823D01*
X57728884Y42412626D01*
X57712827Y42469246D01*
X57705320Y42550691D01*
X57703720Y42649140D01*
X57706031Y42762457D01*
X57714698Y42839120D01*
X57732319Y42893137D01*
X57756089Y42931458D01*
X57837802Y43022701D01*
X57926981Y43078551D01*
X58039811Y43107199D01*
X58117281Y43114300D01*
X58210332Y43117067D01*
X58280876Y43109678D01*
X58349440Y43087218D01*
X58436553Y43044772D01*
X58460540Y43032107D01*
X58633160Y42940386D01*
X58618120Y43280976D01*
X58478420Y43330581D01*
X58333562Y43366524D01*
X58167270Y43383335D01*
X57997058Y43381164D01*
X57840440Y43360160D01*
X57722982Y43324141D01*
X57586953Y43241436D01*
X57466528Y43126231D01*
X57377820Y42994520D01*
X57366417Y42970185D01*
X57339167Y42870505D01*
X57325643Y42740599D01*
X56682077Y42740599D01*
X56681183Y42963263D01*
X56674647Y44592240D01*
X69679820Y44592240D01*
X69679820Y41328101D01*
G36*
X60929698Y53661324D02*
G01*
X61035432Y53660745D01*
X61111952Y53659178D01*
X61164192Y53656128D01*
X61197083Y53651104D01*
X61215557Y53643611D01*
X61224547Y53633156D01*
X61228983Y53619247D01*
X61229414Y53617446D01*
X61236153Y53584955D01*
X61248628Y53520848D01*
X61265539Y53431949D01*
X61285591Y53325081D01*
X61307484Y53207067D01*
X61308249Y53202922D01*
X61330179Y53087269D01*
X61350697Y52985086D01*
X61368479Y52902502D01*
X61382201Y52845644D01*
X61390538Y52820642D01*
X61390936Y52820199D01*
X61415497Y52807990D01*
X61466135Y52787644D01*
X61531915Y52763555D01*
X61532281Y52763426D01*
X61615137Y52732282D01*
X61712820Y52692609D01*
X61804897Y52652719D01*
X61809254Y52650747D01*
X61959227Y52582680D01*
X62291318Y52809461D01*
X62393194Y52878596D01*
X62485477Y52940403D01*
X62562823Y52991367D01*
X62619884Y53027973D01*
X62651315Y53046706D01*
X62654299Y53048096D01*
X62677141Y53041910D01*
X62719802Y53012065D01*
X62783948Y52957153D01*
X62871241Y52875766D01*
X62960355Y52789178D01*
X63046261Y52703853D01*
X63123147Y52625992D01*
X63186384Y52560403D01*
X63231343Y52511895D01*
X63253396Y52485275D01*
X63254216Y52483905D01*
X63256654Y52465637D01*
X63247470Y52435805D01*
X63224394Y52390379D01*
X63185157Y52325330D01*
X63127490Y52236630D01*
X63050615Y52122443D01*
X62982390Y52021938D01*
X62921402Y51931797D01*
X62871176Y51857251D01*
X62835236Y51803535D01*
X62817107Y51775882D01*
X62815966Y51774005D01*
X62818179Y51747510D01*
X62834958Y51696014D01*
X62862962Y51629249D01*
X62872942Y51607928D01*
X62916492Y51512941D01*
X62962954Y51405163D01*
X63000697Y51311908D01*
X63027893Y51242694D01*
X63049495Y51190094D01*
X63061978Y51162603D01*
X63063529Y51160484D01*
X63086488Y51156976D01*
X63140606Y51147362D01*
X63218688Y51133011D01*
X63313539Y51115293D01*
X63417963Y51095575D01*
X63524764Y51075226D01*
X63626746Y51055614D01*
X63716714Y51038109D01*
X63787473Y51024078D01*
X63831826Y51014891D01*
X63842705Y51012293D01*
X63853942Y51005882D01*
X63862425Y50991403D01*
X63868534Y50963967D01*
X63872652Y50918689D01*
X63875161Y50850680D01*
X63876441Y50755053D01*
X63876874Y50626920D01*
X63876897Y50574399D01*
X63876897Y50147255D01*
X63774320Y50127009D01*
X63717251Y50116030D01*
X63632089Y50100005D01*
X63529192Y50080867D01*
X63418916Y50060549D01*
X63388435Y50054968D01*
X63286675Y50035183D01*
X63198025Y50015727D01*
X63129928Y49998403D01*
X63089824Y49985012D01*
X63083143Y49981021D01*
X63066739Y49952758D01*
X63043219Y49897991D01*
X63017136Y49827512D01*
X63011962Y49812331D01*
X62977776Y49718204D01*
X62935343Y49611999D01*
X62893817Y49516627D01*
X62893612Y49516184D01*
X62824460Y49366575D01*
X63279332Y48697483D01*
X62987320Y48404984D01*
X62899000Y48317930D01*
X62818445Y48241191D01*
X62750180Y48178863D01*
X62698728Y48135044D01*
X62668614Y48113830D01*
X62664294Y48112484D01*
X62638931Y48123084D01*
X62587178Y48152553D01*
X62514688Y48197395D01*
X62427114Y48254116D01*
X62332432Y48317638D01*
X62236336Y48382432D01*
X62150657Y48438813D01*
X62080836Y48483312D01*
X62032314Y48512461D01*
X62010602Y48522792D01*
X61984113Y48514050D01*
X61933882Y48491013D01*
X61870271Y48458469D01*
X61863528Y48454851D01*
X61777866Y48411890D01*
X61719126Y48390821D01*
X61682592Y48390597D01*
X61663551Y48410172D01*
X61663440Y48410446D01*
X61653922Y48433628D01*
X61631223Y48488659D01*
X61597102Y48571278D01*
X61553320Y48677228D01*
X61501636Y48802248D01*
X61443812Y48942080D01*
X61387811Y49077463D01*
X61326267Y49226866D01*
X61269759Y49365268D01*
X61219981Y49488427D01*
X61178626Y49592098D01*
X61147388Y49672041D01*
X61127961Y49724012D01*
X61121974Y49743408D01*
X61136988Y49765657D01*
X61176259Y49801118D01*
X61228627Y49840213D01*
X61377761Y49963855D01*
X61494331Y50105578D01*
X61576938Y50262396D01*
X61624186Y50431325D01*
X61634677Y50609378D01*
X61627051Y50691561D01*
X61585502Y50862069D01*
X61513943Y51012641D01*
X61416815Y51141791D01*
X61298554Y51248036D01*
X61163600Y51329890D01*
X61016391Y51385868D01*
X60861364Y51414485D01*
X60702959Y51414256D01*
X60545614Y51383695D01*
X60393766Y51321318D01*
X60251855Y51225640D01*
X60192623Y51171528D01*
X60079023Y51032580D01*
X59999926Y50880739D01*
X59954806Y50720433D01*
X59943136Y50556088D01*
X59964389Y50392129D01*
X60018040Y50232982D01*
X60103560Y50083075D01*
X60220425Y49946833D01*
X60351013Y49840213D01*
X60405408Y49799458D01*
X60443834Y49764382D01*
X60457666Y49743374D01*
X60450423Y49720465D01*
X60429825Y49665735D01*
X60397566Y49583428D01*
X60355341Y49477785D01*
X60304843Y49353050D01*
X60247768Y49213464D01*
X60191674Y49077430D01*
X60129787Y48927899D01*
X60072464Y48789333D01*
X60021464Y48665993D01*
X59978547Y48562136D01*
X59945473Y48482020D01*
X59924001Y48429905D01*
X59916045Y48410446D01*
X59897249Y48390677D01*
X59860894Y48390735D01*
X59802299Y48411659D01*
X59716788Y48454487D01*
X59716112Y48454851D01*
X59651727Y48488088D01*
X59599681Y48512298D01*
X59570332Y48522696D01*
X59569037Y48522792D01*
X59546944Y48512245D01*
X59498168Y48482916D01*
X59428151Y48438273D01*
X59342334Y48381786D01*
X59247208Y48317638D01*
X59150360Y48252689D01*
X59063073Y48196204D01*
X58991001Y48151679D01*
X58939797Y48122610D01*
X58915346Y48112484D01*
X58892830Y48125793D01*
X58847562Y48162988D01*
X58784064Y48219972D01*
X58706859Y48292651D01*
X58620471Y48376929D01*
X58592219Y48405084D01*
X58300107Y48697684D01*
X58522451Y49023996D01*
X58590022Y49124203D01*
X58649327Y49214137D01*
X58697037Y49288590D01*
X58729827Y49342349D01*
X58744368Y49370206D01*
X58744794Y49372188D01*
X58737128Y49398445D01*
X58716509Y49451263D01*
X58686505Y49521790D01*
X58665445Y49569007D01*
X58626068Y49659406D01*
X58588985Y49750734D01*
X58560235Y49827900D01*
X58552425Y49851408D01*
X58530237Y49914184D01*
X58508547Y49962689D01*
X58496633Y49981021D01*
X58470343Y49992241D01*
X58412962Y50008146D01*
X58331938Y50026933D01*
X58234715Y50046801D01*
X58191205Y50054968D01*
X58080716Y50075271D01*
X57974736Y50094930D01*
X57883621Y50112012D01*
X57817728Y50124582D01*
X57805320Y50127009D01*
X57702743Y50147255D01*
X57702743Y50574399D01*
X57702973Y50714854D01*
X57703919Y50821121D01*
X57705961Y50898087D01*
X57709482Y50950640D01*
X57714863Y50983667D01*
X57722486Y51002055D01*
X57732732Y51010692D01*
X57736935Y51012293D01*
X57762290Y51017973D01*
X57818304Y51029305D01*
X57897784Y51044921D01*
X57993532Y51063453D01*
X58098353Y51083531D01*
X58205052Y51103788D01*
X58306433Y51122854D01*
X58395299Y51139361D01*
X58464457Y51151941D01*
X58506709Y51159225D01*
X58516110Y51160484D01*
X58524627Y51177337D01*
X58543480Y51222230D01*
X58569144Y51286670D01*
X58578943Y51311908D01*
X58618468Y51409414D01*
X58665012Y51517141D01*
X58706697Y51607928D01*
X58737370Y51677347D01*
X58757776Y51734390D01*
X58764588Y51769323D01*
X58763502Y51774005D01*
X58749105Y51796109D01*
X58716232Y51845269D01*
X58668410Y51916252D01*
X58609168Y52003822D01*
X58542035Y52102743D01*
X58528761Y52122270D01*
X58450866Y52237960D01*
X58393607Y52326056D01*
X58354701Y52390614D01*
X58331864Y52435689D01*
X58322814Y52465337D01*
X58325268Y52483615D01*
X58325331Y52483731D01*
X58344647Y52507739D01*
X58387371Y52554153D01*
X58448871Y52618163D01*
X58524518Y52694955D01*
X58609681Y52779718D01*
X58619285Y52789178D01*
X58726610Y52893111D01*
X58809435Y52969425D01*
X58869425Y53019529D01*
X58908243Y53044830D01*
X58925340Y53048096D01*
X58950293Y53033850D01*
X59002075Y53000944D01*
X59075340Y52952892D01*
X59164740Y52893210D01*
X59264931Y52825412D01*
X59288321Y52809461D01*
X59620413Y52582680D01*
X59770385Y52650747D01*
X59861590Y52690415D01*
X59959489Y52730309D01*
X60043651Y52762117D01*
X60047358Y52763426D01*
X60113189Y52787524D01*
X60163936Y52807900D01*
X60188662Y52820164D01*
X60188704Y52820199D01*
X60196549Y52842366D01*
X60209886Y52896883D01*
X60227390Y52977620D01*
X60247737Y53078450D01*
X60269602Y53193244D01*
X60271391Y53202922D01*
X60293324Y53321196D01*
X60313460Y53428558D01*
X60330500Y53518183D01*
X60343148Y53583249D01*
X60350104Y53616932D01*
X60350226Y53617446D01*
X60354459Y53631775D01*
X60362691Y53642593D01*
X60379853Y53650394D01*
X60410878Y53655671D01*
X60460698Y53658918D01*
X60534244Y53660628D01*
X60636449Y53661293D01*
X60772245Y53661407D01*
X60789820Y53661408D01*
X60929698Y53661324D01*
G37*
X60929698Y53661324D02*
X61035432Y53660745D01*
X61111952Y53659178D01*
X61164192Y53656128D01*
X61197083Y53651104D01*
X61215557Y53643611D01*
X61224547Y53633156D01*
X61228983Y53619247D01*
X61229414Y53617446D01*
X61236153Y53584955D01*
X61248628Y53520848D01*
X61265539Y53431949D01*
X61285591Y53325081D01*
X61307484Y53207067D01*
X61308249Y53202922D01*
X61330179Y53087269D01*
X61350697Y52985086D01*
X61368479Y52902502D01*
X61382201Y52845644D01*
X61390538Y52820642D01*
X61390936Y52820199D01*
X61415497Y52807990D01*
X61466135Y52787644D01*
X61531915Y52763555D01*
X61532281Y52763426D01*
X61615137Y52732282D01*
X61712820Y52692609D01*
X61804897Y52652719D01*
X61809254Y52650747D01*
X61959227Y52582680D01*
X62291318Y52809461D01*
X62393194Y52878596D01*
X62485477Y52940403D01*
X62562823Y52991367D01*
X62619884Y53027973D01*
X62651315Y53046706D01*
X62654299Y53048096D01*
X62677141Y53041910D01*
X62719802Y53012065D01*
X62783948Y52957153D01*
X62871241Y52875766D01*
X62960355Y52789178D01*
X63046261Y52703853D01*
X63123147Y52625992D01*
X63186384Y52560403D01*
X63231343Y52511895D01*
X63253396Y52485275D01*
X63254216Y52483905D01*
X63256654Y52465637D01*
X63247470Y52435805D01*
X63224394Y52390379D01*
X63185157Y52325330D01*
X63127490Y52236630D01*
X63050615Y52122443D01*
X62982390Y52021938D01*
X62921402Y51931797D01*
X62871176Y51857251D01*
X62835236Y51803535D01*
X62817107Y51775882D01*
X62815966Y51774005D01*
X62818179Y51747510D01*
X62834958Y51696014D01*
X62862962Y51629249D01*
X62872942Y51607928D01*
X62916492Y51512941D01*
X62962954Y51405163D01*
X63000697Y51311908D01*
X63027893Y51242694D01*
X63049495Y51190094D01*
X63061978Y51162603D01*
X63063529Y51160484D01*
X63086488Y51156976D01*
X63140606Y51147362D01*
X63218688Y51133011D01*
X63313539Y51115293D01*
X63417963Y51095575D01*
X63524764Y51075226D01*
X63626746Y51055614D01*
X63716714Y51038109D01*
X63787473Y51024078D01*
X63831826Y51014891D01*
X63842705Y51012293D01*
X63853942Y51005882D01*
X63862425Y50991403D01*
X63868534Y50963967D01*
X63872652Y50918689D01*
X63875161Y50850680D01*
X63876441Y50755053D01*
X63876874Y50626920D01*
X63876897Y50574399D01*
X63876897Y50147255D01*
X63774320Y50127009D01*
X63717251Y50116030D01*
X63632089Y50100005D01*
X63529192Y50080867D01*
X63418916Y50060549D01*
X63388435Y50054968D01*
X63286675Y50035183D01*
X63198025Y50015727D01*
X63129928Y49998403D01*
X63089824Y49985012D01*
X63083143Y49981021D01*
X63066739Y49952758D01*
X63043219Y49897991D01*
X63017136Y49827512D01*
X63011962Y49812331D01*
X62977776Y49718204D01*
X62935343Y49611999D01*
X62893817Y49516627D01*
X62893612Y49516184D01*
X62824460Y49366575D01*
X63279332Y48697483D01*
X62987320Y48404984D01*
X62899000Y48317930D01*
X62818445Y48241191D01*
X62750180Y48178863D01*
X62698728Y48135044D01*
X62668614Y48113830D01*
X62664294Y48112484D01*
X62638931Y48123084D01*
X62587178Y48152553D01*
X62514688Y48197395D01*
X62427114Y48254116D01*
X62332432Y48317638D01*
X62236336Y48382432D01*
X62150657Y48438813D01*
X62080836Y48483312D01*
X62032314Y48512461D01*
X62010602Y48522792D01*
X61984113Y48514050D01*
X61933882Y48491013D01*
X61870271Y48458469D01*
X61863528Y48454851D01*
X61777866Y48411890D01*
X61719126Y48390821D01*
X61682592Y48390597D01*
X61663551Y48410172D01*
X61663440Y48410446D01*
X61653922Y48433628D01*
X61631223Y48488659D01*
X61597102Y48571278D01*
X61553320Y48677228D01*
X61501636Y48802248D01*
X61443812Y48942080D01*
X61387811Y49077463D01*
X61326267Y49226866D01*
X61269759Y49365268D01*
X61219981Y49488427D01*
X61178626Y49592098D01*
X61147388Y49672041D01*
X61127961Y49724012D01*
X61121974Y49743408D01*
X61136988Y49765657D01*
X61176259Y49801118D01*
X61228627Y49840213D01*
X61377761Y49963855D01*
X61494331Y50105578D01*
X61576938Y50262396D01*
X61624186Y50431325D01*
X61634677Y50609378D01*
X61627051Y50691561D01*
X61585502Y50862069D01*
X61513943Y51012641D01*
X61416815Y51141791D01*
X61298554Y51248036D01*
X61163600Y51329890D01*
X61016391Y51385868D01*
X60861364Y51414485D01*
X60702959Y51414256D01*
X60545614Y51383695D01*
X60393766Y51321318D01*
X60251855Y51225640D01*
X60192623Y51171528D01*
X60079023Y51032580D01*
X59999926Y50880739D01*
X59954806Y50720433D01*
X59943136Y50556088D01*
X59964389Y50392129D01*
X60018040Y50232982D01*
X60103560Y50083075D01*
X60220425Y49946833D01*
X60351013Y49840213D01*
X60405408Y49799458D01*
X60443834Y49764382D01*
X60457666Y49743374D01*
X60450423Y49720465D01*
X60429825Y49665735D01*
X60397566Y49583428D01*
X60355341Y49477785D01*
X60304843Y49353050D01*
X60247768Y49213464D01*
X60191674Y49077430D01*
X60129787Y48927899D01*
X60072464Y48789333D01*
X60021464Y48665993D01*
X59978547Y48562136D01*
X59945473Y48482020D01*
X59924001Y48429905D01*
X59916045Y48410446D01*
X59897249Y48390677D01*
X59860894Y48390735D01*
X59802299Y48411659D01*
X59716788Y48454487D01*
X59716112Y48454851D01*
X59651727Y48488088D01*
X59599681Y48512298D01*
X59570332Y48522696D01*
X59569037Y48522792D01*
X59546944Y48512245D01*
X59498168Y48482916D01*
X59428151Y48438273D01*
X59342334Y48381786D01*
X59247208Y48317638D01*
X59150360Y48252689D01*
X59063073Y48196204D01*
X58991001Y48151679D01*
X58939797Y48122610D01*
X58915346Y48112484D01*
X58892830Y48125793D01*
X58847562Y48162988D01*
X58784064Y48219972D01*
X58706859Y48292651D01*
X58620471Y48376929D01*
X58592219Y48405084D01*
X58300107Y48697684D01*
X58522451Y49023996D01*
X58590022Y49124203D01*
X58649327Y49214137D01*
X58697037Y49288590D01*
X58729827Y49342349D01*
X58744368Y49370206D01*
X58744794Y49372188D01*
X58737128Y49398445D01*
X58716509Y49451263D01*
X58686505Y49521790D01*
X58665445Y49569007D01*
X58626068Y49659406D01*
X58588985Y49750734D01*
X58560235Y49827900D01*
X58552425Y49851408D01*
X58530237Y49914184D01*
X58508547Y49962689D01*
X58496633Y49981021D01*
X58470343Y49992241D01*
X58412962Y50008146D01*
X58331938Y50026933D01*
X58234715Y50046801D01*
X58191205Y50054968D01*
X58080716Y50075271D01*
X57974736Y50094930D01*
X57883621Y50112012D01*
X57817728Y50124582D01*
X57805320Y50127009D01*
X57702743Y50147255D01*
X57702743Y50574399D01*
X57702973Y50714854D01*
X57703919Y50821121D01*
X57705961Y50898087D01*
X57709482Y50950640D01*
X57714863Y50983667D01*
X57722486Y51002055D01*
X57732732Y51010692D01*
X57736935Y51012293D01*
X57762290Y51017973D01*
X57818304Y51029305D01*
X57897784Y51044921D01*
X57993532Y51063453D01*
X58098353Y51083531D01*
X58205052Y51103788D01*
X58306433Y51122854D01*
X58395299Y51139361D01*
X58464457Y51151941D01*
X58506709Y51159225D01*
X58516110Y51160484D01*
X58524627Y51177337D01*
X58543480Y51222230D01*
X58569144Y51286670D01*
X58578943Y51311908D01*
X58618468Y51409414D01*
X58665012Y51517141D01*
X58706697Y51607928D01*
X58737370Y51677347D01*
X58757776Y51734390D01*
X58764588Y51769323D01*
X58763502Y51774005D01*
X58749105Y51796109D01*
X58716232Y51845269D01*
X58668410Y51916252D01*
X58609168Y52003822D01*
X58542035Y52102743D01*
X58528761Y52122270D01*
X58450866Y52237960D01*
X58393607Y52326056D01*
X58354701Y52390614D01*
X58331864Y52435689D01*
X58322814Y52465337D01*
X58325268Y52483615D01*
X58325331Y52483731D01*
X58344647Y52507739D01*
X58387371Y52554153D01*
X58448871Y52618163D01*
X58524518Y52694955D01*
X58609681Y52779718D01*
X58619285Y52789178D01*
X58726610Y52893111D01*
X58809435Y52969425D01*
X58869425Y53019529D01*
X58908243Y53044830D01*
X58925340Y53048096D01*
X58950293Y53033850D01*
X59002075Y53000944D01*
X59075340Y52952892D01*
X59164740Y52893210D01*
X59264931Y52825412D01*
X59288321Y52809461D01*
X59620413Y52582680D01*
X59770385Y52650747D01*
X59861590Y52690415D01*
X59959489Y52730309D01*
X60043651Y52762117D01*
X60047358Y52763426D01*
X60113189Y52787524D01*
X60163936Y52807900D01*
X60188662Y52820164D01*
X60188704Y52820199D01*
X60196549Y52842366D01*
X60209886Y52896883D01*
X60227390Y52977620D01*
X60247737Y53078450D01*
X60269602Y53193244D01*
X60271391Y53202922D01*
X60293324Y53321196D01*
X60313460Y53428558D01*
X60330500Y53518183D01*
X60343148Y53583249D01*
X60350104Y53616932D01*
X60350226Y53617446D01*
X60354459Y53631775D01*
X60362691Y53642593D01*
X60379853Y53650394D01*
X60410878Y53655671D01*
X60460698Y53658918D01*
X60534244Y53660628D01*
X60636449Y53661293D01*
X60772245Y53661407D01*
X60789820Y53661408D01*
X60929698Y53661324D01*
G36*
X65035044Y47301262D02*
G01*
X65112348Y47250739D01*
X65149634Y47205510D01*
X65179173Y47123437D01*
X65181519Y47058493D01*
X65176205Y46971655D01*
X64975935Y46883997D01*
X64878559Y46839213D01*
X64814933Y46803187D01*
X64781849Y46771983D01*
X64776100Y46741664D01*
X64794478Y46708295D01*
X64814743Y46686177D01*
X64873709Y46650707D01*
X64937844Y46648221D01*
X64996746Y46675865D01*
X65040017Y46730780D01*
X65047756Y46750172D01*
X65084826Y46810736D01*
X65127474Y46836548D01*
X65185974Y46858629D01*
X65185974Y46774916D01*
X65180802Y46717950D01*
X65160543Y46669911D01*
X65118082Y46614754D01*
X65111771Y46607586D01*
X65064540Y46558515D01*
X65023941Y46532180D01*
X64973148Y46520065D01*
X64931040Y46516097D01*
X64855722Y46515109D01*
X64802106Y46527634D01*
X64768658Y46546231D01*
X64716088Y46587125D01*
X64679699Y46631352D01*
X64656670Y46686974D01*
X64644179Y46762053D01*
X64639407Y46864651D01*
X64639026Y46916724D01*
X64640321Y46979152D01*
X64758291Y46979152D01*
X64759659Y46945662D01*
X64763069Y46940177D01*
X64785573Y46947628D01*
X64834002Y46967347D01*
X64898728Y46995382D01*
X64912263Y47001408D01*
X64994064Y47043004D01*
X65039132Y47079562D01*
X65049037Y47113804D01*
X65025346Y47148452D01*
X65005780Y47163761D01*
X64935180Y47194379D01*
X64869100Y47189320D01*
X64813779Y47151949D01*
X64775456Y47085627D01*
X64763169Y47032984D01*
X64758291Y46979152D01*
X64640321Y46979152D01*
X64641550Y47038380D01*
X64650852Y47128390D01*
X64669280Y47193933D01*
X64699180Y47242188D01*
X64742900Y47280333D01*
X64761961Y47292660D01*
X64848546Y47324764D01*
X64943342Y47326784D01*
X65035044Y47301262D01*
G37*
X65035044Y47301262D02*
X65112348Y47250739D01*
X65149634Y47205510D01*
X65179173Y47123437D01*
X65181519Y47058493D01*
X65176205Y46971655D01*
X64975935Y46883997D01*
X64878559Y46839213D01*
X64814933Y46803187D01*
X64781849Y46771983D01*
X64776100Y46741664D01*
X64794478Y46708295D01*
X64814743Y46686177D01*
X64873709Y46650707D01*
X64937844Y46648221D01*
X64996746Y46675865D01*
X65040017Y46730780D01*
X65047756Y46750172D01*
X65084826Y46810736D01*
X65127474Y46836548D01*
X65185974Y46858629D01*
X65185974Y46774916D01*
X65180802Y46717950D01*
X65160543Y46669911D01*
X65118082Y46614754D01*
X65111771Y46607586D01*
X65064540Y46558515D01*
X65023941Y46532180D01*
X64973148Y46520065D01*
X64931040Y46516097D01*
X64855722Y46515109D01*
X64802106Y46527634D01*
X64768658Y46546231D01*
X64716088Y46587125D01*
X64679699Y46631352D01*
X64656670Y46686974D01*
X64644179Y46762053D01*
X64639407Y46864651D01*
X64639026Y46916724D01*
X64640321Y46979152D01*
X64758291Y46979152D01*
X64759659Y46945662D01*
X64763069Y46940177D01*
X64785573Y46947628D01*
X64834002Y46967347D01*
X64898728Y46995382D01*
X64912263Y47001408D01*
X64994064Y47043004D01*
X65039132Y47079562D01*
X65049037Y47113804D01*
X65025346Y47148452D01*
X65005780Y47163761D01*
X64935180Y47194379D01*
X64869100Y47189320D01*
X64813779Y47151949D01*
X64775456Y47085627D01*
X64763169Y47032984D01*
X64758291Y46979152D01*
X64640321Y46979152D01*
X64641550Y47038380D01*
X64650852Y47128390D01*
X64669280Y47193933D01*
X64699180Y47242188D01*
X64742900Y47280333D01*
X64761961Y47292660D01*
X64848546Y47324764D01*
X64943342Y47326784D01*
X65035044Y47301262D01*
G36*
X64360627Y47312318D02*
G01*
X64383981Y47302112D01*
X64439722Y47257966D01*
X64487389Y47194133D01*
X64516868Y47126013D01*
X64521666Y47092430D01*
X64505580Y47045544D01*
X64470295Y47020735D01*
X64432464Y47005713D01*
X64415141Y47002945D01*
X64406706Y47023034D01*
X64390050Y47066749D01*
X64382743Y47086502D01*
X64341768Y47154829D01*
X64282442Y47188909D01*
X64206372Y47187861D01*
X64200738Y47186519D01*
X64160125Y47167264D01*
X64130268Y47129725D01*
X64109875Y47069291D01*
X64097656Y46981349D01*
X64092320Y46861287D01*
X64091820Y46797402D01*
X64091572Y46696697D01*
X64089946Y46628046D01*
X64085621Y46584427D01*
X64077274Y46558818D01*
X64063585Y46544197D01*
X64043231Y46533542D01*
X64042054Y46533005D01*
X64002858Y46516433D01*
X63983439Y46510331D01*
X63980455Y46528781D01*
X63977901Y46579777D01*
X63975960Y46656792D01*
X63974817Y46753295D01*
X63974589Y46823916D01*
X63975752Y46960575D01*
X63980299Y47064249D01*
X63989819Y47140992D01*
X64005901Y47196854D01*
X64030133Y47237888D01*
X64064106Y47270146D01*
X64097653Y47292660D01*
X64178319Y47322624D01*
X64272201Y47329382D01*
X64360627Y47312318D01*
G37*
X64360627Y47312318D02*
X64383981Y47302112D01*
X64439722Y47257966D01*
X64487389Y47194133D01*
X64516868Y47126013D01*
X64521666Y47092430D01*
X64505580Y47045544D01*
X64470295Y47020735D01*
X64432464Y47005713D01*
X64415141Y47002945D01*
X64406706Y47023034D01*
X64390050Y47066749D01*
X64382743Y47086502D01*
X64341768Y47154829D01*
X64282442Y47188909D01*
X64206372Y47187861D01*
X64200738Y47186519D01*
X64160125Y47167264D01*
X64130268Y47129725D01*
X64109875Y47069291D01*
X64097656Y46981349D01*
X64092320Y46861287D01*
X64091820Y46797402D01*
X64091572Y46696697D01*
X64089946Y46628046D01*
X64085621Y46584427D01*
X64077274Y46558818D01*
X64063585Y46544197D01*
X64043231Y46533542D01*
X64042054Y46533005D01*
X64002858Y46516433D01*
X63983439Y46510331D01*
X63980455Y46528781D01*
X63977901Y46579777D01*
X63975960Y46656792D01*
X63974817Y46753295D01*
X63974589Y46823916D01*
X63975752Y46960575D01*
X63980299Y47064249D01*
X63989819Y47140992D01*
X64005901Y47196854D01*
X64030133Y47237888D01*
X64064106Y47270146D01*
X64097653Y47292660D01*
X64178319Y47322624D01*
X64272201Y47329382D01*
X64360627Y47312318D01*
G36*
X63677153Y47315572D02*
G01*
X63733410Y47289983D01*
X63777567Y47258976D01*
X63809921Y47224305D01*
X63832258Y47179580D01*
X63846366Y47118408D01*
X63854031Y47034399D01*
X63857040Y46921160D01*
X63857358Y46846591D01*
X63857358Y46555680D01*
X63807593Y46533005D01*
X63768396Y46516433D01*
X63748977Y46510331D01*
X63745262Y46528490D01*
X63742315Y46577452D01*
X63740511Y46648947D01*
X63740128Y46705715D01*
X63738481Y46787729D01*
X63734042Y46852791D01*
X63727560Y46892633D01*
X63722410Y46901100D01*
X63687797Y46892454D01*
X63633460Y46870277D01*
X63570542Y46840214D01*
X63510188Y46807908D01*
X63463541Y46779002D01*
X63441746Y46759139D01*
X63441659Y46758925D01*
X63443534Y46722165D01*
X63460345Y46687074D01*
X63489859Y46658572D01*
X63532936Y46649039D01*
X63569752Y46650150D01*
X63621894Y46650967D01*
X63649264Y46638751D01*
X63665702Y46606476D01*
X63667775Y46600390D01*
X63674901Y46554361D01*
X63655844Y46526413D01*
X63606173Y46513093D01*
X63552517Y46510630D01*
X63455962Y46528890D01*
X63405979Y46554969D01*
X63344249Y46616232D01*
X63311510Y46691430D01*
X63308573Y46770889D01*
X63336244Y46844933D01*
X63377867Y46891331D01*
X63419424Y46917307D01*
X63484742Y46950193D01*
X63560858Y46983543D01*
X63573546Y46988639D01*
X63657153Y47025535D01*
X63705350Y47058054D01*
X63720850Y47090382D01*
X63706370Y47126706D01*
X63681512Y47155100D01*
X63622759Y47190061D01*
X63558113Y47192683D01*
X63498828Y47165742D01*
X63456159Y47112012D01*
X63450559Y47098150D01*
X63417953Y47047164D01*
X63370350Y47009313D01*
X63310281Y46978250D01*
X63310281Y47066332D01*
X63313817Y47120149D01*
X63328976Y47162566D01*
X63362588Y47207821D01*
X63394855Y47242680D01*
X63445029Y47292038D01*
X63484013Y47318553D01*
X63525884Y47329189D01*
X63573280Y47330946D01*
X63677153Y47315572D01*
G37*
X63677153Y47315572D02*
X63733410Y47289983D01*
X63777567Y47258976D01*
X63809921Y47224305D01*
X63832258Y47179580D01*
X63846366Y47118408D01*
X63854031Y47034399D01*
X63857040Y46921160D01*
X63857358Y46846591D01*
X63857358Y46555680D01*
X63807593Y46533005D01*
X63768396Y46516433D01*
X63748977Y46510331D01*
X63745262Y46528490D01*
X63742315Y46577452D01*
X63740511Y46648947D01*
X63740128Y46705715D01*
X63738481Y46787729D01*
X63734042Y46852791D01*
X63727560Y46892633D01*
X63722410Y46901100D01*
X63687797Y46892454D01*
X63633460Y46870277D01*
X63570542Y46840214D01*
X63510188Y46807908D01*
X63463541Y46779002D01*
X63441746Y46759139D01*
X63441659Y46758925D01*
X63443534Y46722165D01*
X63460345Y46687074D01*
X63489859Y46658572D01*
X63532936Y46649039D01*
X63569752Y46650150D01*
X63621894Y46650967D01*
X63649264Y46638751D01*
X63665702Y46606476D01*
X63667775Y46600390D01*
X63674901Y46554361D01*
X63655844Y46526413D01*
X63606173Y46513093D01*
X63552517Y46510630D01*
X63455962Y46528890D01*
X63405979Y46554969D01*
X63344249Y46616232D01*
X63311510Y46691430D01*
X63308573Y46770889D01*
X63336244Y46844933D01*
X63377867Y46891331D01*
X63419424Y46917307D01*
X63484742Y46950193D01*
X63560858Y46983543D01*
X63573546Y46988639D01*
X63657153Y47025535D01*
X63705350Y47058054D01*
X63720850Y47090382D01*
X63706370Y47126706D01*
X63681512Y47155100D01*
X63622759Y47190061D01*
X63558113Y47192683D01*
X63498828Y47165742D01*
X63456159Y47112012D01*
X63450559Y47098150D01*
X63417953Y47047164D01*
X63370350Y47009313D01*
X63310281Y46978250D01*
X63310281Y47066332D01*
X63313817Y47120149D01*
X63328976Y47162566D01*
X63362588Y47207821D01*
X63394855Y47242680D01*
X63445029Y47292038D01*
X63484013Y47318553D01*
X63525884Y47329189D01*
X63573280Y47330946D01*
X63677153Y47315572D01*
G36*
X63185749Y47312438D02*
G01*
X63188731Y47261032D01*
X63191067Y47182908D01*
X63192569Y47084243D01*
X63193051Y46980757D01*
X63193051Y46630567D01*
X63131221Y46568737D01*
X63088613Y46530638D01*
X63051210Y46515205D01*
X63000090Y46516182D01*
X62979798Y46518667D01*
X62916374Y46525900D01*
X62863915Y46530045D01*
X62851128Y46530428D01*
X62808019Y46527924D01*
X62746364Y46521638D01*
X62722458Y46518667D01*
X62663742Y46514072D01*
X62624284Y46524054D01*
X62585158Y46554872D01*
X62571035Y46568737D01*
X62509205Y46630567D01*
X62509205Y47285597D01*
X62558970Y47308271D01*
X62601822Y47325066D01*
X62626893Y47330946D01*
X62633321Y47312364D01*
X62639329Y47260445D01*
X62644517Y47180928D01*
X62648484Y47079554D01*
X62650397Y46993908D01*
X62655743Y46656869D01*
X62702380Y46650275D01*
X62744796Y46654886D01*
X62765580Y46669813D01*
X62771390Y46697723D01*
X62776350Y46757175D01*
X62780066Y46840634D01*
X62782144Y46940568D01*
X62782444Y46991996D01*
X62782743Y47288046D01*
X62844274Y47309496D01*
X62887824Y47324080D01*
X62911514Y47330881D01*
X62912197Y47330946D01*
X62914574Y47312458D01*
X62917186Y47261194D01*
X62919815Y47183451D01*
X62922241Y47085526D01*
X62923935Y46993908D01*
X62929281Y46656869D01*
X63046512Y46656869D01*
X63051892Y46964354D01*
X63057271Y47271839D01*
X63114421Y47301393D01*
X63156617Y47321687D01*
X63181590Y47330896D01*
X63182311Y47330946D01*
X63185749Y47312438D01*
G37*
X63185749Y47312438D02*
X63188731Y47261032D01*
X63191067Y47182908D01*
X63192569Y47084243D01*
X63193051Y46980757D01*
X63193051Y46630567D01*
X63131221Y46568737D01*
X63088613Y46530638D01*
X63051210Y46515205D01*
X63000090Y46516182D01*
X62979798Y46518667D01*
X62916374Y46525900D01*
X62863915Y46530045D01*
X62851128Y46530428D01*
X62808019Y46527924D01*
X62746364Y46521638D01*
X62722458Y46518667D01*
X62663742Y46514072D01*
X62624284Y46524054D01*
X62585158Y46554872D01*
X62571035Y46568737D01*
X62509205Y46630567D01*
X62509205Y47285597D01*
X62558970Y47308271D01*
X62601822Y47325066D01*
X62626893Y47330946D01*
X62633321Y47312364D01*
X62639329Y47260445D01*
X62644517Y47180928D01*
X62648484Y47079554D01*
X62650397Y46993908D01*
X62655743Y46656869D01*
X62702380Y46650275D01*
X62744796Y46654886D01*
X62765580Y46669813D01*
X62771390Y46697723D01*
X62776350Y46757175D01*
X62780066Y46840634D01*
X62782144Y46940568D01*
X62782444Y46991996D01*
X62782743Y47288046D01*
X62844274Y47309496D01*
X62887824Y47324080D01*
X62911514Y47330881D01*
X62912197Y47330946D01*
X62914574Y47312458D01*
X62917186Y47261194D01*
X62919815Y47183451D01*
X62922241Y47085526D01*
X62923935Y46993908D01*
X62929281Y46656869D01*
X63046512Y46656869D01*
X63051892Y46964354D01*
X63057271Y47271839D01*
X63114421Y47301393D01*
X63156617Y47321687D01*
X63181590Y47330896D01*
X63182311Y47330946D01*
X63185749Y47312438D01*
G36*
X62391901Y47168811D02*
G01*
X62391653Y47022780D01*
X62390692Y46910445D01*
X62388614Y46826422D01*
X62385013Y46765331D01*
X62379485Y46721791D01*
X62371624Y46690421D01*
X62361027Y46665838D01*
X62353002Y46651806D01*
X62286548Y46575712D01*
X62202290Y46528016D01*
X62109069Y46510901D01*
X62015720Y46526554D01*
X61960132Y46554682D01*
X61901777Y46603340D01*
X61862006Y46662767D01*
X61838010Y46740593D01*
X61826981Y46844448D01*
X61825419Y46920638D01*
X61825629Y46926114D01*
X61962128Y46926114D01*
X61962961Y46838745D01*
X61966781Y46780908D01*
X61975566Y46743071D01*
X61991294Y46715702D01*
X62010086Y46695058D01*
X62073195Y46655210D01*
X62140957Y46651805D01*
X62204999Y46685075D01*
X62209984Y46689583D01*
X62231259Y46713033D01*
X62244599Y46740934D01*
X62251821Y46782459D01*
X62254743Y46846784D01*
X62255205Y46917900D01*
X62254203Y47007242D01*
X62250058Y47066842D01*
X62241056Y47106011D01*
X62225487Y47134060D01*
X62212722Y47148956D01*
X62153420Y47186525D01*
X62085121Y47191043D01*
X62019930Y47162347D01*
X62007348Y47151694D01*
X61985931Y47128037D01*
X61972564Y47099849D01*
X61965386Y47057855D01*
X61962539Y46992781D01*
X61962128Y46926114D01*
X61825629Y46926114D01*
X61830142Y47043335D01*
X61846182Y47135523D01*
X61876348Y47204831D01*
X61923449Y47258889D01*
X61960132Y47286595D01*
X62026810Y47316528D01*
X62104092Y47330422D01*
X62175930Y47326703D01*
X62216128Y47311700D01*
X62231902Y47307430D01*
X62242370Y47323350D01*
X62249676Y47366011D01*
X62255205Y47430994D01*
X62261257Y47503368D01*
X62269664Y47546913D01*
X62284961Y47571813D01*
X62311684Y47588255D01*
X62328474Y47595536D01*
X62391974Y47622137D01*
X62391901Y47168811D01*
G37*
X62391901Y47168811D02*
X62391653Y47022780D01*
X62390692Y46910445D01*
X62388614Y46826422D01*
X62385013Y46765331D01*
X62379485Y46721791D01*
X62371624Y46690421D01*
X62361027Y46665838D01*
X62353002Y46651806D01*
X62286548Y46575712D01*
X62202290Y46528016D01*
X62109069Y46510901D01*
X62015720Y46526554D01*
X61960132Y46554682D01*
X61901777Y46603340D01*
X61862006Y46662767D01*
X61838010Y46740593D01*
X61826981Y46844448D01*
X61825419Y46920638D01*
X61825629Y46926114D01*
X61962128Y46926114D01*
X61962961Y46838745D01*
X61966781Y46780908D01*
X61975566Y46743071D01*
X61991294Y46715702D01*
X62010086Y46695058D01*
X62073195Y46655210D01*
X62140957Y46651805D01*
X62204999Y46685075D01*
X62209984Y46689583D01*
X62231259Y46713033D01*
X62244599Y46740934D01*
X62251821Y46782459D01*
X62254743Y46846784D01*
X62255205Y46917900D01*
X62254203Y47007242D01*
X62250058Y47066842D01*
X62241056Y47106011D01*
X62225487Y47134060D01*
X62212722Y47148956D01*
X62153420Y47186525D01*
X62085121Y47191043D01*
X62019930Y47162347D01*
X62007348Y47151694D01*
X61985931Y47128037D01*
X61972564Y47099849D01*
X61965386Y47057855D01*
X61962539Y46992781D01*
X61962128Y46926114D01*
X61825629Y46926114D01*
X61830142Y47043335D01*
X61846182Y47135523D01*
X61876348Y47204831D01*
X61923449Y47258889D01*
X61960132Y47286595D01*
X62026810Y47316528D01*
X62104092Y47330422D01*
X62175930Y47326703D01*
X62216128Y47311700D01*
X62231902Y47307430D01*
X62242370Y47323350D01*
X62249676Y47366011D01*
X62255205Y47430994D01*
X62261257Y47503368D01*
X62269664Y47546913D01*
X62284961Y47571813D01*
X62311684Y47588255D01*
X62328474Y47595536D01*
X62391974Y47622137D01*
X62391901Y47168811D01*
G36*
X61503182Y47324430D02*
G01*
X61591937Y47291679D01*
X61663842Y47233750D01*
X61691964Y47192972D01*
X61722622Y47118146D01*
X61721985Y47064042D01*
X61689807Y47027654D01*
X61677901Y47021467D01*
X61626495Y47002175D01*
X61600242Y47007118D01*
X61591350Y47039513D01*
X61590897Y47057408D01*
X61574617Y47123241D01*
X61532185Y47169293D01*
X61473208Y47191536D01*
X61407295Y47185939D01*
X61353715Y47156871D01*
X61335618Y47140290D01*
X61322791Y47120175D01*
X61314126Y47089768D01*
X61308516Y47042312D01*
X61304855Y46971050D01*
X61302035Y46869225D01*
X61301304Y46836985D01*
X61298640Y46726690D01*
X61295612Y46649064D01*
X61291070Y46597704D01*
X61283866Y46566210D01*
X61272853Y46548180D01*
X61256880Y46537212D01*
X61246654Y46532367D01*
X61203226Y46515799D01*
X61177662Y46510331D01*
X61169215Y46528593D01*
X61164059Y46583804D01*
X61162166Y46676601D01*
X61163509Y46807622D01*
X61163927Y46827831D01*
X61166878Y46947367D01*
X61170368Y47034651D01*
X61175334Y47096509D01*
X61182713Y47139764D01*
X61193444Y47171240D01*
X61208465Y47197761D01*
X61216322Y47209125D01*
X61261373Y47259408D01*
X61311760Y47298519D01*
X61317928Y47301933D01*
X61408278Y47328888D01*
X61503182Y47324430D01*
G37*
X61503182Y47324430D02*
X61591937Y47291679D01*
X61663842Y47233750D01*
X61691964Y47192972D01*
X61722622Y47118146D01*
X61721985Y47064042D01*
X61689807Y47027654D01*
X61677901Y47021467D01*
X61626495Y47002175D01*
X61600242Y47007118D01*
X61591350Y47039513D01*
X61590897Y47057408D01*
X61574617Y47123241D01*
X61532185Y47169293D01*
X61473208Y47191536D01*
X61407295Y47185939D01*
X61353715Y47156871D01*
X61335618Y47140290D01*
X61322791Y47120175D01*
X61314126Y47089768D01*
X61308516Y47042312D01*
X61304855Y46971050D01*
X61302035Y46869225D01*
X61301304Y46836985D01*
X61298640Y46726690D01*
X61295612Y46649064D01*
X61291070Y46597704D01*
X61283866Y46566210D01*
X61272853Y46548180D01*
X61256880Y46537212D01*
X61246654Y46532367D01*
X61203226Y46515799D01*
X61177662Y46510331D01*
X61169215Y46528593D01*
X61164059Y46583804D01*
X61162166Y46676601D01*
X61163509Y46807622D01*
X61163927Y46827831D01*
X61166878Y46947367D01*
X61170368Y47034651D01*
X61175334Y47096509D01*
X61182713Y47139764D01*
X61193444Y47171240D01*
X61208465Y47197761D01*
X61216322Y47209125D01*
X61261373Y47259408D01*
X61311760Y47298519D01*
X61317928Y47301933D01*
X61408278Y47328888D01*
X61503182Y47324430D01*
G36*
X60843321Y47322797D02*
G01*
X60919880Y47294367D01*
X60920756Y47293821D01*
X60968105Y47258973D01*
X61003061Y47218248D01*
X61027645Y47165175D01*
X61043882Y47093286D01*
X61053795Y46996108D01*
X61059406Y46867172D01*
X61059897Y46848802D01*
X61066961Y46571813D01*
X61007515Y46541072D01*
X60964501Y46520298D01*
X60938530Y46510454D01*
X60937329Y46510331D01*
X60932834Y46528494D01*
X60929264Y46577488D01*
X60927068Y46649069D01*
X60926589Y46707032D01*
X60926578Y46800930D01*
X60922286Y46859897D01*
X60907323Y46888021D01*
X60875302Y46889394D01*
X60819834Y46868102D01*
X60736089Y46828964D01*
X60674509Y46796457D01*
X60642837Y46768255D01*
X60633526Y46737518D01*
X60633512Y46735996D01*
X60648877Y46683046D01*
X60694367Y46654440D01*
X60763986Y46650297D01*
X60814133Y46651016D01*
X60840574Y46636573D01*
X60857063Y46601882D01*
X60866553Y46557684D01*
X60852877Y46532607D01*
X60847727Y46529018D01*
X60799245Y46514604D01*
X60731351Y46512563D01*
X60661432Y46522117D01*
X60611888Y46539578D01*
X60543390Y46597736D01*
X60504454Y46678692D01*
X60496743Y46741940D01*
X60502627Y46798989D01*
X60523921Y46845558D01*
X60566085Y46886919D01*
X60634579Y46928345D01*
X60734864Y46975107D01*
X60740974Y46977750D01*
X60831310Y47019483D01*
X60887055Y47053709D01*
X60910949Y47084465D01*
X60905733Y47115789D01*
X60874148Y47151717D01*
X60864703Y47159984D01*
X60801437Y47192042D01*
X60735884Y47190693D01*
X60678792Y47159262D01*
X60640913Y47101076D01*
X60637394Y47089654D01*
X60603120Y47034263D01*
X60559629Y47007582D01*
X60496743Y46981140D01*
X60496743Y47049552D01*
X60515872Y47148990D01*
X60572651Y47240198D01*
X60602198Y47270711D01*
X60669362Y47309872D01*
X60754776Y47327600D01*
X60843321Y47322797D01*
G37*
X60843321Y47322797D02*
X60919880Y47294367D01*
X60920756Y47293821D01*
X60968105Y47258973D01*
X61003061Y47218248D01*
X61027645Y47165175D01*
X61043882Y47093286D01*
X61053795Y46996108D01*
X61059406Y46867172D01*
X61059897Y46848802D01*
X61066961Y46571813D01*
X61007515Y46541072D01*
X60964501Y46520298D01*
X60938530Y46510454D01*
X60937329Y46510331D01*
X60932834Y46528494D01*
X60929264Y46577488D01*
X60927068Y46649069D01*
X60926589Y46707032D01*
X60926578Y46800930D01*
X60922286Y46859897D01*
X60907323Y46888021D01*
X60875302Y46889394D01*
X60819834Y46868102D01*
X60736089Y46828964D01*
X60674509Y46796457D01*
X60642837Y46768255D01*
X60633526Y46737518D01*
X60633512Y46735996D01*
X60648877Y46683046D01*
X60694367Y46654440D01*
X60763986Y46650297D01*
X60814133Y46651016D01*
X60840574Y46636573D01*
X60857063Y46601882D01*
X60866553Y46557684D01*
X60852877Y46532607D01*
X60847727Y46529018D01*
X60799245Y46514604D01*
X60731351Y46512563D01*
X60661432Y46522117D01*
X60611888Y46539578D01*
X60543390Y46597736D01*
X60504454Y46678692D01*
X60496743Y46741940D01*
X60502627Y46798989D01*
X60523921Y46845558D01*
X60566085Y46886919D01*
X60634579Y46928345D01*
X60734864Y46975107D01*
X60740974Y46977750D01*
X60831310Y47019483D01*
X60887055Y47053709D01*
X60910949Y47084465D01*
X60905733Y47115789D01*
X60874148Y47151717D01*
X60864703Y47159984D01*
X60801437Y47192042D01*
X60735884Y47190693D01*
X60678792Y47159262D01*
X60640913Y47101076D01*
X60637394Y47089654D01*
X60603120Y47034263D01*
X60559629Y47007582D01*
X60496743Y46981140D01*
X60496743Y47049552D01*
X60515872Y47148990D01*
X60572651Y47240198D01*
X60602198Y47270711D01*
X60669362Y47309872D01*
X60754776Y47327600D01*
X60843321Y47322797D01*
G36*
X59949666Y47456980D02*
G01*
X59955392Y47377120D01*
X59961969Y47330061D01*
X59971082Y47309534D01*
X59984418Y47309271D01*
X59988743Y47311722D01*
X60046264Y47329464D01*
X60121088Y47328428D01*
X60197159Y47310190D01*
X60244738Y47286595D01*
X60293522Y47248902D01*
X60329184Y47206245D01*
X60353665Y47152043D01*
X60368907Y47079716D01*
X60376850Y46982681D01*
X60379436Y46854358D01*
X60379482Y46829742D01*
X60379512Y46553230D01*
X60317981Y46531780D01*
X60274279Y46517188D01*
X60250302Y46510394D01*
X60249597Y46510331D01*
X60247235Y46528755D01*
X60245226Y46579574D01*
X60243721Y46656107D01*
X60242873Y46751670D01*
X60242743Y46809771D01*
X60242471Y46924329D01*
X60241072Y47006433D01*
X60237669Y47062707D01*
X60231387Y47099774D01*
X60221349Y47124256D01*
X60206681Y47142775D01*
X60197522Y47151694D01*
X60134609Y47187634D01*
X60065956Y47190325D01*
X60003668Y47159930D01*
X59992149Y47148956D01*
X59975253Y47128321D01*
X59963534Y47103844D01*
X59956053Y47068453D01*
X59951874Y47015074D01*
X59950057Y46936634D01*
X59949666Y46828483D01*
X59949666Y46553230D01*
X59888135Y46531780D01*
X59844433Y46517188D01*
X59820456Y46510394D01*
X59819750Y46510331D01*
X59817946Y46529031D01*
X59816320Y46581778D01*
X59814937Y46663543D01*
X59813862Y46769295D01*
X59813160Y46894006D01*
X59812897Y47032645D01*
X59812897Y47567294D01*
X59939897Y47620864D01*
X59949666Y47456980D01*
G37*
X59949666Y47456980D02*
X59955392Y47377120D01*
X59961969Y47330061D01*
X59971082Y47309534D01*
X59984418Y47309271D01*
X59988743Y47311722D01*
X60046264Y47329464D01*
X60121088Y47328428D01*
X60197159Y47310190D01*
X60244738Y47286595D01*
X60293522Y47248902D01*
X60329184Y47206245D01*
X60353665Y47152043D01*
X60368907Y47079716D01*
X60376850Y46982681D01*
X60379436Y46854358D01*
X60379482Y46829742D01*
X60379512Y46553230D01*
X60317981Y46531780D01*
X60274279Y46517188D01*
X60250302Y46510394D01*
X60249597Y46510331D01*
X60247235Y46528755D01*
X60245226Y46579574D01*
X60243721Y46656107D01*
X60242873Y46751670D01*
X60242743Y46809771D01*
X60242471Y46924329D01*
X60241072Y47006433D01*
X60237669Y47062707D01*
X60231387Y47099774D01*
X60221349Y47124256D01*
X60206681Y47142775D01*
X60197522Y47151694D01*
X60134609Y47187634D01*
X60065956Y47190325D01*
X60003668Y47159930D01*
X59992149Y47148956D01*
X59975253Y47128321D01*
X59963534Y47103844D01*
X59956053Y47068453D01*
X59951874Y47015074D01*
X59950057Y46936634D01*
X59949666Y46828483D01*
X59949666Y46553230D01*
X59888135Y46531780D01*
X59844433Y46517188D01*
X59820456Y46510394D01*
X59819750Y46510331D01*
X59817946Y46529031D01*
X59816320Y46581778D01*
X59814937Y46663543D01*
X59813862Y46769295D01*
X59813160Y46894006D01*
X59812897Y47032645D01*
X59812897Y47567294D01*
X59939897Y47620864D01*
X59949666Y47456980D01*
G36*
X58324074Y47349355D02*
G01*
X58401106Y47297533D01*
X58460636Y47222688D01*
X58496198Y47127446D01*
X58503391Y47057344D01*
X58502574Y47028091D01*
X58495734Y47005693D01*
X58476932Y46985626D01*
X58440228Y46963367D01*
X58379682Y46934391D01*
X58289354Y46894173D01*
X58288897Y46893971D01*
X58205753Y46855890D01*
X58137573Y46822075D01*
X58091325Y46796167D01*
X58073978Y46781805D01*
X58073974Y46781689D01*
X58089263Y46750415D01*
X58125016Y46715943D01*
X58166062Y46691110D01*
X58186857Y46686177D01*
X58243590Y46703238D01*
X58292447Y46745967D01*
X58316285Y46792945D01*
X58339217Y46827578D01*
X58384138Y46867019D01*
X58436943Y46901091D01*
X58483530Y46919620D01*
X58493272Y46920638D01*
X58504238Y46903885D01*
X58504899Y46861061D01*
X58496840Y46803319D01*
X58481647Y46741811D01*
X58460906Y46687691D01*
X58459858Y46685590D01*
X58397441Y46598440D01*
X58316546Y46539161D01*
X58224676Y46510066D01*
X58129333Y46513466D01*
X58038018Y46551672D01*
X58033958Y46554359D01*
X57962126Y46619458D01*
X57914893Y46704395D01*
X57888754Y46816079D01*
X57885246Y46847457D01*
X57879033Y46995564D01*
X57886481Y47064632D01*
X58073974Y47064632D01*
X58076410Y47021548D01*
X58089734Y47008974D01*
X58122952Y47018381D01*
X58175314Y47040617D01*
X58233844Y47068490D01*
X58235299Y47069228D01*
X58284909Y47095323D01*
X58304820Y47112737D01*
X58299910Y47130993D01*
X58279236Y47154980D01*
X58226639Y47189694D01*
X58169997Y47192244D01*
X58119189Y47166981D01*
X58084096Y47118253D01*
X58073974Y47064632D01*
X57886481Y47064632D01*
X57891812Y47114064D01*
X57924598Y47208045D01*
X57970241Y47273885D01*
X58052622Y47340419D01*
X58143366Y47373424D01*
X58236005Y47375527D01*
X58324074Y47349355D01*
G37*
X58324074Y47349355D02*
X58401106Y47297533D01*
X58460636Y47222688D01*
X58496198Y47127446D01*
X58503391Y47057344D01*
X58502574Y47028091D01*
X58495734Y47005693D01*
X58476932Y46985626D01*
X58440228Y46963367D01*
X58379682Y46934391D01*
X58289354Y46894173D01*
X58288897Y46893971D01*
X58205753Y46855890D01*
X58137573Y46822075D01*
X58091325Y46796167D01*
X58073978Y46781805D01*
X58073974Y46781689D01*
X58089263Y46750415D01*
X58125016Y46715943D01*
X58166062Y46691110D01*
X58186857Y46686177D01*
X58243590Y46703238D01*
X58292447Y46745967D01*
X58316285Y46792945D01*
X58339217Y46827578D01*
X58384138Y46867019D01*
X58436943Y46901091D01*
X58483530Y46919620D01*
X58493272Y46920638D01*
X58504238Y46903885D01*
X58504899Y46861061D01*
X58496840Y46803319D01*
X58481647Y46741811D01*
X58460906Y46687691D01*
X58459858Y46685590D01*
X58397441Y46598440D01*
X58316546Y46539161D01*
X58224676Y46510066D01*
X58129333Y46513466D01*
X58038018Y46551672D01*
X58033958Y46554359D01*
X57962126Y46619458D01*
X57914893Y46704395D01*
X57888754Y46816079D01*
X57885246Y46847457D01*
X57879033Y46995564D01*
X57886481Y47064632D01*
X58073974Y47064632D01*
X58076410Y47021548D01*
X58089734Y47008974D01*
X58122952Y47018381D01*
X58175314Y47040617D01*
X58233844Y47068490D01*
X58235299Y47069228D01*
X58284909Y47095323D01*
X58304820Y47112737D01*
X58299910Y47130993D01*
X58279236Y47154980D01*
X58226639Y47189694D01*
X58169997Y47192244D01*
X58119189Y47166981D01*
X58084096Y47118253D01*
X58073974Y47064632D01*
X57886481Y47064632D01*
X57891812Y47114064D01*
X57924598Y47208045D01*
X57970241Y47273885D01*
X58052622Y47340419D01*
X58143366Y47373424D01*
X58236005Y47375527D01*
X58324074Y47349355D01*
G36*
X56806706Y47361844D02*
G01*
X56898284Y47313691D01*
X56965869Y47236195D01*
X56989877Y47186373D01*
X57008558Y47111567D01*
X57018121Y47017048D01*
X57019028Y46913890D01*
X57011741Y46813165D01*
X56996723Y46725947D01*
X56974435Y46663309D01*
X56967585Y46652521D01*
X56886452Y46571995D01*
X56790086Y46523764D01*
X56685521Y46509650D01*
X56579788Y46531471D01*
X56550363Y46544553D01*
X56493061Y46584869D01*
X56442770Y46638325D01*
X56438017Y46645105D01*
X56418698Y46677779D01*
X56405928Y46712706D01*
X56398384Y46758686D01*
X56394744Y46824516D01*
X56393685Y46918995D01*
X56393666Y46940177D01*
X56393714Y46946918D01*
X56589051Y46946918D01*
X56590188Y46857751D01*
X56594661Y46798580D01*
X56604066Y46760359D01*
X56619996Y46734047D01*
X56628128Y46725254D01*
X56674878Y46691839D01*
X56720267Y46693363D01*
X56766160Y46722348D01*
X56793532Y46753291D01*
X56809743Y46798457D01*
X56818846Y46869680D01*
X56819471Y46877986D01*
X56821024Y47007063D01*
X56804785Y47102928D01*
X56770972Y47164993D01*
X56719804Y47192668D01*
X56701540Y47194177D01*
X56653580Y47186587D01*
X56620773Y47160292D01*
X56600715Y47110005D01*
X56590998Y47030436D01*
X56589051Y46946918D01*
X56393714Y46946918D01*
X56394394Y47040851D01*
X56397449Y47111194D01*
X56404142Y47159937D01*
X56415780Y47195812D01*
X56433673Y47227552D01*
X56437628Y47233452D01*
X56504087Y47312996D01*
X56576505Y47359171D01*
X56664669Y47377501D01*
X56694607Y47378397D01*
X56806706Y47361844D01*
G37*
X56806706Y47361844D02*
X56898284Y47313691D01*
X56965869Y47236195D01*
X56989877Y47186373D01*
X57008558Y47111567D01*
X57018121Y47017048D01*
X57019028Y46913890D01*
X57011741Y46813165D01*
X56996723Y46725947D01*
X56974435Y46663309D01*
X56967585Y46652521D01*
X56886452Y46571995D01*
X56790086Y46523764D01*
X56685521Y46509650D01*
X56579788Y46531471D01*
X56550363Y46544553D01*
X56493061Y46584869D01*
X56442770Y46638325D01*
X56438017Y46645105D01*
X56418698Y46677779D01*
X56405928Y46712706D01*
X56398384Y46758686D01*
X56394744Y46824516D01*
X56393685Y46918995D01*
X56393666Y46940177D01*
X56393714Y46946918D01*
X56589051Y46946918D01*
X56590188Y46857751D01*
X56594661Y46798580D01*
X56604066Y46760359D01*
X56619996Y46734047D01*
X56628128Y46725254D01*
X56674878Y46691839D01*
X56720267Y46693363D01*
X56766160Y46722348D01*
X56793532Y46753291D01*
X56809743Y46798457D01*
X56818846Y46869680D01*
X56819471Y46877986D01*
X56821024Y47007063D01*
X56804785Y47102928D01*
X56770972Y47164993D01*
X56719804Y47192668D01*
X56701540Y47194177D01*
X56653580Y47186587D01*
X56620773Y47160292D01*
X56600715Y47110005D01*
X56590998Y47030436D01*
X56589051Y46946918D01*
X56393714Y46946918D01*
X56394394Y47040851D01*
X56397449Y47111194D01*
X56404142Y47159937D01*
X56415780Y47195812D01*
X56433673Y47227552D01*
X56437628Y47233452D01*
X56504087Y47312996D01*
X56576505Y47359171D01*
X56664669Y47377501D01*
X56694607Y47378397D01*
X56806706Y47361844D01*
G36*
X59061484Y47354011D02*
G01*
X59124187Y47317742D01*
X59167781Y47281742D01*
X59199665Y47244025D01*
X59221630Y47197901D01*
X59235469Y47136679D01*
X59242973Y47053669D01*
X59245937Y46942181D01*
X59246281Y46862038D01*
X59246281Y46567035D01*
X59080205Y46492585D01*
X59070435Y46815698D01*
X59066399Y46936371D01*
X59062164Y47023959D01*
X59056917Y47084450D01*
X59049845Y47123832D01*
X59040131Y47148093D01*
X59026964Y47163220D01*
X59022739Y47166494D01*
X58958729Y47192066D01*
X58894028Y47181947D01*
X58855512Y47155100D01*
X58839845Y47136076D01*
X58829000Y47111112D01*
X58822108Y47073266D01*
X58818299Y47015598D01*
X58816703Y46931165D01*
X58816435Y46843172D01*
X58816383Y46732777D01*
X58814492Y46654637D01*
X58808165Y46601935D01*
X58794803Y46567858D01*
X58771805Y46545589D01*
X58736574Y46528313D01*
X58689517Y46510362D01*
X58638123Y46490822D01*
X58644241Y46837615D01*
X58646704Y46962632D01*
X58649587Y47055018D01*
X58653718Y47121219D01*
X58659927Y47167680D01*
X58669046Y47200844D01*
X58681903Y47227156D01*
X58697404Y47250371D01*
X58772191Y47324531D01*
X58863448Y47367416D01*
X58962703Y47377688D01*
X59061484Y47354011D01*
G37*
X59061484Y47354011D02*
X59124187Y47317742D01*
X59167781Y47281742D01*
X59199665Y47244025D01*
X59221630Y47197901D01*
X59235469Y47136679D01*
X59242973Y47053669D01*
X59245937Y46942181D01*
X59246281Y46862038D01*
X59246281Y46567035D01*
X59080205Y46492585D01*
X59070435Y46815698D01*
X59066399Y46936371D01*
X59062164Y47023959D01*
X59056917Y47084450D01*
X59049845Y47123832D01*
X59040131Y47148093D01*
X59026964Y47163220D01*
X59022739Y47166494D01*
X58958729Y47192066D01*
X58894028Y47181947D01*
X58855512Y47155100D01*
X58839845Y47136076D01*
X58829000Y47111112D01*
X58822108Y47073266D01*
X58818299Y47015598D01*
X58816703Y46931165D01*
X58816435Y46843172D01*
X58816383Y46732777D01*
X58814492Y46654637D01*
X58808165Y46601935D01*
X58794803Y46567858D01*
X58771805Y46545589D01*
X58736574Y46528313D01*
X58689517Y46510362D01*
X58638123Y46490822D01*
X58644241Y46837615D01*
X58646704Y46962632D01*
X58649587Y47055018D01*
X58653718Y47121219D01*
X58659927Y47167680D01*
X58669046Y47200844D01*
X58681903Y47227156D01*
X58697404Y47250371D01*
X58772191Y47324531D01*
X58863448Y47367416D01*
X58962703Y47377688D01*
X59061484Y47354011D01*
G36*
X57558706Y47364595D02*
G01*
X57633359Y47327373D01*
X57699251Y47258839D01*
X57717397Y47233452D01*
X57737165Y47200234D01*
X57749992Y47164155D01*
X57757330Y47116002D01*
X57760633Y47046564D01*
X57761358Y46954894D01*
X57758083Y46829270D01*
X57746697Y46734946D01*
X57724861Y46664577D01*
X57690239Y46610814D01*
X57640490Y46566312D01*
X57636834Y46563677D01*
X57587805Y46536723D01*
X57528765Y46523388D01*
X57453679Y46520100D01*
X57331615Y46520100D01*
X57331564Y46401603D01*
X57330428Y46335608D01*
X57323506Y46296898D01*
X57305418Y46273681D01*
X57270782Y46254167D01*
X57262465Y46250180D01*
X57223540Y46231497D01*
X57193403Y46219697D01*
X57170994Y46218678D01*
X57155253Y46232339D01*
X57145122Y46264578D01*
X57139543Y46319296D01*
X57137455Y46400389D01*
X57137801Y46511756D01*
X57139520Y46657298D01*
X57140057Y46700831D01*
X57141992Y46850895D01*
X57143724Y46949058D01*
X57331512Y46949058D01*
X57332568Y46865736D01*
X57337258Y46811220D01*
X57347871Y46775263D01*
X57366692Y46747618D01*
X57379470Y46734135D01*
X57431710Y46694683D01*
X57477962Y46691472D01*
X57525687Y46724051D01*
X57526897Y46725254D01*
X57546314Y46750432D01*
X57558127Y46784653D01*
X57564085Y46837352D01*
X57565940Y46917969D01*
X57565974Y46935829D01*
X57561490Y47046925D01*
X57546894Y47123939D01*
X57520470Y47170953D01*
X57480503Y47192050D01*
X57457404Y47194177D01*
X57402582Y47184200D01*
X57364978Y47151348D01*
X57342343Y47091243D01*
X57332426Y46999502D01*
X57331512Y46949058D01*
X57143724Y46949058D01*
X57144042Y46967040D01*
X57146693Y47054421D01*
X57150426Y47118195D01*
X57155727Y47163518D01*
X57163078Y47195545D01*
X57172963Y47219432D01*
X57185866Y47240336D01*
X57191399Y47248202D01*
X57264789Y47322505D01*
X57357580Y47364633D01*
X57464916Y47376378D01*
X57558706Y47364595D01*
G37*
X57558706Y47364595D02*
X57633359Y47327373D01*
X57699251Y47258839D01*
X57717397Y47233452D01*
X57737165Y47200234D01*
X57749992Y47164155D01*
X57757330Y47116002D01*
X57760633Y47046564D01*
X57761358Y46954894D01*
X57758083Y46829270D01*
X57746697Y46734946D01*
X57724861Y46664577D01*
X57690239Y46610814D01*
X57640490Y46566312D01*
X57636834Y46563677D01*
X57587805Y46536723D01*
X57528765Y46523388D01*
X57453679Y46520100D01*
X57331615Y46520100D01*
X57331564Y46401603D01*
X57330428Y46335608D01*
X57323506Y46296898D01*
X57305418Y46273681D01*
X57270782Y46254167D01*
X57262465Y46250180D01*
X57223540Y46231497D01*
X57193403Y46219697D01*
X57170994Y46218678D01*
X57155253Y46232339D01*
X57145122Y46264578D01*
X57139543Y46319296D01*
X57137455Y46400389D01*
X57137801Y46511756D01*
X57139520Y46657298D01*
X57140057Y46700831D01*
X57141992Y46850895D01*
X57143724Y46949058D01*
X57331512Y46949058D01*
X57332568Y46865736D01*
X57337258Y46811220D01*
X57347871Y46775263D01*
X57366692Y46747618D01*
X57379470Y46734135D01*
X57431710Y46694683D01*
X57477962Y46691472D01*
X57525687Y46724051D01*
X57526897Y46725254D01*
X57546314Y46750432D01*
X57558127Y46784653D01*
X57564085Y46837352D01*
X57565940Y46917969D01*
X57565974Y46935829D01*
X57561490Y47046925D01*
X57546894Y47123939D01*
X57520470Y47170953D01*
X57480503Y47192050D01*
X57457404Y47194177D01*
X57402582Y47184200D01*
X57364978Y47151348D01*
X57342343Y47091243D01*
X57332426Y46999502D01*
X57331512Y46949058D01*
X57143724Y46949058D01*
X57144042Y46967040D01*
X57146693Y47054421D01*
X57150426Y47118195D01*
X57155727Y47163518D01*
X57163078Y47195545D01*
X57172963Y47219432D01*
X57185866Y47240336D01*
X57191399Y47248202D01*
X57264789Y47322505D01*
X57357580Y47364633D01*
X57464916Y47376378D01*
X57558706Y47364595D01*
D13*
X73495000Y53640000D02*
X73495000Y63800000D01*
X65875000Y53640000D02*
X73495000Y53640000D01*
X65875000Y63800000D02*
X65875000Y53640000D01*
X73495000Y63800000D02*
X65875000Y63800000D01*
X72225000Y63800000D02*
X72225000Y53640000D01*
D12*
G36*
X62978183Y40549928D02*
G01*
X62994508Y40503666D01*
X63007178Y40465579D01*
X63014366Y40441270D01*
X63015332Y40436065D01*
X63004552Y40430389D01*
X62976323Y40426360D01*
X62937745Y40424868D01*
X62896373Y40425457D01*
X62873924Y40428238D01*
X62865703Y40434730D01*
X62867017Y40446452D01*
X62867387Y40447643D01*
X62874728Y40469168D01*
X62887712Y40505817D01*
X62903832Y40550534D01*
X62907824Y40561506D01*
X62941034Y40652595D01*
X62978183Y40549928D01*
G37*
X62978183Y40549928D02*
X62994508Y40503666D01*
X63007178Y40465579D01*
X63014366Y40441270D01*
X63015332Y40436065D01*
X63004552Y40430389D01*
X62976323Y40426360D01*
X62937745Y40424868D01*
X62896373Y40425457D01*
X62873924Y40428238D01*
X62865703Y40434730D01*
X62867017Y40446452D01*
X62867387Y40447643D01*
X62874728Y40469168D01*
X62887712Y40505817D01*
X62903832Y40550534D01*
X62907824Y40561506D01*
X62941034Y40652595D01*
X62978183Y40549928D01*
G36*
X66689472Y39875408D02*
G01*
X65519746Y39290688D01*
X65522772Y38368487D01*
X65525797Y37446286D01*
X65897937Y37257220D01*
X65996343Y37207234D01*
X66098435Y37155396D01*
X66199678Y37104005D01*
X66295540Y37055362D01*
X66381488Y37011766D01*
X66452991Y36975518D01*
X66479774Y36961949D01*
X66689472Y36855745D01*
X66689472Y35344868D01*
X60640728Y35344868D01*
X60640728Y36100961D01*
X60640818Y36232222D01*
X60641077Y36356255D01*
X60641491Y36471082D01*
X60642044Y36574729D01*
X60642719Y36665216D01*
X60643503Y36740567D01*
X60644378Y36798805D01*
X60645331Y36837953D01*
X60646344Y36856034D01*
X60646653Y36857054D01*
X60657725Y36851866D01*
X60688734Y36836698D01*
X60738486Y36812144D01*
X60805789Y36778798D01*
X60889448Y36737255D01*
X60988271Y36688109D01*
X61101064Y36631954D01*
X61226635Y36569384D01*
X61363791Y36500995D01*
X61511337Y36427379D01*
X61668082Y36349131D01*
X61832831Y36266845D01*
X62004392Y36181116D01*
X62152914Y36106868D01*
X62329275Y36018706D01*
X62499827Y35933488D01*
X62663376Y35851808D01*
X62818730Y35774261D01*
X62964695Y35701441D01*
X63100079Y35633941D01*
X63223687Y35572358D01*
X63334327Y35517283D01*
X63430805Y35469313D01*
X63511929Y35429041D01*
X63576506Y35397061D01*
X63623341Y35373968D01*
X63651242Y35360355D01*
X63659174Y35356682D01*
X63660343Y35368119D01*
X63661423Y35400918D01*
X63662394Y35452814D01*
X63663232Y35521542D01*
X63663915Y35604836D01*
X63664422Y35700432D01*
X63664730Y35806065D01*
X63664817Y35919467D01*
X63664812Y35932612D01*
X63664525Y36508543D01*
X63661434Y36510099D01*
X63676914Y36510099D01*
X63676914Y35932547D01*
X63676966Y35800517D01*
X63677163Y35690269D01*
X63677568Y35599958D01*
X63678240Y35527737D01*
X63679242Y35471761D01*
X63680634Y35430184D01*
X63682478Y35401160D01*
X63684835Y35382843D01*
X63687767Y35373388D01*
X63691335Y35370950D01*
X63695478Y35373559D01*
X63716326Y35389193D01*
X63727967Y35393523D01*
X63748245Y35393815D01*
X63750751Y35393523D01*
X63759488Y35400800D01*
X63759611Y35402505D01*
X63769354Y35413009D01*
X63792356Y35426078D01*
X63819276Y35437383D01*
X63840771Y35442597D01*
X63845262Y35442189D01*
X63853969Y35447882D01*
X63854123Y35449761D01*
X63863866Y35460265D01*
X63886868Y35473334D01*
X63913787Y35484639D01*
X63935283Y35489853D01*
X63939774Y35489445D01*
X63948411Y35495270D01*
X63948634Y35497654D01*
X63958394Y35508799D01*
X63980258Y35519493D01*
X64003107Y35524936D01*
X64010658Y35524418D01*
X64019375Y35530635D01*
X64019518Y35532458D01*
X64029261Y35542963D01*
X64052263Y35556032D01*
X64079183Y35567337D01*
X64100678Y35572551D01*
X64105169Y35572142D01*
X64113876Y35577836D01*
X64114030Y35579714D01*
X64123773Y35590218D01*
X64146775Y35603287D01*
X64173694Y35614593D01*
X64195190Y35619807D01*
X64199681Y35619398D01*
X64208387Y35625092D01*
X64208541Y35626970D01*
X64218285Y35637474D01*
X64241287Y35650543D01*
X64268206Y35661849D01*
X64289701Y35667062D01*
X64294193Y35666654D01*
X64302899Y35672347D01*
X64303053Y35674226D01*
X64312796Y35684730D01*
X64335798Y35697799D01*
X64362718Y35709104D01*
X64384213Y35714318D01*
X64388704Y35713910D01*
X64397342Y35719735D01*
X64397565Y35722119D01*
X64407324Y35733264D01*
X64429188Y35743958D01*
X64452037Y35749401D01*
X64459588Y35748883D01*
X64468058Y35755492D01*
X64468448Y35759054D01*
X64475686Y35766110D01*
X64480262Y35764264D01*
X64491169Y35764747D01*
X64492076Y35768677D01*
X64501847Y35780291D01*
X64523766Y35791270D01*
X64546743Y35796706D01*
X64554100Y35796139D01*
X64562816Y35802356D01*
X64562960Y35804179D01*
X64572703Y35814684D01*
X64595705Y35827753D01*
X64622625Y35839058D01*
X64644120Y35844272D01*
X64648611Y35843863D01*
X64657318Y35849557D01*
X64657472Y35851435D01*
X64667215Y35861939D01*
X64690217Y35875008D01*
X64717136Y35886314D01*
X64738632Y35891527D01*
X64743123Y35891119D01*
X64751760Y35896944D01*
X64751983Y35899328D01*
X64761742Y35910474D01*
X64783606Y35921167D01*
X64806456Y35926610D01*
X64814007Y35926093D01*
X64822477Y35932701D01*
X64822867Y35936263D01*
X64830105Y35943319D01*
X64834681Y35941473D01*
X64845587Y35941956D01*
X64846495Y35945887D01*
X64856266Y35957500D01*
X64878184Y35968480D01*
X64901162Y35973915D01*
X64908518Y35973348D01*
X64917235Y35979566D01*
X64917379Y35981389D01*
X64927122Y35991893D01*
X64950124Y36004962D01*
X64977043Y36016267D01*
X64998539Y36021481D01*
X65003030Y36021073D01*
X65011736Y36026766D01*
X65011890Y36028644D01*
X65021633Y36039149D01*
X65044635Y36052218D01*
X65071555Y36063523D01*
X65093050Y36068737D01*
X65097541Y36068328D01*
X65106248Y36074022D01*
X65106402Y36075900D01*
X65116145Y36086405D01*
X65139147Y36099473D01*
X65166066Y36110779D01*
X65187562Y36115993D01*
X65192053Y36115584D01*
X65200690Y36121409D01*
X65200914Y36123793D01*
X65210673Y36134939D01*
X65232537Y36145632D01*
X65255386Y36151076D01*
X65262937Y36150558D01*
X65271654Y36156775D01*
X65271797Y36158598D01*
X65281153Y36168805D01*
X65302712Y36181334D01*
X65326714Y36191524D01*
X65343397Y36194714D01*
X65345405Y36193743D01*
X65355509Y36197972D01*
X65375186Y36213858D01*
X65377674Y36216147D01*
X65414424Y36240621D01*
X65451901Y36244137D01*
X65451960Y36244128D01*
X65460697Y36251405D01*
X65460821Y36253109D01*
X65470564Y36263614D01*
X65493566Y36276683D01*
X65520485Y36287988D01*
X65541980Y36293202D01*
X65546472Y36292794D01*
X65555109Y36298619D01*
X65555332Y36301002D01*
X65565091Y36312148D01*
X65586955Y36322842D01*
X65609805Y36328285D01*
X65617355Y36327767D01*
X65626072Y36333984D01*
X65626216Y36335807D01*
X65635959Y36346311D01*
X65658961Y36359380D01*
X65685880Y36370686D01*
X65707376Y36375900D01*
X65711867Y36375491D01*
X65720573Y36381185D01*
X65720728Y36383063D01*
X65730354Y36393461D01*
X65752727Y36406333D01*
X65778085Y36416959D01*
X65796669Y36420618D01*
X65797906Y36420385D01*
X65810518Y36426488D01*
X65824994Y36439836D01*
X65859767Y36464319D01*
X65894983Y36470666D01*
X65908740Y36476867D01*
X65909751Y36480181D01*
X65919480Y36490023D01*
X65941201Y36499899D01*
X65963712Y36505330D01*
X65971774Y36504976D01*
X65980491Y36511194D01*
X65980634Y36513016D01*
X65990378Y36523521D01*
X66013380Y36536590D01*
X66040299Y36547895D01*
X66061794Y36553109D01*
X66066286Y36552701D01*
X66074992Y36558394D01*
X66075146Y36560272D01*
X66084889Y36570777D01*
X66107891Y36583846D01*
X66134811Y36595151D01*
X66156306Y36600365D01*
X66160797Y36599956D01*
X66169504Y36605650D01*
X66169658Y36607528D01*
X66179401Y36618032D01*
X66202403Y36631101D01*
X66229322Y36642407D01*
X66250818Y36647621D01*
X66255309Y36647212D01*
X66263946Y36653037D01*
X66264169Y36655421D01*
X66273928Y36666567D01*
X66295792Y36677260D01*
X66318642Y36682703D01*
X66326193Y36682186D01*
X66334909Y36688403D01*
X66335053Y36690226D01*
X66344796Y36700730D01*
X66367798Y36713799D01*
X66394718Y36725104D01*
X66416213Y36730318D01*
X66420704Y36729910D01*
X66429411Y36735603D01*
X66429565Y36737482D01*
X66439308Y36747986D01*
X66462310Y36761055D01*
X66489229Y36772360D01*
X66510725Y36777574D01*
X66515216Y36777166D01*
X66523922Y36782859D01*
X66524076Y36784737D01*
X66533650Y36794643D01*
X66556168Y36807883D01*
X66582324Y36819838D01*
X66602815Y36825887D01*
X66606774Y36825794D01*
X66618721Y36831929D01*
X66632209Y36843660D01*
X66635297Y36848465D01*
X66634283Y36854350D01*
X66627587Y36862197D01*
X66613628Y36872890D01*
X66590827Y36887310D01*
X66557603Y36906341D01*
X66512377Y36930866D01*
X66453568Y36961767D01*
X66379597Y36999927D01*
X66288884Y37046229D01*
X66179848Y37101556D01*
X66082133Y37151003D01*
X65512531Y37439044D01*
X65404235Y37382784D01*
X65360044Y37358622D01*
X65325818Y37337588D01*
X65305658Y37322352D01*
X65302203Y37316389D01*
X65299392Y37310854D01*
X65291581Y37312735D01*
X65272830Y37311847D01*
X65247981Y37302008D01*
X65224555Y37287640D01*
X65210078Y37273165D01*
X65209816Y37264668D01*
X65210350Y37260270D01*
X65204752Y37262892D01*
X65185992Y37264742D01*
X65162599Y37257623D01*
X65143445Y37245708D01*
X65137396Y37233169D01*
X65138133Y37231548D01*
X65137750Y37225345D01*
X65131986Y37227985D01*
X65114134Y37229200D01*
X65088501Y37221459D01*
X65063048Y37208644D01*
X65045734Y37194643D01*
X65043355Y37184723D01*
X65043347Y37177984D01*
X65038155Y37180309D01*
X65020757Y37181203D01*
X64995277Y37173275D01*
X64969704Y37160433D01*
X64952025Y37146583D01*
X64949245Y37136817D01*
X64948696Y37130750D01*
X64943559Y37133105D01*
X64927527Y37132530D01*
X64899156Y37123187D01*
X64864595Y37108132D01*
X64829997Y37090419D01*
X64801514Y37073105D01*
X64785296Y37059245D01*
X64784010Y37053859D01*
X64783249Y37048086D01*
X64777944Y37050543D01*
X64764905Y37047273D01*
X64733676Y37034476D01*
X64686789Y37013418D01*
X64626774Y36985369D01*
X64556163Y36951594D01*
X64477486Y36913362D01*
X64393275Y36871941D01*
X64306059Y36828597D01*
X64218371Y36784598D01*
X64132742Y36741212D01*
X64051701Y36699707D01*
X63977780Y36661349D01*
X63913511Y36627407D01*
X63861424Y36599147D01*
X63824050Y36577838D01*
X63803919Y36564747D01*
X63801170Y36561366D01*
X63798813Y36555090D01*
X63790297Y36556992D01*
X63769933Y36555666D01*
X63739184Y36544385D01*
X63724707Y36536960D01*
X63676914Y36510099D01*
X63661434Y36510099D01*
X61810481Y37441845D01*
X61810309Y39288737D01*
X61228472Y39583511D01*
X60646634Y39878285D01*
X60644010Y40532384D01*
X60943343Y40532384D01*
X60943423Y40466590D01*
X60949860Y40404111D01*
X60962641Y40353633D01*
X60962756Y40353333D01*
X61000099Y40288046D01*
X61055735Y40232963D01*
X61125635Y40190534D01*
X61205774Y40163206D01*
X61291559Y40153428D01*
X61343418Y40156525D01*
X61404583Y40164915D01*
X61461824Y40176782D01*
X61461904Y40176803D01*
X61505453Y40188338D01*
X61539236Y40198034D01*
X61557478Y40204208D01*
X61559017Y40205081D01*
X61560126Y40217918D01*
X61559952Y40249900D01*
X61558595Y40296585D01*
X61556153Y40353530D01*
X61555303Y40370449D01*
X61547368Y40523441D01*
X61979551Y40523441D01*
X61981617Y40429379D01*
X62003131Y40346660D01*
X62042101Y40276699D01*
X62096534Y40220909D01*
X62164440Y40180703D01*
X62243824Y40157495D01*
X62332697Y40152699D01*
X62429065Y40167729D01*
X62456122Y40175630D01*
X62603813Y40175630D01*
X62612671Y40170530D01*
X62639689Y40166758D01*
X62679409Y40165008D01*
X62687593Y40164961D01*
X62775312Y40164961D01*
X62796889Y40236225D01*
X62818466Y40307488D01*
X63065652Y40300822D01*
X63085178Y40235845D01*
X63104705Y40170868D01*
X63195812Y40167419D01*
X63286920Y40163970D01*
X63257225Y40244210D01*
X63244159Y40279511D01*
X63224609Y40332330D01*
X63200290Y40398029D01*
X63172920Y40471969D01*
X63144216Y40549509D01*
X63135689Y40572543D01*
X63043849Y40820636D01*
X62943939Y40823933D01*
X62864849Y40826543D01*
X63381565Y40826543D01*
X63381565Y40164961D01*
X63535146Y40164961D01*
X63535146Y40383519D01*
X63535600Y40452392D01*
X63536862Y40512291D01*
X63538784Y40559553D01*
X63541216Y40590512D01*
X63544007Y40601506D01*
X63552520Y40591715D01*
X63571369Y40564638D01*
X63598642Y40523199D01*
X63632430Y40470319D01*
X63670823Y40408922D01*
X63686848Y40382948D01*
X63820829Y40164961D01*
X63984076Y40164961D01*
X63984076Y40524349D01*
X64423831Y40524349D01*
X64425168Y40432130D01*
X64443095Y40354477D01*
X64478689Y40288133D01*
X64516175Y40245234D01*
X64569791Y40201310D01*
X64626027Y40173384D01*
X64690933Y40159468D01*
X64770557Y40157576D01*
X64781518Y40158069D01*
X64835669Y40163258D01*
X64845625Y40164961D01*
X65118216Y40164961D01*
X65271287Y40164961D01*
X65274496Y40391488D01*
X65277704Y40618015D01*
X65417601Y40391488D01*
X65557497Y40164961D01*
X65720728Y40164961D01*
X65720728Y40531416D01*
X65856299Y40531416D01*
X65856494Y40452653D01*
X65870600Y40375957D01*
X65898544Y40305460D01*
X65940251Y40245293D01*
X65995646Y40199588D01*
X66006832Y40193337D01*
X66072254Y40169837D01*
X66150432Y40158497D01*
X66233756Y40159502D01*
X66314614Y40173036D01*
X66352774Y40184943D01*
X66411844Y40206963D01*
X66415372Y40287904D01*
X66418900Y40368846D01*
X66379930Y40342913D01*
X66321025Y40308382D01*
X66269298Y40289792D01*
X66217028Y40284744D01*
X66196098Y40285820D01*
X66130659Y40300422D01*
X66081365Y40332129D01*
X66048094Y40381093D01*
X66030727Y40447465D01*
X66027890Y40495752D01*
X66035738Y40572613D01*
X66059384Y40631959D01*
X66098983Y40673982D01*
X66154690Y40698875D01*
X66196559Y40705722D01*
X66242126Y40706448D01*
X66280841Y40697905D01*
X66320260Y40680378D01*
X66354549Y40661643D01*
X66379635Y40645424D01*
X66388077Y40637744D01*
X66401342Y40625112D01*
X66410961Y40634965D01*
X66416512Y40666384D01*
X66417751Y40702193D01*
X66417010Y40744040D01*
X66413196Y40768949D01*
X66403920Y40783601D01*
X66386793Y40794677D01*
X66384202Y40796029D01*
X66313872Y40821130D01*
X66232267Y40832313D01*
X66147039Y40829805D01*
X66065840Y40813834D01*
X65996322Y40784627D01*
X65996140Y40784520D01*
X65939938Y40738799D01*
X65897947Y40678620D01*
X65870092Y40608116D01*
X65856299Y40531416D01*
X65720728Y40531416D01*
X65720728Y40826543D01*
X65567731Y40826543D01*
X65564485Y40637722D01*
X65561239Y40448902D01*
X65324035Y40820636D01*
X65221125Y40824049D01*
X65118216Y40827463D01*
X65118216Y40164961D01*
X64845625Y40164961D01*
X64888913Y40172365D01*
X64930231Y40183480D01*
X64932146Y40184190D01*
X64988262Y40205500D01*
X64988262Y40285649D01*
X64986606Y40333128D01*
X64981071Y40358744D01*
X64970811Y40364066D01*
X64954980Y40350665D01*
X64953895Y40349372D01*
X64935835Y40335713D01*
X64904018Y40318191D01*
X64879164Y40306662D01*
X64812901Y40288249D01*
X64747394Y40288315D01*
X64688930Y40306523D01*
X64670212Y40317883D01*
X64634717Y40356600D01*
X64610869Y40410309D01*
X64599630Y40472930D01*
X64601961Y40538383D01*
X64618823Y40600586D01*
X64623780Y40611600D01*
X64659307Y40660611D01*
X64707824Y40692060D01*
X64765876Y40705351D01*
X64830006Y40699886D01*
X64896760Y40675071D01*
X64918782Y40662529D01*
X64951241Y40642848D01*
X64974805Y40629486D01*
X64983140Y40625706D01*
X64985754Y40636482D01*
X64987599Y40664669D01*
X64988262Y40702193D01*
X64987522Y40744040D01*
X64983707Y40768949D01*
X64974431Y40783601D01*
X64957304Y40794677D01*
X64954713Y40796029D01*
X64911492Y40811949D01*
X64853910Y40824702D01*
X64791164Y40832935D01*
X64732452Y40835296D01*
X64702006Y40833204D01*
X64615608Y40811333D01*
X64543806Y40771277D01*
X64487673Y40714230D01*
X64448284Y40641385D01*
X64426712Y40553933D01*
X64423831Y40524349D01*
X63984076Y40524349D01*
X63984076Y40826543D01*
X63830495Y40826543D01*
X63830495Y40642729D01*
X63829924Y40580409D01*
X63828348Y40527890D01*
X63825971Y40489014D01*
X63822997Y40467622D01*
X63821014Y40464775D01*
X63811945Y40476244D01*
X63792623Y40504459D01*
X63765245Y40546085D01*
X63732009Y40597788D01*
X63699921Y40648557D01*
X63588309Y40826480D01*
X63484937Y40826511D01*
X63381565Y40826543D01*
X62864849Y40826543D01*
X62844030Y40827230D01*
X62725890Y40506764D01*
X62695527Y40424401D01*
X62667782Y40349141D01*
X62643719Y40283869D01*
X62624400Y40231468D01*
X62610890Y40194822D01*
X62604250Y40176816D01*
X62603813Y40175630D01*
X62456122Y40175630D01*
X62465735Y40178437D01*
X62542774Y40203727D01*
X62542774Y40284763D01*
X62542091Y40325069D01*
X62540296Y40354086D01*
X62537772Y40365777D01*
X62537652Y40365799D01*
X62525681Y40360059D01*
X62499887Y40345179D01*
X62473294Y40328975D01*
X62403762Y40296541D01*
X62337493Y40285583D01*
X62277285Y40294648D01*
X62225933Y40322279D01*
X62186233Y40367021D01*
X62160981Y40427419D01*
X62152914Y40495752D01*
X62161493Y40562826D01*
X62185300Y40622952D01*
X62221442Y40669500D01*
X62232829Y40678801D01*
X62263208Y40694202D01*
X62304319Y40701363D01*
X62337073Y40702428D01*
X62384215Y40700121D01*
X62421104Y40690659D01*
X62460479Y40670389D01*
X62470765Y40664101D01*
X62503940Y40643955D01*
X62528301Y40630051D01*
X62537652Y40625706D01*
X62540181Y40636520D01*
X62542012Y40664971D01*
X62542771Y40705069D01*
X62542774Y40708073D01*
X62542774Y40790441D01*
X62474844Y40810882D01*
X62413273Y40823956D01*
X62343605Y40830170D01*
X62273816Y40829538D01*
X62211880Y40822074D01*
X62171270Y40810329D01*
X62097490Y40767710D01*
X62041704Y40710408D01*
X62003457Y40637742D01*
X61982295Y40549033D01*
X61979551Y40523441D01*
X61547368Y40523441D01*
X61546965Y40531194D01*
X61255053Y40531194D01*
X61255053Y40401240D01*
X61385007Y40401240D01*
X61385007Y40268534D01*
X61308343Y40273416D01*
X61246542Y40282353D01*
X61199570Y40302645D01*
X61159824Y40338217D01*
X61143550Y40358534D01*
X61130897Y40379838D01*
X61123429Y40406173D01*
X61119937Y40444055D01*
X61119193Y40489845D01*
X61120268Y40542550D01*
X61124299Y40578208D01*
X61132494Y40603332D01*
X61143550Y40621156D01*
X61181556Y40663594D01*
X61223035Y40689571D01*
X61275514Y40702896D01*
X61311547Y40706198D01*
X61354826Y40707485D01*
X61387637Y40704049D01*
X61419528Y40693602D01*
X61460046Y40673860D01*
X61471202Y40667969D01*
X61551491Y40625308D01*
X61544495Y40783722D01*
X61479518Y40806794D01*
X61412143Y40823512D01*
X61334798Y40831331D01*
X61255629Y40830321D01*
X61182783Y40820552D01*
X61128152Y40803799D01*
X61064883Y40765331D01*
X61008871Y40711748D01*
X60967612Y40650487D01*
X60962308Y40639168D01*
X60949633Y40592805D01*
X60943343Y40532384D01*
X60644010Y40532384D01*
X60643594Y40635949D01*
X60640555Y41393612D01*
X66689472Y41393612D01*
X66689472Y39875408D01*
G37*
X66689472Y39875408D02*
X65519746Y39290688D01*
X65522772Y38368487D01*
X65525797Y37446286D01*
X65897937Y37257220D01*
X65996343Y37207234D01*
X66098435Y37155396D01*
X66199678Y37104005D01*
X66295540Y37055362D01*
X66381488Y37011766D01*
X66452991Y36975518D01*
X66479774Y36961949D01*
X66689472Y36855745D01*
X66689472Y35344868D01*
X60640728Y35344868D01*
X60640728Y36100961D01*
X60640818Y36232222D01*
X60641077Y36356255D01*
X60641491Y36471082D01*
X60642044Y36574729D01*
X60642719Y36665216D01*
X60643503Y36740567D01*
X60644378Y36798805D01*
X60645331Y36837953D01*
X60646344Y36856034D01*
X60646653Y36857054D01*
X60657725Y36851866D01*
X60688734Y36836698D01*
X60738486Y36812144D01*
X60805789Y36778798D01*
X60889448Y36737255D01*
X60988271Y36688109D01*
X61101064Y36631954D01*
X61226635Y36569384D01*
X61363791Y36500995D01*
X61511337Y36427379D01*
X61668082Y36349131D01*
X61832831Y36266845D01*
X62004392Y36181116D01*
X62152914Y36106868D01*
X62329275Y36018706D01*
X62499827Y35933488D01*
X62663376Y35851808D01*
X62818730Y35774261D01*
X62964695Y35701441D01*
X63100079Y35633941D01*
X63223687Y35572358D01*
X63334327Y35517283D01*
X63430805Y35469313D01*
X63511929Y35429041D01*
X63576506Y35397061D01*
X63623341Y35373968D01*
X63651242Y35360355D01*
X63659174Y35356682D01*
X63660343Y35368119D01*
X63661423Y35400918D01*
X63662394Y35452814D01*
X63663232Y35521542D01*
X63663915Y35604836D01*
X63664422Y35700432D01*
X63664730Y35806065D01*
X63664817Y35919467D01*
X63664812Y35932612D01*
X63664525Y36508543D01*
X63661434Y36510099D01*
X63676914Y36510099D01*
X63676914Y35932547D01*
X63676966Y35800517D01*
X63677163Y35690269D01*
X63677568Y35599958D01*
X63678240Y35527737D01*
X63679242Y35471761D01*
X63680634Y35430184D01*
X63682478Y35401160D01*
X63684835Y35382843D01*
X63687767Y35373388D01*
X63691335Y35370950D01*
X63695478Y35373559D01*
X63716326Y35389193D01*
X63727967Y35393523D01*
X63748245Y35393815D01*
X63750751Y35393523D01*
X63759488Y35400800D01*
X63759611Y35402505D01*
X63769354Y35413009D01*
X63792356Y35426078D01*
X63819276Y35437383D01*
X63840771Y35442597D01*
X63845262Y35442189D01*
X63853969Y35447882D01*
X63854123Y35449761D01*
X63863866Y35460265D01*
X63886868Y35473334D01*
X63913787Y35484639D01*
X63935283Y35489853D01*
X63939774Y35489445D01*
X63948411Y35495270D01*
X63948634Y35497654D01*
X63958394Y35508799D01*
X63980258Y35519493D01*
X64003107Y35524936D01*
X64010658Y35524418D01*
X64019375Y35530635D01*
X64019518Y35532458D01*
X64029261Y35542963D01*
X64052263Y35556032D01*
X64079183Y35567337D01*
X64100678Y35572551D01*
X64105169Y35572142D01*
X64113876Y35577836D01*
X64114030Y35579714D01*
X64123773Y35590218D01*
X64146775Y35603287D01*
X64173694Y35614593D01*
X64195190Y35619807D01*
X64199681Y35619398D01*
X64208387Y35625092D01*
X64208541Y35626970D01*
X64218285Y35637474D01*
X64241287Y35650543D01*
X64268206Y35661849D01*
X64289701Y35667062D01*
X64294193Y35666654D01*
X64302899Y35672347D01*
X64303053Y35674226D01*
X64312796Y35684730D01*
X64335798Y35697799D01*
X64362718Y35709104D01*
X64384213Y35714318D01*
X64388704Y35713910D01*
X64397342Y35719735D01*
X64397565Y35722119D01*
X64407324Y35733264D01*
X64429188Y35743958D01*
X64452037Y35749401D01*
X64459588Y35748883D01*
X64468058Y35755492D01*
X64468448Y35759054D01*
X64475686Y35766110D01*
X64480262Y35764264D01*
X64491169Y35764747D01*
X64492076Y35768677D01*
X64501847Y35780291D01*
X64523766Y35791270D01*
X64546743Y35796706D01*
X64554100Y35796139D01*
X64562816Y35802356D01*
X64562960Y35804179D01*
X64572703Y35814684D01*
X64595705Y35827753D01*
X64622625Y35839058D01*
X64644120Y35844272D01*
X64648611Y35843863D01*
X64657318Y35849557D01*
X64657472Y35851435D01*
X64667215Y35861939D01*
X64690217Y35875008D01*
X64717136Y35886314D01*
X64738632Y35891527D01*
X64743123Y35891119D01*
X64751760Y35896944D01*
X64751983Y35899328D01*
X64761742Y35910474D01*
X64783606Y35921167D01*
X64806456Y35926610D01*
X64814007Y35926093D01*
X64822477Y35932701D01*
X64822867Y35936263D01*
X64830105Y35943319D01*
X64834681Y35941473D01*
X64845587Y35941956D01*
X64846495Y35945887D01*
X64856266Y35957500D01*
X64878184Y35968480D01*
X64901162Y35973915D01*
X64908518Y35973348D01*
X64917235Y35979566D01*
X64917379Y35981389D01*
X64927122Y35991893D01*
X64950124Y36004962D01*
X64977043Y36016267D01*
X64998539Y36021481D01*
X65003030Y36021073D01*
X65011736Y36026766D01*
X65011890Y36028644D01*
X65021633Y36039149D01*
X65044635Y36052218D01*
X65071555Y36063523D01*
X65093050Y36068737D01*
X65097541Y36068328D01*
X65106248Y36074022D01*
X65106402Y36075900D01*
X65116145Y36086405D01*
X65139147Y36099473D01*
X65166066Y36110779D01*
X65187562Y36115993D01*
X65192053Y36115584D01*
X65200690Y36121409D01*
X65200914Y36123793D01*
X65210673Y36134939D01*
X65232537Y36145632D01*
X65255386Y36151076D01*
X65262937Y36150558D01*
X65271654Y36156775D01*
X65271797Y36158598D01*
X65281153Y36168805D01*
X65302712Y36181334D01*
X65326714Y36191524D01*
X65343397Y36194714D01*
X65345405Y36193743D01*
X65355509Y36197972D01*
X65375186Y36213858D01*
X65377674Y36216147D01*
X65414424Y36240621D01*
X65451901Y36244137D01*
X65451960Y36244128D01*
X65460697Y36251405D01*
X65460821Y36253109D01*
X65470564Y36263614D01*
X65493566Y36276683D01*
X65520485Y36287988D01*
X65541980Y36293202D01*
X65546472Y36292794D01*
X65555109Y36298619D01*
X65555332Y36301002D01*
X65565091Y36312148D01*
X65586955Y36322842D01*
X65609805Y36328285D01*
X65617355Y36327767D01*
X65626072Y36333984D01*
X65626216Y36335807D01*
X65635959Y36346311D01*
X65658961Y36359380D01*
X65685880Y36370686D01*
X65707376Y36375900D01*
X65711867Y36375491D01*
X65720573Y36381185D01*
X65720728Y36383063D01*
X65730354Y36393461D01*
X65752727Y36406333D01*
X65778085Y36416959D01*
X65796669Y36420618D01*
X65797906Y36420385D01*
X65810518Y36426488D01*
X65824994Y36439836D01*
X65859767Y36464319D01*
X65894983Y36470666D01*
X65908740Y36476867D01*
X65909751Y36480181D01*
X65919480Y36490023D01*
X65941201Y36499899D01*
X65963712Y36505330D01*
X65971774Y36504976D01*
X65980491Y36511194D01*
X65980634Y36513016D01*
X65990378Y36523521D01*
X66013380Y36536590D01*
X66040299Y36547895D01*
X66061794Y36553109D01*
X66066286Y36552701D01*
X66074992Y36558394D01*
X66075146Y36560272D01*
X66084889Y36570777D01*
X66107891Y36583846D01*
X66134811Y36595151D01*
X66156306Y36600365D01*
X66160797Y36599956D01*
X66169504Y36605650D01*
X66169658Y36607528D01*
X66179401Y36618032D01*
X66202403Y36631101D01*
X66229322Y36642407D01*
X66250818Y36647621D01*
X66255309Y36647212D01*
X66263946Y36653037D01*
X66264169Y36655421D01*
X66273928Y36666567D01*
X66295792Y36677260D01*
X66318642Y36682703D01*
X66326193Y36682186D01*
X66334909Y36688403D01*
X66335053Y36690226D01*
X66344796Y36700730D01*
X66367798Y36713799D01*
X66394718Y36725104D01*
X66416213Y36730318D01*
X66420704Y36729910D01*
X66429411Y36735603D01*
X66429565Y36737482D01*
X66439308Y36747986D01*
X66462310Y36761055D01*
X66489229Y36772360D01*
X66510725Y36777574D01*
X66515216Y36777166D01*
X66523922Y36782859D01*
X66524076Y36784737D01*
X66533650Y36794643D01*
X66556168Y36807883D01*
X66582324Y36819838D01*
X66602815Y36825887D01*
X66606774Y36825794D01*
X66618721Y36831929D01*
X66632209Y36843660D01*
X66635297Y36848465D01*
X66634283Y36854350D01*
X66627587Y36862197D01*
X66613628Y36872890D01*
X66590827Y36887310D01*
X66557603Y36906341D01*
X66512377Y36930866D01*
X66453568Y36961767D01*
X66379597Y36999927D01*
X66288884Y37046229D01*
X66179848Y37101556D01*
X66082133Y37151003D01*
X65512531Y37439044D01*
X65404235Y37382784D01*
X65360044Y37358622D01*
X65325818Y37337588D01*
X65305658Y37322352D01*
X65302203Y37316389D01*
X65299392Y37310854D01*
X65291581Y37312735D01*
X65272830Y37311847D01*
X65247981Y37302008D01*
X65224555Y37287640D01*
X65210078Y37273165D01*
X65209816Y37264668D01*
X65210350Y37260270D01*
X65204752Y37262892D01*
X65185992Y37264742D01*
X65162599Y37257623D01*
X65143445Y37245708D01*
X65137396Y37233169D01*
X65138133Y37231548D01*
X65137750Y37225345D01*
X65131986Y37227985D01*
X65114134Y37229200D01*
X65088501Y37221459D01*
X65063048Y37208644D01*
X65045734Y37194643D01*
X65043355Y37184723D01*
X65043347Y37177984D01*
X65038155Y37180309D01*
X65020757Y37181203D01*
X64995277Y37173275D01*
X64969704Y37160433D01*
X64952025Y37146583D01*
X64949245Y37136817D01*
X64948696Y37130750D01*
X64943559Y37133105D01*
X64927527Y37132530D01*
X64899156Y37123187D01*
X64864595Y37108132D01*
X64829997Y37090419D01*
X64801514Y37073105D01*
X64785296Y37059245D01*
X64784010Y37053859D01*
X64783249Y37048086D01*
X64777944Y37050543D01*
X64764905Y37047273D01*
X64733676Y37034476D01*
X64686789Y37013418D01*
X64626774Y36985369D01*
X64556163Y36951594D01*
X64477486Y36913362D01*
X64393275Y36871941D01*
X64306059Y36828597D01*
X64218371Y36784598D01*
X64132742Y36741212D01*
X64051701Y36699707D01*
X63977780Y36661349D01*
X63913511Y36627407D01*
X63861424Y36599147D01*
X63824050Y36577838D01*
X63803919Y36564747D01*
X63801170Y36561366D01*
X63798813Y36555090D01*
X63790297Y36556992D01*
X63769933Y36555666D01*
X63739184Y36544385D01*
X63724707Y36536960D01*
X63676914Y36510099D01*
X63661434Y36510099D01*
X61810481Y37441845D01*
X61810309Y39288737D01*
X61228472Y39583511D01*
X60646634Y39878285D01*
X60644010Y40532384D01*
X60943343Y40532384D01*
X60943423Y40466590D01*
X60949860Y40404111D01*
X60962641Y40353633D01*
X60962756Y40353333D01*
X61000099Y40288046D01*
X61055735Y40232963D01*
X61125635Y40190534D01*
X61205774Y40163206D01*
X61291559Y40153428D01*
X61343418Y40156525D01*
X61404583Y40164915D01*
X61461824Y40176782D01*
X61461904Y40176803D01*
X61505453Y40188338D01*
X61539236Y40198034D01*
X61557478Y40204208D01*
X61559017Y40205081D01*
X61560126Y40217918D01*
X61559952Y40249900D01*
X61558595Y40296585D01*
X61556153Y40353530D01*
X61555303Y40370449D01*
X61547368Y40523441D01*
X61979551Y40523441D01*
X61981617Y40429379D01*
X62003131Y40346660D01*
X62042101Y40276699D01*
X62096534Y40220909D01*
X62164440Y40180703D01*
X62243824Y40157495D01*
X62332697Y40152699D01*
X62429065Y40167729D01*
X62456122Y40175630D01*
X62603813Y40175630D01*
X62612671Y40170530D01*
X62639689Y40166758D01*
X62679409Y40165008D01*
X62687593Y40164961D01*
X62775312Y40164961D01*
X62796889Y40236225D01*
X62818466Y40307488D01*
X63065652Y40300822D01*
X63085178Y40235845D01*
X63104705Y40170868D01*
X63195812Y40167419D01*
X63286920Y40163970D01*
X63257225Y40244210D01*
X63244159Y40279511D01*
X63224609Y40332330D01*
X63200290Y40398029D01*
X63172920Y40471969D01*
X63144216Y40549509D01*
X63135689Y40572543D01*
X63043849Y40820636D01*
X62943939Y40823933D01*
X62864849Y40826543D01*
X63381565Y40826543D01*
X63381565Y40164961D01*
X63535146Y40164961D01*
X63535146Y40383519D01*
X63535600Y40452392D01*
X63536862Y40512291D01*
X63538784Y40559553D01*
X63541216Y40590512D01*
X63544007Y40601506D01*
X63552520Y40591715D01*
X63571369Y40564638D01*
X63598642Y40523199D01*
X63632430Y40470319D01*
X63670823Y40408922D01*
X63686848Y40382948D01*
X63820829Y40164961D01*
X63984076Y40164961D01*
X63984076Y40524349D01*
X64423831Y40524349D01*
X64425168Y40432130D01*
X64443095Y40354477D01*
X64478689Y40288133D01*
X64516175Y40245234D01*
X64569791Y40201310D01*
X64626027Y40173384D01*
X64690933Y40159468D01*
X64770557Y40157576D01*
X64781518Y40158069D01*
X64835669Y40163258D01*
X64845625Y40164961D01*
X65118216Y40164961D01*
X65271287Y40164961D01*
X65274496Y40391488D01*
X65277704Y40618015D01*
X65417601Y40391488D01*
X65557497Y40164961D01*
X65720728Y40164961D01*
X65720728Y40531416D01*
X65856299Y40531416D01*
X65856494Y40452653D01*
X65870600Y40375957D01*
X65898544Y40305460D01*
X65940251Y40245293D01*
X65995646Y40199588D01*
X66006832Y40193337D01*
X66072254Y40169837D01*
X66150432Y40158497D01*
X66233756Y40159502D01*
X66314614Y40173036D01*
X66352774Y40184943D01*
X66411844Y40206963D01*
X66415372Y40287904D01*
X66418900Y40368846D01*
X66379930Y40342913D01*
X66321025Y40308382D01*
X66269298Y40289792D01*
X66217028Y40284744D01*
X66196098Y40285820D01*
X66130659Y40300422D01*
X66081365Y40332129D01*
X66048094Y40381093D01*
X66030727Y40447465D01*
X66027890Y40495752D01*
X66035738Y40572613D01*
X66059384Y40631959D01*
X66098983Y40673982D01*
X66154690Y40698875D01*
X66196559Y40705722D01*
X66242126Y40706448D01*
X66280841Y40697905D01*
X66320260Y40680378D01*
X66354549Y40661643D01*
X66379635Y40645424D01*
X66388077Y40637744D01*
X66401342Y40625112D01*
X66410961Y40634965D01*
X66416512Y40666384D01*
X66417751Y40702193D01*
X66417010Y40744040D01*
X66413196Y40768949D01*
X66403920Y40783601D01*
X66386793Y40794677D01*
X66384202Y40796029D01*
X66313872Y40821130D01*
X66232267Y40832313D01*
X66147039Y40829805D01*
X66065840Y40813834D01*
X65996322Y40784627D01*
X65996140Y40784520D01*
X65939938Y40738799D01*
X65897947Y40678620D01*
X65870092Y40608116D01*
X65856299Y40531416D01*
X65720728Y40531416D01*
X65720728Y40826543D01*
X65567731Y40826543D01*
X65564485Y40637722D01*
X65561239Y40448902D01*
X65324035Y40820636D01*
X65221125Y40824049D01*
X65118216Y40827463D01*
X65118216Y40164961D01*
X64845625Y40164961D01*
X64888913Y40172365D01*
X64930231Y40183480D01*
X64932146Y40184190D01*
X64988262Y40205500D01*
X64988262Y40285649D01*
X64986606Y40333128D01*
X64981071Y40358744D01*
X64970811Y40364066D01*
X64954980Y40350665D01*
X64953895Y40349372D01*
X64935835Y40335713D01*
X64904018Y40318191D01*
X64879164Y40306662D01*
X64812901Y40288249D01*
X64747394Y40288315D01*
X64688930Y40306523D01*
X64670212Y40317883D01*
X64634717Y40356600D01*
X64610869Y40410309D01*
X64599630Y40472930D01*
X64601961Y40538383D01*
X64618823Y40600586D01*
X64623780Y40611600D01*
X64659307Y40660611D01*
X64707824Y40692060D01*
X64765876Y40705351D01*
X64830006Y40699886D01*
X64896760Y40675071D01*
X64918782Y40662529D01*
X64951241Y40642848D01*
X64974805Y40629486D01*
X64983140Y40625706D01*
X64985754Y40636482D01*
X64987599Y40664669D01*
X64988262Y40702193D01*
X64987522Y40744040D01*
X64983707Y40768949D01*
X64974431Y40783601D01*
X64957304Y40794677D01*
X64954713Y40796029D01*
X64911492Y40811949D01*
X64853910Y40824702D01*
X64791164Y40832935D01*
X64732452Y40835296D01*
X64702006Y40833204D01*
X64615608Y40811333D01*
X64543806Y40771277D01*
X64487673Y40714230D01*
X64448284Y40641385D01*
X64426712Y40553933D01*
X64423831Y40524349D01*
X63984076Y40524349D01*
X63984076Y40826543D01*
X63830495Y40826543D01*
X63830495Y40642729D01*
X63829924Y40580409D01*
X63828348Y40527890D01*
X63825971Y40489014D01*
X63822997Y40467622D01*
X63821014Y40464775D01*
X63811945Y40476244D01*
X63792623Y40504459D01*
X63765245Y40546085D01*
X63732009Y40597788D01*
X63699921Y40648557D01*
X63588309Y40826480D01*
X63484937Y40826511D01*
X63381565Y40826543D01*
X62864849Y40826543D01*
X62844030Y40827230D01*
X62725890Y40506764D01*
X62695527Y40424401D01*
X62667782Y40349141D01*
X62643719Y40283869D01*
X62624400Y40231468D01*
X62610890Y40194822D01*
X62604250Y40176816D01*
X62603813Y40175630D01*
X62456122Y40175630D01*
X62465735Y40178437D01*
X62542774Y40203727D01*
X62542774Y40284763D01*
X62542091Y40325069D01*
X62540296Y40354086D01*
X62537772Y40365777D01*
X62537652Y40365799D01*
X62525681Y40360059D01*
X62499887Y40345179D01*
X62473294Y40328975D01*
X62403762Y40296541D01*
X62337493Y40285583D01*
X62277285Y40294648D01*
X62225933Y40322279D01*
X62186233Y40367021D01*
X62160981Y40427419D01*
X62152914Y40495752D01*
X62161493Y40562826D01*
X62185300Y40622952D01*
X62221442Y40669500D01*
X62232829Y40678801D01*
X62263208Y40694202D01*
X62304319Y40701363D01*
X62337073Y40702428D01*
X62384215Y40700121D01*
X62421104Y40690659D01*
X62460479Y40670389D01*
X62470765Y40664101D01*
X62503940Y40643955D01*
X62528301Y40630051D01*
X62537652Y40625706D01*
X62540181Y40636520D01*
X62542012Y40664971D01*
X62542771Y40705069D01*
X62542774Y40708073D01*
X62542774Y40790441D01*
X62474844Y40810882D01*
X62413273Y40823956D01*
X62343605Y40830170D01*
X62273816Y40829538D01*
X62211880Y40822074D01*
X62171270Y40810329D01*
X62097490Y40767710D01*
X62041704Y40710408D01*
X62003457Y40637742D01*
X61982295Y40549033D01*
X61979551Y40523441D01*
X61547368Y40523441D01*
X61546965Y40531194D01*
X61255053Y40531194D01*
X61255053Y40401240D01*
X61385007Y40401240D01*
X61385007Y40268534D01*
X61308343Y40273416D01*
X61246542Y40282353D01*
X61199570Y40302645D01*
X61159824Y40338217D01*
X61143550Y40358534D01*
X61130897Y40379838D01*
X61123429Y40406173D01*
X61119937Y40444055D01*
X61119193Y40489845D01*
X61120268Y40542550D01*
X61124299Y40578208D01*
X61132494Y40603332D01*
X61143550Y40621156D01*
X61181556Y40663594D01*
X61223035Y40689571D01*
X61275514Y40702896D01*
X61311547Y40706198D01*
X61354826Y40707485D01*
X61387637Y40704049D01*
X61419528Y40693602D01*
X61460046Y40673860D01*
X61471202Y40667969D01*
X61551491Y40625308D01*
X61544495Y40783722D01*
X61479518Y40806794D01*
X61412143Y40823512D01*
X61334798Y40831331D01*
X61255629Y40830321D01*
X61182783Y40820552D01*
X61128152Y40803799D01*
X61064883Y40765331D01*
X61008871Y40711748D01*
X60967612Y40650487D01*
X60962308Y40639168D01*
X60949633Y40592805D01*
X60943343Y40532384D01*
X60644010Y40532384D01*
X60643594Y40635949D01*
X60640555Y41393612D01*
X66689472Y41393612D01*
X66689472Y39875408D01*
D13*
X48187460Y15500000D02*
G75*
G03X48187460Y15500000I-3270000J0D01*
G01*
X72335240Y15538100D02*
G75*
G03X72335240Y15538100I-3270000J0D01*
G01*
X51651000Y60598000D02*
X51651000Y63208000D01*
X53021000Y59228000D02*
G75*
G03X53021000Y59228000I-1370000J0D01*
G01*
X27902000Y60344000D02*
X27902000Y62954000D01*
X29272000Y58974000D02*
G75*
G03X29272000Y58974000I-1370000J0D01*
G01*
X36792000Y60090000D02*
X36792000Y62700000D01*
X38162000Y58720000D02*
G75*
G03X38162000Y58720000I-1370000J0D01*
G01*
X24092000Y60598000D02*
X24092000Y63208000D01*
X25462000Y59228000D02*
G75*
G03X25462000Y59228000I-1370000J0D01*
G01*
X18310000Y6075000D02*
X18310000Y4745000D01*
X16980000Y6075000D02*
X18310000Y6075000D01*
X15710000Y6075000D02*
X15710000Y3415000D01*
X15710000Y3415000D02*
X8030000Y3415000D01*
X15710000Y6075000D02*
X8030000Y6075000D01*
X8030000Y6075000D02*
X8030000Y3415000D01*
X41170000Y6075000D02*
X41170000Y4745000D01*
X39840000Y6075000D02*
X41170000Y6075000D01*
X38570000Y6075000D02*
X38570000Y3415000D01*
X38570000Y3415000D02*
X30890000Y3415000D01*
X38570000Y6075000D02*
X30890000Y6075000D01*
X30890000Y6075000D02*
X30890000Y3415000D01*
X16920000Y66788000D02*
X16920000Y68118000D01*
X18250000Y66788000D02*
X16920000Y66788000D01*
X19520000Y66788000D02*
X19520000Y69448000D01*
X19520000Y69448000D02*
X22120000Y69448000D01*
X19520000Y66788000D02*
X22120000Y66788000D01*
X22120000Y66788000D02*
X22120000Y69448000D01*
X14881000Y69448000D02*
X14881000Y68118000D01*
X13551000Y69448000D02*
X14881000Y69448000D01*
X12281000Y69448000D02*
X12281000Y66788000D01*
X12281000Y66788000D02*
X9681000Y66788000D01*
X12281000Y69448000D02*
X9681000Y69448000D01*
X9681000Y69448000D02*
X9681000Y66788000D01*
X65300000Y6075000D02*
X65300000Y4745000D01*
X63970000Y6075000D02*
X65300000Y6075000D01*
X62700000Y6075000D02*
X62700000Y3415000D01*
X62700000Y3415000D02*
X55020000Y3415000D01*
X62700000Y6075000D02*
X55020000Y6075000D01*
X55020000Y6075000D02*
X55020000Y3415000D01*
X23390000Y9190000D02*
X23390000Y7860000D01*
X23390000Y7860000D02*
X22060000Y7860000D01*
X20790000Y7860000D02*
X2950000Y7860000D01*
X2950000Y10520000D02*
X2950000Y7860000D01*
X20790000Y10520000D02*
X2950000Y10520000D01*
X20790000Y10520000D02*
X20790000Y7860000D01*
X30126080Y69575000D02*
X30126080Y68245000D01*
X28796080Y69575000D02*
X30126080Y69575000D01*
X27526080Y69575000D02*
X27526080Y66915000D01*
X27526080Y66915000D02*
X24926080Y66915000D01*
X27526080Y69575000D02*
X24926080Y69575000D01*
X24926080Y69575000D02*
X24926080Y66915000D01*
X40148300Y66915000D02*
X40148300Y68245000D01*
X41478300Y66915000D02*
X40148300Y66915000D01*
X42748300Y66915000D02*
X42748300Y69575000D01*
X42748300Y69575000D02*
X45348300Y69575000D01*
X42748300Y66915000D02*
X45348300Y66915000D01*
X45348300Y66915000D02*
X45348300Y69575000D01*
X52998780Y69575000D02*
X52998780Y68245000D01*
X51668780Y69575000D02*
X52998780Y69575000D01*
X50398780Y69575000D02*
X50398780Y66915000D01*
X50398780Y66915000D02*
X47798780Y66915000D01*
X50398780Y69575000D02*
X47798780Y69575000D01*
X47798780Y69575000D02*
X47798780Y66915000D01*
X46250000Y9190000D02*
X46250000Y7860000D01*
X46250000Y7860000D02*
X44920000Y7860000D01*
X43650000Y7860000D02*
X25810000Y7860000D01*
X25810000Y10520000D02*
X25810000Y7860000D01*
X43650000Y10520000D02*
X25810000Y10520000D01*
X43650000Y10520000D02*
X43650000Y7860000D01*
X32513060Y66915000D02*
X32513060Y68245000D01*
X33843060Y66915000D02*
X32513060Y66915000D01*
X35113060Y66915000D02*
X35113060Y69575000D01*
X35113060Y69575000D02*
X37713060Y69575000D01*
X35113060Y66915000D02*
X37713060Y66915000D01*
X37713060Y66915000D02*
X37713060Y69575000D01*
X70380000Y9190000D02*
X70380000Y7860000D01*
X70380000Y7860000D02*
X69050000Y7860000D01*
X67780000Y7860000D02*
X49940000Y7860000D01*
X49940000Y10520000D02*
X49940000Y7860000D01*
X67780000Y10520000D02*
X49940000Y10520000D01*
X67780000Y10520000D02*
X67780000Y7860000D01*
X72412000Y29189000D02*
X72412000Y27859000D01*
X71082000Y29189000D02*
X72412000Y29189000D01*
X69812000Y29189000D02*
X69812000Y26529000D01*
X69812000Y26529000D02*
X67212000Y26529000D01*
X69812000Y29189000D02*
X67212000Y29189000D01*
X67212000Y29189000D02*
X67212000Y26529000D01*
X23390000Y21890000D02*
X23390000Y20560000D01*
X23390000Y20560000D02*
X22060000Y20560000D01*
X20790000Y20560000D02*
X2950000Y20560000D01*
X2950000Y23220000D02*
X2950000Y20560000D01*
X20790000Y23220000D02*
X2950000Y23220000D01*
X20790000Y23220000D02*
X20790000Y20560000D01*
X51330000Y28240000D02*
X51330000Y26910000D01*
X51330000Y26910000D02*
X50000000Y26910000D01*
X48730000Y26910000D02*
X2950000Y26910000D01*
X2950000Y29570000D02*
X2950000Y26910000D01*
X48730000Y29570000D02*
X2950000Y29570000D01*
X48730000Y29570000D02*
X48730000Y26910000D01*
X46250000Y21890000D02*
X46250000Y20560000D01*
X46250000Y20560000D02*
X44920000Y20560000D01*
X43650000Y20560000D02*
X25810000Y20560000D01*
X25810000Y23220000D02*
X25810000Y20560000D01*
X43650000Y23220000D02*
X25810000Y23220000D01*
X43650000Y23220000D02*
X43650000Y20560000D01*
X70380000Y21890000D02*
X70380000Y20560000D01*
X70380000Y20560000D02*
X69050000Y20560000D01*
X67780000Y20560000D02*
X49940000Y20560000D01*
X49940000Y23220000D02*
X49940000Y20560000D01*
X67780000Y23220000D02*
X49940000Y23220000D01*
X67780000Y23220000D02*
X67780000Y20560000D01*
X51330000Y53640000D02*
X51330000Y52310000D01*
X51330000Y52310000D02*
X50000000Y52310000D01*
X48730000Y52310000D02*
X2950000Y52310000D01*
X2950000Y54970000D02*
X2950000Y52310000D01*
X48730000Y54970000D02*
X2950000Y54970000D01*
X48730000Y54970000D02*
X48730000Y52310000D01*
X45036000Y65232000D02*
X49476000Y65232000D01*
X45036000Y56592000D02*
X49476000Y56592000D01*
X49476000Y56592000D02*
X49476000Y65232000D01*
X45036000Y56592000D02*
X45036000Y65232000D01*
X30050000Y65232000D02*
X34490000Y65232000D01*
X30050000Y56592000D02*
X34490000Y56592000D01*
X34490000Y56592000D02*
X34490000Y65232000D01*
X30050000Y56592000D02*
X30050000Y65232000D01*
X38940000Y65232000D02*
X43380000Y65232000D01*
X38940000Y56592000D02*
X43380000Y56592000D01*
X43380000Y56592000D02*
X43380000Y65232000D01*
X38940000Y56592000D02*
X38940000Y65232000D01*
X16969000Y64978000D02*
X21409000Y64978000D01*
X16969000Y56338000D02*
X21409000Y56338000D01*
X21409000Y56338000D02*
X21409000Y64978000D01*
X16969000Y56338000D02*
X16969000Y64978000D01*
X25330000Y15500000D02*
G75*
G03X25330000Y15500000I-3270000J0D01*
G01*
D14*
X41810042Y12411693D02*
X41857661Y12364074D01*
X41905280Y12221217D01*
X41905280Y12125979D01*
X41857661Y11983121D01*
X41762423Y11887883D01*
X41667185Y11840264D01*
X41476709Y11792645D01*
X41333852Y11792645D01*
X41143376Y11840264D01*
X41048138Y11887883D01*
X40952900Y11983121D01*
X40905280Y12125979D01*
X40905280Y12221217D01*
X40952900Y12364074D01*
X41000519Y12411693D01*
X41000519Y12792645D02*
X40952900Y12840264D01*
X40905280Y12935502D01*
X40905280Y13173598D01*
X40952900Y13268836D01*
X41000519Y13316455D01*
X41095757Y13364074D01*
X41190995Y13364074D01*
X41333852Y13316455D01*
X41905280Y12745026D01*
X41905280Y13364074D01*
X65485382Y13227033D02*
X65533001Y13179414D01*
X65580620Y13036557D01*
X65580620Y12941319D01*
X65533001Y12798461D01*
X65437763Y12703223D01*
X65342525Y12655604D01*
X65152049Y12607985D01*
X65009192Y12607985D01*
X64818716Y12655604D01*
X64723478Y12703223D01*
X64628240Y12798461D01*
X64580620Y12941319D01*
X64580620Y13036557D01*
X64628240Y13179414D01*
X64675859Y13227033D01*
X65580620Y14179414D02*
X65580620Y13607985D01*
X65580620Y13893700D02*
X64580620Y13893700D01*
X64723478Y13798461D01*
X64818716Y13703223D01*
X64866335Y13607985D01*
X52103380Y61125142D02*
X51627190Y60791809D01*
X52103380Y60553714D02*
X51103380Y60553714D01*
X51103380Y60934666D01*
X51151000Y61029904D01*
X51198619Y61077523D01*
X51293857Y61125142D01*
X51436714Y61125142D01*
X51531952Y61077523D01*
X51579571Y61029904D01*
X51627190Y60934666D01*
X51627190Y60553714D01*
X52103380Y62077523D02*
X52103380Y61506095D01*
X52103380Y61791809D02*
X51103380Y61791809D01*
X51246238Y61696571D01*
X51341476Y61601333D01*
X51389095Y61506095D01*
X51103380Y62410857D02*
X51103380Y63029904D01*
X51484333Y62696571D01*
X51484333Y62839428D01*
X51531952Y62934666D01*
X51579571Y62982285D01*
X51674809Y63029904D01*
X51912904Y63029904D01*
X52008142Y62982285D01*
X52055761Y62934666D01*
X52103380Y62839428D01*
X52103380Y62553714D01*
X52055761Y62458476D01*
X52008142Y62410857D01*
X28354380Y60871142D02*
X27878190Y60537809D01*
X28354380Y60299714D02*
X27354380Y60299714D01*
X27354380Y60680666D01*
X27402000Y60775904D01*
X27449619Y60823523D01*
X27544857Y60871142D01*
X27687714Y60871142D01*
X27782952Y60823523D01*
X27830571Y60775904D01*
X27878190Y60680666D01*
X27878190Y60299714D01*
X28354380Y61823523D02*
X28354380Y61252095D01*
X28354380Y61537809D02*
X27354380Y61537809D01*
X27497238Y61442571D01*
X27592476Y61347333D01*
X27640095Y61252095D01*
X27449619Y62204476D02*
X27402000Y62252095D01*
X27354380Y62347333D01*
X27354380Y62585428D01*
X27402000Y62680666D01*
X27449619Y62728285D01*
X27544857Y62775904D01*
X27640095Y62775904D01*
X27782952Y62728285D01*
X28354380Y62156857D01*
X28354380Y62775904D01*
X37244380Y60617142D02*
X36768190Y60283809D01*
X37244380Y60045714D02*
X36244380Y60045714D01*
X36244380Y60426666D01*
X36292000Y60521904D01*
X36339619Y60569523D01*
X36434857Y60617142D01*
X36577714Y60617142D01*
X36672952Y60569523D01*
X36720571Y60521904D01*
X36768190Y60426666D01*
X36768190Y60045714D01*
X37244380Y61569523D02*
X37244380Y60998095D01*
X37244380Y61283809D02*
X36244380Y61283809D01*
X36387238Y61188571D01*
X36482476Y61093333D01*
X36530095Y60998095D01*
X37244380Y62521904D02*
X37244380Y61950476D01*
X37244380Y62236190D02*
X36244380Y62236190D01*
X36387238Y62140952D01*
X36482476Y62045714D01*
X36530095Y61950476D01*
X24544380Y61125142D02*
X24068190Y60791809D01*
X24544380Y60553714D02*
X23544380Y60553714D01*
X23544380Y60934666D01*
X23592000Y61029904D01*
X23639619Y61077523D01*
X23734857Y61125142D01*
X23877714Y61125142D01*
X23972952Y61077523D01*
X24020571Y61029904D01*
X24068190Y60934666D01*
X24068190Y60553714D01*
X24544380Y62077523D02*
X24544380Y61506095D01*
X24544380Y61791809D02*
X23544380Y61791809D01*
X23687238Y61696571D01*
X23782476Y61601333D01*
X23830095Y61506095D01*
X23544380Y62696571D02*
X23544380Y62791809D01*
X23592000Y62887047D01*
X23639619Y62934666D01*
X23734857Y62982285D01*
X23925333Y63029904D01*
X24163428Y63029904D01*
X24353904Y62982285D01*
X24449142Y62934666D01*
X24496761Y62887047D01*
X24544380Y62791809D01*
X24544380Y62696571D01*
X24496761Y62601333D01*
X24449142Y62553714D01*
X24353904Y62506095D01*
X24163428Y62458476D01*
X23925333Y62458476D01*
X23734857Y62506095D01*
X23639619Y62553714D01*
X23592000Y62601333D01*
X23544380Y62696571D01*
X47563142Y60069142D02*
X47610761Y60021523D01*
X47658380Y59878666D01*
X47658380Y59783428D01*
X47610761Y59640571D01*
X47515523Y59545333D01*
X47420285Y59497714D01*
X47229809Y59450095D01*
X47086952Y59450095D01*
X46896476Y59497714D01*
X46801238Y59545333D01*
X46706000Y59640571D01*
X46658380Y59783428D01*
X46658380Y59878666D01*
X46706000Y60021523D01*
X46753619Y60069142D01*
X47658380Y61021523D02*
X47658380Y60450095D01*
X47658380Y60735809D02*
X46658380Y60735809D01*
X46801238Y60640571D01*
X46896476Y60545333D01*
X46944095Y60450095D01*
X46658380Y61640571D02*
X46658380Y61735809D01*
X46706000Y61831047D01*
X46753619Y61878666D01*
X46848857Y61926285D01*
X47039333Y61973904D01*
X47277428Y61973904D01*
X47467904Y61926285D01*
X47563142Y61878666D01*
X47610761Y61831047D01*
X47658380Y61735809D01*
X47658380Y61640571D01*
X47610761Y61545333D01*
X47563142Y61497714D01*
X47467904Y61450095D01*
X47277428Y61402476D01*
X47039333Y61402476D01*
X46848857Y61450095D01*
X46753619Y61497714D01*
X46706000Y61545333D01*
X46658380Y61640571D01*
X32577142Y60545333D02*
X32624761Y60497714D01*
X32672380Y60354857D01*
X32672380Y60259619D01*
X32624761Y60116761D01*
X32529523Y60021523D01*
X32434285Y59973904D01*
X32243809Y59926285D01*
X32100952Y59926285D01*
X31910476Y59973904D01*
X31815238Y60021523D01*
X31720000Y60116761D01*
X31672380Y60259619D01*
X31672380Y60354857D01*
X31720000Y60497714D01*
X31767619Y60545333D01*
X32672380Y61021523D02*
X32672380Y61212000D01*
X32624761Y61307238D01*
X32577142Y61354857D01*
X32434285Y61450095D01*
X32243809Y61497714D01*
X31862857Y61497714D01*
X31767619Y61450095D01*
X31720000Y61402476D01*
X31672380Y61307238D01*
X31672380Y61116761D01*
X31720000Y61021523D01*
X31767619Y60973904D01*
X31862857Y60926285D01*
X32100952Y60926285D01*
X32196190Y60973904D01*
X32243809Y61021523D01*
X32291428Y61116761D01*
X32291428Y61307238D01*
X32243809Y61402476D01*
X32196190Y61450095D01*
X32100952Y61497714D01*
X41467142Y60585333D02*
X41514761Y60537714D01*
X41562380Y60394857D01*
X41562380Y60299619D01*
X41514761Y60156761D01*
X41419523Y60061523D01*
X41324285Y60013904D01*
X41133809Y59966285D01*
X40990952Y59966285D01*
X40800476Y60013904D01*
X40705238Y60061523D01*
X40610000Y60156761D01*
X40562380Y60299619D01*
X40562380Y60394857D01*
X40610000Y60537714D01*
X40657619Y60585333D01*
X40990952Y61156761D02*
X40943333Y61061523D01*
X40895714Y61013904D01*
X40800476Y60966285D01*
X40752857Y60966285D01*
X40657619Y61013904D01*
X40610000Y61061523D01*
X40562380Y61156761D01*
X40562380Y61347238D01*
X40610000Y61442476D01*
X40657619Y61490095D01*
X40752857Y61537714D01*
X40800476Y61537714D01*
X40895714Y61490095D01*
X40943333Y61442476D01*
X40990952Y61347238D01*
X40990952Y61156761D01*
X41038571Y61061523D01*
X41086190Y61013904D01*
X41181428Y60966285D01*
X41371904Y60966285D01*
X41467142Y61013904D01*
X41514761Y61061523D01*
X41562380Y61156761D01*
X41562380Y61347238D01*
X41514761Y61442476D01*
X41467142Y61490095D01*
X41371904Y61537714D01*
X41181428Y61537714D01*
X41086190Y61490095D01*
X41038571Y61442476D01*
X40990952Y61347238D01*
X19496142Y60331333D02*
X19543761Y60283714D01*
X19591380Y60140857D01*
X19591380Y60045619D01*
X19543761Y59902761D01*
X19448523Y59807523D01*
X19353285Y59759904D01*
X19162809Y59712285D01*
X19019952Y59712285D01*
X18829476Y59759904D01*
X18734238Y59807523D01*
X18639000Y59902761D01*
X18591380Y60045619D01*
X18591380Y60140857D01*
X18639000Y60283714D01*
X18686619Y60331333D01*
X18591380Y60664666D02*
X18591380Y61331333D01*
X19591380Y60902761D01*
X18820502Y12773653D02*
X18868121Y12726034D01*
X18915740Y12583177D01*
X18915740Y12487939D01*
X18868121Y12345081D01*
X18772883Y12249843D01*
X18677645Y12202224D01*
X18487169Y12154605D01*
X18344312Y12154605D01*
X18153836Y12202224D01*
X18058598Y12249843D01*
X17963360Y12345081D01*
X17915740Y12487939D01*
X17915740Y12583177D01*
X17963360Y12726034D01*
X18010979Y12773653D01*
X17915740Y13106986D02*
X17915740Y13726034D01*
X18296693Y13392700D01*
X18296693Y13535558D01*
X18344312Y13630796D01*
X18391931Y13678415D01*
X18487169Y13726034D01*
X18725264Y13726034D01*
X18820502Y13678415D01*
X18868121Y13630796D01*
X18915740Y13535558D01*
X18915740Y13249843D01*
X18868121Y13154605D01*
X18820502Y13106986D01*
M02*
